<?xml version="1.0" encoding="UTF-8" standalone="no"?>
<!-- Created with Inkscape (http://www.inkscape.org/) -->

<svg
   xmlns:dc="http://purl.org/dc/elements/1.1/"
   xmlns:cc="http://creativecommons.org/ns#"
   xmlns:rdf="http://www.w3.org/1999/02/22-rdf-syntax-ns#"
   xmlns:svg="http://www.w3.org/2000/svg"
   xmlns="http://www.w3.org/2000/svg"
   xmlns:sodipodi="http://sodipodi.sourceforge.net/DTD/sodipodi-0.dtd"
   xmlns:inkscape="http://www.inkscape.org/namespaces/inkscape"
   width="60in"
   height="48in"
   viewBox="0 0 5399.9999 4320"
   id="svg4475"
   version="1.1"
   inkscape:version="0.91pre4 r13712"
   sodipodi:docname="artdeco.svg">
  <defs
     id="defs4477" />
  <sodipodi:namedview
     id="base"
     pagecolor="#ffffff"
     bordercolor="#666666"
     borderopacity="1.0"
     inkscape:pageopacity="0.0"
     inkscape:pageshadow="2"
     inkscape:zoom="0.12374369"
     inkscape:cx="3726.5117"
     inkscape:cy="1574.0899"
     inkscape:document-units="in"
     inkscape:current-layer="layer1"
     showgrid="false"
     units="ft"
     inkscape:window-width="1920"
     inkscape:window-height="1017"
     inkscape:window-x="1912"
     inkscape:window-y="-8"
     inkscape:window-maximized="1" />
  <metadata
     id="metadata4480">
    <rdf:RDF>
      <cc:Work
         rdf:about="">
        <dc:format>image/svg+xml</dc:format>
        <dc:type
           rdf:resource="http://purl.org/dc/dcmitype/StillImage" />
        <dc:title />
      </cc:Work>
    </rdf:RDF>
  </metadata>
  <g
     inkscape:label="Layer 1"
     inkscape:groupmode="layer"
     id="layer1"
     transform="translate(0,3267.6378)">
    <path
       style="color:#000000;display:inline;overflow:visible;visibility:visible;fill:#ffff00;stroke:#ff0000;stroke-width:1.11578476;stroke-linecap:butt;stroke-linejoin:miter;stroke-miterlimit:4;stroke-dasharray:none;stroke-dashoffset:0;stroke-opacity:1;marker:none;enable-background:accumulate"
       d="M 3994.9023 211.98828 L 1837.6133 222.90625 L 768.42578 2096.6328 L 1856.5254 3959.4395 L 4013.8145 3948.5215 L 5083.002 2074.7949 L 3994.9023 211.98828 z M 3860.4863 368.83789 L 3769.8828 526.39648 L 2960.8906 530.49023 L 2960.4297 373.39258 L 3860.4863 368.83789 z M 2869.3945 373.85352 L 2869.8574 530.94922 L 2070.2969 534.99609 L 1979.248 378.35742 L 2869.3945 373.85352 z M 3935.8145 420.45703 L 4384.0215 1187.7773 L 4248.1055 1266.5605 L 3845.5605 577.41016 L 3935.8145 420.45703 z M 1901.584 425.90039 L 1992.8555 582.92383 L 1601.5586 1268.6641 L 1465.0762 1190.8711 L 1901.584 425.90039 z M 3789.3535 572.20898 L 3942.1211 833.74414 L 3864.6719 1083.9023 C 3843.6425 1143.3109 3798.5292 1272.648 3764.4219 1371.3184 C 3730.3136 1469.9887 3691.6588 1580.9927 3678.5195 1617.9941 C 3665.3811 1654.9956 3651.4493 1696.082 3647.5625 1709.2949 C 3638.0708 1741.5593 3634.1211 1742.6746 3603.6738 1721.6855 C 3555.6027 1688.5464 3500.1113 1672.485 3416.543 1667.5215 L 3337.7988 1662.8457 L 3414.0039 1277.8809 C 3455.9171 1066.1505 3496.2619 860.1171 3503.6602 820.0293 C 3509.3638 789.12113 3526.657 680.85659 3545.0098 573.44531 L 3789.3535 572.20898 z M 3492.8926 573.70898 C 3477.4922 678.59342 3459.2237 800.09625 3454.8984 821.9043 C 3447.152 860.9613 3422.8882 984.57936 3400.9785 1096.6113 L 3361.1445 1300.3066 L 3319.8262 1298.8418 C 3297.1025 1298.0366 3255.3842 1296.1923 3227.1191 1294.7422 L 3175.7305 1292.1055 L 3180.7734 1230.7988 C 3183.5465 1197.0804 3192.384 1103.9003 3200.4121 1023.7305 C 3208.4402 943.56094 3216.6489 861.1481 3218.6543 840.5918 C 3223.3477 792.47809 3238.0299 680.51611 3252.6387 574.92578 L 3492.8926 573.70898 z M 3188.8359 575.24805 C 3184.5797 657.55608 3179.8637 747.71271 3177.4883 773.31641 C 3172.9112 822.65151 3167.9653 871.42503 3166.4941 881.70312 C 3165.0248 891.98143 3161.8921 922.25717 3159.5332 948.98047 C 3157.1742 975.70367 3128.2657 1270.0323 3095.293 1603.0449 C 3062.3212 1936.0575 3023.3857 2329.6175 3008.7695 2477.623 C 2994.1533 2625.6287 2980.8544 2750.9292 2979.2168 2756.0684 C 2977.5802 2761.2074 2971.088 2765.4121 2964.793 2765.4121 C 2954.5657 2765.4121 2947.4615 2651.4082 2953.3457 1696.793 L 2960.252 576.4043 L 3188.8359 575.24805 z M 2896.1074 576.72852 L 2904.7578 1696.3809 C 2904.7578 2691.1452 2903.9229 2761.6301 2892.1035 2763.9062 C 2876.0416 2767.0001 2876.6736 2771.0917 2849.0117 2485.0977 C 2836.6845 2357.6483 2790.9781 1893.9565 2747.4434 1454.6699 C 2718.0809 1158.3883 2688.3101 788.29141 2672.4355 577.86133 L 2896.1074 576.72852 z M 2624.3633 578.10547 C 2649.7907 877.165 2683.4504 1288.6455 2681.834 1290.252 C 2681.1041 1290.9763 2638.461 1293.9228 2587.0703 1296.8008 L 2493.6309 1302.0352 L 2439.1406 1022.7266 C 2422.2577 936.18809 2386.1277 738.13127 2357.5703 579.45508 L 2624.3633 578.10547 z M 2294.25 579.77539 C 2341.4667 795.03369 2399.3644 1062.0794 2425.6465 1195.6562 C 2473.7782 1440.2767 2514.8522 1647.3356 2516.9219 1655.7891 C 2520.2528 1669.3847 2517.7823 1670.8203 2495.5332 1668.2227 C 2433.7498 1661.0102 2304.1545 1706.0508 2255.9141 1751.502 C 2244.3963 1762.3534 2234.3042 1771.1953 2233.4883 1771.1953 C 2232.6723 1771.175 2199.4966 1677.8312 2159.7656 1563.7637 C 2120.0336 1449.6968 2059.8571 1277.3199 2026.0391 1180.7051 C 2009.6175 1133.7904 1955.7098 978.65368 1904.5391 830.33594 L 2046.7988 581.02734 L 2294.25 579.77539 z M 1868.4961 893.49609 C 1897.9202 966.46112 1941.3436 1075.4273 1953.5703 1110.3965 L 1987.7949 1208.2754 L 1836.9941 1358.9414 C 1754.0546 1441.8072 1684.4057 1509.6074 1682.2207 1509.6074 C 1679.5353 1509.6074 1635.876 1445.2258 1591.8906 1378.2422 L 1868.4961 893.49609 z M 3986.6973 917.37305 L 4261.4316 1380.3984 C 4186.8415 1491.5833 4202.2681 1476.2644 4044.1348 1348.1328 C 3960.1656 1280.0936 3886.8326 1219.9297 3881.1738 1214.4355 C 3872.4669 1205.9798 3875.8089 1190.2855 3902.9395 1112.2207 C 3914.7742 1078.1669 3952.7538 972.76228 3986.6973 917.37305 z M 3853.8711 1257.3535 C 3856.0409 1257.5676 3879.3891 1275.7951 3906.9707 1298.8438 C 3935.4429 1322.6353 4004.1478 1378.6354 4059.6504 1423.2891 C 4115.1521 1467.9418 4163.5772 1507.1308 4167.2617 1510.375 C 4171.0001 1513.6677 4142.6748 1570.1037 4103.1328 1638.1465 C 4064.1809 1705.1774 3973.709 1861.7422 3902.0859 1986.0684 C 3830.4628 2110.3947 3770.1805 2211.8942 3768.125 2211.625 C 3761.8773 2210.8058 3585.1609 2054.4314 3582.5977 2047.4551 C 3580.7436 2042.4057 3847.5488 1264.943 3853.7285 1257.3887 C 3853.7539 1257.3537 3853.8011 1257.3435 3853.8711 1257.3535 z M 2004.0176 1263.252 C 2006.0731 1263.1885 2049.2288 1383.3467 2099.9199 1530.2676 C 2150.61 1677.1886 2211.8092 1853.7101 2235.9199 1922.5371 L 2279.7559 2047.6777 L 2184.8848 2129.9688 C 2132.7056 2175.2293 2088.3257 2212.242 2086.2598 2212.168 C 2084.1948 2212.1171 2042.3525 2142.3185 1993.2773 2057.0605 C 1944.2021 1971.8025 1858.6973 1823.3299 1803.2656 1727.1211 L 1702.4824 1552.1934 L 1851.3809 1407.7812 C 1933.2747 1328.3547 2001.9621 1263.326 2004.0176 1263.252 z M 4429.9375 1266.3848 L 4879.959 2036.8125 L 4698.207 2037.1289 L 4294.0215 1345.1699 L 4429.9375 1266.3848 z M 1419.959 1269.9375 L 1556.4414 1347.7305 L 1159.5586 2043.2559 L 978.50781 2043.5664 L 1419.959 1269.9375 z M 2688.3828 1337.2715 L 2712.4043 1582.2832 C 2725.6174 1717.0401 2757.2487 2036.9579 2782.6973 2293.2109 C 2822.2591 2691.5658 2827.4172 2760.1069 2818.2754 2765.8926 C 2787.7013 2785.2402 2786.3142 2781.2349 2737.1719 2531.8164 C 2711.0473 2399.228 2648.0381 2080.7275 2597.1523 1824.0371 C 2546.2665 1567.3467 2507.2018 1355.0079 2510.3438 1352.1719 C 2513.4855 1349.3359 2554.8293 1344.8242 2602.2188 1342.1445 L 2688.3828 1337.2715 z M 3171.875 1337.3027 L 3225.1934 1341.6504 C 3305.8619 1348.2291 3344.6294 1352.7212 3347.7637 1355.8555 C 3349.3209 1357.4133 3333.7041 1442.2603 3313.0586 1544.4043 C 3292.413 1646.5483 3241.5389 1903.3537 3200.002 2115.084 C 3158.466 2326.8144 3112.6252 2558.9141 3098.1328 2630.8613 C 3083.6405 2702.8086 3069.5215 2763.5292 3066.7578 2765.7949 C 3061.3516 2770.2268 3028.0957 2766.378 3028.0957 2761.3203 C 3028.0957 2759.6423 3044.8194 2590.8474 3065.2598 2386.2207 C 3085.7001 2181.5939 3116.0391 1876.2573 3132.6777 1707.6953 C 3149.3163 1539.1334 3164.9422 1386.8373 3167.4023 1369.2598 L 3171.875 1337.3027 z M 4286.9492 1424.0859 L 4527.4551 1835.8262 C 4469.5634 1932.2763 4375.743 2025.224 4293.4727 2109.7734 C 4280.2369 2125.0284 4268.464 2137.4959 4267.3105 2137.4219 C 4266.157 2137.3733 4250.0773 2123.0209 4231.5762 2105.5293 C 4213.0759 2088.0384 4160.9371 2040.5185 4115.7129 1999.9297 C 4070.4895 1959.341 4027.1578 1920.1753 4019.4199 1912.8945 C 4005.7445 1900.0262 4009.0782 1893.1816 4139.0195 1667.4004 C 4212.5373 1539.6589 4275.407 1435.074 4278.7285 1435 C 4281.4682 1431.1642 4284.208 1427.5384 4286.9492 1424.0859 z M 1564.7793 1425.7559 C 1672.7223 1601.8529 1829.149 1861.2488 1840.1992 1885.5 C 1848.9052 1904.6099 1846.2039 1908.6685 1770.8594 1989.6777 C 1727.7398 2036.0385 1674.086 2093.8184 1651.6289 2118.0742 L 1610.7969 2162.1738 L 1535.2109 2076.9609 C 1493.6385 2030.0932 1449.0943 1979.9734 1436.2246 1965.584 C 1426.8656 1955.1199 1377.4763 1902.2708 1325.9805 1844.2441 L 1564.7793 1425.7559 z M 3400.207 1712.4609 C 3471.8838 1712.5783 3559.7368 1740.0617 3597.6055 1776.3262 L 3617.6992 1795.5684 L 3603.6758 1833.8574 C 3595.9645 1854.9153 3549.3941 1988.1965 3500.1875 2130.0352 C 3450.9808 2271.874 3356.3242 2544.3377 3289.8379 2735.5117 C 3223.3507 2926.6858 3166.6924 3085.0857 3163.9297 3087.5098 C 3155.8108 3094.6365 3065.4707 3063.9726 3065.4707 3054.0898 C 3065.4707 3049.1263 3078.731 2977.9403 3094.9375 2895.8965 C 3111.1431 2813.8527 3165.1213 2539.8528 3214.8867 2287.0098 C 3327.867 1712.9984 3325.2935 1725.6953 3329.5 1721.4883 C 3331.4241 1719.5642 3351.7434 1716.0557 3374.6543 1713.6914 C 3382.8463 1712.8459 3391.4046 1712.4469 3400.207 1712.4609 z M 2474.8848 1720.1426 C 2476.123 1720.1305 2477.3526 1720.1307 2478.5742 1720.1426 C 2481.0962 1720.167 2483.5808 1720.2422 2486.0254 1720.3711 L 2529.1367 1722.6445 L 2583.2441 1995.4844 C 2711.2434 2640.9182 2788.8984 3039.0445 2788.8984 3049.8086 C 2788.8965 3057.4114 2772.5073 3066.6932 2741.0039 3076.9355 L 2693.1113 3092.5078 L 2648.1699 2964.4668 C 2604.5567 2840.2084 2575.657 2757.3234 2400.2305 2253.373 C 2354.4342 2121.8125 2302.6516 1973.247 2285.1602 1923.2285 C 2256.9574 1842.579 2254.4521 1830.1947 2263.0371 1813.8086 C 2286.6641 1768.7165 2396.873 1720.9035 2474.8848 1720.1426 z M 4553.084 1879.7031 L 4668.2676 2076.8945 L 4399.4531 2547.9863 L 4386.1816 2519.0762 C 4350.9208 2442.2568 4282.9539 2385.8873 4172.5879 2341.9297 C 4155.416 2335.09 4159.532 2329.3804 4277.1074 2196.916 C 4359.5354 2104.0847 4461.4544 1991.364 4553.084 1879.7031 z M 1302.3301 1885.6914 L 1536.4082 2147.875 C 1610.1806 2231.2365 1671.693 2302.9084 1673.1055 2307.1445 C 1674.5171 2311.3807 1656.4797 2324.5561 1633.0215 2336.4258 C 1582.8028 2361.8334 1526.3085 2410.7325 1495.5938 2455.375 C 1483.5321 2472.906 1467.2873 2503.4786 1459.4961 2523.3145 L 1449.0918 2549.8027 L 1183.1602 2094.5332 L 1302.3301 1885.6914 z M 1878.457 1950.5059 C 1878.7306 1950.4635 1878.9282 1950.5043 1879.0469 1950.6328 C 1889.399 1961.8432 2424.8612 2896.72 2425.541 2904.7773 C 2425.9901 2910.0688 2407.8797 2929.6509 2385.2969 2948.293 C 2362.714 2966.935 2342.5321 2982.123 2340.4473 2982.123 C 2338.3625 2982.0864 2268.8825 2905.5594 2186.0488 2812.0645 C 2103.2152 2718.5698 1947.6076 2542.948 1840.252 2421.7949 C 1732.8963 2300.6411 1645.9356 2199.1397 1647.0059 2196.2363 C 1648.9763 2190.8939 1745.0938 2085.3227 1829.5508 1995.7383 C 1853.2927 1970.5541 1874.3529 1951.1405 1878.457 1950.5059 z M 3980.2363 1952.0137 C 3991.5866 1951.8754 4018.5309 1974.7292 4109.1016 2056.1133 C 4178.5189 2118.4887 4235.9819 2169.9986 4236.7988 2170.5742 C 4237.6156 2171.1521 4098.3789 2329.6149 3927.3848 2522.7129 C 3756.3906 2715.8117 3594.0385 2899.1895 3566.6035 2930.2207 L 3516.7207 2986.6406 L 3474.8398 2952.6445 C 3451.805 2933.9472 3430.7847 2916.4678 3428.127 2913.8008 C 3425.4702 2911.1336 3487.8963 2796.7663 3566.8535 2659.6504 C 3873.9553 2126.339 3965.0504 1968.8261 3973.8008 1956.0117 C 3975.4632 1953.5772 3977.3431 1952.0487 3980.2363 1952.0137 z M 2296.8613 2100.1348 C 2300.248 2100.1348 2303.1245 2104.3394 2303.2598 2109.4785 C 2303.3921 2114.6176 2360.0462 2281.1015 2429.1562 2479.4434 L 2554.8125 2840.0664 L 2514.9902 2862.5391 C 2493.0891 2874.8999 2474.2797 2884.9666 2473.1895 2884.8906 C 2472.0994 2884.8234 2424.2571 2803.252 2366.873 2703.6211 C 2309.4898 2603.9901 2227.9796 2462.6103 2185.7402 2389.4434 L 2108.9434 2256.4121 L 2133.0996 2235.3223 C 2224.2979 2155.7004 2291.6073 2100.1348 2296.8613 2100.1348 z M 3561.6953 2102.4082 C 3565.0836 2102.3522 3595.4762 2126.3262 3630.8047 2156.9863 C 3667.2729 2188.6364 3708.0946 2224.0523 3721.5176 2235.6895 L 3745.9219 2256.8496 L 3662.4043 2400.875 C 3616.469 2480.0886 3535.375 2620.5824 3482.1973 2713.0859 C 3429.0187 2805.5895 3384.9182 2881.9034 3384.1855 2882.6719 C 3382.3749 2884.5787 3304.6719 2839.5254 3304.6719 2836.5684 C 3304.6719 2831.3209 3558.6299 2105.3134 3561.4531 2102.4902 C 3561.5055 2102.4382 3561.586 2102.4082 3561.6953 2102.4082 z M 4872.916 2127.8594 L 4440.0039 2886.5273 L 4303.5195 2808.7344 L 4691.8652 2128.1719 L 4872.916 2127.8594 z M 1153.2207 2134.2988 L 1557.4043 2826.2559 L 1421.4902 2905.043 L 971.46875 2134.6152 L 1153.2207 2134.2988 z M 1708.9609 2354.2852 C 1714.0844 2354.2852 1766.7462 2408.9459 1825.9863 2475.7539 C 1973.0616 2641.616 2459.8031 3192.2639 2473.0352 3207.7559 C 2482.5911 3218.9437 2479.1582 3225.7476 2440.9863 3271.293 C 2417.4731 3299.3475 2396.1537 3324.5295 2393.6094 3327.252 C 2390.3053 3330.7869 1838.8554 2992.1083 1630.1699 2859.8047 L 1483.0254 2607.8984 C 1492.5347 2539.7424 1531.1878 2466.1197 1580.7754 2425.8887 C 1614.1185 2398.8372 1693.8748 2354.2852 1708.9609 2354.2852 z M 4120.3711 2377.291 L 4169.4648 2395.1113 C 4280.5475 2435.4322 4340.7011 2498.1407 4368.3398 2602.5098 L 4220.7539 2861.1504 L 3901.0449 3060.6758 C 3670.4751 3204.57 3477.448 3324.9017 3472.0938 3328.0801 C 3465.8109 3331.8101 3459.1717 3327.9052 3453.3711 3317.0664 C 3448.4281 3307.8303 3427.7843 3282.7194 3407.4961 3261.2676 L 3370.6074 3222.2637 L 3481.4102 3096.6211 C 3542.3512 3027.5166 3602.7059 2959.202 3615.5332 2944.8125 C 3628.3606 2930.4231 3671.7586 2881.6498 3711.9746 2836.4258 C 3752.1888 2791.2019 3795.5918 2742.4265 3808.4258 2728.0371 C 3821.2597 2713.6477 3868.5768 2659.8264 3913.5742 2608.4355 C 3958.5725 2557.0447 4023.5108 2484.0137 4057.8809 2446.1445 L 4120.3711 2377.291 z M 2904.4609 2814.0996 C 2973.0319 2813.8758 3050.9082 2815.6492 3054.4258 2819.1602 C 3059.1267 2823.8508 3036.8629 2953.613 3019.7988 3020.9824 L 3012.8125 3048.5645 L 2927.625 3050.8828 L 2842.4395 3053.2012 L 2834.3027 3012.0879 C 2829.8268 2989.4758 2819.456 2937.6225 2811.2578 2896.8574 C 2803.0595 2856.0931 2798.3151 2820.773 2800.7148 2818.3691 C 2803.4246 2815.6557 2851.128 2814.2737 2904.4609 2814.0996 z M 2568.918 2885.627 L 2607.5859 2997.2949 L 2646.2539 3108.9648 L 2594.6074 3139.127 C 2566.2023 3155.7164 2540.9138 3172.6031 2538.4121 3176.6523 C 2535.9094 3180.7015 2529.8557 3183.998 2524.959 3183.998 C 2510.5329 3183.9735 2376.0936 3027.2343 2380.5469 3015.6309 C 2384.8715 3004.3592 2474.1189 2940.3595 2532.5723 2906.6113 L 2568.918 2885.627 z M 4258.4023 2887.8047 L 4394.8848 2965.5957 L 3943.2188 3757.1348 L 3851.9434 3600.1113 L 4258.4023 2887.8047 z M 3293.1719 2892.4883 C 3307.0449 2892.4883 3390.2742 2945.0356 3439.3457 2984.7773 L 3484.0762 3021.0039 L 3438.6133 3070.7402 C 3411.0241 3099.9415 3386.6519 3130.8939 3335.1855 3184.0137 C 3332.6866 3184.0137 3312.1841 3170.6676 3289.625 3154.3555 C 3267.0667 3138.0427 3244.8173 3124.5895 3240.1816 3124.4551 C 3235.5459 3124.3228 3227.6017 3119.2113 3222.5273 3113.0977 C 3215.0268 3104.061 3219.9507 3082.3847 3248.8418 2997.2344 C 3268.3877 2939.6236 3288.3357 2892.4883 3293.1719 2892.4883 z M 1603.3203 2904.8652 L 2005.8672 3594.0156 L 1915.6094 3750.9688 L 1467.4062 2983.6484 L 1603.3203 2904.8652 z M 1681.5039 2947.6895 C 1841.2242 3045.0511 2145.1669 3233.1444 2151.834 3239.6797 C 2152.9629 3240.7867 2144.0063 3262.5844 2131.9297 3288.1191 C 2119.853 3313.6539 2103.9982 3354.4966 2096.6934 3378.8809 C 2089.3896 3403.2653 2081.5257 3423.2148 2079.2188 3423.2148 C 2076.9119 3423.2148 2044.7687 3400.509 2007.7891 3372.7578 C 1987.1988 3357.306 1928.5778 3313.3927 1867.9199 3266.8301 L 1681.5039 2947.6895 z M 4170.877 2948.5586 L 4012.3203 3226.4258 C 4009.2615 3229.5922 4006.1929 3232.7567 4003.1016 3235.9199 C 3976.8925 3262.7382 3949.5088 3289.4438 3920.873 3316.1113 C 3877.8252 3351.8958 3828.3695 3390.6184 3810.9707 3402.1621 C 3773.9835 3426.7018 3768.1616 3427.7836 3768.0273 3410.1328 C 3767.9744 3402.9381 3753.5471 3361.3954 3735.9688 3317.8145 L 3704.0078 3238.5762 C 3869.2856 3135.5879 4013.6212 3044.429 4170.877 2948.5586 z M 2194.6309 3265.9551 L 2269.3809 3311.7129 C 2371.5166 3374.2341 2368.2829 3370.0821 2345.3984 3409.3223 C 2334.9471 3427.2415 2320.5849 3462.9256 2313.4824 3488.6211 C 2306.379 3514.3164 2296.6696 3535.3398 2291.9062 3535.3398 C 2281.332 3535.3398 2155.0178 3473.6458 2136.4023 3459.3887 C 2123.5872 3449.5755 2123.6761 3447.097 2138.5117 3400.6719 C 2147.0305 3374.0136 2163.1417 3332.7964 2174.3145 3309.0781 L 2194.6309 3265.9551 z M 3638.8164 3279.1055 L 3725.4824 3450.5254 C 3679.6748 3482.7032 3617.4385 3514.2102 3560.7559 3542.0098 C 3539.7832 3480.8475 3513.3548 3424.5904 3494.2031 3364.373 L 3638.8164 3279.1055 z M 3767.7988 3636.4961 L 3858.8477 3793.1328 L 2970.4707 3797.6309 L 2970.0117 3640.5332 L 3767.7988 3636.4961 z M 2878.9766 3640.9941 L 2879.4375 3798.0898 L 1990.9414 3802.5879 L 2081.543 3645.0312 L 2878.9766 3640.9941 z "
       transform="translate(0,-3267.6378)"
       id="path4473" />
  </g>
</svg>
