<?xml version="1.0" encoding="UTF-8" standalone="no"?>
<!-- Created with Inkscape (http://www.inkscape.org/) -->

<svg
   xmlns:dc="http://purl.org/dc/elements/1.1/"
   xmlns:cc="http://creativecommons.org/ns#"
   xmlns:rdf="http://www.w3.org/1999/02/22-rdf-syntax-ns#"
   xmlns:svg="http://www.w3.org/2000/svg"
   xmlns="http://www.w3.org/2000/svg"
   xmlns:sodipodi="http://sodipodi.sourceforge.net/DTD/sodipodi-0.dtd"
   xmlns:inkscape="http://www.inkscape.org/namespaces/inkscape"
   width="60in"
   height="48in"
   viewBox="0 0 5399.9999 4320"
   id="svg4475"
   version="1.1"
   inkscape:version="0.91pre4 r13712"
   sodipodi:docname="castle.svg">
  <defs
     id="defs4477" />
  <sodipodi:namedview
     id="base"
     pagecolor="#ffffff"
     bordercolor="#666666"
     borderopacity="1.0"
     inkscape:pageopacity="0.0"
     inkscape:pageshadow="2"
     inkscape:zoom="0.175"
     inkscape:cx="3021.7425"
     inkscape:cy="2003.6027"
     inkscape:document-units="in"
     inkscape:current-layer="layer1"
     showgrid="false"
     units="ft"
     inkscape:window-width="958"
     inkscape:window-height="1008"
     inkscape:window-x="953"
     inkscape:window-y="0"
     inkscape:window-maximized="0" />
  <metadata
     id="metadata4480">
    <rdf:RDF>
      <cc:Work
         rdf:about="">
        <dc:format>image/svg+xml</dc:format>
        <dc:type
           rdf:resource="http://purl.org/dc/dcmitype/StillImage" />
        <dc:title></dc:title>
      </cc:Work>
    </rdf:RDF>
  </metadata>
  <g
     inkscape:label="Layer 1"
     inkscape:groupmode="layer"
     id="layer1"
     transform="translate(0,3267.6378)">
    <path
       inkscape:transform-center-y="-929.27467"
       inkscape:transform-center-x="3.4701824"
       transform="matrix(12.202989,0,0,12.186382,19015.579,3648.7844)"
       d="m -1027.7542,-213.55932 -265.009,-0.49272 -265.0091,-0.49271 132.9313,-229.25822 132.9312,-229.25821 132.0778,229.75093 z"
       inkscape:randomized="0"
       inkscape:rounded="0"
       inkscape:flatsided="false"
       sodipodi:arg2="1.5726556"
       sodipodi:arg1="0.52545802"
       sodipodi:r2="153.00331"
       sodipodi:r1="306.00662"
       sodipodi:cy="-367.05508"
       sodipodi:cx="-1292.4788"
       sodipodi:sides="3"
       id="path3107"
       style="color:#000000;display:inline;overflow:visible;visibility:visible;fill:none;stroke:#ff0000;stroke-width:1;stroke-linecap:square;stroke-linejoin:round;stroke-miterlimit:4;stroke-dasharray:4, 1;stroke-dashoffset:0;stroke-opacity:1;marker:none;enable-background:accumulate"
       sodipodi:type="star" />
    <path
       d="M 4309.7518,-2695.6492 5397.852,-832.84216 4328.6639,1040.8837 2171.3756,1051.8026 1083.2754,-811.0044 2152.4635,-2684.7303 Z"
       inkscape:randomized="0"
       inkscape:rounded="0"
       inkscape:flatsided="true"
       sodipodi:arg2="-0.52866008"
       sodipodi:arg1="-1.0522589"
       sodipodi:r2="1868.2906"
       sodipodi:r1="2157.3159"
       sodipodi:cy="-821.92328"
       sodipodi:cx="3240.5637"
       sodipodi:sides="6"
       id="path3049-5"
       style="color:#000000;display:inline;overflow:visible;visibility:visible;fill:#ffff00;stroke:#ff0000;stroke-width:1.11578476;stroke-linecap:butt;stroke-linejoin:miter;stroke-miterlimit:4;stroke-dasharray:none;stroke-dashoffset:0;stroke-opacity:1;marker:none;enable-background:accumulate"
       sodipodi:type="star" />
    <path
       id="path8"
       style="fill:#ff0000;stroke:#ff0000;stroke-width:1.59170282"
       d="m 3649.0638,128.81044 c 9.8854,-0.1598 20.6274,4.14623 29.714,12.47561 6.6635,6.66351 8.4812,26.65561 9.087,91.47309 l 0,83.59543 -33.317,0 -33.3169,0 0,-86.62333 c 0,-79.35593 1.2106,-87.83843 11.5088,-95.71354 4.7704,-3.40752 10.3932,-5.11144 16.3241,-5.20726 z m -178.5815,-22.26839 c 6.2449,-0.50888 11.931,17.08406 13.2373,46.25583 1.8174,38.16362 -4.8449,59.36463 -15.143,49.67227 -5.4519,-6.0577 -10.299,-74.51111 -5.4527,-86.62652 2.3852,-6.13346 4.9148,-9.10231 7.3584,-9.30158 z m -73.352,-44.999672 c 1.8284,-0.0175 4.0155,0.57874 6.628,1.60093 7.2693,2.42305 8.4799,13.32701 7.2683,46.644372 -1.2116,35.13478 -3.6341,43.00845 -12.1149,44.8257 -9.6923,1.81741 -10.9026,-3.02933 -10.9026,-43.0102 0,-38.390602 1.1982,-49.985842 9.1212,-50.060802 z m -66.065,-51.10242 c 6.6635,0 8.4808,10.29928 8.4808,48.46289 0,44.826972 -1.2115,48.460042 -12.7212,48.460042 -11.5096,0 -12.1142,-3.0271 -10.9025,-44.219582 1.8172,-49.06742 2.4217,-52.70335 15.1429,-52.70335 z m -73.2991,-42.40392 c 7.2691,0 9.087,9.088783 9.087,45.435 0,36.34621 -1.8179,45.43181 -9.087,45.43181 -7.2693,0 -9.087,-9.0856 -9.087,-45.43181 0,-36.346217 1.8177,-45.435 9.087,-45.435 z m -127.2119,-66.633929 c 7.8751,0 9.0861,7.2701 7.8746,43.616319 -1.2116,27.865461 -4.2378,44.220689 -9.084,46.0380943 -6.0575,1.817242 -7.8776,-9.6931553 -7.8776,-43.6163183 0,-37.557819 1.8179,-46.038095 9.087,-46.038095 z m -72.693,-6.059139 c 7.2693,0 9.0871,8.481388 9.0871,38.769905 0,41.192473 -3.6346,58.1562003 -12.7212,58.1562003 -3.0288,0 -5.4497,-21.8091933 -5.4497,-48.4630453 0,-38.769428 1.8146,-48.46306 9.0838,-48.46306 z m 605.7735,-381.63558 c 7.8752,0 9.0862,8.48314 7.8746,49.67545 -1.2116,32.71172 -4.2409,50.2768 -9.087,52.09404 -6.0577,1.81741 -7.8746,-10.90284 -7.8746,-49.67227 0,-43.0097 1.8179,-52.09722 9.087,-52.09722 z m -135.5683,-204.93175 c 0.3462,0 0.7063,0.0703 1.085,0.18334 4.8461,1.8173 7.2714,16.35434 7.2714,44.21958 0,27.8655 -2.4253,42.40494 -7.2714,43.61636 -6.0577,2.4232 -7.8746,-9.08736 -7.8746,-43.61636 0,-32.37074 1.5986,-44.50939 6.7896,-44.40292 z m -454.4528,-25.25889 c 3.0288,0 9.0848,6.0553 14.5367,13.93048 14.5384,23.01913 18.1748,52.09733 6.6652,56.33764 -7.8751,3.02881 -9.6933,13.327 -9.6933,55.12512 0,49.67323 -0.6061,50.88659 -13.3273,49.06918 -11.5096,-1.21145 -13.9309,-6.05913 -14.5367,-23.02064 -0.6058,-11.5096 -1.2129,-25.44337 -1.8187,-30.89526 0,-5.45191 -9.0856,-12.11394 -19.9896,-15.14283 -18.1731,-5.45191 -19.9909,-7.87509 -21.8081,-33.9232 -1.8174,-27.25962 -0.605,-29.07623 26.6547,-49.67244 15.75,-12.1154 30.894,-21.80805 33.3171,-21.80805 z m 88.442,-6.05916 c 1.2116,0 1.8156,49.67347 1.8156,110.25048 0,73.90401 -2.4214,107.82717 -6.0559,101.76947 -3.0289,-4.8461 -6.0592,-35.13381 -6.0592,-66.63393 0,-40.58667 -3.0293,-61.18365 -9.0869,-69.05874 -13.327,-17.56731 -10.9039,-46.03791 4.2404,-62.39363 7.2692,-7.87509 13.9345,-13.93365 15.146,-13.93365 z m 458.7959,-29.93452 c 2.0622,0.0815 3.0282,1.38722 2.8011,3.88598 0,3.0289 -7.8755,27.86627 -17.5678,56.33757 l -16.9616,51.49093 -0.6062,-46.03808 c -0.6058,-41.79812 0.6062,-47.25063 13.3274,-55.73143 9.0865,-6.81484 15.5701,-10.08104 19.0071,-9.94497 z m -329.0721,-47.70138 c 9.4583,-0.21295 16.3039,9.18551 21.7181,29.17609 3.6346,15.14421 7.2684,56.33576 7.2684,92.07635 l 0.6061,65.42132 -35.7387,0 -35.1356,0 2.4218,-44.21941 c 4.8461,-84.2022 12.7235,-127.81813 24.2331,-136.29893 5.4897,-3.9753 10.3275,-6.05848 14.6268,-6.15542 z m -11.2165,-708.93559 c 0.9606,-0.059 2.0403,0.056 3.2517,0.2828 8.4809,1.8173 10.2977,9.6911 12.1151,49.0662 1.8173,43.6155 0.6071,46.6443 -10.9025,46.6443 -10.904,0 -12.1151,-3.6333 -12.1151,-49.0661 0,-37.6334 0.9257,-46.5131 7.6508,-46.9272 z m 89.2721,-37.2776 c 3.6347,0 6.056,15.1447 6.056,34.5293 0,49.6733 -9.6911,61.1838 -15.143,18.1741 -4.8461,-35.7404 -1.8168,-52.7034 9.087,-52.7034 z m -57.8585,-697.0835 c -62.9353,251.4241 -85.2467,497.7077 -157.5544,666.3901 -8.6885,19.864 33.2022,29.2799 50.962,44.7081 17.4592,84.5211 12.0439,210.1138 13.5717,340.7444 0.217,18.5729 -27.0504,20.0584 -42.9483,31.1478 -1.02,-17.2718 1.5672,-27.8002 7.9959,-39.1479 1.9934,-3.5184 6.975,-5.9743 8.2982,-19.8788 -5.7321,-20.9679 -40.1562,-109.0788 -57.1371,-323.0036 -4.5584,38.6256 -20.2641,27.8733 -31.9979,63.8063 l 18.9068,-5.8893 -3.6342,28.4703 c -6.6635,44.827 -38.7684,204.7514 -45.4319,221.7129 -9.0866,24.2308 -7.2689,30.8943 9.087,38.1636 13.9328,6.6635 15.143,10.2985 15.143,47.2506 0,27.2598 -3.0293,44.2213 -9.087,50.8847 -6.6635,7.2693 -7.8755,21.8082 -4.8467,72.693 l 3.6373,63.60596 24.8361,12.11498 c 36.3464,17.56731 47.856,44.82486 50.8849,124.18078 2.423,63.00026 2.4222,63.6076 -13.9337,78.7519 l -16.9617,15.14292 3.6342,-61.78732 c 4.2405,-66.63469 -0.6056,-79.35546 -25.4422,-71.48046 -15.7501,4.8462 -22.4145,28.47078 -13.9337,50.27846 7.875,20.5962 13.9354,86.02045 7.8777,86.02045 -2.423,0 -10.9057,-7.27153 -19.3864,-15.75233 -7.8751,-8.48071 -18.778,-13.93262 -24.23,-12.7212 -12.1154,3.0289 -30.2891,-34.52848 -55.7313,-113.88437 -33.9232,-104.79831 -40.5867,-144.17267 -55.1253,-325.29807 -1.2726,-15.1661 -6.631,-28.0576 -7.6662,-39.0091 -6.266,25.08 -3.9806,14.7787 -6.2673,25.0786 l -7.2685,84.808 c -6.6633,81.7789 -20.5948,164.16367 -40.5852,233.22166 -19.3847,68.45211 -46.6471,149.02011 -54.522,161.74131 -7.8751,12.72102 -6.6622,14.53721 18.7802,32.10452 27.8654,19.3847 35.7391,34.52942 32.1044,64.21214 -1.2114,13.32699 -6.6612,18.17276 -26.6515,24.83608 l -24.8362,8.48079 3.0279,29.07977 c 2.423,24.83661 0.6045,30.89416 -10.2994,38.16346 -10.2981,7.26915 -12.1136,13.93059 -10.2963,35.13254 1.2115,15.14426 5.4524,27.86499 9.0869,29.07659 9.6924,3.02885 29.6806,44.82919 26.6518,53.91574 -1.8174,4.24046 -9.0866,7.87464 -16.9616,7.87464 -10.2981,0 -15.1438,3.63497 -16.3554,13.32733 -1.2115,9.08655 -6.6631,14.53781 -16.3553,15.74926 l -14.5399,2.42161 4.2405,-67.24005 c 3.6344,-62.39427 3.0292,-67.23829 -7.8747,-73.296 -15.1442,-7.87494 -46.6431,-7.87494 -61.7873,0 -8.4808,4.84626 -11.5086,12.7185 -11.5086,30.28581 0,12.72121 3.0269,25.44369 6.0558,27.26109 3.6346,1.81725 6.059,21.20243 6.059,43.01019 0,21.80777 -2.4244,38.76975 -6.059,38.76975 -3.0289,0 -6.0558,-3.03029 -6.0558,-6.05914 0,-8.48074 -26.0493,-7.87399 -35.1358,1.21256 -4.8461,4.8461 -7.2683,32.71173 -7.2683,84.80785 l 0,76.93336 18.171,9.69013 c 10.298,5.4519 21.8081,16.96182 26.0486,26.04853 3.6346,9.08655 12.1158,19.99259 17.5677,24.23304 9.6924,7.26914 10.9025,18.77716 10.9025,95.104239 l 0,87.835889 -28.4702,28.4735 -29.0766,29.07659 -1.8187,-21.20196 c -1.8173,-16.96166 1.2143,-24.23065 16.3586,-37.55734 10.298,-9.08672 18.777,-19.3859797 18.777,-23.0206397 0,-3.634655 -10.9026,-27.2583883 -23.6237,-53.3066073 -27.8654,-55.125121 -48.4618,-120.549201 -50.8848,-158.107021 -1.8172,-37.55781 -14.5402,-38.76815 -19.3865,-2.42177 -4.846,33.31736 -38.7697,128.420647 -64.2121,178.699673 l -16.9615,33.9231643 26.6548,22.4145207 27.2609,21.80808 0,72.693072 c 0,47.25001 -2.4248,72.08662 -6.6652,72.08662 -83.5954,128.42432 -24.5735,32.851 -83.5954,128.42432 l -1.8187,39.97912 c -849.1524,173.75454 -77.3549,570.20921 668.0892,548.93235 1068.1582,33.26952 1541.4964,-424.29554 598.5798,-438.6821 -3.0288,0 -5.4529,-60.5756 -5.4529,-142.35474 0,-133.26962 0.6045,-142.35792 10.9027,-142.35792 47.6468,-23.73149 -5.7584,-108.762332 10.9055,-159.316402 16.3559,-45.432768 17.5666,-99.953687 3.0282,-137.511338 -7.2694,-18.17327 -12.7213,-46.03778 -12.7213,-62.39348 0,-24.23081 -1.8169,-28.47031 -12.1151,-28.47031 -8.4807,0 -12.1149,-4.24046 -12.1149,-12.72121 0,-7.26931 -4.8475,-16.9615 -10.2995,-21.20196 -9.6923,-6.66351 -10.9015,-19.38598 -9.69,-133.2709 l 1.8155,-125.9995 30.2889,-30.89527 30.2892,-30.89511 -11.5088,-34.52627 c -12.1154,-34.52881 -26.6558,-89.65504 -49.0693,-187.78986 -16.3557,-71.48097 -34.5271,-224.13659 -35.7387,-302.88669 -0.6058,-31.5001 -12.7212,-28.4714 -12.7212,3.6342 0,49.0676 -44.8297,282.89703 -54.5221,282.89703 -7.8749,0 -29.0769,-59.97213 -50.8846,-145.38575 -14.5387,-59.97138 -22.4119,-107.22188 -27.2579,-178.70278 -4.2405,-53.3079 -9.0881,-102.9816 -10.2995,-110.8566 -5.4519,-26.0482 -14.5367,-6.6625 -14.5367,30.8953 0,34.5288 -7.8773,95.1069 -24.233,192.0301 -7.8751,46.03863 -50.8848,193.23914 -63.606,218.07572 -13.3271,26.04802 -11.507,33.92457 12.118,48.46307 l 21.202,13.32734 0,79.96137 c 0,78.75016 0,80.56614 -14.5399,87.22964 -10.9037,4.84626 -13.3261,9.69235 -11.5086,21.20196 1.8172,10.29815 -1.2124,19.38646 -9.6933,27.86721 -16.9615,16.96167 -16.9621,56.33578 -0.6062,79.35514 11.5096,15.75006 12.1172,25.44321 10.9056,94.50115 l -1.8185,76.93337 -20.5959,-19.38646 -20.5956,-19.38345 4.2402,-290.77179 c 4.2405,-319.84676 2.4211,-303.49027 43.6134,-354.98078 18.1731,-21.80771 20.5988,-29.68271 20.5988,-59.36549 l 0,-34.5294 -24.233,-9.087 c -26.6539,-10.904 -28.4698,-16.3544 -15.143,-53.3064 4.8463,-12.7212 7.8741,-24.23 7.2683,-24.23 -0.6056,-0.6058 -16.9598,-10.9055 -35.7387,-23.6267 -27.8654,-17.5673 -35.1359,-26.0487 -35.7417,-38.7699 -4.3487,-106.7255 39.4257,-158.932 84.808,-238.0683 l -3.0282,-79.9613 c -3.6344,-79.3559 -3.6353,-79.9624 11.5089,-93.895 l 14.5398,-13.9304 -14.5398,-35.7419 c -15.75,-39.3753 -29.6842,-122.9713 -35.7419,-212.0197 -2.423,-31.4999 -6.0577,-61.1812 -8.4807,-65.4214 -1.8172,-4.2405 -7.2679,35.1337 -10.9025,87.8357 -6.6635,94.5002 -26.6527,186.5774 -40.5853,186.5774 -12.1156,0 -38.1645,-111.4619 -47.8567,-203.539 0.5587,-117.6605 -11.6061,-273.4653 -6.9739,-381.4849 z"
       inkscape:connector-curvature="0"
       sodipodi:nodetypes="scccccscscccccccccscssscsssssssccssssssssccssccscscsccsccccccssscsccscccccccccccccccccccsscsscscccccccccccccsccccccccccsccccccccccccccccccsccccccscsssssccccscccccscccccccscccccscccsssccccccccsscccsccccsccscccccccsccccccccccccccscc" />
  </g>
</svg>
