<?xml version="1.0" encoding="UTF-8" standalone="no"?>
<!-- Created with Inkscape (http://www.inkscape.org/) -->

<svg
   xmlns:dc="http://purl.org/dc/elements/1.1/"
   xmlns:cc="http://creativecommons.org/ns#"
   xmlns:rdf="http://www.w3.org/1999/02/22-rdf-syntax-ns#"
   xmlns:svg="http://www.w3.org/2000/svg"
   xmlns="http://www.w3.org/2000/svg"
   xmlns:sodipodi="http://sodipodi.sourceforge.net/DTD/sodipodi-0.dtd"
   xmlns:inkscape="http://www.inkscape.org/namespaces/inkscape"
   width="60in"
   height="48in"
   viewBox="0 0 5399.9999 4320"
   id="svg4475"
   version="1.1"
   inkscape:version="0.91pre4 r13712"
   sodipodi:docname="wave_optical_illusion.svg">
  <defs
     id="defs4477" />
  <sodipodi:namedview
     id="base"
     pagecolor="#ffffff"
     bordercolor="#666666"
     borderopacity="1.0"
     inkscape:pageopacity="0.0"
     inkscape:pageshadow="2"
     inkscape:zoom="0.11313708"
     inkscape:cx="795.49755"
     inkscape:cy="932.41657"
     inkscape:document-units="in"
     inkscape:current-layer="layer1"
     showgrid="false"
     units="ft"
     inkscape:window-width="1920"
     inkscape:window-height="1017"
     inkscape:window-x="-8"
     inkscape:window-y="-8"
     inkscape:window-maximized="1" />
  <metadata
     id="metadata4480">
    <rdf:RDF>
      <cc:Work
         rdf:about="">
        <dc:format>image/svg+xml</dc:format>
        <dc:type
           rdf:resource="http://purl.org/dc/dcmitype/StillImage" />
        <dc:title></dc:title>
      </cc:Work>
    </rdf:RDF>
  </metadata>
  <g
     inkscape:label="Layer 1"
     inkscape:groupmode="layer"
     id="layer1"
     transform="translate(0,3267.6378)">
    <path
       style="color:#000000;clip-rule:nonzero;display:inline;overflow:visible;visibility:visible;opacity:1;isolation:auto;mix-blend-mode:normal;color-interpolation:sRGB;color-interpolation-filters:linearRGB;solid-color:#000000;solid-opacity:1;fill:#ff0000;fill-opacity:1;fill-rule:nonzero;stroke:none;stroke-width:9;stroke-linecap:butt;stroke-linejoin:miter;stroke-miterlimit:4;stroke-dasharray:none;stroke-dashoffset:0;stroke-opacity:1;color-rendering:auto;image-rendering:auto;shape-rendering:auto;text-rendering:auto;enable-background:accumulate"
       d="m 4728.4905,-953.35287 -1131.2636,-1959.41203 -2262.535,0 -1131.26598,1959.41003 25.979,45 1105.28698,1914.41177 2262.535,0 1131.2636,-1959.40977 z m -220.1035,-21.235 c -3.6863,-3.063 -7.2222,-6.591 -10.5586,-10.611 -5.9209,-7.135 -10.1063,-17.52903 -12.1758,-28.76603 l 22.7344,39.37703 z m -54.7949,117.731 c -0.3565,61.67198 -81.7587,97.06298 -126.8438,42.73798 -12.5998,-15.181 -17.3464,-45.11998 -10.5507,-66.53098 8.665,-27.3 28.6243,-38.93 66.8203,-38.93 38.1959,0 58.1553,11.63 66.8203,38.93 2.6181,8.249 3.7977,16.219 3.7539,23.793 z m -18.5664,-200.72703 c -0.1404,6.787 -1.296,13.906 -3.6367,21.281 -13.4444,42.35803 -54.6806,63.37603 -94.4239,48.12503 -38.8729,-14.91703 -51.9653,-61.41103 -29.2461,-103.86103 35.1399,-65.659 128.6636,-31.148 127.3067,34.455 z m -47.4824,-126.31 c -9.3846,6.822 -20.7998,11.956 -33.8204,14.513 -48.6876,9.561 -88.6924,-49.494 -64.3437,-94.986 8.0816,-15.101 20.2841,-25.252 34.1797,-30.352 l 63.9844,110.825 z m -1.2071,463.17201 -41.3203,71.57 c -0.05,-20.572 7.2467,-41.979 22.7949,-57.528 5.29,-5.289 11.8479,-10.162 18.5254,-14.042 z m -101.4765,83.888 c -0.3092,51.34 -54.4719,98.392 -99.8418,60.738 -35.7597,-29.678 -39.0379,-79.831 -7.295,-111.574 30.476,-30.477 62.6284,-28.776 90.4844,4.789 11.7959,14.214 16.747,30.331 16.6524,46.047 z m -14.8946,-215.83398 c 0.072,35.20498 -24.0155,56.64698 -67.5332,56.64698 -62.8261,0 -86.3458,-48.26298 -46.7617,-95.95698 29.4563,-35.494 92.4053,-35.612 105.9942,-0.198 5.5681,14.51 8.2766,27.773 8.3007,39.508 z m -26.123,-215.21903 c -0.04,16.821 -4.9908,34.233 -13.6524,44.67 -53.1511,64.04203 -150.1402,1.397 -111.0175,-71.705 25.2778,-47.231 106.0255,-43.794 121.5683,5.174 2.1237,6.691 3.1199,14.216 3.1016,21.861 z m -7.4785,606.92601 -63.7168,110.36 c -3.732,-6.375 -6.7618,-14.594 -9.3496,-24.907 -6.5815,-26.222 -6.3795,-56.714 0.4492,-67.765 11.1648,-18.064 44.0707,-23.146 72.6172,-17.688 z m -9.8965,-786.80601 c -0.049,39.643 -25.9521,63.357 -69.2324,58.337 -41.4266,-4.804 -49.8457,-15.411 -49.8457,-62.806 0,-47.628 8.3467,-57.993 50.6425,-62.885 36.4,-4.21 53.8953,4.395 62.209,30.588 4.2267,13.317 6.2403,25.665 6.2266,36.766 z m -16.711,-184.967 c 0.01,4.368 -0.4035,8.8 -1.2617,13.256 -4.5835,23.8 -23.8197,34.177 -63.3476,34.177 -50.4014,0 -56.7676,-6.395 -56.7676,-57.027 0,-43.341 9.5239,-58.386 39.6816,-62.695 43.0193,-6.146 81.6444,30.067 81.6953,72.289 z m -38.0664,-125.029 c -36.2785,19.114 -81.4034,-8.813 -88.9804,-59.249 -3.9623,-26.376 4.7499,-46.928 21.1914,-58.168 l 67.789,117.417 z m -77.289,947.18901 c 0.141,9.554 -2.613,19.698 -9.0664,29.996 -30.3033,48.358 -95.4282,50.032 -120.5469,3.098 -16.3104,-30.477 -16.0553,-47.086 1.041,-67.686 42.6523,-51.39101 127.8107,-16.999 128.5723,34.592 z m -14.5254,-223.084 c 0.072,35.205 -24.0156,56.645 -67.5313,56.645 -62.8286,0 -86.3497,-48.263 -46.7656,-95.95798 29.4574,-35.493 92.406,-35.612 105.9961,-0.197 5.5678,14.509 8.2768,27.775 8.3008,39.50998 z m -2.8223,442.838 c 0.2142,37.462 -32.2724,70.023 -76.2871,70.023 -37.8286,0 -45.4492,-9.564 -45.4492,-57.027 0,-48.11 8.1906,-57.97 52.3828,-63.051 35.6679,-4.104 56.3453,4.304 64.8047,26.344 3.0508,7.95 4.5044,15.936 4.5488,23.711 z m -17.1875,-662.27401 c 0,61.23503 -41.9242,85.90803 -96.4218,56.74103 -41.3275,-22.11703 -48.0436,-75.30203 -13.8301,-109.51603 46.8206,-46.821 110.2519,-16.457 110.2519,52.775 z m -2.1816,893.96101 c 0,2.843 -0.188,5.713 -0.5449,8.598 l -16.8985,29.27 c -10.3989,6.533 -25.8183,9.568 -47.166,9.568 -50.4002,0 -56.7676,-6.395 -56.7676,-57.027 0,-43.342 9.5253,-58.39 39.6817,-62.698 43.0203,-6.146 81.6451,30.066 81.6953,72.289 z m -16.8262,-1102.30601 c 0,37.891 -11.6962,57.874 -38.9316,66.519 -72.5,23.01 -125.3769,-65.992 -71.3223,-120.047 47.0642,-47.063 110.2539,-16.383 110.2539,53.528 z m -22.4687,-187.817 c 0.077,39.781 -26.1385,58.243 -75.1368,51.309 -35.8723,-5.074 -44.9628,-17.893 -44.9628,-63.389 0,-47.901 8.2601,-57.978 51.6113,-62.976 42.1856,-4.864 53.9104,3.199 64.1914,44.16 2.8612,11.401 4.279,21.716 4.2969,30.896 z m -4.0489,-360.744 c 0.1673,32.428 -25.0506,54.026 -69.2812,54.026 -61.5591,0 -93.1847,-60.077 -55.5176,-105.463 29.8497,-35.968 80.9639,-34.726 106.8086,-0.026 l 9.0332,15.649 c 5.987,12.881 8.9011,24.956 8.957,35.814 z m 0,165.076 c -0.065,12.689 -4.0174,27.038 -12.2382,42.399 -39.3639,73.553 -148.5238,22.576 -123.1114,-57.492 8.6113,-27.134 28.6315,-38.93 66.0684,-38.93 44.2306,0 69.4485,21.596 69.2812,54.023 z m -31.6523,1623.344006 -63.4414,109.882995 c -19.7189,-16.998 -31.1398,-44.362995 -21.2481,-75.530995 7.9269,-24.971 28.6964,-38.928 57.9297,-38.928 9.6396,0 18.6204,1.642 26.7598,4.576 z M 3952.637,-1937.1759 c -7.915,-1.074 -16.1801,-3.722 -24.6191,-8.238 -33.0906,-17.709 -45.7182,-63.474 -34.6895,-94.488 l 59.3086,102.726 z m -66.0332,1131.73701 c 0.01,4.367 -0.4036,8.8 -1.2617,13.256 -4.5846,23.8 -23.8205,34.179 -63.3496,34.179 -50.4002,0 -56.7656,-6.394 -56.7656,-57.027 0,-43.33998 9.5219,-58.38698 39.6796,-62.69498 43.0192,-6.147 81.6461,30.066 81.6973,72.28697 z m -6.0664,-226.16201 c 0.318,28.684 -16.6724,52.10503 -47.3945,60.14003 -75.6597,19.786 -127.5183,-61.50003 -73.6192,-115.39803 34.2135,-34.213 87.3963,-27.497 109.5157,13.83 7.633,14.263 11.3535,28.389 11.498,41.428 z m -1.3984,449.03501 c 0.8026,48.423 -53.2311,89.564 -102.0918,63.414 -44.5631,-23.849 -52.7948,-76.22 -17.5235,-111.49 35.2712,-35.271 87.6429,-27.042 111.4922,17.521 5.4272,10.141 7.9565,20.505 8.1231,30.555 z m -12.4766,-681.56301 c -0.3091,51.34 -54.4718,98.391 -99.8418,60.737 -35.7584,-29.678 -39.0399,-79.832 -7.2969,-111.575 30.4771,-30.477 62.6303,-28.775 90.4864,4.789 11.7959,14.214 16.7469,30.333 16.6523,46.049 z m -17.0371,896.61701 c -0.069,40.693 -39.5802,82.964 -92.9922,66.012 -24.433,-7.755 -38.9277,-28.706 -38.9277,-56.269 0,-59.09 37.0537,-86.173 90.2929,-66 29.2937,11.1 41.6658,33.43 41.627,56.257 z m -4.0449,-1096.73401 c -0.6787,60.819 -82.4843,95.621 -127.1192,41.84 -12.5985,-15.18 -17.597,-44.328 -11.1074,-64.775 21.0421,-66.301 113.5953,-66.67 134.5859,-0.534 2.5828,8.138 3.724,16 3.6407,23.469 z m -17.2832,1307.60201 c 0.078,39.78 -26.1356,58.240996 -75.1348,51.308 -35.8723,-5.076 -44.9629,-17.891 -44.9629,-63.388 0,-47.901 8.2589,-57.98 51.6113,-62.979 42.1857,-4.864 53.9096,3.202 64.1895,44.162 2.8615,11.401 4.2789,21.716 4.2969,30.897 z m -10.5313,-2014.13501 c -13.2904,19.976 -36.0858,34.625 -65.1777,34.625 -18.4504,0 -42.4025,-16.546 -53.2246,-36.77 -25.4492,-47.553 -25.1445,-50.09 10.1953,-85.429 17.8615,-17.863 28.9706,-26.747 41.7246,-27.578 l 66.4824,115.152 z m -5.0156,151.812 c 0,28.274 -50.7695,72.905 -82.9336,72.905 -15.7754,0 -69.1387,-58.689 -69.1387,-76.037 0,-8.962 13.442,-29.738 29.8711,-46.166 51.5596,-51.56 122.2012,-23.061 122.2012,49.298 z M 3812.303,15.020106 c 0.06,8.724 -0.9182,18.398 -2.959,28.996 -4.6239,24.010995 -23.7377,34.376995 -63.3867,34.376995 -50.4015,0 -56.7656,-6.395 -56.7656,-57.027995 0,-48.109 8.1898,-57.969 52.3809,-63.052 46.023,-5.294 70.4401,14.671 70.7304,56.707 z m -2.2539,-1676.293006 c -0.1999,22.039 -9.4591,43.276 -30.0762,54.814 -69.77,39.045 -134.3921,-50.782 -77.4765,-107.695 12.5459,-12.547 32.2204,-22.811 43.7207,-22.811 39.336,0 64.1653,38.96 63.832,75.692 z m -2.6523,-182.532 c -1.3458,64.552 -93.2529,92.939 -134.1719,27.643 -14.3467,-22.892 -12.9198,-40.018 5.1387,-61.779 36.127,-43.527 110.2123,-38.305 125.1699,8.824 2.8285,8.912 4.0285,17.385 3.8633,25.312 z m -4.2266,2048.6177 c -0.3539,26.2 -12.6089,51.3161 -39.4121,61.60151 -65.386,25.091 -117.5524,-39.92331 -83.334,-103.85931 10.7842,-20.1519 36.115,-36.6409 56.2891,-36.6409 42.0684,0 66.9742,40.6063 66.457,78.8987 z m -23.5918,125.40041 -61.0019,105.6601 c -41.1986,-12.1411 -52.2107,-52.4002 -19.1231,-92.2695 12.5985,-15.179 33.6413,-27.5996 46.7637,-27.5996 11.6166,0 23.2488,5.4803 33.3613,14.209 z m -99.8926,-1123.6271 c 0,28.637 -43.1067,82.934 -65.8418,82.934 -29.1758,0 -86.2304,-50.311 -86.2304,-76.037 0,-8.961 13.4432,-29.734 29.8711,-46.164 16.4303,-16.42898 37.2046,-29.87198 46.166,-29.87198 17.3485,0 76.0351,53.36398 76.0351,69.13898 z m -1.8203,-225.17201 c 0.035,35.54203 -29.8768,70.38803 -70.7324,76.47903 -29.5064,4.398 -43.3318,-6.659 -52.123,-41.69 -6.5814,-26.22203 -6.3795,-56.71703 0.4492,-67.76503 19.4713,-31.505 105.086,-23.543 118.3457,11.007 2.757,7.186 4.0533,14.593 4.0605,21.969 z m -1.2929,-226.533 c -0.309,51.34 -54.4729,98.39 -99.8438,60.736 -35.7584,-29.677 -39.0366,-79.833 -7.2949,-111.574 30.4772,-30.477 62.629,-28.775 90.4863,4.789 11.7962,14.214 16.7469,30.333 16.6524,46.049 z m -16.3399,-222.562 c 0.06,8.724 -0.9182,18.398 -2.959,28.996 -4.6239,24.011 -23.7396,34.377 -63.3886,34.377 -50.4015,0 -56.7657,-6.395 -56.7657,-57.028 0,-48.11 8.1899,-57.968 52.3809,-63.053 46.024,-5.292 70.442,14.672 70.7324,56.708 z m -4.9062,897.47601 c -1.3467,64.55 -93.2549,92.942 -134.1739,27.647 -14.3455,-22.893 -12.9211,-40.02 5.1387,-61.78 36.1257,-43.529 110.2131,-38.306 125.1719,8.823 2.8284,8.911 4.0286,17.383 3.8633,25.31 z m -2.6231,1120.1739 -49.2812,85.3574 c -6.0476,2.4606 -12.3637,3.8301 -18.7793,3.8301 -42.4624,0 -80.9258,-60.1881 -64.9961,-101.7031 20.3638,-53.067 109.5219,-53.3337 129.8379,-0.3867 1.5908,4.1451 2.6453,8.4723 3.2187,12.9023 z m -16.3867,-2222.69291 c -1.3459,64.55 -93.253,92.939 -134.1719,27.644 -14.3455,-22.891 -12.9199,-40.018 5.1387,-61.779 36.1257,-43.529 110.2122,-38.307 125.1699,8.824 2.8285,8.911 4.0286,17.383 3.8633,25.311 z m -12.6582,1295.28101 c 0.072,35.205 -24.0125,56.646 -67.5293,56.646 -62.8273,0 -86.3485,-48.264 -46.7656,-95.959 29.4587,-35.494 92.4072,-35.611 105.9961,-0.197 5.5678,14.51 8.2747,27.775 8.2988,39.51 z m -1.5996,736.3494 c -0.2122,27.0734 -11.4776,57.0129 -32.1738,68.5957 -69.7724,39.046 -134.3929,-50.7793 -77.4786,-107.6953 23.7697,-23.768 46.3168,-26.4326 86.4922,-10.2226 15.9246,6.4257 23.336,26.89 23.1602,49.3222 z m -4.8301,-2223.08941 c 0.1587,38.163 -29.9119,65.135 -75.5254,62.834 -34.1854,-1.724 -42.6035,-13.414 -42.6035,-59.176 0,-47.627 8.3486,-57.991 50.6445,-62.883 37.7466,-4.367 53.8771,4.338 63.3477,34.178 2.7686,8.723 4.1038,17.126 4.1367,25.047 z m -0.1719,-544.1 c 0.021,1.007 0.02,2.022 0,3.043 -0.1584,6.758 -1.3059,13.805 -3.6074,21.057 -7.9269,24.972 -28.6963,38.929 -57.9297,38.929 -55.406,0 -89.3868,-53.783 -63.3633,-100.287 34.9305,-62.415 123.6025,-26.202 124.9043,37.258 z m -13.2011,2218.85901 c -0.01,34.739 -21.8883,60.095 -59.7188,64.496 -54.8699,6.385 -82.1684,-34.219 -63.1953,-93.998 13.4653,-42.427 99.8923,-48.37 115.4082,-7.935 5.079,13.236 7.5079,25.858 7.5059,37.437 z m -0.9473,359.07459 c -0.2295,26.2701 -10.312,55.827 -29.3633,71.6386 -59.2612,49.18101 -133.5219,-46.1402 -83.1914,-106.7832 23.346,-28.132 47.1352,-32.119 89.5352,-15.012 15.7523,6.357 23.222,26.977 23.0195,50.1566 z m -0.6387,-2399.9026 c 0.6013,36.343 -29.0134,75.088 -77.5117,75.088 -40.5404,0 -71.4093,-50.184 -59.3164,-96.43 11.4159,-43.653 41.7588,-54.699 95.4375,-34.748 28.2027,10.484 41.0052,32.794 41.3906,56.09 z m -2.332,-317.816 c -49.407,27.564 -114.5714,-14.518 -96.6094,-83.203 4.0938,-15.656 15.4571,-26.429 30.0469,-32.086 l 66.5625,115.289 z M 3598.721,4.9691058 c -0.3607,37.5250002 -24.2391,63.9179952 -62.6914,63.9179952 -55.0266,0 -88.3047,-52.322995 -63.1602,-99.304995 24.1417,-45.112 105.9468,-44.037 120.4258,1.582 3.7827,11.918 5.5268,23.2979998 5.4258,33.8049998 z M 3598.0472,-2047.1109 c 0.021,1.007 0.02,2.022 0,3.043 -0.1585,6.758 -1.3058,13.803 -3.6075,21.055 -7.9268,24.971 -28.6956,38.929 -57.9277,38.929 -55.4062,0 -89.3879,-53.784 -63.3633,-100.285 34.9282,-62.417 123.6011,-26.202 124.9024,37.258 z m -126.0313,838.5 c -0.4792,26.904 -15.9769,52.017 -49.1445,56.279 -61.3472,7.885 -92.0409,-23.125 -78.0527,-78.857 9.2758,-36.958 24.5838,-49.563 60.1953,-49.563 43.4063,0 67.618,37.55 67.0019,72.141 z m -0.092,-233.781 c 0.044,29.164 -17.972,58.05 -55.998,63.455 -59.7547,8.491 -85.9115,-21.375 -70.9453,-81.006 9.1131,-36.309 24.5834,-48.914 60.0332,-48.914 43.6112,0 66.8599,33.411 66.9101,66.465 z m -1.3379,453.83603 c 0,67.701 -100.3338,92.11 -132.3925,32.209 -25.4483,-47.55203 -25.1452,-50.09403 10.1933,-85.43403 16.4291,-16.429 37.2034,-29.871 46.166,-29.871 24.4124,0 76.0332,56.416 76.0332,83.09603 z m 0,1788.54638 c 0,9.414 -1.011,18.1317 -2.8886,26.0664 l -126.5411,0 c -6.9175,-22.8874 -0.9692,-48.894 19.1797,-69.043 43.4833,-43.484 110.25,-17.4574 110.25,42.9766 z m -0.8633,-218.6309 c 0.012,37.391 -30.9997,76.8067 -78.3046,76.8067 -37.1823,0 -81.1562,-66.312 -63.2188,-95.336 22.5686,-36.5149 76.3644,-53.7769 109.6133,-35.1699 22.1338,12.3862 31.9034,32.7238 31.9101,53.6992 z m -18.7441,-2256.41451 c -0.212,27.074 -11.4769,57.013 -32.1738,68.596 -69.7725,39.045 -134.3928,-50.782 -77.4785,-107.695 23.7684,-23.769 46.3148,-26.434 86.4902,-10.223 15.9246,6.426 23.3378,26.891 23.1621,49.322 z m -1.582,2048.17431 c 0.01,4.3679 -0.4036,8.7997 -1.2617,13.2559 -4.5835,23.8 -23.8199,34.1797 -63.3477,34.1797 -50.4015,0 -56.7676,-6.3954 -56.7676,-57.0274 0,-43.341 9.524,-58.3891 39.6817,-62.6973 43.0191,-6.1478 81.6442,30.0666 81.6953,72.2891 z m -2.8594,-1153.1873 c 0.4602,29.623 -23.9891,59.384 -62.2715,66.902 -48.6888,9.561 -88.693,-49.492 -64.3457,-94.984 23.1747,-43.30298 80.2237,-45.94898 113.9707,-5.287 8.4719,10.208 12.4664,21.777 12.6465,33.369 z m -13.9687,-1090.41001 c -2e-4,61.235 -41.9241,85.904 -96.4219,56.74 -41.3262,-22.118 -48.043,-75.303 -13.8281,-109.516 46.8192,-46.822 110.25,-16.456 110.25,52.776 z m -13.0762,1300.13601 c 0.399,37.94 -32.8837,73.893 -71.6817,66.274 -45.0822,-8.852 -76.5892,-59.774 -61.4297,-99.279 16.3313,-42.56 102.2702,-39.626 125.7754,4.294 4.9454,9.241 7.2343,19.04 7.336,28.711 z m -5.9336,-2037.90401 c 0,18.451 -15.9242,42.071 -35.3906,52.488 -50.0085,26.764 -103.1878,-15.733 -94.7246,-75.695 11.767,-83.362 130.1152,-62.253 130.1152,23.207 z m 0,2772.4805 c 0,37.891 -11.6934,57.8746 -38.9278,66.5196 -72.4998,23.01 -125.378,-65.9907 -71.3222,-120.0471 47.0629,-47.062999 110.25,-16.383999 110.25,53.5275 z m -2.1817,-2224.2655 c 0.01,4.368 -0.4015,8.8 -1.2597,13.256 -4.5824,23.8 -23.8205,34.178 -63.3496,34.178 -50.4003,0 -56.7657,-6.395 -56.7657,-57.028 0,-43.34 9.5241,-58.386 39.6817,-62.695 43.0203,-6.145 81.6432,30.068 81.6933,72.289 z m -10.5507,-199.182 c -0.2068,35.506 -29.8433,66.032 -72.4707,66.032 -53.369,0 -81.7999,-63.653 -47.1016,-105.461 31.4296,-37.87 89.1689,-34.668 111.0176,6.156 5.9242,11.069 8.6179,22.404 8.5547,33.273 z m -0.018,2235.932006 c 0.091,13.4599998 -2.9717,27.2129998 -9.4942,39.894 -32.1812,62.568995 -129.8261,28.044 -129.8261,-45.904 0,-18.45 16.5464,-42.402 36.7695,-53.224 43.2531,-23.148996 42.7572,-23.111996 69.6816,-5.129 21.0283,14.043 32.6957,38.667 32.8692,64.363 z m -0.3242,-2409.940006 c 0.3996,37.941 -32.8858,73.893 -71.6836,66.274 -45.0822,-8.853 -76.5892,-59.775 -61.4297,-99.279 16.3325,-42.56 102.2703,-39.626 125.7754,4.293 4.9456,9.241 7.236,19.041 7.3379,28.712 z m 0,2052.96901 c 0.3996,37.941 -32.8858,73.895 -71.6836,66.274 -45.0822,-8.852 -76.5892,-59.777 -61.4297,-99.282 16.3325,-42.56 102.2703,-39.625 125.7754,4.295 4.9456,9.241 7.236,19.042 7.3379,28.713 z m -8.1153,183.102 c 0.01,4.368 -0.4016,8.8 -1.2597,13.256 -4.5835,23.8 -23.8218,34.177 -63.3496,34.177 -50.4015,0 -56.7657,-6.394 -56.7657,-57.027 0,-43.34 9.5221,-58.386 39.6797,-62.695 43.0192,-6.147 81.6443,30.067 81.6953,72.289 z m -112.4922,797.1287 c -0.088,42.0637 -41.1479,84.6 -93.5117,67.9805 -43.5384,-13.819 -52.8667,-83.297 -16.1191,-120.045 27.2379,-27.238 33.8005,-27.4323 76.9863,-2.2793 22.9584,13.3718 32.6873,33.8011 32.6445,54.3438 z m -3.8984,-2021.39871 c 0.3953,33.225 -24.9114,64.633 -62.625,64.633 -58.6087,0 -90.2001,-55.128 -57.3418,-100.066 29.4083,-40.218 73.9167,-42.512 104.7207,-5.395 10.3312,12.449 15.0792,26.8 15.2461,40.828 z m -5.4785,-229.777 c 0.061,14.601 -8.6875,27.963 -28.0195,47.295 -30.9314,30.931 -46.5807,34.771 -76.4727,18.773 -42.1501,-22.558 -49.2629,-75.526 -14.7715,-110.017 34.4913,-34.492 87.4607,-27.381 110.0195,14.771 5.999,11.209 9.2073,20.417 9.2442,29.178 z m -2.6621,456.633 c 0,10.913 -2.8068,22.21 -8.9063,33.109 -39.1545,69.966 -145.8417,15.997 -121.291,-61.355 7.9269,-24.974 28.6952,-38.93 57.9297,-38.93 42.4194,0 72.2798,31.527 72.2676,67.176 z m -6.0488,1575.25561 c 0.2795,34.4641 -20.6095,58.8711 -55.5157,58.8711 -52.3406,0 -89.2497,-47.42 -71.9648,-92.461 14.7973,-38.559 105.4281,-41.3523 119.8789,-3.6953 5.0622,13.1915 7.5084,25.7971 7.6016,37.2852 z m -0.7579,445.3652 -131.0234,0 c 0.02,-7.489 1.3871,-15.1479 4.3008,-22.7402 14.7973,-38.558 105.4281,-41.3504 119.8789,-3.6934 3.5124,9.153 5.7623,18.0223 6.8437,26.4336 z m -11.6972,-2695.80881 c -0.1749,28.905 -17.6778,57.624 -47.836,67.196 -70.7652,22.46 -122.4225,-67.548 -69.2714,-120.698 30.5629,-30.562 63.5829,-28.748 97.6972,5.367 13.3819,13.382 19.5151,30.792 19.4102,48.135 z m -6.8535,2036.8166 c 0,40.5 -61.7546,77.1909 -103.1739,61.2969 -35.2896,-13.541 -39.5992,-85.1355 -7.08,-117.6545 12.5459,-12.545999 32.2203,-22.809999 43.7207,-22.809999 31.672,0 66.5332,41.480999 66.5332,79.167599 z m -1.7852,-2252.0276 c 0.2615,10.46 -5.9945,22.869 -17.8945,45.104 -36.6619,68.505 -144.3865,26.432 -129.211,-50.465 9.4952,-48.113 84.4948,-69.49 119.8321,-34.154 18.3092,18.31 26.977,27.661 27.2734,39.515 z m -0.3984,1108.44403 c 0.01,4.367 -0.4035,8.798 -1.2618,13.256 -4.5822,23.799 -23.8185,34.179 -63.3476,34.179 -50.4002,0 -56.7656,-6.394 -56.7656,-57.027 0,-43.34003 9.5233,-58.38603 39.6797,-62.69503 43.0203,-6.147 81.6451,30.064 81.6953,72.28703 z m -16.8262,932.827976 c 0,45.8669998 -48.7898,79.736 -94.1328,65.345 -43.5384,-13.8180002 -52.8668,-83.297 -16.1192,-120.044 12.546,-12.545996 32.2204,-22.812996 43.7207,-22.812996 31.1285,0 66.5313,41.243996 66.5313,77.511996 z m -0.4453,-739.665996 c 0.06,8.724 -0.9202,18.398 -2.961,28.996 -4.6239,24.009 -23.7377,34.375 -63.3867,34.375 -50.4015,0 -56.7656,-6.396 -56.7656,-57.027 0,-48.11 8.1917,-57.967 52.3828,-63.051 46.0231,-5.29398 70.4401,14.671 70.7305,56.707 z m -18.5645,-1840.13301 c 0,15.776 -58.6853,69.139 -76.0351,69.139 -8.9613,0 -29.7368,-13.442 -46.166,-29.871 -16.4279,-16.429 -29.8711,-37.203 -29.8711,-46.167 0,-8.959 13.4432,-29.733 29.8711,-46.162 40.2183,-40.218 78.695,-37.629 102.5234,6.897 10.8234,20.223 19.6777,40.996 19.6777,46.164 z m -0.3164,351.289 c 0.4736,28.764 -24.0906,50.506 -66.4746,50.506 -45.3699,0 -58.0545,-9.109 -63.1816,-45.373 -3.5283,-24.955 5.0253,-52.624 19.0097,-61.487 37.252,-23.612 65.3392,-20.254 91.1973,10.901 13.0147,15.682 19.218,31.405 19.4492,45.453 z m -2.5293,1683.02701 c -0.1666,8.679 -3.425,17.591 -9.7011,27.606 -45.9453,73.315 -156.1692,28.521 -130.3086,-52.955 14.9589,-47.13 89.0443,-52.353 125.1699,-8.824 10.1587,12.241 15.0541,23.015 14.8398,34.173 z m -2.6152,-1864.43701 c -0.3565,61.671 -81.7576,97.063 -126.8438,42.738 -12.5985,-15.179 -17.3476,-45.117 -10.5507,-66.529 8.6651,-27.303 28.6244,-38.932 66.8203,-38.932 38.1947,0 58.1553,11.629 66.8203,38.932 2.6181,8.249 3.7977,16.217 3.7539,23.791 z m 0,2224.05101 c -0.3565,61.671 -81.7576,97.062 -126.8438,42.738 -12.5985,-15.181 -17.3476,-45.12 -10.5507,-66.531 8.6651,-27.301 28.6244,-38.93 66.8203,-38.93 38.1947,0 58.1553,11.629 66.8203,38.93 2.6181,8.249 3.7977,16.219 3.7539,23.793 z m -2.0469,-173.776 c 0.1675,32.428 -25.0486,54.026 -69.2793,54.026 -61.5591,0 -93.1846,-60.075 -55.5176,-105.461 32.2646,-38.877 89.3705,-34.292 112.5586,9.039 8.2212,15.36 12.1728,29.707 12.2383,42.396 z m -125.5547,-991.46701 c 0,29.393 -61.0133,78.058 -90.5625,72.233 -47.1254,-9.291 -74.2802,-66.736 -49.8691,-105.498 11.5212,-18.297 33.964,-35.834 49.8691,-38.969 29.5492,-5.826 90.5625,42.839 90.5625,72.234 z m -0.4453,2018.10981 c 0.06,8.7244 -0.9182,18.3986 -2.959,28.9961 -4.6239,24.01 -23.7384,34.377 -63.3886,34.377 -50.4003,0 -56.7637,-6.3954 -56.7637,-57.0274 0,-48.11 8.1886,-57.9697 52.3808,-63.0527 46.0231,-5.2934 70.4401,14.6713 70.7305,56.707 z m -1.3789,-234.7578 c 0.2144,37.4619 -32.2684,70.0234 -76.2832,70.0234 -37.8274,0 -45.4492,-9.5643 -45.4492,-57.0273 0,-48.11 8.1886,-57.9697 52.3808,-63.0527 35.6678,-4.104 56.3477,4.3037 64.8047,26.3457 3.0508,7.95 4.5024,15.9358 4.5469,23.7109 z m -0.3574,-2011.37301 c 0.01,4.368 -0.4016,8.8 -1.2598,13.256 -4.5836,23.801 -23.8224,34.178 -63.3515,34.178 -50.4003,0 -56.7637,-6.395 -56.7637,-57.028 0,-43.34 9.5221,-58.386 39.6797,-62.695 43.018,-6.146 81.644,30.067 81.6953,72.289 z m -0.5371,-232.787 c -0.6535,50.924 -56.4064,99.315 -103.0449,60.609 -36.5088,-30.3 -34.7678,-106.11 2.7695,-120.515 42.4403,-16.287 54.2912,-14.621 80.1836,11.271 14.4049,14.405 20.3096,31.66 20.0918,48.635 z m -9.9395,2029.6932 c 0,10.9128 -2.807,22.2124 -8.9062,33.1113 -39.1557,69.96601 -145.8425,15.9957 -121.293,-61.3575 7.9268,-24.973 28.6964,-38.93 57.9297,-38.93 42.4203,0 72.2815,31.528 72.2695,67.1762 z m -9.4648,-2255.5972 c -0.3091,51.34 -54.4719,98.392 -99.8418,60.738 -41.1451,-34.147 -37.8483,-90.884 6.6621,-114.707 47.09,-25.2 49.2197,-24.981 76.5273,7.922 11.796,14.213 16.747,30.33 16.6524,46.047 z m -1.5625,2907.57181 -116.4356,0 c 4.7921,-21.4559 17.9015,-27.6649 49.9375,-31.3496 35.6679,-4.103 56.3453,4.3047 64.8047,26.3457 0.6398,1.6673 1.1925,3.3358 1.6934,5.0039 z m -14.2969,-873.900804 c 0.2741,20.803 -8.7893,43.3059998 -30.1426,61.028 -40.1425,33.316 -93.4511,0.092 -93.4511,-58.244 0,-26.778 15.4176,-48.978 40.4433,-58.234996 48.069,-17.782 82.6271,15.736996 83.1504,55.450996 z m -1.8555,-1141.824006 c 0.036,35.541 -29.8768,70.391 -70.7324,76.481 -29.5064,4.398 -43.3306,-6.66 -52.123,-41.69 -6.5815,-26.223 -6.3795,-56.716 0.4492,-67.765 19.4725,-31.506 105.0866,-23.542 118.3437,11.007 2.7573,7.186 4.0552,14.591 4.0625,21.967 z m -5.6875,-1101.56 c -0.065,12.689 -4.0174,27.036 -12.2382,42.396 -39.3638,73.552 -148.5239,22.579 -123.1114,-57.49 8.6125,-27.135 28.6322,-38.932 66.0703,-38.932 44.2306,0 69.4467,21.598 69.2793,54.026 z m -10.5019,1305.49803 c 0.072,35.205 -24.0135,56.646 -67.5293,56.646 -62.8286,0 -86.3499,-48.263 -46.7656,-95.95903 29.4573,-35.495 92.4059,-35.61 105.9961,-0.197 5.5677,14.51 8.2748,27.77403 8.2988,39.51003 z m -1,741.60898 c 0,55.414 -52.1744,88.835 -99.3047,63.611 -41.8649,-22.405 -44.3767,-103.63 -3.6895,-119.244 60.6604,-23.277 102.9942,-0.412 102.9942,55.633 z m -5.2617,-2238.25801 c -0.094,6.563 -1.1712,13.392 -3.3965,20.403 -21.79,68.659 -111.9175,71.478 -129.5488,4.054 -4.8908,-18.701 -1.0323,-48.049 8.5742,-65.217 34.3077,-61.302 125.2818,-22.681 124.3711,40.76 z m -13.7461,2048.44401 c 0,57.335 -65.9722,97.633 -105.7657,64.607 -33.2501,-27.594 -35.3344,-78.396 -4.4863,-109.244 44.0734,-44.073 110.252,-17.28 110.252,44.637 z m -0.4453,-368.432 c 0.06,8.724 -0.9202,18.399 -2.961,28.996 -4.6239,24.01 -23.7368,34.375 -63.3847,34.375 -50.4015,0 -56.7676,-6.392 -56.7676,-57.025 0,-48.10998 8.1907,-57.96998 52.3828,-63.05298 46.023,-5.293 70.4404,14.672 70.7305,56.70698 z m -0.7657,185.793 c 0.026,22.357 -11.9305,44.851 -35.5566,57.496 -20.223,10.822 -40.9984,19.678 -46.166,19.678 -15.7766,0 -69.1387,-58.688 -69.1387,-76.035 0,-8.962 13.4418,-29.737 29.8711,-46.164 34.6247,-34.627 43.8581,-35.597 88.9355,-9.342 21.4317,12.483 32.0304,33.365 32.0547,54.367 z m -3.2285,-2045.20901 c 0.6468,31.175 -28.6898,59.908 -71.5957,59.908 -58.4231,0 -91.6927,-53.277 -58.3496,-93.451 13.7408,-16.558 39.9985,-30.105 58.3496,-30.105 18.3488,0 44.6065,13.547 58.3496,30.105 8.8561,10.671 13.0122,22.267 13.2461,33.543 z m -128.623,1064.939 c 0,67.7 -100.3369,92.109 -132.3946,32.209 -25.4504,-47.552 -25.1464,-50.092 10.1934,-85.431 16.4292,-16.429 37.2027,-29.871 46.1641,-29.871 24.4135,0 76.0371,56.413 76.0371,83.093 z m -0.4453,-232.009 c 0.06,8.724 -0.9199,18.4 -2.961,28.998 -4.6239,24.011 -23.7376,34.377 -63.3867,34.377 -50.4014,0 -56.7656,-6.395 -56.7656,-57.028 0,-48.11 8.1918,-57.967 52.3828,-63.052 46.024,-5.294 70.4408,14.669 70.7305,56.705 z m -0.5079,1801.306006 c 0.1103,42.125 -40.0043,85.088 -91.4238,68.768 -52.774,-16.75 -66.0665,-66.85 -28.6933,-108.147 36.4735,-40.302996 42.2474,-41.269996 87.8046,-14.736 22.6106,13.17 32.2587,33.543 32.3125,54.115 z m -1.1542,445.945604 c 0.018,4.4054 -0.3042,9.0115 -0.9825,13.8086 -5.1344,36.316 -17.7991,45.373 -63.4433,45.373 -50.6891,2e-4 -57.0254,-6.3353 -57.0254,-57.0253 0,-42.734 9.5273,-58.2467 38.0176,-61.8887 51.2047,-6.5477 83.2585,17.1474 83.4336,59.7324 z m -0.5938,-216.79101 c -0.1997,22.0393 -9.4572,43.2745 -30.0742,54.8125 -69.7725,39.04501 -134.3923,-50.7793 -77.4766,-107.6953 12.5458,-12.5458 32.2185,-22.8108 43.7188,-22.8108 39.3368,0 64.1648,38.9615 63.832,75.6936 z m -0.4121,-2264.1136 c -0.3092,51.341 -54.4728,98.392 -99.8438,60.737 -35.7585,-29.677 -39.038,-79.832 -7.2949,-111.575 30.4758,-30.477 62.6283,-28.776 90.4844,4.789 11.7959,14.214 16.7489,30.333 16.6543,46.049 z m -16.3418,2704.82061 c 0.06,8.7244 -0.9182,18.4006 -2.959,28.9981 -4.6239,24.01 -23.7375,34.375 -63.3867,34.375 -50.4014,0 -56.7676,-6.3944 -56.7676,-57.0274 0,-48.109 8.1906,-57.9678 52.3828,-63.0508 46.0231,-5.2933 70.4401,14.6694 70.7305,56.7051 z m -0.1543,-2925.65661 c -0.212,27.074 -11.4782,57.013 -32.1758,68.596 -69.7699,39.045 -134.3921,-50.781 -77.4765,-107.697 23.7671,-23.767 46.316,-26.432 86.4902,-10.221 15.924,6.426 23.3378,26.89 23.1621,49.322 z m -4.6934,896.022 c -1.145,65.531 -92.3821,96.658 -128.4218,29.318 -15.5843,-29.122 -15.1571,-46.267 1.6601,-66.531 34.1596,-41.159 108.3124,-34.137 122.8379,11.631 2.8459,8.967 4.0645,17.534 3.9238,25.582 z m -0.059,1140.26901 c -1.3467,64.551 -93.2539,92.941 -134.1718,27.645 -14.3467,-22.892 -12.9218,-40.019 5.1367,-61.779 36.127,-43.528 110.2143,-38.306 125.1719,8.824 2.8283,8.911 4.0286,17.383 3.8632,25.31 z m -18.2597,1073.1078 -126.7363,0 c 23.9406,-43.3745 109.1956,-46.1056 125.457,-3.7305 0.4729,1.2325 0.8962,2.4775 1.2793,3.7305 z m -0.4375,-3316.93181 c 0.4598,29.623 -23.9911,59.382 -62.2735,66.901 -48.6876,9.562 -88.6924,-49.493 -64.3437,-94.987 23.1746,-43.302 80.2223,-45.947 113.9707,-5.285 8.4718,10.209 12.4666,21.78 12.6465,33.371 z m -12.6602,1302.762 c -0.2867,29.541 -15.6981,61.44 -40.2402,69.228 -49.9302,15.848 -97.5969,-23.565 -90.2969,-74.662 5.7061,-39.938 86.8933,-66.175 115.6836,-37.384 10.4168,10.416 15.0144,26.246 14.8535,42.818 z m -1.3086,744.06001 c 0,37.889 -11.6963,57.876 -38.9316,66.52 -72.5,23.011 -125.3761,-65.993 -71.3203,-120.049 47.063,-47.062 110.2519,-16.384 110.2519,53.529 z m -5.041,-2236.91201 c 0.4602,29.622 -23.9891,59.383 -62.2715,66.901 -48.6876,9.561 -88.6918,-49.493 -64.3457,-94.985 5.4324,-10.15 12.726,-18.068 21.1446,-23.716 l 71.58,0 c 7.6571,4.609 14.8678,10.745 21.2461,18.431 8.4719,10.208 12.4664,21.778 12.6465,33.369 z m -13.9687,2046.82301 c 0,37.89 -11.6968,57.874 -38.9297,66.517 -72.5013,23.012 -125.3793,-65.99 -71.3223,-120.045 47.063,-47.064 110.252,-16.384 110.252,53.528 z m -0.9043,-348.34998 c -0.2834,25.378 -10.2796,49.389 -30.1914,57.029 -41.6066,15.965 -91.0806,-17.256 -98.3672,-66.054 l 0,0 c -7.4139,-49.63903 50.2411,-84.56403 96.6895,-58.57103 21.4679,12.015 32.1727,40.581 31.8711,67.59603 z m -1.2207,173.41398 c 0.1741,28.172 -19.7502,52.773 -54.0313,57.631 -59.7681,8.472 -102.2225,-44.791 -75.5,-94.72298 22.6065,-42.243 79.9816,-46.24 111.8887,-7.793 11.9448,14.39198 17.5514,30.12898 17.6426,44.88498 z M 2653.677,-2271.2689 c -0.2344,30.124 -13.2877,64.597 -34.2324,75.806 -70.3037,37.625 -133.2489,-51.219 -76.4961,-107.97 24.8531,-24.853 77.404,-30.313 97.5781,-10.139 8.6914,8.692 12.8097,23.281 13.1328,39.402 0.019,0.962 0.025,1.929 0.018,2.901 z m -0.9219,233.318 c 0.06,8.724 -0.9181,18.399 -2.9589,28.996 -4.625,24.011 -23.7397,34.377 -63.3887,34.377 -50.4002,0 -56.7656,-6.393 -56.7656,-57.025 0,-48.11 8.1919,-57.969 52.3828,-63.053 46.023,-5.294 70.4401,14.67 70.7304,56.705 z m -0.1542,2244.7852 c -0.2123,27.0732 -11.4789,57.01281 -32.1758,68.59571 -69.7712,39.046 -134.3909,-50.77941 -77.4766,-107.69541 23.7685,-23.7665 46.3148,-26.4315 86.4902,-10.2207 15.9241,6.4254 23.338,26.8883 23.1622,49.3204 z m -0.1407,-227.275194 c -0.2296,26.2699998 -10.3152,55.83 -29.3672,71.642 -59.2588,49.180994 -133.5167,-46.1410002 -83.1875,-106.785 23.3472,-28.131 47.1346,-32.121 89.5332,-15.012 15.7524,6.356 23.2241,26.975 23.0215,50.155 z m -0.125,-215.585996 c 0.012,37.391 -30.999,76.806 -78.3047,76.806 -37.1834,0 -81.1542,-66.31 -63.2168,-95.335 22.5673,-36.514 76.3639,-53.776 109.6114,-35.17 22.1333,12.386 31.9032,32.723 31.9101,53.699 z m -0.2129,-1578.15101 c 0.2525,64.555 -97.0954,104.387 -132.0175,39.133 -16.3104,-30.477 -16.0553,-47.084 1.041,-67.685 30.7158,-37.01 111.4445,-34.581 126.1719,3.799 3.2713,8.524 4.7736,16.826 4.8046,24.753 z m -17.6777,2252.20161 c -0.023,34.7933 -22.1315,59.9643 -60.5625,64.4238 -58.7213,6.814 -91.2557,-55.7034 -52.9863,-101.8144 29.4573,-35.495 92.406,-35.6132 105.9961,-0.1992 5.1132,13.3257 7.5605,25.992 7.5527,37.5898 z m -0.2519,-2924.92761 c 0,57.333 -65.9722,97.631 -105.7657,64.605 -33.2475,-27.593 -35.3363,-78.394 -4.4883,-109.242 44.0734,-44.073 110.254,-17.281 110.254,44.637 z m -2.1836,902.098 c 0.01,4.367 -0.4017,8.799 -1.2598,13.255 -4.5835,23.799 -23.8217,34.18 -63.3496,34.18 -50.4014,0 -56.7656,-6.395 -56.7656,-57.027 0,-43.341 9.5228,-58.388 39.6816,-62.696 43.0191,-6.147 81.6425,30.066 81.6934,72.288 z m -0.5372,1135.86101 c -0.6538,50.924 -56.4063,99.314 -103.0449,60.607 -36.5076,-30.299 -34.7665,-106.112 2.7696,-120.515 42.4415,-16.286 54.293,-14.621 80.1855,11.271 14.4049,14.405 20.3078,31.662 20.0898,48.637 z m -9.9394,1098.2518 c 0,10.913 -2.807,22.2122 -8.9063,33.1113 -39.1545,69.966 -145.8417,15.9956 -121.291,-61.3574 7.9269,-24.973 28.6933,-38.9316 57.9278,-38.9316 42.4193,0 72.2815,31.5287 72.2695,67.1777 z m -7.0898,-3350.01181 c -0.2294,26.27 -10.3153,55.829 -29.3672,71.641 -58.2651,48.355 -131.0222,-42.98 -85.6114,-103.701 l 109.1465,0 c 4.0155,8.962 5.9358,20.172 5.8321,32.06 z m -1.0821,2041.30501 c 0.344,10.524 -5.9261,22.923 -17.8555,45.213 -22.178,41.439 -75.3324,48.211 -109.5839,13.959 -34.2514,-34.252 -27.4807,-87.405 13.957,-109.584 47.5527,-25.449 50.0939,-25.146 85.4336,10.193 18.7743,18.774 27.659,28.292 28.0488,40.219 z m -10.9433,-725.50201 c -0.1742,35.463 -29.5568,66.135 -71.6856,66.135 -49.2189,0 -74.5577,-43.241 -57.2656,-97.723 14.479,-45.62 96.2847,-46.694 120.4277,-1.584 5.8932,11.011 8.5768,22.316 8.5235,33.172 z m -11.6622,2210.95881 -123.8671,0 c 3.2274,-10.7624 9.3757,-21.3678 19.0332,-31.0254 12.546,-12.546 32.2203,-22.8105 43.7207,-22.8105 31.5122,0 53.699,25.0059 61.1132,53.8359 z m -0.043,-1663.9038 c -0.3573,61.671 -81.7577,97.062 -126.8438,42.738 -12.5985,-15.18 -17.3472,-45.118 -10.5527,-66.53098 8.6651,-27.301 28.6265,-38.93 66.8223,-38.93 38.1959,0 58.1551,11.629 66.8203,38.93 2.618,8.248 3.7978,16.219 3.7539,23.79298 z m -7.1973,-356.71701 c 0,10.913 -2.807,22.21 -8.9062,33.109 -39.1558,69.966 -145.8437,15.997 -121.293,-61.355 7.9269,-24.974 28.6964,-38.93 57.9297,-38.93 42.4203,0 72.2814,31.527 72.2695,67.176 z m -8.5332,180.027 c 0.01,4.368 -0.4016,8.8 -1.2598,13.256 -4.5836,23.80003 -23.8217,34.18003 -63.3496,34.18003 -50.4015,0 -56.7656,-6.397 -56.7656,-57.03003 0,-43.34 9.5229,-58.386 39.6817,-62.695 43.0192,-6.146 81.6424,30.068 81.6933,72.289 z m -113.9043,793.47101 c 0.08,34.656 -27.9456,70.837 -65.2793,78.17 -48.6875,9.562 -88.692,-49.493 -64.3457,-94.987 23.5052,-43.921 109.4441,-46.856 125.7754,-4.295 2.6058,6.79 3.8331,13.919 3.8496,21.112 z m -2.4844,-2020.64501 c -0.3265,30.782 -29.8555,58.035 -73.5898,58.035 -37.8287,0 -45.4512,-9.564 -45.4512,-57.027 0,-43.342 9.5229,-58.388 39.6817,-62.697 21.8231,-3.117 51.2679,8.29 65.4297,25.353 9.7137,11.705 14.0574,24.291 13.9296,36.336 z m -4.666,223.781 c -0.1425,10.049 -2.9646,21.03 -9.1738,32.631 -24.9828,46.679 -81.1919,51.1 -116.0273,9.125 -18.0585,-21.76 -19.4841,-38.883 -5.1387,-61.775 40.5698,-64.739 129.1138,-39.134 130.332,18.023 0.014,0.662 0.017,1.327 0.01,1.996 z m -3.4746,1583.72501 c 0,10.913 -2.8067,22.211 -8.9062,33.109 -39.1545,69.967 -145.843,15.996 -121.2911,-61.357 7.9257,-24.972 28.6932,-38.93 57.9278,-38.93 42.4194,0 72.2818,31.53 72.2695,67.178 z m 0,456.214996 c 0,10.913 -2.8067,22.212 -8.9062,33.111 -39.1545,69.964994 -145.843,15.995995 -121.2911,-61.3570002 7.9257,-24.9729998 28.6932,-38.9319998 57.9278,-38.9319998 42.4194,0 72.2818,31.529 72.2695,67.178 z M 2449.173,-2473.6619 c 0.2273,15.741 -5.5509,32.814 -19.6035,49.131 -25.4969,29.602 -42.7063,34.462 -75.7617,21.387 -46.4227,-18.364 -56.3838,-72.96 -19.957,-109.387 49.7593,-49.76 114.5796,-12.551 115.3222,38.869 z m -5.3887,2710.6446 c 0.4739,28.76361 -24.0897,50.50781 -66.4746,50.50781 -45.3698,0 -58.0533,-9.11 -63.1816,-45.37301 -3.527,-24.955 5.0254,-52.6253 19.0098,-61.4883 37.2519,-23.612 65.3391,-20.2527 91.1972,10.9043 13.0147,15.6814 19.2178,31.4019 19.4492,45.4492 z m -0.3164,-2926.9906 c 0.5841,44.626 -41.3886,85.954 -93.498,69.414 -38.3244,-12.163 -50.2844,-77.417 -30.2441,-112.171 l 108.4902,0 c 10.3367,13.347 15.0618,28.225 15.2519,42.757 z m -19.0097,2033.96101 c 0.5835,44.626 -41.3887,85.952 -93.4981,69.412 -50.5607,-16.047 -51.9723,-96.519 -2.1621,-123.177 45.8228,-24.523 45.8278,-24.523 73.4844,3.132 15.2028,15.204 21.9474,33.171 22.1758,50.633 z m -1.1875,-1141.90801 c 0.035,35.541 -29.8768,70.39 -70.7324,76.481 -29.5052,4.398 -43.3287,-6.661 -52.1211,-41.692 -6.5814,-26.222 -6.3795,-56.716 0.4492,-67.764 l 0,0 c 19.4714,-31.507 105.0854,-23.544 118.3438,11.006 2.7572,7.186 4.0551,14.593 4.0625,21.969 z m 0,2241.07631 c 0.344,10.5238 -5.9267,22.9229 -17.8555,45.2129 -22.1781,41.439 -75.3314,48.209 -109.584,13.957 -34.2515,-34.251 -27.4799,-87.404 13.959,-109.582 47.5515,-25.449 50.0918,-25.1467 85.4316,10.1933 18.7737,18.7739 27.659,28.2917 28.0489,40.2188 z m -19.4473,-2037.74431 c 0.014,3.869 -0.2566,7.835 -0.8281,11.877 -5.1356,36.317 -17.7993,45.375 -63.4434,45.375 -45.6441,0 -58.307,-9.058 -63.4414,-45.375 -3.5295,-24.955 5.0247,-52.622 19.0078,-61.486 13.9844,-8.863 33.9787,-16.115 44.4336,-16.115 37.473,0 64.1388,28.321 64.2715,65.724 z m -1.0078,730.88703 c 0.01,0.601 0.01,1.201 0,1.803 -0.3219,23.24598 -13.2881,47.26798 -37.9082,62.77098 -39.0444,24.586 -91.8867,-12.822 -91.8867,-65.04898 0,-50.185 62.129,-79.233 103.9902,-48.625 17.1052,12.509 25.5369,30.477 25.8047,49.1 z m -15.7402,-177.35603 c 0,54.29003 -26.8109,71.42003 -87.8204,56.10803 -38.4026,-9.638 -46.486,-21.96803 -41.6894,-63.57103 4.5137,-39.142 17.6036,-52.97 54.1836,-57.236 58.354,-6.806 75.3262,7.771 75.3262,64.699 z m -0.4454,-369.562 c 0.06,8.724 -0.9181,18.4 -2.9589,28.998 -4.6251,24.01 -23.7396,34.375 -63.3887,34.375 -50.4014,0 -56.7676,-6.395 -56.7676,-57.027 0,-48.11 8.1938,-57.969 52.3848,-63.053 46.0241,-5.293 70.4401,14.67 70.7304,56.707 z m -2.6679,2047.42371 c -0.3087,51.3402 -54.4719,98.3905 -99.8438,60.7363 -35.7584,-29.677 -39.0378,-79.8312 -7.2949,-111.5742 30.476,-30.477 62.6283,-28.7749 90.4844,4.7891 11.7962,14.2134 16.7488,30.3324 16.6543,46.0488 z m -6.4649,-1857.63071 c -0.3538,26.2 -12.6102,51.318 -39.414,61.603 -65.386,25.09 -117.5511,-39.925 -83.334,-103.861 10.7855,-20.152 36.1151,-36.641 56.2891,-36.641 42.0684,0 66.9761,40.606 66.4589,78.899 z m -0.047,2046.91781 -139.4844,0 c 2.3426,-8.8143 8.0165,-19.8256 16.7148,-36.0781 25.2876,-47.252 87.3903,-47.322 112.6485,-0.127 6.6449,12.4163 9.7757,24.6739 10.1211,36.2051 z M 2254.014,-2666.9309 c 0,45.867 -48.791,79.736 -94.1329,65.345 -43.5382,-13.818 -52.8682,-83.297 -16.1191,-120.045 4.0396,-4.039 8.8212,-7.834 13.8281,-11.134 l 60.4629,0 c 19.9498,14.835 35.961,41.449 35.961,65.834 z m 0,454.742 c 0,24.413 -56.4168,76.035 -83.0977,76.035 -67.6994,0 -92.1064,-100.335 -32.2051,-132.395 20.2217,-10.821 40.9946,-19.677 46.1621,-19.677 15.7766,0 69.1407,58.688 69.1407,76.037 z m -0.8164,1803.82401 c -0.6924,45.081 -47.6678,83.973 -98.4903,56.773 -41.8654,-22.405 -44.3774,-103.63 -3.6894,-119.244 42.4403,-16.286 54.2931,-14.618 80.1855,11.274 15.0747,15.074 21.7028,32.413 21.9922,49.045 0.013,0.718 0.013,1.436 0,2.152 z m -1.3672,230.225 c 0,4.367 -0.4016,8.799 -1.2598,13.255 -4.5835,23.799 -23.8217,34.178 -63.3496,34.178 -50.4015,0 -56.7656,-6.394 -56.7656,-57.027 0,-43.34 9.524,-58.387 39.6816,-62.697 43.0192,-6.147 81.6423,30.068 81.6934,72.291 z m -0.7578,-2268.88901 c 0.062,10.371 -1.6588,22.467 -5.1368,36.324 -20.065,79.949 -133.5119,50.406 -121.8964,-31.742 4.6533,-32.904 20.287,-46.979 56.8964,-51.215 46.9424,-5.432 69.9141,9.594 70.1368,46.633 z m -1.4981,1800.19701 c 0.6472,31.175 -28.6908,59.908 -71.5976,59.908 -58.4243,0 -91.69,-53.278 -58.3497,-93.451 13.7432,-16.559 39.9998,-30.105 58.3497,-30.105 18.35,0 44.6077,13.546 58.3496,30.105 8.8564,10.671 13.0139,22.267 13.248,33.543 z m -15.0156,680.859996 c 0.06,8.724 -0.92,18.398 -2.961,28.995995 -4.624,24.011 -23.7368,34.377 -63.3847,34.377 -50.4014,0 -56.7673,-6.395 -56.7673,-57.027995 0,-48.1100002 8.1916,-57.968 52.3825,-63.051 46.0231,-5.294 70.4408,14.6699998 70.7305,56.706 z m -5.0176,-890.884976 c -0.3574,61.67198 -81.7589,97.06298 -126.8434,42.73798 -12.6,-15.181 -17.347,-45.11998 -10.551,-66.53098 8.665,-27.3 28.6262,-38.93 66.8221,-38.93 38.1947,0 58.1553,11.63 66.8204,38.93 2.618,8.249 3.7958,16.219 3.7519,23.793 z m -1.8848,-1148.96903 c -0.472,40.473 -35.2306,80.782 -72.7851,75.172 -56.8205,-8.486 -85.7295,-61.431 -54.2515,-99.358 32.1618,-38.755 107.9368,-38.888 122.7769,-0.216 2.7893,7.268 4.1384,14.861 4.2558,22.474 0.01,0.643 0.011,1.286 0,1.928 z m -17.0136,2253.0098 c -1.3458,64.55041 -93.2529,92.93871 -134.172,27.64251 -14.347,-22.89201 -12.921,-40.01731 5.139,-61.77731 36.1254,-43.529 110.2109,-38.3087 125.1697,8.8223 2.8285,8.9114 4.0285,17.3852 3.8633,25.3125 z m -13.6563,-1310.0738 c 0,62.444 -44.237,94.46603 -93.8297,67.92303 -43.596,-23.33103 -51.387,-75.93803 -16.422,-110.90203 43.483,-43.484 110.2517,-17.455 110.2517,42.979 z m -0.5996,-745.227 c -0.212,27.073 -11.4781,57.012 -32.1758,68.596 -69.7703,39.045 -134.3923,-50.782 -77.4763,-107.698 23.767,-23.767 46.3158,-26.431 86.49,-10.22 15.924,6.425 23.3378,26.89 23.1621,49.322 z m -3.8398,2244.79881 c 0.6472,31.1756 -28.691,59.9082 -71.5977,59.9082 -58.4356,0 -91.6896,-53.2772 -58.3476,-93.4512 13.742,-16.559 39.998,-30.1074 58.3476,-30.1074 18.35,0 44.6077,13.5484 58.3496,30.1074 8.8565,10.6713 13.014,22.2668 13.2481,33.543 z m -13.5703,-2049.70881 c 0.072,35.205 -24.014,56.646 -67.531,56.646 -62.828,0 -86.347,-48.263 -46.764,-95.957 29.457,-35.494 92.4072,-35.612 105.9961,-0.197 5.5678,14.509 8.2748,27.773 8.2989,39.508 z m -1.7403,357.004 c -0.2296,26.27 -10.3152,55.828 -29.3672,71.64 -59.2585,49.18 -133.5165,-46.141 -83.1875,-106.785 23.346,-28.132 47.136,-32.12 89.5352,-15.012 15.7524,6.357 23.2221,26.977 23.0195,50.157 z m -1.709,1876.75951 c 0.2069,36.929 -25.5968,75.4473 -66.5257,75.4473 -26.68,0 -83.097,-51.6222 -83.097,-76.0352 0,-8.961 13.443,-29.736 29.871,-46.166 34.625,-34.625 43.859,-35.5929 88.9353,-9.3379 21.2043,12.3503 30.6923,33.9344 30.8164,56.0918 z m -2.5918,176.9414 c 0.1507,9.7091 -2.39,19.4282 -7.2011,28.3789 l -121.0368,0 c -7.542,-17.4093 -8.234,-38.0465 1.623,-56.4629 23.174,-43.303 80.222,-45.9491 113.9704,-5.2851 8.4718,10.2079 12.4646,21.7777 12.6445,33.3691 z m -0.5605,-2217.49191 c 0.021,1.007 0.02,2.02 0,3.041 -0.1585,6.758 -1.3078,13.805 -3.6094,21.056 -7.9268,24.973 -28.6951,38.93 -57.9281,38.93 -55.407,0 -89.388,-53.785 -63.365,-100.287 34.931,-62.416 123.605,-26.2 124.9064,37.26 z m -127.4614,-994.416 c 0,33.838 -40.333,68.976 -79.169,68.976 -39.68,0 -77.304,-61.457 -62.016,-101.299 24.743,-64.477 141.185,-37.818 141.185,32.323 z m -0.445,-232.008 c 0.06,8.724 -0.918,18.399 -2.959,28.996 -4.623,24.012 -23.739,34.377 -63.389,34.377 -50.401,0 -56.765,-6.394 -56.765,-57.027 0,-48.109 8.192,-57.969 52.383,-63.053 46.024,-5.293 70.44,14.672 70.73,56.707 z m -0.762,1811.09001 c 0.123,15.409 -7.081,30.308 -21.603,44.83 -65.218,65.218 -161.178,-24.469 -99.317,-92.82598 40.011,-44.209 53.642,-45.18 92.256,-6.565 18.976,18.975 28.526,37.097 28.664,54.56098 z m -1.492,447.476 c -0.2,22.039 -9.459,43.275 -30.076,54.813 -69.771,39.048 -134.394,-50.78 -77.476,-107.696 12.543,-12.546 32.22,-22.81 43.72,-22.81 39.336,0 64.165,38.961 63.832,75.693 z m -0.414,-230.152 c -0.309,51.34 -54.472,98.392 -99.842,60.738 -35.758,-29.678 -39.042,-79.833 -7.296,-111.576 30.476,-30.477 62.628,-28.775 90.484,4.789 11.796,14.214 16.749,30.332 16.654,46.049 z m -16.342,442.754 c 0.061,8.724 -0.918,18.398 -2.959,28.996 -4.624,24.01 -23.737,34.377 -63.386,34.377 -50.401,0 -56.766,-6.395 -56.766,-57.027 0,-48.111 8.19,-57.971 52.381,-63.053 46.024,-5.294 70.44,14.671 70.73,56.707 z m -0.433,-879.19001 c -0.22,23.195 -12.515,45.466 -35.762,57.90703 -71.03,38.016 -133.698,-24.65503 -95.684,-95.68603 22.119,-41.327 75.301,-48.043 109.514,-13.83 14.969,14.969 22.103,33.569 21.932,51.609 z m -4.6,-1144.558 c 0.048,7.559 -1.126,15.509 -3.736,23.732 -16.5,51.988 -96.619,51.794 -124.498,-0.301 -15.586,-29.122 -15.157,-46.27 1.66,-66.533 l 0,0 c 44.896,-54.097 126.189,-18.455 126.576,43.102 z m -19.642,2233.451006 c -0.041,16.822 -4.992,34.235995 -13.653,44.671995 -53.151,64.042999 -150.14,1.398 -111.017,-71.7049952 25.277,-47.2299998 106.027,-43.7939998 121.568,5.1720002 2.124,6.691 3.12,14.215 3.102,21.861 z m -12.596,-2030.064006 c 0.279,34.463 -20.609,58.871 -55.516,58.871 -52.339,0 -89.248,-47.421 -71.965,-92.461 14.798,-38.559 105.43,-41.352 119.881,-3.696 5.062,13.192 7.507,25.798 7.6,37.286 z m -0.301,733.992 c 0,37.891 -11.695,57.874 -38.93,66.519 -72.5,23.01 -125.377,-65.992 -71.32,-120.047 47.062,-47.063 110.25,-16.383 110.25,53.528 z m -0.318,1498.4216 c 0.474,28.76361 -24.088,50.50781 -66.473,50.50781 -45.369,0 -58.054,-9.11 -63.182,-45.37301 -3.529,-24.955 5.025,-52.6253 19.008,-61.4883 37.252,-23.612 65.339,-20.2527 91.198,10.9043 13.014,15.6814 19.217,31.4019 19.449,45.4492 z m -5.52,539.52931 c 0.018,19.4202 -7.656,37.0223 -20.345,49.5449 l -89.819,0 c -5.425,-9.6966 -7.556,-23.8529 -7.556,-44.332 0,-47.627 8.347,-57.9928 50.642,-62.8848 37.747,-4.366 53.881,4.3377 63.352,34.1778 2.532,7.9781 3.719,15.876 3.726,23.4941 z m -7.892,-2221.29491 c -0.701,53.376 -66.033,95.674 -115.53,46.176 -34.251,-34.251 -27.482,-87.404 13.957,-109.582 47.518,-25.43 47.272,-25.472 81.739,13.588 14.207,16.1 20.048,33.478 19.834,49.818 z m -4.979,-360.557 c 0.279,34.464 -20.61,58.869 -55.515,58.869 -52.342,0 -89.249,-47.418 -71.965,-92.46 14.797,-38.559 105.43,-41.352 119.881,-3.694 5.061,13.192 7.506,25.797 7.599,37.285 z m -2.123,2212.89881 c 0.214,37.4619 -32.269,70.0214 -76.283,70.0214 -37.829,2e-4 -45.451,-9.5623 -45.451,-57.0253 0,-48.11 8.192,-57.9698 52.383,-63.0528 35.667,-4.103 56.346,4.3037 64.804,26.3457 3.051,7.9501 4.503,15.9359 4.547,23.711 z m -0.359,-2030.38281 c 0,4.368 -0.402,8.8 -1.26,13.256 -4.584,23.801 -23.822,34.178 -63.35,34.178 -50.401,0 -56.765,-6.395 -56.765,-57.028 0,-43.34 9.524,-58.386 39.681,-62.695 43.02,-6.146 81.643,30.067 81.694,72.289 z m 0,2224.05071 c 0,4.3679 -0.402,8.7997 -1.26,13.2559 -4.584,23.799 -23.822,34.1777 -63.35,34.1777 -50.401,0 -56.765,-6.3934 -56.765,-57.0254 0,-43.341 9.524,-58.3882 39.681,-62.6972 43.02,-6.1462 81.643,30.0667 81.694,72.289 z m -112.491,-1428.1957 c 0.01,0.65 0.01,1.3 -0.01,1.952 -0.641,37.157 -31.948,76.517 -78.543,76.517 -39.68,0 -77.304,-61.457 -62.016,-101.29898 13.878,-36.163 70.098,-50.648 109.971,-28.334 20.979,11.742 30.354,31.02 30.593,51.16398 z m -18.39,220.293 c 0,62.442 -44.235,94.466 -93.828,67.924 -43.596,-23.332 -51.386,-75.936 -16.422,-110.9 43.483,-43.485 110.25,-17.458 110.25,42.976 z m -0.797,-2025.91801 c 0.187,19.171 -7.122,40.542 -22.012,55.432 -56.917,56.915 -146.742,-7.706 -107.697,-77.478 17.861,-31.918 58.587,-39.618 106.746,-20.186 15.094,6.091 22.776,23.062 22.963,42.232 z m -1.025,1576.459 c 0.214,37.462 -32.27,70.02403 -76.284,70.02403 -37.828,0 -45.451,-9.564 -45.451,-57.02803 0,-48.11 8.191,-57.968 52.383,-63.052 35.668,-4.103 56.346,4.303 64.805,26.345 3.05,7.95 4.502,15.936 4.547,23.711 z m -16.186,678.69201 c 0.072,35.205 -24.014,56.646 -67.531,56.646 -62.828,0 -86.349,-48.264 -46.766,-95.959 29.458,-35.494 92.406,-35.611 105.996,-0.197 5.568,14.51 8.277,27.775 8.301,39.51 z m -1.635,-886.89101 c 0.584,44.626 -41.388,85.953 -93.498,69.414 -47.998,-15.235 -54.646,-113.749 -8.861,-131.318 42.44,-16.286 54.291,-14.621 80.183,11.271 15.204,15.203 21.948,33.171 22.176,50.633 z m -1.547,-1137.859 c 0.01,4.368 -0.403,8.8 -1.261,13.256 -4.584,23.801 -23.82,34.179 -63.348,34.179 -50.401,0 -56.768,-6.394 -56.768,-57.027 0,-43.34 9.524,-58.387 39.682,-62.695 43.019,-6.147 81.644,30.065 81.695,72.287 z m -10.552,2233.96901 c -0.207,35.505 -29.843,66.031 -72.469,66.031 -53.37,0 -81.802,-63.655 -47.104,-105.463 31.43,-37.868 89.17,-34.669 111.018,6.156 5.924,11.07 8.618,22.407 8.555,33.276 z m -3.789,950.2125 c -0.192,17.1305 -5.339,33.1672 -16.114,44.0683 l -87.806,0 c -34.416,-27.6195 -43.581,-84.1214 5.138,-110.1953 20.223,-10.823 39.47,-19.0018 42.772,-18.1758 35.711,8.9288 56.406,48.9318 56.01,84.3028 z m -4.231,-2258.54451 c 0.173,10.391 -6.067,22.81 -17.933,44.984 -38.729,72.365 -148.755,23.218 -123.831,-55.313 15.316,-48.254 79.647,-64.11 115.331,-28.427 17.808,17.808 26.238,26.979 26.433,38.756 z m -8.484,-730.42 c 0.131,10.086 -2.341,20.771 -8.131,31.589 -21.533,40.235 -112.611,55.968 -117.078,20.223 -1.308,-10.453 -3.972,-29.701 -5.92,-42.769 -1.948,-13.07 4.446,-34.456 14.209,-47.524 39.622,-53.039 116.212,-15.985 116.92,38.481 z m -10.524,380.683 c -0.195,11.777 -8.627,20.945 -26.435,38.754 -59.601,59.6 -157.902,-28.11 -104.125,-92.906 32.299,-38.919 89.377,-34.273 112.627,9.168 11.867,22.174 18.106,34.593 17.933,44.984 z m -1.371,1854.776006 c -0.309,51.339995 -54.474,98.389994 -99.844,60.735995 -38.831,-32.229995 -38.854,-107.951995 -0.035,-122.847995 l 0,0 c 44.439,-17.053 57.902,-14.454 83.229,16.063 11.796,14.2129998 16.749,30.332 16.654,46.049 z m -0.345,556.224204 c 0.077,39.7803 -26.137,58.2397 -75.135,51.3066 -35.873,-5.075 -44.963,-17.8916 -44.963,-63.3886 0,-47.9 8.26,-57.9786 51.611,-62.9766 42.186,-4.864 53.909,3.2011 64.19,44.1621 2.861,11.4008 4.279,21.7164 4.297,30.8965 z m -0.979,-2600.18521 c 0.647,31.175 -28.691,59.91 -71.598,59.91 -58.423,0 -91.689,-53.279 -58.347,-93.453 13.742,-16.558 39.997,-30.108 58.347,-30.108 18.35,0 44.608,13.55 58.35,30.108 8.856,10.671 13.014,22.266 13.248,33.543 z m -3.068,2239.4391 c 0.167,32.4279 -25.05,54.02541 -69.282,54.02541 -61.559,0 -93.182,-60.07691 -55.515,-105.46291 32.263,-38.8746 89.369,-34.2876 112.558,9.041 8.221,15.3605 12.173,29.7073 12.239,42.3965 z m -2.649,-1871.8361 c -0.427,32.546 -31.039,62.981 -65.881,62.981 -46.473,0 -81.468,-47.981 -67.379,-92.377 6.491,-20.446 22.168,-40.662 34.838,-44.924 33.023,-11.113 89.152,3.929 91.946,24.64 1.306,9.688 3.969,28.308 5.918,41.377 0.413,2.772 0.594,5.545 0.558,8.303 z m -1.056,2028.83021 c 0.029,12.2194 -3.22,26.9678 -9.682,44.3516 -30.357,81.668 -148.406,31.9527 -121.963,-51.3633 8.611,-27.134 28.631,-38.9297 66.068,-38.9297 44.015,0 65.502,14.7145 65.577,45.9414 z m -123.674,-1418.08021 c 0.213,37.46203 -32.271,70.02403 -76.285,70.02403 -37.828,0 -45.452,-9.567 -45.452,-57.03003 0,-48.109 8.194,-57.967 52.385,-63.05 35.668,-4.104 56.347,4.302 64.805,26.343 3.05,7.95 4.502,15.938 4.547,23.713 z m -5.147,-206.017 c -0.162,10.536 -4.498,19.837 -13.047,30.138 -50.549,60.907 -160.809,1.318 -119.507,-64.588 l 0,0 c 30.303,-48.357 95.428,-50.03 120.546,-3.097 8.156,15.238 12.168,27.01 12.006,37.547 z m -2.004,453.34501 c 0.475,34.428 -29.597,60.307 -77.613,60.307 -52.03,0 -79.895,-64.28 -45.719,-105.463 32.975,-39.73098 89.549,-33.95498 113.948,11.633 6.231,11.644 9.239,22.984 9.384,33.523 z m -10.48,1565.1741 c 0.06,8.7244 -0.92,18.4006 -2.961,28.9981 -1.762,9.1502 -5.636,16.3134 -11.941,21.6816 l -101.325,0 c -5.656,-8.3753 -6.886,-22.0799 -6.886,-44.332 0,-48.109 8.191,-57.9698 52.382,-63.0528 46.024,-5.2933 70.441,14.6694 70.731,56.7051 z m -3.166,-1349.1371 c 0.346,23.753 -7.811,43.328 -23.037,37.489 -9.144,-3.507 -23.345,4.497 -31.557,17.787 -24.351,39.399 -77.84,-18.043 -71.066,-76.317 6.682,-57.478 71.709,-76.596 108.744,-31.97 11.233,13.536 16.647,34.537 16.916,53.011 z m -15.399,-2025.30801 c 0,31.405 -13.994,47.504 -48.914,56.269 -59.683,14.979 -89.486,-11.194 -81.004,-71.14 4.507,-31.851 20.426,-46.601 54.594,-50.586 58.537,-6.826 75.324,7.762 75.324,65.457 z m 0,1129.068 c 0,46.919 -48.621,80.425 -95.236,65.631 -29.841,-9.472 -38.545,-25.606 -34.18,-63.352 4.411,-38.132 17.774,-52.03 54.092,-56.265 55.379,-6.459 75.324,7.834 75.324,53.986 z m -5.461,1107.37701 c -0.356,61.671 -81.758,97.063 -126.843,42.738 -12.6,-15.18 -17.347,-45.121 -10.551,-66.531 8.665,-27.302 28.624,-38.93 66.82,-38.93 38.196,0 58.155,11.628 66.821,38.93 2.618,8.249 3.797,16.22 3.753,23.793 z m -2.044,922.7423 c -0.066,12.6891 -4.02,27.036 -12.241,42.3965 -39.363,73.553 -148.522,22.5758 -123.109,-57.4922 8.611,-27.134 28.63,-38.9297 66.066,-38.9297 44.232,0 69.451,21.5978 69.284,54.0254 z m -11.502,-2229.91431 c 0,55.415 -52.177,88.837 -99.307,63.612 -41.865,-22.404 -44.377,-103.631 -3.688,-119.245 60.66,-23.277 102.995,-0.41 102.995,55.633 z m -1.024,-743.049 c 10e-4,7.403 -0.766,15.323 -2.381,23.709 -4.624,24.01 -23.739,34.377 -63.386,34.377 -45.369,0 -58.055,-9.111 -63.182,-45.373 -3.529,-24.956 5.025,-52.626 19.008,-61.488 58.997,-37.396 109.936,-11.504 109.941,48.775 z m -0.144,2777.10781 c 0.119,17.3013 -8.888,35.1162 -27.012,53.2403 -59.599,59.599 -157.903,-28.1103 -104.127,-92.9063 27.818,-33.52 78.547,-35.739 109.496,-4.791 14.326,14.3259 21.537,29.1912 21.643,44.457 z m -17.842,-2583.15281 c 0,31.407 -13.996,47.504 -48.914,56.268 -59.685,14.979 -89.487,-11.192 -81.006,-71.139 4.506,-31.851 20.427,-46.601 54.596,-50.587 58.535,-6.824 75.324,7.763 75.324,65.458 z m -1.211,176.641 c 0.026,22.358 -11.931,44.853 -35.557,57.498 -20.223,10.822 -40.996,19.678 -46.164,19.678 -15.776,0 -69.14,-58.686 -69.14,-76.037 0,-8.961 13.441,-29.735 29.871,-46.164 34.624,-34.626 43.858,-35.595 88.935,-9.34 21.432,12.482 32.031,33.363 32.055,54.365 z m -0.815,2067.033006 c 0.017,0.652 0.015,1.294 0,1.926 -0.419,13.002 -8.661,21.993 -26.116,34.755995 -19.88,14.537 -42.454,26.43 -50.164,26.43 -19.344,0 -73.761,-56.095995 -73.761,-76.036995 0,-8.9610002 13.441,-29.736 29.871,-46.165 43.642,-43.643 81.922,-36.621 107.599,19.735 7.958,17.4649998 12.329,29.577 12.576,39.355 z m -1.087,-1878.193006 c -0.31,51.34 -54.472,98.391 -99.842,60.736 -35.759,-29.677 -39.039,-79.83 -7.295,-111.574 30.476,-30.477 62.626,-28.775 90.482,4.789 11.796,14.214 16.749,30.333 16.655,46.049 z m 0,1672.79101 c -0.31,51.34 -54.472,98.390996 -99.842,60.736 -35.759,-29.676 -39.039,-79.833 -7.295,-111.574 30.476,-30.478 62.626,-28.776 90.482,4.789 11.796,14.214 16.749,30.333 16.655,46.049 z m -2.178,371.04299 c -1.145,65.5303 -92.384,96.65941 -128.424,29.3183 -15.584,-29.121 -15.156,-46.2682 1.66,-66.5312 34.16,-41.1591 108.313,-34.1371 122.84,11.6328 2.846,8.9665 4.064,17.5325 3.924,25.5801 z m -128.215,603.96091 c 0.05,7.3015 -0.638,15.2778 -2.057,23.8945 l -46.824,-81.0996 c 31.868,2.7447 48.641,22.4126 48.881,57.2051 z m -0.371,-1792.03088 c -0.692,45.082 -47.669,83.972 -98.492,56.773 -41.864,-22.405 -44.376,-103.62803 -3.688,-119.24203 42.441,-16.286 54.289,-14.621 80.182,11.271 15.075,15.076 21.706,32.416 21.996,49.04703 0.012,0.719 0.013,1.435 0,2.151 z m -2.299,-228.46703 c -0.309,51.34 -54.472,98.39 -99.844,60.736 -35.758,-29.678 -39.038,-79.831 -7.295,-111.574 30.476,-30.477 62.629,-28.774 90.485,4.791 11.796,14.213 16.749,30.331 16.654,46.047 z m -6.31,-235.365 c 0.58,35.754 -29.237,66.673 -75.206,66.673 -52.668,0 -75.067,-45.281 -47.697,-96.423 22.208,-41.494 80.781,-48.518 107.404,-12.879 10.39,13.908 15.271,28.638 15.499,42.629 z m -10.032,678.11901 c 0.061,8.724 -0.918,18.398 -2.959,28.996 -4.624,24.009 -23.736,34.375 -63.386,34.375 -50.401,0 -56.766,-6.396 -56.766,-57.027 0,-48.11 8.19,-57.967 52.381,-63.051 46.024,-5.29398 70.44,14.671 70.73,56.707 z m 0,1349.6365 c 0.061,8.7243 -0.918,18.3988 -2.959,28.9961 -4.624,24.011 -23.736,34.3769 -63.386,34.3769 -10.61,0 -19.247,-0.2912 -26.305,-1.2109 l -30.432,-52.711 c -0.01,-1.0529 -0.029,-2.0116 -0.029,-3.1054 0,-48.11 8.19,-57.9688 52.381,-63.0528 46.024,-5.2933 70.44,14.6717 70.73,56.7071 z m -5.015,-2240.52151 c -0.357,61.671 -81.758,97.061 -126.844,42.736 -12.599,-15.179 -17.347,-45.118 -10.551,-66.529 8.665,-27.302 28.624,-38.93 66.818,-38.93 38.196,0 58.158,11.628 66.823,38.93 2.618,8.249 3.797,16.219 3.754,23.793 z m -18.52,2039.10941 c 0.023,1.0148 0.023,2.0374 0,3.0683 -0.152,6.8253 -1.324,13.9948 -3.685,21.4356 -17.449,54.977 -63.148,63.9275 -106.264,20.8125 -30.155,-30.157 -33.861,-45.7985 -17.908,-75.6055 34.946,-65.2992 126.409,-33.649 127.857,30.2891 z m -0.32,-934.8024 c -1.145,65.53 -92.382,96.661 -128.422,29.32 -15.586,-29.121 -15.156,-46.269 1.66,-66.531 l 0,0 c 34.16,-41.16 108.313,-34.139 122.84,11.631 2.846,8.966 4.064,17.532 3.924,25.58 z m -16.348,-2042.02401 c 0.208,21.133 -7.352,42.229 -24.668,56.6 -7.595,6.303 -15.432,10.287 -23.232,12.336 l 46.9,-81.235 c 0.615,4.069 0.96,8.184 1,12.299 z m -0.482,739.543 c -0.309,51.34 -54.473,98.391 -99.844,60.736 -35.759,-29.678 -39.038,-79.832 -7.295,-111.574 30.476,-30.476 62.63,-28.775 90.486,4.791 11.797,14.213 16.747,30.331 16.653,46.047 z m -2.725,1499.80501 c -0.01,7.618 -1.196,15.516 -3.728,23.494 -9.471,29.84 -25.603,38.543 -63.35,34.178 -42.296,-4.892 -50.643,-15.257 -50.643,-62.885 0,-43.341 9.524,-58.388 39.682,-62.697 43.632,-6.234 78.076,26.772 78.039,67.91 z m -0.275,540.30839 c -0.041,16.8211 -4.992,34.233 -13.653,44.67 -53.151,64.04301 -150.138,1.3972 -111.015,-71.7054 25.276,-47.230999 106.025,-43.793999 121.566,5.174 2.124,6.6911 3.12,14.2155 3.102,21.8614 z m -10.026,-2224.2654 c 0.106,27.77 -13.275,54.217 -41.8,63.271 -80.162,25.442 -131.019,-83.761 -57.366,-123.179 20.223,-10.823 39.471,-19.001 42.772,-18.176 36.498,9.126 56.267,44.568 56.394,78.084 z m -2.392,-385.781 c -0.235,30.124 -13.289,64.598 -34.235,75.806 -36.284,19.419 -70.607,5.149 -87.527,-21.01 l 62.949,-109.033 c 18.275,-1.633 35.822,2.093 45.662,11.934 8.692,8.692 12.81,23.281 13.133,39.402 0.019,0.962 0.025,1.929 0.018,2.901 z m -1.485,2244.28101 c 0.255,37.648 -30.544,76.865 -78.162,76.865 -62.521,0 -82.49,-100.654 -27.283,-137.523 26.813,-17.908 33.042,-17.4 73.186,5.982 22.2,12.92999 32.117,33.556 32.259,54.676 z m -3.509,180.407996 c -0.327,30.782 -29.857,58.033 -73.592,58.033 -37.828,0 -45.449,-9.562 -45.449,-57.025 0,-43.34 9.522,-58.388 39.681,-62.697 21.824,-3.11901 51.267,8.29 65.428,25.353 9.714,11.705 14.059,24.291 13.932,36.33599 z m -1.321,-2217.830006 c -0.01,7.618 -1.196,15.514 -3.728,23.492 -9.472,29.839 -25.604,38.546 -63.35,34.18 -42.296,-4.893 -50.642,-15.258 -50.642,-62.885 0,-43.342 9.522,-58.388 39.681,-62.697 43.633,-6.234 78.075,26.772 78.039,67.91 z m -127.226,802.973 c 0,37.889 -11.696,57.872 -38.93,66.515 -72.5,23.012 -125.377,-65.991 -71.322,-120.047 47.063,-47.063 110.252,-16.382 110.252,53.532 z m 0,217.554 c 0,62.444 -44.236,94.467 -93.83,67.926 -43.596,-23.333 -51.386,-75.937 -16.422,-110.902 43.483,-43.483 110.252,-17.457 110.252,42.976 z m -1.078,-447.144 c 0.252,64.555 -97.095,104.386 -132.018,39.133 -16.31,-30.477 -16.056,-47.083 1.041,-67.684 30.716,-37.011 111.444,-34.58 126.172,3.799 3.271,8.524 4.774,16.824 4.805,24.752 z m -18.53,2021.01341 c -0.126,16.1641 -4.195,33.3465 -11.857,47.0371 l -61.289,-106.1562 c 13.767,-1.781 29.606,1.5746 49.984,9.7969 15.925,6.4257 23.338,26.89 23.162,49.3222 z m -0.06,-2229.50041 c -0.401,44.111 -42.164,83.67 -94.557,67.041 -31.476,-9.99 -38.768,-25.531 -34.178,-72.851 6.374,-65.701 62.503,-90.929 105.856,-47.578 15.522,15.522 22.501,33.698 22.867,51.285 0.015,0.702 0.018,1.403 0.012,2.103 z m -1.547,883.45203 c 0.019,4.082 -0.265,8.314 -0.883,12.685 -5.127,36.264 -17.813,45.373 -63.182,45.373 -63.085,0 -86.688,-48.166 -47.025,-95.95903 41.963,-50.561 110.798,-23.329 111.09,37.90103 z m -16.551,208.59098 c -0.022,34.793 -22.13,59.962 -60.562,64.422 -58.72,6.814 -91.256,-55.701 -52.987,-101.814 29.458,-35.49398 92.406,-35.61098 105.996,-0.197 5.114,13.325 7.561,25.992 7.553,37.589 z m -1.551,948.97889 c 0.014,26.9229 -11.56,52.0513 -37.631,60.3262 -22.663,7.1927 -43.409,3.439 -59.57,-6.7696 l -33.851,-58.6328 c -0.82,-18.6997 5.728,-38.2727 22.099,-54.6447 12.546,-12.545999 32.22,-22.809999 43.721,-22.809999 40.441,0 65.213,43.181999 65.232,82.530899 z m -13.257,-2236.8259 c -0.759,53.873 -64.778,90.424 -114.706,40.496 -7.164,-7.165 -12.529,-15.157 -16.162,-23.52 l 57.567,-99.707 c 24.632,-10.042 31.93,-1.385 57.361,34.922 11.405,16.282 16.152,32.724 15.94,47.809 z m -4.452,1491.66001 c 0,33.363 -28.152,59.84 -70.453,66.266 -35.11,5.333 -66.248,-42.783 -59.318,-91.661 11.455,-80.805 129.771,-57.65 129.771,25.395 z m -2.183,548.667996 c 0.01,4.368 -0.404,8.8 -1.262,13.256 -4.582,23.8 -23.819,34.179 -63.348,34.179 -50.4,0 -56.765,-6.394 -56.765,-57.027 0,-43.34 9.522,-58.386 39.679,-62.695 43.021,-6.145996 81.646,30.065 81.696,72.287 z m -10.477,-370.116996 c -0,10.913 -2.807,22.212 -8.906,33.111 -39.155,69.964 -145.842,15.996 -121.291,-61.357 7.926,-24.974 28.694,-38.932 57.928,-38.932 42.419,0 72.281,31.528 72.269,67.178 z m -0.187,170.666 c 0.15,36.128 -29.833,66.3 -74.235,66.3 -53.851,0 -80.304,-47.411 -51.818,-92.876 27.935,-44.586 94.867,-48.925 116.992,-7.583 6.144,11.481 9.015,23.099 9.061,34.159 z m -0.959,-2018.94601 c -1.773,5.59 -3.969,10.957 -6.559,15.797 -3.31,6.186 -7.22,11.356 -11.574,15.61 l 18.133,-31.407 z m -120.121,601.776 c 0.012,37.391 -31,76.806 -78.30501,76.806 -37.407,0 -72.418,-53.553 -59.174,-90.511 14.051,-39.21 69.458,-60.202 105.56701,-39.994 22.132,12.386 31.905,32.723 31.912,53.699 z m -11.87,238.883 c -0.206,35.506 -29.84301,66.031 -72.47001,66.031 -53.371,0 -81.8,-63.652 -47.102,-105.461 31.429,-37.869 89.168,-34.669 111.01601,6.154 5.924,11.07 8.62,22.406 8.556,33.276 z m -6.334,-459.372 c -0.254,33.082 -19.36901,61.052 -49.32201,65.352 -23.173,3.327 -44.3,-5.078 -58.779,-19.814 l 60.391,-104.604 c 19.04,1.87 35.60501,9.918 41.38001,24.969 4.404,11.476 6.415,23.07 6.33,34.097 z m -14.8,664.584 c -0.01,16.441 -5.94201,34.366 -19.95701,51.674 -29.145,35.993 -40.462,38.997 -75.76,20.106 -45.584,-24.396 -54.272,-76.528 -18.686,-112.114 51.232,-51.231 114.43001,-13.37 114.40301,40.334 z M 989.82089,-52.936894 c -0.106,22.274 -9.53,45.0099998 -23.662,60.6719998 l -62.307,-107.9149958 c 34.045,-5.697 73.585,0.860996 81.531,21.746996 3.092,8.125 4.479,16.775 4.438,25.496 z m -4.131,-916.620976 c -0.701,53.376 -66.034,95.675 -115.531,46.177 -34.252,-34.252 -27.48,-87.40703 13.959,-109.58403 47.517,-25.431 47.27,-25.472 81.738,13.588 14.207,16.101 20.048,33.47903 19.834,49.81903 z m -25.102,732.27498 c -0.691,45.082 -47.669,83.974 -98.492,56.773 -2.646,-1.416 -5.134,-3.068 -7.465,-4.923 l -23.203,-40.192 c -6.686,-30.246 2.005,-64.545 26.979,-74.129 42.441,-16.286 54.293,-14.619 80.185,11.274 15.075,15.075 21.705,32.413 21.994,49.045 0.013,0.718 0.013,1.436 0.002,2.152 z m -2.299,-551.621 c -0.309,51.34 -54.473,98.391 -99.843,60.736 -35.759,-29.677 -39.038,-79.833 -7.295,-111.576 30.476,-30.47598 62.628,-28.77298 90.484,4.791 11.796,14.213 16.749,30.332 16.654,46.049 z m -2.349,369.254 c -0.356,61.672 -81.759,97.063 -126.844,42.738 -12.598,-15.18 -17.347,-45.119 -10.551,-66.531 8.665,-27.302 28.625,-38.93 66.821,-38.93 38.195,0 58.157,11.628 66.822,38.93 2.618,8.249 3.796,16.219 3.752,23.793 z m -4.115,-173.914 c -0.354,26.2 -12.611,51.316 -39.414,61.601 -65.386,25.091 -117.552,-39.923 -83.334,-103.859 10.785,-20.153 36.114,-36.641 56.289,-36.641 42.068,0 66.976,40.606 66.459,78.899 z m -125.668,-1010.25001 c 0.005,4.368 -0.402,8.799 -1.26,13.256 -4.584,23.799 -23.821,34.177 -63.35,34.177 -0.742,0 -1.384,-0.016 -2.107,-0.019 l 52.211,-90.432 c 9.052,12.221 14.487,27.197 14.506,43.018 z m -16.827,221.32 c 0,31.407 -13.994,47.506 -48.914,56.27 -59.683,14.98 -89.487,-11.196 -81.005,-71.139 4.506,-31.853 20.427,-46.605 54.595,-50.59 58.537,-6.827 75.324,7.765 75.324,65.459 z m -24.47,202.484 c -0.357,61.672 -81.759,97.062 -126.844,42.739 -12.598,-15.181 -17.347,-45.12 -10.551,-66.532 8.665,-27.302 28.625,-38.929 66.821,-38.929 38.195,0 58.155,11.627 66.82,38.929 2.618,8.249 3.798,16.22 3.754,23.793 z m -18.84,743.13901 c -0.387,22.149 -11.073,40.357 -26.434,52.172 l -65.031,-112.635 c 35.228,-11.084 77.022,1.733 87.543,34.881 2.846,8.967 4.063,17.534 3.922,25.582 z m -0.527,-543.13898 c -0.032,7.095 -1.118,14.326 -3.395,21.5 -8.665,27.302 -28.626,38.93 -66.822,38.93 -62.294,0 -94.186,-59.774 -56.27,-105.46303 12.6,-15.18 37.921,-27.599 56.27,-27.599 39.8,0 70.385,34.324 70.217,72.63203 z m -14.397,182.87898 c 0.123,15.41 -7.081,30.306 -21.603,44.828 -65.218,65.217 -161.177,-24.468 -99.317,-92.82398 40.01,-44.209 53.642,-45.178 92.256,-6.564 18.976,18.97598 28.525,37.09698 28.664,54.55998 z m -3.23,171.295 c -0.609,30.399 -29.605,57.922 -71.598,57.922 -22.537,0 -41.323,-7.931 -53.994,-19.975 l -16.506,-28.589 c -3.141,-14.627 0.282,-30.587 12.15,-44.887 13.742,-16.559 40,-30.107 58.35,-30.107 18.349,0 44.607,13.548 58.35,30.107 9.377,11.299 13.486,23.634 13.248,35.529 z m -187.834,-559.78101 c 0.005,4.368 -0.402,8.8 -1.26,13.256 -3.562,18.491 -15.976,28.877 -39.873,32.592 l 38.123,-66.032 c 1.943,6.459 3.001,13.239 3.01,20.184 z m -18.862,166.172 c 0.079,34.65703 -27.944,70.84003 -65.277,78.17203 -23.192,4.555 -44.408,-6.466 -57.643,-24.168 l 60.875,-105.44003 c 25.743,-0.349 50.238,9.584 58.198,30.326 2.605,6.791 3.831,13.917 3.847,21.11 z m -0.148,194.99801 c 0.005,4.368 -0.402,8.8 -1.26,13.256 -2.973,15.441 -12.126,25.226 -28.976,30.199 l -64.985,-112.55898 c 3.963,-1.419 8.446,-2.459 13.528,-3.185 43.019,-6.147 81.642,30.066 81.693,72.28898 z"
       id="path3345"
       inkscape:connector-curvature="0" />
  </g>
</svg>
