<?xml version="1.0" encoding="UTF-8" standalone="no"?>
<!-- Created with Inkscape (http://www.inkscape.org/) -->

<svg
   xmlns:dc="http://purl.org/dc/elements/1.1/"
   xmlns:cc="http://creativecommons.org/ns#"
   xmlns:rdf="http://www.w3.org/1999/02/22-rdf-syntax-ns#"
   xmlns:svg="http://www.w3.org/2000/svg"
   xmlns="http://www.w3.org/2000/svg"
   xmlns:sodipodi="http://sodipodi.sourceforge.net/DTD/sodipodi-0.dtd"
   xmlns:inkscape="http://www.inkscape.org/namespaces/inkscape"
   width="60in"
   height="48in"
   viewBox="0 0 5399.9999 4320"
   id="svg4475"
   version="1.1"
   inkscape:version="0.91pre4 r13712"
   sodipodi:docname="celtic_knot_broken.svg">
  <defs
     id="defs4477" />
  <sodipodi:namedview
     id="base"
     pagecolor="#ffffff"
     bordercolor="#666666"
     borderopacity="1.0"
     inkscape:pageopacity="0.0"
     inkscape:pageshadow="2"
     inkscape:zoom="0.087500001"
     inkscape:cx="956.65102"
     inkscape:cy="4026.7977"
     inkscape:document-units="in"
     inkscape:current-layer="g7397"
     showgrid="false"
     units="ft"
     inkscape:window-width="1920"
     inkscape:window-height="1017"
     inkscape:window-x="1912"
     inkscape:window-y="-8"
     inkscape:window-maximized="1" />
  <metadata
     id="metadata4480">
    <rdf:RDF>
      <cc:Work
         rdf:about="">
        <dc:format>image/svg+xml</dc:format>
        <dc:type
           rdf:resource="http://purl.org/dc/dcmitype/StillImage" />
        <dc:title></dc:title>
      </cc:Work>
    </rdf:RDF>
  </metadata>
  <g
     inkscape:label="Layer 1"
     inkscape:groupmode="layer"
     id="layer1"
     transform="translate(0,3267.6378)">
    <path
       d="m -1175.9623,-5941.3634 1088.100195,1862.8071 -1069.188095,1873.7259 -2157.2883,10.9188 -1088.1002,-1862.807 1069.1881,-1873.7259 z"
       inkscape:randomized="0"
       inkscape:rounded="0"
       inkscape:flatsided="true"
       sodipodi:arg2="-0.52866008"
       sodipodi:arg1="-1.0522589"
       sodipodi:r2="1868.2906"
       sodipodi:r1="2157.3159"
       sodipodi:cy="-4067.6375"
       sodipodi:cx="-2245.1505"
       sodipodi:sides="6"
       id="path3049-5"
       style="color:#000000;display:inline;overflow:visible;visibility:visible;fill:#ffff00;stroke:#ff0000;stroke-width:1.11578476;stroke-linecap:butt;stroke-linejoin:miter;stroke-miterlimit:4;stroke-dasharray:none;stroke-dashoffset:0;stroke-opacity:1;marker:none;enable-background:accumulate"
       sodipodi:type="star" />
    <g
       id="g7397"
       transform="translate(2022.8571,3702.8571)">
      <g
         id="g7529"
         transform="translate(1114.2857,937.14285)" />
      <path
         style="fill:#000000;stroke:#ff0000;stroke-width:90"
         d="m -4831.0391,-6168.5216 c -8.8973,-6.605 -23.8309,-18.7309 -33.1856,-26.9462 -18.5666,-16.3059 -38.8318,-21.8296 -86.6609,-23.6223 -332.6024,-63.1494 -642.5839,-283.9242 -679.023,-648.3638 -0.442,-6.0829 -12.4281,-17.5372 -32.6798,-31.2237 -17.592,-11.8891 -38.1276,-25.9398 -45.6347,-31.2238 -15.2108,-10.7065 -84.2562,-78.709 -102.037,-100.4965 -24.8166,-30.408 -64.3988,-93.8332 -84.834,-135.9362 -19.2156,-39.5909 -52.4046,-129.7343 -57.7342,-156.8121 -14.2803,-72.5487 -16.4329,-93.6267 -16.4319,-160.9077 10e-4,-77.6348 5.787,-120.7366 23.7887,-177.2074 12.5956,-39.513 28.6552,-77.3985 39.5105,-93.2092 11.1416,-16.2273 10.9706,-27.8834 -0.9751,-66.5096 -46.582,-150.6187 -45.6813,-304.1273 2.6348,-449.142 41.2769,-123.8888 122.4333,-240.9213 221.8536,-319.9266 38.2472,-30.3938 61.8024,-44.5842 67.8267,-40.8613 9.249,5.7163 16.2047,-8.0058 20.6711,-40.7812 19.0753,-139.9767 86.8602,-258.5823 205.7071,-359.9334 141.6762,-120.8191 290.3461,-177.1934 474.0534,-179.7561 l 72.723,-1.0146 42.4643,-42.0834 c 87.3325,-86.5499 194.7456,-143.2686 324.3498,-171.2702 75.9488,-16.4088 232.8262,-19.0196 301.4824,-5.0169 130.624,26.6411 287.0705,97.7891 344.9416,156.8711 l 15.4136,15.7364 28.7445,-8.9464 c 15.8099,-4.9203 47.2694,-11.5374 69.91,-14.7049 126.2027,-17.6549 281.2499,44.6322 426.563,171.3623 94.9256,82.7868 188.129,218.0338 236.4731,343.1464 29.2404,75.6712 29.9301,76.6401 91.355,128.2376 152.7814,128.3379 253.5795,274.4551 300.9047,436.1923 31.3938,107.2907 33.9652,127.3936 36.2541,283.4159 1.8946,129.1876 1.1356,149.0989 -7.3337,192.2905 -13.4238,68.4613 -46.2588,147.0957 -83.7056,200.4619 -4.9089,6.9951 -3.2502,16.1417 9.5813,52.8403 27.6571,79.0974 35.9127,123.8743 36.0812,195.6957 0.3459,147.6909 -41.0203,295.3861 -113.0167,403.5073 -94.7791,157.7925 -234.3115,231.2746 -363.8896,260.8214 l -21.7996,5.0905 c -156.4887,297.2965 -565.5591,497.4505 -832.6901,433.5359 -268.354,116.7149 -587.6642,188.4586 -831.656,6.69 z m 441.4491,-62.4682 c 58.9,-12.4319 104.5622,-29.2226 145.3188,-53.4359 29.1947,-17.3437 37.3782,-22.4701 28.2676,-33.0093 -37.9408,-38.2203 -102.5677,-101.8952 -134.4246,-134.5025 -62.6963,38.2285 -185.7845,117.7118 -244.9866,186.5703 0,5.4152 50.7741,28.8719 79.2603,36.6164 34.4115,9.3556 75.0376,8.6365 126.5645,-2.239 z m 972.8787,-327.5903 c -1.3057,-2.1127 -9.1183,-3.8415 -17.3614,-3.8415 -488.6152,-250.9647 -243.5805,-634.8232 -39.1099,-739.6337 -1.5896,-9.9402 -6.1391,-24.3036 -10.1108,-31.9188 -3.9712,-7.6153 -7.2339,-16.577 -7.2502,-19.9156 0,-3.338 -2.0127,-9.8229 -4.4367,-14.4109 -2.4238,-4.5876 -10.2024,-20.0568 -17.2859,-34.3764 -13.3849,-27.0586 -22.5051,-38.814 -30.1137,-38.814 -2.4508,0 -14.3643,7.5656 -26.4748,16.8128 -12.1105,9.247 -23.3564,16.8128 -24.9905,16.8128 -2.7579,0 -21.7697,14.2558 -57.4182,43.0527 -27.4615,22.1838 -99.6284,98.5591 -136.4349,144.3918 -50.0133,62.2779 -50.4735,62.9225 -114.308,160.2226 -47.4927,72.3911 -55.2132,86.7157 -49.1932,91.2695 11.1848,8.4607 49.9681,73.4205 70.6469,118.33 26.7179,58.0257 56.7211,146.1076 65.4599,192.1741 9.6611,50.9295 9.5588,132.8179 -0.2258,180.7541 -6.9494,34.0459 -35.3174,112.126 -45.1269,124.2082 -2.1453,2.642 -4.6461,8.7714 -5.5574,13.6216 104.7265,65.5509 453.3924,-132.8446 449.2915,-218.7393 z m -1613.6388,85.3716 c -1.0966,-11.6994 -4.1489,-30.6137 -6.7823,-42.032 -7.7728,-33.7044 -5.7629,-112.6367 4.0836,-160.3438 17.2721,-83.6864 43.4587,-131.1734 109.0801,-197.8054 63.8699,-64.8533 125.8414,-85.6425 221.7536,-74.3896 146.0808,28.9858 318.2742,137.2719 334.7964,145.2055 5.2379,-18.4374 -2.4749,-10.3235 45.5833,-85.3937 26.546,-41.4666 48.2657,-79.2819 48.2657,-84.0337 -106.6959,-108.1707 -407.3978,-241.0048 -573.2677,-230.8494 -3.7415,2.1693 -21.7154,33.1265 -39.9419,68.7937 -18.227,35.6672 -41.7106,77.7491 -52.186,93.5161 -25.4512,38.3068 -79.5024,93.032 -116.162,117.6094 -31.7537,21.2889 -102.5582,57.8793 -111.9997,57.8793 -3.1219,0 -12.4881,3.0277 -20.8138,6.728 -8.3252,3.7003 -20.5409,8.0851 -27.146,9.7443 -21.8153,5.4785 -136.5843,21.9109 -153.7171,22.0084 -29.5093,0.1681 -30.7487,3.6142 -16.5289,45.9739 30.1829,89.9125 76.6794,156.8817 160.1247,230.627 48.676,43.0173 100.1577,72.4603 154.2311,88.2062 43.8363,12.7652 42.9202,13.0232 40.6269,-11.4446 z m 497.3828,-141.7954 c -238.8662,-187.1092 -364.6971,-81.569 -264.4323,139.849 l 9.934,22.4168 17.9657,-4.7057 c 62.4279,-30.8141 213.1422,-77.3006 236.5326,-157.5601 z m 486.272,127.2754 c 37.6199,-87.3815 -9.0875,-251.583 -29.4512,-300.467 -42.425,40.0918 -101.6099,110.7124 -120.5636,153.6758 40.9117,56.7581 88.9372,112.9662 129.6986,167.0054 11.5246,14.2593 11.441,8.9411 20.3171,-20.2142 z m 724.2499,-325.2927 c 4.8724,-81.8458 -24.745,-176.0277 -45.3619,-246.581 -0.2209,-7.7958 -2.9897,-9.295 -14.6838,-7.9515 -7.926,0.9108 -15.1315,3.6129 -16.012,6.0046 -0.881,2.3918 -4.7677,4.3488 -8.6375,4.3488 -10.2298,0 -54.5133,29.7788 -72.3267,48.6371 -33.4349,35.3952 -48.7134,104.9728 -33.2643,151.4848 17.5304,52.7791 63.8391,78.067 143.4506,78.3332 l 46.8356,0.1585 0,-34.4331 z m 259.7694,-64.3148 c 35.7085,-26.2126 96.2154,-94.0633 120.7923,-135.4536 56.0502,-94.3943 79.4204,-201.7954 59.8075,-274.8527 -4.9847,-18.5677 -10.545,-33.7593 -12.3555,-33.7593 -76.1432,40.6366 -238.4349,99.3536 -245.4746,170.2864 7.1556,66.6594 4.5361,274.7798 43.7902,290.8649 5.5905,0 20.6388,-7.6887 33.4401,-17.0857 z m -2233.3779,-189.4217 c 40.333,-12.6264 72.003,-31.5375 108.6679,-64.8883 38.7775,-35.2723 89.1972,-96.969 86.0172,-105.2558 -1.3566,-3.5355 -10.7453,-7.9756 -20.8642,-9.8663 -10.1184,-1.8912 -20.7744,-5.4017 -23.6801,-7.8011 -2.9053,-2.3999 -27.7642,-8.8978 -55.2421,-14.4403 -35.0999,-7.0796 -53.531,-13.3027 -61.9682,-20.9228 -23.9817,-21.6596 -25.5136,-20.5371 -54.3116,39.7791 -14.7184,30.827 -37.9465,81.9883 -51.6186,113.6925 -13.6722,31.7042 -27.1763,60.5107 -30.009,64.0145 -8.2181,10.1646 4.9507,15.0902 40.5612,15.1723 18.6314,0.049 44.6269,-3.9048 62.4475,-9.4838 z m -273.8008,-212.6229 c 32.1768,-86.8976 33.0664,-90.461 25.1952,-100.8768 -4.4881,-5.9383 -17.0146,-14.998 -27.8373,-20.1321 -23.9673,-11.3698 -74.5004,-42.8832 -84.9296,-52.9643 -4.1844,-4.0445 -9.1654,-7.3538 -11.0686,-7.3538 -1.9032,0 -10.3687,-6.4749 -18.8116,-14.3889 -8.4434,-7.9135 -17.2595,-14.3985 -19.5917,-14.4109 -2.3322,0 -7.7593,-3.8051 -12.0605,-8.4286 -4.3012,-4.6235 -12.7101,-11.1574 -18.6863,-14.5195 -15.3592,-8.6418 -17.4819,-0.197 -13.6501,54.3116 3.9198,55.7662 21.3605,117.19 47.5889,167.6049 20.3685,39.1503 67.7475,102.4251 86.7041,115.7927 9.7457,6.8721 10.5263,6.64 12.1048,-3.6042 0.928,-6.0229 16.6975,-51.4861 35.0427,-101.0301 z m 1470.224,66.0614 c 177.0456,-233.4588 251.8972,-315.9362 374.879,-413.0738 23.1176,-18.2597 42.0238,-36.5467 42.0142,-40.6385 0,-4.0913 -4.3017,-14.4642 -9.5367,-23.0508 -5.2354,-8.5866 -8.3156,-15.6119 -6.8447,-15.6119 -102.3506,-154.5582 -240.4164,-331.8415 -334.2678,-555.3255 0,-3.6863 -2.3073,-6.7025 -5.1275,-6.7025 -2.8197,0 -3.8521,-4.0183 -2.2932,-8.9291 1.5779,-4.9713 -0.149,-11.4049 -3.8959,-14.5143 -6.9364,-5.7566 -15.6402,-3.6949 -48.6571,11.5259 -7.9655,3.6725 -26.3721,11.171 -40.9032,16.6635 -14.531,5.4929 -32.9051,12.9785 -40.8311,16.6355 -129.267,46.9394 -248.2977,95.9347 -379.489,123.3431 -51.687,10.5055 -98.5034,18.86 -121.4331,21.6693 -13.948,1.7091 -26.2328,4.5192 -27.2997,6.2452 -1.0664,1.7259 2.287,45.1905 7.4523,96.5876 11.2445,111.8806 11.0119,206.3431 -0.7906,321.9782 -11.4053,111.7384 -31.9103,213.3363 -44.7265,221.6144 -10.7663,6.9532 5.4287,12.7325 71.5098,25.5185 115.6058,22.3677 244.608,66.191 333.8543,113.4124 51.9443,27.4846 176.3423,109.1876 193.0388,126.7854 6.1141,6.4441 12.6312,11.2165 14.4821,10.6051 1.8508,-0.6116 14.8404,-16.2437 28.8656,-34.7377 z m 1005.3592,-251.1084 c 38.8611,-25.0122 74.4567,-53.275 74.4567,-59.1191 -45.3216,-77.7207 -185.682,-98.7959 -244.0604,-66.2968 -8.7374,4.9742 -18.485,9.0444 -21.6617,9.0444 -3.1766,0 -8.3982,4.1998 -11.6042,9.3331 -5.002,8.01 -0.6298,20.4372 30.8448,87.6667 20.1705,43.0835 38.7568,81.0439 41.3033,84.3561 3.5485,4.6153 15.4308,0.2546 50.8631,-18.6598 25.4281,-13.5752 61.3643,-34.4211 79.8584,-46.3246 z m -1882.4885,-22.7002 c 0.2979,-5.284 3.9746,-32.3045 8.1653,-60.0457 11.7272,-77.6305 12.4919,-86.8766 15.89,-192.1463 2.03,-62.8847 1.0775,-125.3846 -2.6353,-172.9317 -5.6606,-72.4848 -17.0021,-162.3642 -20.992,-166.3536 -1.0894,-1.0895 -19.0474,-3.0926 -39.9064,-4.4511 -207.751,-15.0638 -426.6917,-159.541 -523.8615,-307.7161 -5.0741,-8.245 -10.1237,-4.5606 -56.7264,41.3879 -60.3695,59.5226 -93.2116,102.0167 -113.6065,146.9967 -12.2681,27.0571 -15.3117,40.9632 -17.4469,79.7095 -1.5708,28.5078 -0.173,61.0314 3.5557,82.8411 l 6.1419,35.9063 16.1153,-6.7332 c 8.8632,-3.7033 25.3264,-13.0478 36.5842,-20.7654 85.2813,-58.4638 222.7087,-90.718 311.9006,-73.2033 67.231,13.2023 150.5774,69.1001 186.4987,125.0781 8.5154,13.2706 21.0808,40.8681 27.9231,61.3278 10.9846,32.8455 12.4209,44.7883 12.2739,102.0485 -0.1922,75.586 -11.317,132.8082 -47.0802,242.2066 -12.024,36.7797 -21.3311,67.2167 -20.6826,67.6365 9.9296,6.4345 178.6461,31.0975 202.9324,29.665 10.7151,-0.6322 14.5508,-3.3145 14.9567,-10.4576 z m -422.8295,-166.8565 c 21.7951,-64.37 23.2127,-71.5793 23.3904,-118.9612 0.2402,-63.8396 -8.0601,-82.4672 -45.9278,-103.0778 -20.9454,-11.3995 -31.2641,-13.8274 -59.8502,-14.0781 -23.7656,-0.2066 -37.2063,1.9085 -43.0845,6.7872 -4.6984,3.8995 -9.3143,6.506 -10.2572,5.7917 -5.6751,-4.2989 -58.2751,31.1843 -84.86,57.2452 -16.7321,16.4015 -15.133,23.3664 15.4116,67.1335 40.2998,57.7452 70.2093,88.7875 150.4073,156.1035 13.1063,11.0014 23.7262,15.9357 28.54,13.2619 1.6664,-0.9256 13.4699,-32.5183 26.2304,-70.2059 z m 2547.3085,-72.1255 c -0.269,-5.9445 3.8545,-35.6671 9.1601,-66.0503 18.9283,-108.3911 17.921,-178.1302 -4.0792,-282.4239 -9.5968,-45.4955 -49.9908,-162.184 -57.8169,-167.0213 -2.3725,-1.466 -4.3137,-5.8503 -4.3137,-9.7428 0,-7.96 -39.6119,-69.8365 -50.4845,-78.8597 -8.6879,-7.2103 -9.1702,-5.8984 -16.7936,45.6727 -7.5393,51.0005 -20.5221,89.0834 -43.8911,128.7434 -35.5178,60.2782 -83.7287,105.4667 -133.8174,125.4278 -11.889,4.7379 -25.0564,10.3582 -29.2605,12.4896 -268.56,-0.8936 -288.3371,-123.275 -384.0098,-245.0443 -1.7009,-1.321 -9.2013,-18.6142 -16.6681,-38.4293 -7.4664,-19.8151 -16.6371,-40.7772 -20.3786,-46.5825 -3.7421,-5.8052 -6.9047,-12.2902 -7.0287,-14.4109 -0.2978,-5.1275 -1.7731,-9.1856 -26.6997,-73.509 -26.3802,-68.0737 -29.249,-71.6504 -47.5495,-59.2911 -7.4913,5.0597 -19.0245,11.4866 -25.6294,14.2822 -39.4727,16.7091 -115.7192,56.7385 -122.6413,64.3869 -7.7469,8.5601 -7.1229,10.9134 12.3228,46.459 24.3781,44.5617 139.7962,238.934 191.4139,322.3548 29.4315,47.5648 122.1834,180.6665 176.1875,252.8339 l 9.8946,13.2225 17.7284,-12.0307 c 23.9059,-16.223 91.7302,-40.3359 147.4233,-52.4123 61.1587,-13.2609 166.2163,-14.3409 211.361,-2.1722 59.1243,15.9371 131.0524,58.3192 192.1463,113.2184 11.8891,10.6838 22.1329,19.4861 22.7636,19.5609 0.6308,0.077 0.9281,-4.7272 0.6605,-10.6718 z m -2159.6783,-598.0555 c -1.2374,-12.5495 -6.3763,-50.6934 -11.4192,-84.7643 -5.0429,-34.0714 -9.1692,-70.133 -9.1692,-80.1376 0,-13.7514 -2.2626,-18.9086 -9.2701,-21.1327 -30.6945,-9.7423 -231.4466,-3.8967 -242.4013,7.0581 -15.2713,15.2713 50.4346,88.1864 118.7676,131.7979 37.076,23.6633 69.8673,39.328 106.8982,51.0677 18.2664,5.7908 35.2646,12.4184 37.7745,14.7285 8.9646,8.2503 11.0374,3.8746 8.8195,-18.6176 z m 1807.2037,13.8552 c 24.709,-11.2529 53.1879,-42.9077 59.6993,-66.3553 6.5297,-23.5144 6.5344,-62.4581 0,-99.9108 -4.5327,-26.0301 -6.9369,-30.4312 -20.4156,-37.3783 -42.5954,-21.9521 -101.166,-38.1135 -169.1612,-46.6762 -23.8695,-3.0055 -47.4986,-6.0664 -52.5088,-6.8019 -5.0103,-0.7355 -12.7489,1.7792 -17.1976,5.5881 -7.55,6.4648 -7.3655,9.0458 2.7755,38.8386 47.4851,139.5006 84.6794,198.3497 135.1658,213.8607 30.5974,9.4003 38.7713,9.2461 61.6306,-1.1649 z m -1519.5572,-14.3734 c 0.8805,-2.2665 44.8339,-16.5405 97.6742,-31.7196 110.1209,-31.6345 216.0561,-66.0512 278.6122,-90.5162 94.0859,-36.7966 232.9774,-102.4087 232.9774,-110.0586 0,-2.384 -2.0122,-3.0907 -4.4717,-1.5708 -6.8082,4.2076 -8.5164,-1.0362 -16.3872,-50.303 -11.9452,-74.7747 -12.7268,-81.6929 -15.7339,-139.2364 -4.6633,-89.251 9.6069,-166.6441 43.8439,-237.7811 19.6355,-40.7989 39.8613,-69.9173 87.8104,-126.4188 l 20.6044,-24.2796 -21.8052,-9.9157 c -11.9934,-5.4537 -30.9928,-14.0527 -42.2213,-19.109 -43.723,-19.6893 -228.7958,-46.1473 -240.5534,-34.3894 -2.8345,2.8342 -9.9666,5.1534 -15.8491,5.1534 -15.9765,0 -101.6151,17.6568 -129.091,26.6151 -27.822,9.0717 -55.2422,22.2736 -55.2422,26.5969 0,1.6447 13.8527,8.8781 30.7838,16.0741 100.8038,42.8418 177.3333,124.9114 195.5088,209.6618 17.5623,81.8894 -23.7122,200.7531 -89.8855,258.8538 -43.3616,38.0724 -116.8183,79.466 -174.8364,98.523 -14.5311,4.773 -30.7434,10.364 -36.0274,12.4242 -14.2904,5.5723 -49.666,13.2264 -76.8585,16.6294 -13.2102,1.6533 -31.5841,5.0039 -40.8311,7.4451 -9.2471,2.4413 -25.0612,4.4511 -35.1422,4.4655 -10.0814,0 -22.3096,2.1569 -27.1738,4.76 -10.1487,5.4315 -10.1641,5.11 5.6006,118.9611 8.7172,62.9568 11.3347,73.2558 18.618,73.2558 4.661,0 9.1952,-1.8542 10.0762,-4.121 z m 894.5373,-358.5552 c 43.7882,-17.1731 81.8188,-31.2238 84.5131,-31.2238 5.6645,0 6.6344,-15.878 1.2961,-21.2163 -1.9815,-1.9815 -3.709,-5.0439 -3.8392,-6.8049 -0.8083,-10.9652 -38.1486,-100.5934 -65.1481,-156.375 -7.5278,-15.5522 -15.0941,-36.0879 -16.8138,-45.6347 -4.817,-26.7347 -6.6002,-27.0844 -26.0916,-5.1144 -40.7969,45.9854 -58.6175,104.3825 -58.2904,191.0131 0.1249,32.5309 1.5728,65.2899 3.2219,72.7986 1.649,7.5085 0.8045,15.0079 -1.8768,16.6647 -4.1058,2.5379 -2.423,17.1164 1.9757,17.1164 0.7911,0 37.2653,-14.0506 81.0531,-31.2237 z m -1484.2172,-35.3299 c 3.1013,-5.0184 75.9022,-10.3428 197.3809,-14.4356 75.1912,-2.5329 91.0102,-4.2752 89.7982,-9.8907 -3.0076,-13.9321 25.0112,-129.9303 47.3756,-196.1386 18.1069,-53.6026 21.566,-68.4521 15.9472,-68.4521 -10.987,0 -91.8119,28.0014 -125.2232,43.3832 -69.252,31.8814 -174.0851,116.7376 -206.5987,167.2283 -16.3367,25.3706 -35.0619,66.8449 -35.0619,77.6593 0,5.8201 12.8705,6.3279 16.3819,0.6462 z m 596.0845,-35.0336 c 78.3928,-16.0107 148.3131,-47.5548 167.8279,-75.7143 24.0889,-34.7607 14.8202,-72.8782 -29.3129,-120.5474 -23.2257,-25.0865 -81.5416,-62.4255 -97.4956,-62.4255 -13.7778,0 -73.2581,158.5574 -79.7503,212.5908 -1.6645,13.8547 -7.0863,30.9731 -12.0485,38.0406 -13.0842,18.6363 -6.2967,19.7133 50.7794,8.0558 z m 1236.2326,-43.7234 c 4.4199,-4.4116 32.0712,-6.0046 104.2404,-6.0046 86.0537,0 109.1454,-1.9608 94.2872,-8.0063 -2.1645,-0.8805 -17.7548,-18.8942 -34.6454,-40.0302 -60.0568,-75.1528 -139.7255,-144.1539 -194.3153,-168.2962 -33.8691,-14.9783 -84.6336,-27.1911 -105.422,-25.3624 l -17.1885,1.5122 20.9479,31.8261 c 24.6019,37.3773 72.4103,130.2373 94.2877,183.1377 15.5998,37.7221 24.1907,44.8166 37.808,31.2237 z"
         id="path7631"
         inkscape:connector-curvature="0"
         sodipodi:nodetypes="ccccssssssscssscssscsssscscsssssscsscccccsccccssccccccssssssscsssccccsssccsccscssccsssscccccccccccccccccsssccccssscccssscccssssccsscsssccscsscssssccccsscccccccsscssssssccscsccscssscccsssccssscscccccsccccccsscscsscssssscccccscccssscssssccssscscscsccccsscsscccssscssssccscscsssssccsccsscssscscscscsscscssscscscsscsscscssscssc" />
    </g>
  </g>
</svg>
