<?xml version="1.0" encoding="UTF-8" standalone="no"?>
<!-- Created with Inkscape (http://www.inkscape.org/) -->

<svg
   xmlns:dc="http://purl.org/dc/elements/1.1/"
   xmlns:cc="http://creativecommons.org/ns#"
   xmlns:rdf="http://www.w3.org/1999/02/22-rdf-syntax-ns#"
   xmlns:svg="http://www.w3.org/2000/svg"
   xmlns="http://www.w3.org/2000/svg"
   xmlns:sodipodi="http://sodipodi.sourceforge.net/DTD/sodipodi-0.dtd"
   xmlns:inkscape="http://www.inkscape.org/namespaces/inkscape"
   width="60in"
   height="48in"
   viewBox="0 0 5399.9999 4320"
   id="svg4475"
   version="1.1"
   inkscape:version="0.91pre4 r13712"
   sodipodi:docname="celtic_knot_of_death.svg">
  <defs
     id="defs4477" />
  <sodipodi:namedview
     id="base"
     pagecolor="#ffffff"
     bordercolor="#666666"
     borderopacity="1.0"
     inkscape:pageopacity="0.0"
     inkscape:pageshadow="2"
     inkscape:zoom="0.030935922"
     inkscape:cx="6285.3446"
     inkscape:cy="-2124.2307"
     inkscape:document-units="in"
     inkscape:current-layer="layer1"
     showgrid="false"
     units="ft"
     inkscape:window-width="1920"
     inkscape:window-height="1017"
     inkscape:window-x="1912"
     inkscape:window-y="-8"
     inkscape:window-maximized="1" />
  <metadata
     id="metadata4480">
    <rdf:RDF>
      <cc:Work
         rdf:about="">
        <dc:format>image/svg+xml</dc:format>
        <dc:type
           rdf:resource="http://purl.org/dc/dcmitype/StillImage" />
        <dc:title></dc:title>
      </cc:Work>
    </rdf:RDF>
  </metadata>
  <g
     inkscape:label="Layer 1"
     inkscape:groupmode="layer"
     id="layer1"
     transform="translate(0,3267.6378)">
    <path
       d="M 3755.8219,-2923.4085 4843.9221,-1060.6015 3774.734,813.1244 1617.4457,824.04328 529.3455,-1038.7637 1598.5336,-2912.4896 Z"
       inkscape:randomized="0"
       inkscape:rounded="0"
       inkscape:flatsided="true"
       sodipodi:arg2="-0.52866008"
       sodipodi:arg1="-1.0522589"
       sodipodi:r2="1868.2906"
       sodipodi:r1="2157.3159"
       sodipodi:cy="-1049.6826"
       sodipodi:cx="2686.6337"
       sodipodi:sides="6"
       id="path3049-5"
       style="color:#000000;display:inline;overflow:visible;visibility:visible;fill:#ffff00;stroke:#ff0000;stroke-width:1.11578476;stroke-linecap:butt;stroke-linejoin:miter;stroke-miterlimit:4;stroke-dasharray:none;stroke-dashoffset:0;stroke-opacity:1;marker:none;enable-background:accumulate"
       sodipodi:type="star" />
    <g
       style="fill:none;stroke:#ff0000;stroke-width:39.47623825"
       transform="matrix(0.51685157,0,0,-0.50357563,-14774.376,34131.213)"
       id="g7163">
      <path
         inkscape:connector-curvature="0"
         style="fill:#00ff00;fill-opacity:1;stroke:#00ffff;stroke-width:15.79049492"
         d="m 33078.185,66862.417 c 16.5,3.954 67.897,16.222 114.215,27.264 46.319,11.042 100.319,25.835 120,32.873 19.682,7.038 52.285,17.917 72.452,24.176 35.437,10.999 69.732,25.869 171.388,74.313 317.545,288.942 453.892,433.738 756.905,736.329 84.739,84.227 154.071,162.112 154.071,162.112 4.507,11.449 -382.18,394.746 -394.521,394.746 -10.139,0 -262.771,-262.074 -401.177,-411.079 -177.635,-191.241 -357.4,-365.022 -416.666,-402.798 -125.252,-79.834 -195.104,-99.794 -350,-100.012 -99.794,-0.14 -116.805,1.616 -183.334,18.92 -75.238,19.57 -126.421,43.379 -204.608,95.179 -39.726,26.319 -85.392,74.924 -85.392,90.888 0,3.232 85.5,90.084 190,193.005 104.5,102.921 120.899,119.042 120.899,122.508 0,6.294 -273.69,278.178 -280,278.152 -5.347,-0.02 -255.86,-246.033 -499.116,-492.53 l -224.043,-227.028 146.252,-147.834 c 218.486,-220.851 258.51,-252.593 446.008,-353.723 78.115,-42.132 226.857,-91.683 294.949,-98.257 19.278,-1.862 53.051,-7.518 75.051,-12.571 22,-5.052 54.5,-9.17 72.222,-9.15 17.723,0.02 33.99,-1.732 36.151,-3.892 6.513,-6.514 236.034,0.68 268.294,8.409 z"
         id="path7150"
         sodipodi:nodetypes="csccccsssssssssscscssccscc" />
      <path
         inkscape:connector-curvature="0"
         style="fill:#00ff00;fill-opacity:1;stroke:#00ffff;stroke-width:15.79049492"
         d="m 34831.12,66862.756 c 187.238,19.715 410.866,109.71 580.398,233.571 69.592,50.844 386.667,369.962 386.667,389.159 0,12.273 -138.88,162.509 -306.667,331.742 -640.129,645.645 -1254.528,1257.002 -1262.529,1257.002 -6.066,0 -250.778,-238.854 -267.876,-261.464 -7.619,-10.075 -1.522,-19.344 50.312,-76.491 32.44,-35.765 54.76,-59.601 150.093,-153.917 95.334,-94.316 177.834,-176.365 183.334,-182.331 5.5,-5.965 77.5,-77.332 160,-158.592 82.5,-81.26 258,-255.228 390,-386.596 l 240,-238.851 c -230.392,-229.809 -554.654,-306.597 -763.469,-145.661 l -103.39,-105.866 c -56.865,-58.226 -144.93,-147.994 -195.701,-199.484 -50.771,-51.489 -92.311,-96.769 -92.311,-100.623 147.546,-92.162 298.191,-157.493 412.662,-183.211 38.612,-8.743 126.286,-21.895 175.542,-26.334 41.694,-3.757 196.106,0.91 262.935,7.947 z"
         id="path7148"
         sodipodi:nodetypes="sssssssscssccsscccs" />
      <path
         inkscape:connector-curvature="0"
         style="fill:#00ff00;fill-opacity:1;stroke:#00ffff;stroke-width:15.79049492"
         d="m 33405.528,67975.911 c 102.44,102.43 185.189,189.231 183.888,192.891 -4.107,11.553 -700.809,706.776 -718.488,717.001 -4.848,2.803 -81.728,-69.45 -199.183,-187.194 l -191.287,-191.759 171.878,-158.155 c 145.085,-133.501 257.831,-253.851 260.254,-256.697 61.974,-72.79 287.417,-302.322 299.2,-302.322 4.116,0 91.298,83.806 193.738,186.235 z"
         id="path7142"
         sodipodi:nodetypes="sccscscss" />
      <path
         inkscape:connector-curvature="0"
         style="fill:#00ff00;fill-opacity:1;stroke:#00ffff;stroke-width:15.79049492"
         d="m 31804.057,68162.728 c 203.937,204.913 518.236,522.163 698.441,705 180.206,182.836 387.993,392.319 461.749,465.518 73.756,73.198 85.071,72.342 84.109,74.909 -5.092,13.591 -266.304,272.49 -274.924,272.49 -10.266,0 -420.785,-391.17 -635.498,-613.821 -117.382,-121.722 -553.341,-563.059 -578.526,-585.663 -13.503,-12.119 -14.18,-11.891 -39.629,13.334 -14.239,14.114 -43.674,49.693 -65.409,79.063 -148.568,227.12 -169.246,444.963 -59.055,626.684 l 13.798,22.325 -31.622,29.754 c -17.392,16.364 -83.03,82.043 -145.862,145.952 -62.832,63.909 -139.057,138.582 -169.389,165.941 l -55.148,49.743 -29.401,-33.077 c -36.047,-40.553 -73.255,-102.86 -105.711,-177.022 -137.019,-347.513 -100.226,-621.421 -30.483,-890.367 17.752,-50.751 81.572,-173.47 107.476,-206.667 14.305,-18.333 34.695,-46.833 45.31,-63.333 42.287,-65.732 135.891,-170.251 276.134,-308.333 80.998,-79.75 150.773,-145 155.057,-145 4.284,0 174.647,167.656 378.583,372.57 z"
         id="path7140"
         sodipodi:nodetypes="ssscssssccccsscscccssss" />
      <path
         inkscape:connector-curvature="0"
         style="fill:#00ff00;fill-opacity:1;stroke:#00ffff;stroke-width:15.79049492"
         d="m 36301.689,67975.334 c 509.541,453.307 657.06,1172.832 254.622,1708.157 -78.614,100.23 -398.124,437.78 -416.245,437.78 -3.978,0 -12.755,9.079 -19.504,20.177 -19.185,31.547 -405.644,415.051 -417.892,415.051 -11.582,0 -402.833,-399.722 -402.833,-411.555 0,-10.043 52.67,-63.638 260.235,-270.299 82.411,-82.052 410.663,-421.487 477.119,-493.374 185.19,-197.287 210.341,-455.154 103.982,-674.499 -25.225,-51.281 -103.304,-157.945 -130.453,-178.215 l -17.179,-12.826 -159.345,162.009 c -87.639,89.106 -89.026,86.184 -104.379,102.132 -24.221,25.159 -29.735,28.022 -41.667,21.636 -7.563,-4.048 -13.752,-10.314 -13.752,-13.924 0,-3.61 -23.236,-28.254 -51.635,-54.765 -108.069,-100.884 -201.698,-194.413 -201.698,-201.483 0,-4.044 22.87,-25.134 152.12,-155.492 129.25,-130.357 305.386,-309.465 391.413,-398.016 86.027,-88.552 161.027,-160.924 166.666,-160.827 5.64,0.1 82.331,71.347 170.425,158.333 z"
         id="path7138"
         sodipodi:nodetypes="ccsssssccscsscssssscc" />
      <path
         inkscape:connector-curvature="0"
         style="fill:#00ff00;fill-opacity:1;stroke:#00ffff;stroke-width:14.05853558"
         d="m 35200.558,68693.914 c 120.146,121.403 295.906,299.028 390.576,394.722 94.671,95.694 172.803,176.005 173.626,178.467 2.203,6.587 -340.069,351.618 -348.805,351.618 -4.085,0 -12.6,-6.009 -18.923,-13.354 -6.323,-7.346 -182.251,-184.874 -390.951,-394.508 -208.701,-209.634 -303.916,-298.63 -303.916,-302.298 0,-8.907 339.308,-349.492 348.386,-349.697 3.904,-0.09 29.86,13.647 150.007,135.05 z"
         id="path7134"
         sodipodi:nodetypes="ssssssscs" />
      <path
         inkscape:connector-curvature="0"
         style="fill:#00ff00;fill-opacity:1;stroke:#00ffff;stroke-width:15.79049492"
         d="m 33527.45,68701.592 c 62.803,61.618 251.59,266.613 597.402,616.901 86.166,87.282 73.616,73.394 74.741,76.67 2.449,7.127 -242.412,264.449 -256.951,270.028 -5.929,2.275 -21.482,-5.465 -37.603,-18.713 -62.504,-51.364 -719.715,-723.237 -719.715,-734.729 0,-6.338 266.497,-275.157 272.781,-275.157 1.703,0 32.908,29.25 69.345,65 z"
         id="path7132"
         sodipodi:nodetypes="ssccssss" />
      <path
         inkscape:connector-curvature="0"
         style="fill:#00ff00;fill-opacity:1;stroke:#00ffff;stroke-width:15.79049492"
         d="m 32054.856,69333.941 c 103.965,104.729 189.806,191.258 190.759,192.288 3.194,3.45 -161.455,171.151 -448.096,457.191 -183.082,182.698 -295.388,299.987 -316.051,330.071 -35.862,52.215 -87.121,157.386 -109.102,223.85 -27.642,83.58 -34.695,214.654 -17.64,327.806 8.197,54.376 16.305,78.617 49.652,148.438 37.629,78.787 78.588,140.978 115.246,174.984 l 16.253,15.078 c 144.605,-121.266 188.583,-216.319 307.306,-311.538 94.808,90.193 184.105,186.642 281.362,283.993 -267.511,270.33 -406.232,450.454 -702.408,694.056 -8.245,0 -362.713,-353.336 -399.819,-398.543 -12.886,-15.699 -40.76,-57.699 -61.944,-93.333 -21.183,-35.635 -43.361,-70.092 -49.285,-76.57 -11.675,-12.768 -18.979,-26.998 -35.014,-68.221 -108.71,-279.464 -126.62,-448.296 -77.828,-733.694 16.457,-96.265 75.761,-268.468 104.818,-304.366 3.832,-4.734 19.175,-31.63 34.097,-59.769 40.414,-76.213 79.278,-134.393 140.629,-210.527 65.639,-81.456 291.115,-313.59 557.274,-573.731 106.216,-103.814 127.651,-120.673 158.818,-151.579 31.166,-30.905 60.104,-56.216 64.306,-56.246 4.203,-0.03 92.703,85.633 196.667,190.362 z"
         id="path7120"
         sodipodi:nodetypes="scscscscccccscccsccsssss" />
      <path
         inkscape:connector-curvature="0"
         style="fill:#00ff00;fill-opacity:1;stroke:#00ffff;stroke-width:15.79049492"
         d="m 34813.294,69407.752 134.538,135 -125.005,126.666 c -68.753,69.666 -57.105,70.691 -91.715,103.225 -34.61,32.534 -86.512,85.034 -115.337,116.667 -98.073,107.623 -460.679,467.514 -471.042,467.514 -5.676,0 -69.934,-59.885 -142.795,-133.079 -119.777,-120.322 -131.61,-134.221 -123.452,-145 10.056,-13.286 243.9,-251.401 334.864,-340.98 67.959,-66.923 98.872,-111.182 305.285,-318.032 80.666,-80.837 149.694,-146.978 153.394,-146.979 3.7,0 67.269,60.748 141.265,134.998 z"
         id="path7118"
         sodipodi:nodetypes="scsscsscsscs" />
      <path
         inkscape:connector-curvature="0"
         style="fill:#00ff00;fill-opacity:1;stroke:#00ffff;stroke-width:15.79049492"
         d="m 33627.949,69668.31 c -264.973,252.292 -470.026,478.966 -747.555,749.005 -25.628,-17.95 -250.415,-243.763 -261.982,-263.176 174.592,-202.486 300.184,-333.415 509.108,-546.485 146.302,-149.282 212.996,-219.753 217.759,-218.674 89.785,92.294 191.31,176.398 282.67,279.33 z"
         id="path7116"
         sodipodi:nodetypes="cccccc" />
      <path
         inkscape:connector-curvature="0"
         style="fill:#00ff00;fill-opacity:1;stroke:#00ffff;stroke-width:15.79049492"
         d="m 32863.513,70767.647 c -139.796,131.442 -270.31,265.653 -403.705,391.412 -16.124,0 -720.488,-749.141 -720.488,-765.562 0,-5.56 42.488,-51.56 94.419,-102.223 122.557,-119.565 274.969,-274.574 277.803,-282.536 1.222,-3.434 5.722,-6.19 10,-6.124 282.937,262.359 501.665,504.853 741.971,765.033 z"
         id="path7108"
         sodipodi:nodetypes="ccssccc" />
      <path
         inkscape:connector-curvature="0"
         style="fill:#00ff00;fill-opacity:1;stroke:#00ffff;stroke-width:15.79049492"
         d="m 34367.984,70757.789 c -91.231,99.496 -163.587,172.479 -264.379,276.612 -270.443,-253.161 -536.736,-467.089 -754.318,-689.514 l -62.48,-64.782 99.319,-101.885 c 54.625,-56.037 116.87,-119.522 138.322,-141.079 l 39.004,-39.196 c 255.057,270.688 500.453,480.872 804.532,759.844 z"
         id="path7106"
         sodipodi:nodetypes="ccccsscc" />
      <path
         inkscape:connector-curvature="0"
         style="fill:#00ff00;fill-opacity:1;stroke:#00ffff;stroke-width:15.79049492"
         d="m 34991.836,70171.237 c 82.169,82.797 190.191,213.34 361.924,384.46 171.733,171.12 383.502,382.377 470.599,469.461 87.097,87.083 163.204,158.333 169.127,158.333 5.923,0 26.775,-15.75 46.338,-35 57.721,-56.799 121.854,-201.73 140.864,-318.333 25.893,-181.008 56.072,-226.315 -28.821,-371.875 l 198.603,-198.864 c 140.415,-140.6 202.952,-198.902 213.449,-198.993 8.998,-0.08 19.468,7.092 26.58,18.204 6.454,10.084 15.647,22.422 20.431,27.42 214.815,279.08 196.94,598.281 142.964,890.774 -23.131,118.439 -49.603,194.637 -101.84,293.139 -77.727,146.568 -91.749,163.515 -355.104,429.179 -148.131,149.431 -166.264,165.586 -181.556,161.747 -18.806,-4.72 -110.922,-95.054 -420.617,-412.482 -113.626,-116.462 -335.592,-341.673 -493.259,-500.468 -544.593,-548.49 -636.95,-666.708 -636.95,-672.315 0,-7.368 264.979,-274.926 272.276,-274.926 3.077,0 72.823,67.743 154.992,150.539 z"
         id="path7104"
         sodipodi:nodetypes="sssssccscsccsscsssss" />
      <path
         inkscape:connector-curvature="0"
         style="fill:#00ff00;fill-opacity:1;stroke:#00ffff;stroke-width:15.79049492"
         d="m 33595.42,70919.605 c -335.893,334.251 -559.568,558.637 -895.973,892.345 -179.177,177.718 -279.453,281.831 -277.171,287.779 1.967,5.125 16.101,17.525 31.409,27.554 15.308,10.029 34.989,25.276 43.735,33.881 20.944,20.607 163.416,90.101 197.432,96.302 184.678,31.373 350.608,45.532 487.435,-18.696 l 50.783,53.141 c 115.3,124.434 212.472,230.985 341.548,351.468 -186.355,150.172 -486.442,230.459 -686.962,229.522 -102.314,-2.73 -275.027,-31.919 -372.939,-63.028 -94.488,-30.021 -157.013,-64.443 -333.199,-183.437 -29.621,-20.006 -116.857,-101.994 -238.831,-224.464 l -192.165,-192.946 88.832,-90.008 c 570.709,-552.171 952.356,-955.241 1476.168,-1472.21 102.832,91.821 175.455,168.261 279.898,272.797 z"
         id="path7094"
         sodipodi:nodetypes="cccsccccccssscccc" />
      <path
         inkscape:connector-curvature="0"
         style="fill:#00ff00;fill-opacity:1;stroke:#00ffff;stroke-width:15.79049492"
         d="m 35080.4,71192.625 c -299.916,293.965 -468.293,491.503 -707.937,717.323 -8.04,0 -394.672,-390.245 -394.672,-398.36 285.398,-284.69 485.441,-493.355 703.244,-718.272 171.243,160.983 243.136,236.555 399.365,399.309 z"
         id="path7092"
         sodipodi:nodetypes="ccccc" />
      <path
         inkscape:connector-curvature="0"
         style="fill:#00ff00;fill-opacity:1;stroke:#00ffff;stroke-width:15.79049492"
         d="m 34319.327,72195.366 c 56.949,42.977 117.386,73.013 163.127,81.071 17.818,3.14 50.398,9.359 72.398,13.822 25.004,5.072 70.063,6.861 120.194,4.774 68.552,-2.855 90.327,-6.733 150,-26.714 138.109,-46.244 312.292,-142.117 313.037,-172.299 0.05,-2.275 -25.953,-29.275 -57.798,-60 -97.889,-94.444 -238.011,-254.603 -238.011,-259.261 0,-9.185 268.31,-272.852 277.656,-272.852 8.683,0 338.631,342.456 597.622,607.356 l 95.591,97.772 -159.167,158.895 c -313.108,312.573 -359.927,350.436 -491.152,397.206 -76.446,27.245 -97.726,34.02 -184.639,58.781 -113.32,32.283 -168.126,38.632 -333.333,38.614 -138.187,-0.02 -184.531,-6.541 -323.334,-45.526 -125.004,-35.11 -316.653,-125.685 -390.723,-184.66 -22.234,-17.703 -179.45,-171.687 -349.369,-342.187 -358.317,-359.544 -399.283,-408.448 -432.33,-452.771 -13.026,-17.472 -32.776,-41.471 -43.888,-53.333 -11.112,-11.862 -18.136,-23.862 -15.609,-26.667 133.292,-117.261 258.369,-250.014 388.923,-373.585 347.222,322.188 486.401,476.399 840.805,811.564 z"
         id="path7088"
         sodipodi:nodetypes="ccccscsssscscscssscsccc" />
    </g>
  </g>
</svg>
