<?xml version="1.0" encoding="UTF-8" standalone="no"?>
<!-- Created with Inkscape (http://www.inkscape.org/) -->

<svg
   xmlns:dc="http://purl.org/dc/elements/1.1/"
   xmlns:cc="http://creativecommons.org/ns#"
   xmlns:rdf="http://www.w3.org/1999/02/22-rdf-syntax-ns#"
   xmlns:svg="http://www.w3.org/2000/svg"
   xmlns="http://www.w3.org/2000/svg"
   xmlns:sodipodi="http://sodipodi.sourceforge.net/DTD/sodipodi-0.dtd"
   xmlns:inkscape="http://www.inkscape.org/namespaces/inkscape"
   width="243.84cm"
   height="121.92cm"
   viewBox="0 0 8639.9998 4319.9999"
   id="svg4475"
   version="1.1"
   inkscape:version="0.91pre4 r13712"
   sodipodi:docname="hex_grid_large.svg">
  <defs
     id="defs4477" />
  <sodipodi:namedview
     id="base"
     pagecolor="#ffffff"
     bordercolor="#666666"
     borderopacity="1.0"
     inkscape:pageopacity="0.0"
     inkscape:pageshadow="2"
     inkscape:zoom="0.087500001"
     inkscape:cx="-2696.7669"
     inkscape:cy="1133.1148"
     inkscape:document-units="cm"
     inkscape:current-layer="layer1"
     showgrid="false"
     units="cm"
     inkscape:window-width="1920"
     inkscape:window-height="1017"
     inkscape:window-x="-8"
     inkscape:window-y="-8"
     inkscape:window-maximized="1" />
  <metadata
     id="metadata4480">
    <rdf:RDF>
      <cc:Work
         rdf:about="">
        <dc:format>image/svg+xml</dc:format>
        <dc:type
           rdf:resource="http://purl.org/dc/dcmitype/StillImage" />
        <dc:title></dc:title>
      </cc:Work>
    </rdf:RDF>
  </metadata>
  <g
     inkscape:label="Layer 1"
     inkscape:groupmode="layer"
     id="layer1"
     transform="translate(0,3267.6378)">
    <g
       id="g18067"
       transform="matrix(1.25,0,0,1.25,-14130.37,6575.4955)">
      <path
         id="path17018"
         d="m 12822.463,-7854.4662 -1482.71,866.0782 8.691,1717.1014 1491.401,851.0251 1482.709,-866.0781 -8.692,-1717.1016 -1491.399,-851.025 z"
         style="color:#000000;display:inline;overflow:visible;visibility:visible;fill:none;stroke:#ff0000;stroke-width:2.83464575;stroke-linecap:butt;stroke-linejoin:miter;stroke-miterlimit:4;stroke-dasharray:none;stroke-dashoffset:0;stroke-opacity:1;marker:none;enable-background:accumulate"
         inkscape:connector-curvature="0" />
      <path
         id="path17016"
         d="m 12778.946,-7484.5006 2.73,1.5767 0.08,170.7233 -147.88,85.3782 -147.888,-85.3891 0,-1.1703 292.954,-171.1188 z"
         style="color:#000000;display:inline;overflow:visible;visibility:visible;fill:none;stroke:#0000ff;stroke-width:2.83464575;stroke-linecap:butt;stroke-linejoin:miter;stroke-miterlimit:4;stroke-dasharray:none;stroke-dashoffset:0;stroke-opacity:1;marker:none;enable-background:accumulate"
         inkscape:connector-curvature="0" />
      <path
         id="path17014"
         d="m 12885.099,-7475.9803 291.567,166.3751 -143.718,82.975 -147.886,-85.389 0.04,-163.9611 z"
         style="color:#000000;display:inline;overflow:visible;visibility:visible;fill:none;stroke:#0000ff;stroke-width:2.83464575;stroke-linecap:butt;stroke-linejoin:miter;stroke-miterlimit:4;stroke-dasharray:none;stroke-dashoffset:0;stroke-opacity:1;marker:none;enable-background:accumulate"
         inkscape:connector-curvature="0" />
      <path
         id="path17012"
         d="m 12434.388,-7222.4911 147.842,85.3109 -0.04,170.6906 -147.881,85.3765 -147.763,-85.3547 -0.04,-170.6436 147.878,-85.3797 z"
         style="color:#000000;display:inline;overflow:visible;visibility:visible;fill:none;stroke:#0000ff;stroke-width:2.83464575;stroke-linecap:butt;stroke-linejoin:miter;stroke-miterlimit:4;stroke-dasharray:none;stroke-dashoffset:0;stroke-opacity:1;marker:none;enable-background:accumulate"
         inkscape:connector-curvature="0" />
      <path
         id="path17010"
         d="m 12833.488,-7222.4221 0,0 147.888,85.3891 -0.04,170.6906 -147.802,85.3313 -147.84,-85.3095 -0.01,-170.7687 147.8,-85.3328 z"
         style="color:#000000;display:inline;overflow:visible;visibility:visible;fill:none;stroke:#0000ff;stroke-width:2.83464575;stroke-linecap:butt;stroke-linejoin:miter;stroke-miterlimit:4;stroke-dasharray:none;stroke-dashoffset:0;stroke-opacity:1;marker:none;enable-background:accumulate"
         inkscape:connector-curvature="0" />
      <path
         id="path17008"
         d="m 13232.631,-7222.2752 0,0 0,0 147.837,85.3093 0.01,170.7688 -147.801,85.3313 -147.886,-85.3877 0.04,-170.6889 147.8,-85.3328 0,0 z"
         style="color:#000000;display:inline;overflow:visible;visibility:visible;fill:none;stroke:#0000ff;stroke-width:2.83464575;stroke-linecap:butt;stroke-linejoin:miter;stroke-miterlimit:4;stroke-dasharray:none;stroke-dashoffset:0;stroke-opacity:1;marker:none;enable-background:accumulate"
         inkscape:connector-curvature="0" />
      <path
         id="path17006"
         d="m 12183.161,-7136.4924 0.08,169.8438 -147.88,85.3764 -145.404,-83.9546 293.2,-171.2657 z"
         style="color:#000000;display:inline;overflow:visible;visibility:visible;fill:none;stroke:#0000ff;stroke-width:2.83464575;stroke-linecap:butt;stroke-linejoin:miter;stroke-miterlimit:4;stroke-dasharray:none;stroke-dashoffset:0;stroke-opacity:1;marker:none;enable-background:accumulate"
         inkscape:connector-curvature="0" />
      <path
         id="path17004"
         d="m 13483.931,-7134.2736 295.165,168.428 -147.314,85.05 -147.841,-85.3094 -0.01,-168.1686 z"
         style="color:#000000;display:inline;overflow:visible;visibility:visible;fill:none;stroke:#0000ff;stroke-width:2.83464575;stroke-linecap:butt;stroke-linejoin:miter;stroke-miterlimit:4;stroke-dasharray:none;stroke-dashoffset:0;stroke-opacity:1;marker:none;enable-background:accumulate"
         inkscape:connector-curvature="0" />
      <path
         id="path17002"
         d="m 11835.875,-6876.9408 147.841,85.3109 0.01,170.7688 -147.88,85.378 -147.808,-85.4344 -0.04,-170.6452 0,0 147.88,-85.3781 z"
         style="color:#000000;display:inline;overflow:visible;visibility:visible;fill:none;stroke:#0000ff;stroke-width:2.83464575;stroke-linecap:butt;stroke-linejoin:miter;stroke-miterlimit:4;stroke-dasharray:none;stroke-dashoffset:0;stroke-opacity:1;marker:none;enable-background:accumulate"
         inkscape:connector-curvature="0" />
      <path
         id="path17000"
         d="m 12234.975,-6876.8718 147.886,85.3907 -0.04,170.689 -147.801,85.3328 -147.841,-85.3109 -0.01,-170.7672 0,0 147.802,-85.3344 z"
         style="color:#000000;display:inline;overflow:visible;visibility:visible;fill:none;stroke:#0000ff;stroke-width:2.83464575;stroke-linecap:butt;stroke-linejoin:miter;stroke-miterlimit:4;stroke-dasharray:none;stroke-dashoffset:0;stroke-opacity:1;marker:none;enable-background:accumulate"
         inkscape:connector-curvature="0" />
      <path
         id="path16998"
         d="m 12634.04,-6876.6796 0,0 0,0 147.841,85.3093 0.01,170.7688 -147.801,85.3328 -147.887,-85.3891 0.04,-170.6891 147.798,-85.3327 0,0 z"
         style="color:#000000;display:inline;overflow:visible;visibility:visible;fill:none;stroke:#0000ff;stroke-width:2.83464575;stroke-linecap:butt;stroke-linejoin:miter;stroke-miterlimit:4;stroke-dasharray:none;stroke-dashoffset:0;stroke-opacity:1;marker:none;enable-background:accumulate"
         inkscape:connector-curvature="0" />
      <path
         id="path16996"
         d="m 13033.223,-6876.6566 0,0 147.808,85.436 0.04,170.6437 -147.88,85.3782 -147.841,-85.311 -0.01,-170.7672 147.88,-85.3797 z"
         style="color:#000000;display:inline;overflow:visible;visibility:visible;fill:none;stroke:#0000ff;stroke-width:2.83464575;stroke-linecap:butt;stroke-linejoin:miter;stroke-miterlimit:4;stroke-dasharray:none;stroke-dashoffset:0;stroke-opacity:1;marker:none;enable-background:accumulate"
         inkscape:connector-curvature="0" />
      <path
         id="path16994"
         d="m 13432.29,-6876.4628 0,0 147.808,85.4345 0.04,170.6436 -147.88,85.3781 -147.84,-85.3109 -0.01,-170.7672 147.88,-85.3781 z"
         style="color:#000000;display:inline;overflow:visible;visibility:visible;fill:none;stroke:#0000ff;stroke-width:2.83464575;stroke-linecap:butt;stroke-linejoin:miter;stroke-miterlimit:4;stroke-dasharray:none;stroke-dashoffset:0;stroke-opacity:1;marker:none;enable-background:accumulate"
         inkscape:connector-curvature="0" />
      <path
         id="path16992"
         d="m 13831.437,-6876.3158 147.84,85.3107 -0.04,170.6892 -147.8,85.3328 -147.842,-85.3109 0.04,-170.6891 147.802,-85.3327 z"
         style="color:#000000;display:inline;overflow:visible;visibility:visible;fill:none;stroke:#0000ff;stroke-width:2.83464575;stroke-linecap:butt;stroke-linejoin:miter;stroke-miterlimit:4;stroke-dasharray:none;stroke-dashoffset:0;stroke-opacity:1;marker:none;enable-background:accumulate"
         inkscape:connector-curvature="0" />
      <path
         id="path16990"
         d="m 12035.53,-6531.1283 147.841,85.3124 0.01,170.7672 -147.802,85.3328 -147.886,-85.3891 0.04,-170.6889 0,0 147.802,-85.3344 z"
         style="color:#000000;display:inline;overflow:visible;visibility:visible;fill:none;stroke:#0000ff;stroke-width:2.83464575;stroke-linecap:butt;stroke-linejoin:miter;stroke-miterlimit:4;stroke-dasharray:none;stroke-dashoffset:0;stroke-opacity:1;marker:none;enable-background:accumulate"
         inkscape:connector-curvature="0" />
      <path
         id="path16988"
         d="m 12434.708,-6531.1033 147.81,85.4344 0.04,170.6438 -147.88,85.3781 -147.841,-85.311 -0.01,-170.7672 0,0 147.88,-85.3782 z"
         style="color:#000000;display:inline;overflow:visible;visibility:visible;fill:none;stroke:#0000ff;stroke-width:2.83464575;stroke-linecap:butt;stroke-linejoin:miter;stroke-miterlimit:4;stroke-dasharray:none;stroke-dashoffset:0;stroke-opacity:1;marker:none;enable-background:accumulate"
         inkscape:connector-curvature="0" />
      <path
         id="path16986"
         d="m 12833.695,-6530.8657 0,0 0,0 147.837,85.3092 0.01,170.7672 -147.881,85.3781 -147.808,-85.4342 -0.04,-170.6439 147.88,-85.3764 0,0 z"
         style="color:#000000;display:inline;overflow:visible;visibility:visible;fill:none;stroke:#0000ff;stroke-width:2.83464575;stroke-linecap:butt;stroke-linejoin:miter;stroke-miterlimit:4;stroke-dasharray:none;stroke-dashoffset:0;stroke-opacity:1;marker:none;enable-background:accumulate"
         inkscape:connector-curvature="0" />
      <path
         id="path16984"
         d="m 13232.799,-6530.7967 0,0 147.886,85.3889 -0.04,170.6891 -147.802,85.3328 -147.842,-85.3108 -0.01,-170.7672 147.801,-85.3328 z"
         style="color:#000000;display:inline;overflow:visible;visibility:visible;fill:none;stroke:#0000ff;stroke-width:2.83464575;stroke-linecap:butt;stroke-linejoin:miter;stroke-miterlimit:4;stroke-dasharray:none;stroke-dashoffset:0;stroke-opacity:1;marker:none;enable-background:accumulate"
         inkscape:connector-curvature="0" />
      <path
         id="path16982"
         d="m 13631.946,-6530.6499 0,0 147.886,85.389 -0.04,170.689 -147.801,85.3344 -147.841,-85.3108 0,-170.7688 147.801,-85.3328 z"
         style="color:#000000;display:inline;overflow:visible;visibility:visible;fill:none;stroke:#0000ff;stroke-width:2.83464575;stroke-linecap:butt;stroke-linejoin:miter;stroke-miterlimit:4;stroke-dasharray:none;stroke-dashoffset:0;stroke-opacity:1;marker:none;enable-background:accumulate"
         inkscape:connector-curvature="0" />
      <path
         id="path16980"
         d="m 11639.32,-6529.5797 144.95,83.6954 -0.04,170.689 -143.204,82.6782 -1.706,-337.0626 z"
         style="color:#000000;display:inline;overflow:visible;visibility:visible;fill:none;stroke:#0000ff;stroke-width:2.83464575;stroke-linecap:butt;stroke-linejoin:miter;stroke-miterlimit:4;stroke-dasharray:none;stroke-dashoffset:0;stroke-opacity:1;marker:none;enable-background:accumulate"
         inkscape:connector-curvature="0" />
      <path
         id="path16978"
         d="m 14018.685,-6523.3437 0,0 0,0 1.661,328.0187 -137.095,-79.1577 0.04,-170.6907 135.395,-78.1703 0,0 z"
         style="color:#000000;display:inline;overflow:visible;visibility:visible;fill:none;stroke:#0000ff;stroke-width:2.83464575;stroke-linecap:butt;stroke-linejoin:miter;stroke-miterlimit:4;stroke-dasharray:none;stroke-dashoffset:0;stroke-opacity:1;marker:none;enable-background:accumulate"
         inkscape:connector-curvature="0" />
      <path
         id="path16976"
         d="m 11836.117,-6185.5063 147.808,85.4344 0.04,170.6438 -147.881,85.3782 -147.761,-85.3564 -0.09,-170.7218 147.88,-85.3782 z"
         style="color:#000000;display:inline;overflow:visible;visibility:visible;fill:none;stroke:#0000ff;stroke-width:2.83464575;stroke-linecap:butt;stroke-linejoin:miter;stroke-miterlimit:4;stroke-dasharray:none;stroke-dashoffset:0;stroke-opacity:1;marker:none;enable-background:accumulate"
         inkscape:connector-curvature="0" />
      <path
         id="path16974"
         d="m 12235.185,-6185.3139 147.886,85.3889 -0.04,170.6891 -147.88,85.3781 -147.763,-85.3562 -0.08,-170.722 147.88,-85.378 z"
         style="color:#000000;display:inline;overflow:visible;visibility:visible;fill:none;stroke:#0000ff;stroke-width:2.83464575;stroke-linecap:butt;stroke-linejoin:miter;stroke-miterlimit:4;stroke-dasharray:none;stroke-dashoffset:0;stroke-opacity:1;marker:none;enable-background:accumulate"
         inkscape:connector-curvature="0" />
      <path
         id="path16972"
         d="m 12634.332,-6185.1671 147.841,85.3108 -0.04,170.6892 -147.802,85.3344 -147.841,-85.3126 0.04,-170.689 147.802,-85.3328 z"
         style="color:#000000;display:inline;overflow:visible;visibility:visible;fill:none;stroke:#0000ff;stroke-width:2.83464575;stroke-linecap:butt;stroke-linejoin:miter;stroke-miterlimit:4;stroke-dasharray:none;stroke-dashoffset:0;stroke-opacity:1;marker:none;enable-background:accumulate"
         inkscape:connector-curvature="0" />
      <path
         id="path16970"
         d="m 13033.354,-6185.0531 0,0 147.888,85.3892 -0.04,170.6905 -147.802,85.3328 -147.841,-85.3109 -0.01,-170.7688 147.802,-85.3328 z"
         style="color:#000000;display:inline;overflow:visible;visibility:visible;fill:none;stroke:#0000ff;stroke-width:2.83464575;stroke-linecap:butt;stroke-linejoin:miter;stroke-miterlimit:4;stroke-dasharray:none;stroke-dashoffset:0;stroke-opacity:1;marker:none;enable-background:accumulate"
         inkscape:connector-curvature="0" />
      <path
         id="path16968"
         d="m 13432.579,-6184.9515 0,0 147.762,85.3562 0.04,170.6438 -147.88,85.3796 -147.842,-85.3108 0.04,-170.6907 147.88,-85.3781 z"
         style="color:#000000;display:inline;overflow:visible;visibility:visible;fill:none;stroke:#0000ff;stroke-width:2.83464575;stroke-linecap:butt;stroke-linejoin:miter;stroke-miterlimit:4;stroke-dasharray:none;stroke-dashoffset:0;stroke-opacity:1;marker:none;enable-background:accumulate"
         inkscape:connector-curvature="0" />
      <path
         id="path16966"
         d="m 13831.601,-6184.8375 0,0 147.807,85.4344 0.04,170.6453 -147.879,85.3781 -147.841,-85.3109 -0.01,-170.7688 147.88,-85.3781 z"
         style="color:#000000;display:inline;overflow:visible;visibility:visible;fill:none;stroke:#0000ff;stroke-width:2.83464575;stroke-linecap:butt;stroke-linejoin:miter;stroke-miterlimit:4;stroke-dasharray:none;stroke-dashoffset:0;stroke-opacity:1;marker:none;enable-background:accumulate"
         inkscape:connector-curvature="0" />
      <path
         id="path16964"
         d="m 12035.694,-5839.6483 147.886,85.3889 -0.04,170.6891 -147.802,85.3344 -147.84,-85.3124 -0.01,-170.7672 0,0 147.801,-85.3328 z"
         style="color:#000000;display:inline;overflow:visible;visibility:visible;fill:none;stroke:#0000ff;stroke-width:2.83464575;stroke-linecap:butt;stroke-linejoin:miter;stroke-miterlimit:4;stroke-dasharray:none;stroke-dashoffset:0;stroke-opacity:1;marker:none;enable-background:accumulate"
         inkscape:connector-curvature="0" />
      <path
         id="path16962"
         d="m 12434.841,-5839.5015 147.886,85.389 -0.04,170.6906 -147.803,85.3328 -147.84,-85.3108 -0.01,-170.7688 0,0 147.802,-85.3328 z"
         style="color:#000000;display:inline;overflow:visible;visibility:visible;fill:none;stroke:#0000ff;stroke-width:2.83464575;stroke-linecap:butt;stroke-linejoin:miter;stroke-miterlimit:4;stroke-dasharray:none;stroke-dashoffset:0;stroke-opacity:1;marker:none;enable-background:accumulate"
         inkscape:connector-curvature="0" />
      <path
         id="path16960"
         d="m 12834.065,-5839.3999 147.762,85.3562 0.09,170.7234 -147.881,85.3781 -147.884,-85.3889 0.04,-170.6892 147.879,-85.3796 z"
         style="color:#000000;display:inline;overflow:visible;visibility:visible;fill:none;stroke:#0000ff;stroke-width:2.83464575;stroke-linecap:butt;stroke-linejoin:miter;stroke-miterlimit:4;stroke-dasharray:none;stroke-dashoffset:0;stroke-opacity:1;marker:none;enable-background:accumulate"
         inkscape:connector-curvature="0" />
      <path
         id="path16958"
         d="m 13233.009,-5839.2406 147.887,85.3891 -0.04,170.6906 -147.88,85.3782 -147.763,-85.3564 -0.08,-170.7235 147.88,-85.3781 z"
         style="color:#000000;display:inline;overflow:visible;visibility:visible;fill:none;stroke:#0000ff;stroke-width:2.83464575;stroke-linecap:butt;stroke-linejoin:miter;stroke-miterlimit:4;stroke-dasharray:none;stroke-dashoffset:0;stroke-opacity:1;marker:none;enable-background:accumulate"
         inkscape:connector-curvature="0" />
      <path
         id="path16956"
         d="m 13632.151,-5839.0937 0,0 0,0 147.837,85.3094 0.01,170.7688 -147.801,85.3328 -147.888,-85.3891 0.04,-170.6891 147.8,-85.3328 0,0 z"
         style="color:#000000;display:inline;overflow:visible;visibility:visible;fill:none;stroke:#0000ff;stroke-width:2.83464575;stroke-linecap:butt;stroke-linejoin:miter;stroke-miterlimit:4;stroke-dasharray:none;stroke-dashoffset:0;stroke-opacity:1;marker:none;enable-background:accumulate"
         inkscape:connector-curvature="0" />
      <path
         id="path16954"
         d="m 11642.831,-5836.1187 141.604,81.7124 0.01,170.7672 -139.927,80.7875 -1.686,-333.2671 z"
         style="color:#000000;display:inline;overflow:visible;visibility:visible;fill:none;stroke:#0000ff;stroke-width:2.83464575;stroke-linecap:butt;stroke-linejoin:miter;stroke-miterlimit:4;stroke-dasharray:none;stroke-dashoffset:0;stroke-opacity:1;marker:none;enable-background:accumulate"
         inkscape:connector-curvature="0" />
      <path
         id="path16952"
         d="m 14022.181,-5833.6797 1.678,331.7719 -140.399,-81.0157 0.04,-170.6891 138.682,-80.0671 z"
         style="color:#000000;display:inline;overflow:visible;visibility:visible;fill:none;stroke:#0000ff;stroke-width:2.83464575;stroke-linecap:butt;stroke-linejoin:miter;stroke-miterlimit:4;stroke-dasharray:none;stroke-dashoffset:0;stroke-opacity:1;marker:none;enable-background:accumulate"
         inkscape:connector-curvature="0" />
      <path
         id="path16950"
         d="m 11836.249,-5493.9047 147.886,85.3908 -0.04,157.828 -286.227,-163.3266 138.377,-79.8922 z"
         style="color:#000000;display:inline;overflow:visible;visibility:visible;fill:none;stroke:#0000ff;stroke-width:2.83464575;stroke-linecap:butt;stroke-linejoin:miter;stroke-miterlimit:4;stroke-dasharray:none;stroke-dashoffset:0;stroke-opacity:1;marker:none;enable-background:accumulate"
         inkscape:connector-curvature="0" />
      <path
         id="path16948"
         d="m 12235.474,-5493.8031 147.762,85.3564 0.04,170.6452 -147.881,85.378 -147.761,-85.3562 -0.04,-170.6438 147.881,-85.3796 z"
         style="color:#000000;display:inline;overflow:visible;visibility:visible;fill:none;stroke:#0000ff;stroke-width:2.83464575;stroke-linecap:butt;stroke-linejoin:miter;stroke-miterlimit:4;stroke-dasharray:none;stroke-dashoffset:0;stroke-opacity:1;marker:none;enable-background:accumulate"
         inkscape:connector-curvature="0" />
      <path
         id="path16946"
         d="m 12634.496,-5493.6891 0,0 147.886,85.3908 -0.04,170.6889 -147.88,85.3783 -147.762,-85.3564 -0.09,-170.7234 147.879,-85.3782 z"
         style="color:#000000;display:inline;overflow:visible;visibility:visible;fill:none;stroke:#0000ff;stroke-width:2.83464575;stroke-linecap:butt;stroke-linejoin:miter;stroke-miterlimit:4;stroke-dasharray:none;stroke-dashoffset:0;stroke-opacity:1;marker:none;enable-background:accumulate"
         inkscape:connector-curvature="0" />
      <path
         id="path16944"
         d="m 13033.638,-5493.5422 0,0 0,0 147.836,85.3109 0.01,170.7672 -147.801,85.3328 -147.886,-85.389 0.04,-170.6891 147.801,-85.3328 0,0 z"
         style="color:#000000;display:inline;overflow:visible;visibility:visible;fill:none;stroke:#0000ff;stroke-width:2.83464575;stroke-linecap:butt;stroke-linejoin:miter;stroke-miterlimit:4;stroke-dasharray:none;stroke-dashoffset:0;stroke-opacity:1;marker:none;enable-background:accumulate"
         inkscape:connector-curvature="0" />
      <path
         id="path16942"
         d="m 13432.71,-5493.3483 0,0 147.84,85.3108 -0.04,170.6892 -147.8,85.3328 -147.842,-85.3111 0.04,-170.6889 147.801,-85.3328 z"
         style="color:#000000;display:inline;overflow:visible;visibility:visible;fill:none;stroke:#0000ff;stroke-width:2.83464575;stroke-linecap:butt;stroke-linejoin:miter;stroke-miterlimit:4;stroke-dasharray:none;stroke-dashoffset:0;stroke-opacity:1;marker:none;enable-background:accumulate"
         inkscape:connector-curvature="0" />
      <path
         id="path16940"
         d="m 13831.888,-5493.3263 128.479,74.2156 -276.393,161.4469 0.03,-150.2844 147.879,-85.3781 z"
         style="color:#000000;display:inline;overflow:visible;visibility:visible;fill:none;stroke:#0000ff;stroke-width:2.83464575;stroke-linecap:butt;stroke-linejoin:miter;stroke-miterlimit:4;stroke-dasharray:none;stroke-dashoffset:0;stroke-opacity:1;marker:none;enable-background:accumulate"
         inkscape:connector-curvature="0" />
      <path
         id="path16938"
         d="m 12435.047,-5147.9451 0,0 0,0 147.841,85.3109 0.01,153.6375 -282.505,-161.2047 134.655,-77.7437 0,0 z"
         style="color:#000000;display:inline;overflow:visible;visibility:visible;fill:none;stroke:#0000ff;stroke-width:2.83464575;stroke-linecap:butt;stroke-linejoin:miter;stroke-miterlimit:4;stroke-dasharray:none;stroke-dashoffset:0;stroke-opacity:1;marker:none;enable-background:accumulate"
         inkscape:connector-curvature="0" />
      <path
         id="path16936"
         d="m 12834.196,-5147.7966 147.841,85.3108 -0.04,170.6892 -147.802,85.3328 -147.84,-85.3109 0.04,-170.6891 147.801,-85.3328 z"
         style="color:#000000;display:inline;overflow:visible;visibility:visible;fill:none;stroke:#0000ff;stroke-width:2.83464575;stroke-linecap:butt;stroke-linejoin:miter;stroke-miterlimit:4;stroke-dasharray:none;stroke-dashoffset:0;stroke-opacity:1;marker:none;enable-background:accumulate"
         inkscape:connector-curvature="0" />
      <path
         id="path3049-4-1-0"
         d="m 13233.376,-5147.7746 131.964,76.2313 -279.88,163.4843 0.03,-154.3359 147.882,-85.3797 z"
         style="color:#000000;display:inline;overflow:visible;visibility:visible;fill:none;stroke:#0000ff;stroke-width:2.83464575;stroke-linecap:butt;stroke-linejoin:miter;stroke-miterlimit:4;stroke-dasharray:none;stroke-dashoffset:0;stroke-opacity:1;marker:none;enable-background:accumulate"
         inkscape:connector-curvature="0" />
    </g>
  </g>
</svg>
