<?xml version="1.0" encoding="UTF-8" standalone="no"?>
<!-- Created with Inkscape (http://www.inkscape.org/) -->

<svg
   xmlns:dc="http://purl.org/dc/elements/1.1/"
   xmlns:cc="http://creativecommons.org/ns#"
   xmlns:rdf="http://www.w3.org/1999/02/22-rdf-syntax-ns#"
   xmlns:svg="http://www.w3.org/2000/svg"
   xmlns="http://www.w3.org/2000/svg"
   xmlns:sodipodi="http://sodipodi.sourceforge.net/DTD/sodipodi-0.dtd"
   xmlns:inkscape="http://www.inkscape.org/namespaces/inkscape"
   width="60in"
   height="48in"
   viewBox="0 0 5399.9999 4320"
   id="svg4475"
   version="1.1"
   inkscape:version="0.91pre4 r13712"
   sodipodi:docname="PocketUniverse (4x5 feet).svg">
  <defs
     id="defs4477" />
  <sodipodi:namedview
     id="base"
     pagecolor="#ffffff"
     bordercolor="#666666"
     borderopacity="1.0"
     inkscape:pageopacity="0.0"
     inkscape:pageshadow="2"
     inkscape:zoom="0.043750001"
     inkscape:cx="2515.6288"
     inkscape:cy="-110.38963"
     inkscape:document-units="in"
     inkscape:current-layer="layer1"
     showgrid="false"
     units="ft"
     inkscape:window-width="1920"
     inkscape:window-height="1017"
     inkscape:window-x="1912"
     inkscape:window-y="-8"
     inkscape:window-maximized="1" />
  <metadata
     id="metadata4480">
    <rdf:RDF>
      <cc:Work
         rdf:about="">
        <dc:format>image/svg+xml</dc:format>
        <dc:type
           rdf:resource="http://purl.org/dc/dcmitype/StillImage" />
        <dc:title></dc:title>
      </cc:Work>
    </rdf:RDF>
  </metadata>
  <g
     inkscape:label="Layer 1"
     inkscape:groupmode="layer"
     id="layer1"
     transform="translate(0,3267.6378)">
    <path
       inkscape:connector-curvature="0"
       style="color:#000000;font-style:normal;font-variant:normal;font-weight:normal;font-stretch:normal;font-size:medium;line-height:normal;font-family:sans-serif;text-indent:0;text-align:start;text-decoration:none;text-decoration-line:none;text-decoration-style:solid;text-decoration-color:#000000;letter-spacing:normal;word-spacing:normal;text-transform:none;direction:ltr;block-progression:tb;writing-mode:lr-tb;baseline-shift:baseline;text-anchor:start;white-space:normal;clip-rule:nonzero;display:inline;overflow:visible;visibility:visible;opacity:1;isolation:auto;mix-blend-mode:normal;color-interpolation:sRGB;color-interpolation-filters:linearRGB;solid-color:#000000;solid-opacity:1;fill:#ff0000;fill-opacity:1;fill-rule:nonzero;stroke:none;stroke-width:449.92678833;stroke-linecap:butt;stroke-linejoin:miter;stroke-miterlimit:4;stroke-dasharray:none;stroke-dashoffset:0;stroke-opacity:1;color-rendering:auto;image-rendering:auto;shape-rendering:auto;text-rendering:auto;enable-background:accumulate"
       d="m 2697.1458,-3077.8998 -0.01,0 -1157.3242,0 -578.66211,1002.2734 0,0 0,0 -578.6621,1002.2734 578.6621,1002.271436 0,0.01 0,0 578.66211,1002.271504 1157.3242,0 0.01,0 0.01,0 1157.3223,0 578.6621,-1002.271504 0,0 0,-0.01 578.6621,-1002.271436 -38.9707,-67.5019 -539.6894,-934.7696 0,-0.01 -0.01,0 -578.6601,-1002.2695 -1157.3223,0 -0.01,0 z m -1001.4453,270.0039 533.7851,0 -396.1016,228.6894 -5.7207,0 -2.8613,4.9551 -395.9941,228.627 266.8926,-462.2715 z m 1001.4394,0 0.012,0 396.1016,228.6894 -396.1485,0 -0.01,0 -0.01,0 -396.0547,0 396.1016,-228.6894 z m 467.666,0 533.7832,0 266.8906,462.2695 -396.1386,-228.7109 -2.8106,-4.8692 -5.623,0 -396.1016,-228.6894 z m -1215.0898,431.5254 396.0547,0 -601.5,347.2773 198.0293,-342.9961 7.416,-4.2812 z m 747.3769,0 0.01,0 1128.4864,651.5312 0,0.01 0,1303.06044 0,0.01 -1128.4844,651.5312 -0.01,0 -1128.4824,-651.5312 0,-0.01 0,-1303.06044 0,-0.01 1128.4824,-651.5312 z m 351.334,0 396.1485,0 7.2734,4.1992 198.0742,343.0742 -601.4961,-347.2734 z m 754.7422,207.0332 396.1367,228.7109 0.01,0.012 0,457.42 -198.0625,-343.0547 0,-0.01 -0.01,0 -198.0742,-343.0761 z m -2212.1934,0.086 -396,685.8906 0,-457.2539 0.01,-0.01 395.9941,-228.627 z m -629.82611,633.6367 0,457.2539 -2.9199,5.0567 2.9199,5.0566 0,457.17574 -266.8926,-462.27144 266.8926,-462.2715 z m 3471.99021,0 266.8926,462.2695 -266.8926,462.27144 0,-457.34174 2.8242,-4.8906 -2.8242,-4.8906 0,-457.418 z m -3040.1953,115.0332 0,694.55074 -197.9688,-342.89064 0,-8.7695 197.9688,-342.8906 z m 2608.3066,0 198.0625,343.0566 0,8.4375 -198.0644,343.05854 0,-694.55264 z m 198.0625,757.16594 0,457.3398 -0.01,0.012 -396.0684,228.669896 198.0059,-342.956996 0,0 0,0 198.0644,-343.0586 z m -3004.3379,0.1641 197.9688,342.8925 0,0.01 0.01,0 197.957,342.871096 -395.9258,-228.585896 -0.01,-0.012 0,-457.1757 z m 2454.9493,545.7363 -198.0039,342.9551 -7.4864,4.3222 -396.0117,0 601.502,-347.2773 z m -1905.6524,0 601.4981,347.2754 -395.9141,0 -7.625,-4.4023 -197.959,-342.8731 z m -315.4648,316.4493 395.9238,228.5859 2.9316,5.0762 5.8614,0 395.9609,228.6074 -533.7851,0 -266.8926,-462.2695 z m 2536.6718,0 -266.8906,462.2695 -533.7832,0 395.959,-228.6074 5.7656,0 2.8828,-4.9922 396.0664,-228.6699 z m -1664.3007,233.6621 395.914,0 0,0 0,0 396.0118,0 -395.961,228.6074 -0.012,0 -395.9609,-228.6074 z"
       id="path3357" />
  </g>
</svg>
