<?xml version="1.0" encoding="UTF-8" standalone="no"?>
<!-- Created with Inkscape (http://www.inkscape.org/) -->

<svg
   xmlns:dc="http://purl.org/dc/elements/1.1/"
   xmlns:cc="http://creativecommons.org/ns#"
   xmlns:rdf="http://www.w3.org/1999/02/22-rdf-syntax-ns#"
   xmlns:svg="http://www.w3.org/2000/svg"
   xmlns="http://www.w3.org/2000/svg"
   xmlns:sodipodi="http://sodipodi.sourceforge.net/DTD/sodipodi-0.dtd"
   xmlns:inkscape="http://www.inkscape.org/namespaces/inkscape"
   width="243.84cm"
   height="121.92cm"
   viewBox="0 0 8639.9998 4319.9999"
   id="svg4475"
   version="1.1"
   inkscape:version="0.91pre4 r13712"
   sodipodi:docname="stain_glass.svg">
  <defs
     id="defs4477" />
  <sodipodi:namedview
     id="base"
     pagecolor="#ffffff"
     bordercolor="#666666"
     borderopacity="1.0"
     inkscape:pageopacity="0.0"
     inkscape:pageshadow="2"
     inkscape:zoom="0.087500001"
     inkscape:cx="960.37592"
     inkscape:cy="1133.1148"
     inkscape:document-units="cm"
     inkscape:current-layer="layer1"
     showgrid="false"
     units="cm"
     inkscape:window-width="1920"
     inkscape:window-height="1017"
     inkscape:window-x="-8"
     inkscape:window-y="-8"
     inkscape:window-maximized="1" />
  <metadata
     id="metadata4480">
    <rdf:RDF>
      <cc:Work
         rdf:about="">
        <dc:format>image/svg+xml</dc:format>
        <dc:type
           rdf:resource="http://purl.org/dc/dcmitype/StillImage" />
        <dc:title></dc:title>
      </cc:Work>
    </rdf:RDF>
  </metadata>
  <g
     inkscape:label="Layer 1"
     inkscape:groupmode="layer"
     id="layer1"
     transform="translate(0,3267.6378)">
    <g
       id="g17814"
       transform="matrix(1.25,0,0,1.25,-20067.296,3140.3511)">
      <path
         id="path16104"
         d="m 17581.137,-5117.3434 -0.7,0.4 -0.1,0.075 c -494.502,288.8373 -988.985,577.7092 -1483.5,866.525 2.881,572.9834 5.795,1145.9666 8.675,1718.95 497.652,284.0093 995.332,567.9718 1493,851.95 494.771,-289.0071 989.537,-578.024 1484.325,-867 -2.889,-572.9834 -5.811,-1145.9666 -8.7,-1718.95 -497.651,-284.0095 -995.33,-567.9719 -1493,-851.95 z"
         style="color:#000000;display:inline;overflow:visible;visibility:visible;fill:none;stroke:#ff0000;stroke-width:2.83464575;stroke-linecap:butt;stroke-linejoin:miter;stroke-miterlimit:4;stroke-dasharray:none;stroke-dashoffset:0;stroke-opacity:1;marker:none;enable-background:accumulate"
         inkscape:connector-curvature="0" />
      <path
         id="path16102"
         d="m 17545.637,-4765.1934 c 1.536,0.1545 5.293,-0.1606 5.35,1.175 -28.342,31.267 -58.66,60.8013 -88.25,90.925 -48.916,48.7962 -97.574,97.8708 -147.95,145.05 -8.217,7.3865 -16.54,14.9864 -24.8,22.45 -75.125,-22.0253 -151.021,-41.2922 -226.575,-61.775 -39.321,-10.414 -78.896,-20.3398 -117.625,-32.55 16.258,-11.1669 34.725,-18.8581 52.4,-27.575 47.863,-22.0753 96.238,-43.4519 146.05,-60.6 87.174,-29.2356 177.12,-49.0297 267.95,-62.95 44.24,-6.7913 88.825,-10.6959 133.45,-14.15 z"
         style="color:#000000;display:inline;overflow:visible;visibility:visible;fill:none;stroke:#0000ff;stroke-width:2.83464575;stroke-linecap:butt;stroke-linejoin:miter;stroke-miterlimit:4;stroke-dasharray:none;stroke-dashoffset:0;stroke-opacity:1;marker:none;enable-background:accumulate"
         inkscape:connector-curvature="0" />
      <path
         id="path16100"
         d="m 17659.412,-4762.7934 c 35.73,0.2142 71.158,5.4614 106.475,10.175 83.721,12.4988 166.955,29.2905 248.075,53.425 51.137,15.417 99.919,37.7695 148.725,59.2 27.457,12.7728 55.401,24.6632 81.55,39.925 3.398,1.8421 -4.007,2.1205 -5.225,3.2 -31.886,9.4538 -64.535,16.5499 -96.65,25.4 -83.134,21.8726 -166.084,44.4625 -249.15,66.6 -78.873,-79.3394 -158.989,-157.6077 -236.175,-238.425 -5.383,-5.8792 -11.713,-11.9973 -16.25,-18.025 5.994,-1.4992 12.415,-1.2903 18.625,-1.475 z"
         style="color:#000000;display:inline;overflow:visible;visibility:visible;fill:none;stroke:#0000ff;stroke-width:2.83464575;stroke-linecap:butt;stroke-linejoin:miter;stroke-miterlimit:4;stroke-dasharray:none;stroke-dashoffset:0;stroke-opacity:1;marker:none;enable-background:accumulate"
         inkscape:connector-curvature="0" />
      <path
         id="path16098"
         d="m 17595.162,-4723.4434 c 21.811,18.3058 41.612,39.0208 62.2,58.85 53.853,53.3141 107.629,107.0548 159.5,162.25 4.019,4.3783 8.067,8.733 11.75,13.4 -61.737,18.7766 -124.655,34.1971 -187.1,50.775 -15.43,61.3206 -29.55,123.0952 -48.075,183.525 -11.712,-35.8584 -18.38,-73.231 -27.375,-109.875 -5.623,-22.0389 -9.434,-44.882 -18.65,-65.7 -3.209,-7.8 -10.552,-13.0905 -18.8,-14.175 -37.335,-8.308 -74.162,-18.9149 -111.15,-28.65 -17.697,-4.8606 -35.458,-9.526 -52.975,-14.85 9.971,-15.7044 23.668,-29.0834 35.95,-43.1 48.525,-52.3163 99.82,-102.0435 150.875,-151.975 14.506,-13.6748 28.357,-27.8746 43.85,-40.475 z"
         style="color:#000000;display:inline;overflow:visible;visibility:visible;fill:none;stroke:#0000ff;stroke-width:2.83464575;stroke-linecap:butt;stroke-linejoin:miter;stroke-miterlimit:4;stroke-dasharray:none;stroke-dashoffset:0;stroke-opacity:1;marker:none;enable-background:accumulate"
         inkscape:connector-curvature="0" />
      <path
         id="path16096"
         d="m 18318.262,-4558.1684 c 5.992,3.3916 11.984,6.7833 17.975,10.175 42.88,26.4178 82.527,58.0382 121.75,89.775 51.215,41.9043 100.176,86.3896 144.45,135.575 47.111,52.0197 92.591,105.8128 133.525,162.85 8.73,13.2446 18.983,26.0417 24.225,41.225 1.603,3.4391 -2.749,1.8768 -4.55,1.9 -41.542,-6.3841 -81.954,-19.3317 -122.75,-29.625 -69.516,-18.4711 -139.059,-37.0081 -208.1,-57 -3.869,-2.038 -10.807,-1.0875 -12.75,-5 -13.832,-56.4431 -29.423,-112.4313 -44.4,-168.575 -16.607,-60.3915 -32.933,-120.8632 -49.375,-181.3 z"
         style="color:#000000;display:inline;overflow:visible;visibility:visible;fill:none;stroke:#0000ff;stroke-width:2.83464575;stroke-linecap:butt;stroke-linejoin:miter;stroke-miterlimit:4;stroke-dasharray:none;stroke-dashoffset:0;stroke-opacity:1;marker:none;enable-background:accumulate"
         inkscape:connector-curvature="0" />
      <path
         id="path16094"
         d="m 16866.362,-4554.9434 c -10.142,46.6806 -22.825,92.9128 -34.725,139.225 -16.128,61.9364 -33.304,123.5998 -50.375,185.275 l -6.275,23.7 c -107.83,30.8177 -216.041,60.3257 -324.8,87.7 -6.69,1.3605 -14.088,3.9238 -20.45,4.3 2.126,-11.0106 9.025,-20.4595 14.475,-30.0751 28.67,-43.7108 60.743,-85.2622 94.425,-125.3499 83.618,-98.7469 180.097,-187.1082 287.125,-259.925 13.302,-8.4242 26.578,-17.8737 40.6,-24.85 z"
         style="color:#000000;display:inline;overflow:visible;visibility:visible;fill:none;stroke:#0000ff;stroke-width:2.83464575;stroke-linecap:butt;stroke-linejoin:miter;stroke-miterlimit:4;stroke-dasharray:none;stroke-dashoffset:0;stroke-opacity:1;marker:none;enable-background:accumulate"
         inkscape:connector-curvature="0" />
      <path
         id="path16092"
         d="m 16925.387,-4545.5684 0.525,0.1 c 66.716,15.9393 133.108,33.7629 199.55,51.025 41.219,10.7671 82.29,22.1227 123.35,33.475 -46.993,45.8967 -93.717,92.0366 -140.375,138.275 17.089,60.4569 35.732,120.4989 50.7,181.4749 0.908,3.4676 -3.831,-2.4487 -5.25,-3.1749 -43.843,-41.1146 -83.619,-86.6843 -125.025,-130.5 -62.666,17.0087 -125.006,35.3235 -188.1,50.6749 -4.617,2.3269 -1.801,-2.9758 -1.575,-5.4749 23.146,-97.3159 51.441,-193.3218 76.2,-290.225 2.718,-8.741 4.943,-17.9834 10,-25.65 z"
         style="color:#000000;display:inline;overflow:visible;visibility:visible;fill:none;stroke:#0000ff;stroke-width:2.83464575;stroke-linecap:butt;stroke-linejoin:miter;stroke-miterlimit:4;stroke-dasharray:none;stroke-dashoffset:0;stroke-opacity:1;marker:none;enable-background:accumulate"
         inkscape:connector-curvature="0" />
      <path
         id="path16090"
         d="m 18257.337,-4543.5184 c 5.769,1.1139 8.133,8.0249 10.8,12.475 9.178,19.6294 11.71,41.3668 18,62 18.356,70.4718 39.431,140.2347 56.25,211.1 1.781,10.8077 5.868,21.9914 4,33 -1.422,2.5781 -5.229,-0.9416 -7.425,-0.8 -58.682,-15.7732 -117.496,-31.0207 -176.125,-47 -45.502,45.5222 -91.009,91.0401 -136.525,136.55 17.662,-60.0647 34.714,-120.3112 53.375,-180.075 -46.863,-47.9703 -93.935,-95.7012 -141.175,-143.3 81.58,-23.9478 163.785,-45.9198 245.975,-67.825 24.195,-5.8654 48.288,-12.7333 72.85,-16.125 z"
         style="color:#000000;display:inline;overflow:visible;visibility:visible;fill:none;stroke:#0000ff;stroke-width:2.83464575;stroke-linecap:butt;stroke-linejoin:miter;stroke-miterlimit:4;stroke-dasharray:none;stroke-dashoffset:0;stroke-opacity:1;marker:none;enable-background:accumulate"
         inkscape:connector-curvature="0" />
      <path
         id="path16088"
         d="m 17876.612,-4444.3184 69.125,67.7 c 17.807,18.3306 37.832,34.6217 53.25,55.05 9.83,12.7699 12.116,29.4942 9.6,45.0499 -5.217,33.032 -16.402,64.712 -25.35,96.8751 -12.469,42.9005 -25.203,85.7109 -37.8,128.575 -64.033,66.2475 -127.222,133.7064 -192.225,198.7 -15.549,15.1877 -30.702,30.8898 -47.35,44.8499 -28.768,-109.9159 -56.408,-220.1203 -84.15,-330.3 21.752,-84.7061 43.24,-169.4808 64.45,-254.3249 40.872,-12.1822 81.922,-23.5219 123.225,-34.25 22.414,-5.9509 44.815,-11.9553 67.225,-17.925 z"
         style="color:#000000;display:inline;overflow:visible;visibility:visible;fill:none;stroke:#0000ff;stroke-width:2.83464575;stroke-linecap:butt;stroke-linejoin:miter;stroke-miterlimit:4;stroke-dasharray:none;stroke-dashoffset:0;stroke-opacity:1;marker:none;enable-background:accumulate"
         inkscape:connector-curvature="0" />
      <path
         id="path16086"
         d="m 17317.437,-4442.4934 c 61.584,15.7819 123.026,32.2043 184.55,48.25 12.77,45.4466 23.119,91.5282 34.95,137.2249 9.947,39.4684 19.635,79.0062 29.475,118.5 -24.855,99.1259 -48.474,198.5547 -74.425,297.4 -2.948,10.7479 -5.628,21.634 -9.025,32.1751 -12.347,-7.5222 -22.078,-18.3881 -32.7,-28.0751 -64.29,-62.9232 -124.762,-129.8602 -186.975,-195.0249 -7.081,-7.8511 -15.034,-15.2127 -21.575,-23.3751 -24.601,-83.7296 -48.768,-167.476 -72.7,-251.4 35.742,-35.1561 70.194,-71.656 107.15,-105.3749 12.466,-10.536 24.377,-22.4956 39.15,-29.825 0.696,-0.2179 1.38,-0.4944 2.125,-0.475 z"
         style="color:#000000;display:inline;overflow:visible;visibility:visible;fill:none;stroke:#0000ff;stroke-width:2.83464575;stroke-linecap:butt;stroke-linejoin:miter;stroke-miterlimit:4;stroke-dasharray:none;stroke-dashoffset:0;stroke-opacity:1;marker:none;enable-background:accumulate"
         inkscape:connector-curvature="0" />
      <path
         id="path16084"
         d="m 18181.962,-4210.9684 c 28.686,5.7131 57.121,14.3407 85.55,21.8499 33.228,9.4472 66.709,18.1648 99.375,29.2251 2.932,1.5353 2.383,6.3115 3.975,9 18.48,60.1685 34.037,121.2484 50.55,182.025 -47.718,44.8441 -95.361,89.7683 -141.85,135.875 -16.227,15.6332 -32.447,31.2668 -48.675,46.9 -88.752,25.0108 -177.183,51.1848 -266.225,75.15 -19.682,5.0091 -39.26,10.7385 -59.2,14.4 2.522,-20.7149 8.904,-40.8816 13.825,-61.2 23.312,-87.8745 49.112,-175.0535 73.875,-262.525 47.817,-49.8957 94.511,-100.9974 143.5,-149.6501 14.7,-13.9934 28.561,-28.8857 44.925,-40.9 0.132,-0.033 0.235,-0.1492 0.375,-0.1499 z"
         style="color:#000000;display:inline;overflow:visible;visibility:visible;fill:none;stroke:#0000ff;stroke-width:2.83464575;stroke-linecap:butt;stroke-linejoin:miter;stroke-miterlimit:4;stroke-dasharray:none;stroke-dashoffset:0;stroke-opacity:1;marker:none;enable-background:accumulate"
         inkscape:connector-curvature="0" />
      <path
         id="path16082"
         d="m 17003.312,-4210.2684 c 8.054,3.4167 14.267,10.4167 21.025,15.8 56.734,51.2058 108.274,108.0619 161.75,162.875 4.066,4.4384 9.425,8.1308 9.925,14.625 28.941,102.0321 59.51,203.6304 85.95,306.3499 1.191,4.8595 2.377,9.6172 3.275,14.5 -17.188,-1.485 -33.854,-7.0736 -50.65,-11.1 -93.593,-25.4427 -186.544,-53.0329 -279.45,-80.9749 -47.973,-46.7549 -97.408,-91.9903 -143.5,-140.55 -13.566,-14.9447 -28.246,-29.2744 -39.55,-46.15 -1.53,-4.8146 1.294,-10.0936 1.75,-15.0251 11.31,-49.3102 24.737,-98.2659 39.625,-146.6249 2.534,-6.698 3.944,-14.3899 7.775,-20.325 22.627,-9.7656 46.765,-16.2993 70.35,-23.8 36.557,-10.7277 73.25,-21.6905 110.55,-29.475 0.352,-0.016 0.779,-0.1083 1.175,-0.125 z"
         style="color:#000000;display:inline;overflow:visible;visibility:visible;fill:none;stroke:#0000ff;stroke-width:2.83464575;stroke-linecap:butt;stroke-linejoin:miter;stroke-miterlimit:4;stroke-dasharray:none;stroke-dashoffset:0;stroke-opacity:1;marker:none;enable-background:accumulate"
         inkscape:connector-curvature="0" />
      <path
         id="path16080"
         d="m 16757.962,-4145.5684 -0.175,0.775 -0.05,0.1749 c -12.048,49.9095 -27.85,98.9148 -39.55,148.8751 -3.607,16.1494 -5.566,34.3716 3.325,49.15 11.59,19.0172 29.324,33.5076 44.675,49.425 26.389,26.3174 52.464,52.9301 78.725,79.375 -61.94,-18.0371 -123.89,-36.0425 -185.825,-54.1 -47.634,47.0645 -95.121,94.278 -142.4,141.7 -9.293,-48.3949 -22.478,-95.9315 -34.6,-143.675 -15.506,-59.4601 -32.283,-118.7065 -47.35,-178.2 7.927,-5.8601 18.075,-7.6717 27.225,-11.125 70.401,-21.4987 141.742,-40.0613 212.75,-59.6 27.762,-7.5573 55.479,-15.2537 83.25,-22.775 z"
         style="color:#000000;display:inline;overflow:visible;visibility:visible;fill:none;stroke:#0000ff;stroke-width:2.83464575;stroke-linecap:butt;stroke-linejoin:miter;stroke-miterlimit:4;stroke-dasharray:none;stroke-dashoffset:0;stroke-opacity:1;marker:none;enable-background:accumulate"
         inkscape:connector-curvature="0" />
      <path
         id="path16078"
         d="m 18436.387,-4140.2434 c 19.01,1.4551 37.336,7.6902 55.875,12.075 70.603,19.1359 141.253,38.0759 212.025,56.575 16.731,4.7159 33.628,8.8821 50,14.6 -4.949,31.9297 -15.024,62.9851 -23.225,94.2749 -20.025,72.9863 -39.4,146.1718 -58.5,219.4 -1.273,4.6624 -2.551,9.3128 -3.825,13.9751 -47.389,-47.6495 -95.116,-94.9277 -143.25,-141.825 -52.083,14.6573 -104.054,29.9608 -155.725,45.8499 -7.716,2.0899 -15.52,4.4017 -23.425,5.3751 35.188,-37.7056 73.933,-72.5684 111.05,-108.725 8.196,-7.8403 16.363,-15.7041 24.575,-23.525 -15.682,-59.6295 -32.068,-119.0715 -48.1,-178.6 0,-2.6766 -2.742,-6.2863 -1.125,-8.7 1.045,-0.717 2.423,-0.6623 3.65,-0.75 z"
         style="color:#000000;display:inline;overflow:visible;visibility:visible;fill:none;stroke:#0000ff;stroke-width:2.83464575;stroke-linecap:butt;stroke-linejoin:miter;stroke-miterlimit:4;stroke-dasharray:none;stroke-dashoffset:0;stroke-opacity:1;marker:none;enable-background:accumulate"
         inkscape:connector-curvature="0" />
      <path
         id="path16076"
         d="m 16381.337,-4036.8185 0.2,0.6501 c 23.401,84.4775 44.72,169.6775 67.9,254.275 7.71,28.8289 15.508,57.7228 23.275,86.4749 -12.083,16.7 -26.832,31.3834 -40.575,46.8501 -59.847,64.3884 -120.862,127.9895 -183.55,189.575 -10.064,9.4329 -19.604,19.4881 -30.675,27.7 -1.801,-15.3903 0.593,-31.1072 1.5,-46.55 6.341,-67.0117 15.051,-133.8116 27.475,-200 9.793,-48.1612 24.546,-95.184 40.1,-141.8 22.72,-66.1187 48.5,-131.3486 79.85,-193.9 4.468,-8.0035 8.262,-16.4108 14.5,-23.2751 z"
         style="color:#000000;display:inline;overflow:visible;visibility:visible;fill:none;stroke:#0000ff;stroke-width:2.83464575;stroke-linecap:butt;stroke-linejoin:miter;stroke-miterlimit:4;stroke-dasharray:none;stroke-dashoffset:0;stroke-opacity:1;marker:none;enable-background:accumulate"
         inkscape:connector-curvature="0" />
      <path
         id="path16074"
         d="m 18808.387,-4031.9934 c 5.553,2.5599 7.864,9.1805 11.2,13.9749 29.152,53.3544 51.441,110.5456 71.625,168.0251 31.237,90.9184 55.719,184.5077 67.625,280.1 5.253,42.772 10.793,85.7684 11.55,128.95 -0.217,2.8925 0.142,7.2335 -0.925,9.275 -33.479,-30.4509 -65.405,-63.0204 -97.75,-94.775 -53.129,-52.8968 -106.038,-106.0096 -159.075,-159 29.266,-110.2188 58.757,-220.3764 88.75,-330.4 2.009,-5.2979 2.218,-12.1504 6.6,-16.0751 0.134,-0.025 0.263,-0.084 0.4,-0.075 z"
         style="color:#000000;display:inline;overflow:visible;visibility:visible;fill:none;stroke:#0000ff;stroke-width:2.83464575;stroke-linecap:butt;stroke-linejoin:miter;stroke-miterlimit:4;stroke-dasharray:none;stroke-dashoffset:0;stroke-opacity:1;marker:none;enable-background:accumulate"
         inkscape:connector-curvature="0" />
      <path
         id="path16072"
         d="m 17595.937,-4015.1434 0.07,0.25 c 24.194,85.1663 44.14,171.6112 65.7,257.525 -23.317,23.2029 -46.476,46.5311 -69.424,70.1 -21.952,-22.8912 -43.91,-45.7721 -65.876,-68.6501 17.041,-66.4057 33.029,-133.0754 50.851,-199.2749 5.792,-20.1193 10.891,-40.5317 18.675,-59.95 z"
         style="color:#000000;display:inline;overflow:visible;visibility:visible;fill:none;stroke:#0000ff;stroke-width:2.83464575;stroke-linecap:butt;stroke-linejoin:miter;stroke-miterlimit:4;stroke-dasharray:none;stroke-dashoffset:0;stroke-opacity:1;marker:none;enable-background:accumulate"
         inkscape:connector-curvature="0" />
      <path
         id="path16070"
         d="m 17911.762,-3936.6684 c -6.566,31.3579 -16.428,62.0551 -25.075,92.9 -16.639,56.7783 -33.922,113.3645 -50.025,170.3 -27.33,7.1736 -54.037,17.4061 -82.275,19.9499 -5.332,1.4689 -6.787,-5.034 -8.9,-8.4499 -11.673,-24.4964 -16.493,-51.4065 -23.975,-77.375 59.896,-62.5252 118.83,-126.2691 179.9,-187.45 3.435,-3.3797 6.774,-6.7059 10.35,-9.875 z"
         style="color:#000000;display:inline;overflow:visible;visibility:visible;fill:none;stroke:#0000ff;stroke-width:2.83464575;stroke-linecap:butt;stroke-linejoin:miter;stroke-miterlimit:4;stroke-dasharray:none;stroke-dashoffset:0;stroke-opacity:1;marker:none;enable-background:accumulate"
         inkscape:connector-curvature="0" />
      <path
         id="path16068"
         d="m 17277.112,-3932.9185 c 10.546,6.2102 18.633,15.7147 27.625,23.9251 54.069,53.5209 106.847,108.7065 160.3,163.025 4.727,3.0811 -0.124,8.9267 -0.08,13.3499 -5.294,22.3732 -8.818,45.4381 -16.75,66.9251 -2.333,7.018 -8.758,12.6444 -16.35,11.9 -19.102,-1.2667 -37.791,-6.8887 -56.2,-11.8 -6.344,-2.2463 -13.655,-3.4461 -19.25,-6.9 -8.395,-16.3862 -13.216,-34.5582 -19.125,-52.1251 -17.06,-55.7359 -32.779,-111.9228 -49.175,-167.8749 -3.852,-13.3571 -8.452,-26.9663 -11,-40.4251 z"
         style="color:#000000;display:inline;overflow:visible;visibility:visible;fill:none;stroke:#0000ff;stroke-width:2.83464575;stroke-linecap:butt;stroke-linejoin:miter;stroke-miterlimit:4;stroke-dasharray:none;stroke-dashoffset:0;stroke-opacity:1;marker:none;enable-background:accumulate"
         inkscape:connector-curvature="0" />
      <path
         id="path16066"
         d="m 16674.237,-3811.3434 c 19.884,5.6165 39.767,11.2334 59.65,16.85 65.788,19.1017 131.614,38.57 197.5,57.525 69.452,67.8318 139.84,134.7417 208.275,203.525 11.084,11.5221 22.694,22.7069 33.05,34.9249 -72.098,20.706 -145.466,37.5495 -218.2,56.2 l -109.875,27.7 c -62.577,-15.7622 -125.448,-30.4153 -187.8,-47.0499 -22.394,-6.4974 -45.361,-12.0152 -66.4,-22.1501 -6.524,-2.5989 -6.184,-10.7224 -8.7,-16.2249 -16.069,-53.6187 -28.852,-108.2288 -43.475,-162.3 -1.295,-4.696 -3.929,-9.7612 1.675,-12.625 44.631,-45.6543 89.325,-91.0574 134.3,-136.375 z"
         style="color:#000000;display:inline;overflow:visible;visibility:visible;fill:none;stroke:#0000ff;stroke-width:2.83464575;stroke-linecap:butt;stroke-linejoin:miter;stroke-miterlimit:4;stroke-dasharray:none;stroke-dashoffset:0;stroke-opacity:1;marker:none;enable-background:accumulate"
         inkscape:connector-curvature="0" />
      <path
         id="path16064"
         d="m 18510.312,-3809.9185 c 23.751,23.2834 47.5,46.5668 71.25,69.8501 23.715,23.4222 47.506,47.0307 71.25,70.525 -14.084,51.3044 -26.629,103.0881 -42.1,153.95 -4.147,12.0181 -7.146,24.7191 -13.275,35.8 -25.234,8.8581 -51.511,14.6736 -77.425,21.65 -58.569,14.6868 -117.249,28.9557 -175.85,43.5249 -111.51,-27.6491 -222.938,-55.6116 -334.275,-83.9499 83.411,-79.5065 166.63,-159.2123 249.675,-239.1 83.585,-24.0801 167.169,-48.1617 250.75,-72.2501 z"
         style="color:#000000;display:inline;overflow:visible;visibility:visible;fill:none;stroke:#0000ff;stroke-width:2.83464575;stroke-linecap:butt;stroke-linejoin:miter;stroke-miterlimit:4;stroke-dasharray:none;stroke-dashoffset:0;stroke-opacity:1;marker:none;enable-background:accumulate"
         inkscape:connector-curvature="0" />
      <path
         id="path16062"
         d="m 18140.787,-3704.8934 c 1.678,0.3866 -1.226,3.3258 -1.625,4.35 -15.024,19.2807 -33.358,36.0128 -50.55,53.45 -45.322,44.4281 -91.049,88.4303 -136.55,132.6749 -26.196,-5.8102 -52.887,-9.7918 -78.45,-17.9499 -6.994,-2.0587 -14.244,-7.5124 -13.35,-15.625 1.487,-16.8807 8.162,-32.7347 12.625,-49.0251 3.483,-11.326 6.968,-22.6484 10.45,-33.9749 85.422,-24.6507 170.687,-49.7207 256.175,-73.775 0.424,-0.049 0.847,-0.1277 1.275,-0.125 z"
         style="color:#000000;display:inline;overflow:visible;visibility:visible;fill:none;stroke:#0000ff;stroke-width:2.83464575;stroke-linecap:butt;stroke-linejoin:miter;stroke-miterlimit:4;stroke-dasharray:none;stroke-dashoffset:0;stroke-opacity:1;marker:none;enable-background:accumulate"
         inkscape:connector-curvature="0" />
      <path
         id="path16060"
         d="m 17052.087,-3702.9185 c 0.07,-0.013 0.159,0 0.275,0.025 27.174,7.0063 54.21,15.2713 81.325,22.7749 57.403,16.1457 114.533,33.1104 171.8,49.8251 7.909,27.7521 18.433,54.9641 22.675,83.55 0.418,3.4963 1.184,8.2757 -3.1,9.65 -22.289,11.1181 -47.738,13.1307 -71.825,18.8749 -5.011,1.0334 -10.013,2.068 -15.025,3.1 -52.832,-51.992 -106.854,-103.189 -159.425,-155.3249 -9.212,-9.9453 -19.835,-19.2311 -26.55,-31.1 -0.05,-0.3285 -0.627,-1.2787 -0.15,-1.3751 z"
         style="color:#000000;display:inline;overflow:visible;visibility:visible;fill:none;stroke:#0000ff;stroke-width:2.83464575;stroke-linecap:butt;stroke-linejoin:miter;stroke-miterlimit:4;stroke-dasharray:none;stroke-dashoffset:0;stroke-opacity:1;marker:none;enable-background:accumulate"
         inkscape:connector-curvature="0" />
      <path
         id="path16058"
         d="m 17674.412,-3691.0434 c 0.04,-0.013 0.07,-0.014 0.1,0 0.04,0.016 0.07,0.063 0.1,0.1249 9.49,19.4704 13.621,40.9699 19.3,61.7751 2.587,10.0353 5.164,20.0646 7.75,30.1 -30.594,52.7292 -60.866,105.6667 -92.45,157.8 -0.572,-59.3401 0.861,-118.6837 1,-178.025 -1.618,-6.671 5.232,-10.0601 8.6,-14.8 17.85,-19.1689 34.04,-40.3769 54.7,-56.3501 0.22,0.1363 0.624,-0.5315 0.9,-0.6249 z"
         style="color:#000000;display:inline;overflow:visible;visibility:visible;fill:none;stroke:#0000ff;stroke-width:2.83464575;stroke-linecap:butt;stroke-linejoin:miter;stroke-miterlimit:4;stroke-dasharray:none;stroke-dashoffset:0;stroke-opacity:1;marker:none;enable-background:accumulate"
         inkscape:connector-curvature="0" />
      <path
         id="path16056"
         d="m 17509.587,-3686.8185 c 9.818,3.5413 17.346,11.5114 25.325,18.0251 15.458,13.9721 30.029,29.0914 45.1,43.6 l 0,186.3749 c -30.607,-52.3976 -61.071,-104.8796 -91.425,-157.4249 6.299,-30.1572 10.75,-60.8822 20.625,-90.0751 0.118,-0.1848 0.209,-0.4057 0.375,-0.5 z"
         style="color:#000000;display:inline;overflow:visible;visibility:visible;fill:none;stroke:#0000ff;stroke-width:2.83464575;stroke-linecap:butt;stroke-linejoin:miter;stroke-miterlimit:4;stroke-dasharray:none;stroke-dashoffset:0;stroke-opacity:1;marker:none;enable-background:accumulate"
         inkscape:connector-curvature="0" />
      <path
         id="path16054"
         d="m 18699.187,-3619.4434 c 0.05,0 0.112,0.012 0.175,0.075 26.606,23.0846 51.506,48.8899 76.925,73.5 53.331,52.8991 106.292,106.1527 159.45,159.225 -67.509,67.0361 -133.902,135.3014 -202.75,200.8 -11.751,10.7297 -22.877,22.1018 -35.675,31.575 -9.08,-26.3525 -15.497,-54.029 -23,-81.075 -8.891,-32.7766 -16.901,-65.8456 -28.85,-97.6 -1.103,-3.8657 -3.71,-7.1553 -7.925,-7.6751 -55.526,-16.6796 -113.063,-26.6282 -168.025,-45.1749 -4.647,-1.0694 2.117,-2.1926 3.8,-3.075 54.65,-17.7602 111.639,-27.7393 166.55,-44.575 5.416,-1.8367 5.814,-8.7924 8.125,-13.225 19.952,-56.026 29.838,-115.2544 50.3,-171 0.291,-0.3026 0.514,-1.7477 0.9,-1.775 z"
         style="color:#000000;display:inline;overflow:visible;visibility:visible;fill:none;stroke:#0000ff;stroke-width:2.83464575;stroke-linecap:butt;stroke-linejoin:miter;stroke-miterlimit:4;stroke-dasharray:none;stroke-dashoffset:0;stroke-opacity:1;marker:none;enable-background:accumulate"
         inkscape:connector-curvature="0" />
      <path
         id="path16052"
         d="m 16491.437,-3614.9684 c 9.481,22.5131 15.224,46.3639 21.775,69.8499 7.643,27.926 12.907,56.6399 22.8,83.8501 4.503,12.7441 13.406,24.4451 26.175,29.8499 23.364,10.0103 48.99,13.5527 73.375,20.6501 27.458,7.483 55.122,14.4949 82.45,22.2499 -17.535,8.6417 -36.808,13.3738 -55.475,18.9751 -38.937,10.8075 -78.505,19.6512 -116.875,32.3249 -3.658,2.209 -3.333,7.7167 -5.175,11.2251 -15.073,49.6192 -28.993,99.9385 -40.925,150.35 -2.214,6.6692 -4.133,14.1208 -8.725,19.4249 -15.725,-10.523 -28.969,-24.2894 -43.075,-36.9499 -50.246,-47.3757 -97.926,-97.4174 -146.975,-146.2 -15.427,-15.5205 -30.848,-31.0296 -46.275,-46.5501 51.92,-52.0347 103.557,-104.5372 155.55,-156.3 24.82,-23.9804 49.35,-48.5538 76.5,-69.8749 1.522,-0.8955 3.142,-2.5047 4.875,-2.875 z"
         style="color:#000000;display:inline;overflow:visible;visibility:visible;fill:none;stroke:#0000ff;stroke-width:2.83464575;stroke-linecap:butt;stroke-linejoin:miter;stroke-miterlimit:4;stroke-dasharray:none;stroke-dashoffset:0;stroke-opacity:1;marker:none;enable-background:accumulate"
         inkscape:connector-curvature="0" />
      <path
         id="path16050"
         d="m 17817.037,-3612.0185 c -1.771,18.4457 -7.388,36.4086 -12.1,54.3501 -4.16,13.4029 -7.333,27.5099 -14.075,39.925 -14.535,10.9544 -30.918,19.462 -46.425,29.0249 -35.697,20.7392 -71.318,41.7784 -108.025,60.6 -1.866,0.3329 2.014,-5.0052 2.6,-6.9499 25.687,-50.3232 54.522,-99.0558 82.525,-148.175 31.689,-10.1049 63.175,-21.0395 95.5,-28.7751 z"
         style="color:#000000;display:inline;overflow:visible;visibility:visible;fill:none;stroke:#0000ff;stroke-width:2.83464575;stroke-linecap:butt;stroke-linejoin:miter;stroke-miterlimit:4;stroke-dasharray:none;stroke-dashoffset:0;stroke-opacity:1;marker:none;enable-background:accumulate"
         inkscape:connector-curvature="0" />
      <path
         id="path16048"
         d="m 17372.712,-3611.7934 c 10.123,2.3787 20.133,6.4869 30.3,9.225 20.659,6.242 41.47,11.9556 62.225,17.9499 30.645,52.3363 60.975,104.8539 91.3,157.3751 -20.265,-7.6605 -38.568,-20.136 -57.75,-30.3 -25.562,-14.8204 -51.782,-28.1476 -76.4,-44.425 -15.243,-9.9326 -27.215,-24.4501 -33.125,-41.775 -7.411,-21.1981 -14.007,-42.7751 -19.4,-64.5751 -1.084,-2.4905 0.555,-3.547 2.85,-3.4749 z"
         style="color:#000000;display:inline;overflow:visible;visibility:visible;fill:none;stroke:#0000ff;stroke-width:2.83464575;stroke-linecap:butt;stroke-linejoin:miter;stroke-miterlimit:4;stroke-dasharray:none;stroke-dashoffset:0;stroke-opacity:1;marker:none;enable-background:accumulate"
         inkscape:connector-curvature="0" />
      <path
         id="path16046"
         d="m 17805.237,-3492.7934 c 5.022,-0.016 27.17,4.7424 51.2,10.75 l 47,12.1 -34.9,34.9 -34.875,34.875 -94.7,-2.125 -95.425,-2.15 31.35,-16.3751 c 17.089,-8.5441 51.968,-28.4725 77.6,-43.4249 25.633,-15.6643 49.127,-28.4751 51.975,-28.4751 0.178,-0.044 0.441,-0.074 0.775,-0.075 z"
         style="color:#000000;display:inline;overflow:visible;visibility:visible;fill:none;stroke:#0000ff;stroke-width:2.83464575;stroke-linecap:butt;stroke-linejoin:miter;stroke-miterlimit:4;stroke-dasharray:none;stroke-dashoffset:0;stroke-opacity:1;marker:none;enable-background:accumulate"
         inkscape:connector-curvature="0" />
      <path
         id="path16044"
         d="m 17377.187,-3491.1185 c 13.728,3.2045 26.221,10.8361 38.925,16.9501 40.161,20.9905 78.664,45.2935 117.85,68.2499 -59.392,1.3881 -118.783,2.762 -178.175,4.1251 -23.586,-21.7727 -47.184,-43.5331 -70.8,-65.275 29.79,-8.1285 58.98,-18.9978 89.45,-23.9 0.913,-0.08 1.836,-0.181 2.75,-0.1501 z"
         style="color:#000000;display:inline;overflow:visible;visibility:visible;fill:none;stroke:#0000ff;stroke-width:2.83464575;stroke-linecap:butt;stroke-linejoin:miter;stroke-miterlimit:4;stroke-dasharray:none;stroke-dashoffset:0;stroke-opacity:1;marker:none;enable-background:accumulate"
         inkscape:connector-curvature="0" />
      <path
         id="path16042"
         d="m 17220.512,-3453.4434 c 0.565,-0.021 1.111,0 1.65,0.075 11.449,10.9984 22.902,22.0013 34.35,33 11.491,11.2065 22.948,22.4891 34.425,33.725 -23.129,22.6788 -46.263,45.3541 -69.4,68.0249 -78.004,-20.2007 -156.713,-38.0886 -233.7,-61.8249 -7.722,-2.6103 -15.579,-4.8213 -22.925,-8.2751 80.703,-21.6093 162.087,-41.1768 243.1,-61.8 4.065,-0.5904 8.556,-2.7778 12.5,-2.9249 z"
         style="color:#000000;display:inline;overflow:visible;visibility:visible;fill:none;stroke:#0000ff;stroke-width:2.83464575;stroke-linecap:butt;stroke-linejoin:miter;stroke-miterlimit:4;stroke-dasharray:none;stroke-dashoffset:0;stroke-opacity:1;marker:none;enable-background:accumulate"
         inkscape:connector-curvature="0" />
      <path
         id="path16040"
         d="m 17972.512,-3450.7185 c 14.953,0 245.629,57.666 251.325,62.6501 2.849,2.8477 -54.098,19.9495 -126.725,37.7499 l -131.025,32.0501 -37.725,-34.2 -37.025,-34.175 35.6,-32.025 c 19.225,-17.8009 39.879,-32.0501 45.575,-32.0501 z"
         style="color:#000000;display:inline;overflow:visible;visibility:visible;fill:none;stroke:#0000ff;stroke-width:2.83464575;stroke-linecap:butt;stroke-linejoin:miter;stroke-miterlimit:4;stroke-dasharray:none;stroke-dashoffset:0;stroke-opacity:1;marker:none;enable-background:accumulate"
         inkscape:connector-curvature="0" />
      <path
         id="path16038"
         d="m 17362.912,-3377.1934 91.225,1.425 c 23.843,0.7679 47.965,-0.6277 71.6,2.625 1.987,0.4085 7.346,1.4481 4.875,4.475 -8.687,9.4079 -20.87,14.8731 -31.625,21.7499 -38.843,22.2236 -78.068,44.49 -117.025,66.8 -33.068,-7.6962 -66.068,-15.6653 -98.975,-24.0249 26.635,-24.3579 53.278,-48.7073 79.925,-73.05 z"
         style="color:#000000;display:inline;overflow:visible;visibility:visible;fill:none;stroke:#0000ff;stroke-width:2.83464575;stroke-linecap:butt;stroke-linejoin:miter;stroke-miterlimit:4;stroke-dasharray:none;stroke-dashoffset:0;stroke-opacity:1;marker:none;enable-background:accumulate"
         inkscape:connector-curvature="0" />
      <path
         id="path16036"
         d="m 17738.962,-3372.3934 96.125,0 34.175,34.9 c 37.737,38.4489 39.879,34.8856 -28.475,50.55 -32.04,7.1202 -39.164,6.4043 -60.525,-5.7 -13.528,-7.8323 -48.432,-27.7736 -77.625,-44.15 -29.192,-16.3763 -54.826,-31.326 -56.25,-32.75 -1.424,-1.4241 39.886,-2.85 92.575,-2.85 z"
         style="color:#000000;display:inline;overflow:visible;visibility:visible;fill:none;stroke:#0000ff;stroke-width:2.83464575;stroke-linecap:butt;stroke-linejoin:miter;stroke-miterlimit:4;stroke-dasharray:none;stroke-dashoffset:0;stroke-opacity:1;marker:none;enable-background:accumulate"
         inkscape:connector-curvature="0" />
      <path
         id="path16034"
         d="m 18340.237,-3359.4434 c 0.603,-0.011 1.207,0.055 1.8,0.1 39.839,6.6859 78.997,16.9533 118.375,26.0249 46.539,11.5747 93.604,22.2352 139.275,36.4251 4.846,0.5461 6.215,5.3365 7.175,9.45 17.855,61.2119 33.174,123.2507 49.975,184.8 -48.488,48.022 -97.003,96.0113 -145.475,144.05 -72.403,-20.8024 -144.445,-42.5627 -217.2,-62 -30.572,-7.3739 -54.103,-29.7975 -76.8,-50.275 -72.064,-67.4877 -141.934,-137.3762 -212.5,-206.475 65.264,-16.4328 130.502,-33.0111 195.8,-49.3 46.256,-11.1926 92.327,-23.4012 138.975,-32.75 0.198,-0.026 0.4,-0.046 0.6,-0.05 z"
         style="color:#000000;display:inline;overflow:visible;visibility:visible;fill:none;stroke:#0000ff;stroke-width:2.83464575;stroke-linecap:butt;stroke-linejoin:miter;stroke-miterlimit:4;stroke-dasharray:none;stroke-dashoffset:0;stroke-opacity:1;marker:none;enable-background:accumulate"
         inkscape:connector-curvature="0" />
      <path
         id="path16032"
         d="m 16836.162,-3355.8434 c 25.78,3.9273 51.164,10.6244 76.7,16.2 82.124,19.242 164.222,38.6633 245.7,60.5 4.636,1.3972 9.962,2.5213 14.15,4.4 -23.763,26.6613 -49.724,51.4692 -75,76.7249 -55.46,54.3646 -111.372,108.2562 -167.025,162.4251 -62.602,17.8218 -124.825,36.9133 -187.7,53.625 -22.589,5.4484 -45.076,12.0094 -68.325,13.775 -6.069,0.4878 -9.491,-5.9022 -13.875,-8.85 -35.974,-33.8286 -70.674,-69.3583 -103.925,-105.9 -5.221,-6.9545 -13.413,-12.4817 -14.775,-21.55 -1.174,-17.0307 4.252,-33.7755 7.65,-50.3251 11.576,-47.1825 23.889,-94.1844 39.85,-140.0749 68.365,-17.9771 137.203,-34.0838 205.425,-52.6 13.611,-3.2301 27.222,-7.1092 41.15,-8.35 z"
         style="color:#000000;display:inline;overflow:visible;visibility:visible;fill:none;stroke:#0000ff;stroke-width:2.83464575;stroke-linecap:butt;stroke-linejoin:miter;stroke-miterlimit:4;stroke-dasharray:none;stroke-dashoffset:0;stroke-opacity:1;marker:none;enable-background:accumulate"
         inkscape:connector-curvature="0" />
      <path
         id="path16030"
         d="m 17631.987,-3349.3434 c 2.522,-0.2239 13.442,5.0738 26.525,12.55 14.241,8.5442 51.259,29.8995 81.875,47.7 29.905,17.8004 54.825,32.038 54.825,32.75 0,0.712 6.393,23.5054 14.225,49.85 9.257,33.4648 10.697,47.7111 5,45.5749 -4.984,-1.4239 -25.626,-7.1288 -46.275,-12.8249 -20.648,-4.9841 -41.304,-14.2289 -47,-19.925 -10.68,-13.5284 -89.725,-148.8169 -89.725,-155.225 0,-0.2671 0.19,-0.418 0.55,-0.45 z"
         style="color:#000000;display:inline;overflow:visible;visibility:visible;fill:none;stroke:#0000ff;stroke-width:2.83464575;stroke-linecap:butt;stroke-linejoin:miter;stroke-miterlimit:4;stroke-dasharray:none;stroke-dashoffset:0;stroke-opacity:1;marker:none;enable-background:accumulate"
         inkscape:connector-curvature="0" />
      <path
         id="path16028"
         d="m 17557.462,-3348.4185 -0.1,0.2751 c -10.448,18.0759 -21.411,35.8961 -31.7,54.1 -20.429,35.0033 -40.46,70.2148 -60.5,105.45 -31.063,9.0949 -61.868,19.8754 -93.75,25.525 -1.594,-0.6829 0.466,-4.513 0.35,-6.2501 6.895,-30.3521 17.614,-59.7974 26.225,-89.7749 1.819,-4.3711 8.114,-5.1242 11.75,-8.0251 49.342,-26.9007 98.014,-55.2361 147.725,-81.3 z"
         style="color:#000000;display:inline;overflow:visible;visibility:visible;fill:none;stroke:#0000ff;stroke-width:2.83464575;stroke-linecap:butt;stroke-linejoin:miter;stroke-miterlimit:4;stroke-dasharray:none;stroke-dashoffset:0;stroke-opacity:1;marker:none;enable-background:accumulate"
         inkscape:connector-curvature="0" />
      <path
         id="path16026"
         d="m 18969.587,-3341.6934 0.05,0.2749 c 1.763,19.3228 -0.762,38.9378 -1.975,58.3 -4.782,52.8403 -10.468,105.6552 -20.725,157.7501 -10.253,48.0736 -22.145,96.0216 -36.275,143.1 -20.698,63.7383 -45.15,126.5379 -72.775,187.6499 -7.888,16.1104 -14.772,33.0298 -25.65,47.4251 -0.94,1.7347 -2.87,2.5801 -3.725,0.35 -7.792,-14.7451 -11.305,-31.3599 -16.4,-47.2 -27.684,-97.5301 -53.315,-195.7727 -79.475,-293.7751 80.71,-80.3093 160.386,-161.6209 242.375,-240.5499 4.78,-4.432 9.564,-9.1423 14.575,-13.325 z"
         style="color:#000000;display:inline;overflow:visible;visibility:visible;fill:none;stroke:#0000ff;stroke-width:2.83464575;stroke-linecap:butt;stroke-linejoin:miter;stroke-miterlimit:4;stroke-dasharray:none;stroke-dashoffset:0;stroke-opacity:1;marker:none;enable-background:accumulate"
         inkscape:connector-curvature="0" />
      <path
         id="path16024"
         d="m 16219.412,-3339.5934 c 5.096,2.5112 8.557,7.8337 13.05,11.425 55.327,54.0519 109.612,109.186 163.4,164.775 24.223,25.9128 49.221,51.4184 70.325,79.85 2.452,3.7538 6.167,7.9708 3.625,12.7249 -20.647,83.8959 -43.089,167.3531 -65.475,250.8 -7.873,29.261 -16.213,58.3804 -24.325,87.5751 -21.477,-42.3026 -42.484,-84.6804 -59.95,-128.8 -58.547,-145.6695 -90.397,-301.233 -102.55,-457.4751 0.09,-6.818 -1.513,-14.4736 1.6,-20.7749 0.106,-0.064 0.172,-0.075 0.3,-0.1 z"
         style="color:#000000;display:inline;overflow:visible;visibility:visible;fill:none;stroke:#0000ff;stroke-width:2.83464575;stroke-linecap:butt;stroke-linejoin:miter;stroke-miterlimit:4;stroke-dasharray:none;stroke-dashoffset:0;stroke-opacity:1;marker:none;enable-background:accumulate"
         inkscape:connector-curvature="0" />
      <path
         id="path16022"
         d="m 17607.362,-3333.3684 c 28.821,42.7558 53.579,88.0703 80.125,132.2499 4.727,8.0211 9.448,16.0542 14.175,24.0751 -7.782,31.2389 -13.199,63.4015 -26.4,92.875 -1.186,4.2499 -4.573,-0.7618 -6.55,-1.8 -22.98,-19.9153 -42.868,-43.6317 -64.15,-65.625 0.416,-57.7285 -1.168,-115.5184 1.725,-173.2 0.292,-2.7435 0.241,-6.3244 1.075,-8.575 z"
         style="color:#000000;display:inline;overflow:visible;visibility:visible;fill:none;stroke:#0000ff;stroke-width:2.83464575;stroke-linecap:butt;stroke-linejoin:miter;stroke-miterlimit:4;stroke-dasharray:none;stroke-dashoffset:0;stroke-opacity:1;marker:none;enable-background:accumulate"
         inkscape:connector-curvature="0" />
      <path
         id="path16020"
         d="m 17576.562,-3328.9934 2.025,86.925 2.1,92.625 c -21.412,20.6989 -41.305,43.2231 -64.5,61.7249 -1.592,0.9968 -4.072,3.7537 -4.525,0.2501 -10.497,-28.5176 -17.629,-58.1929 -25.875,-87.475 30.753,-51.0607 60.872,-102.4859 90.775,-154.05 z"
         style="color:#000000;display:inline;overflow:visible;visibility:visible;fill:none;stroke:#0000ff;stroke-width:2.83464575;stroke-linecap:butt;stroke-linejoin:miter;stroke-miterlimit:4;stroke-dasharray:none;stroke-dashoffset:0;stroke-opacity:1;marker:none;enable-background:accumulate"
         inkscape:connector-curvature="0" />
      <path
         id="path16018"
         d="m 17243.537,-3256.1684 c 21.404,1.5927 42.208,7.863 62.675,14.075 7.593,2.9123 16.27,4.7069 22.55,9.9 0.01,12.5512 -4.434,24.8599 -7.4,36.95 -5.23,17.3477 -10.131,34.8215 -15.175,52.25 -65.173,18.6735 -130.278,37.9184 -195.325,56.8 -21.554,6.4197 -43.144,12.7937 -65.1,17.825 29.088,-32.3938 60.701,-62.3809 91.925,-92.825 32.949,-31.2436 65.726,-62.7922 100.85,-91.5251 1.62,-1.2282 3.222,-2.4992 5,-3.4499 z"
         style="color:#000000;display:inline;overflow:visible;visibility:visible;fill:none;stroke:#0000ff;stroke-width:2.83464575;stroke-linecap:butt;stroke-linejoin:miter;stroke-miterlimit:4;stroke-dasharray:none;stroke-dashoffset:0;stroke-opacity:1;marker:none;enable-background:accumulate"
         inkscape:connector-curvature="0" />
      <path
         id="path16016"
         d="m 17938.912,-3255.7185 c 0.688,-0.017 1.325,-0.011 1.925,0 0.641,0.012 1.216,0.056 1.75,0.1 9.257,0 51.277,36.3007 108.95,92.5501 51.266,50.553 91.837,92.563 91.125,93.275 -1.424,1.4241 -60.523,-14.2387 -131.725,-34.175 l -128.875,-37.025 -14.225,-46.275 c -7.832,-25.6327 -12.812,-47.0009 -12.1,-48.425 0.712,-1.424 17.788,-6.391 36.3,-11.375 16.897,-5.0066 36.563,-8.3914 46.875,-8.6501 z"
         style="color:#000000;display:inline;overflow:visible;visibility:visible;fill:none;stroke:#0000ff;stroke-width:2.83464575;stroke-linecap:butt;stroke-linejoin:miter;stroke-miterlimit:4;stroke-dasharray:none;stroke-dashoffset:0;stroke-opacity:1;marker:none;enable-background:accumulate"
         inkscape:connector-curvature="0" />
      <path
         id="path16014"
         d="m 17753.437,-3122.6185 c 7.927,0.06 21.464,3.6382 46.05,10.8251 l 38.45,10.6749 17.8,61.9501 c 9.969,34.1767 26.332,89.0102 36.3,122.475 9.969,33.4648 19.239,66.9178 21.375,74.75 2.137,7.8321 -40.599,-32.0256 -95.425,-88.2751 l -98.975,-102.5499 9.975,-36.3 c 5.697,-19.9365 11.402,-40.5909 12.825,-45.575 2.003,-5.3402 4.631,-8.0272 11.625,-7.9751 z"
         style="color:#000000;display:inline;overflow:visible;visibility:visible;fill:none;stroke:#0000ff;stroke-width:2.83464575;stroke-linecap:butt;stroke-linejoin:miter;stroke-miterlimit:4;stroke-dasharray:none;stroke-dashoffset:0;stroke-opacity:1;marker:none;enable-background:accumulate"
         inkscape:connector-curvature="0" />
      <path
         id="path16012"
         d="m 17432.812,-3120.1434 c 6.266,-0.1311 12.041,4.0253 14.125,9.9 5.852,15.1927 9.525,31.278 12.775,47.2249 2.918,14.1088 -0.143,29.0469 -8.2,40.9751 -16.285,24.6778 -37.746,44.9888 -57.8,66.5249 -37.122,38.29 -74.153,76.9754 -113.55,112.5751 -4.416,5.1051 -1.55,-2.3021 -1.05,-5.15 7.643,-29.9299 17.215,-59.2923 25.3,-89.15 15.295,-54.29 30.907,-108.3999 47.825,-162.2 18.062,-7.1735 37.215,-11.2149 55.925,-16.525 7.702,-1.8429 15.442,-3.8957 23.4,-4.1 0.421,-0.048 0.833,-0.066 1.25,-0.075 z"
         style="color:#000000;display:inline;overflow:visible;visibility:visible;fill:none;stroke:#0000ff;stroke-width:2.83464575;stroke-linecap:butt;stroke-linejoin:miter;stroke-miterlimit:4;stroke-dasharray:none;stroke-dashoffset:0;stroke-opacity:1;marker:none;enable-background:accumulate"
         inkscape:connector-curvature="0" />
      <path
         id="path16010"
         d="m 17591.612,-3085.2934 c 11.718,11.4834 23.433,22.9666 35.15,34.45 11.649,11.6417 23.301,23.2837 34.95,34.9249 -20.961,84.2806 -41.624,168.6581 -63.875,252.6 -0.745,1.3691 -1.056,4.7923 -2.625,4.9251 -6.026,-9.6887 -7.946,-21.3638 -11.425,-32.1 -14.811,-54.8992 -28.466,-110.0983 -42.2,-165.275 -3.863,-18.6059 -9.667,-37.7051 -7.075,-56.8501 3.189,-18.3753 18.832,-30.7051 30.425,-44.0499 8.757,-9.6478 17.777,-19.0849 26.675,-28.625 z"
         style="color:#000000;display:inline;overflow:visible;visibility:visible;fill:none;stroke:#0000ff;stroke-width:2.83464575;stroke-linecap:butt;stroke-linejoin:miter;stroke-miterlimit:4;stroke-dasharray:none;stroke-dashoffset:0;stroke-opacity:1;marker:none;enable-background:accumulate"
         inkscape:connector-curvature="0" />
      <path
         id="path16008"
         d="m 17906.187,-3080.0684 c 2.375,-0.042 5.88,0.8927 10.775,2.4499 9.257,2.1364 33.476,9.266 52.7,14.2501 19.937,5.6961 86.855,24.8991 148.8,42.7 l 113.925,32.775 60.525,59.0749 c 33.465,32.7531 76.901,74.0492 96.125,91.8501 l 34.875,32.0499 -26.35,94.7 c -14.24,52.6892 -27.051,96.126 -28.475,97.5501 -1.424,1.4238 -44.847,14.2346 -96.825,28.475 l -94.7,26.35 -93.275,-96.825 -93.275,-96.125 -27.775,-98.975 c -14.952,-54.8255 -33.467,-119.6173 -41.3,-145.2501 -7.12,-25.6325 -14.952,-55.5326 -17.8,-66.9249 -2.937,-13.2168 -3.174,-18.0332 2.05,-18.125 z"
         style="color:#000000;display:inline;overflow:visible;visibility:visible;fill:none;stroke:#0000ff;stroke-width:2.83464575;stroke-linecap:butt;stroke-linejoin:miter;stroke-miterlimit:4;stroke-dasharray:none;stroke-dashoffset:0;stroke-opacity:1;marker:none;enable-background:accumulate"
         inkscape:connector-curvature="0" />
      <path
         id="path16006"
         d="m 17284.112,-3077.2185 c 1.824,-0.027 4.298,0.4876 3.2,2.8501 -22.064,72.2187 -41.535,145.3561 -62.65,217.925 -10.145,35.4362 -20.279,70.8638 -30.425,106.3 -60.982,63.4306 -122.096,126.7033 -183.45,189.775 -60.011,-16.0102 -120.559,-30.5319 -179.575,-49.725 -5.952,-1.3403 -6.594,-8.9103 -9.35,-13.4 -16.396,-41.2163 -29.145,-83.8967 -40.85,-126.675 -3.72,-15.3575 -8.598,-30.682 -9.4,-46.5 7.551,-12.632 18.457,-22.9791 28.125,-34 46.05,-49.1246 94.236,-96.4717 144.15,-141.6 16.636,-11.1849 36.206,-16.9402 54.85,-23.9 69.013,-23.3638 139.56,-42.4289 209.525,-62.725 24.046,-6.4179 47.949,-14.2982 72.5,-18.1 0.878,-0.05 1.743,-0.1895 2.625,-0.175 0.222,-0.022 0.466,-0.046 0.725,-0.05 z"
         style="color:#000000;display:inline;overflow:visible;visibility:visible;fill:none;stroke:#0000ff;stroke-width:2.83464575;stroke-linecap:butt;stroke-linejoin:miter;stroke-miterlimit:4;stroke-dasharray:none;stroke-dashoffset:0;stroke-opacity:1;marker:none;enable-background:accumulate"
         inkscape:connector-curvature="0" />
      <path
         id="path16004"
         d="m 16516.687,-3043.0684 69.825,69.825 72.575,72.575 c 61.6,-18.2417 123.234,-36.0088 185.075,-53.4 -45.287,45.2707 -90.541,90.5752 -135.85,135.825 13.455,55.0866 27.852,110.0241 43.1,164.575 1.577,8.1772 4.982,16.9456 3.35,25.1499 -3.819,-0.1557 -8.354,-2.4568 -12.375,-3.1749 -93.34,-26.0994 -187.502,-49.5542 -280.55,-76.5 -8.96,-3.2368 -18.882,-4.8184 -26.65,-10.5251 -1.87,-3.5845 1.635,-7.855 1.775,-11.6 24.915,-95.3694 52.151,-190.172 74.325,-286.2249 1.802,-8.8377 3.598,-17.6874 5.4,-26.525 z"
         style="color:#000000;display:inline;overflow:visible;visibility:visible;fill:none;stroke:#0000ff;stroke-width:2.83464575;stroke-linecap:butt;stroke-linejoin:miter;stroke-miterlimit:4;stroke-dasharray:none;stroke-dashoffset:0;stroke-opacity:1;marker:none;enable-background:accumulate"
         inkscape:connector-curvature="0" />
      <path
         id="path16002"
         d="m 18668.112,-3039.9684 0.275,0.675 c 15.099,48.1325 27.201,97.2822 40.475,146 12.502,48.036 26.131,95.7583 38.5,143.825 2.581,11.2303 5.721,22.4945 6.925,33.925 -32.352,9.954 -65.368,18.3859 -98.125,27.2249 -63.558,16.2664 -126.858,33.4876 -190.3,50.1751 -10.623,2.1271 -21.554,6.1634 -32.35,4.95 -3.137,-1.5049 0.206,-5.7062 0.1,-8.1 16.098,-59.9256 32.535,-119.7688 48.35,-179.775 -39.61,-38.3654 -80.246,-75.9117 -119.025,-114.925 -5.666,-5.8033 -11.411,-11.6239 -16.625,-17.775 21.09,3.8615 41.111,12.563 61.9,18.1 39.599,11.8542 79.574,22.5195 119.425,33.575 44.531,-44.5473 88.071,-90.4677 134.4,-132.9251 1.95,-1.6237 3.918,-3.474 6.075,-4.9499 z"
         style="color:#000000;display:inline;overflow:visible;visibility:visible;fill:none;stroke:#0000ff;stroke-width:2.83464575;stroke-linecap:butt;stroke-linejoin:miter;stroke-miterlimit:4;stroke-dasharray:none;stroke-dashoffset:0;stroke-opacity:1;marker:none;enable-background:accumulate"
         inkscape:connector-curvature="0" />
      <path
         id="path16000"
         d="m 17708.337,-2966.5434 c 1.424,0 55.544,53.3944 119.625,118.9 100.395,103.2424 117.482,124.6084 127.45,155.2249 34.177,111.0747 60.525,206.4818 60.525,216.4501 0,6.4079 -31.326,42.7261 -69.775,81.175 l -69.775,69.0749 -77.625,-21.3749 c -43.433,-11.3922 -86.156,-23.4899 -96.125,-27.05 -16.376,-4.9841 -20.645,-15.6673 -50.55,-133.15 l -32.025,-128.15 19.225,-74.7751 c 10.681,-41.2969 29.184,-115.3468 42,-165.9 12.817,-49.8412 24.914,-90.4249 27.05,-90.4249 z"
         style="color:#000000;display:inline;overflow:visible;visibility:visible;fill:none;stroke:#0000ff;stroke-width:2.83464575;stroke-linecap:butt;stroke-linejoin:miter;stroke-miterlimit:4;stroke-dasharray:none;stroke-dashoffset:0;stroke-opacity:1;marker:none;enable-background:accumulate"
         inkscape:connector-curvature="0" />
      <path
         id="path15998"
         d="m 17480.662,-2964.3434 0.15,0.375 c 10.962,32.7369 19.155,66.6646 28.2,100.125 19.724,76.2089 38.253,152.7198 57.4,229.075 -18.345,71.634 -35.763,143.493 -54.5,215.025 -3.72,13.1644 -6.821,26.6401 -11.3,39.375 -63.249,18.9839 -127.527,35.6348 -191.25,53.5499 -46.614,-46.7201 -93.398,-93.2688 -140.35,-139.6499 24.654,-84.7478 49.21,-169.5232 73.675,-254.325 70.98,-73.5165 140.928,-148.2642 213.25,-220.275 8.15,-7.8559 16.016,-16.0294 24.725,-23.275 z"
         style="color:#000000;display:inline;overflow:visible;visibility:visible;fill:none;stroke:#0000ff;stroke-width:2.83464575;stroke-linecap:butt;stroke-linejoin:miter;stroke-miterlimit:4;stroke-dasharray:none;stroke-dashoffset:0;stroke-opacity:1;marker:none;enable-background:accumulate"
         inkscape:connector-curvature="0" />
      <path
         id="path15996"
         d="m 16428.412,-2658.6684 c 38.633,7.8758 76.563,19.3127 114.875,28.775 50.632,13.5337 101.396,26.5607 151.975,40.2749 24.397,7.1306 49.391,13.4964 73.1,22.4751 7.207,11.168 10.864,24.7345 15.45,37.3249 12.477,38.582 21.904,78.1172 32.925,117.1751 17.213,64.332 35.172,128.4946 50.925,193.2 0.644,2.4044 -3.212,-0.6508 -4.3,-0.75 -27.51,-15.0943 -52.565,-34.2417 -77.975,-52.575 -57.665,-42.6539 -113.489,-87.9202 -163.825,-139.1501 -64.311,-65.0536 -123.703,-135.5988 -174.425,-211.8749 -6.889,-11.2142 -14.777,-22.4171 -18.725,-34.875 z"
         style="color:#000000;display:inline;overflow:visible;visibility:visible;fill:none;stroke:#0000ff;stroke-width:2.83464575;stroke-linecap:butt;stroke-linejoin:miter;stroke-miterlimit:4;stroke-dasharray:none;stroke-dashoffset:0;stroke-opacity:1;marker:none;enable-background:accumulate"
         inkscape:connector-curvature="0" />
      <path
         id="path15994"
         d="m 18757.512,-2657.2434 c 2.034,-0.046 4.618,0.3797 3.275,2.975 -6.605,16.2905 -17.754,30.2572 -27.65,44.7 -40.835,55.8216 -85.249,109.2405 -131.9,160.3 -53.543,57.8477 -112.816,110.19 -174.475,159.525 -34.471,27.0996 -69.696,53.7763 -108.5,74.65 18.91,-69.7331 37.863,-139.4674 56.85,-209.175 12.464,-47.4154 25.848,-94.579 37.325,-142.2501 95.924,-27.1904 192.31,-52.7253 288.6,-78.5749 18.428,-4.441 36.801,-10.2793 55.65,-12.1 0.255,-0.02 0.535,-0.043 0.825,-0.05 z"
         style="color:#000000;display:inline;overflow:visible;visibility:visible;fill:none;stroke:#0000ff;stroke-width:2.83464575;stroke-linecap:butt;stroke-linejoin:miter;stroke-miterlimit:4;stroke-dasharray:none;stroke-dashoffset:0;stroke-opacity:1;marker:none;enable-background:accumulate"
         inkscape:connector-curvature="0" />
      <path
         id="path15992"
         d="m 18023.062,-2642.5684 66.925,67.625 c 36.313,37.0248 70.49,68.3509 74.05,69.775 6.409,2.136 53.386,-9.949 180.125,-45.5501 12.816,-3.5599 13.55,-8.5608 -42.7,196.5 -11.392,41.2972 -22.801,85.4588 -25.65,98.2751 -2.847,12.8163 -8.54,24.914 -13.525,27.05 -4.272,1.4241 -32.032,-3.5679 -61.225,-11.4 -29.192,-7.8321 -96.135,-25.6217 -148.825,-39.15 -52.689,-14.2403 -99.678,-27.7773 -105.375,-30.625 -6.408,-4.2725 11.396,-25.6208 60.525,-74.7501 l 70.5,-69.0749 -17.1,-59.1 c -9.256,-32.0407 -21.353,-74.7505 -27.05,-93.975 l -10.675,-35.6 z"
         style="color:#000000;display:inline;overflow:visible;visibility:visible;fill:none;stroke:#0000ff;stroke-width:2.83464575;stroke-linecap:butt;stroke-linejoin:miter;stroke-miterlimit:4;stroke-dasharray:none;stroke-dashoffset:0;stroke-opacity:1;marker:none;enable-background:accumulate"
         inkscape:connector-curvature="0" />
      <path
         id="path15990"
         d="m 17158.362,-2632.2185 c -9.297,43.14 -22.299,85.5576 -34.5,128 -5.149,17.6396 -10.256,35.2913 -15.425,52.9251 36.352,36.9472 74.265,72.6577 108.975,110.9749 8.19,9.4243 17.074,18.5741 23.6,29.2251 -40.64,12.8013 -82.118,23.2576 -123.275,34.55 -59.297,15.6584 -118.614,31.89 -178.325,45.55 -5.62,1.3683 -13.729,3.0196 -16.8,-3.6 -6.775,-13.6504 -9.298,-29.1199 -13.6,-43.775 -19.306,-73.9073 -38.864,-147.7449 -58.825,-221.475 -4.13,-16.2623 -8.829,-32.8539 -12.15,-49.05 58.418,13.2677 116.095,30.0776 174.075,45.3 5.582,1.5003 11.169,2.9972 16.75,4.5 40.362,-42.0714 79.464,-85.207 121.1,-125.975 2.666,-2.2863 5.61,-5.7797 8.4,-7.1501 z"
         style="color:#000000;display:inline;overflow:visible;visibility:visible;fill:none;stroke:#0000ff;stroke-width:2.83464575;stroke-linecap:butt;stroke-linejoin:miter;stroke-miterlimit:4;stroke-dasharray:none;stroke-dashoffset:0;stroke-opacity:1;marker:none;enable-background:accumulate"
         inkscape:connector-curvature="0" />
      <path
         id="path15988"
         d="m 17594.212,-2522.3185 c 0.08,0 0.134,0.031 0.2,0.075 1.425,1.424 12.834,44.1469 25.65,94.7 l 22.775,91.1249 91.85,24.2251 c 51.266,13.5283 93.989,25.626 96.125,27.05 3.561,3.5601 -229.267,237.1 -237.1,237.1 -10.679,0 -239.243,-235.6773 -230.7,-238.525 17.089,-5.6964 136.703,-37.7409 158.775,-42.725 24.921,-4.9842 27.782,-12.7991 56.975,-140.25 6.898,-29.66 13.126,-52.6625 15.45,-52.7751 z"
         style="color:#000000;display:inline;overflow:visible;visibility:visible;fill:none;stroke:#0000ff;stroke-width:2.83464575;stroke-linecap:butt;stroke-linejoin:miter;stroke-miterlimit:4;stroke-dasharray:none;stroke-dashoffset:0;stroke-opacity:1;marker:none;enable-background:accumulate"
         inkscape:connector-curvature="0" />
      <path
         id="path15986"
         d="m 17894.887,-2268.7684 c 2.136,0 62.649,16.3754 135.275,35.6 72.626,19.9362 152.393,41.2918 178.025,47.7 l 46.275,12.1 -71.2,34.2 c -148.099,70.4896 -315.416,113.9236 -505.525,130.3 l -49.85,4.2499 131.725,-132.4249 c 72.627,-72.6257 133.139,-131.725 135.275,-131.725 z"
         style="color:#000000;display:inline;overflow:visible;visibility:visible;fill:none;stroke:#0000ff;stroke-width:2.83464575;stroke-linecap:butt;stroke-linejoin:miter;stroke-miterlimit:4;stroke-dasharray:none;stroke-dashoffset:0;stroke-opacity:1;marker:none;enable-background:accumulate"
         inkscape:connector-curvature="0" />
      <path
         id="path3049-4-1-3"
         d="m 17286.837,-2268.0434 c 7.833,-0.712 268.423,255.6025 264.15,259.875 -0.712,1.4238 -35.589,-0.7029 -76.175,-4.975 -157.355,-14.2403 -344.625,-64.8064 -474.925,-129.6 -69.777,-34.1768 -74.757,-28.4871 61.95,-64.8 52.69,-14.2403 123.16,-33.4439 156.625,-42.7 33.465,-9.2563 64.103,-17.088 68.375,-17.8 z"
         style="color:#000000;display:inline;overflow:visible;visibility:visible;fill:none;stroke:#0000ff;stroke-width:2.83464575;stroke-linecap:butt;stroke-linejoin:miter;stroke-miterlimit:4;stroke-dasharray:none;stroke-dashoffset:0;stroke-opacity:1;marker:none;enable-background:accumulate"
         inkscape:connector-curvature="0" />
    </g>
  </g>
</svg>
