<?xml version="1.0" encoding="UTF-8" standalone="no"?>
<!-- Created with Inkscape (http://www.inkscape.org/) -->

<svg
   xmlns:dc="http://purl.org/dc/elements/1.1/"
   xmlns:cc="http://creativecommons.org/ns#"
   xmlns:rdf="http://www.w3.org/1999/02/22-rdf-syntax-ns#"
   xmlns:svg="http://www.w3.org/2000/svg"
   xmlns="http://www.w3.org/2000/svg"
   xmlns:sodipodi="http://sodipodi.sourceforge.net/DTD/sodipodi-0.dtd"
   xmlns:inkscape="http://www.inkscape.org/namespaces/inkscape"
   width="243.84cm"
   height="121.92cm"
   viewBox="0 0 8639.9998 4319.9999"
   id="svg4475"
   version="1.1"
   inkscape:version="0.91pre4 r13712"
   sodipodi:docname="stain_glass2.svg">
  <defs
     id="defs4477" />
  <sodipodi:namedview
     id="base"
     pagecolor="#ffffff"
     bordercolor="#666666"
     borderopacity="1.0"
     inkscape:pageopacity="0.0"
     inkscape:pageshadow="2"
     inkscape:zoom="0.087500001"
     inkscape:cx="-2696.7669"
     inkscape:cy="1133.1148"
     inkscape:document-units="cm"
     inkscape:current-layer="layer1"
     showgrid="false"
     units="cm"
     inkscape:window-width="1920"
     inkscape:window-height="1017"
     inkscape:window-x="-8"
     inkscape:window-y="-8"
     inkscape:window-maximized="1" />
  <metadata
     id="metadata4480">
    <rdf:RDF>
      <cc:Work
         rdf:about="">
        <dc:format>image/svg+xml</dc:format>
        <dc:type
           rdf:resource="http://purl.org/dc/dcmitype/StillImage" />
        <dc:title></dc:title>
      </cc:Work>
    </rdf:RDF>
  </metadata>
  <g
     inkscape:label="Layer 1"
     inkscape:groupmode="layer"
     id="layer1"
     transform="translate(0,3267.6378)">
    <g
       transform="translate(822.85729,559.99996)"
       id="g6934">
      <path
         inkscape:connector-curvature="0"
         id="path6932"
         d="m 1314.8705,-3768.2985 -1853.40623,1082.5938 10.875,2146.37508 L 1336.5893,524.45147 3189.9639,-558.14222 3179.1209,-2704.5172 1314.8705,-3768.2985 Z"
         style="color:#000000;display:inline;overflow:visible;visibility:visible;fill:none;stroke:#ff0000;stroke-width:4;stroke-linecap:butt;stroke-linejoin:miter;stroke-miterlimit:4;stroke-dasharray:none;stroke-dashoffset:0;stroke-opacity:1;marker:none;enable-background:accumulate" />
      <path
         inkscape:connector-curvature="0"
         id="path6930"
         d="m 1415.5893,-3242.111 c 8.979,-0.5518 37.9331,22.936 79.0937,64.75 34.542,34.542 62.7188,66.3613 62.7188,70.9063 0,8.181 -90.8954,78.1727 -94.5313,72.7187 -1.818,-1.8178 -11.8392,-43.63 -23.6562,-93.625 -10.908,-49.9948 -22.7133,-96.3557 -24.5313,-102.7187 -3.0678,-7.9254 -2.6072,-11.8153 0.9063,-12.0313 z"
         style="color:#000000;display:inline;overflow:visible;visibility:visible;fill:none;stroke:#0000ff;stroke-width:4;stroke-linecap:butt;stroke-linejoin:miter;stroke-miterlimit:4;stroke-dasharray:none;stroke-dashoffset:0;stroke-opacity:1;marker:none;enable-background:accumulate" />
      <path
         inkscape:connector-curvature="0"
         id="path6928"
         d="m 1220.1518,-3222.7985 c 8.181,0 10.0111,6.365 6.375,20 -2.727,11.817 -11.8163,52.697 -20.9063,90.875 -8.181,39.087 -17.2705,70.9063 -20.9062,70.9063 -10.908,0 -81.8125,-56.3503 -81.8125,-64.5313 0,-13.635 103.6151,-117.25 117.25,-117.25 z"
         style="color:#000000;display:inline;overflow:visible;visibility:visible;fill:none;stroke:#0000ff;stroke-width:4;stroke-linecap:butt;stroke-linejoin:miter;stroke-miterlimit:4;stroke-dasharray:none;stroke-dashoffset:0;stroke-opacity:1;marker:none;enable-background:accumulate" />
      <path
         inkscape:connector-curvature="0"
         id="path6926"
         d="m 1322.8705,-3204.6422 c 4.545,0 14.5378,15.4762 22.7188,33.6562 19.0887,44.541 38.1875,134.5325 38.1875,175.4375 0,24.5429 -6.3741,37.2659 -27.2813,52.7188 l -27.25,21.8125 -30.9062,-24.5625 c -25.452,-19.0889 -31.8125,-29.9881 -31.8125,-54.5313 0,-64.5388 38.1636,-204.5312 56.3437,-204.5312 z"
         style="color:#000000;display:inline;overflow:visible;visibility:visible;fill:none;stroke:#0000ff;stroke-width:4;stroke-linecap:butt;stroke-linejoin:miter;stroke-miterlimit:4;stroke-dasharray:none;stroke-dashoffset:0;stroke-opacity:1;marker:none;enable-background:accumulate" />
      <path
         inkscape:connector-curvature="0"
         id="path6924"
         d="m 800.99547,-3141.2047 c 12.0818,-0.021 39.0807,8.1635 78.2813,23.8437 80.9009,31.815 85.4657,39.096 55.4687,90 -13.6348,22.725 -28.1763,40.8807 -31.8125,39.0625 -7.2718,-2.727 -109.0937,-141.7905 -109.0937,-149.0625 0,-2.5565 2.4286,-3.8352 7.1562,-3.8437 z"
         style="color:#000000;display:inline;overflow:visible;visibility:visible;fill:none;stroke:#0000ff;stroke-width:4;stroke-linecap:butt;stroke-linejoin:miter;stroke-miterlimit:4;stroke-dasharray:none;stroke-dashoffset:0;stroke-opacity:1;marker:none;enable-background:accumulate" />
      <path
         inkscape:connector-curvature="0"
         id="path6922"
         d="m 1857.933,-3140.3297 c 5.7203,-0.1811 8.5313,1.148 8.5313,3.875 0,2.727 -20.0169,32.7107 -45.4688,66.3437 -24.5431,33.633 -49.9807,68.1887 -56.3437,78.1875 -11.817,15.4532 -14.5561,12.7202 -37.2813,-29.0937 -13.6348,-24.5431 -24.5312,-47.273 -24.5312,-50 0,-8.181 60.9075,-40.8935 101.8125,-55.4375 26.1337,-9.09 43.7475,-13.5731 53.2812,-13.875 z"
         style="color:#000000;display:inline;overflow:visible;visibility:visible;fill:none;stroke:#0000ff;stroke-width:4;stroke-linecap:butt;stroke-linejoin:miter;stroke-miterlimit:4;stroke-dasharray:none;stroke-dashoffset:0;stroke-opacity:1;marker:none;enable-background:accumulate" />
      <path
         inkscape:connector-curvature="0"
         id="path6920"
         d="m 1947.433,-3085.5797 c 1.7063,0.1612 0.7898,33.3906 -1,73.6562 -6.3628,99.9899 -22.6986,151.8109 -49.9687,162.7188 -58.176,21.8161 -64.5415,20.8857 -81.8125,-13.6563 -14.544,-31.815 -14.5634,-33.606 6.3437,-70.875 39.996,-73.6288 101.8322,-147.2675 126.375,-151.8125 0.029,-0.014 0.035,-0.034 0.062,-0.031 z"
         style="color:#000000;display:inline;overflow:visible;visibility:visible;fill:none;stroke:#0000ff;stroke-width:4;stroke-linecap:butt;stroke-linejoin:miter;stroke-miterlimit:4;stroke-dasharray:none;stroke-dashoffset:0;stroke-opacity:1;marker:none;enable-background:accumulate" />
      <path
         inkscape:connector-curvature="0"
         id="path6918"
         d="m 615.21427,-3084.1422 c 1.0469,-0.086 1.8339,0.6209 2.2812,2.2187 1.818,5.454 9.0718,48.1982 16.3438,96.375 8.181,48.177 17.2729,94.535 20,103.625 5.454,14.544 2.7249,15.4542 -20,10 -78.174,-19.0888 -94.5313,-25.4643 -94.5313,-37.2812 0,-34.6485 62.065,-173.8025 75.9063,-174.9375 z"
         style="color:#000000;display:inline;overflow:visible;visibility:visible;fill:none;stroke:#0000ff;stroke-width:4;stroke-linecap:butt;stroke-linejoin:miter;stroke-miterlimit:4;stroke-dasharray:none;stroke-dashoffset:0;stroke-opacity:1;marker:none;enable-background:accumulate" />
      <path
         inkscape:connector-curvature="0"
         id="path6916"
         d="m 2040.9955,-3081.0172 17.25,20 c 9.09,11.817 24.5635,43.6361 34.5625,70.9062 28.1789,74.538 26.3497,80.902 -27.2812,92.7188 -54.54,12.7261 -65.4568,13.6554 -59.0938,3.6562 2.727,-4.5448 9.1084,-36.3642 14.5625,-70.9062 5.4542,-34.542 11.8044,-74.5469 14.5313,-90 l 5.4687,-26.375 z"
         style="color:#000000;display:inline;overflow:visible;visibility:visible;fill:none;stroke:#0000ff;stroke-width:4;stroke-linecap:butt;stroke-linejoin:miter;stroke-miterlimit:4;stroke-dasharray:none;stroke-dashoffset:0;stroke-opacity:1;marker:none;enable-background:accumulate" />
      <path
         inkscape:connector-curvature="0"
         id="path6914"
         d="m 720.65177,-3080.111 c 12.6062,-0.5443 33.691,21.5987 66.8125,69.0938 22.725,30.906 47.2877,69.9846 55.4687,85.4375 14.5439,28.179 13.6147,31.833 -3.6562,66.375 -20.907,39.996 -19.0813,39.9761 -64.5313,27.25 -29.0881,-8.181 -33.626,-13.6208 -43.625,-56.3438 -18.1798,-75.4467 -28.1726,-155.4338 -22.7187,-177.25 2.5566,-9.374 6.5199,-14.315 12.25,-14.5625 z"
         style="color:#000000;display:inline;overflow:visible;visibility:visible;fill:none;stroke:#0000ff;stroke-width:4;stroke-linecap:butt;stroke-linejoin:miter;stroke-miterlimit:4;stroke-dasharray:none;stroke-dashoffset:0;stroke-opacity:1;marker:none;enable-background:accumulate" />
      <path
         inkscape:connector-curvature="0"
         id="path6912"
         d="m 1044.7143,-3022.8297 c 2.7269,0 33.6457,19.0849 68.1875,42.7187 l 62.7187,43.625 -6.375,68.1875 c -4.5448,37.269 -7.25,152.718 -7.25,256.3438 0.909,103.626 -0.029,187.2529 -0.9375,186.3437 -0.9092,-0.9091 -24.5427,-59.1007 -51.8125,-129.0937 -27.2702,-70.9019 -72.6935,-175.4205 -101.7812,-232.6875 l -52.71883,-105.4375 41.8125,-65.4688 c 23.63403,-35.451 44.52023,-64.5312 48.15633,-64.5312 z"
         style="color:#000000;display:inline;overflow:visible;visibility:visible;fill:none;stroke:#0000ff;stroke-width:4;stroke-linecap:butt;stroke-linejoin:miter;stroke-miterlimit:4;stroke-dasharray:none;stroke-dashoffset:0;stroke-opacity:1;marker:none;enable-background:accumulate" />
      <path
         inkscape:connector-curvature="0"
         id="path6910"
         d="m 1612.8393,-3022.8297 c 3.6361,0 23.6556,26.3697 44.5625,59.0937 20.907,32.7239 39.0625,63.637 39.0625,70 0.9092,6.3632 -19.0794,52.6927 -44.5313,102.6875 -25.4521,49.9952 -71.8128,154.5477 -102.7187,231.8125 -30.9059,77.265 -58.1849,141.8069 -59.0938,143.625 -1.8181,0.9089 -2.7213,-74.5293 -1.8125,-168.1562 0,-93.6269 -0.898,-210.9114 -3.625,-260.9063 l -4.5625,-89.0625 63.6563,-44.5625 c 35.4509,-24.5431 66.3355,-44.5312 69.0625,-44.5312 z"
         style="color:#000000;display:inline;overflow:visible;visibility:visible;fill:none;stroke:#0000ff;stroke-width:4;stroke-linecap:butt;stroke-linejoin:miter;stroke-miterlimit:4;stroke-dasharray:none;stroke-dashoffset:0;stroke-opacity:1;marker:none;enable-background:accumulate" />
      <path
         inkscape:connector-curvature="0"
         id="path6908"
         d="m 2316.3393,-2839.2985 c 38.5381,-0.012 79.8364,2.347 90.0625,6.4375 13.6354,5.454 0.8939,16.3737 -67.2813,58.1875 -46.3588,29.088 -85.4346,50.9092 -86.3437,50 -0.9089,-1.8178 -6.3614,-26.3522 -10.9063,-54.5312 -7.272,-44.5409 -7.2571,-52.7418 5.4688,-55.4688 10.7376,-3.1815 39.0259,-4.6187 69,-4.625 z"
         style="color:#000000;display:inline;overflow:visible;visibility:visible;fill:none;stroke:#0000ff;stroke-width:4;stroke-linecap:butt;stroke-linejoin:miter;stroke-miterlimit:4;stroke-dasharray:none;stroke-dashoffset:0;stroke-opacity:1;marker:none;enable-background:accumulate" />
      <path
         inkscape:connector-curvature="0"
         id="path6906"
         d="m 319.37057,-2830.236 c 14.876,0 32.0022,1.3639 54.5,3.75 l 47.2812,6.375 -5.4687,46.3438 c -3.6362,25.452 -9.0827,49.989 -12.7188,53.625 -3.6357,3.6359 -41.8029,-15.4486 -86.3437,-42.7188 -44.5412,-29.088 -74.553,-52.7131 -67.2813,-54.5312 26.7019,-9.09 45.2379,-12.8526 70.0313,-12.8438 z"
         style="color:#000000;display:inline;overflow:visible;visibility:visible;fill:none;stroke:#0000ff;stroke-width:4;stroke-linecap:butt;stroke-linejoin:miter;stroke-miterlimit:4;stroke-dasharray:none;stroke-dashoffset:0;stroke-opacity:1;marker:none;enable-background:accumulate" />
      <path
         inkscape:connector-curvature="0"
         id="path6904"
         d="m 1324.683,-2822.861 c 4.5453,0 20.9194,8.1884 37.2813,18.1875 16.3622,9.9989 32.7105,25.4469 35.4375,32.7188 6.363,17.271 0.9191,208.1639 -13.625,453.5937 -9.09,149.0758 -11.8145,166.344 -31.8125,197.25 -11.8171,19.089 -23.6481,34.5625 -26.375,34.5625 -1.818,0 -13.6178,-17.2776 -26.3438,-39.0937 -19.998,-34.5419 -22.7226,-54.5548 -31.8125,-201.8124 -17.2708,-303.606 -20.0071,-439.0296 -7.2812,-449.9376 35.451,-29.9969 57.2594,-44.5596 64.5312,-45.4688 z"
         style="color:#000000;display:inline;overflow:visible;visibility:visible;fill:none;stroke:#0000ff;stroke-width:4;stroke-linecap:butt;stroke-linejoin:miter;stroke-miterlimit:4;stroke-dasharray:none;stroke-dashoffset:0;stroke-opacity:1;marker:none;enable-background:accumulate" />
      <path
         inkscape:connector-curvature="0"
         id="path6902"
         d="m 2113.2768,-2811.0485 c 1.1036,-0.012 2.162,0 3.1562,0.031 26.3609,1.8179 27.2794,4.5172 38.1875,60.875 17.2712,90.9 16.3443,92.7255 -35.4687,131.8125 -26.3609,19.9981 -109.0871,97.2747 -183.625,171.8125 -74.5376,74.538 -133.6046,129.991 -129.9688,122.7187 2.7272,-7.2718 28.1648,-65.4611 56.3438,-130 28.1789,-64.5388 65.4449,-162.7073 83.625,-218.1562 18.1801,-55.449 35.4576,-104.5201 39.0937,-108.1562 9.6865,-11.4478 94.4438,-30.5798 128.6563,-30.9375 z"
         style="color:#000000;display:inline;overflow:visible;visibility:visible;fill:none;stroke:#0000ff;stroke-width:4;stroke-linecap:butt;stroke-linejoin:miter;stroke-miterlimit:4;stroke-dasharray:none;stroke-dashoffset:0;stroke-opacity:1;marker:none;enable-background:accumulate" />
      <path
         inkscape:connector-curvature="0"
         id="path6900"
         d="m 523.87047,-2804.6735 c 6.3632,0 42.7228,8.194 82.7188,16.375 l 70.9062,16.3438 39.0625,112.7187 c 20.907,62.721 57.2695,158.1762 81.8125,213.625 23.6342,54.54 49.1058,113.6065 55.4688,129.9688 9.9989,21.8159 -25.4653,-9.0899 -130,-113.625 -79.083,-79.0829 -165.4201,-159.9708 -191.7813,-179.9688 -45.4497,-34.5417 -48.2038,-38.1906 -42.75,-68.1875 15.453,-93.6271 25.4725,-127.25 34.5625,-127.25 z"
         style="color:#000000;display:inline;overflow:visible;visibility:visible;fill:none;stroke:#0000ff;stroke-width:4;stroke-linecap:butt;stroke-linejoin:miter;stroke-miterlimit:4;stroke-dasharray:none;stroke-dashoffset:0;stroke-opacity:1;marker:none;enable-background:accumulate" />
      <path
         inkscape:connector-curvature="0"
         id="path6898"
         d="m 182.99557,-2741.9547 34.5312,14.5625 c 19.998,8.181 50.0104,22.7196 67.2813,32.7187 76.3558,45.4498 108.1533,75.4462 109.0625,103.625 0,38.178 -8.178,46.3532 -52.7188,53.625 -33.633,5.454 -41.797,2.7398 -57.25,-14.5312 -28.179,-33.6329 -88.1969,-137.2611 -95.4687,-164.5313 l -5.4375,-25.4687 z"
         style="color:#000000;display:inline;overflow:visible;visibility:visible;fill:none;stroke:#0000ff;stroke-width:4;stroke-linecap:butt;stroke-linejoin:miter;stroke-miterlimit:4;stroke-dasharray:none;stroke-dashoffset:0;stroke-opacity:1;marker:none;enable-background:accumulate" />
      <path
         inkscape:connector-curvature="0"
         id="path6896"
         d="m 2453.683,-2741.0485 c 9.09,0 9.988,5.4478 3.625,22.7188 -16.362,41.8139 -38.1656,80.903 -76.3437,133.625 -30.906,43.632 -41.8376,51.8411 -64.5625,52.75 -39.0869,0 -46.3558,-8.2035 -52.7188,-54.5625 -4.545,-39.996 -4.5301,-41.8128 36.375,-72.7188 45.4499,-34.542 134.536,-81.8125 153.625,-81.8125 z"
         style="color:#000000;display:inline;overflow:visible;visibility:visible;fill:none;stroke:#0000ff;stroke-width:4;stroke-linecap:butt;stroke-linejoin:miter;stroke-miterlimit:4;stroke-dasharray:none;stroke-dashoffset:0;stroke-opacity:1;marker:none;enable-background:accumulate" />
      <path
         inkscape:connector-curvature="0"
         id="path6894"
         d="m 1778.8393,-2738.4235 c 19.0092,-0.1757 27.6892,9.3153 45.8125,35.5625 l 25.4375,37.2813 -20.9063,50.9062 c -35.451,87.264 -120.904,272.6833 -183.625,398.125 -48.1768,96.354 -67.261,124.5359 -94.5312,143.625 -19.0889,12.7258 -37.273,22.7189 -40,22.7189 -3.6359,0 -8.1766,-17.2807 -11.8125,-38.1876 -5.454,-31.815 2.7184,-62.7083 54.5312,-210.875 33.6329,-95.445 84.5398,-230.882 112.7188,-300.875 47.2679,-117.2606 53.6446,-127.2648 78.1875,-132.7188 14.7712,-3.4087 25.547,-5.4826 34.1875,-5.5625 z"
         style="color:#000000;display:inline;overflow:visible;visibility:visible;fill:none;stroke:#0000ff;stroke-width:4;stroke-linecap:butt;stroke-linejoin:miter;stroke-miterlimit:4;stroke-dasharray:none;stroke-dashoffset:0;stroke-opacity:1;marker:none;enable-background:accumulate" />
      <path
         inkscape:connector-curvature="0"
         id="path6892"
         d="m 873.55797,-2728.0797 c 13.213,-0.1986 30.943,3.6711 57.5313,10.6875 17.2709,4.5449 74.54303,145.4202 163.62503,399.0312 41.8139,119.9878 57.284,175.4324 56.375,208.1564 -0.9089,57.2669 -10.9156,65.452 -49.0938,40 -24.5428,-17.271 -44.5565,-49.9882 -98.1875,-157.25 -69.08383,-141.804 -162.68953,-349.0485 -182.68753,-405.4064 -10.9078,-29.088 -9.089,-35.4718 10,-65.4687 13.493,-20.5093 23.1263,-29.4596 42.4375,-29.75 z"
         style="color:#000000;display:inline;overflow:visible;visibility:visible;fill:none;stroke:#0000ff;stroke-width:4;stroke-linecap:butt;stroke-linejoin:miter;stroke-miterlimit:4;stroke-dasharray:none;stroke-dashoffset:0;stroke-opacity:1;marker:none;enable-background:accumulate" />
      <path
         inkscape:connector-curvature="0"
         id="path6890"
         d="m 97.620569,-2689.7672 c 6.683201,-0.6116 19.913101,20.64 59.000001,84.1562 25.4518,41.8142 45.4432,77.2759 43.625,79.0938 -0.9088,1.8181 -25.446,6.3611 -53.625,10.9062 -48.176901,7.2719 -51.798901,6.3648 -56.343801,-10.9062 -7.2719,-25.452 -6.3631,-122.7016 0,-149.0625 2.386,-8.3514 4.0799,-13.8888 7.3438,-14.1875 z"
         style="color:#000000;display:inline;overflow:visible;visibility:visible;fill:none;stroke:#0000ff;stroke-width:4;stroke-linecap:butt;stroke-linejoin:miter;stroke-miterlimit:4;stroke-dasharray:none;stroke-dashoffset:0;stroke-opacity:1;marker:none;enable-background:accumulate" />
      <path
         inkscape:connector-curvature="0"
         id="path6888"
         d="m 2539.5268,-2681.1422 c 0.1821,-0.013 0.358,0.023 0.5,0.094 3.6357,1.818 8.1766,20.002 11.8125,40 2.7269,19.998 2.7269,59.0739 0,86.3438 l -6.375,50 -46.3438,-5.4375 c -25.452,-3.636 -49.989,-9.1139 -53.625,-12.75 -7.1583,-6.2636 82.5548,-157.8494 94.0313,-158.25 z"
         style="color:#000000;display:inline;overflow:visible;visibility:visible;fill:none;stroke:#0000ff;stroke-width:4;stroke-linecap:butt;stroke-linejoin:miter;stroke-miterlimit:4;stroke-dasharray:none;stroke-dashoffset:0;stroke-opacity:1;marker:none;enable-background:accumulate" />
      <path
         inkscape:connector-curvature="0"
         id="path6886"
         d="m 2106.433,-2488.3297 41.8125,6.3437 c 22.725,3.636 44.5514,9.1114 48.1875,13.6563 4.5449,3.6361 9.9915,22.7236 12.7188,41.8125 4.5449,35.4511 3.6294,36.3504 -121.8125,158.1562 -205.4338,200.8888 -339.9758,314.5095 -379.0625,321.7814 -19.089,3.636 -36.3381,4.5368 -38.1563,2.7186 -2.7271,-2.7271 -0.019,-23.616 6.3438,-47.25 9.0902,-34.5421 30.0191,-65.4576 106.375,-151.8125 52.7219,-59.994 146.3415,-162.7111 209.0625,-227.25 l 114.5312,-118.1562 z"
         style="color:#000000;display:inline;overflow:visible;visibility:visible;fill:none;stroke:#0000ff;stroke-width:4;stroke-linecap:butt;stroke-linejoin:miter;stroke-miterlimit:4;stroke-dasharray:none;stroke-dashoffset:0;stroke-opacity:1;marker:none;enable-background:accumulate" />
      <path
         inkscape:connector-curvature="0"
         id="path6884"
         d="m 503.33927,-2486.361 c 30.4655,-0.7242 60.2992,27.5667 155.0625,124.375 199.9799,205.4339 313.6031,339.9757 320.875,379.0625 3.6361,19.089 4.5365,36.3382 2.7187,38.1563 -2.7272,2.7271 -23.616,0.019 -47.25,-6.3438 -47.2678,-11.8172 -107.2896,-60.8962 -331.8125,-270.875 -167.2557,-155.4388 -166.3373,-154.5307 -158.1562,-206.3436 4.5449,-29.997 10.9248,-43.6399 25.4687,-49.0939 12.7259,-5.2267 22.9387,-8.696 33.0938,-8.9375 z"
         style="color:#000000;display:inline;overflow:visible;visibility:visible;fill:none;stroke:#0000ff;stroke-width:4;stroke-linecap:butt;stroke-linejoin:miter;stroke-miterlimit:4;stroke-dasharray:none;stroke-dashoffset:0;stroke-opacity:1;marker:none;enable-background:accumulate" />
      <path
         inkscape:connector-curvature="0"
         id="path6882"
         d="m 245.55807,-2439.2985 c 27.3142,0.1954 37.5395,12.5488 61.9687,45.5 19.998,26.361 97.2745,109.0873 171.8125,183.625 74.538,74.5379 129.9594,133.6047 122.6875,129.9689 -7.2721,-2.7272 -61.7874,-26.358 -121.7813,-52.7189 -59.9939,-26.361 -159.9977,-65.4367 -222.7187,-86.3437 l -113.625,-38.1874 -16.375,-57.25 c -25.452,-91.809 -20.8827,-101.808 43.6563,-113.625 35.451,-6.8176 57.9863,-11.086 74.375,-10.9689 z"
         style="color:#000000;display:inline;overflow:visible;visibility:visible;fill:none;stroke:#0000ff;stroke-width:4;stroke-linecap:butt;stroke-linejoin:miter;stroke-miterlimit:4;stroke-dasharray:none;stroke-dashoffset:0;stroke-opacity:1;marker:none;enable-background:accumulate" />
      <path
         inkscape:connector-curvature="0"
         id="path6880"
         d="m 2389.8705,-2437.736 c 17.5983,0.1454 44.4992,6.1488 92.875,15.75 25.4519,5.454 47.2813,14.546 47.2813,20 0,6.363 -8.1941,42.7229 -16.375,82.7188 l -16.3438,70.9062 -112.7187,38.1875 c -62.7211,21.816 -158.1761,58.1784 -213.625,81.8125 -54.5399,24.5429 -113.6065,49.9779 -129.9688,57.25 -22.7248,9.09 8.1813,-26.3712 113.625,-130.9062 79.083,-79.0829 159.9708,-165.4203 179.9688,-191.7813 23.7476,-31.8433 29.5609,-44.1498 55.2812,-43.9375 z"
         style="color:#000000;display:inline;overflow:visible;visibility:visible;fill:none;stroke:#0000ff;stroke-width:4;stroke-linecap:butt;stroke-linejoin:miter;stroke-miterlimit:4;stroke-dasharray:none;stroke-dashoffset:0;stroke-opacity:1;marker:none;enable-background:accumulate" />
      <path
         inkscape:connector-curvature="0"
         id="path6878"
         d="m 8.9330688,-2388.9546 c 2.1511002,-0.097 3.5512002,0.082 4.0625002,0.5936 3.6361,3.6362 10.0123,25.4598 16.375,49.0938 11.8171,50.904 12.7177,64.5506 2.7187,58.1876 -4.5449,-2.727 -45.4535,-10.9157 -91.8125,-18.1876 -46.358899,-7.2721 -86.335499,-15.4605 -89.062499,-18.1874 -7.272,-7.272 40.8838,-34.528 99.968799,-56.3439 25.111,-8.8626 48.42849983,-14.7321 57.7499998,-15.1561 z"
         style="color:#000000;display:inline;overflow:visible;visibility:visible;fill:none;stroke:#0000ff;stroke-width:4;stroke-linecap:butt;stroke-linejoin:miter;stroke-miterlimit:4;stroke-dasharray:none;stroke-dashoffset:0;stroke-opacity:1;marker:none;enable-background:accumulate" />
      <path
         inkscape:connector-curvature="0"
         id="path6876"
         d="m 2634.5269,-2385.0485 c 5.06,0.053 11.734,1.2729 20.937,3.0625 18.181,3.6362 59.092,18.1749 90.907,32.7188 49.086,23.6341 71.815,44.5626 50,44.5626 -16.362,0.9086 -169.979,27.2648 -187.2504,32.7186 -19.089,6.3632 -19.1,7.2665 3.625,-80.9062 6.5334,-24.827 8.8494,-32.2909 21.7814,-32.1563 z"
         style="color:#000000;display:inline;overflow:visible;visibility:visible;fill:none;stroke:#0000ff;stroke-width:4;stroke-linecap:butt;stroke-linejoin:miter;stroke-miterlimit:4;stroke-dasharray:none;stroke-dashoffset:0;stroke-opacity:1;marker:none;enable-background:accumulate" />
      <path
         inkscape:connector-curvature="0"
         id="path6874"
         d="m -136.81693,-2223.4235 c 10.8421,0.022 26.8347,0.9234 49.843699,2.3439 41.814,2.727 94.5304998,9.978 115.4375,17.25 39.996,11.8168 48.1775,21.8348 61.8125,76.375 4.5449,19.0888 -0.012,24.5211 -27.2812,38.1561 -31.8152,14.544 -33.6375,14.5634 -70.9063002,-6.3437 -57.2669998,-31.8146 -133.6204988,-90.9058 -145.4374988,-111.8124 -6.2492,-11.874 -7.3214,-16.0176 16.5313,-15.9689 z"
         style="color:#000000;display:inline;overflow:visible;visibility:visible;fill:none;stroke:#0000ff;stroke-width:4;stroke-linecap:butt;stroke-linejoin:miter;stroke-miterlimit:4;stroke-dasharray:none;stroke-dashoffset:0;stroke-opacity:1;marker:none;enable-background:accumulate" />
      <path
         inkscape:connector-curvature="0"
         id="path6872"
         d="m 2761.8079,-2221.986 c 5.454,0 18.183,1.8044 30,4.5314 10.908,3.636 20,9.08 20,13.625 0,11.8168 -95.44,84.5398 -146.344,112.7186 l -43.625,23.625 -37.2809,-19.0625 c -40.9051,-20.907 -39.976,-19.1125 -27.25,-64.5625 9.0898,-31.815 10.885,-32.7061 79.9689,-47.25 61.812,-13.6351 91.807,-19.0801 124.531,-23.625 z"
         style="color:#000000;display:inline;overflow:visible;visibility:visible;fill:none;stroke:#0000ff;stroke-width:4;stroke-linecap:butt;stroke-linejoin:miter;stroke-miterlimit:4;stroke-dasharray:none;stroke-dashoffset:0;stroke-opacity:1;marker:none;enable-background:accumulate" />
      <path
         inkscape:connector-curvature="0"
         id="path6870"
         d="m -210.37943,-2140.5485 c 0.4746,-0.02 0.9972,0.087 1.5937,0.3439 4.5451,1.8176 41.8136,28.1905 82.7188,58.1874 l 73.624999,53.625 -40.9063,26.375 c -22.724899,14.5439 -46.355599,23.6304 -52.718699,21.8126 -5.454,-2.727 -20.8964,-26.358 -34.5313,-52.7189 -24.259,-51.117 -39.4309,-107.2031 -29.7812,-107.625 z"
         style="color:#000000;display:inline;overflow:visible;visibility:visible;fill:none;stroke:#0000ff;stroke-width:4;stroke-linecap:butt;stroke-linejoin:miter;stroke-miterlimit:4;stroke-dasharray:none;stroke-dashoffset:0;stroke-opacity:1;marker:none;enable-background:accumulate" />
      <path
         inkscape:connector-curvature="0"
         id="path6868"
         d="m 2860.6519,-2131.1735 c 3.296,-0.024 5.719,5.9952 5.719,12.8125 0,20.9073 -35.476,107.241 -53.657,130.875 l -16.343,21.8125 -42.719,-25.4375 c -23.634,-13.635 -41.818,-28.1763 -40,-31.8125 3.636,-9.09 136.345,-107.2786 146.344,-108.1875 0.227,-0.056 0.436,-0.061 0.656,-0.062 z"
         style="color:#000000;display:inline;overflow:visible;visibility:visible;fill:none;stroke:#0000ff;stroke-width:4;stroke-linecap:butt;stroke-linejoin:miter;stroke-miterlimit:4;stroke-dasharray:none;stroke-dashoffset:0;stroke-opacity:1;marker:none;enable-background:accumulate" />
      <path
         inkscape:connector-curvature="0"
         id="path6866"
         d="m 260.71427,-2122.0485 c 5.9105,0.1532 48.3285,16.1525 95,36.4063 48.177,20.9069 174.525,79.0617 279.9687,130.875 167.2559,80.9009 195.4369,97.2817 216.3438,128.1876 12.7261,19.0889 23.625,38.1791 23.625,40.9061 0,3.6359 -16.3743,8.1767 -37.2813,11.8125 -30.906,4.545 -62.7178,-2.732 -197.25,-50 -172.7097,-59.9938 -429.9412,-159.9696 -439.0312,-169.9686 -3.6362,-3.636 -9.0856,-22.7521 -11.8125,-42.75 -5.4541,-34.5421 -3.6616,-38.1502 29.0625,-60.875 18.1798,-12.7262 37.2705,-24.5626 40.9063,-24.5626 0.1137,-0.029 0.2781,-0.036 0.4687,-0.031 z"
         style="color:#000000;display:inline;overflow:visible;visibility:visible;fill:none;stroke:#0000ff;stroke-width:4;stroke-linecap:butt;stroke-linejoin:miter;stroke-miterlimit:4;stroke-dasharray:none;stroke-dashoffset:0;stroke-opacity:1;marker:none;enable-background:accumulate" />
      <path
         inkscape:connector-curvature="0"
         id="path6864"
         d="m 2383.4018,-2112.986 c 6.9206,-0.283 25.3625,8.5893 42.0937,19.1564 32.7239,21.816 34.5524,34.5548 17.2813,99.0936 -4.545,17.2712 -135.4524,69.9669 -399.0625,163.5938 -156.3478,54.54 -213.629,66.3592 -253.625,50.9062 -13.635,-5.4538 -13.6296,-9.0901 -1.8125,-30.9062 7.2717,-14.5439 20.0037,-31.819 29.0937,-40 31.815,-28.1789 533.5913,-259.9633 565.4063,-261.7813 0.1989,-0.029 0.4017,-0.054 0.625,-0.062 z"
         style="color:#000000;display:inline;overflow:visible;visibility:visible;fill:none;stroke:#0000ff;stroke-width:4;stroke-linecap:butt;stroke-linejoin:miter;stroke-miterlimit:4;stroke-dasharray:none;stroke-dashoffset:0;stroke-opacity:1;marker:none;enable-background:accumulate" />
      <path
         inkscape:connector-curvature="0"
         id="path6862"
         d="m 38.183069,-1975.7046 c 0.1212,0 0.2102,0 0.2812,0.031 2.7269,1.8183 46.3488,23.6418 96.343801,49.0938 49.9948,26.361 149.999,70.0057 222.7187,99.0937 72.7203,28.1791 137.2622,54.5201 143.625,58.1563 5.4541,3.636 -73.6554,6.3778 -177.2812,5.4687 -104.5349,0 -220.8844,3.6452 -259.062501,7.2813 l -69.9688002,7.25 -46.3749998,-70 c -26.361,-38.1782 -43.6386,-72.7078 -39.0937,-76.3438 16.1065,-15.2115 121.1977,-79.7522 128.8125,-80.0312 z"
         style="color:#000000;display:inline;overflow:visible;visibility:visible;fill:none;stroke:#0000ff;stroke-width:4;stroke-linecap:butt;stroke-linejoin:miter;stroke-miterlimit:4;stroke-dasharray:none;stroke-dashoffset:0;stroke-opacity:1;marker:none;enable-background:accumulate" />
      <path
         inkscape:connector-curvature="0"
         id="path6860"
         d="m 2615.058,-1967.5172 c 6.0309,0.2615 36.9439,18.0166 70.4059,40.0312 34.543,21.816 62.719,42.739 62.719,46.375 0,2.727 -19.085,33.6145 -42.719,68.1564 l -43.625,62.7186 -68.1871,-6.3436 c -37.269,-4.545 -152.718,-7.2842 -256.3438,-6.375 -103.626,0 -188.1616,-0.9035 -186.3437,-1.8126 0.9091,-0.9089 63.6496,-26.3808 138.1875,-55.4688 75.447,-29.997 177.2549,-75.4231 227.25,-100.875 49.9947,-25.4521 94.5202,-46.375 98.1562,-46.375 0.142,-0.029 0.3055,-0.04 0.5,-0.031 z"
         style="color:#000000;display:inline;overflow:visible;visibility:visible;fill:none;stroke:#0000ff;stroke-width:4;stroke-linecap:butt;stroke-linejoin:miter;stroke-miterlimit:4;stroke-dasharray:none;stroke-dashoffset:0;stroke-opacity:1;marker:none;enable-background:accumulate" />
      <path
         inkscape:connector-curvature="0"
         id="path6858"
         d="m 1308.4643,-1938.111 c 44.506,-0.2596 93.8192,6.4248 131.6562,19.7188 96.354,33.6331 195.4598,145.4392 219.0938,248.1562 12.7261,59.0849 -0.013,154.5427 -28.1875,212.7188 -47.2679,99.0809 -165.4274,186.3164 -261.7813,195.4062 -142.713,13.635 -282.7053,-63.6066 -349.0625,-193.5936 -28.17903,-55.4489 -30.90623,-69.0807 -30.90623,-135.4376 0.909,-91.8088 19.99663,-148.1715 72.71873,-215.4374 42.7229,-55.4489 89.9784,-90.0085 159.0625,-118.1876 21.0774,-8.7491 52.7904,-13.1419 87.4063,-13.3438 z"
         style="color:#000000;display:inline;overflow:visible;visibility:visible;fill:none;stroke:#0000ff;stroke-width:4;stroke-linecap:butt;stroke-linejoin:miter;stroke-miterlimit:4;stroke-dasharray:none;stroke-dashoffset:0;stroke-opacity:1;marker:none;enable-background:accumulate" />
      <path
         inkscape:connector-curvature="0"
         id="path6856"
         d="m -179.69193,-1832.0485 c 4.5448,0 23.6326,20.9229 41.8125,46.375 18.1802,25.4519 31.8181,47.2445 30,49.0625 -1.818,0.9089 -43.63,10.933 -93.625,22.75 -49.9949,10.908 -96.3587,22.7134 -101.8125,24.5314 -6.3632,2.7269 -11.8125,-0.013 -11.8125,-6.375 0,-12.7259 122.7115,-136.3439 135.4375,-136.3439 z"
         style="color:#000000;display:inline;overflow:visible;visibility:visible;fill:none;stroke:#0000ff;stroke-width:4;stroke-linecap:butt;stroke-linejoin:miter;stroke-miterlimit:4;stroke-dasharray:none;stroke-dashoffset:0;stroke-opacity:1;marker:none;enable-background:accumulate" />
      <path
         inkscape:connector-curvature="0"
         id="path6854"
         d="m 2832.7139,-1822.9546 c 3.637,0 31.819,23.631 60.907,52.7186 57.267,55.449 69.104,80.905 34.562,70.9064 -11.817,-2.7272 -52.728,-11.8164 -90.906,-20.9064 -39.087,-8.1808 -70.906,-17.2703 -70.906,-20.9062 0,-9.9991 58.162,-81.8124 66.343,-81.8124 z"
         style="color:#000000;display:inline;overflow:visible;visibility:visible;fill:none;stroke:#0000ff;stroke-width:4;stroke-linecap:butt;stroke-linejoin:miter;stroke-miterlimit:4;stroke-dasharray:none;stroke-dashoffset:0;stroke-opacity:1;marker:none;enable-background:accumulate" />
      <path
         inkscape:connector-curvature="0"
         id="path6852"
         d="m 158.43307,-1678.4235 142.7187,5.4689 c 78.174,2.727 216.3526,9.077 306.3437,14.5311 149.0758,9.09 166.3413,11.8145 198.1563,31.8125 18.1799,11.8172 33.625,23.6482 33.625,26.375 0,1.818 -17.249,13.6178 -38.1563,26.3438 -35.4508,19.998 -55.4611,22.7226 -202.7187,31.8126 -249.9747,14.5438 -435.407,19.9935 -445.4062,11.8124 -21.8159,-15.4528 -50.9199,-67.2373 -46.375,-81.7813 2.7268,-8.181 15.4588,-27.2708 29.0937,-40.9061 l 22.7188,-25.4689 z"
         style="color:#000000;display:inline;overflow:visible;visibility:visible;fill:none;stroke:#0000ff;stroke-width:4;stroke-linecap:butt;stroke-linejoin:miter;stroke-miterlimit:4;stroke-dasharray:none;stroke-dashoffset:0;stroke-opacity:1;marker:none;enable-background:accumulate" />
      <path
         inkscape:connector-curvature="0"
         id="path6850"
         d="m 2456.7143,-1675.861 c 19.6357,-0.037 37.5232,2.4437 41.5,5.625 5.4541,3.636 18.183,19.9817 30,36.3438 23.6339,33.6329 20.9114,51.8304 -11.8125,87.2812 l -22.75,24.5314 -142.6875,-5.4376 c -79.083,-2.7269 -217.2589,-9.1084 -307.25,-14.5624 -149.0755,-9.09 -166.344,-11.8145 -197.25,-31.8126 -19.0891,-11.817 -34.5625,-23.6168 -34.5625,-26.3438 0,-1.818 17.2779,-13.649 39.0937,-26.375 34.542,-19.998 54.5408,-22.72 206.3438,-32.7186 92.7177,-5.4545 209.0675,-10.9037 259.0625,-11.8126 49.9947,-1.8183 109.0876,-3.6533 131.8125,-4.5624 2.8406,-0.1137 5.6949,-0.151 8.5,-0.1564 z"
         style="color:#000000;display:inline;overflow:visible;visibility:visible;fill:none;stroke:#0000ff;stroke-width:4;stroke-linecap:butt;stroke-linejoin:miter;stroke-miterlimit:4;stroke-dasharray:none;stroke-dashoffset:0;stroke-opacity:1;marker:none;enable-background:accumulate" />
      <path
         inkscape:connector-curvature="0"
         id="path6848"
         d="m 2732.0579,-1659.361 c 17.768,0.021 40.799,3.5547 72.5,10.0314 69.084,13.6348 126.324,36.3703 122.688,48.1874 -4.546,15.453 -120.876,50.8899 -182.688,56.3437 -53.631,3.636 -56.377,2.736 -76.375,-23.625 l -21.812,-28.1875 24.562,-30.9062 c 16.476,-22.1568 31.512,-31.8793 61.125,-31.8438 z"
         style="color:#000000;display:inline;overflow:visible;visibility:visible;fill:none;stroke:#0000ff;stroke-width:4;stroke-linecap:butt;stroke-linejoin:miter;stroke-miterlimit:4;stroke-dasharray:none;stroke-dashoffset:0;stroke-opacity:1;marker:none;enable-background:accumulate" />
      <path
         inkscape:connector-curvature="0"
         id="path6846"
         d="m -68.848231,-1657.611 c 25.8785,-0.07 35.652,6.016 51.8438,26.4688 l 21.8436998,27.25 -24.5624998,30.9062 c -19.089,25.452 -29.9884,31.8125 -54.5312,31.8125 -64.539199,0 -204.531299,-38.1636 -204.531299,-56.3437 0,-19.9979 134.5381,-60 204.531299,-60 1.8747,-0.057 3.681,-0.089 5.4062,-0.094 z"
         style="color:#000000;display:inline;overflow:visible;visibility:visible;fill:none;stroke:#0000ff;stroke-width:4;stroke-linecap:butt;stroke-linejoin:miter;stroke-miterlimit:4;stroke-dasharray:none;stroke-dashoffset:0;stroke-opacity:1;marker:none;enable-background:accumulate" />
      <path
         inkscape:connector-curvature="0"
         id="path6844"
         d="m 2959.9959,-1512.986 c 3.636,0 6.343,3.6399 6.343,9.0938 0,11.8171 -122.714,135.4376 -134.531,135.4376 -7.272,0 -78.173,-90.8956 -72.719,-94.5314 2.727,-2.727 184.545,-47.273 200.907,-50 z"
         style="color:#000000;display:inline;overflow:visible;visibility:visible;fill:none;stroke:#0000ff;stroke-width:4;stroke-linecap:butt;stroke-linejoin:miter;stroke-miterlimit:4;stroke-dasharray:none;stroke-dashoffset:0;stroke-opacity:1;marker:none;enable-background:accumulate" />
      <path
         inkscape:connector-curvature="0"
         id="path6842"
         d="m -287.34823,-1502.9546 c 3.0025,0.043 6.7363,0.6449 11.2813,1.7811 10.9082,2.727 51.8192,11.8164 90.9062,20.9063 38.1778,8.181 70,17.2706 70,20.9062 0,10.908 -56.3504,81.8125 -64.5312,81.8125 -13.6353,0 -117.2813,-103.6151 -117.2813,-117.25 0,-5.6243 3.0193,-8.2513 9.625,-8.1561 z"
         style="color:#000000;display:inline;overflow:visible;visibility:visible;fill:none;stroke:#0000ff;stroke-width:4;stroke-linecap:butt;stroke-linejoin:miter;stroke-miterlimit:4;stroke-dasharray:none;stroke-dashoffset:0;stroke-opacity:1;marker:none;enable-background:accumulate" />
      <path
         inkscape:connector-curvature="0"
         id="path6840"
         d="m -10.629431,-1450.2672 68.1875,6.375 c 37.2691,4.5449 152.686701,7.2812 256.312501,7.2812 103.6258,-0.909 187.2838,0 186.3749,1.8125 -0.9088,0.9089 -60.0072,23.6335 -129.9999,51.8125 -70.902,27.2699 -175.4518,72.7245 -232.7188,101.8125 l -104.531201,51.8125 -65.4375,-41.8125 c -35.4512,-23.634 -64.5313,-44.5513 -64.5313,-48.1875 0,-2.7268 19.0821,-33.6457 43.625,-68.1875 l 42.7188,-62.7187 z"
         style="color:#000000;display:inline;overflow:visible;visibility:visible;fill:none;stroke:#0000ff;stroke-width:4;stroke-linecap:butt;stroke-linejoin:miter;stroke-miterlimit:4;stroke-dasharray:none;stroke-dashoffset:0;stroke-opacity:1;marker:none;enable-background:accumulate" />
      <path
         inkscape:connector-curvature="0"
         id="path6838"
         d="m 2633.7769,-1449.3922 c 19.685,-0.1841 31.129,10.9804 69.875,68.2187 l 47.25,70 -21.813,16.3439 c -11.817,9.0898 -41.797,28.172 -67.25,43.625 l -45.4684,27.2811 -89.0625,-45.4375 c -49.086,-25.452 -155.4426,-72.7136 -236.3437,-105.4375 -80.901,-31.815 -149.0883,-59.9943 -150.9063,-61.8125 -1.8181,-2.7272 61.8234,-1.8206 140.9063,0.9064 79.0831,2.7269 185.4424,0.889 235.4375,-3.6564 49.9947,-4.5448 101.8021,-9.0911 115.4371,-10 0.654,-0.029 1.303,-0.025 1.938,-0.031 z"
         style="color:#000000;display:inline;overflow:visible;visibility:visible;fill:none;stroke:#0000ff;stroke-width:4;stroke-linecap:butt;stroke-linejoin:miter;stroke-miterlimit:4;stroke-dasharray:none;stroke-dashoffset:0;stroke-opacity:1;marker:none;enable-background:accumulate" />
      <path
         inkscape:connector-curvature="0"
         id="path6836"
         d="m 1838.2768,-1431.1735 c 7.272,0 85.455,24.5342 172.7187,54.5313 167.2559,58.1759 428.1262,160.0009 438.125,170 3.636,3.6361 9.0855,22.7207 11.8125,42.7187 5.4539,34.5422 3.6413,37.2669 -32.7187,62.7189 l -37.25,25.4374 -50.9063,-20.9063 c -87.2641,-35.4506 -272.7145,-120.8728 -398.1562,-183.5937 -96.354,-48.177 -124.5359,-67.2614 -143.625,-94.5313 -12.7258,-19.0888 -22.7188,-37.2702 -22.7188,-40.9061 0,-5.454 21.8139,-10.9239 62.7188,-15.4689 z"
         style="color:#000000;display:inline;overflow:visible;visibility:visible;fill:none;stroke:#0000ff;stroke-width:4;stroke-linecap:butt;stroke-linejoin:miter;stroke-miterlimit:4;stroke-dasharray:none;stroke-dashoffset:0;stroke-opacity:1;marker:none;enable-background:accumulate" />
      <path
         inkscape:connector-curvature="0"
         id="path6834"
         d="m 814.27677,-1427.361 c 4.0052,0.024 7.739,0.2643 11.375,0.7188 19.9977,2.7269 39.08,8.2079 43.625,11.8437 3.6361,3.6362 -2.717,20.8853 -13.625,38.1563 -17.271,24.5429 -49.9881,44.5565 -157.25,98.1876 -141.8039,69.0838 -349.0797,162.7206 -405.4375,182.7186 -29.088,10.9079 -35.4407,9.089 -65.4375,-10 -34.5421,-22.725 -36.3647,-34.552 -19.0937,-100 4.5448,-16.362 201.7936,-96.3518 435.4062,-176.3436 101.8079,-34.2011 142.4005,-45.443 170.4375,-45.2814 z"
         style="color:#000000;display:inline;overflow:visible;visibility:visible;fill:none;stroke:#0000ff;stroke-width:4;stroke-linecap:butt;stroke-linejoin:miter;stroke-miterlimit:4;stroke-dasharray:none;stroke-dashoffset:0;stroke-opacity:1;marker:none;enable-background:accumulate" />
      <path
         inkscape:connector-curvature="0"
         id="path6832"
         d="m 970.87047,-1258.3922 c 8.8632,-0.04 13.8438,2.0204 13.8438,6.2812 0,4.5452 -5.4469,27.2724 -12.7188,50.9064 -15.4531,49.0861 -120.8796,173.6128 -336.3125,394.49998 l -91.8125,94.5624 -40.9062,-6.375 c -49.9949,-7.2719 -54.5432,-11.8029 -60.9062,-56.3438 -4.5452,-34.542 -4.5385,-35.4751 121.8124,-157.2812 176.3458,-171.80058 333.5965,-309.03488 363.5938,-318.12498 18.3505,-5.3119 33.3615,-8.0801 43.4062,-8.125 z"
         style="color:#000000;display:inline;overflow:visible;visibility:visible;fill:none;stroke:#0000ff;stroke-width:4;stroke-linecap:butt;stroke-linejoin:miter;stroke-miterlimit:4;stroke-dasharray:none;stroke-dashoffset:0;stroke-opacity:1;marker:none;enable-background:accumulate" />
      <path
         inkscape:connector-curvature="0"
         id="path6830"
         d="m 1675.683,-1258.3612 c 7.8403,0.1138 22.156,3.9924 48.0625,11.7188 46.3588,13.635 171.7985,119.0651 372.6875,314.49998 l 117.25,112.7187 -6.3437,41.8125 c -7.2718,49.9949 -11.837,54.5433 -55.4688,60.9064 -35.451,4.545 -36.3502,3.6293 -158.1562,-121.8126 -244.5206,-250.88378 -327.25,-354.49148 -327.25,-409.03128 0,-7.2721 1.3785,-10.9261 9.2187,-10.8125 z"
         style="color:#000000;display:inline;overflow:visible;visibility:visible;fill:none;stroke:#0000ff;stroke-width:4;stroke-linecap:butt;stroke-linejoin:miter;stroke-miterlimit:4;stroke-dasharray:none;stroke-dashoffset:0;stroke-opacity:1;marker:none;enable-background:accumulate" />
      <path
         inkscape:connector-curvature="0"
         id="path6828"
         d="m -146.06693,-1232.1112 c 2.727,0 23.6215,10.9302 45.4375,23.6564 22.724799,13.635 40.005599,27.27 38.187499,30.9061 -4.545,12.7259 -145.452199,109.9853 -150.906299,104.5313 -11.8167,-11.817 50.0103,-159.0938 67.2813,-159.0938 z"
         style="color:#000000;display:inline;overflow:visible;visibility:visible;fill:none;stroke:#0000ff;stroke-width:4;stroke-linecap:butt;stroke-linejoin:miter;stroke-miterlimit:4;stroke-dasharray:none;stroke-dashoffset:0;stroke-opacity:1;marker:none;enable-background:accumulate" />
      <path
         inkscape:connector-curvature="0"
         id="path6826"
         d="m 2791.4329,-1222.1424 c 5.715,-0.012 17.97,13.2486 27.656,28.2187 21.816,35.451 51.804,123.6342 44.532,130.9063 -2.727,3.6359 -29.069,-12.7464 -58.157,-34.5624 -29.088,-21.816 -64.549,-47.2539 -79.093,-56.3439 l -26.375,-16.375 40,-25.4375 c 21.816,-14.544 44.543,-26.375 50.906,-26.375 0.17,-0.029 0.347,-0.031 0.531,-0.031 z"
         style="color:#000000;display:inline;overflow:visible;visibility:visible;fill:none;stroke:#0000ff;stroke-width:4;stroke-linecap:butt;stroke-linejoin:miter;stroke-miterlimit:4;stroke-dasharray:none;stroke-dashoffset:0;stroke-opacity:1;marker:none;enable-background:accumulate" />
      <path
         inkscape:connector-curvature="0"
         id="path6824"
         d="m 1140.1518,-1150.2987 c 3.6359,0 8.2077,16.3743 11.8437,37.2813 4.545,30.906 -2.7318,62.7179 -50,197.24998 -58.1758,168.1647 -160.00083,429.0324 -170.00003,439.0312 -3.6361,3.6364 -22.7207,9.1169 -42.7187,11.8438 -34.5421,5.4541 -37.2669,3.6102 -62.7188,-32.75 l -25.4375,-37.25 20.9063,-50.9063 c 35.4506,-87.2638 120.8729,-272.7145 183.59373,-398.1561 48.177,-96.35398 67.2927,-124.53598 94.5625,-143.62498 19.0889,-12.7259 37.2418,-22.7189 39.9688,-22.7189 z"
         style="color:#000000;display:inline;overflow:visible;visibility:visible;fill:none;stroke:#0000ff;stroke-width:4;stroke-linecap:butt;stroke-linejoin:miter;stroke-miterlimit:4;stroke-dasharray:none;stroke-dashoffset:0;stroke-opacity:1;marker:none;enable-background:accumulate" />
      <path
         inkscape:connector-curvature="0"
         id="path6822"
         d="m 1517.8393,-1149.1112 c 7.9682,-0.3885 20.1527,8.4764 42.2812,27.9064 23.6342,22.725 54.5577,76.3715 118.1875,211.81238 91.8089,194.5259 160.875,351.7631 160.875,368.125 0,4.5449 -9.092,23.6356 -20,40.9062 -21.816,32.7244 -34.5236,34.5524 -99.0625,17.2814 -16.3618,-4.545 -72.7252,-142.7249 -163.625,-399.0626 -54.54,-156.34788 -66.3592,-213.59778 -50.9062,-253.59378 3.3235,-8.4936 6.798,-13.1091 12.25,-13.375 z"
         style="color:#000000;display:inline;overflow:visible;visibility:visible;fill:none;stroke:#0000ff;stroke-width:4;stroke-linecap:butt;stroke-linejoin:miter;stroke-miterlimit:4;stroke-dasharray:none;stroke-dashoffset:0;stroke-opacity:1;marker:none;enable-background:accumulate" />
      <path
         inkscape:connector-curvature="0"
         id="path6820"
         d="m 637.49547,-1141.2048 c 0.9089,0 -62.7323,64.5446 -140.9062,142.71858 -79.083,79.083 -159.9707,165.4202 -179.9687,191.7814 -34.5419,45.4496 -38.1907,48.2038 -68.1875,42.75 -93.627,-15.453 -127.25,-25.4726 -127.25,-34.5626 0,-6.3631 8.1627,-42.7228 16.3437,-82.7188 l 16.375,-70.9062 112.7188,-38.1563 c 101.808,-34.54198 207.2621,-77.27248 327.2499,-131.81248 22.7249,-9.9987 41.8069,-19.0936 43.625,-19.0936 z"
         style="color:#000000;display:inline;overflow:visible;visibility:visible;fill:none;stroke:#0000ff;stroke-width:4;stroke-linecap:butt;stroke-linejoin:miter;stroke-miterlimit:4;stroke-dasharray:none;stroke-dashoffset:0;stroke-opacity:1;marker:none;enable-background:accumulate" />
      <path
         inkscape:connector-curvature="0"
         id="path6818"
         d="m 28.464269,-1132.1112 c 0.9088,0 19.0986,8.1887 38.1875,18.1875 39.996001,20.907 39.975801,19.0814 27.25,64.5313 -9.0902,30.9059 -11.8104,32.7371 -74.5312,47.2812 -89.991,19.08938 -144.527899,24.52488 -166.343799,16.34378 -16.3619,-7.2721 -15.4509,-10.9039 20,-42.71878 29.997299,-28.1791 142.711399,-103.625 155.437499,-103.625 z"
         style="color:#000000;display:inline;overflow:visible;visibility:visible;fill:none;stroke:#0000ff;stroke-width:4;stroke-linecap:butt;stroke-linejoin:miter;stroke-miterlimit:4;stroke-dasharray:none;stroke-dashoffset:0;stroke-opacity:1;marker:none;enable-background:accumulate" />
      <path
         inkscape:connector-curvature="0"
         id="path6816"
         d="m 2620.9329,-1122.1112 c 7.272,-0.9088 48.155,22.7245 89.969,51.8125 41.814,28.1789 82.725,61.8084 90.906,73.62498 l 13.656,21.8125 -76.375,-4.5312 c -101.808,-6.3629 -153.6226,-22.73008 -164.5309,-49.99998 -20.9067,-55.449 -19.9888,-64.5498 7.2813,-79.0938 13.635,-7.2718 31.8217,-13.625 39.0936,-13.625 z"
         style="color:#000000;display:inline;overflow:visible;visibility:visible;fill:none;stroke:#0000ff;stroke-width:4;stroke-linecap:butt;stroke-linejoin:miter;stroke-miterlimit:4;stroke-dasharray:none;stroke-dashoffset:0;stroke-opacity:1;marker:none;enable-background:accumulate" />
      <path
         inkscape:connector-curvature="0"
         id="path6814"
         d="m 2048.8705,-1121.2987 c 0.084,0.013 0.1677,0.051 0.2813,0.094 7.2719,2.727 61.8186,27.264 121.8125,53.625 59.994,26.3607 159.9977,65.4679 222.7187,86.37498 l 113.625,38.1561 16.3438,57.2813 c 24.5431,90.9 20.9139,100.8961 -43.625,114.5312 -90.9001,19.089 -96.3479,17.2559 -136.3438,-36.375 -19.998,-25.452 -97.2747,-108.1494 -171.8125,-182.6875 -73.3732,-73.37308 -128.2396,-131.79398 -123,-130.99998 z"
         style="color:#000000;display:inline;overflow:visible;visibility:visible;fill:none;stroke:#0000ff;stroke-width:4;stroke-linecap:butt;stroke-linejoin:miter;stroke-miterlimit:4;stroke-dasharray:none;stroke-dashoffset:0;stroke-opacity:1;marker:none;enable-background:accumulate" />
      <path
         inkscape:connector-curvature="0"
         id="path6812"
         d="m 1325.5893,-1113.9237 c 1.818,0 13.649,17.249 26.375,38.1563 19.998,35.4509 22.7225,55.4611 31.8125,202.71868 14.5441,245.4299 19.0845,435.407 11.8125,445.4063 -3.636,4.5449 -19.9816,18.1831 -36.3438,30 -33.6328,23.6341 -51.8303,20.9114 -87.2812,-11.8124 l -24.5313,-22.7189 5.4375,-142.7187 c 2.727,-79.0831 9.1084,-217.2589 14.5625,-307.25 9.0899,-149.07578 11.8145,-166.34128 31.8125,-198.15628 11.817,-18.1798 23.6168,-33.625 26.3438,-33.625 z"
         style="color:#000000;display:inline;overflow:visible;visibility:visible;fill:none;stroke:#0000ff;stroke-width:4;stroke-linecap:butt;stroke-linejoin:miter;stroke-miterlimit:4;stroke-dasharray:none;stroke-dashoffset:0;stroke-opacity:1;marker:none;enable-background:accumulate" />
      <path
         inkscape:connector-curvature="0"
         id="path6810"
         d="m 52.089269,-931.23602 c 3.636,0 4.5394,10.0212 1.8125,23.6564 -24.5434,99.9898 -21.7962,96.3344 -58.1562002,89.0624 -40.9048998,-7.2721 -147.2812988,-56.3393 -147.2812988,-68.1563 0,-4.545 19.1134,-10.9293 43.6563,-13.6561 23.633999,-3.6362 67.253199,-11.7935 97.249999,-18.1564 29.9971,-6.363 58.1738,-11.841 62.7187,-12.75 z"
         style="color:#000000;display:inline;overflow:visible;visibility:visible;fill:none;stroke:#0000ff;stroke-width:4;stroke-linecap:butt;stroke-linejoin:miter;stroke-miterlimit:4;stroke-dasharray:none;stroke-dashoffset:0;stroke-opacity:1;marker:none;enable-background:accumulate" />
      <path
         inkscape:connector-curvature="0"
         id="path6808"
         d="m 2617.1205,-920.11102 c 0.5914,0.019 1.2614,0.2644 2.0004,0.7188 4.545,2.7269 45.422,10.8842 91.781,18.1562 46.359,7.272 86.367,15.4605 89.094,18.1875 7.272,7.272 -40.907,34.5589 -102.719,56.375 -43.632,16.3619 -59.992,19.0902 -62.719,10 -18.748,-56.2442 -26.3021,-103.7171 -17.4374,-103.4375 z"
         style="color:#000000;display:inline;overflow:visible;visibility:visible;fill:none;stroke:#0000ff;stroke-width:4;stroke-linecap:butt;stroke-linejoin:miter;stroke-miterlimit:4;stroke-dasharray:none;stroke-dashoffset:0;stroke-opacity:1;marker:none;enable-background:accumulate" />
      <path
         inkscape:connector-curvature="0"
         id="path6806"
         d="m 1797.0893,-891.45462 c 7.5225,0.3705 46.98,36.9175 130.2812,120.2186 79.0832,79.083 165.4204,159.9708 191.7813,179.9688 45.45,34.5419 48.1726,38.1906 42.7187,68.1876 -15.453,93.6269 -25.4412,127.25 -34.5312,127.25 -6.363,0 -42.7228,-8.1629 -82.7188,-16.3439 l -70.9062,-16.375 -38.1875,-112.7187 c -20.9068,-62.7209 -58.1471,-159.0536 -81.7813,-213.5938 -24.5428,-55.449 -50.0118,-113.6378 -56.375,-130 -2.0311,-4.4312 -2.1987,-6.6881 -0.2812,-6.5936 z"
         style="color:#000000;display:inline;overflow:visible;visibility:visible;fill:none;stroke:#0000ff;stroke-width:4;stroke-linecap:butt;stroke-linejoin:miter;stroke-miterlimit:4;stroke-dasharray:none;stroke-dashoffset:0;stroke-opacity:1;marker:none;enable-background:accumulate" />
      <path
         inkscape:connector-curvature="0"
         id="path6804"
         d="m 845.55797,-882.14222 c 0.043,-0.014 0.08,-0.014 0.094,0 0.9092,0 -22.7245,57.2596 -51.8125,126.3437 -29.9969,68.1749 -70.9111,172.7304 -90,230.9063 l -34.5313,106.3437 -58.1875,16.375 c -90.9,24.543 -100.8961,20.8828 -114.5312,-43.6561 -19.089,-91.8089 -17.2695,-95.4252 40.9062,-140.875 28.1789,-21.816 109.0697,-98.1922 179.0625,-169.0939 68.8994,-68.8996 126.3548,-125.4597 129,-126.3437 z"
         style="color:#000000;display:inline;overflow:visible;visibility:visible;fill:none;stroke:#0000ff;stroke-width:4;stroke-linecap:butt;stroke-linejoin:miter;stroke-miterlimit:4;stroke-dasharray:none;stroke-dashoffset:0;stroke-opacity:1;marker:none;enable-background:accumulate" />
      <path
         inkscape:connector-curvature="0"
         id="path6802"
         d="m 1161.058,-786.70462 c 0.9089,0 1.8465,84.5615 0.9375,188.1874 0,104.5349 3.6139,219.9784 7.25,258.1562 l 7.2813,69.0625 -70,48.1875 -70,48.1875 -16.3438,-21.8125 c -8.181,-11.8171 -28.17203,-41.8293 -43.62503,-67.2812 l -27.2812,-45.4374 52.71873,-104.5626 c 29.0877,-57.2669 76.3497,-164.5246 105.4375,-239.0624 28.179,-73.629 52.7158,-133.625 53.625,-133.625 z"
         style="color:#000000;display:inline;overflow:visible;visibility:visible;fill:none;stroke:#0000ff;stroke-width:4;stroke-linecap:butt;stroke-linejoin:miter;stroke-miterlimit:4;stroke-dasharray:none;stroke-dashoffset:0;stroke-opacity:1;marker:none;enable-background:accumulate" />
      <path
         inkscape:connector-curvature="0"
         id="path6800"
         d="m 1490.0893,-774.89222 c 0.014,-0.014 0.017,0 0.031,0.031 0.9089,0.9089 25.4773,60.905 53.6563,133.625 29.0879,72.72 74.5085,177.2387 102.6875,232.6875 l 50,100.9063 -41.8125,65.4376 c -23.634,35.451 -44.5203,64.5311 -48.1563,64.5311 -2.727,0 -33.6457,-19.0847 -68.1875,-42.7187 l -62.7187,-43.625 6.375,-68.1874 c 4.545,-37.2692 7.2529,-152.6869 6.3437,-256.3126 0,-102.0068 0.8868,-185.5244 1.7813,-186.375 z"
         style="color:#000000;display:inline;overflow:visible;visibility:visible;fill:none;stroke:#0000ff;stroke-width:4;stroke-linecap:butt;stroke-linejoin:miter;stroke-miterlimit:4;stroke-dasharray:none;stroke-dashoffset:0;stroke-opacity:1;marker:none;enable-background:accumulate" />
      <path
         inkscape:connector-curvature="0"
         id="path6798"
         d="m 105.71427,-695.79852 46.375,5.4689 c 25.4519,3.636 49.9889,9.0825 53.625,12.7186 6.3628,5.454 -83.6231,162.7164 -94.5312,163.625 -9.999,0 -17.266401,-82.724 -11.812501,-132.7186 l 6.343701,-49.0939 z"
         style="color:#000000;display:inline;overflow:visible;visibility:visible;fill:none;stroke:#0000ff;stroke-width:4;stroke-linecap:butt;stroke-linejoin:miter;stroke-miterlimit:4;stroke-dasharray:none;stroke-dashoffset:0;stroke-opacity:1;marker:none;enable-background:accumulate" />
      <path
         inkscape:connector-curvature="0"
         id="path6796"
         d="m 2534.9018,-687.89222 c 28.9021,0.1915 30.5625,17.226 30.5625,87.5312 0,108.1713 -7.2618,109.101 -65.4375,13.6564 -29.0883,-46.359 -50.9116,-85.463 -49.0938,-87.2814 1.8182,-1.8178 25.4488,-6.3608 52.7188,-10.9062 12.9249,-1.7895 23.1575,-3.0536 31.25,-3 z"
         style="color:#000000;display:inline;overflow:visible;visibility:visible;fill:none;stroke:#0000ff;stroke-width:4;stroke-linecap:butt;stroke-linejoin:miter;stroke-miterlimit:4;stroke-dasharray:none;stroke-dashoffset:0;stroke-opacity:1;marker:none;enable-background:accumulate" />
      <path
         inkscape:connector-curvature="0"
         id="path6794"
         d="m 334.80807,-668.51722 c 15.453,0 31.7961,3.6451 37.25,7.2812 5.454,3.6362 12.7417,24.525 15.4687,47.25 l 5.4375,40.9064 -52.7187,38.1874 c -52.7218,38.1777 -121.8092,74.5284 -143.625,75.4376 -19.0892,0 12.7181,-69.0901 64.5312,-142.7189 39.996,-57.267 50.0223,-66.3437 73.6563,-66.3437 z"
         style="color:#000000;display:inline;overflow:visible;visibility:visible;fill:none;stroke:#0000ff;stroke-width:4;stroke-linecap:butt;stroke-linejoin:miter;stroke-miterlimit:4;stroke-dasharray:none;stroke-dashoffset:0;stroke-opacity:1;marker:none;enable-background:accumulate" />
      <path
         inkscape:connector-curvature="0"
         id="path6792"
         d="m 2342.308,-666.76722 c 4.7815,-0.3364 15.3137,7.683 25,18.25 28.179,33.6331 87.262,137.2641 93.625,163.625 5.4539,23.6341 4.566,24.5246 -17.25,16.3437 -41.814,-16.3621 -80.903,-38.1656 -133.625,-76.3437 -43.632,-30.9059 -51.8098,-41.8061 -52.7187,-64.5313 0,-38.1778 9.0775,-48.2048 45.4375,-52.75 17.2711,-1.8178 35.4577,-4.5311 39.0937,-4.5311 0.142,-0.029 0.2833,-0.051 0.4375,-0.062 z"
         style="color:#000000;display:inline;overflow:visible;visibility:visible;fill:none;stroke:#0000ff;stroke-width:4;stroke-linecap:butt;stroke-linejoin:miter;stroke-miterlimit:4;stroke-dasharray:none;stroke-dashoffset:0;stroke-opacity:1;marker:none;enable-background:accumulate" />
      <path
         inkscape:connector-curvature="0"
         id="path6790"
         d="m 2251.8705,-486.73602 c 1.818,0 39.0895,21.8239 81.8125,49.0938 43.6322,27.2701 75.4484,50.8979 71.8125,53.625 -19.0892,10.9077 -81.8027,16.3631 -126.3437,10 l -50,-5.4374 5.4375,-42.7189 c 6.3629,-46.3588 10.9182,-64.5625 17.2812,-64.5625 z"
         style="color:#000000;display:inline;overflow:visible;visibility:visible;fill:none;stroke:#0000ff;stroke-width:4;stroke-linecap:butt;stroke-linejoin:miter;stroke-miterlimit:4;stroke-dasharray:none;stroke-dashoffset:0;stroke-opacity:1;marker:none;enable-background:accumulate" />
      <path
         inkscape:connector-curvature="0"
         id="path6788"
         d="m 395.68307,-476.73602 c 3.6361,-0.9091 9.1138,21.8212 12.75,50 7.2718,62.7212 2.7271,67.2842 -82.7188,66.375 -107.2621,-0.9088 -109.0901,-7.2956 -17.2812,-64.5625 44.5408,-28.1788 83.6138,-51.8125 87.25,-51.8125 z"
         style="color:#000000;display:inline;overflow:visible;visibility:visible;fill:none;stroke:#0000ff;stroke-width:4;stroke-linecap:butt;stroke-linejoin:miter;stroke-miterlimit:4;stroke-dasharray:none;stroke-dashoffset:0;stroke-opacity:1;marker:none;enable-background:accumulate" />
      <path
         inkscape:connector-curvature="0"
         id="path6786"
         d="m 1841.5893,-376.29852 c 7.4406,-0.1331 17.8312,2.9779 34.875,7.75 31.8151,9.0903 33.6147,10.8984 47.25,75.4375 19.0889,85.446 25.4624,143.6274 17.2812,163.625 -6.3628,14.544 -8.1922,14.5412 -27.2812,0.9064 -20.907,-14.5441 -79.0765,-95.4399 -105.4375,-146.3439 -14.544,-28.179 -13.6459,-31.8016 3.625,-66.3437 13.067,-25.5658 17.2865,-34.8093 29.6875,-35.0313 z"
         style="color:#000000;display:inline;overflow:visible;visibility:visible;fill:none;stroke:#0000ff;stroke-width:4;stroke-linecap:butt;stroke-linejoin:miter;stroke-miterlimit:4;stroke-dasharray:none;stroke-dashoffset:0;stroke-opacity:1;marker:none;enable-background:accumulate" />
      <path
         inkscape:connector-curvature="0"
         id="path6784"
         d="m 807.52677,-366.51722 c 13.1297,0.2905 19.3164,9.2719 29.0312,29.7812 14.5442,30.9059 14.5497,33.6335 -1.8125,61.8125 -33.633,59.994 -97.2576,142.7198 -115.4375,152.7189 -19.0892,9.999 -19.1101,9.0826 -13.6562,-70 6.3631,-109.0799 21.8165,-149.081 61.8125,-163.625 18.8332,-7.0165 31.079,-10.8862 40.0625,-10.6876 z"
         style="color:#000000;display:inline;overflow:visible;visibility:visible;fill:none;stroke:#0000ff;stroke-width:4;stroke-linecap:butt;stroke-linejoin:miter;stroke-miterlimit:4;stroke-dasharray:none;stroke-dashoffset:0;stroke-opacity:1;marker:none;enable-background:accumulate" />
      <path
         inkscape:connector-curvature="0"
         id="path6782"
         d="m 2002.4643,-331.61102 c 6.192,-0.1257 16.7574,2.4239 33.0625,7.5938 14.544,4.5449 38.1746,10.9264 52.7187,14.5626 23.6339,5.454 25.4569,7.2473 19.0938,39.0624 -10.9079,62.7209 -77.25,181.813903 -77.25,140 0,-16.3619 -27.2961,-173.6146 -32.75,-187.25 -3.5793,-9.2035 -2.8363,-13.807 5.125,-13.9688 z"
         style="color:#000000;display:inline;overflow:visible;visibility:visible;fill:none;stroke:#0000ff;stroke-width:4;stroke-linecap:butt;stroke-linejoin:miter;stroke-miterlimit:4;stroke-dasharray:none;stroke-dashoffset:0;stroke-opacity:1;marker:none;enable-background:accumulate" />
      <path
         inkscape:connector-curvature="0"
         id="path6780"
         d="m 634.27677,-313.20462 c 10.5625,-0.1731 10.9964,5.056 5.0312,24.6561 -3.6361,14.544 -9.9888,52.7163 -13.625,84.5313 -9.0898,79.083 -16.377,89.9996 -36.375,59.0937 -28.179,-42.723 -60.8851,-141.83 -47.25,-146.375 27.2698,-9.09 75.4249,-20.9031 89.9688,-21.8125 0.7954,-0.056 1.5459,-0.082 2.25,-0.094 z"
         style="color:#000000;display:inline;overflow:visible;visibility:visible;fill:none;stroke:#0000ff;stroke-width:4;stroke-linecap:butt;stroke-linejoin:miter;stroke-miterlimit:4;stroke-dasharray:none;stroke-dashoffset:0;stroke-opacity:1;marker:none;enable-background:accumulate" />
      <path
         inkscape:connector-curvature="0"
         id="path6778"
         d="m 1320.1518,-277.64222 c 1.8181,0 17.2602,9.9901 34.5312,23.625 23.6342,18.18 30,29.0821 30,53.625 0,64.5391 -38.1636,204.5312026 -56.3437,204.5312026 -19.0888,0 -60.9035,-140.8928026 -61.8125,-207.2500026 0,-21.8158 7.2575,-36.3596 25.4375,-51.8125 13.635,-11.817 26.3697,-22.7187 28.1875,-22.7187 z"
         style="color:#000000;display:inline;overflow:visible;visibility:visible;fill:none;stroke:#0000ff;stroke-width:4;stroke-linecap:butt;stroke-linejoin:miter;stroke-miterlimit:4;stroke-dasharray:none;stroke-dashoffset:0;stroke-opacity:1;marker:none;enable-background:accumulate" />
      <path
         inkscape:connector-curvature="0"
         id="path6776"
         d="m 898.37047,-222.20462 24.5313,40 c 14.544,22.7249 25.4687,44.5485 25.4687,49.0936 0,18.1798 -147.274,84.541303 -160,70.906403 -2.7268,-1.818 20.9353,-39.089603 52.75,-81.812603 l 57.25,-78.1874 z"
         style="color:#000000;display:inline;overflow:visible;visibility:visible;fill:none;stroke:#0000ff;stroke-width:4;stroke-linecap:butt;stroke-linejoin:miter;stroke-miterlimit:4;stroke-dasharray:none;stroke-dashoffset:0;stroke-opacity:1;marker:none;enable-background:accumulate" />
      <path
         inkscape:connector-curvature="0"
         id="path6774"
         d="m 1747.9018,-212.32962 c 0.1345,0.017 0.2614,0.067 0.375,0.125 4.5449,1.8179 30.0085,34.5376 58.1875,73.625 28.179,39.086803 50.9062,72.710503 50.9062,75.437403 0,15.453 -113.6195,-23.6076 -146.3437,-49.968803 l -20,-16.375 25.4375,-42.7186 c 13.209,-22.8955 27.2657,-40.6894 31.4375,-40.125 z"
         style="color:#000000;display:inline;overflow:visible;visibility:visible;fill:none;stroke:#0000ff;stroke-width:4;stroke-linecap:butt;stroke-linejoin:miter;stroke-miterlimit:4;stroke-dasharray:none;stroke-dashoffset:0;stroke-opacity:1;marker:none;enable-background:accumulate" />
      <path
         inkscape:connector-curvature="0"
         id="path6772"
         d="m 1184.7143,-167.67352 c 3.6357,-0.9091 14.5267,40.9113 26.3437,90.906303 10.908,50.9037 22.7419,98.1684 25.4688,104.5312 2.727,7.2722 -0.013,12.7188 -6.375,12.7188 -12.7261,0 -136.3438,-122.7114 -136.3438,-135.4374 0,-7.272003 79.9983,-71.809903 90.9063,-72.718903 z"
         style="color:#000000;display:inline;overflow:visible;visibility:visible;fill:none;stroke:#0000ff;stroke-width:4;stroke-linecap:butt;stroke-linejoin:miter;stroke-miterlimit:4;stroke-dasharray:none;stroke-dashoffset:0;stroke-opacity:1;marker:none;enable-background:accumulate" />
      <path
         inkscape:connector-curvature="0"
         id="path3049-4-1-0-5"
         d="m 1466.4955,-159.48602 c 2.727,0 22.718,12.7347 43.625,28.1875 20.9069,15.453 38.1875,31.798903 38.1875,36.343903 0,13.6351 -103.6151,117.2811 -117.25,117.2811 -8.1808,0 -10.0106,-6.3622 -6.375,-20.9061004 2.7272,-10.9084 11.8163,-51.8193996 20.9063,-90.9063996 8.1809,-38.177603 17.2704,-70.000003 20.9062,-70.000003 z"
         style="color:#000000;display:inline;overflow:visible;visibility:visible;fill:none;stroke:#0000ff;stroke-width:4;stroke-linecap:butt;stroke-linejoin:miter;stroke-miterlimit:4;stroke-dasharray:none;stroke-dashoffset:0;stroke-opacity:1;marker:none;enable-background:accumulate" />
    </g>
  </g>
</svg>
