<?xml version="1.0" encoding="UTF-8" standalone="no"?>
<!-- Created with Inkscape (http://www.inkscape.org/) -->

<svg
   xmlns:dc="http://purl.org/dc/elements/1.1/"
   xmlns:cc="http://creativecommons.org/ns#"
   xmlns:rdf="http://www.w3.org/1999/02/22-rdf-syntax-ns#"
   xmlns:svg="http://www.w3.org/2000/svg"
   xmlns="http://www.w3.org/2000/svg"
   xmlns:sodipodi="http://sodipodi.sourceforge.net/DTD/sodipodi-0.dtd"
   xmlns:inkscape="http://www.inkscape.org/namespaces/inkscape"
   width="60in"
   height="48in"
   viewBox="0 0 5399.9999 4320"
   id="svg4475"
   version="1.1"
   inkscape:version="0.91pre4 r13712"
   sodipodi:docname="triangle_large.svg">
  <defs
     id="defs4477" />
  <sodipodi:namedview
     id="base"
     pagecolor="#ffffff"
     bordercolor="#666666"
     borderopacity="1.0"
     inkscape:pageopacity="0.0"
     inkscape:pageshadow="2"
     inkscape:zoom="0.087500001"
     inkscape:cx="463.23306"
     inkscape:cy="1133.1148"
     inkscape:document-units="cm"
     inkscape:current-layer="g10"
     showgrid="false"
     units="ft"
     inkscape:window-width="1920"
     inkscape:window-height="1017"
     inkscape:window-x="1912"
     inkscape:window-y="-8"
     inkscape:window-maximized="1" />
  <metadata
     id="metadata4480">
    <rdf:RDF>
      <cc:Work
         rdf:about="">
        <dc:format>image/svg+xml</dc:format>
        <dc:type
           rdf:resource="http://purl.org/dc/dcmitype/StillImage" />
        <dc:title></dc:title>
      </cc:Work>
    </rdf:RDF>
  </metadata>
  <g
     inkscape:label="Layer 1"
     inkscape:groupmode="layer"
     id="layer1"
     transform="translate(0,3267.6377)">
    <g
       transform="matrix(0,2.5892003,-2.5892003,0,6909.4505,-3814.1465)"
       id="g10"
       style="fill:none;stroke:#ff0000;stroke-width:0.5mm">
      <path
         style="stroke:#ff0000"
         d="m 1060,804 -723,418 0,834 723,418 723,-418 0,-834 -723,-418"
         id="path4567" />
      <path
         style="stroke:#0000ff"
         d="m 1423,1943 25,88 -25,88 12,-87 0,-1 -12,-88"
         id="path4565" />
      <path
         style="stroke:#0000ff"
         d="m 1423,1551 25,88 -25,88 12,-88 -12,-88"
         id="path4563" />
      <path
         style="stroke:#0000ff"
         d="m 1423,1159 25,88 -25,88 12,-88 -12,-88"
         id="path4561" />
      <path
         style="stroke:#0000ff"
         d="m 1537,1597 85,21 -91,-11 -55,-73 61,63"
         id="path4559" />
      <path
         style="stroke:#0000ff"
         d="m 1481,1517 70,55 83,33 -89,-22 -64,-66"
         id="path4557" />
      <path
         style="stroke:#0000ff"
         d="m 1523,1622 84,10 -90,0 -45,-79 51,69"
         id="path4555" />
      <path
         style="stroke:#0000ff"
         d="m 1504,1639 -45,78 34,-78 -34,-78 45,78"
         id="path4553" />
      <path
         style="stroke:#0000ff"
         d="m 1517,1647 90,0 -84,9 -51,69 45,-78"
         id="path4551" />
      <path
         style="stroke:#0000ff"
         d="m 1531,1671 91,-11 -85,21 -61,63 55,-73"
         id="path4549" />
      <path
         style="stroke:#0000ff"
         d="m 1545,1695 89,-22 -83,33 -70,55 64,-66"
         id="path4547" />
      <path
         style="stroke:#0000ff"
         d="m 1559,1719 85,-34 -157,91 72,-57"
         id="path4545" />
      <path
         style="stroke:#0000ff"
         d="m 1559,1559 -72,-57 157,91 -85,-34"
         id="path4543" />
      <path
         style="stroke:#0000ff"
         d="m 1450,1463 144,36 102,107 -246,-143"
         id="path4541" />
      <path
         style="stroke:#0000ff"
         d="m 1476,1639 -36,84 24,-84 -24,-84 36,84"
         id="path4539" />
      <path
         style="stroke:#0000ff"
         d="m 1696,1672 -102,107 -144,36 246,-143"
         id="path4537" />
      <path
         style="stroke:#0000ff"
         d="m 1601,1793 100,-104 -80,138 -159,0 139,-34"
         id="path4535" />
      <path
         style="stroke:#0000ff"
         d="m 1601,1485 -139,-34 159,0 80,138 -100,-104"
         id="path4533" />
      <path
         style="stroke:#0000ff"
         d="m 1635,1443 79,-138 -40,138 40,138 -79,-138"
         id="path4531" />
      <path
         style="stroke:#0000ff"
         d="m 1621,1436 -159,0 139,-35 100,-104 -80,139"
         id="path4529" />
      <path
         style="stroke:#0000ff"
         d="m 1594,1387 -144,36 246,-142 -102,106"
         id="path4527" />
      <path
         style="stroke:#0000ff"
         d="m 1552,1314 -1,0 -70,55 64,-66 89,-22 -82,33"
         id="path4525" />
      <path
         style="stroke:#0000ff"
         d="m 1644,1293 -157,91 72,-57 85,-34"
         id="path4523" />
      <path
         style="stroke:#0000ff"
         d="m 1537,1289 -61,63 55,-73 91,-11 -85,21"
         id="path4521" />
      <path
         style="stroke:#0000ff"
         d="m 1523,1265 -51,68 45,-78 90,0 -84,10"
         id="path4519" />
      <path
         style="stroke:#0000ff"
         d="m 1559,1167 -72,-56 157,90 -85,-34"
         id="path4517" />
      <path
         style="stroke:#0000ff"
         d="m 1551,1180 83,33 -89,-22 -64,-66 70,55"
         id="path4515" />
      <path
         style="stroke:#0000ff"
         d="m 1537,1205 85,21 -91,-10 -55,-74 61,63"
         id="path4513" />
      <path
         style="stroke:#0000ff"
         d="m 1523,1230 84,10 -90,0 -45,-79 51,69"
         id="path4511" />
      <path
         style="stroke:#0000ff"
         d="m 1504,1247 -45,78 34,-78 -34,-78 45,78"
         id="path4509" />
      <path
         style="stroke:#0000ff"
         d="m 1476,1247 -36,84 24,-84 -24,-84 36,84"
         id="path4507" />
      <path
         style="stroke:#0000ff"
         d="m 1464,2031 -24,-84 36,84 -36,84 24,-84"
         id="path4505" />
      <path
         style="stroke:#0000ff"
         d="m 1493,2031 -34,-78 45,78 -45,78 34,-78"
         id="path4503" />
      <path
         style="stroke:#0000ff"
         d="m 1537,1989 85,21 -91,-11 -55,-73 61,63"
         id="path4501" />
      <path
         style="stroke:#0000ff"
         d="m 1481,1909 70,55 83,33 -89,-22 -64,-66"
         id="path4499" />
      <path
         style="stroke:#0000ff"
         d="m 1523,2014 84,9 -90,0 -45,-78 51,69"
         id="path4497" />
      <path
         style="stroke:#0000ff"
         d="m 1517,2039 90,0 -84,9 -51,69 45,-78"
         id="path4495" />
      <path
         style="stroke:#0000ff"
         d="m 1531,2063 91,-11 -85,21 -61,63 55,-73"
         id="path4493" />
      <path
         style="stroke:#0000ff"
         d="m 1545,2087 89,-22 -83,33 -70,55 64,-66"
         id="path4491" />
      <path
         style="stroke:#0000ff"
         d="m 1559,2111 85,-34 -157,91 72,-57"
         id="path4489" />
      <path
         style="stroke:#0000ff"
         d="m 1559,1951 -72,-57 157,91 -85,-34"
         id="path4487" />
      <path
         style="stroke:#0000ff"
         d="m 1450,1855 144,36 102,107 -246,-143"
         id="path4485" />
      <path
         style="stroke:#0000ff"
         d="m 1601,1877 -139,-34 159,0 80,138 -100,-104"
         id="path4483" />
      <path
         style="stroke:#0000ff"
         d="m 1635,1835 79,-138 -40,138 40,138 -79,-138"
         id="path4481" />
      <path
         style="stroke:#0000ff"
         d="m 1690,1835 41,-142 0,284 -41,-142"
         id="path4479" />
      <path
         style="stroke:#0000ff"
         d="m 1690,1443 41,-142 0,285 -41,-143"
         id="path4477" />
      <path
         style="stroke:#0000ff"
         d="m 1407,1730 0,-181 13,90 -13,91"
         id="path4475" />
      <path
         style="stroke:#0000ff"
         d="m 1420,2031 -13,90 0,-180 13,90"
         id="path4473" />
      <path
         style="stroke:#0000ff"
         d="m 1407,1338 0,-181 13,90 -13,91"
         id="path4471" />
      <path
         style="stroke:#0000ff"
         d="m 1083,2139 26,88 -26,88 13,-87 0,-1 -13,-88"
         id="path4469" />
      <path
         style="stroke:#0000ff"
         d="m 1083,1747 26,88 -26,88 13,-87 0,-1 -13,-88"
         id="path4467" />
      <path
         style="stroke:#0000ff"
         d="m 1083,1355 26,88 -26,88 13,-88 -13,-88"
         id="path4465" />
      <path
         style="stroke:#0000ff"
         d="m 1083,963 26,88 -26,89 13,-89 -13,-88"
         id="path4463" />
      <path
         style="stroke:#0000ff"
         d="m 1212,1768 83,33 -89,-22 -64,-66 70,55"
         id="path4461" />
      <path
         style="stroke:#0000ff"
         d="m 1148,1698 156,91 -85,-34 -71,-57"
         id="path4459" />
      <path
         style="stroke:#0000ff"
         d="m 1198,1793 85,21 -91,-11 -55,-73 61,63"
         id="path4457" />
      <path
         style="stroke:#0000ff"
         d="m 1183,1818 85,9 -90,0 -46,-78 51,69"
         id="path4455" />
      <path
         style="stroke:#0000ff"
         d="m 1165,1835 -46,78 34,-78 -34,-78 46,78"
         id="path4453" />
      <path
         style="stroke:#0000ff"
         d="m 1178,1843 90,0 -85,9 -51,69 46,-78"
         id="path4451" />
      <path
         style="stroke:#0000ff"
         d="m 1192,1867 91,-11 -85,21 -61,63 55,-73"
         id="path4449" />
      <path
         style="stroke:#0000ff"
         d="m 1206,1891 89,-22 -83,33 -70,55 64,-66"
         id="path4447" />
      <path
         style="stroke:#0000ff"
         d="m 1219,1915 85,-34 -156,91 71,-57"
         id="path4445" />
      <path
         style="stroke:#0000ff"
         d="m 1110,1659 144,36 103,107 -247,-143"
         id="path4443" />
      <path
         style="stroke:#0000ff"
         d="m 1192,1475 91,-11 -85,21 -61,63 55,-73"
         id="path4441" />
      <path
         style="stroke:#0000ff"
         d="m 1132,1529 46,-78 90,0 -85,9 -51,69"
         id="path4439" />
      <path
         style="stroke:#0000ff"
         d="m 1206,1499 89,-22 -82,33 -1,0 -70,55 64,-66"
         id="path4437" />
      <path
         style="stroke:#0000ff"
         d="m 1219,1523 85,-34 -156,91 71,-57"
         id="path4435" />
      <path
         style="stroke:#0000ff"
         d="m 1212,1376 83,33 -89,-22 -64,-66 70,55"
         id="path4433" />
      <path
         style="stroke:#0000ff"
         d="m 1148,1307 156,90 -85,-34 -71,-56"
         id="path4431" />
      <path
         style="stroke:#0000ff"
         d="m 1198,1401 85,21 -91,-10 -55,-74 61,63"
         id="path4429" />
      <path
         style="stroke:#0000ff"
         d="m 1183,1426 85,10 -90,0 -46,-79 51,69"
         id="path4427" />
      <path
         style="stroke:#0000ff"
         d="m 1165,1443 -46,78 34,-78 -34,-78 46,78"
         id="path4425" />
      <path
         style="stroke:#0000ff"
         d="m 1357,1476 -103,107 -144,36 247,-143"
         id="path4423" />
      <path
         style="stroke:#0000ff"
         d="m 1262,1597 100,-104 -80,139 -160,0 140,-35"
         id="path4421" />
      <path
         style="stroke:#0000ff"
         d="m 1254,1303 103,107 -247,-143 144,36"
         id="path4419" />
      <path
         style="stroke:#0000ff"
         d="m 1122,1255 160,0 80,138 -100,-104 -140,-34"
         id="path4417" />
      <path
         style="stroke:#0000ff"
         d="m 1137,1443 -37,84 25,-84 -25,-84 37,84"
         id="path4415" />
      <path
         style="stroke:#0000ff"
         d="m 1137,1835 -37,84 25,-84 -25,-84 37,84"
         id="path4413" />
      <path
         style="stroke:#0000ff"
         d="m 1357,1868 -103,107 -144,36 247,-143"
         id="path4411" />
      <path
         style="stroke:#0000ff"
         d="m 1262,1989 100,-104 -80,138 -160,0 140,-34"
         id="path4409" />
      <path
         style="stroke:#0000ff"
         d="m 1262,1681 -140,-34 160,0 80,138 -100,-104"
         id="path4407" />
      <path
         style="stroke:#0000ff"
         d="m 1295,1639 80,-138 -40,138 40,138 -80,-138"
         id="path4405" />
      <path
         style="stroke:#0000ff"
         d="m 1295,1247 80,-138 -40,138 40,139 -80,-139"
         id="path4403" />
      <path
         style="stroke:#0000ff"
         d="m 1282,1240 -160,0 140,-35 100,-104 -80,139"
         id="path4401" />
      <path
         style="stroke:#0000ff"
         d="m 1254,1191 -144,36 247,-142 -103,106"
         id="path4399" />
      <path
         style="stroke:#0000ff"
         d="m 1198,1093 -61,64 55,-74 91,-11 -85,21"
         id="path4397" />
      <path
         style="stroke:#0000ff"
         d="m 1295,1085 -82,33 -1,0 -70,55 64,-66 89,-22"
         id="path4395" />
      <path
         style="stroke:#0000ff"
         d="m 1183,1069 -51,68 46,-78 90,0 -85,10"
         id="path4393" />
      <path
         style="stroke:#0000ff"
         d="m 1148,1188 71,-57 85,-34 -156,91"
         id="path4391" />
      <path
         style="stroke:#0000ff"
         d="m 1212,984 83,33 -89,-22 -64,-66 70,55"
         id="path4389" />
      <path
         style="stroke:#0000ff"
         d="m 1148,915 156,90 -85,-34 -71,-56"
         id="path4387" />
      <path
         style="stroke:#0000ff"
         d="m 1198,1009 85,21 -91,-10 -55,-74 61,63"
         id="path4385" />
      <path
         style="stroke:#0000ff"
         d="m 1183,1034 85,10 -90,0 -46,-78 51,68"
         id="path4383" />
      <path
         style="stroke:#0000ff"
         d="m 1165,1051 -46,78 34,-78 -34,-78 46,78"
         id="path4381" />
      <path
         style="stroke:#0000ff"
         d="m 1137,1051 -37,84 25,-84 -25,-84 37,84"
         id="path4379" />
      <path
         style="stroke:#0000ff"
         d="m 1125,2227 -25,-84 37,84 -37,84 25,-84"
         id="path4377" />
      <path
         style="stroke:#0000ff"
         d="m 1153,2227 -34,-78 46,78 -46,78 34,-78"
         id="path4375" />
      <path
         style="stroke:#0000ff"
         d="m 1198,2185 85,21 -91,-11 -55,-73 61,63"
         id="path4373" />
      <path
         style="stroke:#0000ff"
         d="m 1142,2105 70,55 83,33 -89,-22 -64,-66"
         id="path4371" />
      <path
         style="stroke:#0000ff"
         d="m 1183,2210 85,9 -90,0 -46,-78 51,69"
         id="path4369" />
      <path
         style="stroke:#0000ff"
         d="m 1178,2235 90,0 -85,9 -51,69 46,-78"
         id="path4367" />
      <path
         style="stroke:#0000ff"
         d="m 1192,2259 91,-11 -85,21 -61,63 55,-73"
         id="path4365" />
      <path
         style="stroke:#0000ff"
         d="m 1206,2283 89,-22 -83,33 -70,55 64,-66"
         id="path4363" />
      <path
         style="stroke:#0000ff"
         d="m 1219,2307 85,-34 -156,91 71,-57"
         id="path4361" />
      <path
         style="stroke:#0000ff"
         d="m 1219,2147 -71,-57 156,91 -85,-34"
         id="path4359" />
      <path
         style="stroke:#0000ff"
         d="m 1110,2051 144,36 103,107 -247,-143"
         id="path4357" />
      <path
         style="stroke:#0000ff"
         d="m 1262,2073 -140,-34 160,0 80,138 -100,-104"
         id="path4355" />
      <path
         style="stroke:#0000ff"
         d="m 1295,2031 80,-138 -40,138 40,138 -80,-138"
         id="path4353" />
      <path
         style="stroke:#0000ff"
         d="m 1351,2031 41,-142 0,284 -41,-142"
         id="path4351" />
      <path
         style="stroke:#0000ff"
         d="m 1351,1639 41,-142 0,284 -41,-142"
         id="path4349" />
      <path
         style="stroke:#0000ff"
         d="m 1351,1247 41,-142 0,285 -41,-143"
         id="path4347" />
      <path
         style="stroke:#0000ff"
         d="m 1068,1925 0,-180 13,90 -13,90"
         id="path4345" />
      <path
         style="stroke:#0000ff"
         d="m 1081,2227 -13,90 0,-181 13,91"
         id="path4343" />
      <path
         style="stroke:#0000ff"
         d="m 1068,1534 0,-181 13,90 -13,91"
         id="path4341" />
      <path
         style="stroke:#0000ff"
         d="m 1068,1142 0,-181 13,90 -13,91"
         id="path4339" />
      <path
         style="stroke:#0000ff"
         d="m 744,1943 25,88 -25,88 13,-87 0,-1 -13,-88"
         id="path4337" />
      <path
         style="stroke:#0000ff"
         d="m 744,1551 25,88 -25,88 13,-88 -13,-88"
         id="path4335" />
      <path
         style="stroke:#0000ff"
         d="m 744,1159 25,88 -25,88 13,-88 -13,-88"
         id="path4333" />
      <path
         style="stroke:#0000ff"
         d="m 783,1827 140,-34 100,-104 -80,138 -160,0"
         id="path4331" />
      <path
         style="stroke:#0000ff"
         d="m 1023,1981 -100,-104 -140,-34 160,0 80,138"
         id="path4329" />
      <path
         style="stroke:#0000ff"
         d="m 858,1597 85,21 -91,-11 -54,-73 60,63"
         id="path4327" />
      <path
         style="stroke:#0000ff"
         d="m 802,1517 70,55 83,33 -89,-22 -64,-66"
         id="path4325" />
      <path
         style="stroke:#0000ff"
         d="m 844,1622 84,10 -90,0 -45,-79 51,69"
         id="path4323" />
      <path
         style="stroke:#0000ff"
         d="m 928,1647 -84,9 -51,69 45,-78 90,0"
         id="path4321" />
      <path
         style="stroke:#0000ff"
         d="m 852,1671 91,-11 -85,21 -60,63 54,-73"
         id="path4319" />
      <path
         style="stroke:#0000ff"
         d="m 866,1695 89,-22 -83,33 -70,55 64,-66"
         id="path4317" />
      <path
         style="stroke:#0000ff"
         d="m 880,1719 85,-34 -157,91 72,-57"
         id="path4315" />
      <path
         style="stroke:#0000ff"
         d="m 880,1559 -72,-57 157,91 -85,-34"
         id="path4313" />
      <path
         style="stroke:#0000ff"
         d="m 771,1463 144,36 103,107 -247,-143"
         id="path4311" />
      <path
         style="stroke:#0000ff"
         d="m 825,1639 -45,78 34,-78 -34,-78 45,78"
         id="path4309" />
      <path
         style="stroke:#0000ff"
         d="m 1018,1672 -103,107 -144,36 247,-143"
         id="path4307" />
      <path
         style="stroke:#0000ff"
         d="m 923,1485 -140,-34 160,0 80,138 -100,-104"
         id="path4305" />
      <path
         style="stroke:#0000ff"
         d="m 783,1436 140,-35 100,-104 -80,139 -160,0"
         id="path4303" />
      <path
         style="stroke:#0000ff"
         d="m 915,1107 103,107 -247,-143 144,36"
         id="path4301" />
      <path
         style="stroke:#0000ff"
         d="m 783,1059 160,0 80,138 -100,-104 -140,-34"
         id="path4299" />
      <path
         style="stroke:#0000ff"
         d="m 858,1205 85,21 -91,-10 -54,-74 60,63"
         id="path4297" />
      <path
         style="stroke:#0000ff"
         d="m 802,1125 70,55 83,33 -89,-22 -64,-66"
         id="path4295" />
      <path
         style="stroke:#0000ff"
         d="m 844,1230 84,10 -90,0 -45,-79 51,69"
         id="path4293" />
      <path
         style="stroke:#0000ff"
         d="m 928,1255 -84,10 -51,68 45,-78 90,0"
         id="path4291" />
      <path
         style="stroke:#0000ff"
         d="m 852,1279 91,-11 -85,21 -60,63 54,-73"
         id="path4289" />
      <path
         style="stroke:#0000ff"
         d="m 866,1303 89,-22 -83,33 -70,55 64,-66"
         id="path4287" />
      <path
         style="stroke:#0000ff"
         d="m 880,1327 85,-34 -157,91 72,-57"
         id="path4285" />
      <path
         style="stroke:#0000ff"
         d="m 880,1167 -72,-56 157,90 -85,-34"
         id="path4283" />
      <path
         style="stroke:#0000ff"
         d="m 825,1247 -45,78 34,-78 -34,-78 45,78"
         id="path4281" />
      <path
         style="stroke:#0000ff"
         d="m 1018,1281 -103,106 -144,36 247,-142"
         id="path4279" />
      <path
         style="stroke:#0000ff"
         d="m 797,1639 -36,84 24,-84 -24,-84 36,84"
         id="path4277" />
      <path
         style="stroke:#0000ff"
         d="m 915,1891 103,107 -247,-143 144,36"
         id="path4275" />
      <path
         style="stroke:#0000ff"
         d="m 858,1989 85,21 -91,-11 -54,-73 60,63"
         id="path4273" />
      <path
         style="stroke:#0000ff"
         d="m 802,1909 70,55 83,33 -89,-22 -64,-66"
         id="path4271" />
      <path
         style="stroke:#0000ff"
         d="m 844,2014 84,9 -90,0 -45,-78 51,69"
         id="path4269" />
      <path
         style="stroke:#0000ff"
         d="m 928,2039 -84,9 -51,69 45,-78 90,0"
         id="path4267" />
      <path
         style="stroke:#0000ff"
         d="m 852,2063 91,-11 -85,21 -60,63 54,-73"
         id="path4265" />
      <path
         style="stroke:#0000ff"
         d="m 866,2087 89,-22 -83,33 -70,55 64,-66"
         id="path4263" />
      <path
         style="stroke:#0000ff"
         d="m 880,2111 85,-34 -157,91 72,-57"
         id="path4261" />
      <path
         style="stroke:#0000ff"
         d="m 880,1951 -72,-57 157,91 -85,-34"
         id="path4259" />
      <path
         style="stroke:#0000ff"
         d="m 825,2031 -45,78 34,-78 -34,-78 45,78"
         id="path4257" />
      <path
         style="stroke:#0000ff"
         d="m 1018,2064 -103,107 -144,36 247,-143"
         id="path4255" />
      <path
         style="stroke:#0000ff"
         d="m 923,2185 100,-104 -80,138 -160,0 140,-34"
         id="path4253" />
      <path
         style="stroke:#0000ff"
         d="m 956,1835 80,-138 -40,138 40,138 -80,-138"
         id="path4251" />
      <path
         style="stroke:#0000ff"
         d="m 956,1443 80,-138 -40,138 40,138 -80,-138"
         id="path4249" />
      <path
         style="stroke:#0000ff"
         d="m 956,1051 80,-138 -40,138 40,139 -80,-139"
         id="path4247" />
      <path
         style="stroke:#0000ff"
         d="m 943,1044 -160,0 140,-35 100,-104 -80,139"
         id="path4245" />
      <path
         style="stroke:#0000ff"
         d="M 915,995 771,1031 1018,889 915,995"
         id="path4243" />
      <path
         style="stroke:#0000ff"
         d="m 797,1247 -36,84 24,-84 -24,-84 36,84"
         id="path4241" />
      <path
         style="stroke:#0000ff"
         d="m 785,2031 -24,-84 36,84 -36,84 24,-84"
         id="path4239" />
      <path
         style="stroke:#0000ff"
         d="m 915,2283 103,107 -247,-143 144,36"
         id="path4237" />
      <path
         style="stroke:#0000ff"
         d="m 923,2269 -140,-34 160,0 80,138 -100,-104"
         id="path4235" />
      <path
         style="stroke:#0000ff"
         d="m 956,2227 80,-138 -40,138 40,138 -80,-138"
         id="path4233" />
      <path
         style="stroke:#0000ff"
         d="m 1011,2227 42,-142 0,284 -42,-142"
         id="path4231" />
      <path
         style="stroke:#0000ff"
         d="m 1011,1835 42,-142 0,284 -42,-142"
         id="path4229" />
      <path
         style="stroke:#0000ff"
         d="m 1011,1443 42,-142 0,285 -42,-143"
         id="path4227" />
      <path
         style="stroke:#0000ff"
         d="m 1011,1051 42,-142 0,285 -42,-143"
         id="path4225" />
      <path
         style="stroke:#0000ff"
         d="m 728,1730 0,-181 13,90 -13,91"
         id="path4223" />
      <path
         style="stroke:#0000ff"
         d="m 741,2031 -13,90 0,-180 13,90"
         id="path4221" />
      <path
         style="stroke:#0000ff"
         d="m 728,1338 0,-181 13,90 -13,91"
         id="path4219" />
      <path
         style="stroke:#0000ff"
         d="m 405,1747 25,88 -25,88 12,-87 0,-1 -12,-88"
         id="path4217" />
      <path
         style="stroke:#0000ff"
         d="m 405,1355 25,88 -25,88 12,-88 -12,-88"
         id="path4215" />
      <path
         style="stroke:#0000ff"
         d="m 513,1475 91,-11 -85,21 -61,63 55,-73"
         id="path4213" />
      <path
         style="stroke:#0000ff"
         d="m 454,1529 45,-78 90,0 -85,9 -50,69"
         id="path4211" />
      <path
         style="stroke:#0000ff"
         d="m 527,1499 89,-22 -83,33 -70,55 64,-66"
         id="path4209" />
      <path
         style="stroke:#0000ff"
         d="m 541,1523 85,-34 -157,91 72,-57"
         id="path4207" />
      <path
         style="stroke:#0000ff"
         d="m 533,1376 83,33 -89,-22 -64,-66 70,55"
         id="path4205" />
      <path
         style="stroke:#0000ff"
         d="m 469,1307 157,90 -85,-34 -72,-56"
         id="path4203" />
      <path
         style="stroke:#0000ff"
         d="m 519,1401 85,21 -91,-10 -55,-74 61,63"
         id="path4201" />
      <path
         style="stroke:#0000ff"
         d="m 504,1426 85,10 -90,0 -45,-79 50,69"
         id="path4199" />
      <path
         style="stroke:#0000ff"
         d="m 486,1443 -45,78 33,-78 -33,-78 45,78"
         id="path4197" />
      <path
         style="stroke:#0000ff"
         d="m 678,1476 -103,107 -143,36 246,-143"
         id="path4195" />
      <path
         style="stroke:#0000ff"
         d="m 683,1493 -80,139 -159,0 139,-35 100,-104"
         id="path4193" />
      <path
         style="stroke:#0000ff"
         d="m 575,1695 103,107 -246,-143 143,36"
         id="path4191" />
      <path
         style="stroke:#0000ff"
         d="m 533,1768 83,33 -89,-22 -64,-66 70,55"
         id="path4189" />
      <path
         style="stroke:#0000ff"
         d="m 469,1698 157,91 -85,-34 -72,-57"
         id="path4187" />
      <path
         style="stroke:#0000ff"
         d="m 519,1793 85,21 -91,-11 -55,-73 61,63"
         id="path4185" />
      <path
         style="stroke:#0000ff"
         d="m 504,1818 85,9 -90,0 -45,-78 50,69"
         id="path4183" />
      <path
         style="stroke:#0000ff"
         d="m 589,1843 -85,9 -50,69 45,-78 90,0"
         id="path4181" />
      <path
         style="stroke:#0000ff"
         d="m 513,1867 91,-11 -85,21 -61,63 55,-73"
         id="path4179" />
      <path
         style="stroke:#0000ff"
         d="m 527,1891 89,-22 -83,33 -70,55 64,-66"
         id="path4177" />
      <path
         style="stroke:#0000ff"
         d="m 541,1915 85,-34 -157,91 72,-57"
         id="path4175" />
      <path
         style="stroke:#0000ff"
         d="m 486,1835 -45,78 33,-78 -33,-78 45,78"
         id="path4173" />
      <path
         style="stroke:#0000ff"
         d="m 678,1868 -103,107 -143,36 246,-143"
         id="path4171" />
      <path
         style="stroke:#0000ff"
         d="m 583,1989 100,-104 -80,138 -159,0 139,-34"
         id="path4169" />
      <path
         style="stroke:#0000ff"
         d="m 583,1681 -139,-34 159,0 80,138 -100,-104"
         id="path4167" />
      <path
         style="stroke:#0000ff"
         d="m 616,1639 80,-138 -40,138 40,138 -80,-138"
         id="path4165" />
      <path
         style="stroke:#0000ff"
         d="m 616,1247 80,-138 -40,138 40,139 -80,-139"
         id="path4163" />
      <path
         style="stroke:#0000ff"
         d="m 683,1393 -100,-104 -139,-34 159,0 80,138"
         id="path4161" />
      <path
         style="stroke:#0000ff"
         d="m 603,1240 -159,0 139,-35 100,-104 -80,139"
         id="path4159" />
      <path
         style="stroke:#0000ff"
         d="m 575,1191 -143,36 246,-142 -103,106"
         id="path4157" />
      <path
         style="stroke:#0000ff"
         d="m 575,1303 103,107 -246,-143 143,36"
         id="path4155" />
      <path
         style="stroke:#0000ff"
         d="m 458,1443 -37,84 25,-84 -25,-84 37,84"
         id="path4153" />
      <path
         style="stroke:#0000ff"
         d="m 446,1835 -25,-84 37,84 -37,84 25,-84"
         id="path4151" />
      <path
         style="stroke:#0000ff"
         d="m 575,2087 103,107 -246,-143 143,36"
         id="path4149" />
      <path
         style="stroke:#0000ff"
         d="m 583,2073 -139,-34 159,0 80,138 -100,-104"
         id="path4147" />
      <path
         style="stroke:#0000ff"
         d="m 616,2031 80,-138 -40,138 40,138 -80,-138"
         id="path4145" />
      <path
         style="stroke:#0000ff"
         d="m 672,2031 41,-142 0,284 -41,-142"
         id="path4143" />
      <path
         style="stroke:#0000ff"
         d="m 672,1639 41,-142 0,284 -41,-142"
         id="path4141" />
      <path
         style="stroke:#0000ff"
         d="m 672,1247 41,-142 0,285 -41,-143"
         id="path4139" />
      <path
         style="stroke:#0000ff"
         d="m 389,1534 0,-181 13,90 -13,91"
         id="path4137" />
      <path
         style="stroke:#0000ff"
         d="m 402,1835 -13,90 0,-180 13,90"
         id="path12" />
    </g>
  </g>
</svg>
