  0
SECTION
  2
HEADER
  9
$ACADVER
  1
AC1014
  9
$HANDSEED
  5
FFFF
  9
$MEASUREMENT
 70
     1
  0
ENDSEC
  0
SECTION
  2
TABLES
  0
TABLE
  2
VPORT
  5
8
330
0
100
AcDbSymbolTable
 70
     4
  0
VPORT
  5
2E
330
8
100
AcDbSymbolTableRecord
100
AcDbViewportTableRecord
  2
*ACTIVE
 70
     0
 10
0.0
 20
0.0
 11
1.0
 21
1.0
 12
210.0
 22
148.5
 13
0.0
 23
0.0
 14
10.0
 24
10.0
 15
10.0
 25
10.0
 16
0.0
 26
0.0
 36
1.0
 17
0.0
 27
0.0
 37
0.0
 40
341.0
 41
1.24
 42
50.0
 43
0.0
 44
0.0
 50
0.0
 51
0.0
 71
     0
 72
   100
 73
     1
 74
     3
 75
     0
 76
     0
 77
     0
 78
     0
  0
ENDTAB
  0
TABLE
  2
LTYPE
  5
5
330
0
100
AcDbSymbolTable
 70
     1
  0
LTYPE
  5
14
330
5
100
AcDbSymbolTableRecord
100
AcDbLinetypeTableRecord
  2
BYBLOCK
 70
     0
  3

 72
    65
 73
     0
 40
0.0
  0
LTYPE
  5
15
330
5
100
AcDbSymbolTableRecord
100
AcDbLinetypeTableRecord
  2
BYLAYER
 70
     0
  3

 72
    65
 73
     0
 40
0.0
  0
LTYPE
  5
16
330
5
100
AcDbSymbolTableRecord
100
AcDbLinetypeTableRecord
  2
CONTINUOUS
 70
     0
  3
Solid line
 72
    65
 73
     0
 40
0.0
  0
ENDTAB
  0
TABLE
  2
LAYER
  5
2
100
AcDbSymbolTable
 70
2
  0
LAYER
  5
50
100
AcDbSymbolTableRecord
100
AcDbLayerTableRecord
  2
0
 70
0
  6
CONTINUOUS
  0
LAYER
  5
51
100
AcDbSymbolTableRecord
100
AcDbLayerTableRecord
  2
Layer_1
 70
0
  6
CONTINUOUS
  0
ENDTAB
  0
TABLE
  2
STYLE
  5
3
330
0
100
AcDbSymbolTable
 70
     1
  0
STYLE
  5
11
330
3
100
AcDbSymbolTableRecord
100
AcDbTextStyleTableRecord
  2
STANDARD
 70
     0
 40
0.0
 41
1.0
 50
0.0
 71
     0
 42
2.5
  3
txt
  4

  0
ENDTAB
  0
TABLE
  2
VIEW
  5
6
330
0
100
AcDbSymbolTable
 70
     0
  0
ENDTAB
  0
TABLE
  2
UCS
  5
7
330
0
100
AcDbSymbolTable
 70
     0
  0
ENDTAB
  0
TABLE
  2
APPID
  5
9
330
0
100
AcDbSymbolTable
 70
     2
  0
APPID
  5
12
330
9
100
AcDbSymbolTableRecord
100
AcDbRegAppTableRecord
  2
ACAD
 70
     0
  0
ENDTAB
  0
TABLE
  2
DIMSTYLE
  5
A
330
0
100
AcDbSymbolTable
 70
     1
  0
DIMSTYLE
105
27
330
A
100
AcDbSymbolTableRecord
100
AcDbDimStyleTableRecord
  2
ISO-25
 70
     0
  3

  4

  5

  6

  7

 40
1.0
 41
2.5
 42
0.625
 43
3.75
 44
1.25
 45
0.0
 46
0.0
 47
0.0
 48
0.0
140
2.5
141
2.5
142
0.0
143
0.03937007874016
144
1.0
145
0.0
146
1.0
147
0.625
 71
     0
 72
     0
 73
     0
 74
     0
 75
     0
 76
     0
 77
     1
 78
     8
170
     0
171
     3
172
     1
173
     0
174
     0
175
     0
176
     0
177
     0
178
     0
270
     2
271
     2
272
     2
273
     2
274
     3
340
11
275
     0
280
     0
281
     0
282
     0
283
     0
284
     8
285
     0
286
     0
287
     3
288
     0
  0
ENDTAB
  0
TABLE
  2
BLOCK_RECORD
  5
1
330
0
100
AcDbSymbolTable
 70
     1
  0
BLOCK_RECORD
  5
1F
330
1
100
AcDbSymbolTableRecord
100
AcDbBlockTableRecord
  2
*MODEL_SPACE
  0
BLOCK_RECORD
  5
1B
330
1
100
AcDbSymbolTableRecord
100
AcDbBlockTableRecord
  2
*PAPER_SPACE
  0
ENDTAB
  0
ENDSEC
  0
SECTION
  2
BLOCKS
  0
BLOCK
  5
20
330
1F
100
AcDbEntity
  8
0
100
AcDbBlockBegin
  2
*MODEL_SPACE
 70
     0
 10
0.0
 20
0.0
 30
0.0
  3
*MODEL_SPACE
  1

  0
ENDBLK
  5
21
330
1F
100
AcDbEntity
  8
0
100
AcDbBlockEnd
  0
BLOCK
  5
1C
330
1B
100
AcDbEntity
 67
     1
  8
0
100
AcDbBlockBegin
  2
*PAPER_SPACE
  1

  0
ENDBLK
  5
1D
330
1B
100
AcDbEntity
 67
     1
  8
0
100
AcDbBlockEnd
  0
ENDSEC
  0
SECTION
  2
ENTITIES
  0
LWPOLYLINE
  5
100
100
AcDbEntity
  8
Layer_1
 62
1
100
AcDbPolyline
 90
7
 70
0
 10
53.641483
 20
23.577294
 30
0.0
 10
41.616086
 20
44.377203
 30
0.0
 10
17.622830
 20
44.377203
 30
0.0
 10
5.597433
 20
23.577294
 30
0.0
 10
17.622830
 20
2.777385
 30
0.0
 10
41.616086
 20
2.777385
 30
0.0
 10
53.641483
 20
23.577294
 30
0.0
  0
LWPOLYLINE
  5
101
100
AcDbEntity
  8
Layer_1
 62
5
100
AcDbPolyline
 90
6
 70
0
 10
20.873715
 20
13.134186
 30
0.0
 10
18.342052
 20
12.414964
 30
0.0
 10
15.810390
 20
13.134186
 30
0.0
 10
18.313283
 20
12.788960
 30
0.0
 10
18.342052
 20
12.788960
 30
0.0
 10
20.873715
 20
13.134186
 30
0.0
  0
LWPOLYLINE
  5
102
100
AcDbEntity
  8
Layer_1
 62
5
100
AcDbPolyline
 90
5
 70
0
 10
32.151120
 20
13.134186
 30
0.0
 10
29.619458
 20
12.414964
 30
0.0
 10
27.087795
 20
13.134186
 30
0.0
 10
29.619458
 20
12.788960
 30
0.0
 10
32.151120
 20
13.134186
 30
0.0
  0
LWPOLYLINE
  5
103
100
AcDbEntity
  8
Layer_1
 62
5
100
AcDbPolyline
 90
5
 70
0
 10
43.428526
 20
13.134186
 30
0.0
 10
40.896864
 20
12.414964
 30
0.0
 10
38.365201
 20
13.134186
 30
0.0
 10
40.896864
 20
12.788960
 30
0.0
 10
43.428526
 20
13.134186
 30
0.0
  0
LWPOLYLINE
  5
104
100
AcDbEntity
  8
Layer_1
 62
5
100
AcDbPolyline
 90
5
 70
0
 10
30.827751
 20
9.854533
 30
0.0
 10
30.223605
 20
7.409177
 30
0.0
 10
30.540062
 20
10.027146
 30
0.0
 10
32.640192
 20
11.609435
 30
0.0
 10
30.827751
 20
9.854533
 30
0.0
  0
LWPOLYLINE
  5
105
100
AcDbEntity
  8
Layer_1
 62
5
100
AcDbPolyline
 90
5
 70
0
 10
33.129263
 20
11.465591
 30
0.0
 10
31.546974
 20
9.451768
 30
0.0
 10
30.597600
 20
7.063950
 30
0.0
 10
31.230516
 20
9.624382
 30
0.0
 10
33.129263
 20
11.465591
 30
0.0
  0
LWPOLYLINE
  5
106
100
AcDbEntity
  8
Layer_1
 62
5
100
AcDbPolyline
 90
5
 70
0
 10
30.108529
 20
10.257297
 30
0.0
 10
29.820840
 20
7.840710
 30
0.0
 10
29.820840
 20
10.429910
 30
0.0
 10
32.093583
 20
11.724511
 30
0.0
 10
30.108529
 20
10.257297
 30
0.0
  0
LWPOLYLINE
  5
107
100
AcDbEntity
  8
Layer_1
 62
5
100
AcDbPolyline
 90
5
 70
0
 10
29.619458
 20
10.803906
 30
0.0
 10
27.375484
 20
12.098506
 30
0.0
 10
29.619458
 20
11.120364
 30
0.0
 10
31.863431
 20
12.098506
 30
0.0
 10
29.619458
 20
10.803906
 30
0.0
  0
LWPOLYLINE
  5
108
100
AcDbEntity
  8
Layer_1
 62
5
100
AcDbPolyline
 90
5
 70
0
 10
29.389307
 20
10.429910
 30
0.0
 10
29.389307
 20
7.840710
 30
0.0
 10
29.130387
 20
10.257297
 30
0.0
 10
27.145333
 20
11.724511
 30
0.0
 10
29.389307
 20
10.429910
 30
0.0
  0
LWPOLYLINE
  5
109
100
AcDbEntity
  8
Layer_1
 62
5
100
AcDbPolyline
 90
5
 70
0
 10
28.698853
 20
10.027146
 30
0.0
 10
29.015311
 20
7.409177
 30
0.0
 10
28.411164
 20
9.854533
 30
0.0
 10
26.598724
 20
11.609435
 30
0.0
 10
28.698853
 20
10.027146
 30
0.0
  0
LWPOLYLINE
  5
10a
100
AcDbEntity
  8
Layer_1
 62
5
100
AcDbPolyline
 90
5
 70
0
 10
28.008400
 20
9.624382
 30
0.0
 10
28.641316
 20
7.063950
 30
0.0
 10
27.691942
 20
9.451768
 30
0.0
 10
26.109653
 20
11.465591
 30
0.0
 10
28.008400
 20
9.624382
 30
0.0
  0
LWPOLYLINE
  5
10b
100
AcDbEntity
  8
Layer_1
 62
5
100
AcDbPolyline
 90
4
 70
0
 10
27.317946
 20
9.221617
 30
0.0
 10
28.296089
 20
6.776261
 30
0.0
 10
25.678120
 20
11.292977
 30
0.0
 10
27.317946
 20
9.221617
 30
0.0
  0
LWPOLYLINE
  5
10c
100
AcDbEntity
  8
Layer_1
 62
5
100
AcDbPolyline
 90
4
 70
0
 10
31.920969
 20
9.221617
 30
0.0
 10
33.560796
 20
11.292977
 30
0.0
 10
30.942827
 20
6.776261
 30
0.0
 10
31.920969
 20
9.221617
 30
0.0
  0
LWPOLYLINE
  5
10d
100
AcDbEntity
  8
Layer_1
 62
5
100
AcDbPolyline
 90
4
 70
0
 10
34.682783
 20
12.357426
 30
0.0
 10
33.647103
 20
8.214706
 30
0.0
 10
30.568831
 20
5.280279
 30
0.0
 10
34.682783
 20
12.357426
 30
0.0
  0
LWPOLYLINE
  5
10e
100
AcDbEntity
  8
Layer_1
 62
5
100
AcDbPolyline
 90
5
 70
0
 10
29.619458
 20
11.609435
 30
0.0
 10
27.202871
 20
12.645115
 30
0.0
 10
29.619458
 20
11.954662
 30
0.0
 10
32.036045
 20
12.645115
 30
0.0
 10
29.619458
 20
11.609435
 30
0.0
  0
LWPOLYLINE
  5
10f
100
AcDbEntity
  8
Layer_1
 62
5
100
AcDbPolyline
 90
4
 70
0
 10
28.670084
 20
5.280279
 30
0.0
 10
25.591813
 20
8.214706
 30
0.0
 10
24.556133
 20
12.357426
 30
0.0
 10
28.670084
 20
5.280279
 30
0.0
  0
LWPOLYLINE
  5
110
100
AcDbEntity
  8
Layer_1
 62
5
100
AcDbPolyline
 90
5
 70
0
 10
25.189048
 20
8.013324
 30
0.0
 10
28.181013
 20
5.136434
 30
0.0
 10
24.210906
 20
7.437946
 30
0.0
 10
24.210906
 20
12.012200
 30
0.0
 10
25.189048
 20
8.013324
 30
0.0
  0
LWPOLYLINE
  5
111
100
AcDbEntity
  8
Layer_1
 62
5
100
AcDbPolyline
 90
5
 70
0
 10
34.049867
 20
8.013324
 30
0.0
 10
35.028010
 20
12.012200
 30
0.0
 10
35.028010
 20
7.437946
 30
0.0
 10
31.057902
 20
5.136434
 30
0.0
 10
34.049867
 20
8.013324
 30
0.0
  0
LWPOLYLINE
  5
112
100
AcDbEntity
  8
Layer_1
 62
5
100
AcDbPolyline
 90
5
 70
0
 10
35.258161
 20
7.035181
 30
0.0
 10
39.228268
 20
4.762439
 30
0.0
 10
35.258161
 20
5.913194
 30
0.0
 10
31.288054
 20
4.762439
 30
0.0
 10
35.258161
 20
7.035181
 30
0.0
  0
LWPOLYLINE
  5
113
100
AcDbEntity
  8
Layer_1
 62
5
100
AcDbPolyline
 90
5
 70
0
 10
35.459543
 20
7.437946
 30
0.0
 10
35.459543
 20
12.012200
 30
0.0
 10
36.466454
 20
8.013324
 30
0.0
 10
39.458419
 20
5.136434
 30
0.0
 10
35.459543
 20
7.437946
 30
0.0
  0
LWPOLYLINE
  5
114
100
AcDbEntity
  8
Layer_1
 62
5
100
AcDbPolyline
 90
4
 70
0
 10
36.869219
 20
8.214706
 30
0.0
 10
35.833539
 20
12.357426
 30
0.0
 10
39.918721
 20
5.280279
 30
0.0
 10
36.869219
 20
8.214706
 30
0.0
  0
LWPOLYLINE
  5
115
100
AcDbEntity
  8
Layer_1
 62
5
100
AcDbPolyline
 90
6
 70
0
 10
38.969348
 20
9.422999
 30
0.0
 10
38.969348
 20
9.451768
 30
0.0
 10
37.387059
 20
11.465591
 30
0.0
 10
39.285806
 20
9.624382
 30
0.0
 10
39.918721
 20
7.063950
 30
0.0
 10
38.969348
 20
9.422999
 30
0.0
  0
LWPOLYLINE
  5
116
100
AcDbEntity
  8
Layer_1
 62
5
100
AcDbPolyline
 90
4
 70
0
 10
39.573495
 20
6.776261
 30
0.0
 10
36.955525
 20
11.292977
 30
0.0
 10
38.595352
 20
9.221617
 30
0.0
 10
39.573495
 20
6.776261
 30
0.0
  0
LWPOLYLINE
  5
117
100
AcDbEntity
  8
Layer_1
 62
5
100
AcDbPolyline
 90
5
 70
0
 10
39.688570
 20
9.854533
 30
0.0
 10
37.876130
 20
11.609435
 30
0.0
 10
39.976259
 20
10.027146
 30
0.0
 10
40.292717
 20
7.409177
 30
0.0
 10
39.688570
 20
9.854533
 30
0.0
  0
LWPOLYLINE
  5
118
100
AcDbEntity
  8
Layer_1
 62
5
100
AcDbPolyline
 90
5
 70
0
 10
40.379024
 20
10.257297
 30
0.0
 10
38.422739
 20
11.724511
 30
0.0
 10
40.666712
 20
10.429910
 30
0.0
 10
40.666712
 20
7.840710
 30
0.0
 10
40.379024
 20
10.257297
 30
0.0
  0
LWPOLYLINE
  5
119
100
AcDbEntity
  8
Layer_1
 62
5
100
AcDbPolyline
 90
4
 70
0
 10
43.198375
 20
9.221617
 30
0.0
 10
44.809433
 20
11.292977
 30
0.0
 10
42.220233
 20
6.776261
 30
0.0
 10
43.198375
 20
9.221617
 30
0.0
  0
LWPOLYLINE
  5
11a
100
AcDbEntity
  8
Layer_1
 62
5
100
AcDbPolyline
 90
5
 70
0
 10
42.824379
 20
9.451768
 30
0.0
 10
41.875006
 20
7.063950
 30
0.0
 10
42.507922
 20
9.624382
 30
0.0
 10
44.406668
 20
11.465591
 30
0.0
 10
42.824379
 20
9.451768
 30
0.0
  0
LWPOLYLINE
  5
11b
100
AcDbEntity
  8
Layer_1
 62
5
100
AcDbPolyline
 90
5
 70
0
 10
42.105157
 20
9.854533
 30
0.0
 10
41.501010
 20
7.409177
 30
0.0
 10
41.788699
 20
10.027146
 30
0.0
 10
43.917597
 20
11.609435
 30
0.0
 10
42.105157
 20
9.854533
 30
0.0
  0
LWPOLYLINE
  5
11c
100
AcDbEntity
  8
Layer_1
 62
5
100
AcDbPolyline
 90
5
 70
0
 10
41.385935
 20
10.257297
 30
0.0
 10
41.098246
 20
7.840710
 30
0.0
 10
41.098246
 20
10.429910
 30
0.0
 10
43.370988
 20
11.724511
 30
0.0
 10
41.385935
 20
10.257297
 30
0.0
  0
LWPOLYLINE
  5
11d
100
AcDbEntity
  8
Layer_1
 62
5
100
AcDbPolyline
 90
5
 70
0
 10
40.896864
 20
10.803906
 30
0.0
 10
38.652890
 20
12.098506
 30
0.0
 10
40.896864
 20
11.120364
 30
0.0
 10
43.140837
 20
12.098506
 30
0.0
 10
40.896864
 20
10.803906
 30
0.0
  0
LWPOLYLINE
  5
11e
100
AcDbEntity
  8
Layer_1
 62
5
100
AcDbPolyline
 90
5
 70
0
 10
40.896864
 20
11.609435
 30
0.0
 10
38.480277
 20
12.645115
 30
0.0
 10
40.896864
 20
11.954662
 30
0.0
 10
43.313451
 20
12.645115
 30
0.0
 10
40.896864
 20
11.609435
 30
0.0
  0
LWPOLYLINE
  5
11f
100
AcDbEntity
  8
Layer_1
 62
5
100
AcDbPolyline
 90
5
 70
0
 10
18.342052
 20
11.954662
 30
0.0
 10
20.758639
 20
12.645115
 30
0.0
 10
18.342052
 20
11.609435
 30
0.0
 10
15.925465
 20
12.645115
 30
0.0
 10
18.342052
 20
11.954662
 30
0.0
  0
LWPOLYLINE
  5
120
100
AcDbEntity
  8
Layer_1
 62
5
100
AcDbPolyline
 90
5
 70
0
 10
18.342052
 20
11.120364
 30
0.0
 10
20.586026
 20
12.098506
 30
0.0
 10
18.342052
 20
10.803906
 30
0.0
 10
16.098079
 20
12.098506
 30
0.0
 10
18.342052
 20
11.120364
 30
0.0
  0
LWPOLYLINE
  5
121
100
AcDbEntity
  8
Layer_1
 62
5
100
AcDbPolyline
 90
5
 70
0
 10
19.550346
 20
9.854533
 30
0.0
 10
18.946199
 20
7.409177
 30
0.0
 10
19.262657
 20
10.027146
 30
0.0
 10
21.362786
 20
11.609435
 30
0.0
 10
19.550346
 20
9.854533
 30
0.0
  0
LWPOLYLINE
  5
122
100
AcDbEntity
  8
Layer_1
 62
5
100
AcDbPolyline
 90
5
 70
0
 10
21.851857
 20
11.465591
 30
0.0
 10
20.269568
 20
9.451768
 30
0.0
 10
19.320194
 20
7.063950
 30
0.0
 10
19.953110
 20
9.624382
 30
0.0
 10
21.851857
 20
11.465591
 30
0.0
  0
LWPOLYLINE
  5
123
100
AcDbEntity
  8
Layer_1
 62
5
100
AcDbPolyline
 90
5
 70
0
 10
18.831123
 20
10.257297
 30
0.0
 10
18.572203
 20
7.840710
 30
0.0
 10
18.572203
 20
10.429910
 30
0.0
 10
20.816177
 20
11.724511
 30
0.0
 10
18.831123
 20
10.257297
 30
0.0
  0
LWPOLYLINE
  5
124
100
AcDbEntity
  8
Layer_1
 62
5
100
AcDbPolyline
 90
5
 70
0
 10
18.111901
 20
10.429910
 30
0.0
 10
18.111901
 20
7.840710
 30
0.0
 10
17.852981
 20
10.257297
 30
0.0
 10
15.867927
 20
11.724511
 30
0.0
 10
18.111901
 20
10.429910
 30
0.0
  0
LWPOLYLINE
  5
125
100
AcDbEntity
  8
Layer_1
 62
5
100
AcDbPolyline
 90
5
 70
0
 10
17.421448
 20
10.027146
 30
0.0
 10
17.737905
 20
7.409177
 30
0.0
 10
17.133759
 20
9.854533
 30
0.0
 10
15.321318
 20
11.609435
 30
0.0
 10
17.421448
 20
10.027146
 30
0.0
  0
LWPOLYLINE
  5
126
100
AcDbEntity
  8
Layer_1
 62
5
100
AcDbPolyline
 90
5
 70
0
 10
16.730994
 20
9.624382
 30
0.0
 10
17.363910
 20
7.063950
 30
0.0
 10
16.414536
 20
9.451768
 30
0.0
 10
14.832247
 20
11.465591
 30
0.0
 10
16.730994
 20
9.624382
 30
0.0
  0
LWPOLYLINE
  5
127
100
AcDbEntity
  8
Layer_1
 62
5
100
AcDbPolyline
 90
4
 70
0
 10
16.040541
 20
9.221617
 30
0.0
 10
17.018683
 20
6.776261
 30
0.0
 10
14.400714
 20
11.292977
 30
0.0
 10
16.040541
 20
9.221617
 30
0.0
  0
LWPOLYLINE
  5
128
100
AcDbEntity
  8
Layer_1
 62
5
100
AcDbPolyline
 90
4
 70
0
 10
20.643563
 20
9.221617
 30
0.0
 10
22.283390
 20
11.292977
 30
0.0
 10
19.665421
 20
6.776261
 30
0.0
 10
20.643563
 20
9.221617
 30
0.0
  0
LWPOLYLINE
  5
129
100
AcDbEntity
  8
Layer_1
 62
5
100
AcDbPolyline
 90
4
 70
0
 10
23.405377
 20
12.357426
 30
0.0
 10
22.369697
 20
8.214706
 30
0.0
 10
19.291426
 20
5.280279
 30
0.0
 10
23.405377
 20
12.357426
 30
0.0
  0
LWPOLYLINE
  5
12a
100
AcDbEntity
  8
Layer_1
 62
5
100
AcDbPolyline
 90
5
 70
0
 10
22.772462
 20
8.013324
 30
0.0
 10
23.750604
 20
12.012200
 30
0.0
 10
23.750604
 20
7.437946
 30
0.0
 10
19.780497
 20
5.136434
 30
0.0
 10
22.772462
 20
8.013324
 30
0.0
  0
LWPOLYLINE
  5
12b
100
AcDbEntity
  8
Layer_1
 62
5
100
AcDbPolyline
 90
5
 70
0
 10
23.980755
 20
7.035181
 30
0.0
 10
27.950862
 20
4.762439
 30
0.0
 10
23.980755
 20
5.913194
 30
0.0
 10
20.010648
 20
4.762439
 30
0.0
 10
23.980755
 20
7.035181
 30
0.0
  0
LWPOLYLINE
  5
12c
100
AcDbEntity
  8
Layer_1
 62
5
100
AcDbPolyline
 90
4
 70
0
 10
23.980755
 20
5.452892
 30
0.0
 10
28.065938
 20
4.273368
 30
0.0
 10
19.895572
 20
4.273368
 30
0.0
 10
23.980755
 20
5.452892
 30
0.0
  0
LWPOLYLINE
  5
12d
100
AcDbEntity
  8
Layer_1
 62
5
100
AcDbPolyline
 90
4
 70
0
 10
35.258161
 20
5.452892
 30
0.0
 10
39.343343
 20
4.273368
 30
0.0
 10
31.144209
 20
4.273368
 30
0.0
 10
35.258161
 20
5.452892
 30
0.0
  0
LWPOLYLINE
  5
12e
100
AcDbEntity
  8
Layer_1
 62
5
100
AcDbPolyline
 90
4
 70
0
 10
27.001489
 20
13.594489
 30
0.0
 10
32.208658
 20
13.594489
 30
0.0
 10
29.619458
 20
13.220493
 30
0.0
 10
27.001489
 20
13.594489
 30
0.0
  0
LWPOLYLINE
  5
12f
100
AcDbEntity
  8
Layer_1
 62
5
100
AcDbPolyline
 90
4
 70
0
 10
18.342052
 20
13.220493
 30
0.0
 10
15.752852
 20
13.594489
 30
0.0
 10
20.931252
 20
13.594489
 30
0.0
 10
18.342052
 20
13.220493
 30
0.0
  0
LWPOLYLINE
  5
130
100
AcDbEntity
  8
Layer_1
 62
5
100
AcDbPolyline
 90
4
 70
0
 10
38.278894
 20
13.594489
 30
0.0
 10
43.486064
 20
13.594489
 30
0.0
 10
40.896864
 20
13.220493
 30
0.0
 10
38.278894
 20
13.594489
 30
0.0
  0
LWPOLYLINE
  5
131
100
AcDbEntity
  8
Layer_1
 62
5
100
AcDbPolyline
 90
6
 70
0
 10
15.235012
 20
22.915610
 30
0.0
 10
12.703349
 20
22.167619
 30
0.0
 10
10.171687
 20
22.915610
 30
0.0
 10
12.674580
 20
22.541614
 30
0.0
 10
12.703349
 20
22.541614
 30
0.0
 10
15.235012
 20
22.915610
 30
0.0
  0
LWPOLYLINE
  5
132
100
AcDbEntity
  8
Layer_1
 62
5
100
AcDbPolyline
 90
6
 70
0
 10
26.512418
 20
22.915610
 30
0.0
 10
23.980755
 20
22.167619
 30
0.0
 10
21.449092
 20
22.915610
 30
0.0
 10
23.951986
 20
22.541614
 30
0.0
 10
23.980755
 20
22.541614
 30
0.0
 10
26.512418
 20
22.915610
 30
0.0
  0
LWPOLYLINE
  5
133
100
AcDbEntity
  8
Layer_1
 62
5
100
AcDbPolyline
 90
5
 70
0
 10
37.789823
 20
22.915610
 30
0.0
 10
35.258161
 20
22.167619
 30
0.0
 10
32.726498
 20
22.915610
 30
0.0
 10
35.258161
 20
22.541614
 30
0.0
 10
37.789823
 20
22.915610
 30
0.0
  0
LWPOLYLINE
  5
134
100
AcDbEntity
  8
Layer_1
 62
5
100
AcDbPolyline
 90
5
 70
0
 10
49.067229
 20
22.915610
 30
0.0
 10
46.535566
 20
22.167619
 30
0.0
 10
43.975135
 20
22.915610
 30
0.0
 10
46.535566
 20
22.541614
 30
0.0
 10
49.067229
 20
22.915610
 30
0.0
  0
LWPOLYLINE
  5
135
100
AcDbEntity
  8
Layer_1
 62
5
100
AcDbPolyline
 90
5
 70
0
 10
25.908271
 20
19.204423
 30
0.0
 10
24.958897
 20
16.816605
 30
0.0
 10
25.591813
 20
19.377036
 30
0.0
 10
27.490560
 20
21.218245
 30
0.0
 10
25.908271
 20
19.204423
 30
0.0
  0
LWPOLYLINE
  5
136
100
AcDbEntity
  8
Layer_1
 62
5
100
AcDbPolyline
 90
4
 70
0
 10
27.922093
 20
21.045632
 30
0.0
 10
25.304124
 20
16.557685
 30
0.0
 10
26.282266
 20
19.003040
 30
0.0
 10
27.922093
 20
21.045632
 30
0.0
  0
LWPOLYLINE
  5
137
100
AcDbEntity
  8
Layer_1
 62
5
100
AcDbPolyline
 90
5
 70
0
 10
25.189048
 20
19.607187
 30
0.0
 10
24.584902
 20
17.161831
 30
0.0
 10
24.901360
 20
19.779800
 30
0.0
 10
27.001489
 20
21.362090
 30
0.0
 10
25.189048
 20
19.607187
 30
0.0
  0
LWPOLYLINE
  5
138
100
AcDbEntity
  8
Layer_1
 62
5
100
AcDbPolyline
 90
5
 70
0
 10
24.469826
 20
20.038721
 30
0.0
 10
24.210906
 20
17.593365
 30
0.0
 10
24.210906
 20
20.182565
 30
0.0
 10
26.454880
 20
21.505934
 30
0.0
 10
24.469826
 20
20.038721
 30
0.0
  0
LWPOLYLINE
  5
139
100
AcDbEntity
  8
Layer_1
 62
5
100
AcDbPolyline
 90
5
 70
0
 10
23.980755
 20
20.556561
 30
0.0
 10
21.736781
 20
21.879930
 30
0.0
 10
23.980755
 20
20.901787
 30
0.0
 10
26.224729
 20
21.879930
 30
0.0
 10
23.980755
 20
20.556561
 30
0.0
  0
LWPOLYLINE
  5
13a
100
AcDbEntity
  8
Layer_1
 62
5
100
AcDbPolyline
 90
5
 70
0
 10
23.750604
 20
20.182565
 30
0.0
 10
23.750604
 20
17.593365
 30
0.0
 10
23.491684
 20
20.038721
 30
0.0
 10
21.506630
 20
21.505934
 30
0.0
 10
23.750604
 20
20.182565
 30
0.0
  0
LWPOLYLINE
  5
13b
100
AcDbEntity
  8
Layer_1
 62
5
100
AcDbPolyline
 90
5
 70
0
 10
23.060150
 20
19.779800
 30
0.0
 10
23.376608
 20
17.161831
 30
0.0
 10
22.772462
 20
19.607187
 30
0.0
 10
20.960021
 20
21.362090
 30
0.0
 10
23.060150
 20
19.779800
 30
0.0
  0
LWPOLYLINE
  5
13c
100
AcDbEntity
  8
Layer_1
 62
5
100
AcDbPolyline
 90
5
 70
0
 10
22.369697
 20
19.377036
 30
0.0
 10
23.002613
 20
16.816605
 30
0.0
 10
22.053239
 20
19.204423
 30
0.0
 10
20.470950
 20
21.218245
 30
0.0
 10
22.369697
 20
19.377036
 30
0.0
  0
LWPOLYLINE
  5
13d
100
AcDbEntity
  8
Layer_1
 62
5
100
AcDbPolyline
 90
4
 70
0
 10
21.679244
 20
19.003040
 30
0.0
 10
22.657386
 20
16.557685
 30
0.0
 10
20.039417
 20
21.045632
 30
0.0
 10
21.679244
 20
19.003040
 30
0.0
  0
LWPOLYLINE
  5
13e
100
AcDbEntity
  8
Layer_1
 62
5
100
AcDbPolyline
 90
4
 70
0
 10
29.044080
 20
22.138850
 30
0.0
 10
28.008400
 20
17.996129
 30
0.0
 10
24.930128
 20
15.032933
 30
0.0
 10
29.044080
 20
22.138850
 30
0.0
  0
LWPOLYLINE
  5
13f
100
AcDbEntity
  8
Layer_1
 62
5
100
AcDbPolyline
 90
5
 70
0
 10
34.337556
 20
19.779800
 30
0.0
 10
34.654014
 20
17.161831
 30
0.0
 10
34.049867
 20
19.607187
 30
0.0
 10
32.237427
 20
21.362090
 30
0.0
 10
34.337556
 20
19.779800
 30
0.0
  0
LWPOLYLINE
  5
140
100
AcDbEntity
  8
Layer_1
 62
5
100
AcDbPolyline
 90
5
 70
0
 10
32.784036
 20
21.505934
 30
0.0
 10
35.028010
 20
20.182565
 30
0.0
 10
35.028010
 20
17.593365
 30
0.0
 10
34.769090
 20
20.038721
 30
0.0
 10
32.784036
 20
21.505934
 30
0.0
  0
LWPOLYLINE
  5
141
100
AcDbEntity
  8
Layer_1
 62
5
100
AcDbPolyline
 90
6
 70
0
 10
33.647103
 20
19.377036
 30
0.0
 10
34.280018
 20
16.816605
 30
0.0
 10
33.330645
 20
19.175654
 30
0.0
 10
33.330645
 20
19.204423
 30
0.0
 10
31.748356
 20
21.218245
 30
0.0
 10
33.647103
 20
19.377036
 30
0.0
  0
LWPOLYLINE
  5
142
100
AcDbEntity
  8
Layer_1
 62
5
100
AcDbPolyline
 90
4
 70
0
 10
32.956649
 20
19.003040
 30
0.0
 10
33.934792
 20
16.557685
 30
0.0
 10
31.316823
 20
21.045632
 30
0.0
 10
32.956649
 20
19.003040
 30
0.0
  0
LWPOLYLINE
  5
143
100
AcDbEntity
  8
Layer_1
 62
5
100
AcDbPolyline
 90
5
 70
0
 10
37.185677
 20
19.204423
 30
0.0
 10
36.236303
 20
16.816605
 30
0.0
 10
36.869219
 20
19.377036
 30
0.0
 10
38.767966
 20
21.218245
 30
0.0
 10
37.185677
 20
19.204423
 30
0.0
  0
LWPOLYLINE
  5
144
100
AcDbEntity
  8
Layer_1
 62
5
100
AcDbPolyline
 90
4
 70
0
 10
39.170730
 20
21.045632
 30
0.0
 10
36.581530
 20
16.557685
 30
0.0
 10
37.559672
 20
19.003040
 30
0.0
 10
39.170730
 20
21.045632
 30
0.0
  0
LWPOLYLINE
  5
145
100
AcDbEntity
  8
Layer_1
 62
5
100
AcDbPolyline
 90
5
 70
0
 10
36.466454
 20
19.607187
 30
0.0
 10
35.862307
 20
17.161831
 30
0.0
 10
36.149996
 20
19.779800
 30
0.0
 10
38.278894
 20
21.362090
 30
0.0
 10
36.466454
 20
19.607187
 30
0.0
  0
LWPOLYLINE
  5
146
100
AcDbEntity
  8
Layer_1
 62
5
100
AcDbPolyline
 90
5
 70
0
 10
35.747232
 20
20.038721
 30
0.0
 10
35.459543
 20
17.593365
 30
0.0
 10
35.459543
 20
20.182565
 30
0.0
 10
37.732285
 20
21.505934
 30
0.0
 10
35.747232
 20
20.038721
 30
0.0
  0
LWPOLYLINE
  5
147
100
AcDbEntity
  8
Layer_1
 62
5
100
AcDbPolyline
 90
5
 70
0
 10
35.258161
 20
20.556561
 30
0.0
 10
33.014187
 20
21.879930
 30
0.0
 10
35.258161
 20
20.901787
 30
0.0
 10
37.502134
 20
21.879930
 30
0.0
 10
35.258161
 20
20.556561
 30
0.0
  0
LWPOLYLINE
  5
148
100
AcDbEntity
  8
Layer_1
 62
5
100
AcDbPolyline
 90
4
 70
0
 10
34.308787
 20
15.032933
 30
0.0
 10
31.230516
 20
17.996129
 30
0.0
 10
30.194836
 20
22.138850
 30
0.0
 10
34.308787
 20
15.032933
 30
0.0
  0
LWPOLYLINE
  5
149
100
AcDbEntity
  8
Layer_1
 62
5
100
AcDbPolyline
 90
5
 70
0
 10
30.827751
 20
17.765978
 30
0.0
 10
33.819716
 20
14.889089
 30
0.0
 10
29.820840
 20
17.190600
 30
0.0
 10
29.820840
 20
21.793623
 30
0.0
 10
30.827751
 20
17.765978
 30
0.0
  0
LWPOLYLINE
  5
14a
100
AcDbEntity
  8
Layer_1
 62
5
100
AcDbPolyline
 90
4
 70
0
 10
39.285806
 20
17.996129
 30
0.0
 10
36.207534
 20
15.032933
 30
0.0
 10
40.321486
 20
22.138850
 30
0.0
 10
39.285806
 20
17.996129
 30
0.0
  0
LWPOLYLINE
  5
14b
100
AcDbEntity
  8
Layer_1
 62
5
100
AcDbPolyline
 90
5
 70
0
 10
40.666712
 20
21.793623
 30
0.0
 10
40.666712
 20
17.190600
 30
0.0
 10
36.696605
 20
14.889089
 30
0.0
 10
39.688570
 20
17.765978
 30
0.0
 10
40.666712
 20
21.793623
 30
0.0
  0
LWPOLYLINE
  5
14c
100
AcDbEntity
  8
Layer_1
 62
5
100
AcDbPolyline
 90
5
 70
0
 10
35.258161
 20
21.362090
 30
0.0
 10
32.841574
 20
22.426539
 30
0.0
 10
35.258161
 20
21.707316
 30
0.0
 10
37.674748
 20
22.426539
 30
0.0
 10
35.258161
 20
21.362090
 30
0.0
  0
LWPOLYLINE
  5
14d
100
AcDbEntity
  8
Layer_1
 62
5
100
AcDbPolyline
 90
5
 70
0
 10
23.980755
 20
21.362090
 30
0.0
 10
21.564168
 20
22.426539
 30
0.0
 10
23.980755
 20
21.707316
 30
0.0
 10
26.397342
 20
22.426539
 30
0.0
 10
23.980755
 20
21.362090
 30
0.0
  0
LWPOLYLINE
  5
14e
100
AcDbEntity
  8
Layer_1
 62
5
100
AcDbPolyline
 90
4
 70
0
 10
23.031382
 20
15.032933
 30
0.0
 10
19.953110
 20
17.996129
 30
0.0
 10
18.917430
 20
22.138850
 30
0.0
 10
23.031382
 20
15.032933
 30
0.0
  0
LWPOLYLINE
  5
14f
100
AcDbEntity
  8
Layer_1
 62
5
100
AcDbPolyline
 90
5
 70
0
 10
19.550346
 20
17.765978
 30
0.0
 10
22.542310
 20
14.889089
 30
0.0
 10
18.572203
 20
17.190600
 30
0.0
 10
18.572203
 20
21.793623
 30
0.0
 10
19.550346
 20
17.765978
 30
0.0
  0
LWPOLYLINE
  5
150
100
AcDbEntity
  8
Layer_1
 62
5
100
AcDbPolyline
 90
5
 70
0
 10
28.411164
 20
17.765978
 30
0.0
 10
29.389307
 20
21.793623
 30
0.0
 10
29.389307
 20
17.190600
 30
0.0
 10
25.419200
 20
14.889089
 30
0.0
 10
28.411164
 20
17.765978
 30
0.0
  0
LWPOLYLINE
  5
151
100
AcDbEntity
  8
Layer_1
 62
5
100
AcDbPolyline
 90
5
 70
0
 10
29.619458
 20
16.816605
 30
0.0
 10
33.589565
 20
14.515093
 30
0.0
 10
29.619458
 20
15.665849
 30
0.0
 10
25.649351
 20
14.515093
 30
0.0
 10
29.619458
 20
16.816605
 30
0.0
  0
LWPOLYLINE
  5
152
100
AcDbEntity
  8
Layer_1
 62
5
100
AcDbPolyline
 90
5
 70
0
 10
40.896864
 20
16.816605
 30
0.0
 10
44.866971
 20
14.515093
 30
0.0
 10
40.896864
 20
15.665849
 30
0.0
 10
36.897988
 20
14.515093
 30
0.0
 10
40.896864
 20
16.816605
 30
0.0
  0
LWPOLYLINE
  5
153
100
AcDbEntity
  8
Layer_1
 62
5
100
AcDbPolyline
 90
5
 70
0
 10
41.098246
 20
17.190600
 30
0.0
 10
41.098246
 20
21.793623
 30
0.0
 10
42.105157
 20
17.765978
 30
0.0
 10
45.097122
 20
14.889089
 30
0.0
 10
41.098246
 20
17.190600
 30
0.0
  0
LWPOLYLINE
  5
154
100
AcDbEntity
  8
Layer_1
 62
5
100
AcDbPolyline
 90
4
 70
0
 10
42.507922
 20
17.996129
 30
0.0
 10
41.472241
 20
22.138850
 30
0.0
 10
45.557424
 20
15.032933
 30
0.0
 10
42.507922
 20
17.996129
 30
0.0
  0
LWPOLYLINE
  5
155
100
AcDbEntity
  8
Layer_1
 62
5
100
AcDbPolyline
 90
5
 70
0
 10
45.327273
 20
19.607187
 30
0.0
 10
43.486064
 20
21.362090
 30
0.0
 10
45.614962
 20
19.779800
 30
0.0
 10
45.931420
 20
17.161831
 30
0.0
 10
45.327273
 20
19.607187
 30
0.0
  0
LWPOLYLINE
  5
156
100
AcDbEntity
  8
Layer_1
 62
5
100
AcDbPolyline
 90
6
 70
0
 10
45.557424
 20
16.816605
 30
0.0
 10
44.608051
 20
19.175654
 30
0.0
 10
44.608051
 20
19.204423
 30
0.0
 10
43.025762
 20
21.218245
 30
0.0
 10
44.924509
 20
19.377036
 30
0.0
 10
45.557424
 20
16.816605
 30
0.0
  0
LWPOLYLINE
  5
157
100
AcDbEntity
  8
Layer_1
 62
5
100
AcDbPolyline
 90
5
 70
0
 10
46.017726
 20
20.038721
 30
0.0
 10
44.061442
 20
21.505934
 30
0.0
 10
46.305415
 20
20.182565
 30
0.0
 10
46.305415
 20
17.593365
 30
0.0
 10
46.017726
 20
20.038721
 30
0.0
  0
LWPOLYLINE
  5
158
100
AcDbEntity
  8
Layer_1
 62
5
100
AcDbPolyline
 90
4
 70
0
 10
42.594228
 20
21.045632
 30
0.0
 10
44.234055
 20
19.003040
 30
0.0
 10
45.212197
 20
16.557685
 30
0.0
 10
42.594228
 20
21.045632
 30
0.0
  0
LWPOLYLINE
  5
159
100
AcDbEntity
  8
Layer_1
 62
5
100
AcDbPolyline
 90
5
 70
0
 10
48.463082
 20
19.204423
 30
0.0
 10
47.513709
 20
16.816605
 30
0.0
 10
48.146624
 20
19.377036
 30
0.0
 10
50.045371
 20
21.218245
 30
0.0
 10
48.463082
 20
19.204423
 30
0.0
  0
LWPOLYLINE
  5
15a
100
AcDbEntity
  8
Layer_1
 62
5
100
AcDbPolyline
 90
4
 70
0
 10
50.448136
 20
21.045632
 30
0.0
 10
47.858936
 20
16.557685
 30
0.0
 10
48.837078
 20
19.003040
 30
0.0
 10
50.448136
 20
21.045632
 30
0.0
  0
LWPOLYLINE
  5
15b
100
AcDbEntity
  8
Layer_1
 62
5
100
AcDbPolyline
 90
5
 70
0
 10
47.743860
 20
19.607187
 30
0.0
 10
47.139713
 20
17.161831
 30
0.0
 10
47.427402
 20
19.779800
 30
0.0
 10
49.556300
 20
21.362090
 30
0.0
 10
47.743860
 20
19.607187
 30
0.0
  0
LWPOLYLINE
  5
15c
100
AcDbEntity
  8
Layer_1
 62
5
100
AcDbPolyline
 90
5
 70
0
 10
47.024638
 20
20.038721
 30
0.0
 10
46.736949
 20
17.593365
 30
0.0
 10
46.736949
 20
20.182565
 30
0.0
 10
48.980922
 20
21.505934
 30
0.0
 10
47.024638
 20
20.038721
 30
0.0
  0
LWPOLYLINE
  5
15d
100
AcDbEntity
  8
Layer_1
 62
5
100
AcDbPolyline
 90
5
 70
0
 10
46.535566
 20
20.556561
 30
0.0
 10
44.291593
 20
21.879930
 30
0.0
 10
46.535566
 20
20.901787
 30
0.0
 10
48.779540
 20
21.879930
 30
0.0
 10
46.535566
 20
20.556561
 30
0.0
  0
LWPOLYLINE
  5
15e
100
AcDbEntity
  8
Layer_1
 62
5
100
AcDbPolyline
 90
5
 70
0
 10
46.535566
 20
21.362090
 30
0.0
 10
44.118980
 20
22.426539
 30
0.0
 10
46.535566
 20
21.707316
 30
0.0
 10
48.952153
 20
22.426539
 30
0.0
 10
46.535566
 20
21.362090
 30
0.0
  0
LWPOLYLINE
  5
15f
100
AcDbEntity
  8
Layer_1
 62
5
100
AcDbPolyline
 90
5
 70
0
 10
12.703349
 20
21.707316
 30
0.0
 10
15.119936
 20
22.426539
 30
0.0
 10
12.703349
 20
21.362090
 30
0.0
 10
10.286762
 20
22.426539
 30
0.0
 10
12.703349
 20
21.707316
 30
0.0
  0
LWPOLYLINE
  5
160
100
AcDbEntity
  8
Layer_1
 62
5
100
AcDbPolyline
 90
5
 70
0
 10
12.703349
 20
20.901787
 30
0.0
 10
14.947323
 20
21.879930
 30
0.0
 10
12.703349
 20
20.556561
 30
0.0
 10
10.459376
 20
21.879930
 30
0.0
 10
12.703349
 20
20.901787
 30
0.0
  0
LWPOLYLINE
  5
161
100
AcDbEntity
  8
Layer_1
 62
5
100
AcDbPolyline
 90
5
 70
0
 10
13.911643
 20
19.607187
 30
0.0
 10
13.307496
 20
17.161831
 30
0.0
 10
13.623954
 20
19.779800
 30
0.0
 10
15.724083
 20
21.362090
 30
0.0
 10
13.911643
 20
19.607187
 30
0.0
  0
LWPOLYLINE
  5
162
100
AcDbEntity
  8
Layer_1
 62
5
100
AcDbPolyline
 90
5
 70
0
 10
16.213154
 20
21.218245
 30
0.0
 10
14.630865
 20
19.204423
 30
0.0
 10
13.681492
 20
16.816605
 30
0.0
 10
14.314407
 20
19.377036
 30
0.0
 10
16.213154
 20
21.218245
 30
0.0
  0
LWPOLYLINE
  5
163
100
AcDbEntity
  8
Layer_1
 62
5
100
AcDbPolyline
 90
5
 70
0
 10
13.192420
 20
20.038721
 30
0.0
 10
12.933500
 20
17.593365
 30
0.0
 10
12.933500
 20
20.182565
 30
0.0
 10
15.177474
 20
21.505934
 30
0.0
 10
13.192420
 20
20.038721
 30
0.0
  0
LWPOLYLINE
  5
164
100
AcDbEntity
  8
Layer_1
 62
5
100
AcDbPolyline
 90
5
 70
0
 10
12.473198
 20
20.182565
 30
0.0
 10
12.473198
 20
17.593365
 30
0.0
 10
12.214278
 20
20.038721
 30
0.0
 10
10.229225
 20
21.505934
 30
0.0
 10
12.473198
 20
20.182565
 30
0.0
  0
LWPOLYLINE
  5
165
100
AcDbEntity
  8
Layer_1
 62
5
100
AcDbPolyline
 90
5
 70
0
 10
11.782745
 20
19.779800
 30
0.0
 10
12.099203
 20
17.161831
 30
0.0
 10
11.495056
 20
19.607187
 30
0.0
 10
9.682616
 20
21.362090
 30
0.0
 10
11.782745
 20
19.779800
 30
0.0
  0
LWPOLYLINE
  5
166
100
AcDbEntity
  8
Layer_1
 62
5
100
AcDbPolyline
 90
5
 70
0
 10
11.092291
 20
19.377036
 30
0.0
 10
11.725207
 20
16.816605
 30
0.0
 10
10.775833
 20
19.204423
 30
0.0
 10
9.193544
 20
21.218245
 30
0.0
 10
11.092291
 20
19.377036
 30
0.0
  0
LWPOLYLINE
  5
167
100
AcDbEntity
  8
Layer_1
 62
5
100
AcDbPolyline
 90
4
 70
0
 10
10.401838
 20
19.003040
 30
0.0
 10
11.379980
 20
16.557685
 30
0.0
 10
8.762011
 20
21.045632
 30
0.0
 10
10.401838
 20
19.003040
 30
0.0
  0
LWPOLYLINE
  5
168
100
AcDbEntity
  8
Layer_1
 62
5
100
AcDbPolyline
 90
4
 70
0
 10
15.004861
 20
19.003040
 30
0.0
 10
16.644687
 20
21.045632
 30
0.0
 10
14.026718
 20
16.557685
 30
0.0
 10
15.004861
 20
19.003040
 30
0.0
  0
LWPOLYLINE
  5
169
100
AcDbEntity
  8
Layer_1
 62
5
100
AcDbPolyline
 90
4
 70
0
 10
17.766674
 20
22.138850
 30
0.0
 10
16.730994
 20
17.996129
 30
0.0
 10
13.652723
 20
15.032933
 30
0.0
 10
17.766674
 20
22.138850
 30
0.0
  0
LWPOLYLINE
  5
16a
100
AcDbEntity
  8
Layer_1
 62
5
100
AcDbPolyline
 90
5
 70
0
 10
17.133759
 20
17.765978
 30
0.0
 10
18.111901
 20
21.793623
 30
0.0
 10
18.111901
 20
17.190600
 30
0.0
 10
14.141794
 20
14.889089
 30
0.0
 10
17.133759
 20
17.765978
 30
0.0
  0
LWPOLYLINE
  5
16b
100
AcDbEntity
  8
Layer_1
 62
5
100
AcDbPolyline
 90
5
 70
0
 10
18.342052
 20
16.816605
 30
0.0
 10
22.312159
 20
14.515093
 30
0.0
 10
18.342052
 20
15.665849
 30
0.0
 10
14.371945
 20
14.515093
 30
0.0
 10
18.342052
 20
16.816605
 30
0.0
  0
LWPOLYLINE
  5
16c
100
AcDbEntity
  8
Layer_1
 62
5
100
AcDbPolyline
 90
4
 70
0
 10
18.342052
 20
15.205547
 30
0.0
 10
22.427235
 20
14.026022
 30
0.0
 10
14.256869
 20
14.026022
 30
0.0
 10
18.342052
 20
15.205547
 30
0.0
  0
LWPOLYLINE
  5
16d
100
AcDbEntity
  8
Layer_1
 62
5
100
AcDbPolyline
 90
4
 70
0
 10
29.619458
 20
15.205547
 30
0.0
 10
33.704641
 20
14.026022
 30
0.0
 10
25.534275
 20
14.026022
 30
0.0
 10
29.619458
 20
15.205547
 30
0.0
  0
LWPOLYLINE
  5
16e
100
AcDbEntity
  8
Layer_1
 62
5
100
AcDbPolyline
 90
4
 70
0
 10
40.896864
 20
15.205547
 30
0.0
 10
44.982046
 20
14.026022
 30
0.0
 10
36.782912
 20
14.026022
 30
0.0
 10
40.896864
 20
15.205547
 30
0.0
  0
LWPOLYLINE
  5
16f
100
AcDbEntity
  8
Layer_1
 62
5
100
AcDbPolyline
 90
4
 70
0
 10
21.391555
 20
23.347143
 30
0.0
 10
26.569955
 20
23.347143
 30
0.0
 10
23.980755
 20
22.973148
 30
0.0
 10
21.391555
 20
23.347143
 30
0.0
  0
LWPOLYLINE
  5
170
100
AcDbEntity
  8
Layer_1
 62
5
100
AcDbPolyline
 90
4
 70
0
 10
12.703349
 20
22.973148
 30
0.0
 10
10.114149
 20
23.347143
 30
0.0
 10
15.321318
 20
23.347143
 30
0.0
 10
12.703349
 20
22.973148
 30
0.0
  0
LWPOLYLINE
  5
171
100
AcDbEntity
  8
Layer_1
 62
5
100
AcDbPolyline
 90
4
 70
0
 10
32.640192
 20
23.347143
 30
0.0
 10
37.847361
 20
23.347143
 30
0.0
 10
35.258161
 20
22.973148
 30
0.0
 10
32.640192
 20
23.347143
 30
0.0
  0
LWPOLYLINE
  5
172
100
AcDbEntity
  8
Layer_1
 62
5
100
AcDbPolyline
 90
4
 70
0
 10
43.917597
 20
23.347143
 30
0.0
 10
49.124767
 20
23.347143
 30
0.0
 10
46.535566
 20
22.973148
 30
0.0
 10
43.917597
 20
23.347143
 30
0.0
  0
LWPOLYLINE
  5
173
100
AcDbEntity
  8
Layer_1
 62
5
100
AcDbPolyline
 90
6
 70
0
 10
20.873715
 20
32.668264
 30
0.0
 10
18.342052
 20
31.949042
 30
0.0
 10
15.810390
 20
32.668264
 30
0.0
 10
18.313283
 20
32.294269
 30
0.0
 10
18.342052
 20
32.294269
 30
0.0
 10
20.873715
 20
32.668264
 30
0.0
  0
LWPOLYLINE
  5
174
100
AcDbEntity
  8
Layer_1
 62
5
100
AcDbPolyline
 90
5
 70
0
 10
32.151120
 20
32.668264
 30
0.0
 10
29.619458
 20
31.949042
 30
0.0
 10
27.087795
 20
32.668264
 30
0.0
 10
29.619458
 20
32.294269
 30
0.0
 10
32.151120
 20
32.668264
 30
0.0
  0
LWPOLYLINE
  5
175
100
AcDbEntity
  8
Layer_1
 62
5
100
AcDbPolyline
 90
5
 70
0
 10
43.428526
 20
32.668264
 30
0.0
 10
40.896864
 20
31.949042
 30
0.0
 10
38.365201
 20
32.668264
 30
0.0
 10
40.896864
 20
32.294269
 30
0.0
 10
43.428526
 20
32.668264
 30
0.0
  0
LWPOLYLINE
  5
176
100
AcDbEntity
  8
Layer_1
 62
5
100
AcDbPolyline
 90
5
 70
0
 10
24.210906
 20
31.546277
 30
0.0
 10
25.189048
 20
27.518632
 30
0.0
 10
28.181013
 20
24.641743
 30
0.0
 10
24.210906
 20
26.943255
 30
0.0
 10
24.210906
 20
31.546277
 30
0.0
  0
LWPOLYLINE
  5
177
100
AcDbEntity
  8
Layer_1
 62
5
100
AcDbPolyline
 90
5
 70
0
 10
19.780497
 20
24.641743
 30
0.0
 10
22.772462
 20
27.518632
 30
0.0
 10
23.750604
 20
31.546277
 30
0.0
 10
23.750604
 20
26.943255
 30
0.0
 10
19.780497
 20
24.641743
 30
0.0
  0
LWPOLYLINE
  5
178
100
AcDbEntity
  8
Layer_1
 62
5
100
AcDbPolyline
 90
5
 70
0
 10
30.827751
 20
29.388610
 30
0.0
 10
30.223605
 20
26.943255
 30
0.0
 10
30.540062
 20
29.561224
 30
0.0
 10
32.640192
 20
31.114744
 30
0.0
 10
30.827751
 20
29.388610
 30
0.0
  0
LWPOLYLINE
  5
179
100
AcDbEntity
  8
Layer_1
 62
5
100
AcDbPolyline
 90
5
 70
0
 10
33.129263
 20
30.999668
 30
0.0
 10
31.546974
 20
28.985846
 30
0.0
 10
30.597600
 20
26.598028
 30
0.0
 10
31.230516
 20
29.158459
 30
0.0
 10
33.129263
 20
30.999668
 30
0.0
  0
LWPOLYLINE
  5
17a
100
AcDbEntity
  8
Layer_1
 62
5
100
AcDbPolyline
 90
5
 70
0
 10
30.108529
 20
29.791375
 30
0.0
 10
29.820840
 20
27.374788
 30
0.0
 10
29.820840
 20
29.963988
 30
0.0
 10
32.093583
 20
31.258588
 30
0.0
 10
30.108529
 20
29.791375
 30
0.0
  0
LWPOLYLINE
  5
17b
100
AcDbEntity
  8
Layer_1
 62
5
100
AcDbPolyline
 90
5
 70
0
 10
29.389307
 20
27.374788
 30
0.0
 10
29.130387
 20
29.791375
 30
0.0
 10
27.145333
 20
31.258588
 30
0.0
 10
29.389307
 20
29.963988
 30
0.0
 10
29.389307
 20
27.374788
 30
0.0
  0
LWPOLYLINE
  5
17c
100
AcDbEntity
  8
Layer_1
 62
5
100
AcDbPolyline
 90
5
 70
0
 10
28.698853
 20
29.561224
 30
0.0
 10
29.015311
 20
26.943255
 30
0.0
 10
28.411164
 20
29.388610
 30
0.0
 10
26.598724
 20
31.114744
 30
0.0
 10
28.698853
 20
29.561224
 30
0.0
  0
LWPOLYLINE
  5
17d
100
AcDbEntity
  8
Layer_1
 62
5
100
AcDbPolyline
 90
5
 70
0
 10
28.008400
 20
29.158459
 30
0.0
 10
28.641316
 20
26.598028
 30
0.0
 10
27.691942
 20
28.985846
 30
0.0
 10
26.109653
 20
30.999668
 30
0.0
 10
28.008400
 20
29.158459
 30
0.0
  0
LWPOLYLINE
  5
17e
100
AcDbEntity
  8
Layer_1
 62
5
100
AcDbPolyline
 90
4
 70
0
 10
27.317946
 20
28.755695
 30
0.0
 10
28.296089
 20
26.310339
 30
0.0
 10
25.678120
 20
30.827055
 30
0.0
 10
27.317946
 20
28.755695
 30
0.0
  0
LWPOLYLINE
  5
17f
100
AcDbEntity
  8
Layer_1
 62
5
100
AcDbPolyline
 90
4
 70
0
 10
31.920969
 20
28.755695
 30
0.0
 10
33.560796
 20
30.827055
 30
0.0
 10
30.942827
 20
26.310339
 30
0.0
 10
31.920969
 20
28.755695
 30
0.0
  0
LWPOLYLINE
  5
180
100
AcDbEntity
  8
Layer_1
 62
5
100
AcDbPolyline
 90
4
 70
0
 10
34.682783
 20
31.891504
 30
0.0
 10
33.647103
 20
27.748784
 30
0.0
 10
30.568831
 20
24.785588
 30
0.0
 10
34.682783
 20
31.891504
 30
0.0
  0
LWPOLYLINE
  5
181
100
AcDbEntity
  8
Layer_1
 62
5
100
AcDbPolyline
 90
5
 70
0
 10
29.619458
 20
30.337984
 30
0.0
 10
27.375484
 20
31.632584
 30
0.0
 10
29.619458
 20
30.654442
 30
0.0
 10
31.863431
 20
31.632584
 30
0.0
 10
29.619458
 20
30.337984
 30
0.0
  0
LWPOLYLINE
  5
182
100
AcDbEntity
  8
Layer_1
 62
5
100
AcDbPolyline
 90
4
 70
0
 10
28.670084
 20
24.785588
 30
0.0
 10
25.591813
 20
27.748784
 30
0.0
 10
24.556133
 20
31.891504
 30
0.0
 10
28.670084
 20
24.785588
 30
0.0
  0
LWPOLYLINE
  5
183
100
AcDbEntity
  8
Layer_1
 62
5
100
AcDbPolyline
 90
5
 70
0
 10
34.049867
 20
27.518632
 30
0.0
 10
35.028010
 20
31.546277
 30
0.0
 10
35.028010
 20
26.943255
 30
0.0
 10
31.057902
 20
24.641743
 30
0.0
 10
34.049867
 20
27.518632
 30
0.0
  0
LWPOLYLINE
  5
184
100
AcDbEntity
  8
Layer_1
 62
5
100
AcDbPolyline
 90
5
 70
0
 10
35.459543
 20
31.546277
 30
0.0
 10
36.466454
 20
27.518632
 30
0.0
 10
39.458419
 20
24.641743
 30
0.0
 10
35.459543
 20
26.943255
 30
0.0
 10
35.459543
 20
31.546277
 30
0.0
  0
LWPOLYLINE
  5
185
100
AcDbEntity
  8
Layer_1
 62
5
100
AcDbPolyline
 90
4
 70
0
 10
44.924509
 20
27.748784
 30
0.0
 10
41.846237
 20
24.785588
 30
0.0
 10
45.960189
 20
31.891504
 30
0.0
 10
44.924509
 20
27.748784
 30
0.0
  0
LWPOLYLINE
  5
186
100
AcDbEntity
  8
Layer_1
 62
5
100
AcDbPolyline
 90
5
 70
0
 10
46.305415
 20
31.546277
 30
0.0
 10
46.305415
 20
26.943255
 30
0.0
 10
42.335308
 20
24.641743
 30
0.0
 10
45.327273
 20
27.518632
 30
0.0
 10
46.305415
 20
31.546277
 30
0.0
  0
LWPOLYLINE
  5
187
100
AcDbEntity
  8
Layer_1
 62
5
100
AcDbPolyline
 90
5
 70
0
 10
42.105157
 20
29.388610
 30
0.0
 10
41.501010
 20
26.943255
 30
0.0
 10
41.788699
 20
29.561224
 30
0.0
 10
43.917597
 20
31.114744
 30
0.0
 10
42.105157
 20
29.388610
 30
0.0
  0
LWPOLYLINE
  5
188
100
AcDbEntity
  8
Layer_1
 62
5
100
AcDbPolyline
 90
5
 70
0
 10
44.406668
 20
30.999668
 30
0.0
 10
42.824379
 20
28.985846
 30
0.0
 10
41.875006
 20
26.598028
 30
0.0
 10
42.507922
 20
29.158459
 30
0.0
 10
44.406668
 20
30.999668
 30
0.0
  0
LWPOLYLINE
  5
189
100
AcDbEntity
  8
Layer_1
 62
5
100
AcDbPolyline
 90
5
 70
0
 10
41.385935
 20
29.791375
 30
0.0
 10
41.098246
 20
27.374788
 30
0.0
 10
41.098246
 20
29.963988
 30
0.0
 10
43.370988
 20
31.258588
 30
0.0
 10
41.385935
 20
29.791375
 30
0.0
  0
LWPOLYLINE
  5
18a
100
AcDbEntity
  8
Layer_1
 62
5
100
AcDbPolyline
 90
5
 70
0
 10
40.666712
 20
27.374788
 30
0.0
 10
40.379024
 20
29.791375
 30
0.0
 10
38.422739
 20
31.258588
 30
0.0
 10
40.666712
 20
29.963988
 30
0.0
 10
40.666712
 20
27.374788
 30
0.0
  0
LWPOLYLINE
  5
18b
100
AcDbEntity
  8
Layer_1
 62
5
100
AcDbPolyline
 90
5
 70
0
 10
39.976259
 20
29.561224
 30
0.0
 10
40.292717
 20
26.943255
 30
0.0
 10
39.688570
 20
29.388610
 30
0.0
 10
37.876130
 20
31.114744
 30
0.0
 10
39.976259
 20
29.561224
 30
0.0
  0
LWPOLYLINE
  5
18c
100
AcDbEntity
  8
Layer_1
 62
5
100
AcDbPolyline
 90
5
 70
0
 10
39.285806
 20
29.158459
 30
0.0
 10
39.918721
 20
26.598028
 30
0.0
 10
38.969348
 20
28.985846
 30
0.0
 10
37.387059
 20
30.999668
 30
0.0
 10
39.285806
 20
29.158459
 30
0.0
  0
LWPOLYLINE
  5
18d
100
AcDbEntity
  8
Layer_1
 62
5
100
AcDbPolyline
 90
4
 70
0
 10
38.595352
 20
28.755695
 30
0.0
 10
39.573495
 20
26.310339
 30
0.0
 10
36.955525
 20
30.827055
 30
0.0
 10
38.595352
 20
28.755695
 30
0.0
  0
LWPOLYLINE
  5
18e
100
AcDbEntity
  8
Layer_1
 62
5
100
AcDbPolyline
 90
4
 70
0
 10
43.198375
 20
28.755695
 30
0.0
 10
44.809433
 20
30.827055
 30
0.0
 10
42.220233
 20
26.310339
 30
0.0
 10
43.198375
 20
28.755695
 30
0.0
  0
LWPOLYLINE
  5
18f
100
AcDbEntity
  8
Layer_1
 62
5
100
AcDbPolyline
 90
5
 70
0
 10
40.896864
 20
30.337984
 30
0.0
 10
38.652890
 20
31.632584
 30
0.0
 10
40.896864
 20
30.654442
 30
0.0
 10
43.140837
 20
31.632584
 30
0.0
 10
40.896864
 20
30.337984
 30
0.0
  0
LWPOLYLINE
  5
190
100
AcDbEntity
  8
Layer_1
 62
5
100
AcDbPolyline
 90
4
 70
0
 10
39.918721
 20
24.785588
 30
0.0
 10
36.869219
 20
27.748784
 30
0.0
 10
35.833539
 20
31.891504
 30
0.0
 10
39.918721
 20
24.785588
 30
0.0
  0
LWPOLYLINE
  5
191
100
AcDbEntity
  8
Layer_1
 62
5
100
AcDbPolyline
 90
5
 70
0
 10
29.619458
 20
31.143513
 30
0.0
 10
27.202871
 20
32.179193
 30
0.0
 10
29.619458
 20
31.488740
 30
0.0
 10
32.036045
 20
32.179193
 30
0.0
 10
29.619458
 20
31.143513
 30
0.0
  0
LWPOLYLINE
  5
192
100
AcDbEntity
  8
Layer_1
 62
5
100
AcDbPolyline
 90
4
 70
0
 10
22.369697
 20
27.748784
 30
0.0
 10
19.291426
 20
24.785588
 30
0.0
 10
23.405377
 20
31.891504
 30
0.0
 10
22.369697
 20
27.748784
 30
0.0
  0
LWPOLYLINE
  5
193
100
AcDbEntity
  8
Layer_1
 62
5
100
AcDbPolyline
 90
5
 70
0
 10
19.550346
 20
29.388610
 30
0.0
 10
18.946199
 20
26.943255
 30
0.0
 10
19.262657
 20
29.561224
 30
0.0
 10
21.362786
 20
31.114744
 30
0.0
 10
19.550346
 20
29.388610
 30
0.0
  0
LWPOLYLINE
  5
194
100
AcDbEntity
  8
Layer_1
 62
5
100
AcDbPolyline
 90
5
 70
0
 10
21.851857
 20
30.999668
 30
0.0
 10
20.269568
 20
28.985846
 30
0.0
 10
19.320194
 20
26.598028
 30
0.0
 10
19.953110
 20
29.158459
 30
0.0
 10
21.851857
 20
30.999668
 30
0.0
  0
LWPOLYLINE
  5
195
100
AcDbEntity
  8
Layer_1
 62
5
100
AcDbPolyline
 90
5
 70
0
 10
18.831123
 20
29.791375
 30
0.0
 10
18.572203
 20
27.374788
 30
0.0
 10
18.572203
 20
29.963988
 30
0.0
 10
20.816177
 20
31.258588
 30
0.0
 10
18.831123
 20
29.791375
 30
0.0
  0
LWPOLYLINE
  5
196
100
AcDbEntity
  8
Layer_1
 62
5
100
AcDbPolyline
 90
5
 70
0
 10
18.111901
 20
27.374788
 30
0.0
 10
17.852981
 20
29.791375
 30
0.0
 10
15.867927
 20
31.258588
 30
0.0
 10
18.111901
 20
29.963988
 30
0.0
 10
18.111901
 20
27.374788
 30
0.0
  0
LWPOLYLINE
  5
197
100
AcDbEntity
  8
Layer_1
 62
5
100
AcDbPolyline
 90
5
 70
0
 10
17.421448
 20
29.561224
 30
0.0
 10
17.737905
 20
26.943255
 30
0.0
 10
17.133759
 20
29.388610
 30
0.0
 10
15.321318
 20
31.114744
 30
0.0
 10
17.421448
 20
29.561224
 30
0.0
  0
LWPOLYLINE
  5
198
100
AcDbEntity
  8
Layer_1
 62
5
100
AcDbPolyline
 90
5
 70
0
 10
16.730994
 20
29.158459
 30
0.0
 10
17.363910
 20
26.598028
 30
0.0
 10
16.414536
 20
28.985846
 30
0.0
 10
14.832247
 20
30.999668
 30
0.0
 10
16.730994
 20
29.158459
 30
0.0
  0
LWPOLYLINE
  5
199
100
AcDbEntity
  8
Layer_1
 62
5
100
AcDbPolyline
 90
4
 70
0
 10
16.040541
 20
28.755695
 30
0.0
 10
17.018683
 20
26.310339
 30
0.0
 10
14.400714
 20
30.827055
 30
0.0
 10
16.040541
 20
28.755695
 30
0.0
  0
LWPOLYLINE
  5
19a
100
AcDbEntity
  8
Layer_1
 62
5
100
AcDbPolyline
 90
4
 70
0
 10
20.643563
 20
28.755695
 30
0.0
 10
22.283390
 20
30.827055
 30
0.0
 10
19.665421
 20
26.310339
 30
0.0
 10
20.643563
 20
28.755695
 30
0.0
  0
LWPOLYLINE
  5
19b
100
AcDbEntity
  8
Layer_1
 62
5
100
AcDbPolyline
 90
5
 70
0
 10
18.342052
 20
30.337984
 30
0.0
 10
16.098079
 20
31.632584
 30
0.0
 10
18.342052
 20
30.654442
 30
0.0
 10
20.586026
 20
31.632584
 30
0.0
 10
18.342052
 20
30.337984
 30
0.0
  0
LWPOLYLINE
  5
19c
100
AcDbEntity
  8
Layer_1
 62
5
100
AcDbPolyline
 90
4
 70
0
 10
17.392679
 20
24.785588
 30
0.0
 10
14.314407
 20
27.748784
 30
0.0
 10
13.278727
 20
31.891504
 30
0.0
 10
17.392679
 20
24.785588
 30
0.0
  0
LWPOLYLINE
  5
19d
100
AcDbEntity
  8
Layer_1
 62
5
100
AcDbPolyline
 90
5
 70
0
 10
13.911643
 20
27.518632
 30
0.0
 10
16.903608
 20
24.641743
 30
0.0
 10
12.933500
 20
26.943255
 30
0.0
 10
12.933500
 20
31.546277
 30
0.0
 10
13.911643
 20
27.518632
 30
0.0
  0
LWPOLYLINE
  5
19e
100
AcDbEntity
  8
Layer_1
 62
5
100
AcDbPolyline
 90
5
 70
0
 10
23.980755
 20
26.569259
 30
0.0
 10
27.950862
 20
24.267748
 30
0.0
 10
23.980755
 20
25.418503
 30
0.0
 10
20.010648
 20
24.267748
 30
0.0
 10
23.980755
 20
26.569259
 30
0.0
  0
LWPOLYLINE
  5
19f
100
AcDbEntity
  8
Layer_1
 62
5
100
AcDbPolyline
 90
5
 70
0
 10
35.258161
 20
26.569259
 30
0.0
 10
39.228268
 20
24.267748
 30
0.0
 10
35.258161
 20
25.418503
 30
0.0
 10
31.288054
 20
24.267748
 30
0.0
 10
35.258161
 20
26.569259
 30
0.0
  0
LWPOLYLINE
  5
1a0
100
AcDbEntity
  8
Layer_1
 62
5
100
AcDbPolyline
 90
5
 70
0
 10
46.535566
 20
26.569259
 30
0.0
 10
50.505674
 20
24.267748
 30
0.0
 10
46.535566
 20
25.418503
 30
0.0
 10
42.536690
 20
24.267748
 30
0.0
 10
46.535566
 20
26.569259
 30
0.0
  0
LWPOLYLINE
  5
1a1
100
AcDbEntity
  8
Layer_1
 62
5
100
AcDbPolyline
 90
5
 70
0
 10
46.736949
 20
26.943255
 30
0.0
 10
46.736949
 20
31.546277
 30
0.0
 10
47.743860
 20
27.518632
 30
0.0
 10
50.735825
 20
24.641743
 30
0.0
 10
46.736949
 20
26.943255
 30
0.0
  0
LWPOLYLINE
  5
1a2
100
AcDbEntity
  8
Layer_1
 62
5
100
AcDbPolyline
 90
4
 70
0
 10
48.146624
 20
27.748784
 30
0.0
 10
47.110944
 20
31.891504
 30
0.0
 10
51.196127
 20
24.785588
 30
0.0
 10
48.146624
 20
27.748784
 30
0.0
  0
LWPOLYLINE
  5
1a3
100
AcDbEntity
  8
Layer_1
 62
5
100
AcDbPolyline
 90
5
 70
0
 10
40.896864
 20
31.143513
 30
0.0
 10
38.480277
 20
32.179193
 30
0.0
 10
40.896864
 20
31.488740
 30
0.0
 10
43.313451
 20
32.179193
 30
0.0
 10
40.896864
 20
31.143513
 30
0.0
  0
LWPOLYLINE
  5
1a4
100
AcDbEntity
  8
Layer_1
 62
5
100
AcDbPolyline
 90
5
 70
0
 10
18.342052
 20
31.488740
 30
0.0
 10
20.758639
 20
32.179193
 30
0.0
 10
18.342052
 20
31.143513
 30
0.0
 10
15.925465
 20
32.179193
 30
0.0
 10
18.342052
 20
31.488740
 30
0.0
  0
LWPOLYLINE
  5
1a5
100
AcDbEntity
  8
Layer_1
 62
5
100
AcDbPolyline
 90
4
 70
0
 10
11.092291
 20
27.748784
 30
0.0
 10
8.014020
 20
24.785588
 30
0.0
 10
12.127971
 20
31.891504
 30
0.0
 10
11.092291
 20
27.748784
 30
0.0
  0
LWPOLYLINE
  5
1a6
100
AcDbEntity
  8
Layer_1
 62
5
100
AcDbPolyline
 90
5
 70
0
 10
11.495056
 20
27.518632
 30
0.0
 10
12.473198
 20
31.546277
 30
0.0
 10
12.473198
 20
26.943255
 30
0.0
 10
8.503091
 20
24.641743
 30
0.0
 10
11.495056
 20
27.518632
 30
0.0
  0
LWPOLYLINE
  5
1a7
100
AcDbEntity
  8
Layer_1
 62
5
100
AcDbPolyline
 90
5
 70
0
 10
12.703349
 20
26.569259
 30
0.0
 10
16.673456
 20
24.267748
 30
0.0
 10
12.703349
 20
25.418503
 30
0.0
 10
8.733242
 20
24.267748
 30
0.0
 10
12.703349
 20
26.569259
 30
0.0
  0
LWPOLYLINE
  5
1a8
100
AcDbEntity
  8
Layer_1
 62
5
100
AcDbPolyline
 90
4
 70
0
 10
12.703349
 20
24.986970
 30
0.0
 10
16.788532
 20
23.778676
 30
0.0
 10
8.618167
 20
23.778676
 30
0.0
 10
12.703349
 20
24.986970
 30
0.0
  0
LWPOLYLINE
  5
1a9
100
AcDbEntity
  8
Layer_1
 62
5
100
AcDbPolyline
 90
4
 70
0
 10
23.980755
 20
24.986970
 30
0.0
 10
28.065938
 20
23.778676
 30
0.0
 10
19.895572
 20
23.778676
 30
0.0
 10
23.980755
 20
24.986970
 30
0.0
  0
LWPOLYLINE
  5
1aa
100
AcDbEntity
  8
Layer_1
 62
5
100
AcDbPolyline
 90
4
 70
0
 10
35.258161
 20
24.986970
 30
0.0
 10
39.343343
 20
23.778676
 30
0.0
 10
31.144209
 20
23.778676
 30
0.0
 10
35.258161
 20
24.986970
 30
0.0
  0
LWPOLYLINE
  5
1ab
100
AcDbEntity
  8
Layer_1
 62
5
100
AcDbPolyline
 90
4
 70
0
 10
46.535566
 20
24.986970
 30
0.0
 10
50.620749
 20
23.778676
 30
0.0
 10
42.421615
 20
23.778676
 30
0.0
 10
46.535566
 20
24.986970
 30
0.0
  0
LWPOLYLINE
  5
1ac
100
AcDbEntity
  8
Layer_1
 62
5
100
AcDbPolyline
 90
4
 70
0
 10
27.001489
 20
33.128566
 30
0.0
 10
32.208658
 20
33.128566
 30
0.0
 10
29.619458
 20
32.754571
 30
0.0
 10
27.001489
 20
33.128566
 30
0.0
  0
LWPOLYLINE
  5
1ad
100
AcDbEntity
  8
Layer_1
 62
5
100
AcDbPolyline
 90
4
 70
0
 10
18.342052
 20
32.754571
 30
0.0
 10
15.752852
 20
33.128566
 30
0.0
 10
20.931252
 20
33.128566
 30
0.0
 10
18.342052
 20
32.754571
 30
0.0
  0
LWPOLYLINE
  5
1ae
100
AcDbEntity
  8
Layer_1
 62
5
100
AcDbPolyline
 90
4
 70
0
 10
38.278894
 20
33.128566
 30
0.0
 10
43.486064
 20
33.128566
 30
0.0
 10
40.896864
 20
32.754571
 30
0.0
 10
38.278894
 20
33.128566
 30
0.0
  0
LWPOLYLINE
  5
1af
100
AcDbEntity
  8
Layer_1
 62
5
100
AcDbPolyline
 90
6
 70
0
 10
26.512418
 20
42.420919
 30
0.0
 10
23.980755
 20
41.701696
 30
0.0
 10
21.449092
 20
42.420919
 30
0.0
 10
23.951986
 20
42.075692
 30
0.0
 10
23.980755
 20
42.075692
 30
0.0
 10
26.512418
 20
42.420919
 30
0.0
  0
LWPOLYLINE
  5
1b0
100
AcDbEntity
  8
Layer_1
 62
5
100
AcDbPolyline
 90
5
 70
0
 10
37.789823
 20
42.420919
 30
0.0
 10
35.258161
 20
41.701696
 30
0.0
 10
32.726498
 20
42.420919
 30
0.0
 10
35.258161
 20
42.075692
 30
0.0
 10
37.789823
 20
42.420919
 30
0.0
  0
LWPOLYLINE
  5
1b1
100
AcDbEntity
  8
Layer_1
 62
5
100
AcDbPolyline
 90
5
 70
0
 10
34.337556
 20
39.313878
 30
0.0
 10
34.654014
 20
36.695909
 30
0.0
 10
34.049867
 20
39.141265
 30
0.0
 10
32.237427
 20
40.896167
 30
0.0
 10
34.337556
 20
39.313878
 30
0.0
  0
LWPOLYLINE
  5
1b2
100
AcDbEntity
  8
Layer_1
 62
5
100
AcDbPolyline
 90
5
 70
0
 10
32.784036
 20
41.011243
 30
0.0
 10
35.028010
 20
39.716643
 30
0.0
 10
35.028010
 20
37.127442
 30
0.0
 10
34.769090
 20
39.572798
 30
0.0
 10
32.784036
 20
41.011243
 30
0.0
  0
LWPOLYLINE
  5
1b3
100
AcDbEntity
  8
Layer_1
 62
5
100
AcDbPolyline
 90
5
 70
0
 10
33.647103
 20
38.911114
 30
0.0
 10
34.280018
 20
36.350682
 30
0.0
 10
33.330645
 20
38.738500
 30
0.0
 10
31.748356
 20
40.752323
 30
0.0
 10
33.647103
 20
38.911114
 30
0.0
  0
LWPOLYLINE
  5
1b4
100
AcDbEntity
  8
Layer_1
 62
5
100
AcDbPolyline
 90
4
 70
0
 10
32.956649
 20
38.508349
 30
0.0
 10
33.934792
 20
36.062993
 30
0.0
 10
31.316823
 20
40.579710
 30
0.0
 10
32.956649
 20
38.508349
 30
0.0
  0
LWPOLYLINE
  5
1b5
100
AcDbEntity
  8
Layer_1
 62
5
100
AcDbPolyline
 90
5
 70
0
 10
37.185677
 20
38.738500
 30
0.0
 10
36.236303
 20
36.350682
 30
0.0
 10
36.869219
 20
38.911114
 30
0.0
 10
38.767966
 20
40.752323
 30
0.0
 10
37.185677
 20
38.738500
 30
0.0
  0
LWPOLYLINE
  5
1b6
100
AcDbEntity
  8
Layer_1
 62
5
100
AcDbPolyline
 90
4
 70
0
 10
39.170730
 20
40.579710
 30
0.0
 10
36.581530
 20
36.062993
 30
0.0
 10
37.559672
 20
38.508349
 30
0.0
 10
39.170730
 20
40.579710
 30
0.0
  0
LWPOLYLINE
  5
1b7
100
AcDbEntity
  8
Layer_1
 62
5
100
AcDbPolyline
 90
5
 70
0
 10
36.466454
 20
39.141265
 30
0.0
 10
35.862307
 20
36.695909
 30
0.0
 10
36.149996
 20
39.313878
 30
0.0
 10
38.278894
 20
40.896167
 30
0.0
 10
36.466454
 20
39.141265
 30
0.0
  0
LWPOLYLINE
  5
1b8
100
AcDbEntity
  8
Layer_1
 62
5
100
AcDbPolyline
 90
5
 70
0
 10
35.747232
 20
39.572798
 30
0.0
 10
35.459543
 20
37.127442
 30
0.0
 10
35.459543
 20
39.716643
 30
0.0
 10
37.732285
 20
41.011243
 30
0.0
 10
35.747232
 20
39.572798
 30
0.0
  0
LWPOLYLINE
  5
1b9
100
AcDbEntity
  8
Layer_1
 62
5
100
AcDbPolyline
 90
5
 70
0
 10
35.258161
 20
40.090638
 30
0.0
 10
33.014187
 20
41.385239
 30
0.0
 10
35.258161
 20
40.435865
 30
0.0
 10
37.502134
 20
41.385239
 30
0.0
 10
35.258161
 20
40.090638
 30
0.0
  0
LWPOLYLINE
  5
1ba
100
AcDbEntity
  8
Layer_1
 62
5
100
AcDbPolyline
 90
4
 70
0
 10
34.308787
 20
34.567011
 30
0.0
 10
31.230516
 20
37.530207
 30
0.0
 10
30.194836
 20
41.644159
 30
0.0
 10
34.308787
 20
34.567011
 30
0.0
  0
LWPOLYLINE
  5
1bb
100
AcDbEntity
  8
Layer_1
 62
5
100
AcDbPolyline
 90
5
 70
0
 10
33.819716
 20
34.423167
 30
0.0
 10
29.820840
 20
36.724678
 30
0.0
 10
29.820840
 20
41.298932
 30
0.0
 10
30.827751
 20
37.300056
 30
0.0
 10
33.819716
 20
34.423167
 30
0.0
  0
LWPOLYLINE
  5
1bc
100
AcDbEntity
  8
Layer_1
 62
5
100
AcDbPolyline
 90
4
 70
0
 10
28.008400
 20
37.530207
 30
0.0
 10
24.930128
 20
34.567011
 30
0.0
 10
29.044080
 20
41.644159
 30
0.0
 10
28.008400
 20
37.530207
 30
0.0
  0
LWPOLYLINE
  5
1bd
100
AcDbEntity
  8
Layer_1
 62
5
100
AcDbPolyline
 90
5
 70
0
 10
25.908271
 20
38.738500
 30
0.0
 10
24.958897
 20
36.350682
 30
0.0
 10
25.591813
 20
38.911114
 30
0.0
 10
27.490560
 20
40.752323
 30
0.0
 10
25.908271
 20
38.738500
 30
0.0
  0
LWPOLYLINE
  5
1be
100
AcDbEntity
  8
Layer_1
 62
5
100
AcDbPolyline
 90
4
 70
0
 10
27.922093
 20
40.579710
 30
0.0
 10
25.304124
 20
36.062993
 30
0.0
 10
26.282266
 20
38.508349
 30
0.0
 10
27.922093
 20
40.579710
 30
0.0
  0
LWPOLYLINE
  5
1bf
100
AcDbEntity
  8
Layer_1
 62
5
100
AcDbPolyline
 90
5
 70
0
 10
25.189048
 20
39.141265
 30
0.0
 10
24.584902
 20
36.695909
 30
0.0
 10
24.901360
 20
39.313878
 30
0.0
 10
27.001489
 20
40.896167
 30
0.0
 10
25.189048
 20
39.141265
 30
0.0
  0
LWPOLYLINE
  5
1c0
100
AcDbEntity
  8
Layer_1
 62
5
100
AcDbPolyline
 90
5
 70
0
 10
24.469826
 20
39.572798
 30
0.0
 10
24.210906
 20
37.127442
 30
0.0
 10
24.210906
 20
39.716643
 30
0.0
 10
26.454880
 20
41.011243
 30
0.0
 10
24.469826
 20
39.572798
 30
0.0
  0
LWPOLYLINE
  5
1c1
100
AcDbEntity
  8
Layer_1
 62
5
100
AcDbPolyline
 90
5
 70
0
 10
23.750604
 20
37.127442
 30
0.0
 10
23.491684
 20
39.572798
 30
0.0
 10
21.506630
 20
41.011243
 30
0.0
 10
23.750604
 20
39.716643
 30
0.0
 10
23.750604
 20
37.127442
 30
0.0
  0
LWPOLYLINE
  5
1c2
100
AcDbEntity
  8
Layer_1
 62
5
100
AcDbPolyline
 90
5
 70
0
 10
23.060150
 20
39.313878
 30
0.0
 10
23.376608
 20
36.695909
 30
0.0
 10
22.772462
 20
39.141265
 30
0.0
 10
20.960021
 20
40.896167
 30
0.0
 10
23.060150
 20
39.313878
 30
0.0
  0
LWPOLYLINE
  5
1c3
100
AcDbEntity
  8
Layer_1
 62
5
100
AcDbPolyline
 90
5
 70
0
 10
22.369697
 20
38.911114
 30
0.0
 10
23.002613
 20
36.350682
 30
0.0
 10
22.053239
 20
38.738500
 30
0.0
 10
20.470950
 20
40.752323
 30
0.0
 10
22.369697
 20
38.911114
 30
0.0
  0
LWPOLYLINE
  5
1c4
100
AcDbEntity
  8
Layer_1
 62
5
100
AcDbPolyline
 90
4
 70
0
 10
21.679244
 20
38.508349
 30
0.0
 10
22.657386
 20
36.062993
 30
0.0
 10
20.039417
 20
40.579710
 30
0.0
 10
21.679244
 20
38.508349
 30
0.0
  0
LWPOLYLINE
  5
1c5
100
AcDbEntity
  8
Layer_1
 62
5
100
AcDbPolyline
 90
5
 70
0
 10
23.980755
 20
40.090638
 30
0.0
 10
21.736781
 20
41.385239
 30
0.0
 10
23.980755
 20
40.435865
 30
0.0
 10
26.224729
 20
41.385239
 30
0.0
 10
23.980755
 20
40.090638
 30
0.0
  0
LWPOLYLINE
  5
1c6
100
AcDbEntity
  8
Layer_1
 62
5
100
AcDbPolyline
 90
4
 70
0
 10
23.031382
 20
34.567011
 30
0.0
 10
19.953110
 20
37.530207
 30
0.0
 10
18.917430
 20
41.644159
 30
0.0
 10
23.031382
 20
34.567011
 30
0.0
  0
LWPOLYLINE
  5
1c7
100
AcDbEntity
  8
Layer_1
 62
5
100
AcDbPolyline
 90
5
 70
0
 10
19.550346
 20
37.300056
 30
0.0
 10
22.542310
 20
34.423167
 30
0.0
 10
18.572203
 20
36.724678
 30
0.0
 10
18.572203
 20
41.298932
 30
0.0
 10
19.550346
 20
37.300056
 30
0.0
  0
LWPOLYLINE
  5
1c8
100
AcDbEntity
  8
Layer_1
 62
5
100
AcDbPolyline
 90
5
 70
0
 10
28.411164
 20
37.300056
 30
0.0
 10
29.389307
 20
41.298932
 30
0.0
 10
29.389307
 20
36.724678
 30
0.0
 10
25.419200
 20
34.423167
 30
0.0
 10
28.411164
 20
37.300056
 30
0.0
  0
LWPOLYLINE
  5
1c9
100
AcDbEntity
  8
Layer_1
 62
5
100
AcDbPolyline
 90
5
 70
0
 10
29.619458
 20
36.350682
 30
0.0
 10
33.589565
 20
34.049171
 30
0.0
 10
29.619458
 20
35.199927
 30
0.0
 10
25.649351
 20
34.049171
 30
0.0
 10
29.619458
 20
36.350682
 30
0.0
  0
LWPOLYLINE
  5
1ca
100
AcDbEntity
  8
Layer_1
 62
5
100
AcDbPolyline
 90
5
 70
0
 10
40.896864
 20
36.350682
 30
0.0
 10
44.866971
 20
34.049171
 30
0.0
 10
40.896864
 20
35.199927
 30
0.0
 10
36.897988
 20
34.049171
 30
0.0
 10
40.896864
 20
36.350682
 30
0.0
  0
LWPOLYLINE
  5
1cb
100
AcDbEntity
  8
Layer_1
 62
5
100
AcDbPolyline
 90
5
 70
0
 10
36.696605
 20
34.423167
 30
0.0
 10
39.688570
 20
37.300056
 30
0.0
 10
40.666712
 20
41.298932
 30
0.0
 10
40.666712
 20
36.724678
 30
0.0
 10
36.696605
 20
34.423167
 30
0.0
  0
LWPOLYLINE
  5
1cc
100
AcDbEntity
  8
Layer_1
 62
5
100
AcDbPolyline
 90
5
 70
0
 10
41.098246
 20
36.724678
 30
0.0
 10
41.098246
 20
41.298932
 30
0.0
 10
42.105157
 20
37.300056
 30
0.0
 10
45.097122
 20
34.423167
 30
0.0
 10
41.098246
 20
36.724678
 30
0.0
  0
LWPOLYLINE
  5
1cd
100
AcDbEntity
  8
Layer_1
 62
5
100
AcDbPolyline
 90
4
 70
0
 10
42.507922
 20
37.530207
 30
0.0
 10
41.472241
 20
41.644159
 30
0.0
 10
45.557424
 20
34.567011
 30
0.0
 10
42.507922
 20
37.530207
 30
0.0
  0
LWPOLYLINE
  5
1ce
100
AcDbEntity
  8
Layer_1
 62
5
100
AcDbPolyline
 90
4
 70
0
 10
39.285806
 20
37.530207
 30
0.0
 10
36.207534
 20
34.567011
 30
0.0
 10
40.321486
 20
41.644159
 30
0.0
 10
39.285806
 20
37.530207
 30
0.0
  0
LWPOLYLINE
  5
1cf
100
AcDbEntity
  8
Layer_1
 62
5
100
AcDbPolyline
 90
5
 70
0
 10
35.258161
 20
40.896167
 30
0.0
 10
32.841574
 20
41.960616
 30
0.0
 10
35.258161
 20
41.241394
 30
0.0
 10
37.674748
 20
41.960616
 30
0.0
 10
35.258161
 20
40.896167
 30
0.0
  0
LWPOLYLINE
  5
1d0
100
AcDbEntity
  8
Layer_1
 62
5
100
AcDbPolyline
 90
5
 70
0
 10
23.980755
 20
41.241394
 30
0.0
 10
26.397342
 20
41.960616
 30
0.0
 10
23.980755
 20
40.896167
 30
0.0
 10
21.564168
 20
41.960616
 30
0.0
 10
23.980755
 20
41.241394
 30
0.0
  0
LWPOLYLINE
  5
1d1
100
AcDbEntity
  8
Layer_1
 62
5
100
AcDbPolyline
 90
4
 70
0
 10
16.730994
 20
37.530207
 30
0.0
 10
13.652723
 20
34.567011
 30
0.0
 10
17.766674
 20
41.644159
 30
0.0
 10
16.730994
 20
37.530207
 30
0.0
  0
LWPOLYLINE
  5
1d2
100
AcDbEntity
  8
Layer_1
 62
5
100
AcDbPolyline
 90
5
 70
0
 10
17.133759
 20
37.300056
 30
0.0
 10
18.111901
 20
41.298932
 30
0.0
 10
18.111901
 20
36.724678
 30
0.0
 10
14.141794
 20
34.423167
 30
0.0
 10
17.133759
 20
37.300056
 30
0.0
  0
LWPOLYLINE
  5
1d3
100
AcDbEntity
  8
Layer_1
 62
5
100
AcDbPolyline
 90
5
 70
0
 10
18.342052
 20
36.350682
 30
0.0
 10
22.312159
 20
34.049171
 30
0.0
 10
18.342052
 20
35.199927
 30
0.0
 10
14.371945
 20
34.049171
 30
0.0
 10
18.342052
 20
36.350682
 30
0.0
  0
LWPOLYLINE
  5
1d4
100
AcDbEntity
  8
Layer_1
 62
5
100
AcDbPolyline
 90
4
 70
0
 10
18.342052
 20
34.739624
 30
0.0
 10
22.427235
 20
33.560100
 30
0.0
 10
14.256869
 20
33.560100
 30
0.0
 10
18.342052
 20
34.739624
 30
0.0
  0
LWPOLYLINE
  5
1d5
100
AcDbEntity
  8
Layer_1
 62
5
100
AcDbPolyline
 90
4
 70
0
 10
29.619458
 20
34.739624
 30
0.0
 10
33.704641
 20
33.560100
 30
0.0
 10
25.534275
 20
33.560100
 30
0.0
 10
29.619458
 20
34.739624
 30
0.0
  0
LWPOLYLINE
  5
1d6
100
AcDbEntity
  8
Layer_1
 62
5
100
AcDbPolyline
 90
4
 70
0
 10
40.896864
 20
34.739624
 30
0.0
 10
44.982046
 20
33.560100
 30
0.0
 10
36.782912
 20
33.560100
 30
0.0
 10
40.896864
 20
34.739624
 30
0.0
  0
LWPOLYLINE
  5
1d7
100
AcDbEntity
  8
Layer_1
 62
5
100
AcDbPolyline
 90
4
 70
0
 10
32.640192
 20
42.881221
 30
0.0
 10
37.847361
 20
42.881221
 30
0.0
 10
35.258161
 20
42.507225
 30
0.0
 10
32.640192
 20
42.881221
 30
0.0
  0
LWPOLYLINE
  5
1d8
100
AcDbEntity
  8
Layer_1
 62
5
100
AcDbPolyline
 90
4
 70
0
 10
23.980755
 20
42.507225
 30
0.0
 10
21.391555
 20
42.881221
 30
0.0
 10
26.569955
 20
42.881221
 30
0.0
 10
23.980755
 20
42.507225
 30
0.0
  0
ENDSEC
  0
SECTION
  2
OBJECTS
  0
DICTIONARY
  5
C
330
0
100
AcDbDictionary
  3
ACAD_GROUP
350
D
  3
ACAD_MLINESTYLE
350
17
  0
DICTIONARY
  5
D
330
C
100
AcDbDictionary
  0
DICTIONARY
  5
1A
330
C
100
AcDbDictionary
  0
DICTIONARY
  5
17
330
C
100
AcDbDictionary
  3
STANDARD
350
18
  0
DICTIONARY
  5
19
330
C
100
AcDbDictionary
  0
ENDSEC
  0
EOF
