<?xml version="1.0" encoding="UTF-8" standalone="no"?>
<!-- Created with Inkscape (http://www.inkscape.org/) -->

<svg
   xmlns:dc="http://purl.org/dc/elements/1.1/"
   xmlns:cc="http://creativecommons.org/ns#"
   xmlns:rdf="http://www.w3.org/1999/02/22-rdf-syntax-ns#"
   xmlns:svg="http://www.w3.org/2000/svg"
   xmlns="http://www.w3.org/2000/svg"
   xmlns:sodipodi="http://sodipodi.sourceforge.net/DTD/sodipodi-0.dtd"
   xmlns:inkscape="http://www.inkscape.org/namespaces/inkscape"
   width="243.84cm"
   height="121.92cm"
   viewBox="0 0 8639.9998 4319.9999"
   id="svg4475"
   version="1.1"
   inkscape:version="0.91pre4 r13712"
   sodipodi:docname="triangle_small.svg">
  <defs
     id="defs4477" />
  <sodipodi:namedview
     id="base"
     pagecolor="#ffffff"
     bordercolor="#666666"
     borderopacity="1.0"
     inkscape:pageopacity="0.0"
     inkscape:pageshadow="2"
     inkscape:zoom="0.087500001"
     inkscape:cx="-805.33835"
     inkscape:cy="1133.1148"
     inkscape:document-units="cm"
     inkscape:current-layer="layer1"
     showgrid="false"
     units="cm"
     inkscape:window-width="1920"
     inkscape:window-height="1017"
     inkscape:window-x="-8"
     inkscape:window-y="-8"
     inkscape:window-maximized="1" />
  <metadata
     id="metadata4480">
    <rdf:RDF>
      <cc:Work
         rdf:about="">
        <dc:format>image/svg+xml</dc:format>
        <dc:type
           rdf:resource="http://purl.org/dc/dcmitype/StillImage" />
        <dc:title></dc:title>
      </cc:Work>
    </rdf:RDF>
  </metadata>
  <g
     inkscape:label="Layer 1"
     inkscape:groupmode="layer"
     id="layer1"
     transform="translate(0,3267.6378)">
    <g
       id="g10"
       style="fill:none;stroke:#ff0000;stroke-width:0.5mm"
       transform="matrix(0,1.7818335,-1.7818335,0,5384.6164,-2995.9238)">
      <path
         d="M 1060,230 9,836 l 0,1214 1051,607 1045,-604 6,-3 0,-1214 -1051,-606 m 35,1375 123,426 -123,426 61,-424 0,-2 -61,-426 m 147,426 -122,-420 182,420 -182,420 122,-420 m 85,0 -178,-411 237,411 -237,411 178,-411 m 151,-137 425,105 -455,-52 -273,-368 303,315 m -295,-340 338,267 400,159 -431,-106 -307,-320 m 253,414 445,52 -475,0 -237,-412 267,360 m -30,74 475,0 -445,52 -267,360 237,-412 m 42,73 455,-52 -425,105 -303,315 273,-368 m 42,73 431,-106 -398,159 -2,0 -338,267 307,-320 m 43,73 403,-161 -744,430 341,-269 m 0,-460 -341,-269 744,430 -403,-161 m -398,-328 513,127 366,381 -879,-508 m 525,107 -507,-125 579,0 290,501 -362,-376 m 92,-137 290,-501 -145,501 145,502 -290,-502 m -20,-11 -579,0 507,-126 362,-376 -290,502 m -84,-146 -513,127 879,-508 -366,381 m -125,-221 -2,1 -338,266 307,-319 431,-107 -398,159 m 413,-140 -744,429 341,-268 403,-161 m -458,67 -303,315 273,-368 455,-52 -425,105 m -42,-74 -267,360 237,-411 475,0 -445,51 m 97,-293 -341,-269 744,430 -403,-161 m -13,19 1,1 400,160 -431,-107 -307,-320 337,266 m -42,75 425,105 -455,-53 -273,-367 303,315 m -42,74 445,51 -475,0 -237,-411 267,360 m -50,62 -237,411 176,-406 2,-5 -178,-411 237,411 m -84,0 -182,420 122,-420 -122,-420 182,420 m -84,0 -123,427 61,-425 0,-2 -61,-426 123,426 m -84,0 -63,430 0,-859 63,429 m 0,1176 -63,430 0,-860 63,430 m 933,-80 -147,-508 147,-507 0,1015 m -1188,80 144,501 -289,-501 289,-501 -144,501 m 170,-508 0,1015 -147,-507 147,-508 m -619,4 455,-52 -425,105 -303,315 273,-368 m -279,339 237,-411 475,0 -441,50 -4,1 -267,360 m 321,-266 431,-106 -399,159 -1,1 -339,266 308,-320 m 42,74 403,-162 -744,430 341,-268 m 0,-461 -341,-269 744,430 -403,-161 m -11,20 400,160 -431,-107 -308,-320 339,267 m -43,73 425,105 -455,-52 -273,-368 303,315 m -42,74 445,52 -475,0 -237,-411 267,359 m -50,63 -237,411 178,-411 -178,-411 237,411 m 628,50 -366,381 -513,127 879,-508 M 642,992 135,867 l 579,0 290,501 -362,-376 m 362,526 -290,502 -579,0 507,-126 362,-376 m -362,650 -507,-126 579,0 290,502 -362,-376 m 354,401 -879,-508 513,127 366,381 M 734,855 1023,354 879,855 1023,1357 734,855 M 714,844 135,844 642,719 1004,342 714,844 M 630,698 117,825 996,317 630,698 m 0,315 366,380 -879,-507 513,127 m -346,430 -182,420 121,-420 -121,-420 182,420 m -84,0 -123,426 61,-426 -61,-426 123,426 m -85,0 -62,430 0,-859 62,429 m 934,-80 -147,-508 147,-507 0,1015"
         id="path12"
         style="stroke:#ff0000"
         inkscape:connector-curvature="0" />
    </g>
  </g>
</svg>
