<?xml version="1.0" encoding="UTF-8" standalone="no"?>
<!-- Created with Inkscape (http://www.inkscape.org/) -->

<svg
   xmlns:dc="http://purl.org/dc/elements/1.1/"
   xmlns:cc="http://creativecommons.org/ns#"
   xmlns:rdf="http://www.w3.org/1999/02/22-rdf-syntax-ns#"
   xmlns:svg="http://www.w3.org/2000/svg"
   xmlns="http://www.w3.org/2000/svg"
   xmlns:sodipodi="http://sodipodi.sourceforge.net/DTD/sodipodi-0.dtd"
   xmlns:inkscape="http://www.inkscape.org/namespaces/inkscape"
   width="60in"
   height="48in"
   viewBox="0 0 5399.9999 4320"
   id="svg4475"
   version="1.1"
   inkscape:version="0.91pre4 r13712"
   sodipodi:docname="artdeco_circle.svg">
  <defs
     id="defs4477" />
  <sodipodi:namedview
     id="base"
     pagecolor="#ffffff"
     bordercolor="#666666"
     borderopacity="1.0"
     inkscape:pageopacity="0.0"
     inkscape:pageshadow="2"
     inkscape:zoom="0.087500001"
     inkscape:cx="1680.3759"
     inkscape:cy="1133.1148"
     inkscape:document-units="in"
     inkscape:current-layer="layer1"
     showgrid="false"
     units="ft"
     inkscape:window-width="1920"
     inkscape:window-height="1017"
     inkscape:window-x="1912"
     inkscape:window-y="-8"
     inkscape:window-maximized="1" />
  <metadata
     id="metadata4480">
    <rdf:RDF>
      <cc:Work
         rdf:about="">
        <dc:format>image/svg+xml</dc:format>
        <dc:type
           rdf:resource="http://purl.org/dc/dcmitype/StillImage" />
        <dc:title></dc:title>
      </cc:Work>
    </rdf:RDF>
  </metadata>
  <g
     inkscape:label="Layer 1"
     inkscape:groupmode="layer"
     id="layer1"
     transform="translate(0,3267.6378)">
    <path
       d="M 3503.474,-2935.6494 4591.5742,-1072.8423 3522.3861,800.88356 1365.0978,811.80244 276.9976,-1051.0046 1346.1857,-2924.7305 Z"
       inkscape:randomized="0"
       inkscape:rounded="0"
       inkscape:flatsided="true"
       sodipodi:arg2="-0.52866008"
       sodipodi:arg1="-1.0522589"
       sodipodi:r2="1868.2906"
       sodipodi:r1="2157.3159"
       sodipodi:cy="-1061.9235"
       sodipodi:cx="2434.2858"
       sodipodi:sides="6"
       id="path3049-5-9"
       style="color:#000000;display:inline;overflow:visible;visibility:visible;fill:#ffff00;stroke:#ff0000;stroke-width:1.11578476;stroke-linecap:butt;stroke-linejoin:miter;stroke-miterlimit:4;stroke-dasharray:none;stroke-dashoffset:0;stroke-opacity:1;marker:none;enable-background:accumulate"
       sodipodi:type="star" />
    <path
       id="path3358-4"
       style="fill:none;stroke:#ff0000;stroke-width:6.92297125"
       d="m 1805.0148,-2372.2259 c 141.1729,-65.1548 297.6322,-111.6737 428.5915,-127.4288 37.6838,-4.5332 74.7458,-9.2575 82.3614,-10.4981 7.6156,-1.2407 33.3169,-2.4875 57.1145,-2.7706 l 43.2687,-0.5124 0,-86.537 0,-86.5371 -48.7336,0 c -154.7561,0 -366.6364,44.6684 -537.3837,113.2909 -63.2782,25.4308 -158.7394,69.6022 -167.5047,77.5067 -3.7347,3.368 77.7493,148.4279 83.3771,148.4279 2.6795,0 29.1891,-11.2222 58.9088,-24.9393 z m 1362.5133,-47.7517 c 16.6567,-30.4611 32.1602,-60.3068 34.4535,-66.3242 3.2434,-8.5145 -14.6243,-19.8308 -80.5742,-51.0306 -188.2481,-89.0557 -435.9137,-148.931 -616.8264,-149.1229 l -53.6917,-0.068 1.7689,86.5289 1.7688,86.5288 31.154,0 c 66.3159,0.069 221.8829,22.7856 309.6733,45.2859 95.1363,24.3827 200.7954,63.0441 278.7785,102.0066 52.816,26.3881 48.1636,29.0668 93.4953,-53.8324 z m -295.0665,375.571 c 20.2915,-103.7579 42.7635,-218.2466 49.9377,-254.4191 7.1742,-36.1725 13.0735,-71.1099 13.1094,-77.639 0.07,-8.948 -16.0166,-16.8983 -65.2362,-32.2832 -77.7887,-24.3156 -141.0837,-39.0719 -146.095,-34.0603 -3.261,3.2607 -11.3292,66.5139 -20.5744,161.2899 -1.8572,19.0382 -9.4606,95.364 -16.8957,169.6127 -7.4352,74.249 -15.6199,160.5487 -18.1882,191.7769 l -4.6708,56.7787 47.5944,2.441 c 26.1777,1.3431 64.8151,3.0523 85.8606,3.798 l 38.266,1.3554 36.8922,-188.651 z m -666.033,179.339 c 2.3468,-2.3324 -54.6732,-575.6977 -57.5558,-578.7548 -9.5841,-10.1622 -216.9766,50.7918 -217.4048,63.8962 -0.1524,4.6252 22.4351,124.8163 50.1916,267.091 l 50.4666,258.6809 86.5374,-4.8467 c 47.5953,-2.6654 87.089,-5.3958 87.765,-6.0666 z m 1539.1328,-6.3539 c 24.7495,-14.964 52.0778,-31.6962 60.7292,-37.184 l 15.7303,-9.9768 -22.2206,-32.6244 c -63.4289,-93.125 -135.1099,-179.9211 -213.1456,-258.0897 -104.9822,-105.1621 -184.1422,-167.9285 -316.1873,-250.7078 l -28.563,-17.9062 -42.5366,76.7119 c -23.3949,42.1914 -41.6951,77.2931 -40.6671,78.0039 1.0289,0.711 29.9079,19.3429 64.1767,41.4036 94.8569,61.0661 172.7709,124.0306 250.346,202.3134 64.3964,64.9845 154.9163,176.497 186.0414,229.1891 14.2872,24.1861 9.3354,25.3983 86.2966,-21.133 z m -2525.8757,7.0308 c 95.5206,-149.4287 268.1006,-317.542 435.1387,-423.8762 28.5568,-18.1789 52.9578,-33.9598 54.224,-35.0689 1.2662,-1.1091 -16.9238,-36.3497 -40.4229,-78.3119 l -42.7249,-76.2947 -49.576,31.7198 c -139.2649,89.1048 -270.1358,201.1095 -368.3526,315.2506 -72.6629,84.4442 -157.9518,202.0634 -154.2729,212.7525 1.683,4.8891 135.3192,89.8414 141.7561,90.1136 0.5538,0 11.4589,-16.305 24.2305,-36.2848 z m 2422.3541,113.8817 c 19.2618,-34.8545 23.7679,-24.0886 -58.273,-139.2405 -57.7503,-81.0576 -204.1561,-240.3474 -212.2235,-230.8976 -2.479,2.9042 -17.866,43.7179 -34.1926,90.6964 -25.1269,72.2994 -28.2214,86.8363 -20.1575,94.6675 5.2408,5.0885 73.1565,60.8079 150.9242,123.8222 156.6677,126.9438 140.5705,121.3029 173.9224,60.952 z m -2218.0562,-50.9413 139.6633,-139.5381 -31.6961,-90.6508 c -17.4325,-49.8579 -32.5113,-91.7162 -33.5086,-93.0191 -3.6033,-4.7056 -54.6837,45.3918 -120.1722,117.8595 -62.6994,69.3813 -166.516,210.405 -166.516,226.1927 0,8.7805 63.7922,118.6937 68.8876,118.6937 2.0237,0 66.5278,-62.792 143.342,-139.5379 z m 1676.8512,324.4776 c 3.5998,-12.2371 16.5017,-50.2879 28.6698,-84.5566 12.169,-34.2687 47.9701,-137.0748 79.5593,-228.458 31.5884,-91.3832 73.3684,-211.168 92.8447,-266.189 l 35.4115,-100.0375 -19.1453,-15.8239 c -65.6925,-54.2969 -272.2198,-176.5836 -324.0332,-191.8632 -13.0017,-3.8339 -15.1146,1.2011 -26.5813,63.3396 -6.852,37.1272 -44.2171,227.9436 -83.0348,424.0369 l -70.5768,356.5329 72.9271,4.331 c 77.3964,4.597 128.7903,19.4716 173.3112,50.1632 28.1986,19.439 31.8571,18.4061 40.6478,-11.4754 z m -1288.8699,39.0912 c 44.6776,-42.0945 164.7026,-83.8088 221.9231,-77.129 20.6059,2.4058 22.8931,1.0767 19.8082,-11.5149 -1.9168,-7.8291 -39.9579,-199.5975 -84.5348,-426.1517 -44.576,-226.5544 -81.8378,-412.9171 -82.8018,-414.1398 -2.6936,-3.4116 -138.7396,65.6686 -189.7096,96.3298 -24.908,14.9826 -70.21,45.3544 -100.6713,67.4927 -44.0962,32.0471 -55.2284,43.6679 -54.6216,57.0162 0.4229,9.2214 26.3896,89.9757 57.71,179.4551 31.3204,89.4794 87.0531,249.1252 123.8507,354.7678 36.7968,105.6431 67.5226,192.0936 68.2783,192.1123 0.7557,0 10.1015,-8.1886 20.7688,-18.2385 z m 2245.8302,295.1921 c -4.4001,-177.2919 -51.3203,-381.3215 -130.5399,-567.6464 -34.6645,-81.5325 -84.0242,-174.796 -90.8683,-171.6925 -16.8984,7.6646 -139.2859,82.7753 -139.2859,85.4822 0,1.8545 20.2267,44.5887 44.9473,94.9644 88.6188,180.5795 148.8953,418.0201 148.8953,586.5246 l 0,35.1008 84.1556,-1.9439 84.1556,-1.944 -1.4597,-58.8452 z m -358.7528,36.619 c 12.2583,-14.1284 49.4709,-56.1799 82.6932,-93.4485 68.71,-77.0761 65.1583,-57.8593 34.9194,-188.9361 -9.6629,-41.8839 -27.9281,-106.0357 -40.5892,-142.5599 -26.7477,-77.1552 -82.5313,-200.1874 -90.6792,-199.9943 -3.0762,0.068 -61.302,96.9293 -129.3902,215.2366 -120.3446,209.1063 -123.4331,215.4462 -110.7676,227.3642 7.1663,6.743 47.2984,43.0159 89.1819,80.6069 41.8842,37.5911 90.1722,81.6019 107.3061,97.8009 17.1348,16.1998 32.0271,29.4912 33.0954,29.5362 1.0683,0.068 11.9719,-11.4776 24.2302,-25.606 z m -2722.64578,10.111 c 0.07,-47.9125 16.773,-185.8237 31.22738,-257.8808 23.345,-116.3716 58.5102,-218.3518 117.0668,-339.4948 l 50.3258,-104.1139 -69.4131,-41.2685 c -38.1774,-22.6977 -71.3003,-42.0841 -73.6072,-43.0817 -7.5058,-3.244 -81.65428,145.118 -114.36398,228.8285 -58.8812,150.6909 -97.3944,329.1824 -105.2485,487.7814 l -4.1995,84.8065 84.0941,0 c 82.5868,0 84.0947,-0.277 84.1182,-15.5767 z m 386.33768,-121.3362 c 69.78,-75.0263 72.2817,-78.7855 64.2187,-96.484 -15.6059,-34.2493 -239.1614,-417.3624 -243.5415,-417.3624 -5.571,0 -49.7644,96.5774 -79.9944,174.816 -24.2455,62.7498 -61.7279,205.6262 -68.4369,260.8713 -3.4414,28.3365 -1.593,34.1248 17.8322,55.8436 11.9192,13.3267 53.1732,59.7451 91.6753,103.1516 l 70.0045,78.9205 37.8169,-40.8442 c 20.7985,-22.4644 70.4901,-75.9755 110.4252,-118.9124 z m 1973.8267,-3.3439 c 66.3334,-115.1442 150.1239,-260.1458 186.1991,-322.2262 36.6216,-63.0176 62.8536,-115.2854 59.3912,-118.3349 -3.4124,-3.0047 -48.2599,-39.2997 -99.6626,-80.6547 -51.4035,-41.3558 -115.0346,-93.2207 -141.4041,-115.2552 -26.3685,-22.0349 -48.5594,-39.3113 -49.3107,-38.3919 -5.7233,6.9964 -252.8241,727.0393 -251.1069,731.7158 2.3739,6.4612 166.0398,151.2878 171.8261,152.0465 1.9036,0.2493 57.7345,-93.755 124.0679,-208.8994 z m -1590.3796,133.2728 87.8641,-76.2137 -40.598,-115.8987 c -22.3301,-63.744 -79.0103,-227.2286 -125.9567,-363.2989 -46.9473,-136.0703 -86.9157,-247.3529 -88.8193,-247.2941 -1.9037,0.068 -65.5174,60.2936 -141.363,133.8543 l -137.9015,133.7477 93.3394,162.0073 c 51.3379,89.1034 130.5277,226.6108 175.9785,305.5724 45.4508,78.9613 84.202,143.6045 86.1144,143.6516 1.9133,0.068 43.0165,-34.2099 91.3421,-76.1279 z m -638.3841,301.37368 c 28.4465,-41.3455 80.7683,-86.6327 127.2781,-110.1639 21.7258,-10.9931 38.4315,-23.1961 37.1241,-27.1194 -1.3082,-3.9232 -58.2786,-70.3014 -126.6026,-147.50628 l -124.2246,-140.3738 -5.3244,63.6562 c -9.3177,111.4064 4.4986,278.88628 33.5418,406.57918 l 11.6569,51.25 13.1197,-33.4005 c 7.2158,-18.3709 22.2601,-46.6852 33.431,-62.9215 z m 2730.3883,-76.3161 c 10.4877,-75.9402 15.2083,-185.76618 12.4999,-290.76488 l -1.429,-55.3838 -26.0078,27.6919 c -14.3056,15.2306 -77.0191,85.1617 -139.3639,155.402 -108.892,122.68138 -112.7037,127.96988 -96.8001,134.30438 102.2151,40.7112 165.1633,92.9173 197.8199,164.0633 l 19.4956,42.4731 11.6339,-50.8167 c 6.3984,-27.9494 16.3669,-85.0854 22.1515,-126.9693 z m -1356.3365,354.8023 c 1.5166,-4.7596 13.8327,-120.8059 27.3694,-257.8808 13.5368,-137.0747 49.5979,-501.56928 80.1346,-809.98768 30.5376,-308.4183 57.3098,-581.0103 59.4946,-605.7598 2.1847,-24.7497 5.0858,-52.7877 6.4466,-62.3068 1.3625,-9.5191 5.9439,-54.6916 10.1829,-100.3831 4.2391,-45.6916 9.0911,-89.766 10.782,-97.9435 2.8555,-13.8154 -0.9685,-15.3944 -53.9964,-22.3057 -31.3869,-4.0901 -81.2116,-8.9529 -110.7212,-10.8047 l -53.653,-3.368 0,989.6968 c 0,884.12988 1.1304,989.69698 10.6024,989.69698 5.8301,0 11.8423,-3.8942 13.3581,-8.6537 z m -68.9595,-981.42608 0,-986.4286 -48.4605,2.1033 c -52.463,2.2762 -164.2814,14.4878 -168.1571,18.3639 -1.3126,1.3126 30.6015,335.2586 70.921,742.1023 40.3195,406.8436 82.6495,836.29068 94.0663,954.32738 25.619,264.8722 25.034,261.0826 39.9096,258.2172 10.9466,-2.1081 11.7207,-67.3883 11.7207,-988.68548 z m 179.0922,865.46618 c 13.4221,-66.6336 55.8773,-281.5918 94.3456,-477.68488 38.4693,-196.0933 85.5865,-433.9334 104.7072,-528.5336 19.1208,-94.6004 33.5849,-173.1802 32.1427,-174.623 -2.9028,-2.9028 -38.8081,-7.0642 -113.5189,-13.157 l -49.379,-4.0265 -4.1428,29.5978 c -2.2784,16.2793 -16.7512,157.3273 -32.161,313.4402 -15.4098,156.1131 -43.5069,438.8992 -62.4376,628.41348 -18.9308,189.5142 -34.4194,345.8432 -34.4194,347.3973 0,4.6842 30.7994,8.2481 35.8064,4.1435 2.5595,-2.0984 15.6348,-58.3336 29.0568,-124.9673 z m -259.1874,125.058 c 8.4667,-5.3583 3.6891,-68.8372 -32.9509,-437.772 -23.5691,-237.32778 -52.865,-533.61788 -65.1023,-658.42238 l -22.2477,-226.9169 -79.7992,4.5123 c -43.8896,2.4819 -82.1802,6.6614 -85.09,9.2879 -2.9098,2.6265 33.2696,199.2839 80.3973,437.0166 47.1277,237.7329 105.4822,532.71098 129.6774,655.50718 45.513,230.998 46.7993,234.706 75.1154,216.7873 z m 614.8886,-48.9052 c 49.2503,-85.6718 124.3543,-215.7911 166.8971,-289.1545 l 77.35,-133.3884 -22.6024,-19.5961 c -12.4317,-10.77778 -50.238,-43.57878 -84.0129,-72.89138 -33.7748,-29.3118 -62.6793,-52.0246 -64.2309,-50.4718 -2.6147,2.6147 -237.8154,675.00488 -237.8154,679.86478 0,2.7387 71.963,44.4642 73.6398,42.6982 0.6787,-0.7117 41.5236,-71.389 90.7747,-157.0608 z m -895.7748,138.4143 36.8808,-20.8132 -116.3762,-333.9889 c -64.0059,-183.6935 -116.476,-337.88258 -116.5986,-342.64208 -0.1252,-4.7596 -2.7898,-8.6539 -5.9264,-8.6539 -4.866,0 -67.2047,51.462 -151.6677,125.20348 l -22.3721,19.5331 71.1259,123.2054 c 39.1199,67.7633 114.6091,198.7017 167.7543,290.9745 53.1461,92.2728 97.4551,167.8198 98.4647,167.882 1.0096,0.07 18.4316,-9.2525 38.7153,-20.7004 z m -120.1161,79.4211 c 20.915,-17.2653 37.6873,-35.4014 37.2713,-40.3021 -0.6296,-7.4622 -496.5449,-873.29408 -506.1324,-883.67648 -1.7583,-1.9037 -22.387,16.8948 -45.8414,41.7739 -78.2195,82.9684 -167.2376,180.7429 -169.0625,185.6908 -0.9912,2.6889 79.5462,96.69378 178.9732,208.89998 99.427,112.2054 243.5439,274.8572 320.26,361.4468 76.716,86.5899 141.0634,157.46375 142.9943,157.49775 1.9308,0 20.6225,-14.0654 41.5375,-31.33065 z m 1428.1988,-394.1504 c 158.3655,-178.8369 287.3187,-325.59628 286.5621,-326.13148 -0.7565,-0.5331 -53.9753,-48.2378 -118.2658,-106.0066 -105.2632,-94.5865 -117.7282,-103.8087 -125.3078,-92.7083 -8.1042,11.868 -92.4726,157.7469 -376.8938,651.67118 -73.1259,126.9893 -130.9409,232.9107 -128.4804,235.3809 2.4615,2.4701 21.9299,18.6588 43.2635,35.9753 l 38.7871,31.48425 46.1995,-52.25315 c 25.4088,-28.7394 175.77,-198.5744 334.1356,-377.4121 z m -2257.1863,435.92635 c 34.0485,-20.9419 64.9623,-38.07635 68.6973,-38.07635 3.7349,0 5.6956,-2.3365 4.3573,-5.1922 -1.3389,-2.8557 -23.1643,-47.2493 -48.5017,-98.6523 -88.5635,-179.6761 -132.51458,-343.8945 -147.76448,-552.107 l -4.6898,-64.03738 -82.3409,0 -82.3412,0 0,40.8046 c 0,122.16538 32.2797,304.69588 78.829,445.74868 43.8813,132.9688 126.29028,309.58835 144.45058,309.58835 4.0686,0 35.2545,-17.1344 69.3039,-38.0764 z m 2784.0349,-44.99935 c 102.4489,-202.2365 165.644,-441.5159 171.8699,-650.7592 l 1.7513,-58.84528 -84.7589,-1.9439 -84.7581,-1.9433 0,31.6392 c 0,45.78248 -12.626,157.32888 -25.0691,221.47498 -25.5813,131.8777 -72.2887,266.2824 -134.4523,386.8971 -19.2582,37.3668 -34.0288,70.8975 -32.8239,74.5113 1.204,3.6138 33.2836,24.82785 71.2861,47.14125 48.2258,28.3164 70.7625,38.1464 74.6136,32.545 3.0351,-4.4142 22.0884,-40.7368 42.3414,-80.71715 z m -1367.4065,70.54455 c 15.8038,-62.39405 36.4237,-182.57265 32.07,-186.91685 -5.7916,-5.7807 -229.2375,-6.4764 -234.9739,-0.7324 -2.2224,2.2263 2.1725,34.9374 9.7653,72.6911 7.5928,37.7544 17.197,85.77845 21.3423,106.72045 l 7.5359,38.0764 78.8955,-2.1469 78.8947,-2.1474 6.4702,-25.5444 z m 250.0956,-264.38765 c 61.576,-177.0551 149.243,-429.3973 194.8155,-560.76068 45.5725,-131.3635 88.7038,-254.8 95.8456,-274.3027 l 12.9868,-35.4608 -18.6103,-17.8212 c -39.379,-37.7108 -137.1178,-65.1694 -206.4844,-58.0103 -21.2189,2.1897 -40.0376,5.44 -41.8195,7.222 -3.8958,3.8963 -1.5132,-7.8631 -106.1494,523.75538 -46.0901,234.1696 -96.0812,487.9324 -111.0899,563.9168 -15.0096,75.98455 -27.2898,141.91465 -27.2898,146.51165 0,9.1528 83.6679,37.5508 91.1872,30.9504 2.5586,-2.245 55.0313,-148.94555 116.6082,-326.00055 z m -463.9426,291.08405 c 0,-9.9692 -71.9192,-378.69215 -190.4652,-976.45833 l -50.112,-252.6883 -39.9272,-2.1054 c -72.4498,-3.8208 -183.5729,42.7425 -206.5195,86.5358 -7.9509,15.1758 -5.6313,26.6458 20.4886,101.339 16.1996,46.3244 64.1574,183.9173 106.5715,305.76148 162.4706,466.7316 189.2367,543.4954 229.6289,658.5768 l 41.6224,118.58425 44.3554,-14.4205 c 29.1768,-9.4859 44.3554,-18.0835 44.3571,-25.1248 z m 601.7311,19.3862 42.1059,-46.0627 -41.4272,-33.5514 c -45.4474,-36.80665 -122.5303,-85.47385 -135.3788,-85.47385 -4.479,0 -22.9544,43.655 -41.0568,97.01095 -26.7573,78.8617 -31.3169,98.9369 -24.3703,107.3062 4.6996,5.6621 12.0569,10.3962 16.3502,10.5187 4.2933,0.1245 24.9001,12.5838 45.7923,27.6918 20.8931,15.1074 39.8817,27.4683 42.1961,27.4683 47.6653,-49.1967 70.237,-77.8633 95.7886,-104.908 z m -833.7172,98.0896 c 2.317,-3.7502 25.7372,-19.3891 52.0445,-34.7533 l 47.8317,-27.9349 -35.8116,-103.4216 -35.8125,-103.42155 -33.661,19.4342 c -54.1365,31.2557 -136.793,90.52955 -140.7982,100.96875 -4.1243,10.7465 120.3867,155.9102 133.7474,155.9329 4.535,0 10.1418,-3.0544 12.4597,-6.8045 z m 1261.997,-107.4105 388.258,-242.30405 27.711,-70.1672 27.71,-70.1671 -10.5516,-40.4072 c -25.443,-97.4339 -81.1968,-155.8555 -184.5318,-193.3641 l -45.4684,-16.5044 -57.8755,63.7689 c -31.8317,35.0723 -91.9734,102.7098 -133.6484,150.3052 -41.6741,47.5955 -85.4962,97.4409 -97.3824,110.7676 -11.8861,13.3267 -52.0839,58.4991 -89.3281,100.3831 -37.2459,41.8839 -77.4384,87.0563 -89.3184,100.383 -11.88,13.3268 -67.7783,76.59505 -124.2186,140.59595 l -102.6196,116.364798 34.1645,36.1234 c 18.7898,19.8675 37.9097,43.1223999 42.4876,51.6764 5.3721,10.0383 11.5201,13.6563 17.3388,10.2017 4.9589,-2.9437 183.7315,-114.3889 397.2729,-247.655998 z M 1983.3689,-30.332772 c 35.3528,-42.1816 38.5323,-48.4836 29.682,-58.8452 -12.2547,-14.347898 -463.0493,-524.327848 -599.2626,-677.940348 -54.865,-61.874 -103.6371,-112.4982 -108.3823,-112.4982 -13.9719,0 -87.8382,41.2608 -118.7187,66.3144 -53.0688,43.0554 -92.6238,127.4076 -92.6238,197.5214 0,35.8866 45.81,142.2775 68.3761,158.7984 52.6796,38.5685 773.4137,482.365648 777.0503,478.474948 2.3563,-2.5214 22.1023,-25.8428001 43.879,-51.8254 z m 1268.8052,121.204 c 16.1138,-10.6912 61.9166,-46.5543 101.7852,-79.6959 116.6642,-96.9791 226.2366,-227.014698 315.2004,-374.064148 l 16.169,-26.7254 -17.246,9.418 c -9.486,5.1797 -129.2352,79.20095 -266.1087,164.49045 l -248.8626,155.071898 29.6006,73.3862 c 16.2801,40.3623 29.6417,78.8374 29.6908,85.5008 0.1243,16.347202 5.5157,15.345402 39.7713,-7.3819 z M 1664.503,69.308128 c 6.7653,-22.5834 21.45,-60.4098001 32.6347,-84.0587 11.1847,-23.6489 19.4789,-43.837 18.4334,-44.8622 -8.3791,-8.2134 -524.586,-326.592548 -524.586,-323.546448 0,10.9397 85.8693,138.05795 132.2912,195.83985 65.4315,81.4439 176.5914,189.1977979 258.8889,250.957598 34.2486,25.7015 64.0173,46.730102 66.1539,46.730102 2.1366,0 9.4194,-18.476702 16.1839,-41.060202 z m 200.7787,101.636202 c 6.5779,-23.7977 19.88,-56.8466 29.5594,-73.442402 21.1944,-36.3421 24.1882,-32.4977 -70.4043,-90.4015001 l -69.2292,-42.3781999 -18.8152,39.9391999 c -10.3476,21.9666001 -25.2696,60.1399001 -33.1593,84.8293001 -13.7398,42.996402 -13.823,45.291402 -1.9544,54.379902 17.2407,13.2041 134.2272,70.3423 144.0206,70.3423 4.4115,0 13.4036,-19.471 19.9824,-43.2686 z m 1307.7184,-35.2829 -80.266,-158.759002 c -133.9321,78.9697 0,0 -133.9321,78.9697 17.7372,55.770002 42.2135,107.872902 61.6373,164.518102 52.4963,-25.7465 110.1362,-54.9275 152.5608,-84.7288 z m 153.5372,159.0226 c 177.2105,-116.5301 337.9578,-274.307402 452.2166,-443.8593 23.0683,-34.2313 41.3922,-62.6806 40.7206,-63.2199 -21.1681,-17.0062 -146.7237,-84.6284 -149.9759,-80.7751 -2.5377,3.0073 -19.7303,27.2751 -38.2039,53.9285 -102.7011,148.170998 -238.8294,280.457898 -392.3859,381.3153 -39.2792,25.7984 -73.8553,48.9481 -76.8377,51.4445 -6.866,5.7489 72.6346,152.2313 82.6206,152.2313 2.3047,0 39.1347,-22.9795 81.8456,-51.0653 z m -1654.7401,-26.3107 c 21.126,-38.5271 38.4105,-70.914 38.4105,-71.9719 0,-1.0571 -31.5892,-22.6202 -70.1977,-47.9167 -166.6868,-109.214602 -294.2836,-232.364602 -403.5598,-389.4932 -21.8606,-31.4337 -41.8118,-56.0719 -44.3368,-54.7517 -29.7071,15.5275 -139.5877,82.9766 -139.5877,85.6843 0,8.5374 69.8722,107.7159 118.4554,168.138798 64.2008,79.8468 189.4344,202.281002 269.2161,263.197502 75.8316,57.9009 180.3225,125.1141 187.5554,120.6439 3.099,-1.915 22.9194,-35.0039 44.0446,-73.531 z m 1005.4899,274.3352 c 97.7387,-14.4988 236.5728,-50.3661 327.5165,-84.6125 69.6539,-26.2297 184.2367,-79.4508 195.9854,-91.0316 3.0823,-3.0378 -12.3205,-37.8935 -34.2293,-77.457 -21.908,-39.5626 -40.2179,-72.6634 -40.6882,-73.5559 -0.4702,-0.8923 -38.027,15.1164 -83.4612,35.5751 -154.3078,69.4846 -335.6951,117.1554 -477.2157,125.4172 -38.0761,2.2231 -79.3544,5.5787 -91.7291,7.4561 l -22.5,3.4152 0,87.2805 0,87.2815 75.7476,-4.3338 c 41.6601,-2.3836 109.4182,-9.3294 150.574,-15.4348 z m -260.9362,-68.0763 c 0,-98.2868 3.2216,-93.9967 -70.7222,-94.1732 -143.602,-0.3461 -375.9498,-59.957 -541.9607,-139.0514 -30.4613,-14.5133 -57.4814,-24.2325 -60.0453,-21.5989 -5.2697,5.4138 -81.8754,140.1992 -81.8754,144.0587 0,1.3729 24.1435,14.6047 53.6531,29.4039 142.5477,71.4893 326.7187,128.3366 482.8768,149.0481 45.6916,6.0597 90.864,12.1741 100.3832,13.5877 9.5192,1.413 39.8939,2.9928 67.4989,3.5114 l 50.1916,0.9429 0,-85.7292 z"
       inkscape:connector-curvature="0" />
  </g>
</svg>
