<?xml version="1.0" encoding="UTF-8" standalone="no"?>
<!-- Created with Inkscape (http://www.inkscape.org/) -->

<svg
   xmlns:dc="http://purl.org/dc/elements/1.1/"
   xmlns:cc="http://creativecommons.org/ns#"
   xmlns:rdf="http://www.w3.org/1999/02/22-rdf-syntax-ns#"
   xmlns:svg="http://www.w3.org/2000/svg"
   xmlns="http://www.w3.org/2000/svg"
   xmlns:sodipodi="http://sodipodi.sourceforge.net/DTD/sodipodi-0.dtd"
   xmlns:inkscape="http://www.inkscape.org/namespaces/inkscape"
   width="96in"
   height="48in"
   viewBox="0 0 8639.9999 4320"
   id="svg4475"
   version="1.1"
   inkscape:version="0.91pre4 r13712"
   sodipodi:docname="circleFrame.svg">
  <defs
     id="defs4477" />
  <sodipodi:namedview
     id="base"
     pagecolor="#ffffff"
     bordercolor="#666666"
     borderopacity="1.0"
     inkscape:pageopacity="0.0"
     inkscape:pageshadow="2"
     inkscape:zoom="0.087500001"
     inkscape:cx="4403.9208"
     inkscape:cy="1508.2637"
     inkscape:document-units="in"
     inkscape:current-layer="layer1"
     showgrid="false"
     units="in"
     inkscape:window-width="1920"
     inkscape:window-height="1017"
     inkscape:window-x="1912"
     inkscape:window-y="-8"
     inkscape:window-maximized="1" />
  <metadata
     id="metadata4480">
    <rdf:RDF>
      <cc:Work
         rdf:about="">
        <dc:format>image/svg+xml</dc:format>
        <dc:type
           rdf:resource="http://purl.org/dc/dcmitype/StillImage" />
        <dc:title></dc:title>
      </cc:Work>
    </rdf:RDF>
  </metadata>
  <g
     inkscape:label="Layer 1"
     inkscape:groupmode="layer"
     id="layer1"
     transform="translate(0,3267.6378)">
    <path
       inkscape:transform-center-y="-929.27467"
       inkscape:transform-center-x="3.4701824"
       transform="matrix(12.202989,0,0,12.186382,19015.579,3648.7844)"
       d="m -1027.7542,-213.55932 -265.009,-0.49272 -265.0091,-0.49271 132.9313,-229.25822 132.9312,-229.25821 132.0778,229.75093 z"
       inkscape:randomized="0"
       inkscape:rounded="0"
       inkscape:flatsided="false"
       sodipodi:arg2="1.5726556"
       sodipodi:arg1="0.52545802"
       sodipodi:r2="153.00331"
       sodipodi:r1="306.00662"
       sodipodi:cy="-367.05508"
       sodipodi:cx="-1292.4788"
       sodipodi:sides="3"
       id="path3107"
       style="color:#000000;display:inline;overflow:visible;visibility:visible;fill:none;stroke:#ff0000;stroke-width:1;stroke-linecap:square;stroke-linejoin:round;stroke-miterlimit:4;stroke-dasharray:4, 1;stroke-dashoffset:0;stroke-opacity:1;marker:none;enable-background:accumulate"
       sodipodi:type="star" />
    <path
       style="color:#000000;display:inline;overflow:visible;visibility:visible;fill:#ff0000;stroke:#ff0000;stroke-width:1.11578476;stroke-linecap:butt;stroke-linejoin:miter;stroke-miterlimit:4;stroke-dasharray:none;stroke-dashoffset:0;stroke-opacity:1;marker:none;enable-background:accumulate"
       d="M 4309.752 571.98828 L 2152.4629 582.9082 L 1083.2754 2456.6328 L 2171.375 4319.4395 L 4328.6641 4308.5215 L 5397.8516 2434.7949 L 4309.752 571.98828 z M 3171.4961 751.71875 C 3137.146 766.55645 3104.1893 783.02728 3072.8477 800.95508 C 3071.1854 801.90598 3069.6023 802.92216 3067.9492 803.88086 C 3047.6041 797.22816 3026.884 791.06856 3005.666 785.66406 C 2989.1918 781.46796 2972.3979 777.81813 2955.4668 774.42383 C 2981.2959 768.83043 3007.3649 764.1678 3033.5957 760.625 C 3079.2881 754.4533 3125.4756 751.56485 3171.4961 751.71875 z M 3581.4316 842.11914 C 3587.9786 845.16014 3594.5713 848.14211 3601.0137 851.31641 C 3642.8306 871.92101 3682.4731 895.339 3719.3809 920.9668 C 3756.2896 946.5954 3790.5394 974.48742 3821.7109 1003.9316 C 3827.5237 1009.4224 3833.1227 1015.0228 3838.7246 1020.6211 C 3833.0375 1021.4696 3827.2912 1022.2223 3821.6719 1023.1777 C 3778.4286 1030.5298 3737.3243 1040.9982 3698.7793 1054.0352 C 3660.2368 1067.0713 3624.3524 1082.6401 3591.4004 1100.1328 C 3564.4289 1114.4507 3539.6042 1130.0695 3516.7598 1146.5469 C 3516.4355 1145.9896 3516.1548 1145.4343 3515.8281 1144.877 C 3498.3863 1115.1214 3477.5322 1085.3556 3453.1523 1056.2148 C 3428.7705 1027.0719 3400.9292 998.6395 3369.6641 971.5918 C 3340.5645 946.4177 3308.4466 922.57974 3273.7031 900.46094 C 3312.8085 885.46834 3354.1043 872.95282 3397.0098 863.44922 C 3440.5071 853.81452 3485.7283 847.22998 3531.9297 844.05078 C 3548.296 842.92448 3564.8322 842.38394 3581.4316 842.11914 z M 3992.3574 926.02148 C 4025.5539 940.65478 4058.056 957.08952 4089.5312 975.26172 C 4121.0061 993.43382 4151.4873 1013.3631 4180.7578 1034.7949 C 4154.0243 1028.7898 4127.3694 1023.847 4100.916 1020.1426 C 4089.2446 1018.5082 4077.6226 1017.1284 4066.0469 1015.9336 C 4059.2246 1006.5066 4052.2195 997.13395 4044.9688 987.84375 C 4028.5331 966.78555 4010.9258 946.17178 3992.3574 926.02148 z M 2751.0352 930.52148 L 2751.0332 930.52344 C 2780.3551 930.53344 2809.2679 931.97108 2837.5586 934.76758 C 2854.2063 936.41318 2870.5776 938.66666 2886.7812 941.22656 C 2876.3803 951.44386 2866.2148 961.75646 2856.5742 972.25586 C 2827.3244 1004.1109 2801.6667 1037.0748 2779.5859 1070.4609 C 2757.5057 1103.8459 2739.0601 1137.5626 2724.084 1170.9688 C 2714.8145 1191.6454 2707.0459 1212.1289 2700.3984 1232.3555 C 2693.5023 1229.3126 2686.5268 1226.3224 2679.3594 1223.4727 C 2646.6484 1210.467 2611.2379 1199.5839 2573.4355 1191.3984 C 2535.6303 1183.2127 2495.5412 1177.7503 2453.6152 1175.5176 C 2423.0022 1173.8877 2391.4485 1174.031 2359.209 1176.0098 C 2377.3974 1148.0402 2397.5602 1120.5208 2419.7578 1093.873 C 2448.0187 1059.9463 2479.5117 1027.3348 2513.8789 996.77539 C 2532.9368 979.82899 2552.9844 963.57114 2573.7637 947.96094 C 2617.6248 939.37164 2661.4916 933.92153 2704.6523 931.70703 C 2715.9626 931.12673 2727.2304 930.76252 2738.4434 930.60742 C 2742.6483 930.54942 2746.8464 930.52048 2751.0352 930.52148 z M 3088.5918 1000.6348 C 3118.6257 1014.1225 3146.9047 1029.0801 3172.9199 1045.25 C 3202.8957 1063.8814 3230.1046 1084.0443 3254.2852 1104.9629 C 3268.3255 1117.1093 3281.3643 1129.5331 3293.3984 1142.0742 A 1306.284 1306.284 0 0 0 3240.5645 1139.4297 A 1306.284 1306.284 0 0 0 2918.2285 1180.9512 C 2920.9628 1176.5552 2923.7812 1172.1522 2926.6953 1167.7461 C 2943.5543 1142.2552 2963.4944 1116.5772 2986.4922 1091.5312 C 3009.4882 1066.4896 3035.6107 1041.9989 3064.6582 1018.8594 C 3072.413 1012.6818 3080.4162 1006.615 3088.5918 1000.6348 z M 2189.1387 1115.7695 C 2169.0262 1149.7169 2151.315 1184.204 2135.9355 1218.9277 C 2106.2517 1228.5096 2076.5443 1239.5104 2046.9922 1252.3262 C 2040.5411 1255.1238 2034.1259 1258.1812 2027.6953 1261.1328 C 2038.6929 1248.826 2049.8853 1236.6818 2061.4902 1224.9199 C 2096.2215 1189.7192 2133.6535 1157.0051 2173.1543 1127.3223 C 2178.4128 1123.3708 2183.806 1119.6145 2189.1387 1115.7695 z M 3959.377 1187.3125 C 3961.9178 1187.2785 3964.5195 1187.3654 3967.0742 1187.3574 C 3968.3441 1189.5734 3969.7207 1191.7829 3970.9609 1194 C 3989.3787 1226.9247 4004.562 1260.0357 4016.6133 1292.5254 C 4028.6653 1325.0173 4037.6212 1356.9792 4043.7559 1387.6445 C 4046.0743 1399.2334 4047.9902 1410.6496 4049.5332 1421.8594 A 1306.284 1306.284 0 0 0 3723.1738 1233.0254 C 3733.5241 1228.8193 3744.2322 1224.8301 3755.2793 1221.0938 C 3784.9034 1211.0714 3817.0604 1202.8477 3851.2246 1197.0391 C 3885.3874 1191.231 3921.6544 1187.8246 3959.377 1187.3125 z M 4175.6543 1215.1465 C 4183.3023 1217.1983 4190.951 1219.2469 4198.6113 1221.5352 C 4239.6975 1233.8079 4280.9756 1249.5241 4321.625 1268.6738 C 4362.2728 1287.8226 4402.3763 1310.4451 4441.1289 1336.3574 C 4447.0985 1340.349 4452.9764 1344.5659 4458.8828 1348.7148 C 4466.9538 1363.2236 4474.7546 1377.8149 4481.9629 1392.5527 C 4502.3103 1434.154 4519.2183 1476.6105 4532.623 1519.0977 C 4545.8455 1561.0071 4555.6538 1603.0258 4562.2227 1644.3887 C 4525.6952 1625.3591 4488.994 1609.4637 4452.6426 1596.8496 C 4413.5863 1583.2973 4375.0447 1573.4012 4337.6152 1566.8574 C 4300.1885 1560.3141 4263.984 1557.1375 4229.4941 1556.9102 C 4228.848 1556.9102 4228.2268 1556.9375 4227.582 1556.9355 C 4230.4296 1528.9135 4231.5431 1499.6057 4230.457 1469.0898 C 4229.1301 1431.8067 4224.6711 1392.945 4216.6895 1353.0488 C 4208.7075 1313.1492 4197.2212 1272.3191 4181.9668 1231.1934 C 4179.9844 1225.849 4177.7631 1220.4959 4175.6543 1215.1465 z M 3240.5645 1221.1113 A 1224.603 1224.603 0 0 1 4465.166 2445.7148 A 1224.603 1224.603 0 0 1 3240.5645 3670.3184 A 1224.603 1224.603 0 0 1 2015.9609 2445.7148 A 1224.603 1224.603 0 0 1 3240.5645 1221.1113 z M 2413.1387 1350.7422 C 2423.6811 1350.7832 2434.0578 1351.0805 2444.25 1351.623 C 2469.3744 1352.9611 2493.4257 1355.7907 2516.1523 1359.832 A 1306.284 1306.284 0 0 0 2236.3066 1610.9668 C 2234.2922 1582.2072 2234.3888 1551.5707 2237.0488 1519.623 C 2239.8146 1486.4007 2245.3549 1451.6693 2254.002 1416.1719 C 2258.0415 1399.5895 2262.833 1382.8081 2268.2559 1365.9316 C 2293.0559 1360.7439 2317.5333 1356.824 2341.3906 1354.3516 C 2365.9542 1351.8058 2389.9454 1350.6517 2413.1387 1350.7422 z M 2069.9473 1436.5293 L 2069.9512 1436.5293 C 2066.0815 1459.6324 2063.1618 1482.4939 2061.2891 1504.9883 C 2057.7527 1547.4628 2057.6986 1588.583 2060.6934 1627.8281 C 2063.6877 1667.07 2069.7189 1704.3295 2078.2598 1739.207 C 2081.8416 1753.8339 2085.9511 1767.9179 2090.3633 1781.6504 C 2076.2647 1784.6956 2062.0127 1788.1773 2047.5547 1792.3887 C 2013.0793 1802.4309 1977.7979 1815.8375 1942.3164 1832.8652 C 1906.832 1849.8941 1871.2464 1870.4989 1836.2305 1894.7988 C 1817.6864 1907.6676 1799.3479 1921.627 1781.2754 1936.5293 C 1779.9878 1911.6892 1779.6407 1886.4549 1780.5684 1860.8594 C 1782.1529 1817.1432 1787.0746 1772.45 1795.5098 1727.584 C 1801.8743 1693.7304 1810.26 1659.7267 1820.6465 1625.9277 C 1844.7241 1600.0331 1869.9774 1575.7689 1896.1133 1553.3301 C 1930.751 1523.592 1966.9936 1496.9841 2004.0605 1473.7539 C 2025.7635 1460.1524 2047.7907 1447.8345 2069.9473 1436.5293 z M 4742.1406 1658.5312 C 4765.2841 1698.3093 4785.8794 1739.7517 4803.3809 1782.4082 C 4813.4279 1806.8959 4822.4237 1831.8036 4830.4941 1856.9688 C 4819.0893 1844.0032 4807.5308 1831.2859 4795.6602 1819.1172 C 4780.3698 1803.4432 4764.6733 1788.5809 4748.7383 1774.2871 C 4748.7383 1772.3768 4748.8322 1770.4983 4748.8242 1768.584 C 4748.6795 1732.4764 4746.4661 1695.699 4742.1406 1658.5312 z M 4344.6934 1748.5195 C 4361.0711 1752.5982 4377.824 1757.5582 4394.8184 1763.4551 C 4425.0246 1773.9367 4456.0895 1787.4203 4487.2129 1804.0645 C 4514.2278 1818.5115 4541.3263 1835.5255 4568.0273 1854.7949 C 4566.9359 1864.8681 4565.6838 1874.8353 4564.2109 1884.6426 C 4558.6953 1921.3681 4550.5505 1956.2346 4540.3594 1988.6719 C 4530.1677 2021.1118 4517.9 2051.219 4504.2539 2078.5645 C 4502.081 2082.9187 4499.8669 2087.1963 4497.625 2091.4141 A 1306.284 1306.284 0 0 0 4344.6934 1748.5195 z M 1608.252 1987.6309 C 1608.911 1994.6758 1609.4707 2001.7604 1610.2734 2008.7461 C 1613.9508 2040.7472 1619.2765 2071.9761 1625.8203 2102.4746 C 1603.4389 2133.1549 1582.4266 2165.7362 1563.084 2200.127 C 1563.7475 2193.5867 1564.3049 2187.039 1565.0977 2180.5098 C 1571.0534 2131.4595 1580.668 2082.6861 1593.7871 2035.0078 C 1598.171 2019.0756 1603.0924 2003.3095 1608.252 1987.6309 z M 2017.1113 1992.5918 A 1306.284 1306.284 0 0 0 1938.4746 2361.9023 C 1923.4289 2344.0766 1908.7756 2324.457 1894.8945 2303.1211 C 1877.0831 2275.7443 1860.4862 2245.472 1845.8281 2212.6777 C 1836.0403 2190.7797 1827.1945 2167.6243 1819.2871 2143.5527 C 1831.1913 2130.4177 1843.3307 2117.8775 1855.6719 2106.0879 C 1882.0905 2080.8504 1909.3989 2058.6879 1936.7871 2039.6816 C 1963.6629 2021.0308 1990.6919 2005.3697 2017.1113 1992.5918 z M 4720.3828 1999.8574 C 4730.7009 2012.6096 4740.8375 2025.6602 4750.5859 2039.2539 C 4775.8307 2074.457 4799.0774 2112.4879 4819.6875 2152.8281 C 4839.3495 2191.3123 4856.5648 2232.0245 4871.0566 2274.3027 C 4867.9274 2300.1045 4863.8718 2325.5954 4858.7246 2350.5742 C 4849.4427 2395.6171 4836.9462 2439.1988 4821.6953 2480.6367 C 4809.7163 2513.1846 4795.9662 2544.4063 4780.8379 2574.1426 C 4766.4319 2545.2332 4750.7802 2517.833 4734.0625 2492.1367 C 4711.166 2456.944 4686.3901 2424.956 4660.3984 2396.3086 C 4634.4085 2367.6637 4607.279 2342.437 4579.6602 2320.6113 C 4573.6089 2315.8293 4567.5321 2311.2826 4561.4492 2306.832 C 4575.642 2290.9621 4589.4958 2273.9927 4602.7676 2255.627 C 4624.2108 2225.9537 4644.1885 2193.1204 4662.0605 2157.3066 C 4679.9338 2121.4901 4695.6508 2082.7886 4708.6133 2041.5293 C 4712.8855 2027.9313 4716.735 2013.9729 4720.3828 1999.8574 z M 1700.291 2317.291 C 1714.6964 2346.1987 1730.3489 2373.5975 1747.0664 2399.293 C 1769.963 2434.4862 1794.7383 2466.4755 1820.7305 2495.123 C 1846.7206 2523.7683 1873.8501 2548.9929 1901.4688 2570.8184 C 1907.5195 2575.6003 1913.5967 2580.1471 1919.6797 2584.5977 C 1905.4868 2600.4677 1891.6332 2617.4369 1878.3613 2635.8027 C 1856.9188 2665.4756 1836.9405 2698.3086 1819.0684 2734.123 C 1801.1951 2769.9393 1785.4782 2808.6428 1772.5156 2849.9023 C 1768.2433 2863.5009 1764.394 2877.4582 1760.7461 2891.5742 C 1750.4276 2878.8216 1740.2916 2865.772 1730.543 2852.1777 C 1705.2979 2816.9745 1682.0514 2778.9438 1661.4414 2738.6035 C 1641.7786 2700.1173 1624.5643 2659.4025 1610.0723 2617.123 C 1613.2015 2591.3228 1617.2573 2565.833 1622.4043 2540.8555 C 1631.686 2495.8128 1644.1826 2452.2312 1659.4336 2410.793 C 1671.4124 2378.2457 1685.163 2347.0269 1700.291 2317.291 z M 4542.6543 2529.5215 C 4557.7017 2547.3484 4572.3562 2566.9714 4586.2383 2588.3086 C 4604.05 2615.6865 4620.6469 2645.958 4635.3047 2678.752 C 4645.0923 2700.6492 4653.9385 2723.8058 4661.8457 2747.877 C 4649.9413 2761.0122 4637.8025 2773.552 4625.4609 2785.3418 C 4599.043 2810.5791 4571.7341 2832.7415 4544.3457 2851.748 L 4544.3457 2851.75 C 4517.4677 2870.4025 4490.4358 2886.063 4464.0137 2898.8418 A 1306.284 1306.284 0 0 0 4542.6543 2529.5215 z M 4918.043 2691.3047 C 4917.3795 2697.8449 4916.822 2704.3928 4916.0293 2710.9219 C 4910.0737 2759.9724 4900.4591 2808.7463 4887.3398 2856.4258 C 4882.9562 2872.3571 4878.0362 2888.121 4872.877 2903.7988 C 4872.2178 2896.7538 4871.6582 2889.6694 4870.8555 2882.6836 C 4867.1781 2850.6825 4861.8524 2819.4535 4855.3086 2788.9551 C 4877.6896 2758.2753 4898.7007 2725.6948 4918.043 2691.3047 z M 1983.498 2800.0059 A 1306.284 1306.284 0 0 0 2136.4336 3142.9102 C 2120.0534 3138.8312 2103.2979 3133.8726 2086.3008 3127.9746 C 2056.0948 3117.4931 2025.0297 3104.0114 1993.9062 3087.3672 C 1966.8918 3072.9201 1939.7935 3055.9047 1913.0918 3036.6348 C 1914.1832 3026.5623 1915.4354 3016.5957 1916.9082 3006.7891 C 1922.4239 2970.0634 1930.5687 2935.1971 1940.7598 2902.7598 C 1950.9515 2870.32 1963.219 2840.2129 1976.8652 2812.8672 C 1979.0397 2808.5098 1981.2544 2804.2267 1983.498 2800.0059 z M 4699.8477 2954.9004 C 4701.1353 2979.7404 4701.4824 3004.9768 4700.5547 3030.5723 C 4698.9702 3074.2882 4694.0503 3118.9811 4685.6152 3163.8477 C 4679.2507 3197.7012 4670.8631 3231.7028 4660.4766 3265.502 C 4636.3989 3291.3965 4611.1456 3315.6609 4585.0098 3338.0996 C 4550.3719 3367.8378 4514.1275 3394.4456 4477.0605 3417.6758 C 4455.3586 3431.2766 4433.3311 3443.5957 4411.1758 3454.9004 C 4415.0452 3431.7987 4417.9632 3408.9364 4419.8359 3386.4434 L 4419.8359 3386.4414 C 4423.3722 3343.9672 4423.4241 3302.8451 4420.4297 3263.6016 C 4417.4352 3224.3602 4411.4042 3187.1024 4402.8633 3152.2246 L 4402.8633 3152.2227 C 4399.2814 3137.5961 4395.1718 3123.5135 4390.7598 3109.7812 C 4404.8588 3106.736 4419.1099 3103.2544 4433.5684 3099.043 C 4468.0434 3089.0008 4503.3251 3075.594 4538.8066 3058.5664 C 4574.2904 3041.5376 4609.8764 3020.9309 4644.8926 2996.6309 C 4663.4364 2983.7621 4681.7751 2969.8028 4699.8477 2954.9004 z M 1650.6328 3034.4609 C 1662.0378 3047.4263 1673.5959 3060.1456 1685.4668 3072.3145 C 1700.7571 3087.9884 1716.4538 3102.8527 1732.3887 3117.1465 C 1732.3887 3119.0562 1732.2947 3120.9339 1732.3027 3122.8477 L 1732.3027 3122.8496 C 1732.4475 3158.9579 1734.6608 3195.7341 1738.9863 3232.9023 C 1715.8423 3193.124 1695.2479 3151.6811 1677.7461 3109.0234 C 1667.699 3084.5355 1658.7032 3059.6261 1650.6328 3034.4609 z M 1918.9043 3247.041 C 1955.4317 3266.0705 1992.1345 3281.9679 2028.4863 3294.582 L 2028.4863 3294.5801 C 2067.5431 3308.1329 2106.0861 3318.0285 2143.5156 3324.5723 C 2180.9425 3331.1156 2217.1472 3334.2922 2251.6367 3334.5195 C 2252.2835 3334.5238 2252.9053 3334.49 2253.5508 3334.4922 C 2250.7031 3362.5147 2249.5877 3391.823 2250.6738 3422.3398 C 2252.0008 3459.6233 2256.46 3498.4861 2264.4414 3538.3828 C 2272.4235 3578.2822 2283.9093 3619.1123 2299.1641 3660.2383 C 2301.1467 3665.5834 2303.3675 3670.9368 2305.4766 3676.2871 C 2297.8271 3674.2348 2290.1774 3672.1851 2282.5156 3669.8965 C 2241.4294 3657.6236 2200.1512 3641.9074 2159.502 3622.7578 C 2118.8535 3603.6086 2078.7506 3580.9864 2039.998 3555.0742 C 2034.0284 3551.0826 2028.1506 3546.8657 2022.2441 3542.7168 C 2014.1732 3528.208 2006.3723 3513.6146 1999.1641 3498.877 C 1978.8166 3457.2752 1961.9087 3414.821 1948.5039 3372.334 C 1935.2814 3330.4245 1925.4731 3288.4038 1918.9043 3247.041 z M 4244.834 3280.4492 C 4246.8494 3309.2138 4246.7521 3339.8581 4244.0918 3371.8105 C 4241.3258 3405.0328 4235.7878 3439.7643 4227.1406 3475.2617 C 4223.1013 3491.8443 4218.3098 3508.627 4212.8867 3525.5039 C 4188.0868 3530.6917 4163.6096 3534.6096 4139.752 3537.082 C 4104.0224 3540.7848 4069.5075 3541.5472 4036.8926 3539.8105 C 4011.7614 3538.4725 3987.7046 3535.641 3964.9727 3531.5977 A 1306.284 1306.284 0 0 0 4244.834 3280.4492 z M 2431.5879 3469.5645 A 1306.284 1306.284 0 0 0 2757.957 3658.4043 C 2747.6048 3662.6116 2736.8951 3666.6046 2725.8457 3670.3418 C 2696.2214 3680.3616 2664.065 3688.588 2629.9004 3694.3965 C 2595.738 3700.2047 2559.4707 3703.6109 2521.748 3704.123 C 2519.2074 3704.1575 2516.6053 3704.0699 2514.0508 3704.0781 C 2512.7804 3701.8614 2511.4027 3699.6515 2510.1621 3697.4336 C 2491.7443 3664.509 2476.5612 3631.3982 2464.5098 3598.9082 C 2452.458 3566.4173 2443.5021 3534.4542 2437.3672 3503.7891 L 2437.3672 3503.7871 C 2435.0485 3492.1962 2433.1307 3480.7759 2431.5879 3469.5645 z M 4453.4316 3630.2969 C 4442.434 3642.6037 4431.2417 3654.7478 4419.6367 3666.5098 C 4384.9048 3701.711 4347.474 3734.4243 4307.9727 3764.1074 C 4302.7131 3768.0597 4297.3201 3771.8183 4291.9863 3775.6641 C 4312.0992 3741.7162 4329.8115 3707.2283 4345.1914 3672.5039 C 4374.8757 3662.9218 4404.5826 3651.9192 4434.1348 3639.1035 C 4440.5859 3636.3059 4447.001 3633.2485 4453.4316 3630.2969 z M 3780.7285 3659.0742 C 3787.6249 3662.1172 3794.6 3665.1072 3801.7676 3667.957 C 3834.4782 3680.9627 3869.8908 3691.8458 3907.6934 3700.0312 C 3945.4987 3708.2173 3985.589 3713.6798 4027.5156 3715.9121 C 4058.1288 3717.5422 4089.6824 3717.3967 4121.9219 3715.418 C 4103.7335 3743.3879 4083.5711 3770.9063 4061.373 3797.5547 C 4033.1124 3831.4813 4001.6174 3864.0943 3967.25 3894.6543 C 3948.1922 3911.6006 3928.1467 3927.8584 3907.3672 3943.4688 C 3863.5058 3952.0581 3819.6381 3957.5061 3776.4766 3959.7207 C 3731.236 3962.0418 3686.6771 3960.9253 3643.5684 3956.6641 C 3626.921 3955.0186 3610.551 3952.7629 3594.3477 3950.2031 C 3604.7481 3939.9863 3614.9126 3929.6746 3624.5527 3919.1758 C 3653.8031 3887.3203 3679.4616 3854.3577 3701.543 3820.9707 C 3723.6228 3787.586 3742.0686 3753.868 3757.0449 3720.4609 C 3766.3145 3699.7835 3774.081 3679.3011 3780.7285 3659.0742 z M 3562.9238 3710.4727 C 3560.1876 3714.8719 3557.3675 3719.278 3554.4512 3723.6875 C 3537.5923 3749.178 3517.6524 3774.856 3494.6543 3799.9023 C 3471.6582 3824.9468 3445.5358 3849.4327 3416.4883 3872.5723 C 3408.7316 3878.7513 3400.7265 3884.8212 3392.5488 3890.8027 C 3362.5098 3877.3134 3334.2263 3862.352 3308.207 3846.1797 C 3278.2309 3827.548 3251.0217 3807.3867 3226.8418 3786.4688 C 3212.8011 3774.322 3199.763 3761.897 3187.7285 3749.3555 A 1306.284 1306.284 0 0 0 3240.5645 3752 A 1306.284 1306.284 0 0 0 3562.9238 3710.4727 z M 2964.3691 3744.8809 C 2964.6937 3745.4387 2964.9738 3745.9948 2965.3008 3746.5527 C 2982.7425 3776.3082 3003.5947 3806.076 3027.9746 3835.2168 C 3052.3564 3864.3598 3080.1973 3892.7902 3111.4629 3919.8379 C 3140.5627 3945.0123 3172.6807 3968.8501 3207.4238 3990.9688 C 3168.3183 4005.9612 3127.0228 4018.4767 3084.1172 4027.9805 C 3040.6202 4037.6149 2995.3985 4044.1995 2949.1973 4047.3789 C 2932.8312 4048.5051 2916.2965 4049.0477 2899.6973 4049.3125 C 2893.1495 4046.2711 2886.5564 4043.288 2880.1133 4040.1133 C 2838.2964 4019.5087 2798.6537 3996.0906 2761.7461 3970.4629 C 2724.8373 3944.8344 2690.588 3916.9454 2659.416 3887.5 C 2653.6031 3882.0091 2648.0043 3876.407 2642.4023 3870.8086 C 2648.0901 3869.96 2653.837 3869.2075 2659.457 3868.252 C 2702.7001 3860.8999 2743.8025 3850.4317 2782.3477 3837.3945 C 2820.8903 3824.3582 2856.7749 3808.7893 2889.7266 3791.2969 C 2916.6987 3776.9787 2941.524 3761.359 2964.3691 3744.8809 z M 2300.3691 3856.6348 C 2327.1031 3862.6401 2353.7591 3867.5826 2380.2129 3871.2871 C 2391.8843 3872.9215 2403.5043 3874.3013 2415.0801 3875.4961 C 2421.9023 3884.9231 2428.9074 3894.2978 2436.1582 3903.5879 C 2452.593 3924.6448 2470.2003 3945.2571 2488.7676 3965.4062 C 2455.5719 3950.7733 2423.0704 3934.3418 2391.5957 3916.1699 C 2360.1209 3897.9979 2329.6398 3878.0667 2300.3691 3856.6348 z M 3413.1758 4087.5488 C 3433.5218 4094.2019 3454.2419 4100.3628 3475.4609 4105.7676 C 3491.9347 4109.9636 3508.7295 4113.6135 3525.6602 4117.0078 C 3499.831 4122.6013 3473.7624 4127.2656 3447.5312 4130.8086 C 3401.8392 4136.9803 3355.6512 4139.8669 3309.6309 4139.7129 C 3343.9814 4124.8751 3376.9369 4108.4031 3408.2793 4090.4746 C 3409.9411 4089.524 3411.5232 4088.5073 3413.1758 4087.5488 z "
       transform="translate(0,-3267.6378)"
       id="path3049-5" />
    <g
       id="g8849" />
    <circle
       style="color:#000000;clip-rule:nonzero;display:inline;overflow:visible;visibility:visible;opacity:1;isolation:auto;mix-blend-mode:normal;color-interpolation:sRGB;color-interpolation-filters:linearRGB;solid-color:#000000;solid-opacity:1;fill:#0000ff;fill-opacity:1;fill-rule:nonzero;stroke:#ff00ff;stroke-width:11.53805256;stroke-linecap:butt;stroke-linejoin:miter;stroke-miterlimit:4;stroke-dasharray:none;stroke-dashoffset:0;stroke-opacity:1;color-rendering:auto;image-rendering:auto;shape-rendering:auto;text-rendering:auto;enable-background:accumulate"
       id="path8910"
       cx="-341.48541"
       cy="-1920.4382"
       r="1234.3884" />
  </g>
</svg>
