<?xml version="1.0" encoding="UTF-8" standalone="no"?>
<!-- Created with Inkscape (http://www.inkscape.org/) -->

<svg
   xmlns:dc="http://purl.org/dc/elements/1.1/"
   xmlns:cc="http://creativecommons.org/ns#"
   xmlns:rdf="http://www.w3.org/1999/02/22-rdf-syntax-ns#"
   xmlns:svg="http://www.w3.org/2000/svg"
   xmlns="http://www.w3.org/2000/svg"
   xmlns:sodipodi="http://sodipodi.sourceforge.net/DTD/sodipodi-0.dtd"
   xmlns:inkscape="http://www.inkscape.org/namespaces/inkscape"
   width="60in"
   height="48in"
   viewBox="0 0 5399.9999 4320"
   id="svg4475"
   version="1.1"
   inkscape:version="0.91pre4 r13712"
   sodipodi:docname="cthulhu.svg">
  <defs
     id="defs4477" />
  <sodipodi:namedview
     id="base"
     pagecolor="#ffffff"
     bordercolor="#666666"
     borderopacity="1.0"
     inkscape:pageopacity="0.0"
     inkscape:pageshadow="2"
     inkscape:zoom="0.12374369"
     inkscape:cx="1377.7479"
     inkscape:cy="2837.471"
     inkscape:document-units="in"
     inkscape:current-layer="layer1"
     showgrid="false"
     units="ft"
     inkscape:window-width="1920"
     inkscape:window-height="1017"
     inkscape:window-x="-8"
     inkscape:window-y="-8"
     inkscape:window-maximized="1" />
  <metadata
     id="metadata4480">
    <rdf:RDF>
      <cc:Work
         rdf:about="">
        <dc:format>image/svg+xml</dc:format>
        <dc:type
           rdf:resource="http://purl.org/dc/dcmitype/StillImage" />
        <dc:title></dc:title>
      </cc:Work>
    </rdf:RDF>
  </metadata>
  <g
     inkscape:label="Layer 1"
     inkscape:groupmode="layer"
     id="layer1"
     transform="translate(0,3267.6378)">
    <path
       sodipodi:type="star"
       style="color:#000000;clip-rule:nonzero;display:inline;overflow:visible;visibility:visible;opacity:1;isolation:auto;mix-blend-mode:normal;color-interpolation:sRGB;color-interpolation-filters:linearRGB;solid-color:#000000;solid-opacity:1;fill:#ffff00;fill-opacity:1;fill-rule:nonzero;stroke:#ff0000;stroke-width:0.34093651;stroke-linecap:butt;stroke-linejoin:miter;stroke-miterlimit:4;stroke-dasharray:none;stroke-dashoffset:0;stroke-opacity:1;color-rendering:auto;image-rendering:auto;shape-rendering:auto;text-rendering:auto;enable-background:accumulate"
       id="path3619"
       sodipodi:sides="6"
       sodipodi:cx="-3029.5774"
       sodipodi:cy="-886.22717"
       sodipodi:r1="1874.0981"
       sodipodi:r2="937.04907"
       sodipodi:arg1="-1.5707963"
       sodipodi:arg2="-1.0471975"
       inkscape:flatsided="true"
       inkscape:rounded="0"
       inkscape:randomized="0"
       d="m -3029.5773,-2760.3253 1623.0165,937.0491 0,1874.098143 -1623.0166,937.049027 -1623.0166,-937.049114 0,-1874.098156 z"
       inkscape:transform-center-y="-0.00014066688"
       inkscape:transform-center-x="-541.00547"
       transform="matrix(0,1.1547005,-1.1547005,0,1441.1697,2401.1393)" />
    <g
       id="g3621"
       transform="translate(-776.06705,-277.51825)">
      <g
         transform="matrix(1.1199035,0,0,1.1199035,-387.6597,131.80286)"
         id="g3592">
        <path
           sodipodi:nodetypes="sssccsscs"
           inkscape:connector-curvature="0"
           style="fill:none;stroke:#ff0000;stroke-width:7.52771711"
           d="m 3102.2903,532.16868 c 34.8624,-16.5429 73.856,-76.56517 89.6935,-138.06363 12.304,-47.77767 18.5712,-79.7635 1.6688,-141.71971 l -17.31,-63.45044 -18.0093,40.80775 c -14.2989,32.39774 -16.3803,44.38263 -10.1037,58.15839 26.5924,58.3647 -21.7611,201.47181 -84.7937,241.87156 -21.7219,13.92253 -21.9718,14.63915 -5.1488,14.75961 9.7242,0.0752 29.5259,-5.49374 44.0032,-12.36353 z"
           id="path3492" />
        <path
           inkscape:connector-curvature="0"
           style="fill:none;stroke:#ff0000;stroke-width:7.52771711"
           d="m 3416.0207,529.31493 c -46.4588,-29.76536 -85.6428,-104.53441 -85.5276,-163.19719 0.083,-42.96365 29.7638,-100.01845 70.7484,-136.00328 28.2493,-24.80304 89.2419,-46.9533 128.1497,-46.54004 36.6803,0.39137 93.921,23.5723 153.1867,62.03961 30.1455,19.56609 56.0875,35.57526 57.6488,35.57526 1.5605,0 9.6513,-20.1765 17.9792,-44.83585 l 15.1413,-44.83648 -39.312,-26.09335 c -86.2715,-57.26416 -142.9747,-81.629121 -199.3573,-85.663201 -47.7084,-3.41387 -57.6999,-1.5913 -95.1414,17.35217 -75.7288,38.315341 -119.6034,92.913871 -146.0648,181.767191 -19.5238,65.5567 -19.5615,78.59097 -0.3914,134.46464 27.6335,80.5368 77.2103,131.52504 127.5556,131.1878 18.7215,-0.12798 18.6688,-0.30112 -4.6167,-15.21728 z"
           id="path3490" />
        <path
           sodipodi:nodetypes="cccsccccscccccsscssscsscssscsccsscsccccscsccccc"
           inkscape:connector-curvature="0"
           style="fill:none;stroke:#ff0000;stroke-width:7.52771711"
           d="m 3022.279,377.30092 c 85.1557,-96.04532 117.5573,-186.20028 161.6991,-449.914281 38.6934,-247.770039 17.0514,-588.760389 -180.4266,-771.309309 -35.4309,-19.30482 -61.7266,1.74836 -88.9474,-7.07329 -49.394,-16.00748 -87.211,-60.19313 -84.5871,-125.11835 l 2.2418,-38.55469 26.347,0.5496 c 14.4909,0.301 32.8902,3.44 40.8868,6.9751 10.4688,4.6288 6.254,-5.0587 -15.0554,-34.5982 -51.504,-71.3965 -141.4918,-187.2293 -143.7222,-184.999 -1.1797,1.1797 1.5454,15.5042 6.056,31.8325 19.1927,69.4847 0.3706,159.2356 -39.378,164.919 -20.0267,2.8637 -23.0807,-19.356 -6.3165,-45.9543 5.779,-9.1704 12.6932,-24.0142 15.3648,-32.9865 3.9981,-13.428 2.2945,-15.6434 -9.6287,-12.5255 -18.3488,4.7983 -56.8372,-14.8332 -72.5107,-36.985 -6.6085,-9.3398 -18.9999,-39.8459 -27.5379,-67.7925 -8.5371,-27.9467 -18.3165,-50.8121 -21.731,-50.8121 -12.7,0 -68.826,73.1333 -92.21,120.1507 -45.6474,91.7816 -33.262,217.60147 30.0002,304.77617 l 26.1031,35.9696 13.7223,-22.5642 c 49.0009,-80.5745 171.5875,-93.5139 195.6348,-20.6494 10.2377,31.021 4.461,65.5206 -13.5657,81.0111 -15.5763,13.3858 -63.3186,38.8415 -100.6486,53.66588 -76.264,30.28549 -348.2134,36.15932 -423.9828,9.15813 -119.9632,-42.75061 -181.8524,-93.36391 -224.3237,-183.45121 -19.0091,-40.3214 -24.4425,-62.7751 -26.722,-110.43987 -7.5774,-158.4012 61.8236,-272.425 289.4912,-475.6238 74.824,-66.7821 64.5558,-57.6541 24.5467,-100.7698 l -18.8848,-20.3504 -46.8219,30.2403 c -68.6202,44.3188 -187.7089,163.411 -238.0303,231.6761 -44.6137,60.5221 -91.0024,151.9019 -105.6386,208.0925 -24.1061,92.551 -10.7195,207.53467 34.9663,300.33477 82.4909,167.56328 294.9427,261.10793 589.9426,259.75742 57.9634,-0.26345 132.4878,-4.08829 165.6097,-8.49427 33.1221,-4.40661 99.4315,-10.02385 147.3536,-12.48316 74.477,-3.82103 91.2797,-2.50221 115.6883,9.08074 40.8589,19.3883 104.9996,100.57323 130.0978,164.6687 20.5197,52.40204 20.8795,56.09591 20.5641,211.41595 -0.286,142.386819 -2.3268,167.424049 -20.5235,252.179279 -23.0047,107.148081 -46.4581,172.182311 -79.3218,219.947121 -46.1521,63.54519 -130.3615,165.35329 -212.2384,114.82559 -13.2111,-9.25308 -20.4476,-7.98772 -61.8966,10.82707 -25.8149,11.71914 -46.9362,25.35032 -46.9362,30.29161 128.3366,147.51977 268.9923,68.81055 365.2702,-38.8958 z"
           id="path3488" />
        <path
           sodipodi:nodetypes="ccssccccsscccsc"
           inkscape:connector-curvature="0"
           style="fill:none;stroke:#ff0000;stroke-width:7.52771711"
           d="m 3729.9069,479.95568 c 22.4875,-6.60482 51.0492,-18.23062 63.47,-25.83438 37.397,-22.89479 78.3861,-84.4964 100.9934,-151.78212 23.7575,-70.70939 42.8417,-177.81826 33.3041,-186.91849 -3.4793,-3.31969 -26.4886,-7.1822 -51.1312,-8.58387 l -44.8043,-2.54892 -9.2539,68.24562 c -11.2163,82.72431 -36.0328,141.81918 -73.2951,174.53612 -24.3882,21.41259 -33.1361,24.45228 -70.3781,24.45228 -58.3879,0 -81.5681,-1.94303 -135.1229,-61.28127 l -44.1795,-48.95049 -21.6761,11.27356 c -11.9216,6.20053 -29.839,20.01168 -39.8155,30.69201 -22.5831,24.17367 -35.9633,12.99399 23.2008,79.67593 88.7247,99.99748 164.9067,127.50751 268.6883,97.02402 z"
           id="path3486" />
        <path
           sodipodi:nodetypes="ssccccscssccccscs"
           inkscape:connector-curvature="0"
           style="fill:none;stroke:#ff0000;stroke-width:7.52771711"
           d="m 2640.9271,342.43789 c 42.6888,-20.1359 100.9616,-54.53541 129.4947,-76.44258 61.8388,-47.47806 96.507,-68.15493 144.6015,-74.63026 31.8957,-4.29384 36.3484,-7.39004 46.1306,-32.07191 5.9544,-15.02597 13.3166,-38.84671 16.3592,-52.93557 l 5.533,-25.616071 -57.5201,4.35023 c -48.8774,3.696587 -48.395,4.02256 -97.7896,31.028331 -31.971,17.47855 -79.3647,46.86982 -105.3196,65.31272 -99.6459,70.80497 -189.243,93.19235 -249.6453,62.37764 -34.0577,-17.37469 -79.6546,-68.11223 -92.0716,-102.4514 -7.6255,-21.08664 -13.6651,-25.18932 -47.0437,-31.95292 -21.0626,-4.2675 -44.7614,-10.274581 -52.6647,-13.348881 -13.3226,-5.18209 -14.0023,-2.9035 -9.3201,31.258761 9.2983,67.83529 64.4403,166.41375 112.0516,200.31637 30.123,21.4495 115.9833,50.43489 151.0007,50.97542 19.2191,0.29363 54.022,-11.55584 106.2034,-36.16988 z"
           id="path3484" />
        <path
           inkscape:connector-curvature="0"
           style="fill:none;stroke:#ff0000;stroke-width:7.52771711"
           d="m 4043.0035,354.73129 c 113.4164,-43.32574 191.8898,-203.86401 168.2273,-344.153611 -14.2132,-84.2623 -78.6151,-200.728879 -145.1217,-262.442539 l -18.7568,-17.40562 -16.3276,33.72648 c -28.1446,58.14031 -28.4525,82.50299 -1.4701,116.57043 34.1426,43.108999 75.9109,135.599049 81.1276,179.647459 8.2226,69.428121 -41.7367,151.587081 -113.5398,186.717521 -38.1045,18.6431 -40.8265,21.91697 -52.3485,62.98207 -6.6846,23.82456 -12.1542,47.32902 -12.1542,52.23264 0,14.80248 62.7142,10.32727 110.3638,-7.87483 z"
           id="path3482" />
        <path
           sodipodi:nodetypes="sssccscs"
           inkscape:connector-curvature="0"
           style="fill:none;stroke:#ff0000;stroke-width:7.52771711"
           d="m 2620.4404,190.18529 c 27.9579,-13.53407 32.4873,-18.98942 32.4873,-39.12761 0,-31.1633 -15.6679,-187.25812 -29.9714,-274.13336 -12.8166,-77.84335 -14.524,-78.69991 -60.8352,-30.53915 l -24.3965,25.36992 6.3524,152.991239 c 3.849,92.698901 13.2435,171.193911 15.4311,174.732641 6.4738,10.47477 26.3612,7.44183 60.9323,-9.29368 z"
           id="path3468" />
        <path
           sodipodi:nodetypes="csccsssscscsscscccscccscscscsscsscccccc"
           inkscape:connector-curvature="0"
           style="fill:none;stroke:#ff0000;stroke-width:7.52771711"
           d="m 3409.5416,51.402739 c 11.8065,-7.02031 12.0858,-11.79296 3.0819,-52.6940104 -6.3934,-29.0434296 -10.0398,-102.3069586 -10.2942,-206.8209686 -0.3915,-159.46192 -0.09,-162.6304 20.4626,-215.10613 25.7071,-65.64694 80.7694,-135.35965 125.9341,-159.44155 31.4456,-16.76721 39.8134,-17.7933 116.6797,-14.30637 45.5427,2.0663 134.984,8.86311 198.7588,15.10514 63.7741,6.2419 139.9923,9.71827 169.3737,7.72566 56.701,-3.84596 253.1593,-38.85435 267.3876,-47.64822 8.8744,-5.48462 -4.6658,-46.12157 -26.442,-79.35563 -10.465,-15.97162 -12.3153,-16.17182 -61.5194,-6.64778 -61.7966,11.96224 -205.4653,13.20367 -285.4255,2.46607 -115.5233,-15.51229 -213.2031,-68.45108 -213.2031,-115.54898 0,-11.0295 4.6642,-31.2181 10.3657,-44.8629 27.7864,-66.5021 146.034,-49.9351 192.8315,27.0177 l 13.7223,22.5643 26.1032,-35.9704 c 63.2628,-87.174 75.6475,-212.99437 30.0001,-304.77537 -22.9866,-46.2195 -79.4437,-120.1515 -91.7516,-120.1515 -3.1624,0 -11.8953,20.2963 -19.4063,45.1031 -7.5105,24.8069 -19.7536,55.1293 -27.206,67.3837 -15.8307,26.0331 -55.0074,48.4951 -75.3163,43.1842 -18.0251,-4.7139 -17.8482,3.3408 0.8792,40.0497 19.9003,39.0087 19.5622,54.4112 -1.1269,51.3353 -44.7703,-6.6545 -54.1346,-87.3527 -31.8518,-165.0492 4.0694,-14.1891 6.3157,-26.8816 4.9923,-28.2057 -3.0397,-3.039 -68.6904,80.259 -100.0953,127.0009 -13.0455,19.4163 -32.5235,46.8458 -43.2844,60.9542 -10.7615,14.1085 -19.5659,27.5997 -19.5659,29.9806 0,2.3803 12.1639,0.9696 27.0312,-3.1353 14.8672,-4.1048 31.4854,-5.7549 36.9287,-3.666 32.05,12.29889 -7.6,91.11739 -49.0319,129.82777 -7.1296,6.66129 -25.0486,33.23805 -49.0837,37.38473 -20.5071,3.53801 -27.6079,-21.29501 -54.1173,-7.87845 -167.5302,195.53759 -249.7401,410.01956 -217.8818,659.72178 11.3074,81.65089 44.6861,275.365439 49.6987,288.429739 4.0064,10.439521 9.5114,8.656921 37.0485,-11.99546 17.7887,-13.34061 38.1858,-27.72907 45.3259,-31.97467 z"
           id="path3462" />
        <path
           sodipodi:nodetypes="csccscc"
           inkscape:connector-curvature="0"
           style="fill:none;stroke:#ff0000;stroke-width:7.52771711"
           d="m 2474.2776,73.111869 c 16.095,-4.31103 17.1108,-7.986073 15.0554,-54.47278 l -2.2041,-49.85007 C 2099.0088,-29.972568 2022.2057,-412.93548 2091.2106,-587.03674 L 2045.768,-612.223 c -25.0085,-13.86083 -48.3249,-22.30465 -51.8523,-18.77713 -78.0696,304.15498 43.4909,686.239565 480.3619,704.111999 z"
           id="path3460" />
        <path
           sodipodi:nodetypes="csssssccccsscc"
           inkscape:connector-curvature="0"
           style="fill:none;stroke:#ff0000;stroke-width:7.52771711"
           d="m 4050.9149,67.830778 c 5.8324,-5.74884 -14.381,-61.3342602 -29.115,-80.06543 -12.7617,-16.22375 -13.6008,-21.128409 -64.3783,-24.885539 -109.7571,-8.12097 -237.1945,-67.484519 -309.901,-144.361359 -52.4636,-55.47239 -70.4955,-97.69009 -74.6975,-174.88842 -3.307,-60.74867 -3.7052,-61.81 -26.1423,-69.63138 -45.7151,-15.93611 -62.8986,-10.8678 -76.2452,22.48831 -6.6967,16.73718 -16.0688,64.66006 -20.8255,106.49618 l -8.65,76.06598 21.8906,15.79241 c 12.039,8.68633 51.8042,43.69395 88.3656,77.79525 129.9208,121.1773786 231.0023,173.799979 370.1318,192.688459 72.7433,9.87558 119.9712,11.964159 129.5668,2.504139 z"
           id="path3458" />
        <path
           sodipodi:nodetypes="ssscsscsccs"
           inkscape:connector-curvature="0"
           style="fill:none;stroke:#ff0000;stroke-width:7.52771711"
           d="m 2760.9931,2.4298583 c 48.8707,-24.5839993 113.0508,-77.2142593 177.9879,-139.0069583 31.0518,-29.54858 66.0113,-59.97115 77.6876,-67.60568 21.0203,-13.7442 21.183,-14.4465 16.4638,-71.009 -2.6219,-31.42065 -11.4255,-79.99326 -19.5645,-107.93997 -13.7554,-47.23115 -16.2952,-50.81201 -36.0419,-50.81201 -11.6838,0 -31.496,3.57411 -44.0274,7.94241 -22.4853,7.83869 -22.827,8.76231 -26.0648,70.4467 -6.4391,122.68824 -64.4209,201.7649 -220.3636,276.505309 -1.3249,0.6323 0,25.28109 2.874,54.7687 5.9718,60.60791 4.6513,60.11103 71.0489,26.7104993 z"
           id="path3454" />
        <path
           inkscape:connector-curvature="0"
           style="fill:none;stroke:#ff0000;stroke-width:7.52771711"
           d="m 4317.6839,-13.117321 c 47.2906,-30.34646 104.4509,-93.394079 141.5754,-156.157239 42.6873,-72.16821 61.6602,-148.97581 62.2661,-252.07237 0.6776,-114.77282 -14.2756,-172.33734 -76.4303,-294.29758 -46.2149,-90.68342 -87.0257,-154.23172 -244.7946,-381.18109 -59.792,-86.0109 -91.0357,-154.1044 -102.3183,-222.9928 -8.9045,-54.3705 -9.0362,-132.4638 -0.286,-170.152 6.2374,-26.8687 5.1241,-29.6577 -19.533,-48.9302 -14.381,-11.2403 -33.2852,-26.4389 -42.0099,-33.7746 -8.7254,-7.3358 -18.4865,-10.7149 -21.6927,-7.5089 -12.5162,12.5172 -23.3433,121.2331 -19.1106,191.8966 8.4914,141.7461 65.3196,266.2366 238.0566,521.49997 53.5801,79.1779 125.7385,208.04878 153.0107,273.26897 23.7567,56.8131 24.2324,60.24122 24.2324,174.63018 l 0,116.67963 -29.2143,58.39856 c -21.2455,42.46982 -42.366,70.70175 -77.4338,103.506 -26.5218,24.80915 -51.9075,45.107709 -56.4142,45.107709 -5.2002,0 -6.4355,8.787 -3.3823,24.05479 10.5403,52.69923 20.6425,81.33322 28.6949,81.33322 4.6537,0 24.8061,-10.48917044 44.7839,-23.30885 z"
           id="path3452" />
        <path
           sodipodi:nodetypes="ccsccccc"
           inkscape:connector-curvature="0"
           style="fill:none;stroke:#ff0000;stroke-width:7.52771711"
           d="m 2921.9344,-476.05912 46.9392,-13.85098 -24.0217,-24.78433 c -29.1128,-30.03706 -60.6238,-39.62207 -130.0783,-39.56785 -86.8683,0.0751 -108.2921,5.94535 -119.9301,32.90658 -36.8694,88.32432 -413.7794,306.0755 -359.9147,389.06695 8.2829,8.28274 68.083,27.4287 88.8377,28.44205 158.6078,-144.65829 309.0021,-315.26905 498.1679,-372.21242 z"
           id="path3444" />
        <path
           inkscape:connector-curvature="0"
           style="fill:none;stroke:#ff0000;stroke-width:7.52771711"
           d="m 3953.0518,-151.24034 c 18.1682,-108.01227 90.0707,-225.62902 150.0319,-245.41797 36.3996,-12.0134 90.922,-5.09618 109.9695,13.95038 9.8642,9.86437 16.5662,28.88841 18.9623,53.82241 4.3035,44.78774 15.2896,46.38656 31.2151,4.54381 8.9596,-23.54073 9.2223,-34.48681 1.5184,-63.28931 -10.4959,-39.24432 -24.6059,-57.67436 -56.9623,-74.40696 -53.5672,-27.70056 -171.5453,2.05803 -224.5208,56.63327 -55.8512,57.53805 -109.642,174.26885 -122.4113,265.64487 -4.7425,33.93865 -4.4256,34.60569 20.3097,42.676899 13.821,4.50983 33.3856,7.6255 43.4786,6.92473 16.8682,-1.17131 19.1619,-6.10279 28.4089,-61.082129 z"
           id="path3438" />
        <path
           sodipodi:nodetypes="scsccccsssccs"
           inkscape:connector-curvature="0"
           style="fill:none;stroke:#ff0000;stroke-width:7.52771711"
           d="m 2267.2564,-382.83737 c 18.7004,-18.70038 73.4434,-25.83294 108.7756,-14.17247 14.2988,4.71919 26.573,7.02022 38.1889,19.14448 l 21.1205,22.04488 33.2431,-27.24059 33.244,-27.24046 -21.1295,-17.36426 c -23.8238,-19.57958 -80.5716,-35.5594 -123.7505,-43.99563 -35.8056,-6.99549 -82.2999,2.99005 -110.2954,23.68825 -39.1961,28.97864 -47.7995,103.63709 -17.1865,149.13451 l 12.9272,19.21304 4.8683,-44.04242 c 3.2264,-29.19705 9.9667,-49.14166 19.9943,-59.16933 z"
           id="path3430" />
        <path
           inkscape:connector-curvature="0"
           style="fill:none;stroke:#ff0000;stroke-width:7.52771711"
           d="m 3881.808,-346.37844 25.4527,-47.93268 -56.0461,-51.36845 c -30.8253,-28.25229 -60.5273,-62.09383 -66.0052,-75.20331 -8.6185,-20.62756 -14.7069,-24.48625 -45.2312,-28.67013 -53.8938,-7.38699 -135.1172,-5.76399 -158.7693,3.17217 -21.9012,8.27524 -62.5937,42.99916 -62.5937,53.41374 0,3.24969 19.478,11.51436 43.2844,18.36527 71.082,20.45586 119.2774,48.78796 235.2412,138.29102 26.9116,20.77125 51.2441,37.78766 54.0723,37.81541 2.8281,0 16.5964,-21.51937 30.5949,-47.88304 z"
           id="path3424" />
        <path
           inkscape:connector-curvature="0"
           style="fill:none;stroke:#ff0000;stroke-width:7.52771711"
           d="m 4552.8754,-802.80193 c 9.3118,-14.4909 26.4532,-50.0594 38.0918,-79.0411 24.9303,-62.075 34.0899,-170.82037 19.9447,-236.77817 -11.4701,-53.4807 -60.2241,-156.1702 -101.8208,-214.4634 -46.8373,-65.6371 -170.9717,-189.6743 -233.9403,-233.7589 -103.8532,-72.7072 -222.901,-171.4339 -256.5898,-212.7905 -48.099,-59.0466 -63.3382,-92.1407 -63.3382,-137.5494 0,-32.8894 3.3506,-41.8677 22.9287,-61.4457 20.8743,-20.8751 26.3124,-22.6035 60.702,-19.2996 31.1323,2.9915 42.9826,8.7164 67.4039,32.5633 32.9548,32.1796 37.5219,24.35 14.0641,-24.1082 -30.9405,-63.914 -92.2184,-98.1305 -154.5351,-86.2886 -95.1172,18.0748 -130.1075,122.8907 -78.9717,236.5653 35.8598,79.7154 81.7653,130.9121 252.6046,281.7209 179.9501,158.8507 230.5363,209.4949 283.8657,284.1917 69.2573,97.0052 88.7517,150.7667 88.8993,245.1665 0.1056,68.51427 -14.4833,121.66667 -44.9419,163.71347 l -22.5968,31.1933 27.5989,50.2099 27.5989,50.21065 18.0508,-21.83255 c 9.9282,-12.0075 25.6693,-33.6881 34.9812,-48.1789 z"
           id="path3398" />
        <path
           sodipodi:nodetypes="ssscccsssssssccs"
           inkscape:connector-curvature="0"
           style="fill:none;stroke:#ff0000;stroke-width:7.52771711"
           d="m 2273.5368,-908.19003 c 159.4732,-245.53607 203.1926,-344.87557 211.2925,-480.09747 10.547,-176.0605 -36.1714,-285.5391 -150.4233,-352.5004 -94.2327,-55.2279 -175.4373,-58.2118 -249.4807,-9.168 -37.9427,25.1328 -88.7058,93.4407 -106.1197,142.7985 -12.5209,35.4864 -14.472,93.6539 -3.3724,100.5138 4.1402,2.5587 7.5278,-0.5043 7.5278,-6.8013 0,-30.4397 33.5653,-97.0887 64.4485,-127.9719 43.6924,-43.6924 87.7528,-60.4904 145.0387,-55.2956 74.5523,6.7599 136.9999,51.5814 175.6653,126.0833 32.9036,63.3999 27.6011,243.7656 -9.9283,337.7189 -18.3148,45.8499 -79.5973,145.3506 -130.45,211.8044 -17.4252,22.77137 -53.0509,73.22297 -79.1683,112.11487 -36.4041,54.2108 -36.8565,51.84886 -31.2717,61.11926 7.6723,12.7378 69.9092,47.4608 79.1186,44.1426 2.9591,-1.0667 32.7538,-36.14686 77.123,-104.46096 z"
           id="path3396" />
        <path
           inkscape:connector-curvature="0"
           style="fill:none;stroke:#ff0000;stroke-width:7.52771711"
           d="m 4512.2739,-1547.4791 c 0,-45.7927 -41.9835,-132.883 -84.6062,-175.5058 -65.1276,-65.1276 -151.9907,-79.2601 -238.8327,-38.8573 l -48.1157,22.3852 35.6354,29.2008 35.6355,29.2007 40.3479,-12.7188 c 62.2587,-19.6247 127.6512,0.4893 182.8527,56.2418 29.4327,29.727 62.0277,94.9336 62.0277,124.0876 0,6.3 3.3874,9.36 7.5277,6.8013 4.1403,-2.5586 7.5277,-20.9345 7.5277,-40.8355 z"
           id="path3390" />
        <path
           inkscape:connector-curvature="0"
           style="fill:none;stroke:#ff0000;stroke-width:7.52771711"
           d="m 2556.7115,-1772.5843 c 53.2082,-77.1439 74.5598,-181.9117 47.6707,-233.9087 -16.3924,-31.6999 -59.201,-65.8479 -89.7251,-71.5742 -33.3839,-6.263 -78.7293,5.2589 -106.4193,27.0403 -26.0859,20.5191 -63.9465,79.4212 -63.9465,99.4855 0,12.7866 4.5566,10.6608 29.6306,-13.824 24.4222,-23.8469 36.2716,-29.5718 67.404,-32.5633 34.3897,-3.3039 39.8276,-1.5755 60.702,19.2996 19.5781,19.578 22.9287,28.5563 22.9287,61.4457 0,45.5818 -15.2324,78.4953 -64.0843,138.4656 l -35.0393,43.0141 25.0967,29.1677 25.0967,29.1669 29.1066,-31.3168 c 16.0092,-17.2243 39.2194,-45.9786 51.5785,-63.8984 z"
           id="path3386" />
        <path
           sodipodi:nodetypes="sssccssccscsscsccsssccsccs"
           inkscape:connector-curvature="0"
           style="fill:none;stroke:#ff0000;stroke-width:7.52771711"
           d="m 3104.5908,-830.85243 c -43.4726,-64.7655 -104.4471,-151.9726 -135.4989,-193.79287 -31.0518,-41.8209 -84.4942,-113.758 -118.7603,-159.8609 -34.2661,-46.1035 -95.3265,-122.2012 -135.6894,-169.1056 -40.3621,-46.9052 -89.7943,-106.3313 -109.849,-132.0573 -35.2936,-45.2762 -36.2888,-47.9267 -31.0706,-82.7266 13.8413,-92.301 133.7133,-433.6966 170.3439,-485.1394 27.757,-38.9815 275.297,-151.1717 415.6445,-188.3788 31.7474,-8.416 39.9685,15.4154 59.2418,26.4765 20.641,11.8464 23.4368,11.8464 44.0778,0 19.2732,-11.0611 25.6903,-34.8925 57.4378,-26.4765 81.0502,21.487 214.9133,73.9281 305.7962,119.7968 77.6672,39.1982 99.7144,53.9616 113.664,76.1104 22.0962,35.0829 77.8276,177.5977 109.3626,279.657 13.4318,43.4725 29.03,92.5908 34.6622,109.1518 5.6323,16.5609 14.4306,51.0108 19.5533,76.5554 l 9.3125,46.4437 -33.3742,43.2603 c -18.3556,23.7929 -68.5782,84.1923 -111.6059,134.2207 -100.7216,117.1109 -277.9278,354.2243 -407.5649,545.34777 -34.7148,51.181 -68.0234,94.93884 -74.0186,97.23932 -6.3059,2.41935 -18.5015,-4.65517 -28.9357,-16.78528 -17.2927,-20.10434 -18.4746,-20.38884 -28.6852,-6.90666 -5.8572,7.73394 -10.757,16.60227 -10.8888,19.7075 -0.128,3.10523 -7.8612,5.50498 -17.1767,5.33266 -13.3459,-0.24844 -33.6964,-25.28109 -95.9784,-118.06994 z"
           id="path3380" />
      </g>
    </g>
  </g>
</svg>
