<?xml version="1.0" encoding="UTF-8" standalone="no"?>
<!-- Created with Inkscape (http://www.inkscape.org/) -->

<svg
   xmlns:dc="http://purl.org/dc/elements/1.1/"
   xmlns:cc="http://creativecommons.org/ns#"
   xmlns:rdf="http://www.w3.org/1999/02/22-rdf-syntax-ns#"
   xmlns:svg="http://www.w3.org/2000/svg"
   xmlns="http://www.w3.org/2000/svg"
   xmlns:sodipodi="http://sodipodi.sourceforge.net/DTD/sodipodi-0.dtd"
   xmlns:inkscape="http://www.inkscape.org/namespaces/inkscape"
   width="60in"
   height="48in"
   viewBox="0 0 5399.9999 4320"
   id="svg4475"
   version="1.1"
   inkscape:version="0.91 r13725"
   sodipodi:docname="bigham_frame.svg">
  <defs
     id="defs4477" />
  <sodipodi:namedview
     id="base"
     pagecolor="#ffffff"
     bordercolor="#666666"
     borderopacity="1.0"
     inkscape:pageopacity="0.0"
     inkscape:pageshadow="2"
     inkscape:zoom="0.061871843"
     inkscape:cx="2698.3158"
     inkscape:cy="1871.8263"
     inkscape:document-units="cm"
     inkscape:current-layer="layer1"
     showgrid="false"
     units="cm"
     inkscape:window-width="1366"
     inkscape:window-height="705"
     inkscape:window-x="-8"
     inkscape:window-y="-8"
     inkscape:window-maximized="1" />
  <metadata
     id="metadata4480">
    <rdf:RDF>
      <cc:Work
         rdf:about="">
        <dc:format>image/svg+xml</dc:format>
        <dc:type
           rdf:resource="http://purl.org/dc/dcmitype/StillImage" />
        <dc:title></dc:title>
      </cc:Work>
    </rdf:RDF>
  </metadata>
  <g
     inkscape:label="Layer 1"
     inkscape:groupmode="layer"
     id="layer1"
     transform="translate(0,3267.6378)">
    <g
       transform="matrix(0.06461903,0,0,-0.06461903,-3799.9665,406.767)"
       id="g3395"
       style="stroke:#000000;stroke-width:54.8338019">
      <g
         transform="matrix(15.475317,0,0,-15.475317,72590.785,22030.619)"
         id="layer1-3"
         inkscape:label="Layer 1"
         style="fill:none;stroke:#000000;stroke-width:3.54330718">
        <path
           style="color:#000000;font-style:normal;font-variant:normal;font-weight:normal;font-stretch:normal;font-size:medium;line-height:normal;font-family:sans-serif;text-indent:0;text-align:start;text-decoration:none;text-decoration-line:none;text-decoration-style:solid;text-decoration-color:#000000;letter-spacing:normal;word-spacing:normal;text-transform:none;direction:ltr;block-progression:tb;writing-mode:lr-tb;baseline-shift:baseline;text-anchor:start;white-space:normal;clip-rule:nonzero;display:inline;overflow:visible;visibility:visible;opacity:1;isolation:auto;mix-blend-mode:normal;color-interpolation:sRGB;color-interpolation-filters:linearRGB;solid-color:#000000;solid-opacity:1;fill:none;fill-opacity:1;fill-rule:nonzero;stroke:#000000;stroke-width:3.54330718;stroke-linecap:butt;stroke-linejoin:miter;stroke-miterlimit:4;stroke-dasharray:none;stroke-dashoffset:0;stroke-opacity:1;color-rendering:auto;image-rendering:auto;shape-rendering:auto;text-rendering:auto;enable-background:accumulate"
           d="M 2748.2369,-1970.3002 590.94778,-1959.3822 -478.23972,-85.655636 609.85988,1777.151 2767.149,1766.2331 3836.3365,-107.49354 2748.2369,-1970.3002 Z"
           id="path3553"
           inkscape:connector-curvature="0" />
      </g>
      <g
         id="g3433"
         transform="translate(7488.4189,4505.3181)"
         style="fill:none;stroke:#000000;stroke-width:54.8338019">
        <path
           id="path3407"
           d="m 105271.3,45824.809 c 753.34,-46.378 1020.38,-759.464 1422.76,-1273.812 l 753.45,-1312.501 c -1369.84,-910.236 -2821.71,-1889.544 -4067.59,-2728.974 11.22,1909.54 -8.15,3525.112 10.64,5313.836 z"
           style="color:#000000;display:inline;overflow:visible;visibility:visible;fill:none;fill-opacity:1;fill-rule:nonzero;stroke:#000000;stroke-width:54.8338019;stroke-linecap:butt;stroke-linejoin:round;stroke-miterlimit:4;stroke-dasharray:none;stroke-dashoffset:0;stroke-opacity:1;marker:none;enable-background:accumulate"
           inkscape:connector-curvature="0" />
        <path
           id="path3405"
           d="m 101082.8,45821.423 c -31.16,-2470.361 -23.95,-4899.992 -26.59,-6879.746 -1802.535,-1217.818 -3602.387,-2422.792 -5255.327,-3532.241 -1256.319,2113.793 -2252.643,4059.34 -3472.274,6213.824 816.651,1371.768 1570.094,2765.801 2284.543,4192.36 z"
           style="color:#000000;display:inline;overflow:visible;visibility:visible;fill:none;fill-opacity:1;fill-rule:nonzero;stroke:#000000;stroke-width:54.8338019;stroke-linecap:butt;stroke-linejoin:round;stroke-miterlimit:4;stroke-dasharray:none;stroke-dashoffset:0;stroke-opacity:1;marker:none;enable-background:accumulate"
           inkscape:connector-curvature="0" />
        <path
           id="path3403"
           d="m 92158.864,45813.686 c -248.27,-424.72 -1040.405,-1777.466 -1107.935,-1896.21 -11.92,21.387 -50.428,91.218 -54.648,98.655 -33.999,60.999 -81.909,146.992 -105.908,191.991 -28.001,52 -50.419,83.179 -61.419,83.179 -301.839,460.616 -572.933,987.233 -832.281,1520.45 z"
           style="color:#000000;display:inline;overflow:visible;visibility:visible;fill:none;fill-opacity:1;fill-rule:nonzero;stroke:#000000;stroke-width:54.8338019;stroke-linecap:butt;stroke-linejoin:round;stroke-miterlimit:4;stroke-dasharray:none;stroke-dashoffset:0;stroke-opacity:1;marker:none;enable-background:accumulate"
           inkscape:connector-curvature="0" />
        <path
           id="path3401"
           d="m 87511.433,45809.817 c 654.144,-1393.633 1420.26,-2712.169 2193.627,-4058.886 33.607,-57.221 65.983,-108.284 77.859,-124.286 -1121.063,-2057.104 -2421.791,-4487.918 -3351.856,-6110.332 -27.568,-45.94 -52.96,-90.784 -70.124,-121.868 -1775.369,1174.329 -3394.673,2236.884 -5157.632,3445.677 -59,39.997 -111.034,73.958 -117.032,74.958 -0.418,0 -3.086,1.926 -4.836,2.901 -1.269,306.337 -20.963,5734.391 -27.565,6886.516 z"
           style="color:#000000;display:inline;overflow:visible;visibility:visible;fill:none;fill-opacity:1;fill-rule:nonzero;stroke:#000000;stroke-width:54.8338019;stroke-linecap:butt;stroke-linejoin:round;stroke-miterlimit:4;stroke-dasharray:none;stroke-dashoffset:0;stroke-opacity:1;marker:none;enable-background:accumulate"
           inkscape:connector-curvature="0" />
        <path
           id="path3399"
           d="m 78753.371,45802.563 c 5.929,-1971.906 15.888,-5180.63 15.475,-5334.149 -20.181,14.194 -33.245,23.52 -33.852,24.663 -1249.219,804.582 -2700.808,1922.721 -4035.189,2748.804 385.407,681.261 741.598,1295.967 1042.166,1789.334 449.895,738.479 789.907,701.634 1179.026,769.413 z"
           style="color:#000000;display:inline;overflow:visible;visibility:visible;fill:none;fill-opacity:1;fill-rule:nonzero;stroke:#000000;stroke-width:54.8338019;stroke-linecap:butt;stroke-linejoin:round;stroke-miterlimit:4;stroke-dasharray:none;stroke-dashoffset:0;stroke-opacity:1;marker:none;enable-background:accumulate"
           inkscape:connector-curvature="0" />
        <path
           id="path3397"
           d="m 108650.23,41083.074 c 1274.4,-2340.851 2408.55,-4390.66 3563.2,-6466.264 -814.41,-1430.092 -1554.71,-2778.375 -2330.01,-4183.171 -69.48,-0.325 -125.66,-0.253 -188.6,-0.483 l 0.48,0.965 c -2054.16,-1.642 -4393.58,-3.486 -6323.6,-4.834 -0.36,2383.948 1.73,5019.356 4.35,7109.456 1735.04,1169.47 3661.28,2462.032 5274.18,3544.331 z"
           style="color:#000000;display:inline;overflow:visible;visibility:visible;fill:none;fill-opacity:1;fill-rule:nonzero;stroke:#000000;stroke-width:54.8338019;stroke-linecap:butt;stroke-linejoin:round;stroke-miterlimit:4;stroke-dasharray:none;stroke-dashoffset:0;stroke-opacity:1;marker:none;enable-background:accumulate"
           inkscape:connector-curvature="0" />
        <path
           id="path3395"
           d="m 73497.567,41082.108 c 1856.839,-1172.784 3635.392,-2466.258 5248.55,-3563.191 0.853,-0.231 10.478,-5.846 17.41,-10.157 -4.672,-2366.28 -3.118,-4829.91 -1.935,-7102.203 -2255.434,0.572 -4458.873,5.814 -6504.952,6.77 -595.946,1079.976 -895.061,1617.09 -2328.552,4223.795 0.184,0.558 -1.44,4.362 -3.869,9.672 1249.636,2176.631 2528.152,4533.235 3573.348,6435.314 z"
           style="color:#000000;display:inline;overflow:visible;visibility:visible;fill:none;fill-opacity:1;fill-rule:nonzero;stroke:#000000;stroke-width:54.8338019;stroke-linecap:butt;stroke-linejoin:round;stroke-miterlimit:4;stroke-dasharray:none;stroke-dashoffset:0;stroke-opacity:1;marker:none;enable-background:accumulate"
           inkscape:connector-curvature="0" />
        <path
           id="path3393"
           d="m 91072.208,39309.7 c 2.159,-4.02 15.975,-28.625 16.925,-30.466 976.51,-1808.515 1778.227,-3187.471 2887.597,-5095.733 -933.369,-439.104 -1744.232,-1550.422 -2802.483,-1647.154 -47,-4 -83.179,-12.377 -83.179,-18.377 0,-15.001 -190.762,-0.824 -316.76,24.181 -195.001,36.999 -353.111,100.761 -498.113,198.761 -396.885,268.033 -1225.577,830.986 -2052.897,1392.295 16.401,31.12 30.531,58.047 43.04,82.695 575.536,1120.043 1772.614,3231.353 2805.87,5093.798 z"
           style="color:#000000;display:inline;overflow:visible;visibility:visible;fill:none;fill-opacity:1;fill-rule:nonzero;stroke:#000000;stroke-width:54.8338019;stroke-linecap:butt;stroke-linejoin:round;stroke-miterlimit:4;stroke-dasharray:none;stroke-dashoffset:0;stroke-opacity:1;marker:none;enable-background:accumulate"
           inkscape:connector-curvature="0" />
        <path
           id="path3391"
           d="m 101053.3,35975.736 -3.38,-5547.418 c -692.35,61.505 -1211.201,110.379 -1622.493,191.507 -1200.189,310.013 -1180.04,339.132 -1821.251,1433.401 -168.07,287.284 -351.092,631.161 -569.202,1047.003 0,0 -0.454,-0.469 -0.483,-0.484 -19.35,50.209 -40.018,101.334 -61.418,152.819 1402.791,944.61 2700.49,1798.689 4078.227,2723.172 z"
           style="color:#000000;display:inline;overflow:visible;visibility:visible;fill:none;fill-opacity:1;fill-rule:nonzero;stroke:#000000;stroke-width:54.8338019;stroke-linecap:butt;stroke-linejoin:round;stroke-miterlimit:4;stroke-dasharray:none;stroke-dashoffset:0;stroke-opacity:1;marker:none;enable-background:accumulate"
           inkscape:connector-curvature="0" />
        <path
           id="path3389"
           d="m 81083.374,35967.516 c 0.944,-0.557 5.567,-3.307 5.803,-3.386 9,-4 51.786,-36.96 94.786,-74.959 42,-37.002 84.334,-68.188 93.336,-68.188 1328.796,-916.959 2571.167,-1674.879 3907.516,-2579.057 -240.319,-376.755 -442.162,-789.409 -653.831,-1188.7 -520.405,-1062.496 -911.443,-1663.05 -1916.038,-1644.735 -461.757,-29.717 -838.732,13.077 -1530.122,9.672 -1.94,1806.019 -1.838,3842.949 -1.45,5549.353 z"
           style="color:#000000;display:inline;overflow:visible;visibility:visible;fill:none;fill-opacity:1;fill-rule:nonzero;stroke:#000000;stroke-width:54.8338019;stroke-linecap:butt;stroke-linejoin:round;stroke-miterlimit:4;stroke-dasharray:none;stroke-dashoffset:0;stroke-opacity:1;marker:none;enable-background:accumulate"
           inkscape:connector-curvature="0" />
        <path
           id="path3387"
           d="m 113478.05,32346.292 c 344.26,-617.425 686.2,-1229.496 1047.48,-1877.834 -3.65,-2.064 -4.35,-4.465 -4.35,-7.255 -314.54,3.518 -1171.76,-2.089 -2106.57,-9.187 454.19,810.758 845.09,1504.47 1063.44,1894.276 z"
           style="color:#000000;display:inline;overflow:visible;visibility:visible;fill:none;fill-opacity:1;fill-rule:nonzero;stroke:#000000;stroke-width:54.8338019;stroke-linecap:butt;stroke-linejoin:round;stroke-miterlimit:4;stroke-dasharray:none;stroke-dashoffset:0;stroke-opacity:1;marker:none;enable-background:accumulate"
           inkscape:connector-curvature="0" />
        <path
           id="path3385"
           d="m 68672.169,32337.103 c 366.165,-688.305 744.336,-1366.927 1052.805,-1924.743 -706.824,8.001 -1449.713,16.836 -2093.036,26.115 359.243,651.927 708.279,1288.423 1040.231,1898.628 z"
           style="color:#000000;display:inline;overflow:visible;visibility:visible;fill:none;fill-opacity:1;fill-rule:nonzero;stroke:#000000;stroke-width:54.8338019;stroke-linecap:butt;stroke-linejoin:round;stroke-miterlimit:4;stroke-dasharray:none;stroke-dashoffset:0;stroke-opacity:1;marker:none;enable-background:accumulate"
           inkscape:connector-curvature="0" />
        <path
           id="path3383"
           d="m 91108.477,30836.964 c 6505.242,0 11778.653,-5273.409 11778.653,-11778.651 0,-6505.241 -5273.411,-11778.6499 -11778.653,-11778.6499 -6505.241,0 -11778.65,5273.4089 -11778.65,11778.6499 0,6505.242 5273.409,11778.651 11778.65,11778.651 z"
           style="color:#000000;display:inline;overflow:visible;visibility:visible;fill:none;fill-opacity:1;fill-rule:nonzero;stroke:#000000;stroke-width:54.8338019;stroke-linecap:butt;stroke-linejoin:round;stroke-miterlimit:4;stroke-dasharray:none;stroke-dashoffset:0;stroke-opacity:1;marker:none;enable-background:accumulate"
           inkscape:connector-curvature="0" />
        <path
           id="path3381"
           d="m 66400.683,28212.448 c 789.363,-11.714 2536.379,-30.267 4559.899,-29.985 876.997,-1571.644 1736.028,-3154.589 2615.328,-4726.258 15,-27.001 38.263,-64.212 51.262,-82.213 3.507,-4.726 9.684,-14.63 17.894,-28.531 -24.835,-15.352 -49.959,-30.88 -73.024,-44.976 -1826.273,-1069.732 -3358.013,-1990.196 -4859.734,-2939.343 -13,-12.001 -31.172,-17.99 -39.171,-14.993 -5.048,1.894 -11.689,0.519 -17.41,-2.417 -1636.263,992.546 -3303.934,1992.955 -4954.52,2980.45 867.781,1585.94 1794.677,3255.813 2699.476,4888.266 z"
           style="color:#000000;display:inline;overflow:visible;visibility:visible;fill:none;fill-opacity:1;fill-rule:nonzero;stroke:#000000;stroke-width:54.8338019;stroke-linecap:butt;stroke-linejoin:round;stroke-miterlimit:4;stroke-dasharray:none;stroke-dashoffset:0;stroke-opacity:1;marker:none;enable-background:accumulate"
           inkscape:connector-curvature="0" />
        <path
           id="path3379"
           d="m 115773.23,28211.479 c 934.14,-1579.658 1920.72,-3499.043 2681.58,-4822.496 -1708.24,-1018.895 -3476.15,-2111.579 -4916.79,-2949.982 -20,-16.001 -47,-30.886 -59,-32.885 -6.1,-1.531 -14.58,-5.39 -23.22,-10.638 -1689.93,1006.546 -3364.85,2004.111 -4967.09,2961.105 48,97.107 76.64,156.953 77.38,156.687 9.82,-1.965 2499.62,4487.93 2601.3,4691.923 1759.51,1.377 3652.86,5.588 4605.84,6.286 z"
           style="color:#000000;display:inline;overflow:visible;visibility:visible;fill:none;fill-opacity:1;fill-rule:nonzero;stroke:#000000;stroke-width:54.8338019;stroke-linecap:butt;stroke-linejoin:round;stroke-miterlimit:4;stroke-dasharray:none;stroke-dashoffset:0;stroke-opacity:1;marker:none;enable-background:accumulate"
           inkscape:connector-curvature="0" />
        <path
           id="path3377"
           d="m 107375.46,28208.579 c 423.44,-0.111 847.31,-0.652 1278.16,-1.934 -892.61,-1615.588 -1944.57,-3519.925 -1955.69,-3541.431 l -15.96,-29.983 -79.8,-148.95 c -1337.64,915.038 -2951.75,2181.476 -3212.09,3433.586 -5,36 -12.08,75.982 -14.99,88.983 l -3.87,22.246 0,170.711 c 1464.37,3.019 2733.85,7.102 4004.24,6.772 z"
           style="color:#000000;display:inline;overflow:visible;visibility:visible;fill:none;fill-opacity:1;fill-rule:nonzero;stroke:#000000;stroke-width:54.8338019;stroke-linecap:butt;stroke-linejoin:round;stroke-miterlimit:4;stroke-dasharray:none;stroke-dashoffset:0;stroke-opacity:1;marker:none;enable-background:accumulate"
           inkscape:connector-curvature="0" />
        <path
           id="path3375"
           d="m 78754.338,28198.422 c -8.401,-392.867 -24.972,-371.214 -57.065,-488.439 -77.001,-279 -234.956,-612.852 -428.956,-903.855 -306.144,-459.214 -1590.097,-1420.765 -2789.426,-2250.208 -4.251,8.07 -8.104,15.501 -12.574,24.18 -782.377,1430.305 -1302.164,2365.554 -1982.291,3603.332 z"
           style="color:#000000;display:inline;overflow:visible;visibility:visible;fill:none;fill-opacity:1;fill-rule:nonzero;stroke:#000000;stroke-width:54.8338019;stroke-linecap:butt;stroke-linejoin:round;stroke-miterlimit:4;stroke-dasharray:none;stroke-dashoffset:0;stroke-opacity:1;marker:none;enable-background:accumulate"
           inkscape:connector-curvature="0" />
        <path
           id="path3373"
           d="m 119538.09,21390.733 c 390.52,-760.633 1111.56,-1736.128 973.01,-2541.821 -245.04,-920.92 -588.15,-1387.26 -972.53,-2080.946 -1259.73,753.333 -2554.93,1525.495 -3856.26,2300.987 1120.74,690.064 2677.92,1578.307 3855.78,2321.78 z"
           style="color:#000000;display:inline;overflow:visible;visibility:visible;fill:none;fill-opacity:1;fill-rule:nonzero;stroke:#000000;stroke-width:54.8338019;stroke-linecap:butt;stroke-linejoin:round;stroke-miterlimit:4;stroke-dasharray:none;stroke-dashoffset:0;stroke-opacity:1;marker:none;enable-background:accumulate"
           inkscape:connector-curvature="0" />
        <path
           id="path3371"
           d="m 107375.46,21361.234 c 1317.68,-784.117 2607.95,-1559.273 3855.77,-2305.339 -5.25,-7.087 -6.68,-14.539 0,-16.926 6,-2.001 -20.05,-21.042 -58.04,-43.041 -1205.48,-727.992 -2639.53,-1578.322 -3769.2,-2257.462 -370.22,669.827 -769.61,1354.779 -962.86,2078.53 -11,58 -19.83,130.072 -19.83,160.072 0,29.001 -4.15,54.164 -10.15,54.164 -16,0 -10.85,111.909 10.15,223.907 54.81,822.958 471.8,1365.524 857.92,1946.99 -0.16,0.155 -9.3,5.568 -9.67,5.803 35.11,49.266 70.37,100.308 105.91,153.302 z"
           style="color:#000000;display:inline;overflow:visible;visibility:visible;fill:none;fill-opacity:1;fill-rule:nonzero;stroke:#000000;stroke-width:54.8338019;stroke-linecap:butt;stroke-linejoin:round;stroke-miterlimit:4;stroke-dasharray:none;stroke-dashoffset:0;stroke-opacity:1;marker:none;enable-background:accumulate"
           inkscape:connector-curvature="0" />
        <path
           id="path3369"
           d="m 62593.755,21326.415 c 855.81,-507.062 3199.341,-1914.944 3563.675,-2142.365 l -8.705,-3.869 296.449,-176.998 c -2.765,-3.71 -4.435,-6.991 -4.836,-9.19 -2.001,-9.998 -58.313,-43.875 -79.311,-47.876 -15.499,-3.443 -2897.639,-1752.248 -3715.043,-2253.108 l -762.159,1388.425 c -368.967,753.088 -280.781,1384.204 46.909,1981.325 l 440.563,871.452 c 0,0 1.916,-0.965 1.935,-0.965 1.1,0 89.162,157.021 220.523,393.169 z"
           style="color:#000000;display:inline;overflow:visible;visibility:visible;fill:none;fill-opacity:1;fill-rule:nonzero;stroke:#000000;stroke-width:54.8338019;stroke-linecap:butt;stroke-linejoin:round;stroke-miterlimit:4;stroke-dasharray:none;stroke-dashoffset:0;stroke-opacity:1;marker:none;enable-background:accumulate"
           inkscape:connector-curvature="0" />
        <path
           id="path3367"
           d="m 74740.428,21326.415 c 391.279,-760.156 1111.884,-1715.859 970.593,-2537.47 -256.206,-888.145 -573.839,-1397.763 -958.987,-2089.167 -1345.325,810.57 -2602.663,1563.092 -3862.542,2314.528 42.586,29.366 95.473,59.184 112.68,61.901 18,4.001 3566.956,2130.651 3584.954,2148.651 1.47,1.47 1.535,5.823 0.483,11.122 25.988,15.294 90.956,53.716 152.819,90.435 z"
           style="color:#000000;display:inline;overflow:visible;visibility:visible;fill:none;fill-opacity:1;fill-rule:nonzero;stroke:#000000;stroke-width:54.8338019;stroke-linecap:butt;stroke-linejoin:round;stroke-miterlimit:4;stroke-dasharray:none;stroke-dashoffset:0;stroke-opacity:1;marker:none;enable-background:accumulate"
           inkscape:connector-curvature="0" />
        <path
           id="path3365"
           d="m 113471.28,17717.764 c 1652.23,-986.723 3305.14,-1973.645 4957.42,-2961.589 -1169.6,-2124.529 -2660.83,-4840.8316 -2665.62,-4862.1506 -0.25,-1.13 -5,-10.005 -13.54,-26.115 -1492.03,-8.3689 -3025.03,-6.1767 -4553.13,-5.318 -1148.02,2075.6216 -2538.11,4587.8286 -2620.17,4733.5116 -15,28 -38.26,63.783 -51.26,81.728 -4.29,5.784 -12.25,19.521 -24.18,40.14 59.04,37.076 114.11,71.831 164.91,103.007 1641.36,1011.246 3276.69,1596.347 4782.36,2877.926 6.19,5.502 14.46,12.247 23.21,18.86 z"
           style="color:#000000;display:inline;overflow:visible;visibility:visible;fill:none;fill-opacity:1;fill-rule:nonzero;stroke:#000000;stroke-width:54.8338019;stroke-linecap:butt;stroke-linejoin:round;stroke-miterlimit:4;stroke-dasharray:none;stroke-dashoffset:0;stroke-opacity:1;marker:none;enable-background:accumulate"
           inkscape:connector-curvature="0" />
        <path
           id="path3363"
           d="m 68672.169,17675.207 c 2008.203,-1207.791 3612.115,-2174.185 4965.643,-2984.802 C 72469.048,12577.727 70967.895,9855.4774 70963,9834.0574 c -0.249,-1.099 -4.891,-10.337 -13.057,-25.63 -1556.804,43.876 -3127.785,28.617 -4540.072,30.951 l -2658.853,4841.3546 c 1535.611,887.089 3129.236,1915.898 4883.914,2967.392 14.178,10.632 27.317,20.188 37.237,27.082 z"
           style="color:#000000;display:inline;overflow:visible;visibility:visible;fill:none;fill-opacity:1;fill-rule:nonzero;stroke:#000000;stroke-width:54.8338019;stroke-linecap:butt;stroke-linejoin:round;stroke-miterlimit:4;stroke-dasharray:none;stroke-dashoffset:0;stroke-opacity:1;marker:none;enable-background:accumulate"
           inkscape:connector-curvature="0" />
        <path
           id="path3361"
           d="m 75529.669,13556.354 c 1274.084,-949.897 2925.33,-1808.653 3212.579,-3434.552 0.882,-6.397 2.56,-124.7626 4.353,-281.4586 -1767.406,0.666 -3507.515,-8.248 -5274.665,-17.892 464.444,841.0026 1316.586,2387.6586 2057.733,3733.9026 z"
           style="color:#000000;display:inline;overflow:visible;visibility:visible;fill:none;fill-opacity:1;fill-rule:nonzero;stroke:#000000;stroke-width:54.8338019;stroke-linecap:butt;stroke-linejoin:round;stroke-miterlimit:4;stroke-dasharray:none;stroke-dashoffset:0;stroke-opacity:1;marker:none;enable-background:accumulate"
           inkscape:connector-curvature="0" />
        <path
           id="path3359"
           d="m 106671.33,13500.74 c 4.88,-9.239 9.8,-17.974 14.99,-28.049 690.63,-1266.899 1243.24,-2260.14 1989.54,-3608.1656 -103.16,0 -86.83,0.331 -191.5,0.483 -1703.26,-19.59 -3402.04,20.013 -5086.06,15.475 8.57,368.1006 25.62,347.5186 57.06,462.3246 76.99,278.995 234.96,612.855 428.96,903.855 300,450.003 1577.66,1412.368 2787.01,2254.077 z"
           style="color:#000000;display:inline;overflow:visible;visibility:visible;fill:none;fill-opacity:1;fill-rule:nonzero;stroke:#000000;stroke-width:54.8338019;stroke-linecap:butt;stroke-linejoin:round;stroke-miterlimit:4;stroke-dasharray:none;stroke-dashoffset:0;stroke-opacity:1;marker:none;enable-background:accumulate"
           inkscape:connector-curvature="0" />
        <path
           id="path3357"
           d="m 103561.27,7660.7428 0,-7.7377 c 2264.94,-18.5626 4354.07,-14.8052 6347.3,-14.9909 l 97.69,-177.0005 c 2220.71,-4053.5643 -97.69,177.0005 2217.8,-4045.8266 -0.14,-0.4008 1.65,-4.7927 2.91,-7.7377 -1026.34,-1856.4267 -2390.76,-4321.91863 -3526.44,-6362.7741 -597.02,387.8579 -3025.92,1957.71587 -4919.22,3226.60366 -151,101.99936 -293.31,201.00889 -315.31,221.00764 -22,19.99875 -49,38.10642 -59.96,41.10554 -0.45,0.15475 -6.58,4.06691 -8.71,5.32041 -2.12,2629.88775 -5.42,4611.09195 -6.77,7121.54585 z"
           style="color:#000000;display:inline;overflow:visible;visibility:visible;fill:none;fill-opacity:1;fill-rule:nonzero;stroke:#000000;stroke-width:54.8338019;stroke-linecap:butt;stroke-linejoin:round;stroke-miterlimit:4;stroke-dasharray:none;stroke-dashoffset:0;stroke-opacity:1;marker:none;enable-background:accumulate"
           inkscape:connector-curvature="0" />
        <path
           id="path3355"
           d="m 100059.5,7658.8084 c 266.05,0 566.35,-8.8581 1008.31,-7.2533 18.04,-1789.4264 -22.9,-3696.3058 -7.25,-5561.9264 -11.98,6.7085 -51.76,37.622 -92.37,73.5077 -42,37 -83.85,67.703 -92.85,67.7046 -1509.133,999.3371 -2579.474,1716.8688 -3895.914,2600.8204 206.999,407.6678 408.011,807.5516 617.562,1179.5101 668.46,1342.4574 1113.836,1500.7003 1944.087,1630.2272 179.099,13.3381 341.284,17.4081 518.425,17.4097 z"
           style="color:#000000;display:inline;overflow:visible;visibility:visible;fill:none;fill-opacity:1;fill-rule:nonzero;stroke:#000000;stroke-width:54.8338019;stroke-linecap:butt;stroke-linejoin:round;stroke-miterlimit:4;stroke-dasharray:none;stroke-dashoffset:0;stroke-opacity:1;marker:none;enable-background:accumulate"
           inkscape:connector-curvature="0" />
        <path
           id="path3353"
           d="m 114530.37,7639.4642 c -4.66,-15.0141 -4.22,-22.0074 -2.42,-29.0162 -389.02,-823.6387 -648.03,-1206.6526 -1020.88,-1887.0214 -1.08,1.3463 -2.45,0.7846 -3.87,-2.4173 -13.01,-28.9992 -29.07,-17.8941 -57.07,41.1055 -385.41,664.3505 -666.2,1235.0727 -1020.4,1876.3822 708.41,21.7349 1405.64,9.0743 2104.64,0.9672 z"
           style="color:#000000;display:inline;overflow:visible;visibility:visible;fill:none;fill-opacity:1;fill-rule:nonzero;stroke:#000000;stroke-width:54.8338019;stroke-linecap:butt;stroke-linejoin:round;stroke-miterlimit:4;stroke-dasharray:none;stroke-dashoffset:0;stroke-opacity:1;marker:none;enable-background:accumulate"
           inkscape:connector-curvature="0" />
        <path
           id="path3351"
           d="m 67626.135,7624.4733 c 724.058,1.8106 1429.867,-38.8709 2107.061,-36.7539 -7.72,-21 -6.937,-29.5501 -4.836,-37.7226 -244.999,-551.887 -682.126,-1101.1818 -1076.986,-1791.7508 z"
           style="color:#000000;display:inline;overflow:visible;visibility:visible;fill:none;fill-opacity:1;fill-rule:nonzero;stroke:#000000;stroke-width:54.8338019;stroke-linecap:butt;stroke-linejoin:round;stroke-miterlimit:4;stroke-dasharray:none;stroke-dashoffset:0;stroke-opacity:1;marker:none;enable-background:accumulate"
           inkscape:connector-curvature="0" />
        <path
           id="path3349"
           d="m 82772.117,7615.7669 c 643.458,-1.659 1135.724,-461.474 1660.695,-1604.5954 212.41,-368.8093 464.517,-814.1889 725.89,-1279.6168 -794.723,-529.2048 -2488.898,-1654.1133 -4080.648,-2712.5321 l 5.803,5100.0841 11.123,0 -1.451,494.7258 c 849.753,-0.1207 1298.454,-1.1746 1547.532,-3.8689 44.293,3.8952 88.159,5.9147 131.056,5.8033 z"
           style="color:#000000;display:inline;overflow:visible;visibility:visible;fill:none;fill-opacity:1;fill-rule:nonzero;stroke:#000000;stroke-width:54.8338019;stroke-linecap:butt;stroke-linejoin:round;stroke-miterlimit:4;stroke-dasharray:none;stroke-dashoffset:0;stroke-opacity:1;marker:none;enable-background:accumulate"
           inkscape:connector-curvature="0" />
        <path
           id="path3347"
           d="m 78767.396,7612.8668 c 0.619,-66.2823 0.901,-107.3167 1.45,-162.008 l -7.737,0 c -0.684,-2319.8552 -2.175,-4837.3566 -3.869,-6976.95068 C 76955.769,-687.96166 75254.519,-1844.7076 73482.091,-3038.9889 l -94.302,172.6473 -3502.258,6377.2807 c 877.197,1367.2427 1606.12,2727.1903 2356.117,4084.518 2120.107,6.1576 4530.823,16.0262 6525.748,17.4097 z"
           style="color:#000000;display:inline;overflow:visible;visibility:visible;fill:none;fill-opacity:1;fill-rule:nonzero;stroke:#000000;stroke-width:54.8338019;stroke-linecap:butt;stroke-linejoin:round;stroke-miterlimit:4;stroke-dasharray:none;stroke-dashoffset:0;stroke-opacity:1;marker:none;enable-background:accumulate"
           inkscape:connector-curvature="0" />
        <path
           id="path3345"
           d="m 91145.231,5532.4023 c 76.62,-0.5416 154.328,-7.5086 233.097,-22.2442 195,-37.0015 352.628,-101.2441 497.628,-199.2447 378.54,-255.646 1208.178,-812.3768 2058.217,-1382.1408 -18.36,-34.7312 -34.236,-65.9635 -47.876,-92.8519 -964.55,-1780.2665 -1879.716,-3409.23242 -2831.016,-5077.8384 -1050.112,1879.05632 -2024.353,3620.7522 -2850.36,5133.9364 1243.507,836.0339 2087.076,1401.6165 2143.331,1437.2701 261.736,122.9885 523.338,205.0681 796.979,203.1135 z"
           style="color:#000000;display:inline;overflow:visible;visibility:visible;fill:none;fill-opacity:1;fill-rule:nonzero;stroke:#000000;stroke-width:54.8338019;stroke-linecap:butt;stroke-linejoin:round;stroke-miterlimit:4;stroke-dasharray:none;stroke-dashoffset:0;stroke-opacity:1;marker:none;enable-background:accumulate"
           inkscape:connector-curvature="0" />
        <path
           id="path3343"
           d="m 95802.817,2678.6579 c 1757.151,-1207.0515 3380.308,-2255.79821 5146.033,-3466.47095 59,-40.0006 112.03,-73.95964 117.03,-74.95934 0.45,0 3.35,-1.79514 5.32,-2.90008 l 0,-6881.68163 c -1834.453,-6.6992 -4075.069,-14.4121 -6549.448,-21.2785 -752.54,1365.6735 -1423.073,2848.2677 -2187.823,4244.1057 1203.44,2040.566 2192.26,3993.92241 3387.16,6060.521 33.14,56.1506 67.689,116.1283 81.728,142.6638 z"
           style="color:#000000;display:inline;overflow:visible;visibility:visible;fill:none;fill-opacity:1;fill-rule:nonzero;stroke:#000000;stroke-width:54.8338019;stroke-linecap:butt;stroke-linejoin:round;stroke-miterlimit:4;stroke-dasharray:none;stroke-dashoffset:0;stroke-opacity:1;marker:none;enable-background:accumulate"
           inkscape:connector-curvature="0" />
        <path
           id="path3341"
           d="m 86351.267,2586.7732 c 1177.217,-2088.07053 2395.917,-4290.1695 3406.505,-6098.7249 -131.073,-228.9635 -2044.127,-3833.1153 -2276.322,-4271.1875 -2378.398,-2.8118 -4623.55,-3.1461 -6395.175,1.9344 -37.963,2526.4848 -13.729,4810.6478 -11.606,6843.95899 1841.54,1226.51637 4053.598,2701.69161 5276.598,3524.01901 z"
           style="color:#000000;display:inline;overflow:visible;visibility:visible;fill:none;fill-opacity:1;fill-rule:nonzero;stroke:#000000;stroke-width:54.8338019;stroke-linecap:butt;stroke-linejoin:round;stroke-miterlimit:4;stroke-dasharray:none;stroke-dashoffset:0;stroke-opacity:1;marker:none;enable-background:accumulate"
           inkscape:connector-curvature="0" />
        <path
           id="path3339"
           d="m 103373.63,-2409.3354 c 25.03,-17.5227 42.85,-30.1505 43.53,-31.435 1325.09,-900.8398 2876.67,-1959.9365 4075.33,-2677.7142 -557.13,-850.9087 -1178.09,-2756.2282 -2424.31,-2613.3941 0,0 -1067.73,-4.2372 -1694.55,-6.7689 z"
           style="color:#000000;display:inline;overflow:visible;visibility:visible;fill:none;fill-opacity:1;fill-rule:nonzero;stroke:#000000;stroke-width:54.8338019;stroke-linecap:butt;stroke-linejoin:round;stroke-miterlimit:4;stroke-dasharray:none;stroke-dashoffset:0;stroke-opacity:1;marker:none;enable-background:accumulate"
           inkscape:connector-curvature="0" />
        <path
           id="path3337"
           d="m 78754.338,-2481.3931 c -10.481,-1776.0588 -8.754,-3516.529 11.607,-5287.7224 -656.627,5.7166 -1145.198,13.2763 -1404.869,22.7302 -1389.357,-68.6702 -2160.673,1382.5555 -2658.853,2526.3455 1401.858,946.6654 2829.93,1926.8472 4052.115,2738.6467 z"
           style="color:#000000;display:inline;overflow:visible;visibility:visible;fill:none;fill-opacity:1;fill-rule:nonzero;stroke:#000000;stroke-width:54.8338019;stroke-linecap:butt;stroke-linejoin:round;stroke-miterlimit:4;stroke-dasharray:none;stroke-dashoffset:0;stroke-opacity:1;marker:none;enable-background:accumulate"
           inkscape:connector-curvature="0" />
        <path
           id="path3047"
           d="m 91054.314,-5748.6194 c 15.159,-27.0462 33.341,-59.9421 33.852,-60.4512 1.999,-2.001 8.067,2.1557 13.058,10.1564 7.009,10.9999 9.672,5.1734 9.672,-20.7941 240.109,-558.2381 632.076,-1371.7167 941.576,-1955.6932 -652.491,-1.5151 -1304.364,-2.6246 -1956.661,-3.8689 278.672,651.1797 586.892,1373.3663 958.503,2030.651 z"
           style="color:#000000;display:inline;overflow:visible;visibility:visible;fill:none;fill-opacity:1;fill-rule:nonzero;stroke:#000000;stroke-width:54.8338019;stroke-linecap:butt;stroke-linejoin:round;stroke-miterlimit:4;stroke-dasharray:none;stroke-dashoffset:0;stroke-opacity:1;marker:none;enable-background:accumulate"
           inkscape:connector-curvature="0" />
      </g>
    </g>
  </g>
</svg>
