  0
SECTION
  2
HEADER
  9
$ACADVER
  1
AC1014
  9
$HANDSEED
  5
FFFF
  9
$MEASUREMENT
 70
     1
  0
ENDSEC
  0
SECTION
  2
TABLES
  0
TABLE
  2
VPORT
  5
8
330
0
100
AcDbSymbolTable
 70
     4
  0
VPORT
  5
2E
330
8
100
AcDbSymbolTableRecord
100
AcDbViewportTableRecord
  2
*ACTIVE
 70
     0
 10
0.0
 20
0.0
 11
1.0
 21
1.0
 12
210.0
 22
148.5
 13
0.0
 23
0.0
 14
10.0
 24
10.0
 15
10.0
 25
10.0
 16
0.0
 26
0.0
 36
1.0
 17
0.0
 27
0.0
 37
0.0
 40
341.0
 41
1.24
 42
50.0
 43
0.0
 44
0.0
 50
0.0
 51
0.0
 71
     0
 72
   100
 73
     1
 74
     3
 75
     0
 76
     0
 77
     0
 78
     0
  0
ENDTAB
  0
TABLE
  2
LTYPE
  5
5
330
0
100
AcDbSymbolTable
 70
     1
  0
LTYPE
  5
14
330
5
100
AcDbSymbolTableRecord
100
AcDbLinetypeTableRecord
  2
BYBLOCK
 70
     0
  3

 72
    65
 73
     0
 40
0.0
  0
LTYPE
  5
15
330
5
100
AcDbSymbolTableRecord
100
AcDbLinetypeTableRecord
  2
BYLAYER
 70
     0
  3

 72
    65
 73
     0
 40
0.0
  0
LTYPE
  5
16
330
5
100
AcDbSymbolTableRecord
100
AcDbLinetypeTableRecord
  2
CONTINUOUS
 70
     0
  3
Solid line
 72
    65
 73
     0
 40
0.0
  0
ENDTAB
  0
TABLE
  2
LAYER
  5
2
100
AcDbSymbolTable
 70
2
  0
LAYER
  5
50
100
AcDbSymbolTableRecord
100
AcDbLayerTableRecord
  2
0
 70
0
  6
CONTINUOUS
  0
LAYER
  5
51
100
AcDbSymbolTableRecord
100
AcDbLayerTableRecord
  2
Layer_1
 70
0
  6
CONTINUOUS
  0
ENDTAB
  0
TABLE
  2
STYLE
  5
3
330
0
100
AcDbSymbolTable
 70
     1
  0
STYLE
  5
11
330
3
100
AcDbSymbolTableRecord
100
AcDbTextStyleTableRecord
  2
STANDARD
 70
     0
 40
0.0
 41
1.0
 50
0.0
 71
     0
 42
2.5
  3
txt
  4

  0
ENDTAB
  0
TABLE
  2
VIEW
  5
6
330
0
100
AcDbSymbolTable
 70
     0
  0
ENDTAB
  0
TABLE
  2
UCS
  5
7
330
0
100
AcDbSymbolTable
 70
     0
  0
ENDTAB
  0
TABLE
  2
APPID
  5
9
330
0
100
AcDbSymbolTable
 70
     2
  0
APPID
  5
12
330
9
100
AcDbSymbolTableRecord
100
AcDbRegAppTableRecord
  2
ACAD
 70
     0
  0
ENDTAB
  0
TABLE
  2
DIMSTYLE
  5
A
330
0
100
AcDbSymbolTable
 70
     1
  0
DIMSTYLE
105
27
330
A
100
AcDbSymbolTableRecord
100
AcDbDimStyleTableRecord
  2
ISO-25
 70
     0
  3

  4

  5

  6

  7

 40
1.0
 41
2.5
 42
0.625
 43
3.75
 44
1.25
 45
0.0
 46
0.0
 47
0.0
 48
0.0
140
2.5
141
2.5
142
0.0
143
0.03937007874016
144
1.0
145
0.0
146
1.0
147
0.625
 71
     0
 72
     0
 73
     0
 74
     0
 75
     0
 76
     0
 77
     1
 78
     8
170
     0
171
     3
172
     1
173
     0
174
     0
175
     0
176
     0
177
     0
178
     0
270
     2
271
     2
272
     2
273
     2
274
     3
340
11
275
     0
280
     0
281
     0
282
     0
283
     0
284
     8
285
     0
286
     0
287
     3
288
     0
  0
ENDTAB
  0
TABLE
  2
BLOCK_RECORD
  5
1
330
0
100
AcDbSymbolTable
 70
     1
  0
BLOCK_RECORD
  5
1F
330
1
100
AcDbSymbolTableRecord
100
AcDbBlockTableRecord
  2
*MODEL_SPACE
  0
BLOCK_RECORD
  5
1B
330
1
100
AcDbSymbolTableRecord
100
AcDbBlockTableRecord
  2
*PAPER_SPACE
  0
ENDTAB
  0
ENDSEC
  0
SECTION
  2
BLOCKS
  0
BLOCK
  5
20
330
1F
100
AcDbEntity
  8
0
100
AcDbBlockBegin
  2
*MODEL_SPACE
 70
     0
 10
0.0
 20
0.0
 30
0.0
  3
*MODEL_SPACE
  1

  0
ENDBLK
  5
21
330
1F
100
AcDbEntity
  8
0
100
AcDbBlockEnd
  0
BLOCK
  5
1C
330
1B
100
AcDbEntity
 67
     1
  8
0
100
AcDbBlockBegin
  2
*PAPER_SPACE
  1

  0
ENDBLK
  5
1D
330
1B
100
AcDbEntity
 67
     1
  8
0
100
AcDbBlockEnd
  0
ENDSEC
  0
SECTION
  2
ENTITIES
  0
SPLINE
  5
100
100
AcDbEntity
  8
Layer_1
 62
1
100
AcDbSpline
 70
8
 71
3
 72
8
 73
4
 74
0
 40
0
 40
0
 40
0
 40
0
 40
1
 40
1
 40
1
 40
1
 10
39.097578
 20
42.052691
 30
0.0
 10
39.638468
 20
42.019392
 30
0.0
 10
39.830200
 20
41.507404
 30
0.0
 10
40.119105
 20
41.138107
 30
0.0
  0
SPLINE
  5
101
100
AcDbEntity
  8
Layer_1
 62
1
100
AcDbSpline
 70
8
 71
3
 72
8
 73
4
 74
0
 40
0
 40
0
 40
0
 40
0
 40
1
 40
1
 40
1
 40
1
 10
40.660074
 20
40.195746
 30
0.0
 10
39.676543
 20
39.542206
 30
0.0
 10
38.634116
 20
38.839074
 30
0.0
 10
37.739588
 20
38.236372
 30
0.0
  0
SPLINE
  5
102
100
AcDbEntity
  8
Layer_1
 62
1
100
AcDbSpline
 70
8
 71
3
 72
8
 73
4
 74
0
 40
0
 40
0
 40
0
 40
0
 40
1
 40
1
 40
1
 40
1
 10
37.739588
 20
38.236372
 30
0.0
 10
37.747644
 20
39.607401
 30
0.0
 10
37.733736
 20
40.767364
 30
0.0
 10
37.747227
 20
42.051649
 30
0.0
  0
LWPOLYLINE
  5
103
100
AcDbEntity
  8
Layer_1
 62
1
100
AcDbPolyline
 90
2
 70
1
 10
40.119105
 20
41.138107
 30
0.0
 10
40.660074
 20
40.195746
 30
0.0
  0
SPLINE
  5
104
100
AcDbEntity
  8
Layer_1
 62
1
100
AcDbSpline
 70
8
 71
3
 72
8
 73
4
 74
0
 40
0
 40
0
 40
0
 40
0
 40
1
 40
1
 40
1
 40
1
 10
36.090281
 20
42.050260
 30
0.0
 10
36.067908
 20
40.276567
 30
0.0
 10
36.073085
 20
38.532118
 30
0.0
 10
36.071189
 20
37.110676
 30
0.0
  0
SPLINE
  5
105
100
AcDbEntity
  8
Layer_1
 62
1
100
AcDbSpline
 70
8
 71
3
 72
8
 73
4
 74
0
 40
0
 40
0
 40
0
 40
0
 40
1
 40
1
 40
1
 40
1
 10
36.071189
 20
37.110676
 30
0.0
 10
34.776989
 20
36.236296
 30
0.0
 10
33.484714
 20
35.371138
 30
0.0
 10
32.297921
 20
34.574565
 30
0.0
  0
SPLINE
  5
106
100
AcDbEntity
  8
Layer_1
 62
1
100
AcDbSpline
 70
8
 71
3
 72
8
 73
4
 74
0
 40
0
 40
0
 40
0
 40
0
 40
1
 40
1
 40
1
 40
1
 10
32.297921
 20
34.574565
 30
0.0
 10
31.395898
 20
36.092246
 30
0.0
 10
30.680548
 20
37.489127
 30
0.0
 10
29.804866
 20
39.036024
 30
0.0
  0
SPLINE
  5
107
100
AcDbEntity
  8
Layer_1
 62
1
100
AcDbSpline
 70
8
 71
3
 72
8
 73
4
 74
0
 40
0
 40
0
 40
0
 40
0
 40
1
 40
1
 40
1
 40
1
 10
29.804866
 20
39.036024
 30
0.0
 10
30.391212
 20
40.020938
 30
0.0
 10
30.932176
 20
41.021839
 30
0.0
 10
31.445143
 20
42.046093
 30
0.0
  0
LWPOLYLINE
  5
108
100
AcDbEntity
  8
Layer_1
 62
1
100
AcDbPolyline
 90
2
 70
1
 10
37.747227
 20
42.051649
 30
0.0
 10
39.097578
 20
42.052691
 30
0.0
  0
SPLINE
  5
109
100
AcDbEntity
  8
Layer_1
 62
1
100
AcDbSpline
 70
8
 71
3
 72
8
 73
4
 74
0
 40
0
 40
0
 40
0
 40
0
 40
1
 40
1
 40
1
 40
1
 10
29.682991
 20
42.044704
 30
0.0
 10
29.504736
 20
41.739760
 30
0.0
 10
28.935991
 20
40.768503
 30
0.0
 10
28.887505
 20
40.683246
 30
0.0
  0
SPLINE
  5
10a
100
AcDbEntity
  8
Layer_1
 62
1
100
AcDbSpline
 70
8
 71
3
 72
8
 73
4
 74
0
 40
0
 40
0
 40
0
 40
0
 40
1
 40
1
 40
1
 40
1
 10
28.887505
 20
40.683246
 30
0.0
 10
28.878947
 20
40.698602
 30
0.0
 10
28.851299
 20
40.748740
 30
0.0
 10
28.848269
 20
40.754079
 30
0.0
  0
SPLINE
  5
10b
100
AcDbEntity
  8
Layer_1
 62
1
100
AcDbSpline
 70
8
 71
3
 72
8
 73
4
 74
0
 40
0
 40
0
 40
0
 40
0
 40
1
 40
1
 40
1
 40
1
 10
28.848269
 20
40.754079
 30
0.0
 10
28.823858
 20
40.797876
 30
0.0
 10
28.789459
 20
40.859618
 30
0.0
 10
28.772228
 20
40.891927
 30
0.0
  0
SPLINE
  5
10c
100
AcDbEntity
  8
Layer_1
 62
1
100
AcDbSpline
 70
8
 71
3
 72
8
 73
4
 74
0
 40
0
 40
0
 40
0
 40
0
 40
1
 40
1
 40
1
 40
1
 10
28.772228
 20
40.891927
 30
0.0
 10
28.752123
 20
40.929262
 30
0.0
 10
28.736028
 20
40.951648
 30
0.0
 10
28.728130
 20
40.951648
 30
0.0
  0
SPLINE
  5
10d
100
AcDbEntity
  8
Layer_1
 62
1
100
AcDbSpline
 70
8
 71
3
 72
8
 73
4
 74
0
 40
0
 40
0
 40
0
 40
0
 40
1
 40
1
 40
1
 40
1
 10
28.728130
 20
40.951648
 30
0.0
 10
28.511413
 20
41.282366
 30
0.0
 10
28.316770
 20
41.660471
 30
0.0
 10
28.130561
 20
42.043315
 30
0.0
  0
LWPOLYLINE
  5
10e
100
AcDbEntity
  8
Layer_1
 62
1
100
AcDbPolyline
 90
2
 70
1
 10
31.445143
 20
42.046093
 30
0.0
 10
36.090281
 20
42.050260
 30
0.0
  0
SPLINE
  5
10f
100
AcDbEntity
  8
Layer_1
 62
1
100
AcDbSpline
 70
8
 71
3
 72
8
 73
4
 74
0
 40
0
 40
0
 40
0
 40
0
 40
1
 40
1
 40
1
 40
1
 10
26.346185
 20
42.041927
 30
0.0
 10
26.815854
 20
41.041313
 30
0.0
 10
27.365917
 20
40.094618
 30
0.0
 10
27.921186
 20
39.127690
 30
0.0
  0
SPLINE
  5
110
100
AcDbEntity
  8
Layer_1
 62
1
100
AcDbSpline
 70
8
 71
3
 72
8
 73
4
 74
0
 40
0
 40
0
 40
0
 40
0
 40
1
 40
1
 40
1
 40
1
 10
27.921186
 20
39.127690
 30
0.0
 10
27.945315
 20
39.086606
 30
0.0
 10
27.968561
 20
39.049943
 30
0.0
 10
27.977088
 20
39.038454
 30
0.0
  0
SPLINE
  5
111
100
AcDbEntity
  8
Layer_1
 62
1
100
AcDbSpline
 70
8
 71
3
 72
8
 73
4
 74
0
 40
0
 40
0
 40
0
 40
0
 40
1
 40
1
 40
1
 40
1
 10
27.977088
 20
39.038454
 30
0.0
 10
27.172177
 20
37.561476
 30
0.0
 10
26.238268
 20
35.816177
 30
0.0
 10
25.570491
 20
34.651302
 30
0.0
  0
SPLINE
  5
112
100
AcDbEntity
  8
Layer_1
 62
1
100
AcDbSpline
 70
8
 71
3
 72
8
 73
4
 74
0
 40
0
 40
0
 40
0
 40
0
 40
1
 40
1
 40
1
 40
1
 10
25.570491
 20
34.651302
 30
0.0
 10
25.550698
 20
34.618317
 30
0.0
 10
25.532467
 20
34.586120
 30
0.0
 10
25.520143
 20
34.563802
 30
0.0
  0
SPLINE
  5
113
100
AcDbEntity
  8
Layer_1
 62
1
100
AcDbSpline
 70
8
 71
3
 72
8
 73
4
 74
0
 40
0
 40
0
 40
0
 40
0
 40
1
 40
1
 40
1
 40
1
 10
25.520143
 20
34.563802
 30
0.0
 10
24.245447
 20
35.406957
 30
0.0
 10
23.082804
 20
36.169860
 30
0.0
 10
21.817019
 20
37.037761
 30
0.0
  0
SPLINE
  5
114
100
AcDbEntity
  8
Layer_1
 62
1
100
AcDbSpline
 70
8
 71
3
 72
8
 73
4
 74
0
 40
0
 40
0
 40
0
 40
0
 40
1
 40
1
 40
1
 40
1
 10
21.817019
 20
37.037761
 30
0.0
 10
21.774658
 20
37.066478
 30
0.0
 10
21.737298
 20
37.090862
 30
0.0
 10
21.732991
 20
37.091580
 30
0.0
  0
SPLINE
  5
115
100
AcDbEntity
  8
Layer_1
 62
1
100
AcDbSpline
 70
8
 71
3
 72
8
 73
4
 74
0
 40
0
 40
0
 40
0
 40
0
 40
1
 40
1
 40
1
 40
1
 10
21.732991
 20
37.091580
 30
0.0
 10
21.732691
 20
37.091580
 30
0.0
 10
21.730775
 20
37.092963
 30
0.0
 10
21.729519
 20
37.093663
 30
0.0
  0
SPLINE
  5
116
100
AcDbEntity
  8
Layer_1
 62
1
100
AcDbSpline
 70
8
 71
3
 72
8
 73
4
 74
0
 40
0
 40
0
 40
0
 40
0
 40
1
 40
1
 40
1
 40
1
 10
21.729519
 20
37.093663
 30
0.0
 10
21.728608
 20
37.313609
 30
0.0
 10
21.714468
 20
41.210894
 30
0.0
 10
21.709728
 20
42.038107
 30
0.0
  0
LWPOLYLINE
  5
117
100
AcDbEntity
  8
Layer_1
 62
1
100
AcDbPolyline
 90
2
 70
1
 10
28.130561
 20
42.043315
 30
0.0
 10
29.682991
 20
42.044704
 30
0.0
  0
SPLINE
  5
118
100
AcDbEntity
  8
Layer_1
 62
1
100
AcDbSpline
 70
8
 71
3
 72
8
 73
4
 74
0
 40
0
 40
0
 40
0
 40
0
 40
1
 40
1
 40
1
 40
1
 10
20.057991
 20
42.036718
 30
0.0
 10
20.062248
 20
40.620911
 30
0.0
 10
20.069399
 20
38.317082
 30
0.0
 10
20.069102
 20
38.206857
 30
0.0
  0
SPLINE
  5
119
100
AcDbEntity
  8
Layer_1
 62
1
100
AcDbSpline
 70
8
 71
3
 72
8
 73
4
 74
0
 40
0
 40
0
 40
0
 40
0
 40
1
 40
1
 40
1
 40
1
 10
20.069102
 20
38.206857
 30
0.0
 10
20.054612
 20
38.217048
 30
0.0
 10
20.045233
 20
38.223744
 30
0.0
 10
20.044797
 20
38.224565
 30
0.0
  0
SPLINE
  5
11a
100
AcDbEntity
  8
Layer_1
 62
1
100
AcDbSpline
 70
8
 71
3
 72
8
 73
4
 74
0
 40
0
 40
0
 40
0
 40
0
 40
1
 40
1
 40
1
 40
1
 10
20.044797
 20
38.224565
 30
0.0
 10
19.147871
 20
38.802246
 30
0.0
 10
18.105646
 20
39.605058
 30
0.0
 10
17.147575
 20
40.198176
 30
0.0
  0
SPLINE
  5
11b
100
AcDbEntity
  8
Layer_1
 62
1
100
AcDbSpline
 70
8
 71
3
 72
8
 73
4
 74
0
 40
0
 40
0
 40
0
 40
0
 40
1
 40
1
 40
1
 40
1
 10
17.147575
 20
40.198176
 30
0.0
 10
17.424293
 20
40.687314
 30
0.0
 10
17.680034
 20
41.128667
 30
0.0
 10
17.895838
 20
41.482899
 30
0.0
  0
SPLINE
  5
11c
100
AcDbEntity
  8
Layer_1
 62
1
100
AcDbSpline
 70
8
 71
3
 72
8
 73
4
 74
0
 40
0
 40
0
 40
0
 40
0
 40
1
 40
1
 40
1
 40
1
 10
17.895838
 20
41.482899
 30
0.0
 10
18.218858
 20
42.013119
 30
0.0
 10
18.462983
 20
41.986664
 30
0.0
 10
18.742366
 20
42.035329
 30
0.0
  0
LWPOLYLINE
  5
11d
100
AcDbEntity
  8
Layer_1
 62
1
100
AcDbPolyline
 90
2
 70
1
 10
21.709728
 20
42.038107
 30
0.0
 10
26.346185
 20
42.041927
 30
0.0
  0
SPLINE
  5
11e
100
AcDbEntity
  8
Layer_1
 62
1
100
AcDbSpline
 70
8
 71
3
 72
8
 73
4
 74
0
 40
0
 40
0
 40
0
 40
0
 40
1
 40
1
 40
1
 40
1
 10
41.523614
 20
38.648176
 30
0.0
 10
42.438619
 20
36.967470
 30
0.0
 10
43.252927
 20
35.495729
 30
0.0
 10
44.081953
 20
34.005468
 30
0.0
  0
SPLINE
  5
11f
100
AcDbEntity
  8
Layer_1
 62
1
100
AcDbSpline
 70
8
 71
3
 72
8
 73
4
 74
0
 40
0
 40
0
 40
0
 40
0
 40
1
 40
1
 40
1
 40
1
 10
44.081953
 20
34.005468
 30
0.0
 10
43.497215
 20
32.978678
 30
0.0
 10
42.965688
 20
32.010625
 30
0.0
 10
42.409031
 20
31.001996
 30
0.0
  0
SPLINE
  5
120
100
AcDbEntity
  8
Layer_1
 62
1
100
AcDbSpline
 70
8
 71
3
 72
8
 73
4
 74
0
 40
0
 40
0
 40
0
 40
0
 40
1
 40
1
 40
1
 40
1
 10
42.409031
 20
31.001996
 30
0.0
 10
42.359145
 20
31.001763
 30
0.0
 10
42.318808
 20
31.001815
 30
0.0
 10
42.273618
 20
31.001650
 30
0.0
  0
LWPOLYLINE
  5
121
100
AcDbEntity
  8
Layer_1
 62
1
100
AcDbPolyline
 90
2
 70
1
 10
18.742366
 20
42.035329
 30
0.0
 10
20.057991
 20
42.036718
 30
0.0
  0
SPLINE
  5
122
100
AcDbEntity
  8
Layer_1
 62
1
100
AcDbSpline
 70
8
 71
3
 72
8
 73
4
 74
0
 40
0
 40
0
 40
0
 40
0
 40
1
 40
1
 40
1
 40
1
 10
42.273963
 20
31.002343
 30
0.0
 10
40.799098
 20
31.001164
 30
0.0
 10
39.119420
 20
30.999840
 30
0.0
 10
37.733686
 20
30.998872
 30
0.0
  0
SPLINE
  5
123
100
AcDbEntity
  8
Layer_1
 62
1
100
AcDbSpline
 70
8
 71
3
 72
8
 73
4
 74
0
 40
0
 40
0
 40
0
 40
0
 40
1
 40
1
 40
1
 40
1
 10
37.733686
 20
30.998872
 30
0.0
 10
37.733428
 20
32.710521
 30
0.0
 10
37.734928
 20
34.602715
 30
0.0
 10
37.736809
 20
36.103385
 30
0.0
  0
SPLINE
  5
124
100
AcDbEntity
  8
Layer_1
 62
1
100
AcDbSpline
 70
8
 71
3
 72
8
 73
4
 74
0
 40
0
 40
0
 40
0
 40
0
 40
1
 40
1
 40
1
 40
1
 10
37.736809
 20
36.103385
 30
0.0
 10
38.982549
 20
36.943051
 30
0.0
 10
40.365569
 20
37.871097
 30
0.0
 10
41.523614
 20
38.648176
 30
0.0
  0
LWPOLYLINE
  5
125
100
AcDbEntity
  8
Layer_1
 62
1
100
AcDbPolyline
 90
2
 70
1
 10
42.273618
 20
31.001650
 30
0.0
 10
42.273963
 20
31.002343
 30
0.0
  0
SPLINE
  5
126
100
AcDbEntity
  8
Layer_1
 62
1
100
AcDbSpline
 70
8
 71
3
 72
8
 73
4
 74
0
 40
0
 40
0
 40
0
 40
0
 40
1
 40
1
 40
1
 40
1
 10
16.284381
 20
38.647482
 30
0.0
 10
17.617571
 20
37.805436
 30
0.0
 10
18.894553
 20
36.876736
 30
0.0
 10
20.052783
 20
36.089150
 30
0.0
  0
SPLINE
  5
127
100
AcDbEntity
  8
Layer_1
 62
1
100
AcDbSpline
 70
8
 71
3
 72
8
 73
4
 74
0
 40
0
 40
0
 40
0
 40
0
 40
1
 40
1
 40
1
 40
1
 10
20.052783
 20
36.089150
 30
0.0
 10
20.053395
 20
36.088984
 30
0.0
 10
20.060306
 20
36.084952
 30
0.0
 10
20.065283
 20
36.081857
 30
0.0
  0
SPLINE
  5
128
100
AcDbEntity
  8
Layer_1
 62
1
100
AcDbSpline
 70
8
 71
3
 72
8
 73
4
 74
0
 40
0
 40
0
 40
0
 40
0
 40
1
 40
1
 40
1
 40
1
 10
20.065283
 20
36.081857
 30
0.0
 10
20.061929
 20
34.382894
 30
0.0
 10
20.063044
 20
32.614034
 30
0.0
 10
20.063894
 20
30.982552
 30
0.0
  0
SPLINE
  5
129
100
AcDbEntity
  8
Layer_1
 62
1
100
AcDbSpline
 70
8
 71
3
 72
8
 73
4
 74
0
 40
0
 40
0
 40
0
 40
0
 40
1
 40
1
 40
1
 40
1
 10
20.063894
 20
30.982552
 30
0.0
 10
18.444517
 20
30.982963
 30
0.0
 10
16.862471
 20
30.986726
 30
0.0
 10
15.393408
 20
30.987413
 30
0.0
  0
SPLINE
  5
12a
100
AcDbEntity
  8
Layer_1
 62
1
100
AcDbSpline
 70
8
 71
3
 72
8
 73
4
 74
0
 40
0
 40
0
 40
0
 40
0
 40
1
 40
1
 40
1
 40
1
 10
15.393408
 20
30.987413
 30
0.0
 10
14.965526
 20
31.762824
 30
0.0
 10
14.750764
 20
32.148466
 30
0.0
 10
13.721533
 20
34.020052
 30
0.0
  0
SPLINE
  5
12b
100
AcDbEntity
  8
Layer_1
 62
1
100
AcDbSpline
 70
8
 71
3
 72
8
 73
4
 74
0
 40
0
 40
0
 40
0
 40
0
 40
1
 40
1
 40
1
 40
1
 10
13.721533
 20
34.020052
 30
0.0
 10
13.721665
 20
34.020453
 30
0.0
 10
13.720499
 20
34.023184
 30
0.0
 10
13.718755
 20
34.026996
 30
0.0
  0
SPLINE
  5
12c
100
AcDbEntity
  8
Layer_1
 62
1
100
AcDbSpline
 70
8
 71
3
 72
8
 73
4
 74
0
 40
0
 40
0
 40
0
 40
0
 40
1
 40
1
 40
1
 40
1
 10
13.718755
 20
34.026996
 30
0.0
 10
14.615980
 20
35.589794
 30
0.0
 10
15.533941
 20
37.281810
 30
0.0
 10
16.284381
 20
38.647482
 30
0.0
  0
LWPOLYLINE
  5
12d
100
AcDbEntity
  8
Layer_1
 62
1
100
AcDbPolyline
 90
2
 70
1
 10
41.523614
 20
38.648176
 30
0.0
 10
41.523614
 20
38.648176
 30
0.0
  0
SPLINE
  5
12e
100
AcDbEntity
  8
Layer_1
 62
1
100
AcDbSpline
 70
8
 71
3
 72
8
 73
4
 74
0
 40
0
 40
0
 40
0
 40
0
 40
1
 40
1
 40
1
 40
1
 10
28.902783
 20
37.374913
 30
0.0
 10
28.904334
 20
37.372026
 30
0.0
 10
28.914253
 20
37.354360
 30
0.0
 10
28.914935
 20
37.353038
 30
0.0
  0
SPLINE
  5
12f
100
AcDbEntity
  8
Layer_1
 62
1
100
AcDbSpline
 70
8
 71
3
 72
8
 73
4
 74
0
 40
0
 40
0
 40
0
 40
0
 40
1
 40
1
 40
1
 40
1
 10
28.914935
 20
37.353038
 30
0.0
 10
29.616059
 20
36.054544
 30
0.0
 10
30.191683
 20
35.064469
 30
0.0
 10
30.988199
 20
33.694357
 30
0.0
  0
SPLINE
  5
130
100
AcDbEntity
  8
Layer_1
 62
1
100
AcDbSpline
 70
8
 71
3
 72
8
 73
4
 74
0
 40
0
 40
0
 40
0
 40
0
 40
1
 40
1
 40
1
 40
1
 10
30.988199
 20
33.694357
 30
0.0
 10
30.318050
 20
33.379085
 30
0.0
 10
29.735859
 20
32.581171
 30
0.0
 10
28.976046
 20
32.511718
 30
0.0
  0
SPLINE
  5
131
100
AcDbEntity
  8
Layer_1
 62
1
100
AcDbSpline
 70
8
 71
3
 72
8
 73
4
 74
0
 40
0
 40
0
 40
0
 40
0
 40
1
 40
1
 40
1
 40
1
 10
28.976046
 20
32.511718
 30
0.0
 10
28.942301
 20
32.508846
 30
0.0
 10
28.916325
 20
32.502832
 30
0.0
 10
28.916325
 20
32.498524
 30
0.0
  0
SPLINE
  5
132
100
AcDbEntity
  8
Layer_1
 62
1
100
AcDbSpline
 70
8
 71
3
 72
8
 73
4
 74
0
 40
0
 40
0
 40
0
 40
0
 40
1
 40
1
 40
1
 40
1
 10
28.916325
 20
32.498524
 30
0.0
 10
28.916325
 20
32.487753
 30
0.0
 10
28.779360
 20
32.497932
 30
0.0
 10
28.688894
 20
32.515885
 30
0.0
  0
SPLINE
  5
133
100
AcDbEntity
  8
Layer_1
 62
1
100
AcDbSpline
 70
8
 71
3
 72
8
 73
4
 74
0
 40
0
 40
0
 40
0
 40
0
 40
1
 40
1
 40
1
 40
1
 10
28.688894
 20
32.515885
 30
0.0
 10
28.548886
 20
32.542450
 30
0.0
 10
28.435365
 20
32.588231
 30
0.0
 10
28.331255
 20
32.658594
 30
0.0
  0
SPLINE
  5
134
100
AcDbEntity
  8
Layer_1
 62
1
100
AcDbSpline
 70
8
 71
3
 72
8
 73
4
 74
0
 40
0
 40
0
 40
0
 40
0
 40
1
 40
1
 40
1
 40
1
 10
28.331255
 20
32.658594
 30
0.0
 10
28.046296
 20
32.851038
 30
0.0
 10
27.451304
 20
33.255233
 30
0.0
 10
26.857297
 20
33.658246
 30
0.0
  0
SPLINE
  5
135
100
AcDbEntity
  8
Layer_1
 62
1
100
AcDbSpline
 70
8
 71
3
 72
8
 73
4
 74
0
 40
0
 40
0
 40
0
 40
0
 40
1
 40
1
 40
1
 40
1
 10
26.857297
 20
33.658246
 30
0.0
 10
26.869073
 20
33.680590
 30
0.0
 10
26.879218
 20
33.699924
 30
0.0
 10
26.888199
 20
33.717621
 30
0.0
  0
SPLINE
  5
136
100
AcDbEntity
  8
Layer_1
 62
1
100
AcDbSpline
 70
8
 71
3
 72
8
 73
4
 74
0
 40
0
 40
0
 40
0
 40
0
 40
1
 40
1
 40
1
 40
1
 10
26.888199
 20
33.717621
 30
0.0
 10
27.301428
 20
34.521799
 30
0.0
 10
28.160917
 20
36.037697
 30
0.0
 10
28.902783
 20
37.374913
 30
0.0
  0
LWPOLYLINE
  5
137
100
AcDbEntity
  8
Layer_1
 62
1
100
AcDbPolyline
 90
2
 70
1
 10
16.284381
 20
38.647482
 30
0.0
 10
16.284381
 20
38.647482
 30
0.0
  0
LWPOLYLINE
  5
138
100
AcDbEntity
  8
Layer_1
 62
1
100
AcDbPolyline
 90
2
 70
1
 10
28.902783
 20
37.374913
 30
0.0
 10
28.902783
 20
37.374913
 30
0.0
  0
SPLINE
  5
139
100
AcDbEntity
  8
Layer_1
 62
1
100
AcDbSpline
 70
8
 71
3
 72
8
 73
4
 74
0
 40
0
 40
0
 40
0
 40
0
 40
1
 40
1
 40
1
 40
1
 10
36.066673
 20
30.998176
 30
0.0
 10
35.569573
 20
31.042336
 30
0.0
 10
35.197044
 20
31.077427
 30
0.0
 10
34.901741
 20
31.135676
 30
0.0
  0
SPLINE
  5
13a
100
AcDbEntity
  8
Layer_1
 62
1
100
AcDbSpline
 70
8
 71
3
 72
8
 73
4
 74
0
 40
0
 40
0
 40
0
 40
0
 40
1
 40
1
 40
1
 40
1
 10
34.901741
 20
31.135676
 30
0.0
 10
34.040018
 20
31.358262
 30
0.0
 10
34.054485
 20
31.379169
 30
0.0
 10
33.594102
 20
32.164842
 30
0.0
  0
SPLINE
  5
13b
100
AcDbEntity
  8
Layer_1
 62
1
100
AcDbSpline
 70
8
 71
3
 72
8
 73
4
 74
0
 40
0
 40
0
 40
0
 40
0
 40
1
 40
1
 40
1
 40
1
 10
33.594102
 20
32.164842
 30
0.0
 10
33.473430
 20
32.371109
 30
0.0
 10
33.342022
 20
32.618009
 30
0.0
 10
33.185421
 20
32.916579
 30
0.0
  0
SPLINE
  5
13c
100
AcDbEntity
  8
Layer_1
 62
1
100
AcDbSpline
 70
8
 71
3
 72
8
 73
4
 74
0
 40
0
 40
0
 40
0
 40
0
 40
1
 40
1
 40
1
 40
1
 10
33.185421
 20
32.916579
 30
0.0
 10
33.185421
 20
32.916579
 30
0.0
 10
33.185095
 20
32.916243
 30
0.0
 10
33.185074
 20
32.916232
 30
0.0
  0
SPLINE
  5
13d
100
AcDbEntity
  8
Layer_1
 62
1
100
AcDbSpline
 70
8
 71
3
 72
8
 73
4
 74
0
 40
0
 40
0
 40
0
 40
0
 40
1
 40
1
 40
1
 40
1
 10
33.185074
 20
32.916232
 30
0.0
 10
33.171181
 20
32.952281
 30
0.0
 10
33.156342
 20
32.988989
 30
0.0
 10
33.140977
 20
33.025954
 30
0.0
  0
SPLINE
  5
13e
100
AcDbEntity
  8
Layer_1
 62
1
100
AcDbSpline
 70
8
 71
3
 72
8
 73
4
 74
0
 40
0
 40
0
 40
0
 40
0
 40
1
 40
1
 40
1
 40
1
 10
33.140977
 20
33.025954
 30
0.0
 10
34.148166
 20
33.704174
 30
0.0
 10
35.079900
 20
34.317394
 30
0.0
 10
36.069100
 20
34.981162
 30
0.0
  0
LWPOLYLINE
  5
13f
100
AcDbEntity
  8
Layer_1
 62
1
100
AcDbPolyline
 90
2
 70
1
 10
36.069100
 20
34.981162
 30
0.0
 10
36.066673
 20
30.998176
 30
0.0
  0
SPLINE
  5
140
100
AcDbEntity
  8
Layer_1
 62
1
100
AcDbSpline
 70
8
 71
3
 72
8
 73
4
 74
0
 40
0
 40
0
 40
0
 40
0
 40
1
 40
1
 40
1
 40
1
 10
21.730908
 20
34.975261
 30
0.0
 10
21.731586
 20
34.974861
 30
0.0
 10
21.734905
 20
34.972886
 30
0.0
 10
21.735075
 20
34.972829
 30
0.0
  0
SPLINE
  5
141
100
AcDbEntity
  8
Layer_1
 62
1
100
AcDbSpline
 70
8
 71
3
 72
8
 73
4
 74
0
 40
0
 40
0
 40
0
 40
0
 40
1
 40
1
 40
1
 40
1
 10
21.735075
 20
34.972829
 30
0.0
 10
21.741537
 20
34.969957
 30
0.0
 10
21.772257
 20
34.946293
 30
0.0
 10
21.803130
 20
34.919010
 30
0.0
  0
SPLINE
  5
142
100
AcDbEntity
  8
Layer_1
 62
1
100
AcDbSpline
 70
8
 71
3
 72
8
 73
4
 74
0
 40
0
 40
0
 40
0
 40
0
 40
1
 40
1
 40
1
 40
1
 10
21.803130
 20
34.919010
 30
0.0
 10
21.833286
 20
34.892443
 30
0.0
 10
21.863681
 20
34.870051
 30
0.0
 10
21.870144
 20
34.870051
 30
0.0
  0
SPLINE
  5
143
100
AcDbEntity
  8
Layer_1
 62
1
100
AcDbSpline
 70
8
 71
3
 72
8
 73
4
 74
0
 40
0
 40
0
 40
0
 40
0
 40
1
 40
1
 40
1
 40
1
 10
21.870144
 20
34.870051
 30
0.0
 10
22.824206
 20
34.211685
 30
0.0
 10
23.716215
 20
33.667506
 30
0.0
 10
24.675699
 20
33.018316
 30
0.0
  0
SPLINE
  5
144
100
AcDbEntity
  8
Layer_1
 62
1
100
AcDbSpline
 70
8
 71
3
 72
8
 73
4
 74
0
 40
0
 40
0
 40
0
 40
0
 40
1
 40
1
 40
1
 40
1
 10
24.675699
 20
33.018316
 30
0.0
 10
24.503152
 20
32.747810
 30
0.0
 10
24.358231
 20
32.451529
 30
0.0
 10
24.206255
 20
32.164842
 30
0.0
  0
SPLINE
  5
145
100
AcDbEntity
  8
Layer_1
 62
1
100
AcDbSpline
 70
8
 71
3
 72
8
 73
4
 74
0
 40
0
 40
0
 40
0
 40
0
 40
1
 40
1
 40
1
 40
1
 10
24.206255
 20
32.164842
 30
0.0
 10
23.832610
 20
31.401982
 30
0.0
 10
23.551849
 20
30.970791
 30
0.0
 10
22.830560
 20
30.983940
 30
0.0
  0
SPLINE
  5
146
100
AcDbEntity
  8
Layer_1
 62
1
100
AcDbSpline
 70
8
 71
3
 72
8
 73
4
 74
0
 40
0
 40
0
 40
0
 40
0
 40
1
 40
1
 40
1
 40
1
 10
22.830560
 20
30.983940
 30
0.0
 10
22.499024
 20
30.962604
 30
0.0
 10
22.228360
 20
30.993330
 30
0.0
 10
21.731949
 20
30.990885
 30
0.0
  0
SPLINE
  5
147
100
AcDbEntity
  8
Layer_1
 62
1
100
AcDbSpline
 70
8
 71
3
 72
8
 73
4
 74
0
 40
0
 40
0
 40
0
 40
0
 40
1
 40
1
 40
1
 40
1
 10
21.731949
 20
30.990885
 30
0.0
 10
21.730556
 20
32.287587
 30
0.0
 10
21.730630
 20
33.750081
 30
0.0
 10
21.730908
 20
34.975261
 30
0.0
  0
LWPOLYLINE
  5
148
100
AcDbEntity
  8
Layer_1
 62
1
100
AcDbPolyline
 90
2
 70
1
 10
36.069100
 20
34.981162
 30
0.0
 10
36.069100
 20
34.981162
 30
0.0
  0
SPLINE
  5
149
100
AcDbEntity
  8
Layer_1
 62
1
100
AcDbSpline
 70
8
 71
3
 72
8
 73
4
 74
0
 40
0
 40
0
 40
0
 40
0
 40
1
 40
1
 40
1
 40
1
 10
44.989937
 20
32.375261
 30
0.0
 10
45.237111
 20
31.931956
 30
0.0
 10
45.482621
 20
31.492496
 30
0.0
 10
45.742016
 20
31.026996
 30
0.0
  0
SPLINE
  5
14a
100
AcDbEntity
  8
Layer_1
 62
1
100
AcDbSpline
 70
8
 71
3
 72
8
 73
4
 74
0
 40
0
 40
0
 40
0
 40
0
 40
1
 40
1
 40
1
 40
1
 10
45.742016
 20
31.026996
 30
0.0
 10
45.739395
 20
31.025514
 30
0.0
 10
45.738893
 20
31.023790
 30
0.0
 10
45.738893
 20
31.021787
 30
0.0
  0
SPLINE
  5
14b
100
AcDbEntity
  8
Layer_1
 62
1
100
AcDbSpline
 70
8
 71
3
 72
8
 73
4
 74
0
 40
0
 40
0
 40
0
 40
0
 40
1
 40
1
 40
1
 40
1
 10
45.738893
 20
31.021787
 30
0.0
 10
45.513056
 20
31.024313
 30
0.0
 10
44.897582
 20
31.020287
 30
0.0
 10
44.226398
 20
31.015191
 30
0.0
  0
SPLINE
  5
14c
100
AcDbEntity
  8
Layer_1
 62
1
100
AcDbSpline
 70
8
 71
3
 72
8
 73
4
 74
0
 40
0
 40
0
 40
0
 40
0
 40
1
 40
1
 40
1
 40
1
 10
44.226398
 20
31.015191
 30
0.0
 10
44.552502
 20
31.597306
 30
0.0
 10
44.833164
 20
32.095384
 30
0.0
 10
44.989937
 20
32.375261
 30
0.0
  0
LWPOLYLINE
  5
14d
100
AcDbEntity
  8
Layer_1
 62
1
100
AcDbPolyline
 90
2
 70
1
 10
21.730908
 20
34.975261
 30
0.0
 10
21.730908
 20
34.975261
 30
0.0
  0
SPLINE
  5
14e
100
AcDbEntity
  8
Layer_1
 62
1
100
AcDbSpline
 70
8
 71
3
 72
8
 73
4
 74
0
 40
0
 40
0
 40
0
 40
0
 40
1
 40
1
 40
1
 40
1
 10
12.819797
 20
32.368663
 30
0.0
 10
13.082699
 20
31.874468
 30
0.0
 10
13.354222
 20
31.387224
 30
0.0
 10
13.575699
 20
30.986718
 30
0.0
  0
SPLINE
  5
14f
100
AcDbEntity
  8
Layer_1
 62
1
100
AcDbSpline
 70
8
 71
3
 72
8
 73
4
 74
0
 40
0
 40
0
 40
0
 40
0
 40
1
 40
1
 40
1
 40
1
 10
13.575699
 20
30.986718
 30
0.0
 10
13.068207
 20
30.992463
 30
0.0
 10
12.534821
 20
30.998806
 30
0.0
 10
12.072922
 20
31.005469
 30
0.0
  0
SPLINE
  5
150
100
AcDbEntity
  8
Layer_1
 62
1
100
AcDbSpline
 70
8
 71
3
 72
8
 73
4
 74
0
 40
0
 40
0
 40
0
 40
0
 40
1
 40
1
 40
1
 40
1
 10
12.072922
 20
31.005469
 30
0.0
 10
12.330855
 20
31.473545
 30
0.0
 10
12.581459
 20
31.930543
 30
0.0
 10
12.819797
 20
32.368663
 30
0.0
  0
LWPOLYLINE
  5
151
100
AcDbEntity
  8
Layer_1
 62
1
100
AcDbPolyline
 90
2
 70
1
 10
44.989937
 20
32.375261
 30
0.0
 10
44.989937
 20
32.375261
 30
0.0
  0
SPLINE
  5
152
100
AcDbEntity
  8
Layer_1
 62
1
100
AcDbSpline
 70
8
 71
3
 72
8
 73
4
 74
0
 40
0
 40
0
 40
0
 40
0
 40
1
 40
1
 40
1
 40
1
 10
28.928824
 20
31.291579
 30
0.0
 10
33.599518
 20
31.291579
 30
0.0
 10
37.385770
 20
27.505329
 30
0.0
 10
37.385770
 20
22.834635
 30
0.0
  0
SPLINE
  5
153
100
AcDbEntity
  8
Layer_1
 62
1
100
AcDbSpline
 70
8
 71
3
 72
8
 73
4
 74
0
 40
0
 40
0
 40
0
 40
0
 40
1
 40
1
 40
1
 40
1
 10
37.385770
 20
22.834635
 30
0.0
 10
37.385770
 20
18.163942
 30
0.0
 10
33.599518
 20
14.377691
 30
0.0
 10
28.928824
 20
14.377691
 30
0.0
  0
SPLINE
  5
154
100
AcDbEntity
  8
Layer_1
 62
1
100
AcDbSpline
 70
8
 71
3
 72
8
 73
4
 74
0
 40
0
 40
0
 40
0
 40
0
 40
1
 40
1
 40
1
 40
1
 10
28.928824
 20
14.377691
 30
0.0
 10
24.258131
 20
14.377691
 30
0.0
 10
20.471880
 20
18.163942
 30
0.0
 10
20.471880
 20
22.834635
 30
0.0
  0
SPLINE
  5
155
100
AcDbEntity
  8
Layer_1
 62
1
100
AcDbSpline
 70
8
 71
3
 72
8
 73
4
 74
0
 40
0
 40
0
 40
0
 40
0
 40
1
 40
1
 40
1
 40
1
 10
20.471880
 20
22.834635
 30
0.0
 10
20.471880
 20
27.505329
 30
0.0
 10
24.258131
 20
31.291579
 30
0.0
 10
28.928824
 20
31.291579
 30
0.0
  0
LWPOLYLINE
  5
156
100
AcDbEntity
  8
Layer_1
 62
1
100
AcDbPolyline
 90
2
 70
1
 10
12.819797
 20
32.368663
 30
0.0
 10
12.819797
 20
32.368663
 30
0.0
  0
SPLINE
  5
157
100
AcDbEntity
  8
Layer_1
 62
1
100
AcDbSpline
 70
8
 71
3
 72
8
 73
4
 74
0
 40
0
 40
0
 40
0
 40
0
 40
1
 40
1
 40
1
 40
1
 10
11.188894
 20
29.407205
 30
0.0
 10
11.755649
 20
29.398795
 30
0.0
 10
13.009987
 20
29.385474
 30
0.0
 10
14.462853
 20
29.385676
 30
0.0
  0
SPLINE
  5
158
100
AcDbEntity
  8
Layer_1
 62
1
100
AcDbSpline
 70
8
 71
3
 72
8
 73
4
 74
0
 40
0
 40
0
 40
0
 40
0
 40
1
 40
1
 40
1
 40
1
 10
14.462853
 20
29.385676
 30
0.0
 10
15.092527
 20
28.257253
 30
0.0
 10
15.709302
 20
27.120715
 30
0.0
 10
16.340630
 20
25.992274
 30
0.0
  0
SPLINE
  5
159
100
AcDbEntity
  8
Layer_1
 62
1
100
AcDbSpline
 70
8
 71
3
 72
8
 73
4
 74
0
 40
0
 40
0
 40
0
 40
0
 40
1
 40
1
 40
1
 40
1
 10
16.340630
 20
25.992274
 30
0.0
 10
16.351400
 20
25.972888
 30
0.0
 10
16.368102
 20
25.946171
 30
0.0
 10
16.377436
 20
25.933246
 30
0.0
  0
SPLINE
  5
15a
100
AcDbEntity
  8
Layer_1
 62
1
100
AcDbSpline
 70
8
 71
3
 72
8
 73
4
 74
0
 40
0
 40
0
 40
0
 40
0
 40
1
 40
1
 40
1
 40
1
 10
16.377436
 20
25.933246
 30
0.0
 10
16.379954
 20
25.929853
 30
0.0
 10
16.384389
 20
25.922742
 30
0.0
 10
16.390283
 20
25.912761
 30
0.0
  0
SPLINE
  5
15b
100
AcDbEntity
  8
Layer_1
 62
1
100
AcDbSpline
 70
8
 71
3
 72
8
 73
4
 74
0
 40
0
 40
0
 40
0
 40
0
 40
1
 40
1
 40
1
 40
1
 10
16.390283
 20
25.912761
 30
0.0
 10
16.372452
 20
25.901739
 30
0.0
 10
16.354413
 20
25.890590
 30
0.0
 10
16.337853
 20
25.880469
 30
0.0
  0
SPLINE
  5
15c
100
AcDbEntity
  8
Layer_1
 62
1
100
AcDbSpline
 70
8
 71
3
 72
8
 73
4
 74
0
 40
0
 40
0
 40
0
 40
0
 40
1
 40
1
 40
1
 40
1
 10
16.337853
 20
25.880469
 30
0.0
 10
15.026609
 20
25.112413
 30
0.0
 10
13.926836
 20
24.451530
 30
0.0
 10
12.848616
 20
23.770052
 30
0.0
  0
SPLINE
  5
15d
100
AcDbEntity
  8
Layer_1
 62
1
100
AcDbSpline
 70
8
 71
3
 72
8
 73
4
 74
0
 40
0
 40
0
 40
0
 40
0
 40
1
 40
1
 40
1
 40
1
 10
12.848616
 20
23.770052
 30
0.0
 10
12.839282
 20
23.761436
 30
0.0
 10
12.826235
 20
23.757136
 30
0.0
 10
12.820492
 20
23.759287
 30
0.0
  0
SPLINE
  5
15e
100
AcDbEntity
  8
Layer_1
 62
1
100
AcDbSpline
 70
8
 71
3
 72
8
 73
4
 74
0
 40
0
 40
0
 40
0
 40
0
 40
1
 40
1
 40
1
 40
1
 10
12.820492
 20
23.759287
 30
0.0
 10
12.816867
 20
23.760647
 30
0.0
 10
12.812099
 20
23.759660
 30
0.0
 10
12.807992
 20
23.757552
 30
0.0
  0
SPLINE
  5
15f
100
AcDbEntity
  8
Layer_1
 62
1
100
AcDbSpline
 70
8
 71
3
 72
8
 73
4
 74
0
 40
0
 40
0
 40
0
 40
0
 40
1
 40
1
 40
1
 40
1
 10
12.807992
 20
23.757552
 30
0.0
 10
11.633172
 20
24.470189
 30
0.0
 10
10.435803
 20
25.188472
 30
0.0
 10
9.250700
 20
25.897483
 30
0.0
  0
SPLINE
  5
160
100
AcDbEntity
  8
Layer_1
 62
1
100
AcDbSpline
 70
8
 71
3
 72
8
 73
4
 74
0
 40
0
 40
0
 40
0
 40
0
 40
1
 40
1
 40
1
 40
1
 10
9.250700
 20
25.897483
 30
0.0
 10
9.873757
 20
27.036171
 30
0.0
 10
10.539258
 20
28.235122
 30
0.0
 10
11.188894
 20
29.407205
 30
0.0
  0
LWPOLYLINE
  5
161
100
AcDbEntity
  8
Layer_1
 62
1
100
AcDbPolyline
 90
2
 70
1
 10
28.928824
 20
31.291579
 30
0.0
 10
28.928824
 20
31.291579
 30
0.0
  0
SPLINE
  5
162
100
AcDbEntity
  8
Layer_1
 62
1
100
AcDbSpline
 70
8
 71
3
 72
8
 73
4
 74
0
 40
0
 40
0
 40
0
 40
0
 40
1
 40
1
 40
1
 40
1
 10
46.637851
 20
29.406510
 30
0.0
 10
47.308553
 20
28.272332
 30
0.0
 10
48.016907
 20
26.894234
 30
0.0
 10
48.563197
 20
25.944009
 30
0.0
  0
SPLINE
  5
163
100
AcDbEntity
  8
Layer_1
 62
1
100
AcDbSpline
 70
8
 71
3
 72
8
 73
4
 74
0
 40
0
 40
0
 40
0
 40
0
 40
1
 40
1
 40
1
 40
1
 10
48.563197
 20
25.944009
 30
0.0
 10
47.336699
 20
25.212454
 30
0.0
 10
46.067358
 20
24.427918
 30
0.0
 10
45.032994
 20
23.825954
 30
0.0
  0
SPLINE
  5
164
100
AcDbEntity
  8
Layer_1
 62
1
100
AcDbSpline
 70
8
 71
3
 72
8
 73
4
 74
0
 40
0
 40
0
 40
0
 40
0
 40
1
 40
1
 40
1
 40
1
 10
45.032994
 20
23.825954
 30
0.0
 10
45.018635
 20
23.814466
 30
0.0
 10
44.999249
 20
23.803778
 30
0.0
 10
44.990633
 20
23.802343
 30
0.0
  0
SPLINE
  5
165
100
AcDbEntity
  8
Layer_1
 62
1
100
AcDbSpline
 70
8
 71
3
 72
8
 73
4
 74
0
 40
0
 40
0
 40
0
 40
0
 40
1
 40
1
 40
1
 40
1
 10
44.990633
 20
23.802343
 30
0.0
 10
44.986253
 20
23.801244
 30
0.0
 10
44.980165
 20
23.798473
 30
0.0
 10
44.973961
 20
23.794705
 30
0.0
  0
SPLINE
  5
166
100
AcDbEntity
  8
Layer_1
 62
1
100
AcDbSpline
 70
8
 71
3
 72
8
 73
4
 74
0
 40
0
 40
0
 40
0
 40
0
 40
1
 40
1
 40
1
 40
1
 10
44.973961
 20
23.794705
 30
0.0
 10
43.760610
 20
24.517394
 30
0.0
 10
42.558035
 20
25.233635
 30
0.0
 10
41.407644
 20
25.920747
 30
0.0
  0
SPLINE
  5
167
100
AcDbEntity
  8
Layer_1
 62
1
100
AcDbSpline
 70
8
 71
3
 72
8
 73
4
 74
0
 40
0
 40
0
 40
0
 40
0
 40
1
 40
1
 40
1
 40
1
 10
41.407644
 20
25.920747
 30
0.0
 10
41.442108
 20
25.990468
 30
0.0
 10
41.462671
 20
26.033437
 30
0.0
 10
41.463202
 20
26.033246
 30
0.0
  0
SPLINE
  5
168
100
AcDbEntity
  8
Layer_1
 62
1
100
AcDbSpline
 70
8
 71
3
 72
8
 73
4
 74
0
 40
0
 40
0
 40
0
 40
0
 40
1
 40
1
 40
1
 40
1
 10
41.463202
 20
26.033246
 30
0.0
 10
41.470253
 20
26.031835
 30
0.0
 10
43.257902
 20
29.255532
 30
0.0
 10
43.330908
 20
29.401996
 30
0.0
  0
SPLINE
  5
169
100
AcDbEntity
  8
Layer_1
 62
1
100
AcDbSpline
 70
8
 71
3
 72
8
 73
4
 74
0
 40
0
 40
0
 40
0
 40
0
 40
1
 40
1
 40
1
 40
1
 10
43.330908
 20
29.401996
 30
0.0
 10
44.594217
 20
29.402985
 30
0.0
 10
45.953622
 20
29.406008
 30
0.0
 10
46.637851
 20
29.406510
 30
0.0
  0
LWPOLYLINE
  5
16a
100
AcDbEntity
  8
Layer_1
 62
1
100
AcDbPolyline
 90
2
 70
1
 10
11.188894
 20
29.407205
 30
0.0
 10
11.188894
 20
29.407205
 30
0.0
  0
SPLINE
  5
16b
100
AcDbEntity
  8
Layer_1
 62
1
100
AcDbSpline
 70
8
 71
3
 72
8
 73
4
 74
0
 40
0
 40
0
 40
0
 40
0
 40
1
 40
1
 40
1
 40
1
 10
40.608343
 20
29.404427
 30
0.0
 10
40.912368
 20
29.404348
 30
0.0
 10
41.216702
 20
29.403959
 30
0.0
 10
41.526048
 20
29.403039
 30
0.0
  0
SPLINE
  5
16c
100
AcDbEntity
  8
Layer_1
 62
1
100
AcDbSpline
 70
8
 71
3
 72
8
 73
4
 74
0
 40
0
 40
0
 40
0
 40
0
 40
1
 40
1
 40
1
 40
1
 10
41.526048
 20
29.403039
 30
0.0
 10
40.885163
 20
28.243064
 30
0.0
 10
40.129867
 20
26.875771
 30
0.0
 10
40.121883
 20
26.860330
 30
0.0
  0
LWPOLYLINE
  5
16d
100
AcDbEntity
  8
Layer_1
 62
1
100
AcDbPolyline
 90
2
 70
1
 10
46.637851
 20
29.406510
 30
0.0
 10
46.637851
 20
29.406510
 30
0.0
  0
SPLINE
  5
16e
100
AcDbEntity
  8
Layer_1
 62
1
100
AcDbSpline
 70
8
 71
3
 72
8
 73
4
 74
0
 40
0
 40
0
 40
0
 40
0
 40
1
 40
1
 40
1
 40
1
 10
40.053129
 20
26.731858
 30
0.0
 10
39.092718
 20
27.388845
 30
0.0
 10
37.933804
 20
28.298134
 30
0.0
 10
37.746883
 20
29.197135
 30
0.0
  0
SPLINE
  5
16f
100
AcDbEntity
  8
Layer_1
 62
1
100
AcDbSpline
 70
8
 71
3
 72
8
 73
4
 74
0
 40
0
 40
0
 40
0
 40
0
 40
1
 40
1
 40
1
 40
1
 10
37.746883
 20
29.197135
 30
0.0
 10
37.743293
 20
29.222983
 30
0.0
 10
37.738209
 20
29.251690
 30
0.0
 10
37.736120
 20
29.261024
 30
0.0
  0
LWPOLYLINE
  5
170
100
AcDbEntity
  8
Layer_1
 62
1
100
AcDbPolyline
 90
3
 70
1
 10
40.121883
 20
26.860330
 30
0.0
 10
40.110424
 20
26.838802
 30
0.0
 10
40.053129
 20
26.731858
 30
0.0
  0
SPLINE
  5
171
100
AcDbEntity
  8
Layer_1
 62
1
100
AcDbSpline
 70
8
 71
3
 72
8
 73
4
 74
0
 40
0
 40
0
 40
0
 40
0
 40
1
 40
1
 40
1
 40
1
 10
37.733341
 20
29.399565
 30
0.0
 10
38.784743
 20
29.401733
 30
0.0
 10
39.696216
 20
29.404664
 30
0.0
 10
40.608343
 20
29.404427
 30
0.0
  0
LWPOLYLINE
  5
172
100
AcDbEntity
  8
Layer_1
 62
1
100
AcDbPolyline
 90
3
 70
1
 10
37.736120
 20
29.261024
 30
0.0
 10
37.733341
 20
29.276997
 30
0.0
 10
37.733341
 20
29.399565
 30
0.0
  0
SPLINE
  5
173
100
AcDbEntity
  8
Layer_1
 62
1
100
AcDbSpline
 70
8
 71
3
 72
8
 73
4
 74
0
 40
0
 40
0
 40
0
 40
0
 40
1
 40
1
 40
1
 40
1
 10
20.058686
 20
29.397135
 30
0.0
 10
20.052654
 20
29.115060
 30
0.0
 10
20.040756
 20
29.130607
 30
0.0
 10
20.017713
 20
29.046441
 30
0.0
  0
SPLINE
  5
174
100
AcDbEntity
  8
Layer_1
 62
1
100
AcDbSpline
 70
8
 71
3
 72
8
 73
4
 74
0
 40
0
 40
0
 40
0
 40
0
 40
1
 40
1
 40
1
 40
1
 10
20.017713
 20
29.046441
 30
0.0
 10
19.962428
 20
28.846122
 30
0.0
 10
19.849018
 20
28.606420
 30
0.0
 10
19.709728
 20
28.397483
 30
0.0
  0
SPLINE
  5
175
100
AcDbEntity
  8
Layer_1
 62
1
100
AcDbSpline
 70
8
 71
3
 72
8
 73
4
 74
0
 40
0
 40
0
 40
0
 40
0
 40
1
 40
1
 40
1
 40
1
 10
19.709728
 20
28.397483
 30
0.0
 10
19.489920
 20
28.067772
 30
0.0
 10
18.568055
 20
27.377389
 30
0.0
 10
17.706950
 20
26.781858
 30
0.0
  0
SPLINE
  5
176
100
AcDbEntity
  8
Layer_1
 62
1
100
AcDbSpline
 70
8
 71
3
 72
8
 73
4
 74
0
 40
0
 40
0
 40
0
 40
0
 40
1
 40
1
 40
1
 40
1
 10
17.706950
 20
26.781858
 30
0.0
 10
17.703898
 20
26.787652
 30
0.0
 10
17.701131
 20
26.792987
 30
0.0
 10
17.697922
 20
26.799219
 30
0.0
  0
SPLINE
  5
177
100
AcDbEntity
  8
Layer_1
 62
1
100
AcDbSpline
 70
8
 71
3
 72
8
 73
4
 74
0
 40
0
 40
0
 40
0
 40
0
 40
1
 40
1
 40
1
 40
1
 10
17.697922
 20
26.799219
 30
0.0
 10
17.136184
 20
27.826162
 30
0.0
 10
16.762982
 20
28.497661
 30
0.0
 10
16.274658
 20
29.386372
 30
0.0
  0
LWPOLYLINE
  5
178
100
AcDbEntity
  8
Layer_1
 62
1
100
AcDbPolyline
 90
2
 70
1
 10
40.608343
 20
29.404427
 30
0.0
 10
40.608343
 20
29.404427
 30
0.0
  0
SPLINE
  5
179
100
AcDbEntity
  8
Layer_1
 62
1
100
AcDbSpline
 70
8
 71
3
 72
8
 73
4
 74
0
 40
0
 40
0
 40
0
 40
0
 40
1
 40
1
 40
1
 40
1
 10
49.340980
 20
24.509287
 30
0.0
 10
49.621369
 20
23.963161
 30
0.0
 10
50.139068
 20
23.262766
 30
0.0
 10
50.039591
 20
22.684287
 30
0.0
  0
SPLINE
  5
17a
100
AcDbEntity
  8
Layer_1
 62
1
100
AcDbSpline
 70
8
 71
3
 72
8
 73
4
 74
0
 40
0
 40
0
 40
0
 40
0
 40
1
 40
1
 40
1
 40
1
 10
50.039591
 20
22.684287
 30
0.0
 10
49.863655
 20
22.023077
 30
0.0
 10
49.617305
 20
21.688250
 30
0.0
 10
49.341325
 20
21.190191
 30
0.0
  0
SPLINE
  5
17b
100
AcDbEntity
  8
Layer_1
 62
1
100
AcDbSpline
 70
8
 71
3
 72
8
 73
4
 74
0
 40
0
 40
0
 40
0
 40
0
 40
1
 40
1
 40
1
 40
1
 10
49.341325
 20
21.190191
 30
0.0
 10
48.436852
 20
21.731076
 30
0.0
 10
47.506912
 20
22.285480
 30
0.0
 10
46.572571
 20
22.842274
 30
0.0
  0
SPLINE
  5
17c
100
AcDbEntity
  8
Layer_1
 62
1
100
AcDbSpline
 70
8
 71
3
 72
8
 73
4
 74
0
 40
0
 40
0
 40
0
 40
0
 40
1
 40
1
 40
1
 40
1
 10
46.572571
 20
22.842274
 30
0.0
 10
47.377251
 20
23.337733
 30
0.0
 10
48.495289
 20
23.975482
 30
0.0
 10
49.340980
 20
24.509287
 30
0.0
  0
LWPOLYLINE
  5
17d
100
AcDbEntity
  8
Layer_1
 62
1
100
AcDbPolyline
 90
2
 70
1
 10
16.274658
 20
29.386372
 30
0.0
 10
20.058686
 20
29.397135
 30
0.0
  0
SPLINE
  5
17e
100
AcDbEntity
  8
Layer_1
 62
1
100
AcDbSpline
 70
8
 71
3
 72
8
 73
4
 74
0
 40
0
 40
0
 40
0
 40
0
 40
1
 40
1
 40
1
 40
1
 10
40.608343
 20
24.488107
 30
0.0
 10
41.554423
 20
23.925120
 30
0.0
 10
42.480823
 20
23.368566
 30
0.0
 10
43.376744
 20
22.832899
 30
0.0
  0
SPLINE
  5
17f
100
AcDbEntity
  8
Layer_1
 62
1
100
AcDbSpline
 70
8
 71
3
 72
8
 73
4
 74
0
 40
0
 40
0
 40
0
 40
0
 40
1
 40
1
 40
1
 40
1
 10
43.376744
 20
22.832899
 30
0.0
 10
43.372975
 20
22.827811
 30
0.0
 10
43.371948
 20
22.822460
 30
0.0
 10
43.376744
 20
22.820746
 30
0.0
  0
SPLINE
  5
180
100
AcDbEntity
  8
Layer_1
 62
1
100
AcDbSpline
 70
8
 71
3
 72
8
 73
4
 74
0
 40
0
 40
0
 40
0
 40
0
 40
1
 40
1
 40
1
 40
1
 10
43.376744
 20
22.820746
 30
0.0
 10
43.381052
 20
22.819310
 30
0.0
 10
43.362348
 20
22.805638
 30
0.0
 10
43.335072
 20
22.789843
 30
0.0
  0
SPLINE
  5
181
100
AcDbEntity
  8
Layer_1
 62
1
100
AcDbSpline
 70
8
 71
3
 72
8
 73
4
 74
0
 40
0
 40
0
 40
0
 40
0
 40
1
 40
1
 40
1
 40
1
 10
43.335072
 20
22.789843
 30
0.0
 10
42.469550
 20
22.267153
 30
0.0
 10
41.439918
 20
21.656625
 30
0.0
 10
40.628827
 20
21.169010
 30
0.0
  0
SPLINE
  5
182
100
AcDbEntity
  8
Layer_1
 62
1
100
AcDbSpline
 70
8
 71
3
 72
8
 73
4
 74
0
 40
0
 40
0
 40
0
 40
0
 40
1
 40
1
 40
1
 40
1
 10
40.628827
 20
21.169010
 30
0.0
 10
40.363013
 20
21.649938
 30
0.0
 10
40.076255
 20
22.141727
 30
0.0
 10
39.937504
 20
22.661372
 30
0.0
  0
SPLINE
  5
183
100
AcDbEntity
  8
Layer_1
 62
1
100
AcDbSpline
 70
8
 71
3
 72
8
 73
4
 74
0
 40
0
 40
0
 40
0
 40
0
 40
1
 40
1
 40
1
 40
1
 10
39.937504
 20
22.661372
 30
0.0
 10
39.929606
 20
22.703015
 30
0.0
 10
39.923266
 20
22.754762
 30
0.0
 10
39.923266
 20
22.776302
 30
0.0
  0
SPLINE
  5
184
100
AcDbEntity
  8
Layer_1
 62
1
100
AcDbSpline
 70
8
 71
3
 72
8
 73
4
 74
0
 40
0
 40
0
 40
0
 40
0
 40
1
 40
1
 40
1
 40
1
 10
39.923266
 20
22.776302
 30
0.0
 10
39.923266
 20
22.797124
 30
0.0
 10
39.920286
 20
22.815191
 30
0.0
 10
39.915978
 20
22.815191
 30
0.0
  0
SPLINE
  5
185
100
AcDbEntity
  8
Layer_1
 62
1
100
AcDbSpline
 70
8
 71
3
 72
8
 73
4
 74
0
 40
0
 40
0
 40
0
 40
0
 40
1
 40
1
 40
1
 40
1
 10
39.915978
 20
22.815191
 30
0.0
 10
39.904491
 20
22.815191
 30
0.0
 10
39.908188
 20
22.895541
 30
0.0
 10
39.923266
 20
22.975954
 30
0.0
  0
SPLINE
  5
186
100
AcDbEntity
  8
Layer_1
 62
1
100
AcDbSpline
 70
8
 71
3
 72
8
 73
4
 74
0
 40
0
 40
0
 40
0
 40
0
 40
1
 40
1
 40
1
 40
1
 10
39.923266
 20
22.975954
 30
0.0
 10
39.962619
 20
23.566829
 30
0.0
 10
40.262013
 20
23.956385
 30
0.0
 10
40.539243
 20
24.373872
 30
0.0
  0
SPLINE
  5
187
100
AcDbEntity
  8
Layer_1
 62
1
100
AcDbSpline
 70
8
 71
3
 72
8
 73
4
 74
0
 40
0
 40
0
 40
0
 40
0
 40
1
 40
1
 40
1
 40
1
 10
40.539243
 20
24.373872
 30
0.0
 10
40.539128
 20
24.373983
 30
0.0
 10
40.532566
 20
24.377870
 30
0.0
 10
40.532300
 20
24.378038
 30
0.0
  0
SPLINE
  5
188
100
AcDbEntity
  8
Layer_1
 62
1
100
AcDbSpline
 70
8
 71
3
 72
8
 73
4
 74
0
 40
0
 40
0
 40
0
 40
0
 40
1
 40
1
 40
1
 40
1
 10
40.532300
 20
24.378038
 30
0.0
 10
40.557509
 20
24.413411
 30
0.0
 10
40.582825
 20
24.450058
 30
0.0
 10
40.608343
 20
24.488107
 30
0.0
  0
LWPOLYLINE
  5
189
100
AcDbEntity
  8
Layer_1
 62
1
100
AcDbPolyline
 90
2
 70
1
 10
49.340980
 20
24.509287
 30
0.0
 10
49.340980
 20
24.509287
 30
0.0
  0
SPLINE
  5
18a
100
AcDbEntity
  8
Layer_1
 62
1
100
AcDbSpline
 70
8
 71
3
 72
8
 73
4
 74
0
 40
0
 40
0
 40
0
 40
0
 40
1
 40
1
 40
1
 40
1
 10
8.455561
 20
24.463108
 30
0.0
 10
9.070023
 20
24.099043
 30
0.0
 10
10.752653
 20
23.088199
 30
0.0
 10
11.014241
 20
22.924913
 30
0.0
  0
LWPOLYLINE
  5
18b
100
AcDbEntity
  8
Layer_1
 62
1
100
AcDbPolyline
 90
2
 70
1
 10
40.608343
 20
24.488107
 30
0.0
 10
40.608343
 20
24.488107
 30
0.0
  0
SPLINE
  5
18c
100
AcDbEntity
  8
Layer_1
 62
1
100
AcDbSpline
 70
8
 71
3
 72
8
 73
4
 74
0
 40
0
 40
0
 40
0
 40
0
 40
1
 40
1
 40
1
 40
1
 10
11.220838
 20
22.795052
 30
0.0
 10
11.218853
 20
22.792389
 30
0.0
 10
11.217654
 20
22.790033
 30
0.0
 10
11.217366
 20
22.788454
 30
0.0
  0
SPLINE
  5
18d
100
AcDbEntity
  8
Layer_1
 62
1
100
AcDbSpline
 70
8
 71
3
 72
8
 73
4
 74
0
 40
0
 40
0
 40
0
 40
0
 40
1
 40
1
 40
1
 40
1
 10
11.217366
 20
22.788454
 30
0.0
 10
11.215930
 20
22.781275
 30
0.0
 10
11.175498
 20
22.756952
 30
0.0
 10
11.160422
 20
22.754080
 30
0.0
  0
SPLINE
  5
18e
100
AcDbEntity
  8
Layer_1
 62
1
100
AcDbSpline
 70
8
 71
3
 72
8
 73
4
 74
0
 40
0
 40
0
 40
0
 40
0
 40
1
 40
1
 40
1
 40
1
 10
11.160422
 20
22.754080
 30
0.0
 10
11.149294
 20
22.751607
 30
0.0
 10
9.079948
 20
21.495984
 30
0.0
 10
8.493061
 20
21.136372
 30
0.0
  0
LWPOLYLINE
  5
18f
100
AcDbEntity
  8
Layer_1
 62
1
100
AcDbPolyline
 90
3
 70
1
 10
11.014241
 20
22.924913
 30
0.0
 10
11.007991
 20
22.922135
 30
0.0
 10
11.220838
 20
22.795052
 30
0.0
  0
SPLINE
  5
190
100
AcDbEntity
  8
Layer_1
 62
1
100
AcDbSpline
 70
8
 71
3
 72
8
 73
4
 74
0
 40
0
 40
0
 40
0
 40
0
 40
1
 40
1
 40
1
 40
1
 10
7.945839
 20
22.133246
 30
0.0
 10
7.680925
 20
22.673955
 30
0.0
 10
7.744241
 20
23.127090
 30
0.0
 10
7.979519
 20
23.555816
 30
0.0
  0
LWPOLYLINE
  5
191
100
AcDbEntity
  8
Layer_1
 62
1
100
AcDbPolyline
 90
2
 70
1
 10
8.493061
 20
21.136372
 30
0.0
 10
7.945839
 20
22.133246
 30
0.0
  0
SPLINE
  5
192
100
AcDbEntity
  8
Layer_1
 62
1
100
AcDbSpline
 70
8
 71
3
 72
8
 73
4
 74
0
 40
0
 40
0
 40
0
 40
0
 40
1
 40
1
 40
1
 40
1
 10
8.295839
 20
24.181510
 30
0.0
 10
8.295839
 20
24.181510
 30
0.0
 10
8.297214
 20
24.180817
 30
0.0
 10
8.297228
 20
24.180817
 30
0.0
  0
SPLINE
  5
193
100
AcDbEntity
  8
Layer_1
 62
1
100
AcDbSpline
 70
8
 71
3
 72
8
 73
4
 74
0
 40
0
 40
0
 40
0
 40
0
 40
1
 40
1
 40
1
 40
1
 10
8.297228
 20
24.180817
 30
0.0
 10
8.298018
 20
24.180817
 30
0.0
 10
8.361245
 20
24.293556
 30
0.0
 10
8.455561
 20
24.463108
 30
0.0
  0
LWPOLYLINE
  5
194
100
AcDbEntity
  8
Layer_1
 62
1
100
AcDbPolyline
 90
2
 70
1
 10
7.979519
 20
23.555816
 30
0.0
 10
8.295839
 20
24.181510
 30
0.0
  0
SPLINE
  5
195
100
AcDbEntity
  8
Layer_1
 62
1
100
AcDbSpline
 70
8
 71
3
 72
8
 73
4
 74
0
 40
0
 40
0
 40
0
 40
0
 40
1
 40
1
 40
1
 40
1
 10
17.176741
 20
24.463108
 30
0.0
 10
17.457676
 20
23.917324
 30
0.0
 10
17.975062
 20
23.231140
 30
0.0
 10
17.873617
 20
22.641232
 30
0.0
  0
SPLINE
  5
196
100
AcDbEntity
  8
Layer_1
 62
1
100
AcDbSpline
 70
8
 71
3
 72
8
 73
4
 74
0
 40
0
 40
0
 40
0
 40
0
 40
1
 40
1
 40
1
 40
1
 10
17.873617
 20
22.641232
 30
0.0
 10
17.689664
 20
22.003553
 30
0.0
 10
17.461607
 20
21.637653
 30
0.0
 10
17.185074
 20
21.141232
 30
0.0
  0
SPLINE
  5
197
100
AcDbEntity
  8
Layer_1
 62
1
100
AcDbSpline
 70
8
 71
3
 72
8
 73
4
 74
0
 40
0
 40
0
 40
0
 40
0
 40
1
 40
1
 40
1
 40
1
 10
17.185074
 20
21.141232
 30
0.0
 10
16.219146
 20
21.723213
 30
0.0
 10
15.316390
 20
22.263516
 30
0.0
 10
14.411811
 20
22.803038
 30
0.0
  0
SPLINE
  5
198
100
AcDbEntity
  8
Layer_1
 62
1
100
AcDbSpline
 70
8
 71
3
 72
8
 73
4
 74
0
 40
0
 40
0
 40
0
 40
0
 40
1
 40
1
 40
1
 40
1
 10
14.411811
 20
22.803038
 30
0.0
 10
14.442387
 20
22.824123
 30
0.0
 10
14.480359
 20
22.845532
 30
0.0
 10
14.492714
 20
22.847483
 30
0.0
  0
SPLINE
  5
199
100
AcDbEntity
  8
Layer_1
 62
1
100
AcDbSpline
 70
8
 71
3
 72
8
 73
4
 74
0
 40
0
 40
0
 40
0
 40
0
 40
1
 40
1
 40
1
 40
1
 10
14.492714
 20
22.847483
 30
0.0
 10
14.505638
 20
22.850355
 30
0.0
 10
17.053750
 20
24.377267
 30
0.0
 10
17.066672
 20
24.390191
 30
0.0
  0
SPLINE
  5
19a
100
AcDbEntity
  8
Layer_1
 62
1
100
AcDbSpline
 70
8
 71
3
 72
8
 73
4
 74
0
 40
0
 40
0
 40
0
 40
0
 40
1
 40
1
 40
1
 40
1
 10
17.066672
 20
24.390191
 30
0.0
 10
17.067728
 20
24.391246
 30
0.0
 10
17.067774
 20
24.394372
 30
0.0
 10
17.067019
 20
24.398176
 30
0.0
  0
SPLINE
  5
19b
100
AcDbEntity
  8
Layer_1
 62
1
100
AcDbSpline
 70
8
 71
3
 72
8
 73
4
 74
0
 40
0
 40
0
 40
0
 40
0
 40
1
 40
1
 40
1
 40
1
 10
17.067019
 20
24.398176
 30
0.0
 10
17.085678
 20
24.409157
 30
0.0
 10
17.132324
 20
24.436744
 30
0.0
 10
17.176741
 20
24.463108
 30
0.0
  0
LWPOLYLINE
  5
19c
100
AcDbEntity
  8
Layer_1
 62
1
100
AcDbPolyline
 90
2
 70
1
 10
8.455561
 20
24.463108
 30
0.0
 10
8.455561
 20
24.463108
 30
0.0
  0
SPLINE
  5
19d
100
AcDbEntity
  8
Layer_1
 62
1
100
AcDbSpline
 70
8
 71
3
 72
8
 73
4
 74
0
 40
0
 40
0
 40
0
 40
0
 40
1
 40
1
 40
1
 40
1
 10
44.985076
 20
21.872135
 30
0.0
 10
46.171359
 20
21.163679
 30
0.0
 10
47.358131
 20
20.455079
 30
0.0
 10
48.544450
 20
19.745746
 30
0.0
  0
SPLINE
  5
19e
100
AcDbEntity
  8
Layer_1
 62
1
100
AcDbSpline
 70
8
 71
3
 72
8
 73
4
 74
0
 40
0
 40
0
 40
0
 40
0
 40
1
 40
1
 40
1
 40
1
 10
48.544450
 20
19.745746
 30
0.0
 10
47.704690
 20
18.220357
 30
0.0
 10
46.634003
 20
16.270081
 30
0.0
 10
46.630563
 20
16.254775
 30
0.0
  0
SPLINE
  5
19f
100
AcDbEntity
  8
Layer_1
 62
1
100
AcDbSpline
 70
8
 71
3
 72
8
 73
4
 74
0
 40
0
 40
0
 40
0
 40
0
 40
1
 40
1
 40
1
 40
1
 10
46.630563
 20
16.254775
 30
0.0
 10
46.630384
 20
16.253963
 30
0.0
 10
46.626973
 20
16.247591
 30
0.0
 10
46.620842
 20
16.236024
 30
0.0
  0
SPLINE
  5
1a0
100
AcDbEntity
  8
Layer_1
 62
1
100
AcDbSpline
 70
8
 71
3
 72
8
 73
4
 74
0
 40
0
 40
0
 40
0
 40
0
 40
1
 40
1
 40
1
 40
1
 10
46.620842
 20
16.236024
 30
0.0
 10
45.549580
 20
16.230016
 30
0.0
 10
44.448903
 20
16.231589
 30
0.0
 10
43.351744
 20
16.232206
 30
0.0
  0
SPLINE
  5
1a1
100
AcDbEntity
  8
Layer_1
 62
1
100
AcDbSpline
 70
8
 71
3
 72
8
 73
4
 74
0
 40
0
 40
0
 40
0
 40
0
 40
1
 40
1
 40
1
 40
1
 10
43.351744
 20
16.232206
 30
0.0
 10
42.527478
 20
17.722480
 30
0.0
 10
41.529408
 20
19.526218
 30
0.0
 10
41.470490
 20
19.630816
 30
0.0
  0
SPLINE
  5
1a2
100
AcDbEntity
  8
Layer_1
 62
1
100
AcDbSpline
 70
8
 71
3
 72
8
 73
4
 74
0
 40
0
 40
0
 40
0
 40
0
 40
1
 40
1
 40
1
 40
1
 10
41.470490
 20
19.630816
 30
0.0
 10
41.459720
 20
19.650920
 30
0.0
 10
41.443019
 20
19.676612
 30
0.0
 10
41.433686
 20
19.689496
 30
0.0
  0
SPLINE
  5
1a3
100
AcDbEntity
  8
Layer_1
 62
1
100
AcDbSpline
 70
8
 71
3
 72
8
 73
4
 74
0
 40
0
 40
0
 40
0
 40
0
 40
1
 40
1
 40
1
 40
1
 10
41.433686
 20
19.689496
 30
0.0
 10
41.430605
 20
19.693649
 30
0.0
 10
41.424890
 20
19.703512
 30
0.0
 10
41.416325
 20
19.718316
 30
0.0
  0
SPLINE
  5
1a4
100
AcDbEntity
  8
Layer_1
 62
1
100
AcDbSpline
 70
8
 71
3
 72
8
 73
4
 74
0
 40
0
 40
0
 40
0
 40
0
 40
1
 40
1
 40
1
 40
1
 10
41.416325
 20
19.718316
 30
0.0
 10
41.458715
 20
19.744936
 30
0.0
 10
41.498254
 20
19.769890
 30
0.0
 10
41.534728
 20
19.792274
 30
0.0
  0
SPLINE
  5
1a5
100
AcDbEntity
  8
Layer_1
 62
1
100
AcDbSpline
 70
8
 71
3
 72
8
 73
4
 74
0
 40
0
 40
0
 40
0
 40
0
 40
1
 40
1
 40
1
 40
1
 10
41.534728
 20
19.792274
 30
0.0
 10
42.713207
 20
20.518338
 30
0.0
 10
43.887356
 20
20.938434
 30
0.0
 10
44.968411
 20
21.858594
 30
0.0
  0
SPLINE
  5
1a6
100
AcDbEntity
  8
Layer_1
 62
1
100
AcDbSpline
 70
8
 71
3
 72
8
 73
4
 74
0
 40
0
 40
0
 40
0
 40
0
 40
1
 40
1
 40
1
 40
1
 10
44.968411
 20
21.858594
 30
0.0
 10
44.972856
 20
21.862544
 30
0.0
 10
44.978793
 20
21.867387
 30
0.0
 10
44.985076
 20
21.872135
 30
0.0
  0
LWPOLYLINE
  5
1a7
100
AcDbEntity
  8
Layer_1
 62
1
100
AcDbPolyline
 90
2
 70
1
 10
17.176741
 20
24.463108
 30
0.0
 10
17.176741
 20
24.463108
 30
0.0
  0
SPLINE
  5
1a8
100
AcDbEntity
  8
Layer_1
 62
1
100
AcDbSpline
 70
8
 71
3
 72
8
 73
4
 74
0
 40
0
 40
0
 40
0
 40
0
 40
1
 40
1
 40
1
 40
1
 10
12.819797
 20
21.841580
 30
0.0
 10
14.261665
 20
20.974399
 30
0.0
 10
15.413256
 20
20.280538
 30
0.0
 10
16.385075
 20
19.698524
 30
0.0
  0
SPLINE
  5
1a9
100
AcDbEntity
  8
Layer_1
 62
1
100
AcDbSpline
 70
8
 71
3
 72
8
 73
4
 74
0
 40
0
 40
0
 40
0
 40
0
 40
1
 40
1
 40
1
 40
1
 10
16.385075
 20
19.698524
 30
0.0
 10
15.545915
 20
18.181644
 30
0.0
 10
14.468103
 20
16.227098
 30
0.0
 10
14.464589
 20
16.211719
 30
0.0
  0
SPLINE
  5
1aa
100
AcDbEntity
  8
Layer_1
 62
1
100
AcDbSpline
 70
8
 71
3
 72
8
 73
4
 74
0
 40
0
 40
0
 40
0
 40
0
 40
1
 40
1
 40
1
 40
1
 10
14.464589
 20
16.211719
 30
0.0
 10
14.464410
 20
16.210930
 30
0.0
 10
14.461077
 20
16.204297
 30
0.0
 10
14.455214
 20
16.193317
 30
0.0
  0
SPLINE
  5
1ab
100
AcDbEntity
  8
Layer_1
 62
1
100
AcDbSpline
 70
8
 71
3
 72
8
 73
4
 74
0
 40
0
 40
0
 40
0
 40
0
 40
1
 40
1
 40
1
 40
1
 10
14.455214
 20
16.193317
 30
0.0
 10
13.337446
 20
16.224819
 30
0.0
 10
12.209498
 20
16.213864
 30
0.0
 10
11.195491
 20
16.215539
 30
0.0
  0
LWPOLYLINE
  5
1ac
100
AcDbEntity
  8
Layer_1
 62
1
100
AcDbPolyline
 90
2
 70
1
 10
44.985076
 20
21.872135
 30
0.0
 10
44.985076
 20
21.872135
 30
0.0
  0
SPLINE
  5
1ad
100
AcDbEntity
  8
Layer_1
 62
1
100
AcDbSpline
 70
8
 71
3
 72
8
 73
4
 74
0
 40
0
 40
0
 40
0
 40
0
 40
1
 40
1
 40
1
 40
1
 10
9.286463
 20
19.691580
 30
0.0
 10
10.389016
 20
20.328500
 30
0.0
 10
11.533221
 20
21.067174
 30
0.0
 10
12.793061
 20
21.822135
 30
0.0
  0
SPLINE
  5
1ae
100
AcDbEntity
  8
Layer_1
 62
1
100
AcDbSpline
 70
8
 71
3
 72
8
 73
4
 74
0
 40
0
 40
0
 40
0
 40
0
 40
1
 40
1
 40
1
 40
1
 10
12.793061
 20
21.822135
 30
0.0
 10
12.803241
 20
21.829769
 30
0.0
 10
12.812674
 20
21.836630
 30
0.0
 10
12.819797
 20
21.841580
 30
0.0
  0
LWPOLYLINE
  5
1af
100
AcDbEntity
  8
Layer_1
 62
1
100
AcDbPolyline
 90
2
 70
1
 10
11.195491
 20
16.215539
 30
0.0
 10
9.286463
 20
19.691580
 30
0.0
  0
SPLINE
  5
1b0
100
AcDbEntity
  8
Layer_1
 62
1
100
AcDbSpline
 70
8
 71
3
 72
8
 73
4
 74
0
 40
0
 40
0
 40
0
 40
0
 40
1
 40
1
 40
1
 40
1
 10
17.743408
 20
18.884288
 30
0.0
 10
18.658187
 20
18.202272
 30
0.0
 10
19.843763
 20
17.585694
 30
0.0
 10
20.050005
 20
16.418316
 30
0.0
  0
SPLINE
  5
1b1
100
AcDbEntity
  8
Layer_1
 62
1
100
AcDbSpline
 70
8
 71
3
 72
8
 73
4
 74
0
 40
0
 40
0
 40
0
 40
0
 40
1
 40
1
 40
1
 40
1
 10
20.050005
 20
16.418316
 30
0.0
 10
20.050638
 20
16.413723
 30
0.0
 10
20.051843
 20
16.328738
 30
0.0
 10
20.053130
 20
16.216232
 30
0.0
  0
SPLINE
  5
1b2
100
AcDbEntity
  8
Layer_1
 62
1
100
AcDbSpline
 70
8
 71
3
 72
8
 73
4
 74
0
 40
0
 40
0
 40
0
 40
0
 40
1
 40
1
 40
1
 40
1
 10
20.053130
 20
16.216232
 30
0.0
 10
18.784152
 20
16.216710
 30
0.0
 10
17.534772
 20
16.210310
 30
0.0
 10
16.265978
 20
16.203386
 30
0.0
  0
SPLINE
  5
1b3
100
AcDbEntity
  8
Layer_1
 62
1
100
AcDbSpline
 70
8
 71
3
 72
8
 73
4
 74
0
 40
0
 40
0
 40
0
 40
0
 40
1
 40
1
 40
1
 40
1
 10
16.265978
 20
16.203386
 30
0.0
 10
16.599444
 20
16.807217
 30
0.0
 10
17.211272
 20
17.917699
 30
0.0
 10
17.743408
 20
18.884288
 30
0.0
  0
LWPOLYLINE
  5
1b4
100
AcDbEntity
  8
Layer_1
 62
1
100
AcDbPolyline
 90
2
 70
1
 10
12.819797
 20
21.841580
 30
0.0
 10
12.819797
 20
21.841580
 30
0.0
  0
SPLINE
  5
1b5
100
AcDbEntity
  8
Layer_1
 62
1
100
AcDbSpline
 70
8
 71
3
 72
8
 73
4
 74
0
 40
0
 40
0
 40
0
 40
0
 40
1
 40
1
 40
1
 40
1
 10
40.102785
 20
18.844358
 30
0.0
 10
40.106289
 20
18.837724
 30
0.0
 10
40.109821
 20
18.831452
 30
0.0
 10
40.113548
 20
18.824219
 30
0.0
  0
SPLINE
  5
1b6
100
AcDbEntity
  8
Layer_1
 62
1
100
AcDbSpline
 70
8
 71
3
 72
8
 73
4
 74
0
 40
0
 40
0
 40
0
 40
0
 40
1
 40
1
 40
1
 40
1
 10
40.113548
 20
18.824219
 30
0.0
 10
40.609412
 20
17.914599
 30
0.0
 10
41.006180
 20
17.201462
 30
0.0
 10
41.542016
 20
16.233595
 30
0.0
  0
SPLINE
  5
1b7
100
AcDbEntity
  8
Layer_1
 62
1
100
AcDbSpline
 70
8
 71
3
 72
8
 73
4
 74
0
 40
0
 40
0
 40
0
 40
0
 40
1
 40
1
 40
1
 40
1
 10
41.542016
 20
16.233595
 30
0.0
 10
41.467948
 20
16.233595
 30
0.0
 10
41.479673
 20
16.233832
 30
0.0
 10
41.404521
 20
16.233941
 30
0.0
  0
SPLINE
  5
1b8
100
AcDbEntity
  8
Layer_1
 62
1
100
AcDbSpline
 70
8
 71
3
 72
8
 73
4
 74
0
 40
0
 40
0
 40
0
 40
0
 40
1
 40
1
 40
1
 40
1
 10
41.404521
 20
16.233941
 30
0.0
 10
40.181599
 20
16.219876
 30
0.0
 10
38.961893
 20
16.248311
 30
0.0
 10
37.752785
 20
16.245052
 30
0.0
  0
SPLINE
  5
1b9
100
AcDbEntity
  8
Layer_1
 62
1
100
AcDbSpline
 70
8
 71
3
 72
8
 73
4
 74
0
 40
0
 40
0
 40
0
 40
0
 40
1
 40
1
 40
1
 40
1
 10
37.752785
 20
16.245052
 30
0.0
 10
37.758938
 20
16.509345
 30
0.0
 10
37.771180
 20
16.494567
 30
0.0
 10
37.793753
 20
16.576996
 30
0.0
  0
SPLINE
  5
1ba
100
AcDbEntity
  8
Layer_1
 62
1
100
AcDbSpline
 70
8
 71
3
 72
8
 73
4
 74
0
 40
0
 40
0
 40
0
 40
0
 40
1
 40
1
 40
1
 40
1
 10
37.793753
 20
16.576996
 30
0.0
 10
37.849031
 20
16.777312
 30
0.0
 10
37.962452
 20
17.017020
 30
0.0
 10
38.101742
 20
17.225955
 30
0.0
  0
SPLINE
  5
1bb
100
AcDbEntity
  8
Layer_1
 62
1
100
AcDbSpline
 70
8
 71
3
 72
8
 73
4
 74
0
 40
0
 40
0
 40
0
 40
0
 40
1
 40
1
 40
1
 40
1
 10
38.101742
 20
17.225955
 30
0.0
 10
38.317139
 20
17.549052
 30
0.0
 10
39.234485
 20
18.240020
 30
0.0
 10
40.102785
 20
18.844358
 30
0.0
  0
LWPOLYLINE
  5
1bc
100
AcDbEntity
  8
Layer_1
 62
1
100
AcDbPolyline
 90
2
 70
1
 10
17.743408
 20
18.884288
 30
0.0
 10
17.743408
 20
18.884288
 30
0.0
  0
LWPOLYLINE
  5
1bd
100
AcDbEntity
  8
Layer_1
 62
1
100
AcDbPolyline
 90
2
 70
1
 10
40.102785
 20
18.844358
 30
0.0
 10
40.102785
 20
18.844358
 30
0.0
  0
SPLINE
  5
1be
100
AcDbEntity
  8
Layer_1
 62
1
100
AcDbSpline
 70
8
 71
3
 72
8
 73
4
 74
0
 40
0
 40
0
 40
0
 40
0
 40
1
 40
1
 40
1
 40
1
 10
37.869795
 20
14.645747
 30
0.0
 10
39.495998
 20
14.632419
 30
0.0
 10
40.995971
 20
14.635117
 30
0.0
 10
42.427088
 20
14.634984
 30
0.0
  0
LWPOLYLINE
  5
1bf
100
AcDbEntity
  8
Layer_1
 62
1
100
AcDbPolyline
 90
2
 70
1
 10
37.869795
 20
14.651302
 30
0.0
 10
37.869795
 20
14.645747
 30
0.0
  0
SPLINE
  5
1c0
100
AcDbEntity
  8
Layer_1
 62
1
100
AcDbSpline
 70
8
 71
3
 72
8
 73
4
 74
0
 40
0
 40
0
 40
0
 40
0
 40
1
 40
1
 40
1
 40
1
 10
42.497229
 20
14.507899
 30
0.0
 10
44.091675
 20
11.597484
 30
0.0
 10
42.427088
 20
14.634984
 30
0.0
 10
44.089585
 20
11.603039
 30
0.0
  0
SPLINE
  5
1c1
100
AcDbEntity
  8
Layer_1
 62
1
100
AcDbSpline
 70
8
 71
3
 72
8
 73
4
 74
0
 40
0
 40
0
 40
0
 40
0
 40
1
 40
1
 40
1
 40
1
 10
44.089585
 20
11.603039
 30
0.0
 10
44.089485
 20
11.602751
 30
0.0
 10
44.090770
 20
11.599598
 30
0.0
 10
44.091675
 20
11.597484
 30
0.0
  0
SPLINE
  5
1c2
100
AcDbEntity
  8
Layer_1
 62
1
100
AcDbSpline
 70
8
 71
3
 72
8
 73
4
 74
0
 40
0
 40
0
 40
0
 40
0
 40
1
 40
1
 40
1
 40
1
 10
44.091675
 20
11.597484
 30
0.0
 10
43.354773
 20
10.264589
 30
0.0
 10
42.375135
 20
8.494393
 30
0.0
 10
41.559729
 20
7.029080
 30
0.0
  0
SPLINE
  5
1c3
100
AcDbEntity
  8
Layer_1
 62
1
100
AcDbSpline
 70
8
 71
3
 72
8
 73
4
 74
0
 40
0
 40
0
 40
0
 40
0
 40
1
 40
1
 40
1
 40
1
 10
41.559729
 20
7.029080
 30
0.0
 10
41.131075
 20
7.307558
 30
0.0
 10
39.387151
 20
8.434699
 30
0.0
 10
38.027782
 20
9.345747
 30
0.0
  0
SPLINE
  5
1c4
100
AcDbEntity
  8
Layer_1
 62
1
100
AcDbSpline
 70
8
 71
3
 72
8
 73
4
 74
0
 40
0
 40
0
 40
0
 40
0
 40
1
 40
1
 40
1
 40
1
 10
38.027782
 20
9.345747
 30
0.0
 10
37.919365
 20
9.418982
 30
0.0
 10
37.817188
 20
9.490069
 30
0.0
 10
37.801393
 20
9.504428
 30
0.0
  0
SPLINE
  5
1c5
100
AcDbEntity
  8
Layer_1
 62
1
100
AcDbSpline
 70
8
 71
3
 72
8
 73
4
 74
0
 40
0
 40
0
 40
0
 40
0
 40
1
 40
1
 40
1
 40
1
 10
37.801393
 20
9.504428
 30
0.0
 10
37.785597
 20
9.518787
 30
0.0
 10
37.766211
 20
9.531788
 30
0.0
 10
37.758342
 20
9.533941
 30
0.0
  0
SPLINE
  5
1c6
100
AcDbEntity
  8
Layer_1
 62
1
100
AcDbSpline
 70
8
 71
3
 72
8
 73
4
 74
0
 40
0
 40
0
 40
0
 40
0
 40
1
 40
1
 40
1
 40
1
 10
37.758342
 20
9.533941
 30
0.0
 10
37.758019
 20
9.534053
 30
0.0
 10
37.753618
 20
9.536861
 30
0.0
 10
37.752088
 20
9.537761
 30
0.0
  0
SPLINE
  5
1c7
100
AcDbEntity
  8
Layer_1
 62
1
100
AcDbSpline
 70
8
 71
3
 72
8
 73
4
 74
0
 40
0
 40
0
 40
0
 40
0
 40
1
 40
1
 40
1
 40
1
 10
37.752088
 20
9.537761
 30
0.0
 10
37.750566
 20
11.425993
 30
0.0
 10
37.748197
 20
12.848476
 30
0.0
 10
37.747227
 20
14.650955
 30
0.0
  0
LWPOLYLINE
  5
1c8
100
AcDbEntity
  8
Layer_1
 62
1
100
AcDbPolyline
 90
2
 70
1
 10
42.427088
 20
14.634984
 30
0.0
 10
42.497229
 20
14.507899
 30
0.0
  0
SPLINE
  5
1c9
100
AcDbEntity
  8
Layer_1
 62
1
100
AcDbSpline
 70
8
 71
3
 72
8
 73
4
 74
0
 40
0
 40
0
 40
0
 40
0
 40
1
 40
1
 40
1
 40
1
 10
35.355562
 20
14.649914
 30
0.0
 10
35.546583
 20
14.649914
 30
0.0
 10
35.762195
 20
14.643554
 30
0.0
 10
36.079518
 20
14.644706
 30
0.0
  0
SPLINE
  5
1ca
100
AcDbEntity
  8
Layer_1
 62
1
100
AcDbSpline
 70
8
 71
3
 72
8
 73
4
 74
0
 40
0
 40
0
 40
0
 40
0
 40
1
 40
1
 40
1
 40
1
 10
36.079518
 20
14.644706
 30
0.0
 10
36.092470
 20
13.359917
 30
0.0
 10
36.063076
 20
11.990798
 30
0.0
 10
36.074313
 20
10.651303
 30
0.0
  0
SPLINE
  5
1cb
100
AcDbEntity
  8
Layer_1
 62
1
100
AcDbSpline
 70
8
 71
3
 72
8
 73
4
 74
0
 40
0
 40
0
 40
0
 40
0
 40
1
 40
1
 40
1
 40
1
 10
36.074313
 20
10.651303
 30
0.0
 10
36.065711
 20
10.656119
 30
0.0
 10
36.037149
 20
10.678315
 30
0.0
 10
36.007992
 20
10.704080
 30
0.0
  0
SPLINE
  5
1cc
100
AcDbEntity
  8
Layer_1
 62
1
100
AcDbSpline
 70
8
 71
3
 72
8
 73
4
 74
0
 40
0
 40
0
 40
0
 40
0
 40
1
 40
1
 40
1
 40
1
 10
36.007992
 20
10.704080
 30
0.0
 10
35.977836
 20
10.730646
 30
0.0
 10
35.947788
 20
10.752690
 30
0.0
 10
35.941327
 20
10.752691
 30
0.0
  0
SPLINE
  5
1cd
100
AcDbEntity
  8
Layer_1
 62
1
100
AcDbSpline
 70
8
 71
3
 72
8
 73
4
 74
0
 40
0
 40
0
 40
0
 40
0
 40
1
 40
1
 40
1
 40
1
 10
35.941327
 20
10.752691
 30
0.0
 10
34.857785
 20
11.470205
 30
0.0
 10
34.089292
 20
11.985385
 30
0.0
 10
33.144102
 20
12.620053
 30
0.0
  0
SPLINE
  5
1ce
100
AcDbEntity
  8
Layer_1
 62
1
100
AcDbSpline
 70
8
 71
3
 72
8
 73
4
 74
0
 40
0
 40
0
 40
0
 40
0
 40
1
 40
1
 40
1
 40
1
 10
33.144102
 20
12.620053
 30
0.0
 10
33.292725
 20
12.912754
 30
0.0
 10
33.437050
 20
13.199866
 30
0.0
 10
33.587505
 20
13.466928
 30
0.0
  0
SPLINE
  5
1cf
100
AcDbEntity
  8
Layer_1
 62
1
100
AcDbSpline
 70
8
 71
3
 72
8
 73
4
 74
0
 40
0
 40
0
 40
0
 40
0
 40
1
 40
1
 40
1
 40
1
 10
33.587505
 20
13.466928
 30
0.0
 10
34.067452
 20
14.430798
 30
0.0
 10
34.387227
 20
14.544415
 30
0.0
 10
34.983339
 20
14.637414
 30
0.0
  0
SPLINE
  5
1d0
100
AcDbEntity
  8
Layer_1
 62
1
100
AcDbSpline
 70
8
 71
3
 72
8
 73
4
 74
0
 40
0
 40
0
 40
0
 40
0
 40
1
 40
1
 40
1
 40
1
 10
34.983339
 20
14.637414
 30
0.0
 10
35.111930
 20
14.646990
 30
0.0
 10
35.228377
 20
14.649912
 30
0.0
 10
35.355562
 20
14.649914
 30
0.0
  0
LWPOLYLINE
  5
1d1
100
AcDbEntity
  8
Layer_1
 62
1
100
AcDbPolyline
 90
2
 70
1
 10
37.747227
 20
14.650955
 30
0.0
 10
37.869795
 20
14.651302
 30
0.0
  0
SPLINE
  5
1d2
100
AcDbEntity
  8
Layer_1
 62
1
100
AcDbSpline
 70
8
 71
3
 72
8
 73
4
 74
0
 40
0
 40
0
 40
0
 40
0
 40
1
 40
1
 40
1
 40
1
 10
45.745491
 20
14.636025
 30
0.0
 10
45.742145
 20
14.625245
 30
0.0
 10
45.742461
 20
14.620224
 30
0.0
 10
45.743753
 20
14.615191
 30
0.0
  0
SPLINE
  5
1d3
100
AcDbEntity
  8
Layer_1
 62
1
100
AcDbSpline
 70
8
 71
3
 72
8
 73
4
 74
0
 40
0
 40
0
 40
0
 40
0
 40
1
 40
1
 40
1
 40
1
 10
45.743753
 20
14.615191
 30
0.0
 10
45.464441
 20
14.023828
 30
0.0
 10
45.278475
 20
13.748828
 30
0.0
 10
45.010773
 20
13.260330
 30
0.0
  0
SPLINE
  5
1d4
100
AcDbEntity
  8
Layer_1
 62
1
100
AcDbSpline
 70
8
 71
3
 72
8
 73
4
 74
0
 40
0
 40
0
 40
0
 40
0
 40
1
 40
1
 40
1
 40
1
 10
45.010773
 20
13.260330
 30
0.0
 10
45.009997
 20
13.261297
 30
0.0
 10
45.009013
 20
13.260894
 30
0.0
 10
45.007994
 20
13.258595
 30
0.0
  0
SPLINE
  5
1d5
100
AcDbEntity
  8
Layer_1
 62
1
100
AcDbSpline
 70
8
 71
3
 72
8
 73
4
 74
0
 40
0
 40
0
 40
0
 40
0
 40
1
 40
1
 40
1
 40
1
 10
45.007994
 20
13.258595
 30
0.0
 10
44.998653
 20
13.237774
 30
0.0
 10
44.987122
 20
13.245747
 30
0.0
 10
44.967018
 20
13.288108
 30
0.0
  0
SPLINE
  5
1d6
100
AcDbEntity
  8
Layer_1
 62
1
100
AcDbSpline
 70
8
 71
3
 72
8
 73
4
 74
0
 40
0
 40
0
 40
0
 40
0
 40
1
 40
1
 40
1
 40
1
 10
44.967018
 20
13.288108
 30
0.0
 10
44.690298
 20
13.765105
 30
0.0
 10
44.488694
 20
14.174877
 30
0.0
 10
44.234382
 20
14.635330
 30
0.0
  0
SPLINE
  5
1d7
100
AcDbEntity
  8
Layer_1
 62
1
100
AcDbSpline
 70
8
 71
3
 72
8
 73
4
 74
0
 40
0
 40
0
 40
0
 40
0
 40
1
 40
1
 40
1
 40
1
 10
44.234382
 20
14.635330
 30
0.0
 10
44.743013
 20
14.650936
 30
0.0
 10
45.243616
 20
14.641845
 30
0.0
 10
45.745491
 20
14.636025
 30
0.0
  0
LWPOLYLINE
  5
1d8
100
AcDbEntity
  8
Layer_1
 62
1
100
AcDbPolyline
 90
2
 70
1
 10
35.355562
 20
14.649914
 30
0.0
 10
35.355562
 20
14.649914
 30
0.0
  0
SPLINE
  5
1d9
100
AcDbEntity
  8
Layer_1
 62
1
100
AcDbSpline
 70
8
 71
3
 72
8
 73
4
 74
0
 40
0
 40
0
 40
0
 40
0
 40
1
 40
1
 40
1
 40
1
 10
12.068756
 20
14.625261
 30
0.0
 10
12.588622
 20
14.626561
 30
0.0
 10
13.095385
 20
14.597352
 30
0.0
 10
13.581603
 20
14.598872
 30
0.0
  0
SPLINE
  5
1da
100
AcDbEntity
  8
Layer_1
 62
1
100
AcDbSpline
 70
8
 71
3
 72
8
 73
4
 74
0
 40
0
 40
0
 40
0
 40
0
 40
1
 40
1
 40
1
 40
1
 10
13.581603
 20
14.598872
 30
0.0
 10
13.576060
 20
14.583795
 30
0.0
 10
13.576622
 20
14.577656
 30
0.0
 10
13.578131
 20
14.571788
 30
0.0
  0
SPLINE
  5
1db
100
AcDbEntity
  8
Layer_1
 62
1
100
AcDbSpline
 70
8
 71
3
 72
8
 73
4
 74
0
 40
0
 40
0
 40
0
 40
0
 40
1
 40
1
 40
1
 40
1
 10
13.578131
 20
14.571788
 30
0.0
 10
13.402224
 20
14.175539
 30
0.0
 10
13.088371
 20
13.781151
 30
0.0
 10
12.804866
 20
13.285330
 30
0.0
  0
LWPOLYLINE
  5
1dc
100
AcDbEntity
  8
Layer_1
 62
1
100
AcDbPolyline
 90
2
 70
1
 10
45.745491
 20
14.636025
 30
0.0
 10
45.745491
 20
14.636025
 30
0.0
  0
SPLINE
  5
1dd
100
AcDbEntity
  8
Layer_1
 62
1
100
AcDbSpline
 70
8
 71
3
 72
8
 73
4
 74
0
 40
0
 40
0
 40
0
 40
0
 40
1
 40
1
 40
1
 40
1
 10
22.943408
 20
14.619010
 30
0.0
 10
23.405403
 20
14.617819
 30
0.0
 10
23.758845
 20
14.287677
 30
0.0
 10
24.135769
 20
13.466928
 30
0.0
  0
SPLINE
  5
1de
100
AcDbEntity
  8
Layer_1
 62
1
100
AcDbSpline
 70
8
 71
3
 72
8
 73
4
 74
0
 40
0
 40
0
 40
0
 40
0
 40
1
 40
1
 40
1
 40
1
 10
24.135769
 20
13.466928
 30
0.0
 10
24.288277
 20
13.202127
 30
0.0
 10
24.469287
 20
12.882349
 30
0.0
 10
24.656950
 20
12.548177
 30
0.0
  0
SPLINE
  5
1df
100
AcDbEntity
  8
Layer_1
 62
1
100
AcDbSpline
 70
8
 71
3
 72
8
 73
4
 74
0
 40
0
 40
0
 40
0
 40
0
 40
1
 40
1
 40
1
 40
1
 10
24.656950
 20
12.548177
 30
0.0
 10
24.086347
 20
12.168214
 30
0.0
 10
22.869948
 20
11.360541
 30
0.0
 10
21.727089
 20
10.600608
 30
0.0
  0
LWPOLYLINE
  5
1e0
100
AcDbEntity
  8
Layer_1
 62
1
100
AcDbPolyline
 90
2
 70
1
 10
12.804866
 20
13.285330
 30
0.0
 10
12.068756
 20
14.625261
 30
0.0
  0
SPLINE
  5
1e1
100
AcDbEntity
  8
Layer_1
 62
1
100
AcDbSpline
 70
8
 71
3
 72
8
 73
4
 74
0
 40
0
 40
0
 40
0
 40
0
 40
1
 40
1
 40
1
 40
1
 10
21.738199
 20
14.617621
 30
0.0
 10
22.348313
 20
14.617535
 30
0.0
 10
22.670475
 20
14.616778
 30
0.0
 10
22.849311
 20
14.614844
 30
0.0
  0
SPLINE
  5
1e2
100
AcDbEntity
  8
Layer_1
 62
1
100
AcDbSpline
 70
8
 71
3
 72
8
 73
4
 74
0
 40
0
 40
0
 40
0
 40
0
 40
1
 40
1
 40
1
 40
1
 10
22.849311
 20
14.614844
 30
0.0
 10
22.881113
 20
14.617640
 30
0.0
 10
22.912608
 20
14.619090
 30
0.0
 10
22.943408
 20
14.619010
 30
0.0
  0
LWPOLYLINE
  5
1e3
100
AcDbEntity
  8
Layer_1
 62
1
100
AcDbPolyline
 90
4
 70
1
 10
21.727089
 20
10.600608
 30
0.0
 10
21.731255
 20
14.262414
 30
0.0
 10
21.739241
 20
14.262414
 30
0.0
 10
21.738199
 20
14.617621
 30
0.0
  0
SPLINE
  5
1e4
100
AcDbEntity
  8
Layer_1
 62
1
100
AcDbSpline
 70
8
 71
3
 72
8
 73
4
 74
0
 40
0
 40
0
 40
0
 40
0
 40
1
 40
1
 40
1
 40
1
 10
20.068061
 20
14.616928
 30
0.0
 10
20.068505
 20
14.569338
 30
0.0
 10
20.068708
 20
14.539876
 30
0.0
 10
20.069102
 20
14.500608
 30
0.0
  0
LWPOLYLINE
  5
1e5
100
AcDbEntity
  8
Layer_1
 62
1
100
AcDbPolyline
 90
2
 70
1
 10
22.943408
 20
14.619010
 30
0.0
 10
22.943408
 20
14.619010
 30
0.0
  0
SPLINE
  5
1e6
100
AcDbEntity
  8
Layer_1
 62
1
100
AcDbSpline
 70
8
 71
3
 72
8
 73
4
 74
0
 40
0
 40
0
 40
0
 40
0
 40
1
 40
1
 40
1
 40
1
 10
20.063547
 20
14.500608
 30
0.0
 10
20.063056
 20
12.834977
 30
0.0
 10
20.061985
 20
11.027438
 30
0.0
 10
20.060769
 20
9.491233
 30
0.0
  0
SPLINE
  5
1e7
100
AcDbEntity
  8
Layer_1
 62
1
100
AcDbSpline
 70
8
 71
3
 72
8
 73
4
 74
0
 40
0
 40
0
 40
0
 40
0
 40
1
 40
1
 40
1
 40
1
 10
20.060769
 20
9.491233
 30
0.0
 10
18.767332
 20
8.657023
 30
0.0
 10
17.545853
 20
7.826492
 30
0.0
 10
16.273269
 20
6.969010
 30
0.0
  0
LWPOLYLINE
  5
1e8
100
AcDbEntity
  8
Layer_1
 62
1
100
AcDbPolyline
 90
2
 70
1
 10
20.069102
 20
14.500608
 30
0.0
 10
20.063547
 20
14.500608
 30
0.0
  0
SPLINE
  5
1e9
100
AcDbEntity
  8
Layer_1
 62
1
100
AcDbSpline
 70
8
 71
3
 72
8
 73
4
 74
0
 40
0
 40
0
 40
0
 40
0
 40
1
 40
1
 40
1
 40
1
 10
13.690978
 20
11.671788
 30
0.0
 10
14.320796
 20
12.653454
 30
0.0
 10
14.844155
 20
13.629881
 30
0.0
 10
15.382644
 20
14.604428
 30
0.0
  0
SPLINE
  5
1ea
100
AcDbEntity
  8
Layer_1
 62
1
100
AcDbSpline
 70
8
 71
3
 72
8
 73
4
 74
0
 40
0
 40
0
 40
0
 40
0
 40
1
 40
1
 40
1
 40
1
 10
15.382644
 20
14.604428
 30
0.0
 10
16.904858
 20
14.608849
 30
0.0
 10
18.635726
 20
14.615935
 30
0.0
 10
20.068061
 20
14.616928
 30
0.0
  0
LWPOLYLINE
  5
1eb
100
AcDbEntity
  8
Layer_1
 62
1
100
AcDbPolyline
 90
3
 70
1
 10
16.273269
 20
6.969010
 30
0.0
 10
16.205561
 20
7.092969
 30
0.0
 10
13.690978
 20
11.671788
 30
0.0
  0
SPLINE
  5
1ec
100
AcDbEntity
  8
Layer_1
 62
1
100
AcDbSpline
 70
8
 71
3
 72
8
 73
4
 74
0
 40
0
 40
0
 40
0
 40
0
 40
1
 40
1
 40
1
 40
1
 10
28.955213
 20
13.123177
 30
0.0
 10
29.010225
 20
13.122788
 30
0.0
 10
29.066019
 20
13.117786
 30
0.0
 10
29.122574
 20
13.107206
 30
0.0
  0
SPLINE
  5
1ed
100
AcDbEntity
  8
Layer_1
 62
1
100
AcDbSpline
 70
8
 71
3
 72
8
 73
4
 74
0
 40
0
 40
0
 40
0
 40
0
 40
1
 40
1
 40
1
 40
1
 10
29.122574
 20
13.107206
 30
0.0
 10
29.262582
 20
13.080639
 30
0.0
 10
29.375757
 20
13.034514
 30
0.0
 10
29.479866
 20
12.964150
 30
0.0
  0
SPLINE
  5
1ee
100
AcDbEntity
  8
Layer_1
 62
1
100
AcDbSpline
 70
8
 71
3
 72
8
 73
4
 74
0
 40
0
 40
0
 40
0
 40
0
 40
1
 40
1
 40
1
 40
1
 10
29.479866
 20
12.964150
 30
0.0
 10
29.751653
 20
12.780599
 30
0.0
 10
30.347325
 20
12.380872
 30
0.0
 10
30.957643
 20
11.971788
 30
0.0
  0
SPLINE
  5
1ef
100
AcDbEntity
  8
Layer_1
 62
1
100
AcDbSpline
 70
8
 71
3
 72
8
 73
4
 74
0
 40
0
 40
0
 40
0
 40
0
 40
1
 40
1
 40
1
 40
1
 10
30.957643
 20
11.971788
 30
0.0
 10
30.944461
 20
11.946851
 30
0.0
 10
30.933062
 20
11.924427
 30
0.0
 10
30.923269
 20
11.905121
 30
0.0
  0
SPLINE
  5
1f0
100
AcDbEntity
  8
Layer_1
 62
1
100
AcDbSpline
 70
8
 71
3
 72
8
 73
4
 74
0
 40
0
 40
0
 40
0
 40
0
 40
1
 40
1
 40
1
 40
1
 10
30.923269
 20
11.905121
 30
0.0
 10
30.230733
 20
10.626909
 30
0.0
 10
29.573653
 20
9.457329
 30
0.0
 10
28.890630
 20
8.259288
 30
0.0
  0
SPLINE
  5
1f1
100
AcDbEntity
  8
Layer_1
 62
1
100
AcDbSpline
 70
8
 71
3
 72
8
 73
4
 74
0
 40
0
 40
0
 40
0
 40
0
 40
1
 40
1
 40
1
 40
1
 10
28.890630
 20
8.259288
 30
0.0
 10
28.136661
 20
9.608430
 30
0.0
 10
27.437166
 20
10.858949
 30
0.0
 10
26.844102
 20
11.945399
 30
0.0
  0
SPLINE
  5
1f2
100
AcDbEntity
  8
Layer_1
 62
1
100
AcDbSpline
 70
8
 71
3
 72
8
 73
4
 74
0
 40
0
 40
0
 40
0
 40
0
 40
1
 40
1
 40
1
 40
1
 10
26.844102
 20
11.945399
 30
0.0
 10
27.736927
 20
12.545663
 30
0.0
 10
28.342600
 20
12.951745
 30
0.0
 10
28.382991
 20
12.977344
 30
0.0
  0
SPLINE
  5
1f3
100
AcDbEntity
  8
Layer_1
 62
1
100
AcDbSpline
 70
8
 71
3
 72
8
 73
4
 74
0
 40
0
 40
0
 40
0
 40
0
 40
1
 40
1
 40
1
 40
1
 10
28.382991
 20
12.977344
 30
0.0
 10
28.570914
 20
13.065648
 30
0.0
 10
28.758742
 20
13.124580
 30
0.0
 10
28.955213
 20
13.123177
 30
0.0
  0
LWPOLYLINE
  5
1f4
100
AcDbEntity
  8
Layer_1
 62
1
100
AcDbPolyline
 90
2
 70
1
 10
20.068061
 20
14.616928
 30
0.0
 10
20.068061
 20
14.616928
 30
0.0
  0
SPLINE
  5
1f5
100
AcDbEntity
  8
Layer_1
 62
1
100
AcDbSpline
 70
8
 71
3
 72
8
 73
4
 74
0
 40
0
 40
0
 40
0
 40
0
 40
1
 40
1
 40
1
 40
1
 10
32.299310
 20
11.074219
 30
0.0
 10
33.560925
 20
10.207569
 30
0.0
 10
34.726334
 20
9.454580
 30
0.0
 10
35.994106
 20
8.585330
 30
0.0
  0
SPLINE
  5
1f6
100
AcDbEntity
  8
Layer_1
 62
1
100
AcDbSpline
 70
8
 71
3
 72
8
 73
4
 74
0
 40
0
 40
0
 40
0
 40
0
 40
1
 40
1
 40
1
 40
1
 10
35.994106
 20
8.585330
 30
0.0
 10
36.036467
 20
8.556610
 30
0.0
 10
36.074542
 20
8.532228
 30
0.0
 10
36.078132
 20
8.531510
 30
0.0
  0
SPLINE
  5
1f7
100
AcDbEntity
  8
Layer_1
 62
1
100
AcDbSpline
 70
8
 71
3
 72
8
 73
4
 74
0
 40
0
 40
0
 40
0
 40
0
 40
1
 40
1
 40
1
 40
1
 10
36.078132
 20
8.531510
 30
0.0
 10
36.078455
 20
8.531510
 30
0.0
 10
36.080537
 20
8.530222
 30
0.0
 10
36.081952
 20
8.529428
 30
0.0
  0
LWPOLYLINE
  5
1f8
100
AcDbEntity
  8
Layer_1
 62
1
100
AcDbPolyline
 90
2
 70
1
 10
28.955213
 20
13.123177
 30
0.0
 10
28.955213
 20
13.123177
 30
0.0
  0
SPLINE
  5
1f9
100
AcDbEntity
  8
Layer_1
 62
1
100
AcDbSpline
 70
8
 71
3
 72
8
 73
4
 74
0
 40
0
 40
0
 40
0
 40
0
 40
1
 40
1
 40
1
 40
1
 10
36.081952
 20
3.588455
 30
0.0
 10
34.764834
 20
3.583645
 30
0.0
 10
33.156096
 20
3.578107
 30
0.0
 10
31.379519
 20
3.573177
 30
0.0
  0
SPLINE
  5
1fa
100
AcDbEntity
  8
Layer_1
 62
1
100
AcDbSpline
 70
8
 71
3
 72
8
 73
4
 74
0
 40
0
 40
0
 40
0
 40
0
 40
1
 40
1
 40
1
 40
1
 10
31.379519
 20
3.573177
 30
0.0
 10
30.839203
 20
4.553716
 30
0.0
 10
30.357768
 20
5.618203
 30
0.0
 10
29.808686
 20
6.620399
 30
0.0
  0
SPLINE
  5
1fb
100
AcDbEntity
  8
Layer_1
 62
1
100
AcDbSpline
 70
8
 71
3
 72
8
 73
4
 74
0
 40
0
 40
0
 40
0
 40
0
 40
1
 40
1
 40
1
 40
1
 10
29.808686
 20
6.620399
 30
0.0
 10
30.672742
 20
8.085504
 30
0.0
 10
31.382705
 20
9.487993
 30
0.0
 10
32.240630
 20
10.971788
 30
0.0
  0
SPLINE
  5
1fc
100
AcDbEntity
  8
Layer_1
 62
1
100
AcDbSpline
 70
8
 71
3
 72
8
 73
4
 74
0
 40
0
 40
0
 40
0
 40
0
 40
1
 40
1
 40
1
 40
1
 10
32.240630
 20
10.971788
 30
0.0
 10
32.264424
 20
11.012104
 30
0.0
 10
32.289230
 20
11.055167
 30
0.0
 10
32.299310
 20
11.074219
 30
0.0
  0
LWPOLYLINE
  5
1fd
100
AcDbEntity
  8
Layer_1
 62
1
100
AcDbPolyline
 90
2
 70
1
 10
36.081952
 20
8.529428
 30
0.0
 10
36.081952
 20
3.588455
 30
0.0
  0
SPLINE
  5
1fe
100
AcDbEntity
  8
Layer_1
 62
1
100
AcDbSpline
 70
8
 71
3
 72
8
 73
4
 74
0
 40
0
 40
0
 40
0
 40
0
 40
1
 40
1
 40
1
 40
1
 10
25.513199
 20
11.008247
 30
0.0
 10
26.358428
 20
9.509035
 30
0.0
 10
27.233441
 20
7.927952
 30
0.0
 10
27.959033
 20
6.629428
 30
0.0
  0
SPLINE
  5
1ff
100
AcDbEntity
  8
Layer_1
 62
1
100
AcDbSpline
 70
8
 71
3
 72
8
 73
4
 74
0
 40
0
 40
0
 40
0
 40
0
 40
1
 40
1
 40
1
 40
1
 10
27.959033
 20
6.629428
 30
0.0
 10
27.864924
 20
6.465035
 30
0.0
 10
26.491371
 20
3.877293
 30
0.0
 10
26.324658
 20
3.562762
 30
0.0
  0
SPLINE
  5
200
100
AcDbEntity
  8
Layer_1
 62
1
100
AcDbSpline
 70
8
 71
3
 72
8
 73
4
 74
0
 40
0
 40
0
 40
0
 40
0
 40
1
 40
1
 40
1
 40
1
 10
26.324658
 20
3.562762
 30
0.0
 10
24.616994
 20
3.560743
 30
0.0
 10
23.004999
 20
3.560503
 30
0.0
 10
21.732991
 20
3.564151
 30
0.0
  0
SPLINE
  5
201
100
AcDbEntity
  8
Layer_1
 62
1
100
AcDbSpline
 70
8
 71
3
 72
8
 73
4
 74
0
 40
0
 40
0
 40
0
 40
0
 40
1
 40
1
 40
1
 40
1
 10
21.732991
 20
3.564151
 30
0.0
 10
21.705734
 20
5.378139
 30
0.0
 10
21.723134
 20
7.018144
 30
0.0
 10
21.724658
 20
8.478039
 30
0.0
  0
SPLINE
  5
202
100
AcDbEntity
  8
Layer_1
 62
1
100
AcDbSpline
 70
8
 71
3
 72
8
 73
4
 74
0
 40
0
 40
0
 40
0
 40
0
 40
1
 40
1
 40
1
 40
1
 10
21.724658
 20
8.478039
 30
0.0
 10
23.046864
 20
9.358665
 30
0.0
 10
24.635098
 20
10.417825
 30
0.0
 10
25.513199
 20
11.008247
 30
0.0
  0
LWPOLYLINE
  5
203
100
AcDbEntity
  8
Layer_1
 62
1
100
AcDbPolyline
 90
2
 70
1
 10
32.299310
 20
11.074219
 30
0.0
 10
32.299310
 20
11.074219
 30
0.0
  0
SPLINE
  5
204
100
AcDbEntity
  8
Layer_1
 62
1
100
AcDbSpline
 70
8
 71
3
 72
8
 73
4
 74
0
 40
0
 40
0
 40
0
 40
0
 40
1
 40
1
 40
1
 40
1
 10
37.735072
 20
7.421095
 30
0.0
 10
37.753043
 20
7.408514
 30
0.0
 10
37.765838
 20
7.399447
 30
0.0
 10
37.766326
 20
7.398525
 30
0.0
  0
SPLINE
  5
205
100
AcDbEntity
  8
Layer_1
 62
1
100
AcDbSpline
 70
8
 71
3
 72
8
 73
4
 74
0
 40
0
 40
0
 40
0
 40
0
 40
1
 40
1
 40
1
 40
1
 10
37.766326
 20
7.398525
 30
0.0
 10
38.717726
 20
6.751732
 30
0.0
 10
39.831744
 20
5.991312
 30
0.0
 10
40.692369
 20
5.475955
 30
0.0
  0
SPLINE
  5
206
100
AcDbEntity
  8
Layer_1
 62
1
100
AcDbSpline
 70
8
 71
3
 72
8
 73
4
 74
0
 40
0
 40
0
 40
0
 40
0
 40
1
 40
1
 40
1
 40
1
 10
40.692369
 20
5.475955
 30
0.0
 10
40.292356
 20
4.865012
 30
0.0
 10
39.846513
 20
3.497013
 30
0.0
 10
38.951740
 20
3.599566
 30
0.0
  0
SPLINE
  5
207
100
AcDbEntity
  8
Layer_1
 62
1
100
AcDbSpline
 70
8
 71
3
 72
8
 73
4
 74
0
 40
0
 40
0
 40
0
 40
0
 40
1
 40
1
 40
1
 40
1
 10
38.951740
 20
3.599566
 30
0.0
 10
38.951740
 20
3.599566
 30
0.0
 10
38.185122
 20
3.596524
 30
0.0
 10
37.735072
 20
3.594706
 30
0.0
  0
LWPOLYLINE
  5
208
100
AcDbEntity
  8
Layer_1
 62
1
100
AcDbPolyline
 90
2
 70
1
 10
25.513199
 20
11.008247
 30
0.0
 10
25.513199
 20
11.008247
 30
0.0
  0
SPLINE
  5
209
100
AcDbEntity
  8
Layer_1
 62
1
100
AcDbSpline
 70
8
 71
3
 72
8
 73
4
 74
0
 40
0
 40
0
 40
0
 40
0
 40
1
 40
1
 40
1
 40
1
 10
20.058686
 20
7.369358
 30
0.0
 10
20.051160
 20
6.094167
 30
0.0
 10
20.052400
 20
4.844528
 30
0.0
 10
20.067019
 20
3.572830
 30
0.0
  0
SPLINE
  5
20a
100
AcDbEntity
  8
Layer_1
 62
1
100
AcDbSpline
 70
8
 71
3
 72
8
 73
4
 74
0
 40
0
 40
0
 40
0
 40
0
 40
1
 40
1
 40
1
 40
1
 10
20.067019
 20
3.572830
 30
0.0
 10
19.595568
 20
3.576935
 30
0.0
 10
19.244779
 20
3.582363
 30
0.0
 10
19.058338
 20
3.589151
 30
0.0
  0
SPLINE
  5
20b
100
AcDbEntity
  8
Layer_1
 62
1
100
AcDbSpline
 70
8
 71
3
 72
8
 73
4
 74
0
 40
0
 40
0
 40
0
 40
0
 40
1
 40
1
 40
1
 40
1
 10
19.058338
 20
3.589151
 30
0.0
 10
18.060795
 20
3.539846
 30
0.0
 10
17.506999
 20
4.581810
 30
0.0
 10
17.149311
 20
5.403039
 30
0.0
  0
SPLINE
  5
20c
100
AcDbEntity
  8
Layer_1
 62
1
100
AcDbSpline
 70
8
 71
3
 72
8
 73
4
 74
0
 40
0
 40
0
 40
0
 40
0
 40
1
 40
1
 40
1
 40
1
 10
17.149311
 20
5.403039
 30
0.0
 10
18.155830
 20
6.082735
 30
0.0
 10
19.181170
 20
6.786495
 30
0.0
 10
20.058686
 20
7.369358
 30
0.0
  0
LWPOLYLINE
  5
20d
100
AcDbEntity
  8
Layer_1
 62
1
100
AcDbPolyline
 90
2
 70
1
 10
37.735072
 20
3.594706
 30
0.0
 10
37.735072
 20
7.421095
 30
0.0
  0
SPLINE
  5
20e
100
AcDbEntity
  8
Layer_1
 62
1
100
AcDbSpline
 70
8
 71
3
 72
8
 73
4
 74
0
 40
0
 40
0
 40
0
 40
0
 40
1
 40
1
 40
1
 40
1
 10
28.889936
 20
5.023525
 30
0.0
 10
28.900820
 20
5.004106
 30
0.0
 10
28.913874
 20
4.980487
 30
0.0
 10
28.914241
 20
4.980122
 30
0.0
  0
SPLINE
  5
20f
100
AcDbEntity
  8
Layer_1
 62
1
100
AcDbSpline
 70
8
 71
3
 72
8
 73
4
 74
0
 40
0
 40
0
 40
0
 40
0
 40
1
 40
1
 40
1
 40
1
 10
28.914241
 20
4.980122
 30
0.0
 10
28.915676
 20
4.978685
 30
0.0
 10
28.920033
 20
4.981669
 30
0.0
 10
28.923617
 20
4.987414
 30
0.0
  0
SPLINE
  5
210
100
AcDbEntity
  8
Layer_1
 62
1
100
AcDbSpline
 70
8
 71
3
 72
8
 73
4
 74
0
 40
0
 40
0
 40
0
 40
0
 40
1
 40
1
 40
1
 40
1
 10
28.923617
 20
4.987414
 30
0.0
 10
28.928649
 20
4.995312
 30
0.0
 10
28.930561
 20
4.991128
 30
0.0
 10
28.930561
 20
4.972484
 30
0.0
  0
SPLINE
  5
211
100
AcDbEntity
  8
Layer_1
 62
1
100
AcDbSpline
 70
8
 71
3
 72
8
 73
4
 74
0
 40
0
 40
0
 40
0
 40
0
 40
1
 40
1
 40
1
 40
1
 10
28.930561
 20
4.972484
 30
0.0
 10
29.102957
 20
4.571675
 30
0.0
 10
29.384385
 20
3.987606
 30
0.0
 10
29.606602
 20
3.568317
 30
0.0
  0
SPLINE
  5
212
100
AcDbEntity
  8
Layer_1
 62
1
100
AcDbSpline
 70
8
 71
3
 72
8
 73
4
 74
0
 40
0
 40
0
 40
0
 40
0
 40
1
 40
1
 40
1
 40
1
 10
29.606602
 20
3.568317
 30
0.0
 10
29.138121
 20
3.567229
 30
0.0
 10
28.670083
 20
3.566433
 30
0.0
 10
28.201741
 20
3.565539
 30
0.0
  0
SPLINE
  5
213
100
AcDbEntity
  8
Layer_1
 62
1
100
AcDbSpline
 70
8
 71
3
 72
8
 73
4
 74
0
 40
0
 40
0
 40
0
 40
0
 40
1
 40
1
 40
1
 40
1
 10
28.201741
 20
3.565539
 30
0.0
 10
28.401824
 20
4.033079
 30
0.0
 10
28.623123
 20
4.551602
 30
0.0
 10
28.889936
 20
5.023525
 30
0.0
  0
LWPOLYLINE
  5
214
100
AcDbEntity
  8
Layer_1
 62
1
100
AcDbPolyline
 90
2
 70
1
 10
20.058686
 20
7.369358
 30
0.0
 10
20.058686
 20
7.369358
 30
0.0
  0
LWPOLYLINE
  5
215
100
AcDbEntity
  8
Layer_1
 62
1
100
AcDbPolyline
 90
2
 70
1
 10
28.889936
 20
5.023525
 30
0.0
 10
28.889936
 20
5.023525
 30
0.0
  0
LWPOLYLINE
  5
216
100
AcDbEntity
  8
Layer_1
 62
7
100
AcDbPolyline
 90
8
 70
1
 10
40.792682
 20
43.626172
 30
0.0
 10
16.822803
 20
43.504861
 30
0.0
 10
4.942942
 20
22.685678
 30
0.0
 10
17.032937
 20
1.987827
 30
0.0
 10
41.002816
 20
2.109137
 30
0.0
 10
52.882677
 20
22.928321
 30
0.0
 10
40.792682
 20
43.626172
 30
0.0
 10
40.792682
 20
43.626172
 30
0.0
  0
ENDSEC
  0
SECTION
  2
OBJECTS
  0
DICTIONARY
  5
C
330
0
100
AcDbDictionary
  3
ACAD_GROUP
350
D
  3
ACAD_MLINESTYLE
350
17
  0
DICTIONARY
  5
D
330
C
100
AcDbDictionary
  0
DICTIONARY
  5
1A
330
C
100
AcDbDictionary
  0
DICTIONARY
  5
17
330
C
100
AcDbDictionary
  3
STANDARD
350
18
  0
DICTIONARY
  5
19
330
C
100
AcDbDictionary
  0
ENDSEC
  0
EOF
