  0
SECTION
  2
HEADER
  9
$ACADVER
  1
AC1014
  9
$HANDSEED
  5
FFFF
  9
$MEASUREMENT
 70
     1
  0
ENDSEC
  0
SECTION
  2
TABLES
  0
TABLE
  2
VPORT
  5
8
330
0
100
AcDbSymbolTable
 70
     4
  0
VPORT
  5
2E
330
8
100
AcDbSymbolTableRecord
100
AcDbViewportTableRecord
  2
*ACTIVE
 70
     0
 10
0.0
 20
0.0
 11
1.0
 21
1.0
 12
210.0
 22
148.5
 13
0.0
 23
0.0
 14
10.0
 24
10.0
 15
10.0
 25
10.0
 16
0.0
 26
0.0
 36
1.0
 17
0.0
 27
0.0
 37
0.0
 40
341.0
 41
1.24
 42
50.0
 43
0.0
 44
0.0
 50
0.0
 51
0.0
 71
     0
 72
   100
 73
     1
 74
     3
 75
     0
 76
     0
 77
     0
 78
     0
  0
ENDTAB
  0
TABLE
  2
LTYPE
  5
5
330
0
100
AcDbSymbolTable
 70
     1
  0
LTYPE
  5
14
330
5
100
AcDbSymbolTableRecord
100
AcDbLinetypeTableRecord
  2
BYBLOCK
 70
     0
  3

 72
    65
 73
     0
 40
0.0
  0
LTYPE
  5
15
330
5
100
AcDbSymbolTableRecord
100
AcDbLinetypeTableRecord
  2
BYLAYER
 70
     0
  3

 72
    65
 73
     0
 40
0.0
  0
LTYPE
  5
16
330
5
100
AcDbSymbolTableRecord
100
AcDbLinetypeTableRecord
  2
CONTINUOUS
 70
     0
  3
Solid line
 72
    65
 73
     0
 40
0.0
  0
ENDTAB
  0
TABLE
  2
LAYER
  5
2
100
AcDbSymbolTable
 70
2
  0
LAYER
  5
50
100
AcDbSymbolTableRecord
100
AcDbLayerTableRecord
  2
0
 70
0
  6
CONTINUOUS
  0
LAYER
  5
51
100
AcDbSymbolTableRecord
100
AcDbLayerTableRecord
  2
Layer_1
 70
0
  6
CONTINUOUS
  0
ENDTAB
  0
TABLE
  2
STYLE
  5
3
330
0
100
AcDbSymbolTable
 70
     1
  0
STYLE
  5
11
330
3
100
AcDbSymbolTableRecord
100
AcDbTextStyleTableRecord
  2
STANDARD
 70
     0
 40
0.0
 41
1.0
 50
0.0
 71
     0
 42
2.5
  3
txt
  4

  0
ENDTAB
  0
TABLE
  2
VIEW
  5
6
330
0
100
AcDbSymbolTable
 70
     0
  0
ENDTAB
  0
TABLE
  2
UCS
  5
7
330
0
100
AcDbSymbolTable
 70
     0
  0
ENDTAB
  0
TABLE
  2
APPID
  5
9
330
0
100
AcDbSymbolTable
 70
     2
  0
APPID
  5
12
330
9
100
AcDbSymbolTableRecord
100
AcDbRegAppTableRecord
  2
ACAD
 70
     0
  0
ENDTAB
  0
TABLE
  2
DIMSTYLE
  5
A
330
0
100
AcDbSymbolTable
 70
     1
  0
DIMSTYLE
105
27
330
A
100
AcDbSymbolTableRecord
100
AcDbDimStyleTableRecord
  2
ISO-25
 70
     0
  3

  4

  5

  6

  7

 40
1.0
 41
2.5
 42
0.625
 43
3.75
 44
1.25
 45
0.0
 46
0.0
 47
0.0
 48
0.0
140
2.5
141
2.5
142
0.0
143
0.03937007874016
144
1.0
145
0.0
146
1.0
147
0.625
 71
     0
 72
     0
 73
     0
 74
     0
 75
     0
 76
     0
 77
     1
 78
     8
170
     0
171
     3
172
     1
173
     0
174
     0
175
     0
176
     0
177
     0
178
     0
270
     2
271
     2
272
     2
273
     2
274
     3
340
11
275
     0
280
     0
281
     0
282
     0
283
     0
284
     8
285
     0
286
     0
287
     3
288
     0
  0
ENDTAB
  0
TABLE
  2
BLOCK_RECORD
  5
1
330
0
100
AcDbSymbolTable
 70
     1
  0
BLOCK_RECORD
  5
1F
330
1
100
AcDbSymbolTableRecord
100
AcDbBlockTableRecord
  2
*MODEL_SPACE
  0
BLOCK_RECORD
  5
1B
330
1
100
AcDbSymbolTableRecord
100
AcDbBlockTableRecord
  2
*PAPER_SPACE
  0
ENDTAB
  0
ENDSEC
  0
SECTION
  2
BLOCKS
  0
BLOCK
  5
20
330
1F
100
AcDbEntity
  8
0
100
AcDbBlockBegin
  2
*MODEL_SPACE
 70
     0
 10
0.0
 20
0.0
 30
0.0
  3
*MODEL_SPACE
  1

  0
ENDBLK
  5
21
330
1F
100
AcDbEntity
  8
0
100
AcDbBlockEnd
  0
BLOCK
  5
1C
330
1B
100
AcDbEntity
 67
     1
  8
0
100
AcDbBlockBegin
  2
*PAPER_SPACE
  1

  0
ENDBLK
  5
1D
330
1B
100
AcDbEntity
 67
     1
  8
0
100
AcDbBlockEnd
  0
ENDSEC
  0
SECTION
  2
ENTITIES
  0
SPLINE
  5
100
100
AcDbEntity
  8
Layer_1
 62
7
100
AcDbSpline
 70
8
 71
3
 72
8
 73
4
 74
0
 40
0
 40
0
 40
0
 40
0
 40
1
 40
1
 40
1
 40
1
 10
24.761916
 20
40.414022
 30
0.0
 10
25.326452
 20
40.414022
 30
0.0
 10
25.891366
 20
40.372167
 30
0.0
 10
26.447549
 20
40.289413
 30
0.0
  0
SPLINE
  5
101
100
AcDbEntity
  8
Layer_1
 62
7
100
AcDbSpline
 70
8
 71
3
 72
8
 73
4
 74
0
 40
0
 40
0
 40
0
 40
0
 40
1
 40
1
 40
1
 40
1
 10
26.447549
 20
40.289413
 30
0.0
 10
26.675028
 20
40.255567
 30
0.0
 10
26.900679
 20
40.213143
 30
0.0
 10
27.124893
 20
40.165781
 30
0.0
  0
SPLINE
  5
102
100
AcDbEntity
  8
Layer_1
 62
7
100
AcDbSpline
 70
8
 71
3
 72
8
 73
4
 74
0
 40
0
 40
0
 40
0
 40
0
 40
1
 40
1
 40
1
 40
1
 10
27.124893
 20
40.165781
 30
0.0
 10
27.013372
 20
40.142790
 30
0.0
 10
26.902026
 20
40.119411
 30
0.0
 10
26.792146
 20
40.093298
 30
0.0
  0
SPLINE
  5
103
100
AcDbEntity
  8
Layer_1
 62
7
100
AcDbSpline
 70
8
 71
3
 72
8
 73
4
 74
0
 40
0
 40
0
 40
0
 40
0
 40
1
 40
1
 40
1
 40
1
 10
26.792146
 20
40.093298
 30
0.0
 10
26.241000
 20
39.962316
 30
0.0
 10
25.712008
 20
39.792659
 30
0.0
 10
25.211069
 20
39.589978
 30
0.0
  0
SPLINE
  5
104
100
AcDbEntity
  8
Layer_1
 62
7
100
AcDbSpline
 70
8
 71
3
 72
8
 73
4
 74
0
 40
0
 40
0
 40
0
 40
0
 40
1
 40
1
 40
1
 40
1
 10
25.211069
 20
39.589978
 30
0.0
 10
25.058298
 20
39.528166
 30
0.0
 10
24.909177
 20
39.462327
 30
0.0
 10
24.761893
 20
39.394622
 30
0.0
  0
SPLINE
  5
105
100
AcDbEntity
  8
Layer_1
 62
7
100
AcDbSpline
 70
8
 71
3
 72
8
 73
4
 74
0
 40
0
 40
0
 40
0
 40
0
 40
1
 40
1
 40
1
 40
1
 10
24.761893
 20
39.394622
 30
0.0
 10
24.614617
 20
39.462323
 30
0.0
 10
24.465528
 20
39.528168
 30
0.0
 10
24.312762
 20
39.589978
 30
0.0
  0
SPLINE
  5
106
100
AcDbEntity
  8
Layer_1
 62
7
100
AcDbSpline
 70
8
 71
3
 72
8
 73
4
 74
0
 40
0
 40
0
 40
0
 40
0
 40
1
 40
1
 40
1
 40
1
 10
24.312762
 20
39.589978
 30
0.0
 10
23.811819
 20
39.792661
 30
0.0
 10
23.282819
 20
39.962314
 30
0.0
 10
22.731663
 20
40.093298
 30
0.0
  0
LWPOLYLINE
  5
107
100
AcDbEntity
  8
Layer_1
 62
7
100
AcDbPolyline
 90
8
 70
1
 10
36.641777
 20
42.025524
 30
0.0
 10
12.671898
 20
41.904213
 30
0.0
 10
0.792036
 20
21.085030
 30
0.0
 10
12.882032
 20
0.387178
 30
0.0
 10
36.851911
 20
0.508488
 30
0.0
 10
48.731772
 20
21.327673
 30
0.0
 10
36.641777
 20
42.025524
 30
0.0
 10
36.641777
 20
42.025524
 30
0.0
  0
SPLINE
  5
108
100
AcDbEntity
  8
Layer_1
 62
7
100
AcDbSpline
 70
8
 71
3
 72
8
 73
4
 74
0
 40
0
 40
0
 40
0
 40
0
 40
1
 40
1
 40
1
 40
1
 10
22.731663
 20
40.093298
 30
0.0
 10
22.621784
 20
40.119411
 30
0.0
 10
22.510437
 20
40.142791
 30
0.0
 10
22.398917
 20
40.165781
 30
0.0
  0
SPLINE
  5
109
100
AcDbEntity
  8
Layer_1
 62
7
100
AcDbSpline
 70
8
 71
3
 72
8
 73
4
 74
0
 40
0
 40
0
 40
0
 40
0
 40
1
 40
1
 40
1
 40
1
 10
22.398917
 20
40.165781
 30
0.0
 10
22.623137
 20
40.213144
 30
0.0
 10
22.848776
 20
40.255588
 30
0.0
 10
23.076260
 20
40.289434
 30
0.0
  0
SPLINE
  5
10a
100
AcDbEntity
  8
Layer_1
 62
7
100
AcDbSpline
 70
8
 71
3
 72
8
 73
4
 74
0
 40
0
 40
0
 40
0
 40
0
 40
1
 40
1
 40
1
 40
1
 10
23.076260
 20
40.289434
 30
0.0
 10
23.632444
 20
40.372189
 30
0.0
 10
24.197379
 20
40.414044
 30
0.0
 10
24.761916
 20
40.414044
 30
0.0
  0
LWPOLYLINE
  5
10b
100
AcDbEntity
  8
Layer_1
 62
7
100
AcDbPolyline
 90
2
 70
1
 10
22.731663
 20
40.093298
 30
0.0
 10
22.731663
 20
40.093298
 30
0.0
  0
SPLINE
  5
10c
100
AcDbEntity
  8
Layer_1
 62
7
100
AcDbSpline
 70
8
 71
3
 72
8
 73
4
 74
0
 40
0
 40
0
 40
0
 40
0
 40
1
 40
1
 40
1
 40
1
 10
20.020401
 20
38.906688
 30
0.0
 10
20.053219
 20
38.906688
 30
0.0
 10
20.086007
 20
38.906577
 30
0.0
 10
20.118751
 20
38.906299
 30
0.0
  0
LWPOLYLINE
  5
10d
100
AcDbEntity
  8
Layer_1
 62
7
100
AcDbPolyline
 90
2
 70
1
 10
24.761916
 20
40.414044
 30
0.0
 10
24.761916
 20
40.414022
 30
0.0
  0
SPLINE
  5
10e
100
AcDbEntity
  8
Layer_1
 62
7
100
AcDbSpline
 70
8
 71
3
 72
8
 73
4
 74
0
 40
0
 40
0
 40
0
 40
0
 40
1
 40
1
 40
1
 40
1
 10
20.118751
 20
38.906299
 30
0.0
 10
20.380713
 20
38.904022
 30
0.0
 10
20.640263
 20
38.892031
 30
0.0
 10
20.896290
 20
38.870643
 30
0.0
  0
SPLINE
  5
10f
100
AcDbEntity
  8
Layer_1
 62
7
100
AcDbSpline
 70
8
 71
3
 72
8
 73
4
 74
0
 40
0
 40
0
 40
0
 40
0
 40
1
 40
1
 40
1
 40
1
 10
20.896290
 20
38.870643
 30
0.0
 10
21.408358
 20
38.827867
 30
0.0
 10
21.907156
 20
38.747469
 30
0.0
 10
22.384832
 20
38.633947
 30
0.0
  0
SPLINE
  5
110
100
AcDbEntity
  8
Layer_1
 62
7
100
AcDbSpline
 70
8
 71
3
 72
8
 73
4
 74
0
 40
0
 40
0
 40
0
 40
0
 40
1
 40
1
 40
1
 40
1
 10
22.384832
 20
38.633947
 30
0.0
 10
22.629947
 20
38.575694
 30
0.0
 10
22.869482
 20
38.508402
 30
0.0
 10
23.102974
 20
38.433426
 30
0.0
  0
SPLINE
  5
111
100
AcDbEntity
  8
Layer_1
 62
7
100
AcDbSpline
 70
8
 71
3
 72
8
 73
4
 74
0
 40
0
 40
0
 40
0
 40
0
 40
1
 40
1
 40
1
 40
1
 10
23.102974
 20
38.433426
 30
0.0
 10
22.924429
 20
38.305253
 30
0.0
 10
22.751852
 20
38.173479
 30
0.0
 10
22.587719
 20
38.037462
 30
0.0
  0
SPLINE
  5
112
100
AcDbEntity
  8
Layer_1
 62
7
100
AcDbSpline
 70
8
 71
3
 72
8
 73
4
 74
0
 40
0
 40
0
 40
0
 40
0
 40
1
 40
1
 40
1
 40
1
 10
22.587719
 20
38.037462
 30
0.0
 10
22.219796
 20
37.732559
 30
0.0
 10
21.889369
 20
37.410178
 30
0.0
 10
21.597506
 20
37.078109
 30
0.0
  0
SPLINE
  5
113
100
AcDbEntity
  8
Layer_1
 62
7
100
AcDbSpline
 70
8
 71
3
 72
8
 73
4
 74
0
 40
0
 40
0
 40
0
 40
0
 40
1
 40
1
 40
1
 40
1
 10
21.597506
 20
37.078109
 30
0.0
 10
21.305659
 20
36.746058
 30
0.0
 10
21.052964
 20
36.405024
 30
0.0
 10
20.838696
 20
36.062636
 30
0.0
  0
SPLINE
  5
114
100
AcDbEntity
  8
Layer_1
 62
7
100
AcDbSpline
 70
8
 71
3
 72
8
 73
4
 74
0
 40
0
 40
0
 40
0
 40
0
 40
1
 40
1
 40
1
 40
1
 10
20.838696
 20
36.062636
 30
0.0
 10
20.665968
 20
35.786624
 30
0.0
 10
20.518563
 20
35.510272
 30
0.0
 10
20.395183
 20
35.237267
 30
0.0
  0
SPLINE
  5
115
100
AcDbEntity
  8
Layer_1
 62
7
100
AcDbSpline
 70
8
 71
3
 72
8
 73
4
 74
0
 40
0
 40
0
 40
0
 40
0
 40
1
 40
1
 40
1
 40
1
 10
20.395183
 20
35.237267
 30
0.0
 10
20.279778
 20
35.200501
 30
0.0
 10
20.164832
 20
35.162311
 30
0.0
 10
20.050370
 20
35.122706
 30
0.0
  0
SPLINE
  5
116
100
AcDbEntity
  8
Layer_1
 62
7
100
AcDbSpline
 70
8
 71
3
 72
8
 73
4
 74
0
 40
0
 40
0
 40
0
 40
0
 40
1
 40
1
 40
1
 40
1
 10
20.050370
 20
35.122706
 30
0.0
 10
20.047446
 20
35.124374
 30
0.0
 10
20.044577
 20
35.126073
 30
0.0
 10
20.041647
 20
35.127740
 30
0.0
  0
SPLINE
  5
117
100
AcDbEntity
  8
Layer_1
 62
7
100
AcDbSpline
 70
8
 71
3
 72
8
 73
4
 74
0
 40
0
 40
0
 40
0
 40
0
 40
1
 40
1
 40
1
 40
1
 10
20.041647
 20
35.127740
 30
0.0
 10
19.718269
 20
35.311610
 30
0.0
 10
19.361960
 20
35.477734
 30
0.0
 10
18.975306
 20
35.619103
 30
0.0
  0
SPLINE
  5
118
100
AcDbEntity
  8
Layer_1
 62
7
100
AcDbSpline
 70
8
 71
3
 72
8
 73
4
 74
0
 40
0
 40
0
 40
0
 40
0
 40
1
 40
1
 40
1
 40
1
 10
18.975306
 20
35.619103
 30
0.0
 10
18.588624
 20
35.760481
 30
0.0
 10
18.172467
 20
35.876738
 30
0.0
 10
17.731078
 20
35.961442
 30
0.0
  0
SPLINE
  5
119
100
AcDbEntity
  8
Layer_1
 62
7
100
AcDbSpline
 70
8
 71
3
 72
8
 73
4
 74
0
 40
0
 40
0
 40
0
 40
0
 40
1
 40
1
 40
1
 40
1
 10
17.731078
 20
35.961442
 30
0.0
 10
17.289670
 20
36.046149
 30
0.0
 10
16.823907
 20
36.099114
 30
0.0
 10
16.339498
 20
36.114871
 30
0.0
  0
SPLINE
  5
11a
100
AcDbEntity
  8
Layer_1
 62
7
100
AcDbSpline
 70
8
 71
3
 72
8
 73
4
 74
0
 40
0
 40
0
 40
0
 40
0
 40
1
 40
1
 40
1
 40
1
 10
16.339498
 20
36.114871
 30
0.0
 10
16.220757
 20
36.118733
 30
0.0
 10
16.100898
 20
36.120210
 30
0.0
 10
15.980123
 20
36.119537
 30
0.0
  0
SPLINE
  5
11b
100
AcDbEntity
  8
Layer_1
 62
7
100
AcDbSpline
 70
8
 71
3
 72
8
 73
4
 74
0
 40
0
 40
0
 40
0
 40
0
 40
1
 40
1
 40
1
 40
1
 10
15.980123
 20
36.119537
 30
0.0
 10
16.068198
 20
36.239858
 30
0.0
 10
16.158578
 20
36.359514
 30
0.0
 10
16.253799
 20
36.477501
 30
0.0
  0
SPLINE
  5
11c
100
AcDbEntity
  8
Layer_1
 62
7
100
AcDbSpline
 70
8
 71
3
 72
8
 73
4
 74
0
 40
0
 40
0
 40
0
 40
0
 40
1
 40
1
 40
1
 40
1
 10
16.253799
 20
36.477501
 30
0.0
 10
16.558981
 20
36.855643
 30
0.0
 10
16.901151
 20
37.221007
 30
0.0
 10
17.276933
 20
37.565218
 30
0.0
  0
SPLINE
  5
11d
100
AcDbEntity
  8
Layer_1
 62
7
100
AcDbSpline
 70
8
 71
3
 72
8
 73
4
 74
0
 40
0
 40
0
 40
0
 40
0
 40
1
 40
1
 40
1
 40
1
 10
17.276933
 20
37.565218
 30
0.0
 10
17.652710
 20
37.909426
 30
0.0
 10
18.062672
 20
38.232982
 30
0.0
 10
18.501716
 20
38.528412
 30
0.0
  0
SPLINE
  5
11e
100
AcDbEntity
  8
Layer_1
 62
7
100
AcDbSpline
 70
8
 71
3
 72
8
 73
4
 74
0
 40
0
 40
0
 40
0
 40
0
 40
1
 40
1
 40
1
 40
1
 10
18.501716
 20
38.528412
 30
0.0
 10
18.672221
 20
38.643146
 30
0.0
 10
18.848460
 20
38.752329
 30
0.0
 10
19.027540
 20
38.858339
 30
0.0
  0
SPLINE
  5
11f
100
AcDbEntity
  8
Layer_1
 62
7
100
AcDbSpline
 70
8
 71
3
 72
8
 73
4
 74
0
 40
0
 40
0
 40
0
 40
0
 40
1
 40
1
 40
1
 40
1
 10
19.027540
 20
38.858339
 30
0.0
 10
19.127372
 20
38.867719
 30
0.0
 10
19.227232
 20
38.877090
 30
0.0
 10
19.326694
 20
38.883642
 30
0.0
  0
SPLINE
  5
120
100
AcDbEntity
  8
Layer_1
 62
7
100
AcDbSpline
 70
8
 71
3
 72
8
 73
4
 74
0
 40
0
 40
0
 40
0
 40
0
 40
1
 40
1
 40
1
 40
1
 10
19.326694
 20
38.883642
 30
0.0
 10
19.559206
 20
38.898959
 30
0.0
 10
19.790672
 20
38.906571
 30
0.0
 10
20.020401
 20
38.906711
 30
0.0
  0
LWPOLYLINE
  5
121
100
AcDbEntity
  8
Layer_1
 62
7
100
AcDbPolyline
 90
2
 70
1
 10
20.118751
 20
38.906299
 30
0.0
 10
20.118751
 20
38.906299
 30
0.0
  0
SPLINE
  5
122
100
AcDbEntity
  8
Layer_1
 62
7
100
AcDbSpline
 70
8
 71
3
 72
8
 73
4
 74
0
 40
0
 40
0
 40
0
 40
0
 40
1
 40
1
 40
1
 40
1
 10
29.503409
 20
38.906688
 30
0.0
 10
29.733142
 20
38.906543
 30
0.0
 10
29.964626
 20
38.898936
 30
0.0
 10
30.197137
 20
38.883619
 30
0.0
  0
SPLINE
  5
123
100
AcDbEntity
  8
Layer_1
 62
7
100
AcDbSpline
 70
8
 71
3
 72
8
 73
4
 74
0
 40
0
 40
0
 40
0
 40
0
 40
1
 40
1
 40
1
 40
1
 10
30.197137
 20
38.883619
 30
0.0
 10
30.296598
 20
38.877067
 30
0.0
 10
30.396439
 20
38.867694
 30
0.0
 10
30.496269
 20
38.858316
 30
0.0
  0
SPLINE
  5
124
100
AcDbEntity
  8
Layer_1
 62
7
100
AcDbSpline
 70
8
 71
3
 72
8
 73
4
 74
0
 40
0
 40
0
 40
0
 40
0
 40
1
 40
1
 40
1
 40
1
 10
30.496269
 20
38.858316
 30
0.0
 10
30.675352
 20
38.752304
 30
0.0
 10
30.851607
 20
38.643124
 30
0.0
 10
31.022116
 20
38.528389
 30
0.0
  0
SPLINE
  5
125
100
AcDbEntity
  8
Layer_1
 62
7
100
AcDbSpline
 70
8
 71
3
 72
8
 73
4
 74
0
 40
0
 40
0
 40
0
 40
0
 40
1
 40
1
 40
1
 40
1
 10
31.022116
 20
38.528389
 30
0.0
 10
31.461158
 20
38.232958
 30
0.0
 10
31.871122
 20
37.909402
 30
0.0
 10
32.246898
 20
37.565194
 30
0.0
  0
SPLINE
  5
126
100
AcDbEntity
  8
Layer_1
 62
7
100
AcDbSpline
 70
8
 71
3
 72
8
 73
4
 74
0
 40
0
 40
0
 40
0
 40
0
 40
1
 40
1
 40
1
 40
1
 10
32.246898
 20
37.565194
 30
0.0
 10
32.622679
 20
37.220982
 30
0.0
 10
32.964848
 20
36.855600
 30
0.0
 10
33.270032
 20
36.477457
 30
0.0
  0
SPLINE
  5
127
100
AcDbEntity
  8
Layer_1
 62
7
100
AcDbSpline
 70
8
 71
3
 72
8
 73
4
 74
0
 40
0
 40
0
 40
0
 40
0
 40
1
 40
1
 40
1
 40
1
 10
33.270032
 20
36.477457
 30
0.0
 10
33.365249
 20
36.359474
 30
0.0
 10
33.455637
 20
36.239831
 30
0.0
 10
33.543708
 20
36.119514
 30
0.0
  0
SPLINE
  5
128
100
AcDbEntity
  8
Layer_1
 62
7
100
AcDbSpline
 70
8
 71
3
 72
8
 73
4
 74
0
 40
0
 40
0
 40
0
 40
0
 40
1
 40
1
 40
1
 40
1
 10
33.543708
 20
36.119514
 30
0.0
 10
33.422940
 20
36.120192
 30
0.0
 10
33.303067
 20
36.118714
 30
0.0
 10
33.184333
 20
36.114848
 30
0.0
  0
SPLINE
  5
129
100
AcDbEntity
  8
Layer_1
 62
7
100
AcDbSpline
 70
8
 71
3
 72
8
 73
4
 74
0
 40
0
 40
0
 40
0
 40
0
 40
1
 40
1
 40
1
 40
1
 10
33.184333
 20
36.114848
 30
0.0
 10
32.699923
 20
36.099091
 30
0.0
 10
32.234160
 20
36.046127
 30
0.0
 10
31.792753
 20
35.961419
 30
0.0
  0
SPLINE
  5
12a
100
AcDbEntity
  8
Layer_1
 62
7
100
AcDbSpline
 70
8
 71
3
 72
8
 73
4
 74
0
 40
0
 40
0
 40
0
 40
0
 40
1
 40
1
 40
1
 40
1
 10
31.792753
 20
35.961419
 30
0.0
 10
31.351363
 20
35.876714
 30
0.0
 10
30.935207
 20
35.760456
 30
0.0
 10
30.548526
 20
35.619079
 30
0.0
  0
SPLINE
  5
12b
100
AcDbEntity
  8
Layer_1
 62
7
100
AcDbSpline
 70
8
 71
3
 72
8
 73
4
 74
0
 40
0
 40
0
 40
0
 40
0
 40
1
 40
1
 40
1
 40
1
 10
30.548526
 20
35.619079
 30
0.0
 10
30.161871
 20
35.477710
 30
0.0
 10
29.805562
 20
35.311588
 30
0.0
 10
29.482184
 20
35.127717
 30
0.0
  0
SPLINE
  5
12c
100
AcDbEntity
  8
Layer_1
 62
7
100
AcDbSpline
 70
8
 71
3
 72
8
 73
4
 74
0
 40
0
 40
0
 40
0
 40
0
 40
1
 40
1
 40
1
 40
1
 10
29.482184
 20
35.127717
 30
0.0
 10
29.480713
 20
35.126883
 30
0.0
 10
29.479270
 20
35.126036
 30
0.0
 10
29.477801
 20
35.125199
 30
0.0
  0
SPLINE
  5
12d
100
AcDbEntity
  8
Layer_1
 62
7
100
AcDbSpline
 70
8
 71
3
 72
8
 73
4
 74
0
 40
0
 40
0
 40
0
 40
0
 40
1
 40
1
 40
1
 40
1
 10
29.477801
 20
35.125199
 30
0.0
 10
29.359171
 20
35.170251
 30
0.0
 10
29.239962
 20
35.213765
 30
0.0
 10
29.120206
 20
35.255732
 30
0.0
  0
SPLINE
  5
12e
100
AcDbEntity
  8
Layer_1
 62
7
100
AcDbSpline
 70
8
 71
3
 72
8
 73
4
 74
0
 40
0
 40
0
 40
0
 40
0
 40
1
 40
1
 40
1
 40
1
 10
29.120206
 20
35.255732
 30
0.0
 10
28.998553
 20
35.522724
 30
0.0
 10
28.853989
 20
35.792829
 30
0.0
 10
28.685158
 20
36.062613
 30
0.0
  0
SPLINE
  5
12f
100
AcDbEntity
  8
Layer_1
 62
7
100
AcDbSpline
 70
8
 71
3
 72
8
 73
4
 74
0
 40
0
 40
0
 40
0
 40
0
 40
1
 40
1
 40
1
 40
1
 10
28.685158
 20
36.062613
 30
0.0
 10
28.470890
 20
36.405002
 30
0.0
 10
28.218177
 20
36.746054
 30
0.0
 10
27.926326
 20
37.078108
 30
0.0
  0
SPLINE
  5
130
100
AcDbEntity
  8
Layer_1
 62
7
100
AcDbSpline
 70
8
 71
3
 72
8
 73
4
 74
0
 40
0
 40
0
 40
0
 40
0
 40
1
 40
1
 40
1
 40
1
 10
27.926326
 20
37.078108
 30
0.0
 10
27.634462
 20
37.410178
 30
0.0
 10
27.304032
 20
37.732559
 30
0.0
 10
26.936112
 20
38.037460
 30
0.0
  0
SPLINE
  5
131
100
AcDbEntity
  8
Layer_1
 62
7
100
AcDbSpline
 70
8
 71
3
 72
8
 73
4
 74
0
 40
0
 40
0
 40
0
 40
0
 40
1
 40
1
 40
1
 40
1
 10
26.936112
 20
38.037460
 30
0.0
 10
26.771978
 20
38.173479
 30
0.0
 10
26.599381
 20
38.305251
 30
0.0
 10
26.420834
 20
38.433423
 30
0.0
  0
SPLINE
  5
132
100
AcDbEntity
  8
Layer_1
 62
7
100
AcDbSpline
 70
8
 71
3
 72
8
 73
4
 74
0
 40
0
 40
0
 40
0
 40
0
 40
1
 40
1
 40
1
 40
1
 10
26.420834
 20
38.433423
 30
0.0
 10
26.654328
 20
38.508400
 30
0.0
 10
26.893862
 20
38.575692
 30
0.0
 10
27.138977
 20
38.633944
 30
0.0
  0
SPLINE
  5
133
100
AcDbEntity
  8
Layer_1
 62
7
100
AcDbSpline
 70
8
 71
3
 72
8
 73
4
 74
0
 40
0
 40
0
 40
0
 40
0
 40
1
 40
1
 40
1
 40
1
 10
27.138977
 20
38.633944
 30
0.0
 10
27.616656
 20
38.747468
 30
0.0
 10
28.115450
 20
38.827866
 30
0.0
 10
28.627519
 20
38.870642
 30
0.0
  0
SPLINE
  5
134
100
AcDbEntity
  8
Layer_1
 62
7
100
AcDbSpline
 70
8
 71
3
 72
8
 73
4
 74
0
 40
0
 40
0
 40
0
 40
0
 40
1
 40
1
 40
1
 40
1
 10
28.627519
 20
38.870642
 30
0.0
 10
28.883546
 20
38.892030
 30
0.0
 10
29.143096
 20
38.904021
 30
0.0
 10
29.405058
 20
38.906297
 30
0.0
  0
SPLINE
  5
135
100
AcDbEntity
  8
Layer_1
 62
7
100
AcDbSpline
 70
8
 71
3
 72
8
 73
4
 74
0
 40
0
 40
0
 40
0
 40
0
 40
1
 40
1
 40
1
 40
1
 10
29.405058
 20
38.906297
 30
0.0
 10
29.437803
 20
38.906586
 30
0.0
 10
29.470590
 20
38.906708
 30
0.0
 10
29.503409
 20
38.906686
 30
0.0
  0
LWPOLYLINE
  5
136
100
AcDbEntity
  8
Layer_1
 62
7
100
AcDbPolyline
 90
2
 70
1
 10
20.020401
 20
38.906711
 30
0.0
 10
20.020401
 20
38.906688
 30
0.0
  0
SPLINE
  5
137
100
AcDbEntity
  8
Layer_1
 62
7
100
AcDbSpline
 70
8
 71
3
 72
8
 73
4
 74
0
 40
0
 40
0
 40
0
 40
0
 40
1
 40
1
 40
1
 40
1
 10
33.992992
 20
37.934249
 30
0.0
 10
34.304958
 20
37.794901
 30
0.0
 10
34.612382
 20
37.642838
 30
0.0
 10
34.912046
 20
37.475156
 30
0.0
  0
SPLINE
  5
138
100
AcDbEntity
  8
Layer_1
 62
7
100
AcDbSpline
 70
8
 71
3
 72
8
 73
4
 74
0
 40
0
 40
0
 40
0
 40
0
 40
1
 40
1
 40
1
 40
1
 10
34.912046
 20
37.475156
 30
0.0
 10
35.403452
 20
37.200178
 30
0.0
 10
35.876356
 20
36.887673
 30
0.0
 10
36.323004
 20
36.542560
 30
0.0
  0
SPLINE
  5
139
100
AcDbEntity
  8
Layer_1
 62
7
100
AcDbSpline
 70
8
 71
3
 72
8
 73
4
 74
0
 40
0
 40
0
 40
0
 40
0
 40
1
 40
1
 40
1
 40
1
 10
36.323004
 20
36.542560
 30
0.0
 10
36.769656
 20
36.197447
 30
0.0
 10
37.190643
 20
35.819259
 30
0.0
 10
37.579472
 20
35.414413
 30
0.0
  0
SPLINE
  5
13a
100
AcDbEntity
  8
Layer_1
 62
7
100
AcDbSpline
 70
8
 71
3
 72
8
 73
4
 74
0
 40
0
 40
0
 40
0
 40
0
 40
1
 40
1
 40
1
 40
1
 10
37.579472
 20
35.414413
 30
0.0
 10
37.660378
 20
35.330174
 30
0.0
 10
37.739069
 20
35.244080
 30
0.0
 10
37.817189
 20
35.157556
 30
0.0
  0
SPLINE
  5
13b
100
AcDbEntity
  8
Layer_1
 62
7
100
AcDbSpline
 70
8
 71
3
 72
8
 73
4
 74
0
 40
0
 40
0
 40
0
 40
0
 40
1
 40
1
 40
1
 40
1
 10
37.817189
 20
35.157556
 30
0.0
 10
37.297278
 20
35.392803
 30
0.0
 10
36.770793
 20
35.583920
 30
0.0
 10
36.245834
 20
35.731579
 30
0.0
  0
SPLINE
  5
13c
100
AcDbEntity
  8
Layer_1
 62
7
100
AcDbSpline
 70
8
 71
3
 72
8
 73
4
 74
0
 40
0
 40
0
 40
0
 40
0
 40
1
 40
1
 40
1
 40
1
 10
36.245834
 20
35.731579
 30
0.0
 10
35.980054
 20
35.806336
 30
0.0
 10
35.714888
 20
35.869718
 30
0.0
 10
35.451303
 20
35.922421
 30
0.0
  0
SPLINE
  5
13d
100
AcDbEntity
  8
Layer_1
 62
7
100
AcDbSpline
 70
8
 71
3
 72
8
 73
4
 74
0
 40
0
 40
0
 40
0
 40
0
 40
1
 40
1
 40
1
 40
1
 10
35.451303
 20
35.922421
 30
0.0
 10
35.424258
 20
35.970572
 30
0.0
 10
35.398692
 20
36.018959
 30
0.0
 10
35.370727
 20
36.066952
 30
0.0
  0
SPLINE
  5
13e
100
AcDbEntity
  8
Layer_1
 62
7
100
AcDbSpline
 70
8
 71
3
 72
8
 73
4
 74
0
 40
0
 40
0
 40
0
 40
0
 40
1
 40
1
 40
1
 40
1
 10
35.370727
 20
36.066952
 30
0.0
 10
35.101503
 20
36.528971
 30
0.0
 10
34.789998
 20
36.982503
 30
0.0
 10
34.437307
 20
37.419514
 30
0.0
  0
SPLINE
  5
13f
100
AcDbEntity
  8
Layer_1
 62
7
100
AcDbSpline
 70
8
 71
3
 72
8
 73
4
 74
0
 40
0
 40
0
 40
0
 40
0
 40
1
 40
1
 40
1
 40
1
 10
34.437307
 20
37.419514
 30
0.0
 10
34.296240
 20
37.594293
 30
0.0
 10
34.146886
 20
37.765431
 30
0.0
 10
33.992992
 20
37.934227
 30
0.0
  0
LWPOLYLINE
  5
140
100
AcDbEntity
  8
Layer_1
 62
7
100
AcDbPolyline
 90
2
 70
1
 10
29.503409
 20
38.906686
 30
0.0
 10
29.503409
 20
38.906688
 30
0.0
  0
SPLINE
  5
141
100
AcDbEntity
  8
Layer_1
 62
7
100
AcDbSpline
 70
8
 71
3
 72
8
 73
4
 74
0
 40
0
 40
0
 40
0
 40
0
 40
1
 40
1
 40
1
 40
1
 10
15.530818
 20
37.934249
 30
0.0
 10
15.376928
 20
37.765456
 30
0.0
 10
15.227566
 20
37.594319
 30
0.0
 10
15.086503
 20
37.419536
 30
0.0
  0
SPLINE
  5
142
100
AcDbEntity
  8
Layer_1
 62
7
100
AcDbSpline
 70
8
 71
3
 72
8
 73
4
 74
0
 40
0
 40
0
 40
0
 40
0
 40
1
 40
1
 40
1
 40
1
 10
15.086503
 20
37.419536
 30
0.0
 10
14.733814
 20
36.982528
 30
0.0
 10
14.422306
 20
36.528996
 30
0.0
 10
14.153083
 20
36.066974
 30
0.0
  0
SPLINE
  5
143
100
AcDbEntity
  8
Layer_1
 62
7
100
AcDbSpline
 70
8
 71
3
 72
8
 73
4
 74
0
 40
0
 40
0
 40
0
 40
0
 40
1
 40
1
 40
1
 40
1
 10
14.153083
 20
36.066974
 30
0.0
 10
14.125116
 20
36.018980
 30
0.0
 10
14.099551
 20
35.970596
 30
0.0
 10
14.072506
 20
35.922443
 30
0.0
  0
SPLINE
  5
144
100
AcDbEntity
  8
Layer_1
 62
7
100
AcDbSpline
 70
8
 71
3
 72
8
 73
4
 74
0
 40
0
 40
0
 40
0
 40
0
 40
1
 40
1
 40
1
 40
1
 10
14.072506
 20
35.922443
 30
0.0
 10
13.808921
 20
35.869740
 30
0.0
 10
13.543754
 20
35.806358
 30
0.0
 10
13.277974
 20
35.731601
 30
0.0
  0
SPLINE
  5
145
100
AcDbEntity
  8
Layer_1
 62
7
100
AcDbSpline
 70
8
 71
3
 72
8
 73
4
 74
0
 40
0
 40
0
 40
0
 40
0
 40
1
 40
1
 40
1
 40
1
 10
13.277974
 20
35.731601
 30
0.0
 10
12.753013
 20
35.583941
 30
0.0
 10
12.226530
 20
35.392824
 30
0.0
 10
11.706620
 20
35.157578
 30
0.0
  0
SPLINE
  5
146
100
AcDbEntity
  8
Layer_1
 62
7
100
AcDbSpline
 70
8
 71
3
 72
8
 73
4
 74
0
 40
0
 40
0
 40
0
 40
0
 40
1
 40
1
 40
1
 40
1
 10
11.706620
 20
35.157578
 30
0.0
 10
11.784741
 20
35.244102
 30
0.0
 10
11.863432
 20
35.330197
 30
0.0
 10
11.944337
 20
35.414436
 30
0.0
  0
SPLINE
  5
147
100
AcDbEntity
  8
Layer_1
 62
7
100
AcDbSpline
 70
8
 71
3
 72
8
 73
4
 74
0
 40
0
 40
0
 40
0
 40
0
 40
1
 40
1
 40
1
 40
1
 10
11.944337
 20
35.414436
 30
0.0
 10
12.333166
 20
35.819281
 30
0.0
 10
12.754153
 20
36.197469
 30
0.0
 10
13.200804
 20
36.542582
 30
0.0
  0
LWPOLYLINE
  5
148
100
AcDbEntity
  8
Layer_1
 62
7
100
AcDbPolyline
 90
3
 70
1
 10
33.992992
 20
37.934227
 30
0.0
 10
33.992992
 20
37.934227
 30
0.0
 10
33.992992
 20
37.934249
 30
0.0
  0
SPLINE
  5
149
100
AcDbEntity
  8
Layer_1
 62
7
100
AcDbSpline
 70
8
 71
3
 72
8
 73
4
 74
0
 40
0
 40
0
 40
0
 40
0
 40
1
 40
1
 40
1
 40
1
 10
13.200804
 20
36.542582
 30
0.0
 10
13.647449
 20
36.887692
 30
0.0
 10
14.120342
 20
37.200202
 30
0.0
 10
14.611741
 20
37.475178
 30
0.0
  0
SPLINE
  5
14a
100
AcDbEntity
  8
Layer_1
 62
7
100
AcDbSpline
 70
8
 71
3
 72
8
 73
4
 74
0
 40
0
 40
0
 40
0
 40
0
 40
1
 40
1
 40
1
 40
1
 10
14.611741
 20
37.475178
 30
0.0
 10
14.911400
 20
37.642857
 30
0.0
 10
15.218836
 20
37.794903
 30
0.0
 10
15.530796
 20
37.934249
 30
0.0
  0
LWPOLYLINE
  5
14b
100
AcDbEntity
  8
Layer_1
 62
7
100
AcDbPolyline
 90
2
 70
1
 10
13.200804
 20
36.542582
 30
0.0
 10
13.200804
 20
36.542582
 30
0.0
  0
LWPOLYLINE
  5
14c
100
AcDbEntity
  8
Layer_1
 62
7
100
AcDbPolyline
 90
2
 70
1
 10
15.530796
 20
37.934249
 30
0.0
 10
15.530818
 20
37.934249
 30
0.0
  0
SPLINE
  5
14d
100
AcDbEntity
  8
Layer_1
 62
7
100
AcDbSpline
 70
8
 71
3
 72
8
 73
4
 74
0
 40
0
 40
0
 40
0
 40
0
 40
1
 40
1
 40
1
 40
1
 10
24.761872
 20
37.713024
 30
0.0
 10
24.827397
 20
37.676300
 30
0.0
 10
24.893282
 20
37.639814
 30
0.0
 10
24.956990
 20
37.601870
 30
0.0
  0
SPLINE
  5
14e
100
AcDbEntity
  8
Layer_1
 62
7
100
AcDbSpline
 70
8
 71
3
 72
8
 73
4
 74
0
 40
0
 40
0
 40
0
 40
0
 40
1
 40
1
 40
1
 40
1
 10
24.956990
 20
37.601870
 30
0.0
 10
25.329553
 20
37.379972
 30
0.0
 10
25.671350
 20
37.137422
 30
0.0
 10
25.978952
 20
36.882512
 30
0.0
  0
SPLINE
  5
14f
100
AcDbEntity
  8
Layer_1
 62
7
100
AcDbSpline
 70
8
 71
3
 72
8
 73
4
 74
0
 40
0
 40
0
 40
0
 40
0
 40
1
 40
1
 40
1
 40
1
 10
25.978952
 20
36.882512
 30
0.0
 10
26.286566
 20
36.627588
 30
0.0
 10
26.560628
 20
36.359756
 30
0.0
 10
26.799611
 20
36.087851
 30
0.0
  0
SPLINE
  5
150
100
AcDbEntity
  8
Layer_1
 62
7
100
AcDbSpline
 70
8
 71
3
 72
8
 73
4
 74
0
 40
0
 40
0
 40
0
 40
0
 40
1
 40
1
 40
1
 40
1
 10
26.799611
 20
36.087851
 30
0.0
 10
26.909453
 20
35.962878
 30
0.0
 10
27.011918
 20
35.836911
 30
0.0
 10
27.107229
 20
35.710811
 30
0.0
  0
SPLINE
  5
151
100
AcDbEntity
  8
Layer_1
 62
7
100
AcDbSpline
 70
8
 71
3
 72
8
 73
4
 74
0
 40
0
 40
0
 40
0
 40
0
 40
1
 40
1
 40
1
 40
1
 10
27.107229
 20
35.710811
 30
0.0
 10
26.332203
 20
35.842027
 30
0.0
 10
25.547906
 20
35.910911
 30
0.0
 10
24.761872
 20
35.916801
 30
0.0
  0
SPLINE
  5
152
100
AcDbEntity
  8
Layer_1
 62
7
100
AcDbSpline
 70
8
 71
3
 72
8
 73
4
 74
0
 40
0
 40
0
 40
0
 40
0
 40
1
 40
1
 40
1
 40
1
 10
24.761872
 20
35.916801
 30
0.0
 10
23.979143
 20
35.914350
 30
0.0
 10
23.197857
 20
35.849430
 30
0.0
 10
22.425458
 20
35.722660
 30
0.0
  0
SPLINE
  5
153
100
AcDbEntity
  8
Layer_1
 62
7
100
AcDbSpline
 70
8
 71
3
 72
8
 73
4
 74
0
 40
0
 40
0
 40
0
 40
0
 40
1
 40
1
 40
1
 40
1
 10
22.425458
 20
35.722660
 30
0.0
 10
22.518238
 20
35.844824
 30
0.0
 10
22.617777
 20
35.966833
 30
0.0
 10
22.724199
 20
36.087917
 30
0.0
  0
SPLINE
  5
154
100
AcDbEntity
  8
Layer_1
 62
7
100
AcDbSpline
 70
8
 71
3
 72
8
 73
4
 74
0
 40
0
 40
0
 40
0
 40
0
 40
1
 40
1
 40
1
 40
1
 10
22.724199
 20
36.087917
 30
0.0
 10
22.963178
 20
36.359817
 30
0.0
 10
23.237256
 20
36.627642
 30
0.0
 10
23.544859
 20
36.882556
 30
0.0
  0
SPLINE
  5
155
100
AcDbEntity
  8
Layer_1
 62
7
100
AcDbSpline
 70
8
 71
3
 72
8
 73
4
 74
0
 40
0
 40
0
 40
0
 40
0
 40
1
 40
1
 40
1
 40
1
 10
23.544859
 20
36.882556
 30
0.0
 10
23.852457
 20
37.137461
 30
0.0
 10
24.194246
 20
37.380001
 30
0.0
 10
24.566799
 20
37.601891
 30
0.0
  0
SPLINE
  5
156
100
AcDbEntity
  8
Layer_1
 62
7
100
AcDbSpline
 70
8
 71
3
 72
8
 73
4
 74
0
 40
0
 40
0
 40
0
 40
0
 40
1
 40
1
 40
1
 40
1
 10
24.566799
 20
37.601891
 30
0.0
 10
24.630488
 20
37.639826
 30
0.0
 10
24.696348
 20
37.676310
 30
0.0
 10
24.761851
 20
37.713024
 30
0.0
  0
SPLINE
  5
157
100
AcDbEntity
  8
Layer_1
 62
7
100
AcDbSpline
 70
8
 71
3
 72
8
 73
4
 74
0
 40
0
 40
0
 40
0
 40
0
 40
1
 40
1
 40
1
 40
1
 10
24.761872
 20
34.936116
 30
0.0
 10
28.403233
 20
34.936126
 30
0.0
 10
31.895455
 20
33.489606
 30
0.0
 10
34.470286
 20
30.914776
 30
0.0
  0
SPLINE
  5
158
100
AcDbEntity
  8
Layer_1
 62
7
100
AcDbSpline
 70
8
 71
3
 72
8
 73
4
 74
0
 40
0
 40
0
 40
0
 40
0
 40
1
 40
1
 40
1
 40
1
 10
34.470286
 20
30.914776
 30
0.0
 10
37.045116
 20
28.339945
 30
0.0
 10
38.491636
 20
24.847722
 30
0.0
 10
38.491624
 20
21.206362
 30
0.0
  0
SPLINE
  5
159
100
AcDbEntity
  8
Layer_1
 62
7
100
AcDbSpline
 70
8
 71
3
 72
8
 73
4
 74
0
 40
0
 40
0
 40
0
 40
0
 40
1
 40
1
 40
1
 40
1
 10
38.491624
 20
21.206362
 30
0.0
 10
38.491630
 20
17.565013
 30
0.0
 10
37.045113
 20
14.072803
 30
0.0
 10
34.470293
 20
11.497978
 30
0.0
  0
SPLINE
  5
15a
100
AcDbEntity
  8
Layer_1
 62
7
100
AcDbSpline
 70
8
 71
3
 72
8
 73
4
 74
0
 40
0
 40
0
 40
0
 40
0
 40
1
 40
1
 40
1
 40
1
 10
34.470293
 20
11.497978
 30
0.0
 10
31.895472
 20
8.923154
 30
0.0
 10
28.403264
 20
7.476632
 30
0.0
 10
24.761916
 20
7.476631
 30
0.0
  0
SPLINE
  5
15b
100
AcDbEntity
  8
Layer_1
 62
7
100
AcDbSpline
 70
8
 71
3
 72
8
 73
4
 74
0
 40
0
 40
0
 40
0
 40
0
 40
1
 40
1
 40
1
 40
1
 10
24.761916
 20
7.476631
 30
0.0
 10
21.120567
 20
7.476632
 30
0.0
 10
17.628359
 20
8.923154
 30
0.0
 10
15.053538
 20
11.497978
 30
0.0
  0
SPLINE
  5
15c
100
AcDbEntity
  8
Layer_1
 62
7
100
AcDbSpline
 70
8
 71
3
 72
8
 73
4
 74
0
 40
0
 40
0
 40
0
 40
0
 40
1
 40
1
 40
1
 40
1
 10
15.053538
 20
11.497978
 30
0.0
 10
12.478718
 20
14.072803
 30
0.0
 10
11.032201
 20
17.565013
 30
0.0
 10
11.032207
 20
21.206362
 30
0.0
  0
SPLINE
  5
15d
100
AcDbEntity
  8
Layer_1
 62
7
100
AcDbSpline
 70
8
 71
3
 72
8
 73
4
 74
0
 40
0
 40
0
 40
0
 40
0
 40
1
 40
1
 40
1
 40
1
 10
11.032207
 20
21.206362
 30
0.0
 10
11.032207
 20
28.789071
 30
0.0
 10
17.179207
 20
34.936071
 30
0.0
 10
24.761916
 20
34.936072
 30
0.0
  0
LWPOLYLINE
  5
15e
100
AcDbEntity
  8
Layer_1
 62
7
100
AcDbPolyline
 90
3
 70
1
 10
24.761872
 20
37.713024
 30
0.0
 10
24.761872
 20
37.713024
 30
0.0
 10
24.761872
 20
37.713024
 30
0.0
  0
SPLINE
  5
15f
100
AcDbEntity
  8
Layer_1
 62
7
100
AcDbSpline
 70
8
 71
3
 72
8
 73
4
 74
0
 40
0
 40
0
 40
0
 40
0
 40
1
 40
1
 40
1
 40
1
 10
16.067037
 20
34.619752
 30
0.0
 10
16.142233
 20
34.619474
 30
0.0
 10
16.216837
 20
34.618121
 30
0.0
 10
16.290800
 20
34.615716
 30
0.0
  0
SPLINE
  5
160
100
AcDbEntity
  8
Layer_1
 62
7
100
AcDbSpline
 70
8
 71
3
 72
8
 73
4
 74
0
 40
0
 40
0
 40
0
 40
0
 40
1
 40
1
 40
1
 40
1
 10
16.290800
 20
34.615716
 30
0.0
 10
16.697198
 20
34.602497
 30
0.0
 10
17.085301
 20
34.558080
 30
0.0
 10
17.448439
 20
34.488393
 30
0.0
  0
SPLINE
  5
161
100
AcDbEntity
  8
Layer_1
 62
7
100
AcDbSpline
 70
8
 71
3
 72
8
 73
4
 74
0
 40
0
 40
0
 40
0
 40
0
 40
1
 40
1
 40
1
 40
1
 10
17.448439
 20
34.488393
 30
0.0
 10
17.679619
 20
34.444030
 30
0.0
 10
17.900970
 20
34.389320
 30
0.0
 10
18.111243
 20
34.326241
 30
0.0
  0
SPLINE
  5
162
100
AcDbEntity
  8
Layer_1
 62
7
100
AcDbSpline
 70
8
 71
3
 72
8
 73
4
 74
0
 40
0
 40
0
 40
0
 40
0
 40
1
 40
1
 40
1
 40
1
 10
18.111243
 20
34.326241
 30
0.0
 10
16.715260
 20
33.615014
 30
0.0
 10
15.441858
 20
32.685346
 30
0.0
 10
14.339172
 20
31.572378
 30
0.0
  0
SPLINE
  5
163
100
AcDbEntity
  8
Layer_1
 62
7
100
AcDbSpline
 70
8
 71
3
 72
8
 73
4
 74
0
 40
0
 40
0
 40
0
 40
0
 40
1
 40
1
 40
1
 40
1
 10
14.339172
 20
31.572378
 30
0.0
 10
14.340930
 20
31.658331
 30
0.0
 10
14.344460
 20
31.745497
 30
0.0
 10
14.349828
 20
31.833771
 30
0.0
  0
SPLINE
  5
164
100
AcDbEntity
  8
Layer_1
 62
7
100
AcDbSpline
 70
8
 71
3
 72
8
 73
4
 74
0
 40
0
 40
0
 40
0
 40
0
 40
1
 40
1
 40
1
 40
1
 10
14.349828
 20
31.833771
 30
0.0
 10
14.371321
 20
32.187237
 30
0.0
 10
14.422559
 20
32.559343
 30
0.0
 10
14.507858
 20
32.942234
 30
0.0
  0
SPLINE
  5
165
100
AcDbEntity
  8
Layer_1
 62
7
100
AcDbSpline
 70
8
 71
3
 72
8
 73
4
 74
0
 40
0
 40
0
 40
0
 40
0
 40
1
 40
1
 40
1
 40
1
 10
14.507858
 20
32.942234
 30
0.0
 10
14.593151
 20
33.325109
 30
0.0
 10
14.712681
 20
33.719598
 30
0.0
 10
14.868926
 20
34.117083
 30
0.0
  0
SPLINE
  5
166
100
AcDbEntity
  8
Layer_1
 62
7
100
AcDbSpline
 70
8
 71
3
 72
8
 73
4
 74
0
 40
0
 40
0
 40
0
 40
0
 40
1
 40
1
 40
1
 40
1
 10
14.868926
 20
34.117083
 30
0.0
 10
14.926998
 20
34.264820
 30
0.0
 10
14.991941
 20
34.413102
 30
0.0
 10
15.060267
 20
34.561419
 30
0.0
  0
SPLINE
  5
167
100
AcDbEntity
  8
Layer_1
 62
7
100
AcDbSpline
 70
8
 71
3
 72
8
 73
4
 74
0
 40
0
 40
0
 40
0
 40
0
 40
1
 40
1
 40
1
 40
1
 10
15.060267
 20
34.561419
 30
0.0
 10
15.404229
 20
34.601959
 30
0.0
 10
15.741186
 20
34.620943
 30
0.0
 10
16.067037
 20
34.619752
 30
0.0
  0
LWPOLYLINE
  5
168
100
AcDbEntity
  8
Layer_1
 62
7
100
AcDbPolyline
 90
2
 70
1
 10
24.761916
 20
34.936072
 30
0.0
 10
24.761872
 20
34.936116
 30
0.0
  0
SPLINE
  5
169
100
AcDbEntity
  8
Layer_1
 62
7
100
AcDbSpline
 70
8
 71
3
 72
8
 73
4
 74
0
 40
0
 40
0
 40
0
 40
0
 40
1
 40
1
 40
1
 40
1
 10
33.456794
 20
34.619641
 30
0.0
 10
33.782652
 20
34.620833
 30
0.0
 10
34.119621
 20
34.601850
 30
0.0
 10
34.463587
 20
34.561308
 30
0.0
  0
SPLINE
  5
16a
100
AcDbEntity
  8
Layer_1
 62
7
100
AcDbSpline
 70
8
 71
3
 72
8
 73
4
 74
0
 40
0
 40
0
 40
0
 40
0
 40
1
 40
1
 40
1
 40
1
 10
34.463587
 20
34.561308
 30
0.0
 10
34.531913
 20
34.412992
 30
0.0
 10
34.596833
 20
34.264708
 30
0.0
 10
34.654906
 20
34.116972
 30
0.0
  0
SPLINE
  5
16b
100
AcDbEntity
  8
Layer_1
 62
7
100
AcDbSpline
 70
8
 71
3
 72
8
 73
4
 74
0
 40
0
 40
0
 40
0
 40
0
 40
1
 40
1
 40
1
 40
1
 10
34.654906
 20
34.116972
 30
0.0
 10
34.811150
 20
33.719487
 30
0.0
 10
34.930680
 20
33.324999
 30
0.0
 10
35.015973
 20
32.942124
 30
0.0
  0
SPLINE
  5
16c
100
AcDbEntity
  8
Layer_1
 62
7
100
AcDbSpline
 70
8
 71
3
 72
8
 73
4
 74
0
 40
0
 40
0
 40
0
 40
0
 40
1
 40
1
 40
1
 40
1
 10
35.015973
 20
32.942124
 30
0.0
 10
35.101270
 20
32.559231
 30
0.0
 10
35.152532
 20
32.187122
 30
0.0
 10
35.174024
 20
31.833661
 30
0.0
  0
SPLINE
  5
16d
100
AcDbEntity
  8
Layer_1
 62
7
100
AcDbSpline
 70
8
 71
3
 72
8
 73
4
 74
0
 40
0
 40
0
 40
0
 40
0
 40
1
 40
1
 40
1
 40
1
 10
35.174024
 20
31.833661
 30
0.0
 10
35.179311
 20
31.746726
 30
0.0
 10
35.182790
 20
31.660880
 30
0.0
 10
35.184572
 20
31.576196
 30
0.0
  0
SPLINE
  5
16e
100
AcDbEntity
  8
Layer_1
 62
7
100
AcDbSpline
 70
8
 71
3
 72
8
 73
4
 74
0
 40
0
 40
0
 40
0
 40
0
 40
1
 40
1
 40
1
 40
1
 10
35.184572
 20
31.576196
 30
0.0
 10
34.074975
 20
32.687324
 30
0.0
 10
32.794627
 20
33.613625
 30
0.0
 10
31.392146
 20
34.319923
 30
0.0
  0
SPLINE
  5
16f
100
AcDbEntity
  8
Layer_1
 62
7
100
AcDbSpline
 70
8
 71
3
 72
8
 73
4
 74
0
 40
0
 40
0
 40
0
 40
0
 40
1
 40
1
 40
1
 40
1
 10
31.392146
 20
34.319923
 30
0.0
 10
31.608508
 20
34.385617
 30
0.0
 10
31.836694
 20
34.442477
 30
0.0
 10
32.075392
 20
34.488283
 30
0.0
  0
SPLINE
  5
170
100
AcDbEntity
  8
Layer_1
 62
7
100
AcDbSpline
 70
8
 71
3
 72
8
 73
4
 74
0
 40
0
 40
0
 40
0
 40
0
 40
1
 40
1
 40
1
 40
1
 10
32.075392
 20
34.488283
 30
0.0
 10
32.438530
 20
34.557970
 30
0.0
 10
32.826634
 20
34.602387
 30
0.0
 10
33.233031
 20
34.615606
 30
0.0
  0
SPLINE
  5
171
100
AcDbEntity
  8
Layer_1
 62
7
100
AcDbSpline
 70
8
 71
3
 72
8
 73
4
 74
0
 40
0
 40
0
 40
0
 40
0
 40
1
 40
1
 40
1
 40
1
 10
33.233031
 20
34.615606
 30
0.0
 10
33.306996
 20
34.618011
 30
0.0
 10
33.381596
 20
34.619367
 30
0.0
 10
33.456794
 20
34.619641
 30
0.0
  0
LWPOLYLINE
  5
172
100
AcDbEntity
  8
Layer_1
 62
7
100
AcDbPolyline
 90
2
 70
1
 10
16.067037
 20
34.619752
 30
0.0
 10
16.067037
 20
34.619752
 30
0.0
  0
SPLINE
  5
173
100
AcDbEntity
  8
Layer_1
 62
7
100
AcDbSpline
 70
8
 71
3
 72
8
 73
4
 74
0
 40
0
 40
0
 40
0
 40
0
 40
1
 40
1
 40
1
 40
1
 10
13.294402
 20
34.167840
 30
0.0
 10
13.194381
 20
33.865793
 30
0.0
 10
13.109750
 20
33.565148
 30
0.0
 10
13.043621
 20
33.268297
 30
0.0
  0
SPLINE
  5
174
100
AcDbEntity
  8
Layer_1
 62
7
100
AcDbSpline
 70
8
 71
3
 72
8
 73
4
 74
0
 40
0
 40
0
 40
0
 40
0
 40
1
 40
1
 40
1
 40
1
 10
13.043621
 20
33.268297
 30
0.0
 10
12.941226
 20
32.808653
 30
0.0
 10
12.878834
 20
32.358559
 30
0.0
 10
12.852453
 20
31.924720
 30
0.0
  0
SPLINE
  5
175
100
AcDbEntity
  8
Layer_1
 62
7
100
AcDbSpline
 70
8
 71
3
 72
8
 73
4
 74
0
 40
0
 40
0
 40
0
 40
0
 40
1
 40
1
 40
1
 40
1
 10
12.852453
 20
31.924720
 30
0.0
 10
12.826074
 20
31.490903
 30
0.0
 10
12.835721
 20
31.074257
 30
0.0
 10
12.876108
 20
30.680297
 30
0.0
  0
SPLINE
  5
176
100
AcDbEntity
  8
Layer_1
 62
7
100
AcDbSpline
 70
8
 71
3
 72
8
 73
4
 74
0
 40
0
 40
0
 40
0
 40
0
 40
1
 40
1
 40
1
 40
1
 10
12.876108
 20
30.680297
 30
0.0
 10
12.900679
 20
30.440622
 30
0.0
 10
12.937371
 20
30.210521
 30
0.0
 10
12.983551
 20
29.989607
 30
0.0
  0
SPLINE
  5
177
100
AcDbEntity
  8
Layer_1
 62
7
100
AcDbSpline
 70
8
 71
3
 72
8
 73
4
 74
0
 40
0
 40
0
 40
0
 40
0
 40
1
 40
1
 40
1
 40
1
 10
12.983551
 20
29.989607
 30
0.0
 10
12.907375
 20
29.891982
 30
0.0
 10
12.832434
 20
29.793399
 30
0.0
 10
12.758747
 20
29.693882
 30
0.0
  0
SPLINE
  5
178
100
AcDbEntity
  8
Layer_1
 62
7
100
AcDbSpline
 70
8
 71
3
 72
8
 73
4
 74
0
 40
0
 40
0
 40
0
 40
0
 40
1
 40
1
 40
1
 40
1
 10
12.758747
 20
29.693882
 30
0.0
 10
12.685398
 20
29.685831
 30
0.0
 10
12.611412
 20
29.676509
 30
0.0
 10
12.536677
 20
29.665583
 30
0.0
  0
SPLINE
  5
179
100
AcDbEntity
  8
Layer_1
 62
7
100
AcDbSpline
 70
8
 71
3
 72
8
 73
4
 74
0
 40
0
 40
0
 40
0
 40
0
 40
1
 40
1
 40
1
 40
1
 10
12.536677
 20
29.665583
 30
0.0
 10
12.160608
 20
29.610603
 30
0.0
 10
11.769649
 20
29.521017
 30
0.0
 10
11.370271
 20
29.392928
 30
0.0
  0
SPLINE
  5
17a
100
AcDbEntity
  8
Layer_1
 62
7
100
AcDbSpline
 70
8
 71
3
 72
8
 73
4
 74
0
 40
0
 40
0
 40
0
 40
0
 40
1
 40
1
 40
1
 40
1
 10
11.370271
 20
29.392928
 30
0.0
 10
10.970869
 20
29.264828
 30
0.0
 10
10.563936
 20
29.098470
 30
0.0
 10
10.156837
 20
28.891473
 30
0.0
  0
SPLINE
  5
17b
100
AcDbEntity
  8
Layer_1
 62
7
100
AcDbSpline
 70
8
 71
3
 72
8
 73
4
 74
0
 40
0
 40
0
 40
0
 40
0
 40
1
 40
1
 40
1
 40
1
 10
10.156837
 20
28.891473
 30
0.0
 10
9.749719
 20
28.684463
 30
0.0
 10
9.343234
 20
28.437177
 30
0.0
 10
8.945292
 20
28.148939
 30
0.0
  0
SPLINE
  5
17c
100
AcDbEntity
  8
Layer_1
 62
7
100
AcDbSpline
 70
8
 71
3
 72
8
 73
4
 74
0
 40
0
 40
0
 40
0
 40
0
 40
1
 40
1
 40
1
 40
1
 10
8.945292
 20
28.148939
 30
0.0
 10
8.927393
 20
28.135973
 30
0.0
 10
8.909788
 20
28.121811
 30
0.0
 10
8.891928
 20
28.108682
 30
0.0
  0
SPLINE
  5
17d
100
AcDbEntity
  8
Layer_1
 62
7
100
AcDbSpline
 70
8
 71
3
 72
8
 73
4
 74
0
 40
0
 40
0
 40
0
 40
0
 40
1
 40
1
 40
1
 40
1
 10
8.891928
 20
28.108682
 30
0.0
 10
8.892117
 20
28.162522
 30
0.0
 10
8.891073
 20
28.215917
 30
0.0
 10
8.892184
 20
28.270076
 30
0.0
  0
SPLINE
  5
17e
100
AcDbEntity
  8
Layer_1
 62
7
100
AcDbSpline
 70
8
 71
3
 72
8
 73
4
 74
0
 40
0
 40
0
 40
0
 40
0
 40
1
 40
1
 40
1
 40
1
 10
8.892184
 20
28.270076
 30
0.0
 10
8.902055
 20
28.750700
 30
0.0
 10
8.948672
 20
29.244256
 30
0.0
 10
9.034609
 20
29.742081
 30
0.0
  0
SPLINE
  5
17f
100
AcDbEntity
  8
Layer_1
 62
7
100
AcDbSpline
 70
8
 71
3
 72
8
 73
4
 74
0
 40
0
 40
0
 40
0
 40
0
 40
1
 40
1
 40
1
 40
1
 10
9.034609
 20
29.742081
 30
0.0
 10
9.120546
 20
30.239899
 30
0.0
 10
9.245950
 20
30.742767
 30
0.0
 10
9.411476
 20
31.241626
 30
0.0
  0
SPLINE
  5
180
100
AcDbEntity
  8
Layer_1
 62
7
100
AcDbSpline
 70
8
 71
3
 72
8
 73
4
 74
0
 40
0
 40
0
 40
0
 40
0
 40
1
 40
1
 40
1
 40
1
 10
9.411476
 20
31.241626
 30
0.0
 10
9.509080
 20
31.535783
 30
0.0
 10
9.622415
 20
31.828432
 30
0.0
 10
9.747826
 20
32.118470
 30
0.0
  0
SPLINE
  5
181
100
AcDbEntity
  8
Layer_1
 62
7
100
AcDbSpline
 70
8
 71
3
 72
8
 73
4
 74
0
 40
0
 40
0
 40
0
 40
0
 40
1
 40
1
 40
1
 40
1
 10
9.747826
 20
32.118470
 30
0.0
 10
10.144319
 20
32.467464
 30
0.0
 10
10.560742
 20
32.782744
 30
0.0
 10
10.989384
 20
33.060440
 30
0.0
  0
SPLINE
  5
182
100
AcDbEntity
  8
Layer_1
 62
7
100
AcDbSpline
 70
8
 71
3
 72
8
 73
4
 74
0
 40
0
 40
0
 40
0
 40
0
 40
1
 40
1
 40
1
 40
1
 10
10.989384
 20
33.060440
 30
0.0
 10
11.424070
 20
33.342050
 30
0.0
 10
11.871752
 20
33.585808
 30
0.0
 10
12.323499
 20
33.790301
 30
0.0
  0
SPLINE
  5
183
100
AcDbEntity
  8
Layer_1
 62
7
100
AcDbSpline
 70
8
 71
3
 72
8
 73
4
 74
0
 40
0
 40
0
 40
0
 40
0
 40
1
 40
1
 40
1
 40
1
 10
12.323499
 20
33.790301
 30
0.0
 10
12.645801
 20
33.936197
 30
0.0
 10
12.970507
 20
34.061361
 30
0.0
 10
13.294398
 20
34.167840
 30
0.0
  0
LWPOLYLINE
  5
184
100
AcDbEntity
  8
Layer_1
 62
7
100
AcDbPolyline
 90
2
 70
1
 10
33.456794
 20
34.619641
 30
0.0
 10
33.456794
 20
34.619641
 30
0.0
  0
SPLINE
  5
185
100
AcDbEntity
  8
Layer_1
 62
7
100
AcDbSpline
 70
8
 71
3
 72
8
 73
4
 74
0
 40
0
 40
0
 40
0
 40
0
 40
1
 40
1
 40
1
 40
1
 10
36.229363
 20
34.167840
 30
0.0
 10
36.553241
 20
34.061363
 30
0.0
 10
36.877930
 20
33.936212
 30
0.0
 10
37.200219
 20
33.790322
 30
0.0
  0
SPLINE
  5
186
100
AcDbEntity
  8
Layer_1
 62
7
100
AcDbSpline
 70
8
 71
3
 72
8
 73
4
 74
0
 40
0
 40
0
 40
0
 40
0
 40
1
 40
1
 40
1
 40
1
 10
37.200219
 20
33.790322
 30
0.0
 10
37.651966
 20
33.585829
 30
0.0
 10
38.099646
 20
33.342071
 30
0.0
 10
38.534333
 20
33.060461
 30
0.0
  0
SPLINE
  5
187
100
AcDbEntity
  8
Layer_1
 62
7
100
AcDbSpline
 70
8
 71
3
 72
8
 73
4
 74
0
 40
0
 40
0
 40
0
 40
0
 40
1
 40
1
 40
1
 40
1
 10
38.534333
 20
33.060461
 30
0.0
 10
38.962962
 20
32.782773
 30
0.0
 10
39.379384
 20
32.467497
 30
0.0
 10
39.775870
 20
32.118512
 30
0.0
  0
SPLINE
  5
188
100
AcDbEntity
  8
Layer_1
 62
7
100
AcDbSpline
 70
8
 71
3
 72
8
 73
4
 74
0
 40
0
 40
0
 40
0
 40
0
 40
1
 40
1
 40
1
 40
1
 10
39.775870
 20
32.118512
 30
0.0
 10
39.901286
 20
31.828466
 30
0.0
 10
40.014654
 20
31.535813
 30
0.0
 10
40.112263
 20
31.241647
 30
0.0
  0
SPLINE
  5
189
100
AcDbEntity
  8
Layer_1
 62
7
100
AcDbSpline
 70
8
 71
3
 72
8
 73
4
 74
0
 40
0
 40
0
 40
0
 40
0
 40
1
 40
1
 40
1
 40
1
 10
40.112263
 20
31.241647
 30
0.0
 10
40.277788
 20
30.742784
 30
0.0
 10
40.403192
 20
30.239920
 30
0.0
 10
40.489129
 20
29.742102
 30
0.0
  0
SPLINE
  5
18a
100
AcDbEntity
  8
Layer_1
 62
7
100
AcDbSpline
 70
8
 71
3
 72
8
 73
4
 74
0
 40
0
 40
0
 40
0
 40
0
 40
1
 40
1
 40
1
 40
1
 10
40.489129
 20
29.742102
 30
0.0
 10
40.575068
 20
29.244277
 30
0.0
 10
40.621662
 20
28.750722
 30
0.0
 10
40.631533
 20
28.270097
 30
0.0
  0
SPLINE
  5
18b
100
AcDbEntity
  8
Layer_1
 62
7
100
AcDbSpline
 70
8
 71
3
 72
8
 73
4
 74
0
 40
0
 40
0
 40
0
 40
0
 40
1
 40
1
 40
1
 40
1
 10
40.631533
 20
28.270097
 30
0.0
 10
40.632646
 20
28.215938
 30
0.0
 10
40.631644
 20
28.162543
 30
0.0
 10
40.631811
 20
28.108703
 30
0.0
  0
SPLINE
  5
18c
100
AcDbEntity
  8
Layer_1
 62
7
100
AcDbSpline
 70
8
 71
3
 72
8
 73
4
 74
0
 40
0
 40
0
 40
0
 40
0
 40
1
 40
1
 40
1
 40
1
 10
40.631811
 20
28.108703
 30
0.0
 10
40.613942
 20
28.121838
 30
0.0
 10
40.596333
 20
28.136011
 30
0.0
 10
40.578426
 20
28.148981
 30
0.0
  0
SPLINE
  5
18d
100
AcDbEntity
  8
Layer_1
 62
7
100
AcDbSpline
 70
8
 71
3
 72
8
 73
4
 74
0
 40
0
 40
0
 40
0
 40
0
 40
1
 40
1
 40
1
 40
1
 10
40.578426
 20
28.148981
 30
0.0
 10
40.180483
 20
28.437220
 30
0.0
 10
39.774019
 20
28.684507
 30
0.0
 10
39.366902
 20
28.891516
 30
0.0
  0
SPLINE
  5
18e
100
AcDbEntity
  8
Layer_1
 62
7
100
AcDbSpline
 70
8
 71
3
 72
8
 73
4
 74
0
 40
0
 40
0
 40
0
 40
0
 40
1
 40
1
 40
1
 40
1
 10
39.366902
 20
28.891516
 30
0.0
 10
38.959802
 20
29.098512
 30
0.0
 10
38.552871
 20
29.264870
 30
0.0
 10
38.153469
 20
29.392970
 30
0.0
  0
SPLINE
  5
18f
100
AcDbEntity
  8
Layer_1
 62
7
100
AcDbSpline
 70
8
 71
3
 72
8
 73
4
 74
0
 40
0
 40
0
 40
0
 40
0
 40
1
 40
1
 40
1
 40
1
 10
38.153469
 20
29.392970
 30
0.0
 10
37.754090
 20
29.521060
 30
0.0
 10
37.363150
 20
29.610648
 30
0.0
 10
36.987084
 20
29.665627
 30
0.0
  0
SPLINE
  5
190
100
AcDbEntity
  8
Layer_1
 62
7
100
AcDbSpline
 70
8
 71
3
 72
8
 73
4
 74
0
 40
0
 40
0
 40
0
 40
0
 40
1
 40
1
 40
1
 40
1
 10
36.987084
 20
29.665627
 30
0.0
 10
36.908448
 20
29.677122
 30
0.0
 10
36.830638
 20
29.686860
 30
0.0
 10
36.753534
 20
29.695183
 30
0.0
  0
SPLINE
  5
191
100
AcDbEntity
  8
Layer_1
 62
7
100
AcDbSpline
 70
8
 71
3
 72
8
 73
4
 74
0
 40
0
 40
0
 40
0
 40
0
 40
1
 40
1
 40
1
 40
1
 10
36.753534
 20
29.695183
 30
0.0
 10
36.683864
 20
29.795215
 30
0.0
 10
36.612953
 20
29.894376
 30
0.0
 10
36.540818
 20
29.992644
 30
0.0
  0
SPLINE
  5
192
100
AcDbEntity
  8
Layer_1
 62
7
100
AcDbSpline
 70
8
 71
3
 72
8
 73
4
 74
0
 40
0
 40
0
 40
0
 40
0
 40
1
 40
1
 40
1
 40
1
 10
36.540818
 20
29.992644
 30
0.0
 10
36.586703
 20
30.212648
 30
0.0
 10
36.623193
 20
30.441746
 30
0.0
 10
36.647653
 20
30.680340
 30
0.0
  0
SPLINE
  5
193
100
AcDbEntity
  8
Layer_1
 62
7
100
AcDbSpline
 70
8
 71
3
 72
8
 73
4
 74
0
 40
0
 40
0
 40
0
 40
0
 40
1
 40
1
 40
1
 40
1
 10
36.647653
 20
30.680340
 30
0.0
 10
36.688041
 20
31.074297
 30
0.0
 10
36.697686
 20
31.490934
 30
0.0
 10
36.671308
 20
31.924741
 30
0.0
  0
SPLINE
  5
194
100
AcDbEntity
  8
Layer_1
 62
7
100
AcDbSpline
 70
8
 71
3
 72
8
 73
4
 74
0
 40
0
 40
0
 40
0
 40
0
 40
1
 40
1
 40
1
 40
1
 10
36.671308
 20
31.924741
 30
0.0
 10
36.644928
 20
32.358577
 30
0.0
 10
36.582554
 20
32.808684
 30
0.0
 10
36.480162
 20
33.268318
 30
0.0
  0
SPLINE
  5
195
100
AcDbEntity
  8
Layer_1
 62
7
100
AcDbSpline
 70
8
 71
3
 72
8
 73
4
 74
0
 40
0
 40
0
 40
0
 40
0
 40
1
 40
1
 40
1
 40
1
 10
36.480162
 20
33.268318
 30
0.0
 10
36.414033
 20
33.565162
 30
0.0
 10
36.329378
 20
33.865800
 30
0.0
 10
36.229359
 20
34.167840
 30
0.0
  0
LWPOLYLINE
  5
196
100
AcDbEntity
  8
Layer_1
 62
7
100
AcDbPolyline
 90
2
 70
1
 10
13.294398
 20
34.167840
 30
0.0
 10
13.294402
 20
34.167840
 30
0.0
  0
SPLINE
  5
197
100
AcDbEntity
  8
Layer_1
 62
7
100
AcDbSpline
 70
8
 71
3
 72
8
 73
4
 74
0
 40
0
 40
0
 40
0
 40
0
 40
1
 40
1
 40
1
 40
1
 10
42.062219
 20
29.314867
 30
0.0
 10
42.288791
 20
28.921401
 30
0.0
 10
42.494072
 20
28.513247
 30
0.0
 10
42.673157
 20
28.092927
 30
0.0
  0
SPLINE
  5
198
100
AcDbEntity
  8
Layer_1
 62
7
100
AcDbSpline
 70
8
 71
3
 72
8
 73
4
 74
0
 40
0
 40
0
 40
0
 40
0
 40
1
 40
1
 40
1
 40
1
 10
42.673157
 20
28.092927
 30
0.0
 10
42.894123
 20
27.574307
 30
0.0
 10
43.077302
 20
27.037703
 30
0.0
 10
43.219663
 20
26.491777
 30
0.0
  0
SPLINE
  5
199
100
AcDbEntity
  8
Layer_1
 62
7
100
AcDbSpline
 70
8
 71
3
 72
8
 73
4
 74
0
 40
0
 40
0
 40
0
 40
0
 40
1
 40
1
 40
1
 40
1
 10
43.219663
 20
26.491777
 30
0.0
 10
43.362021
 20
25.945854
 30
0.0
 10
43.463752
 20
25.389889
 30
0.0
 10
43.523764
 20
24.832944
 30
0.0
  0
SPLINE
  5
19a
100
AcDbEntity
  8
Layer_1
 62
7
100
AcDbSpline
 70
8
 71
3
 72
8
 73
4
 74
0
 40
0
 40
0
 40
0
 40
0
 40
1
 40
1
 40
1
 40
1
 10
43.523764
 20
24.832944
 30
0.0
 10
43.524431
 20
24.826799
 30
0.0
 10
43.524764
 20
24.820644
 30
0.0
 10
43.525413
 20
24.814498
 30
0.0
  0
SPLINE
  5
19b
100
AcDbEntity
  8
Layer_1
 62
7
100
AcDbSpline
 70
8
 71
3
 72
8
 73
4
 74
0
 40
0
 40
0
 40
0
 40
0
 40
1
 40
1
 40
1
 40
1
 10
43.525413
 20
24.814498
 30
0.0
 10
43.299016
 20
25.212497
 30
0.0
 10
43.053427
 20
25.591101
 30
0.0
 10
42.790214
 20
25.946096
 30
0.0
  0
SPLINE
  5
19c
100
AcDbEntity
  8
Layer_1
 62
7
100
AcDbSpline
 70
8
 71
3
 72
8
 73
4
 74
0
 40
0
 40
0
 40
0
 40
0
 40
1
 40
1
 40
1
 40
1
 10
42.790214
 20
25.946096
 30
0.0
 10
42.558594
 20
26.258481
 30
0.0
 10
42.313781
 20
26.551961
 30
0.0
 10
42.059550
 20
26.827583
 30
0.0
  0
SPLINE
  5
19d
100
AcDbEntity
  8
Layer_1
 62
7
100
AcDbSpline
 70
8
 71
3
 72
8
 73
4
 74
0
 40
0
 40
0
 40
0
 40
0
 40
1
 40
1
 40
1
 40
1
 10
42.059550
 20
26.827583
 30
0.0
 10
42.115516
 20
27.305300
 30
0.0
 10
42.141569
 20
27.797590
 30
0.0
 10
42.131230
 20
28.300934
 30
0.0
  0
SPLINE
  5
19e
100
AcDbEntity
  8
Layer_1
 62
7
100
AcDbSpline
 70
8
 71
3
 72
8
 73
4
 74
0
 40
0
 40
0
 40
0
 40
0
 40
1
 40
1
 40
1
 40
1
 10
42.131230
 20
28.300934
 30
0.0
 10
42.124364
 20
28.635162
 30
0.0
 10
42.100222
 20
28.973910
 30
0.0
 10
42.062219
 20
29.314867
 30
0.0
  0
LWPOLYLINE
  5
19f
100
AcDbEntity
  8
Layer_1
 62
7
100
AcDbPolyline
 90
2
 70
1
 10
36.229359
 20
34.167840
 30
0.0
 10
36.229363
 20
34.167840
 30
0.0
  0
SPLINE
  5
1a0
100
AcDbEntity
  8
Layer_1
 62
7
100
AcDbSpline
 70
8
 71
3
 72
8
 73
4
 74
0
 40
0
 40
0
 40
0
 40
0
 40
1
 40
1
 40
1
 40
1
 10
7.461524
 20
29.314867
 30
0.0
 10
7.423522
 20
28.973910
 30
0.0
 10
7.399357
 20
28.635162
 30
0.0
 10
7.392493
 20
28.300933
 30
0.0
  0
SPLINE
  5
1a1
100
AcDbEntity
  8
Layer_1
 62
7
100
AcDbSpline
 70
8
 71
3
 72
8
 73
4
 74
0
 40
0
 40
0
 40
0
 40
0
 40
1
 40
1
 40
1
 40
1
 10
7.392493
 20
28.300933
 30
0.0
 10
7.382154
 20
27.797597
 30
0.0
 10
7.408230
 20
27.305313
 30
0.0
 10
7.464194
 20
26.827604
 30
0.0
  0
SPLINE
  5
1a2
100
AcDbEntity
  8
Layer_1
 62
7
100
AcDbSpline
 70
8
 71
3
 72
8
 73
4
 74
0
 40
0
 40
0
 40
0
 40
0
 40
1
 40
1
 40
1
 40
1
 10
7.464194
 20
26.827604
 30
0.0
 10
7.209957
 20
26.551977
 30
0.0
 10
6.965133
 20
26.258489
 30
0.0
 10
6.733508
 20
25.946094
 30
0.0
  0
SPLINE
  5
1a3
100
AcDbEntity
  8
Layer_1
 62
7
100
AcDbSpline
 70
8
 71
3
 72
8
 73
4
 74
0
 40
0
 40
0
 40
0
 40
0
 40
1
 40
1
 40
1
 40
1
 10
6.733508
 20
25.946094
 30
0.0
 10
6.470295
 20
25.591099
 30
0.0
 10
6.224706
 20
25.212494
 30
0.0
 10
5.998308
 20
24.814497
 30
0.0
  0
SPLINE
  5
1a4
100
AcDbEntity
  8
Layer_1
 62
7
100
AcDbSpline
 70
8
 71
3
 72
8
 73
4
 74
0
 40
0
 40
0
 40
0
 40
0
 40
1
 40
1
 40
1
 40
1
 10
5.998308
 20
24.814497
 30
0.0
 10
5.998964
 20
24.820637
 30
0.0
 10
5.999297
 20
24.826783
 30
0.0
 10
5.999957
 20
24.832922
 30
0.0
  0
SPLINE
  5
1a5
100
AcDbEntity
  8
Layer_1
 62
7
100
AcDbSpline
 70
8
 71
3
 72
8
 73
4
 74
0
 40
0
 40
0
 40
0
 40
0
 40
1
 40
1
 40
1
 40
1
 10
5.999957
 20
24.832922
 30
0.0
 10
6.059972
 20
25.389860
 30
0.0
 10
6.161724
 20
25.945839
 30
0.0
 10
6.304080
 20
26.491754
 30
0.0
  0
SPLINE
  5
1a6
100
AcDbEntity
  8
Layer_1
 62
7
100
AcDbSpline
 70
8
 71
3
 72
8
 73
4
 74
0
 40
0
 40
0
 40
0
 40
0
 40
1
 40
1
 40
1
 40
1
 10
6.304080
 20
26.491754
 30
0.0
 10
6.446439
 20
27.037680
 30
0.0
 10
6.629598
 20
27.574284
 30
0.0
 10
6.850565
 20
28.092904
 30
0.0
  0
SPLINE
  5
1a7
100
AcDbEntity
  8
Layer_1
 62
7
100
AcDbSpline
 70
8
 71
3
 72
8
 73
4
 74
0
 40
0
 40
0
 40
0
 40
0
 40
1
 40
1
 40
1
 40
1
 10
6.850565
 20
28.092904
 30
0.0
 10
7.029654
 20
28.513233
 30
0.0
 10
7.234947
 20
28.921393
 30
0.0
 10
7.461524
 20
29.314867
 30
0.0
  0
LWPOLYLINE
  5
1a8
100
AcDbEntity
  8
Layer_1
 62
7
100
AcDbPolyline
 90
2
 70
1
 10
42.062219
 20
29.314867
 30
0.0
 10
42.062219
 20
29.314867
 30
0.0
  0
SPLINE
  5
1a9
100
AcDbEntity
  8
Layer_1
 62
7
100
AcDbSpline
 70
8
 71
3
 72
8
 73
4
 74
0
 40
0
 40
0
 40
0
 40
0
 40
1
 40
1
 40
1
 40
1
 10
11.687307
 20
27.917449
 30
0.0
 10
10.970598
 20
26.517454
 30
0.0
 10
10.483041
 20
25.011581
 30
0.0
 10
10.243208
 20
23.457188
 30
0.0
  0
SPLINE
  5
1aa
100
AcDbEntity
  8
Layer_1
 62
7
100
AcDbSpline
 70
8
 71
3
 72
8
 73
4
 74
0
 40
0
 40
0
 40
0
 40
0
 40
1
 40
1
 40
1
 40
1
 10
10.243208
 20
23.457188
 30
0.0
 10
10.231316
 20
23.474220
 30
0.0
 10
10.219468
 20
23.491353
 30
0.0
 10
10.207662
 20
23.508621
 30
0.0
  0
SPLINE
  5
1ab
100
AcDbEntity
  8
Layer_1
 62
7
100
AcDbSpline
 70
8
 71
3
 72
8
 73
4
 74
0
 40
0
 40
0
 40
0
 40
0
 40
1
 40
1
 40
1
 40
1
 10
10.207662
 20
23.508621
 30
0.0
 10
10.012304
 20
23.794324
 30
0.0
 10
9.828415
 20
24.112977
 30
0.0
 10
9.664280
 20
24.461138
 30
0.0
  0
SPLINE
  5
1ac
100
AcDbEntity
  8
Layer_1
 62
7
100
AcDbSpline
 70
8
 71
3
 72
8
 73
4
 74
0
 40
0
 40
0
 40
0
 40
0
 40
1
 40
1
 40
1
 40
1
 10
9.664280
 20
24.461138
 30
0.0
 10
9.500153
 20
24.809282
 30
0.0
 10
9.355433
 20
25.187708
 30
0.0
 10
9.237370
 20
25.591194
 30
0.0
  0
SPLINE
  5
1ad
100
AcDbEntity
  8
Layer_1
 62
7
100
AcDbSpline
 70
8
 71
3
 72
8
 73
4
 74
0
 40
0
 40
0
 40
0
 40
0
 40
1
 40
1
 40
1
 40
1
 10
9.237370
 20
25.591194
 30
0.0
 10
9.169868
 20
25.821891
 30
0.0
 10
9.112154
 20
26.061869
 30
0.0
 10
9.063065
 20
26.308230
 30
0.0
  0
SPLINE
  5
1ae
100
AcDbEntity
  8
Layer_1
 62
7
100
AcDbSpline
 70
8
 71
3
 72
8
 73
4
 74
0
 40
0
 40
0
 40
0
 40
0
 40
1
 40
1
 40
1
 40
1
 10
9.063065
 20
26.308230
 30
0.0
 10
9.311847
 20
26.537971
 30
0.0
 10
9.567202
 20
26.747201
 30
0.0
 10
9.825413
 20
26.934228
 30
0.0
  0
SPLINE
  5
1af
100
AcDbEntity
  8
Layer_1
 62
7
100
AcDbSpline
 70
8
 71
3
 72
8
 73
4
 74
0
 40
0
 40
0
 40
0
 40
0
 40
1
 40
1
 40
1
 40
1
 10
9.825413
 20
26.934228
 30
0.0
 10
10.160358
 20
27.176837
 30
0.0
 10
10.500490
 20
27.383422
 30
0.0
 10
10.836893
 20
27.554476
 30
0.0
  0
SPLINE
  5
1b0
100
AcDbEntity
  8
Layer_1
 62
7
100
AcDbSpline
 70
8
 71
3
 72
8
 73
4
 74
0
 40
0
 40
0
 40
0
 40
0
 40
1
 40
1
 40
1
 40
1
 10
10.836893
 20
27.554476
 30
0.0
 10
11.124363
 20
27.700644
 30
0.0
 10
11.409620
 20
27.821077
 30
0.0
 10
11.687350
 20
27.917453
 30
0.0
  0
LWPOLYLINE
  5
1b1
100
AcDbEntity
  8
Layer_1
 62
7
100
AcDbPolyline
 90
2
 70
1
 10
7.461524
 20
29.314867
 30
0.0
 10
7.461524
 20
29.314867
 30
0.0
  0
SPLINE
  5
1b2
100
AcDbEntity
  8
Layer_1
 62
7
100
AcDbSpline
 70
8
 71
3
 72
8
 73
4
 74
0
 40
0
 40
0
 40
0
 40
0
 40
1
 40
1
 40
1
 40
1
 10
37.853191
 20
27.911589
 30
0.0
 10
38.125668
 20
27.816192
 30
0.0
 10
38.405276
 20
27.697677
 30
0.0
 10
38.687002
 20
27.554428
 30
0.0
  0
SPLINE
  5
1b3
100
AcDbEntity
  8
Layer_1
 62
7
100
AcDbSpline
 70
8
 71
3
 72
8
 73
4
 74
0
 40
0
 40
0
 40
0
 40
0
 40
1
 40
1
 40
1
 40
1
 10
38.687002
 20
27.554428
 30
0.0
 10
39.023406
 20
27.383374
 30
0.0
 10
39.363561
 20
27.176788
 30
0.0
 10
39.698504
 20
26.934180
 30
0.0
  0
SPLINE
  5
1b4
100
AcDbEntity
  8
Layer_1
 62
7
100
AcDbSpline
 70
8
 71
3
 72
8
 73
4
 74
0
 40
0
 40
0
 40
0
 40
0
 40
1
 40
1
 40
1
 40
1
 10
39.698504
 20
26.934180
 30
0.0
 10
39.956716
 20
26.747153
 30
0.0
 10
40.212049
 20
26.537923
 30
0.0
 10
40.460830
 20
26.308182
 30
0.0
  0
SPLINE
  5
1b5
100
AcDbEntity
  8
Layer_1
 62
7
100
AcDbSpline
 70
8
 71
3
 72
8
 73
4
 74
0
 40
0
 40
0
 40
0
 40
0
 40
1
 40
1
 40
1
 40
1
 10
40.460830
 20
26.308182
 30
0.0
 10
40.411741
 20
26.061822
 30
0.0
 10
40.354049
 20
25.821842
 30
0.0
 10
40.286547
 20
25.591147
 30
0.0
  0
SPLINE
  5
1b6
100
AcDbEntity
  8
Layer_1
 62
7
100
AcDbSpline
 70
8
 71
3
 72
8
 73
4
 74
0
 40
0
 40
0
 40
0
 40
0
 40
1
 40
1
 40
1
 40
1
 10
40.286547
 20
25.591147
 30
0.0
 10
40.168487
 20
25.187661
 30
0.0
 10
40.023743
 20
24.809234
 30
0.0
 10
39.859616
 20
24.461090
 30
0.0
  0
SPLINE
  5
1b7
100
AcDbEntity
  8
Layer_1
 62
7
100
AcDbSpline
 70
8
 71
3
 72
8
 73
4
 74
0
 40
0
 40
0
 40
0
 40
0
 40
1
 40
1
 40
1
 40
1
 10
39.859616
 20
24.461090
 30
0.0
 10
39.695484
 20
24.112932
 30
0.0
 10
39.511593
 20
23.794279
 30
0.0
 10
39.316234
 20
23.508572
 30
0.0
  0
SPLINE
  5
1b8
100
AcDbEntity
  8
Layer_1
 62
7
100
AcDbSpline
 70
8
 71
3
 72
8
 73
4
 74
0
 40
0
 40
0
 40
0
 40
0
 40
1
 40
1
 40
1
 40
1
 10
39.316234
 20
23.508572
 30
0.0
 10
39.306639
 20
23.494541
 30
0.0
 10
39.297001
 20
23.480652
 30
0.0
 10
39.287350
 20
23.466776
 30
0.0
  0
SPLINE
  5
1b9
100
AcDbEntity
  8
Layer_1
 62
7
100
AcDbSpline
 70
8
 71
3
 72
8
 73
4
 74
0
 40
0
 40
0
 40
0
 40
0
 40
1
 40
1
 40
1
 40
1
 10
39.287350
 20
23.466776
 30
0.0
 10
39.049058
 20
25.015284
 30
0.0
 10
38.564919
 20
26.515782
 30
0.0
 10
37.853234
 20
27.911549
 30
0.0
  0
LWPOLYLINE
  5
1ba
100
AcDbEntity
  8
Layer_1
 62
7
100
AcDbPolyline
 90
2
 70
1
 10
11.687350
 20
27.917453
 30
0.0
 10
11.687307
 20
27.917449
 30
0.0
  0
SPLINE
  5
1bb
100
AcDbEntity
  8
Layer_1
 62
7
100
AcDbSpline
 70
8
 71
3
 72
8
 73
4
 74
0
 40
0
 40
0
 40
0
 40
0
 40
1
 40
1
 40
1
 40
1
 10
7.866168
 20
24.951220
 30
0.0
 10
7.992680
 20
24.554412
 30
0.0
 10
8.140158
 20
24.176129
 30
0.0
 10
8.307357
 20
23.821468
 30
0.0
  0
SPLINE
  5
1bc
100
AcDbEntity
  8
Layer_1
 62
7
100
AcDbSpline
 70
8
 71
3
 72
8
 73
4
 74
0
 40
0
 40
0
 40
0
 40
0
 40
1
 40
1
 40
1
 40
1
 10
8.307357
 20
23.821468
 30
0.0
 10
8.505159
 20
23.401893
 30
0.0
 10
8.728228
 20
23.014468
 30
0.0
 10
8.969294
 20
22.661919
 30
0.0
  0
SPLINE
  5
1bd
100
AcDbEntity
  8
Layer_1
 62
7
100
AcDbSpline
 70
8
 71
3
 72
8
 73
4
 74
0
 40
0
 40
0
 40
0
 40
0
 40
1
 40
1
 40
1
 40
1
 10
8.969294
 20
22.661919
 30
0.0
 10
9.210346
 20
22.309390
 30
0.0
 10
9.468834
 20
21.992486
 30
0.0
 10
9.737240
 20
21.712201
 30
0.0
  0
SPLINE
  5
1be
100
AcDbEntity
  8
Layer_1
 62
7
100
AcDbSpline
 70
8
 71
3
 72
8
 73
4
 74
0
 40
0
 40
0
 40
0
 40
0
 40
1
 40
1
 40
1
 40
1
 10
9.737240
 20
21.712201
 30
0.0
 10
9.843824
 20
21.600901
 30
0.0
 10
9.951953
 20
21.496167
 30
0.0
 10
10.061047
 20
21.397032
 30
0.0
  0
SPLINE
  5
1bf
100
AcDbEntity
  8
Layer_1
 62
7
100
AcDbSpline
 70
8
 71
3
 72
8
 73
4
 74
0
 40
0
 40
0
 40
0
 40
0
 40
1
 40
1
 40
1
 40
1
 10
10.061047
 20
21.397032
 30
0.0
 10
10.057452
 20
21.333511
 30
0.0
 10
10.054269
 20
21.269968
 30
0.0
 10
10.051498
 20
21.206406
 30
0.0
  0
SPLINE
  5
1c0
100
AcDbEntity
  8
Layer_1
 62
7
100
AcDbSpline
 70
8
 71
3
 72
8
 73
4
 74
0
 40
0
 40
0
 40
0
 40
0
 40
1
 40
1
 40
1
 40
1
 10
10.051498
 20
21.206406
 30
0.0
 10
10.053354
 20
21.142004
 30
0.0
 10
10.055632
 20
21.077615
 30
0.0
 10
10.058334
 20
21.013243
 30
0.0
  0
SPLINE
  5
1c1
100
AcDbEntity
  8
Layer_1
 62
7
100
AcDbSpline
 70
8
 71
3
 72
8
 73
4
 74
0
 40
0
 40
0
 40
0
 40
0
 40
1
 40
1
 40
1
 40
1
 10
10.058334
 20
21.013243
 30
0.0
 10
9.950173
 20
20.914845
 30
0.0
 10
9.842953
 20
20.810957
 30
0.0
 10
9.737262
 20
20.700591
 30
0.0
  0
LWPOLYLINE
  5
1c2
100
AcDbEntity
  8
Layer_1
 62
7
100
AcDbPolyline
 90
2
 70
1
 10
37.853234
 20
27.911549
 30
0.0
 10
37.853191
 20
27.911589
 30
0.0
  0
SPLINE
  5
1c3
100
AcDbEntity
  8
Layer_1
 62
7
100
AcDbSpline
 70
8
 71
3
 72
8
 73
4
 74
0
 40
0
 40
0
 40
0
 40
0
 40
1
 40
1
 40
1
 40
1
 10
9.737262
 20
20.700591
 30
0.0
 10
9.468853
 20
20.420304
 30
0.0
 10
9.210367
 20
20.103401
 30
0.0
 10
8.969315
 20
19.750873
 30
0.0
  0
SPLINE
  5
1c4
100
AcDbEntity
  8
Layer_1
 62
7
100
AcDbSpline
 70
8
 71
3
 72
8
 73
4
 74
0
 40
0
 40
0
 40
0
 40
0
 40
1
 40
1
 40
1
 40
1
 10
8.969315
 20
19.750873
 30
0.0
 10
8.728250
 20
19.398325
 30
0.0
 10
8.505182
 20
19.010898
 30
0.0
 10
8.307379
 20
18.591324
 30
0.0
  0
SPLINE
  5
1c5
100
AcDbEntity
  8
Layer_1
 62
7
100
AcDbSpline
 70
8
 71
3
 72
8
 73
4
 74
0
 40
0
 40
0
 40
0
 40
0
 40
1
 40
1
 40
1
 40
1
 10
8.307379
 20
18.591324
 30
0.0
 10
8.140179
 20
18.236663
 30
0.0
 10
7.992702
 20
17.858380
 30
0.0
 10
7.866190
 20
17.461572
 30
0.0
  0
SPLINE
  5
1c6
100
AcDbEntity
  8
Layer_1
 62
7
100
AcDbSpline
 70
8
 71
3
 72
8
 73
4
 74
0
 40
0
 40
0
 40
0
 40
0
 40
1
 40
1
 40
1
 40
1
 10
7.866190
 20
17.461572
 30
0.0
 10
7.610950
 20
17.815457
 30
0.0
 10
7.372565
 20
18.194987
 30
0.0
 10
7.158465
 20
18.598942
 30
0.0
  0
LWPOLYLINE
  5
1c7
100
AcDbEntity
  8
Layer_1
 62
7
100
AcDbPolyline
 90
2
 70
1
 10
9.737262
 20
20.700591
 30
0.0
 10
9.737262
 20
20.700591
 30
0.0
  0
SPLINE
  5
1c8
100
AcDbEntity
  8
Layer_1
 62
7
100
AcDbSpline
 70
8
 71
3
 72
8
 73
4
 74
0
 40
0
 40
0
 40
0
 40
0
 40
1
 40
1
 40
1
 40
1
 10
7.158465
 20
18.598942
 30
0.0
 10
6.924027
 20
19.041261
 30
0.0
 10
6.717288
 20
19.511936
 30
0.0
 10
6.544358
 20
20.004302
 30
0.0
  0
SPLINE
  5
1c9
100
AcDbEntity
  8
Layer_1
 62
7
100
AcDbSpline
 70
8
 71
3
 72
8
 73
4
 74
0
 40
0
 40
0
 40
0
 40
0
 40
1
 40
1
 40
1
 40
1
 10
6.544358
 20
20.004302
 30
0.0
 10
6.408107
 20
20.392234
 30
0.0
 10
6.293589
 20
20.794457
 30
0.0
 10
6.201259
 20
21.206385
 30
0.0
  0
SPLINE
  5
1ca
100
AcDbEntity
  8
Layer_1
 62
7
100
AcDbSpline
 70
8
 71
3
 72
8
 73
4
 74
0
 40
0
 40
0
 40
0
 40
0
 40
1
 40
1
 40
1
 40
1
 10
6.201259
 20
21.206385
 30
0.0
 10
6.293589
 20
21.618320
 30
0.0
 10
6.408105
 20
22.020551
 30
0.0
 10
6.544358
 20
22.408490
 30
0.0
  0
SPLINE
  5
1cb
100
AcDbEntity
  8
Layer_1
 62
7
100
AcDbSpline
 70
8
 71
3
 72
8
 73
4
 74
0
 40
0
 40
0
 40
0
 40
0
 40
1
 40
1
 40
1
 40
1
 10
6.544358
 20
22.408490
 30
0.0
 10
6.717288
 20
22.900856
 30
0.0
 10
6.924027
 20
23.371531
 30
0.0
 10
7.158465
 20
23.813851
 30
0.0
  0
LWPOLYLINE
  5
1cc
100
AcDbEntity
  8
Layer_1
 62
7
100
AcDbPolyline
 90
2
 70
1
 10
7.158465
 20
18.598942
 30
0.0
 10
7.158465
 20
18.598942
 30
0.0
  0
SPLINE
  5
1cd
100
AcDbEntity
  8
Layer_1
 62
7
100
AcDbSpline
 70
8
 71
3
 72
8
 73
4
 74
0
 40
0
 40
0
 40
0
 40
0
 40
1
 40
1
 40
1
 40
1
 10
7.158465
 20
23.813851
 30
0.0
 10
7.372565
 20
24.217804
 30
0.0
 10
7.610952
 20
24.597334
 30
0.0
 10
7.866190
 20
24.951220
 30
0.0
  0
LWPOLYLINE
  5
1ce
100
AcDbEntity
  8
Layer_1
 62
7
100
AcDbPolyline
 90
2
 70
1
 10
7.158465
 20
23.813851
 30
0.0
 10
7.158465
 20
23.813851
 30
0.0
  0
SPLINE
  5
1cf
100
AcDbEntity
  8
Layer_1
 62
7
100
AcDbSpline
 70
8
 71
3
 72
8
 73
4
 74
0
 40
0
 40
0
 40
0
 40
0
 40
1
 40
1
 40
1
 40
1
 10
41.657640
 20
24.951220
 30
0.0
 10
41.912876
 20
24.597339
 30
0.0
 10
42.151290
 20
24.217820
 30
0.0
 10
42.365388
 20
23.813872
 30
0.0
  0
SPLINE
  5
1d0
100
AcDbEntity
  8
Layer_1
 62
7
100
AcDbSpline
 70
8
 71
3
 72
8
 73
4
 74
0
 40
0
 40
0
 40
0
 40
0
 40
1
 40
1
 40
1
 40
1
 10
42.365388
 20
23.813872
 30
0.0
 10
42.599824
 20
23.371552
 30
0.0
 10
42.806563
 20
22.900878
 30
0.0
 10
42.979493
 20
22.408511
 30
0.0
  0
SPLINE
  5
1d1
100
AcDbEntity
  8
Layer_1
 62
7
100
AcDbSpline
 70
8
 71
3
 72
8
 73
4
 74
0
 40
0
 40
0
 40
0
 40
0
 40
1
 40
1
 40
1
 40
1
 10
42.979493
 20
22.408511
 30
0.0
 10
43.115748
 20
22.020573
 30
0.0
 10
43.230263
 20
21.618341
 30
0.0
 10
43.322592
 20
21.206406
 30
0.0
  0
SPLINE
  5
1d2
100
AcDbEntity
  8
Layer_1
 62
7
100
AcDbSpline
 70
8
 71
3
 72
8
 73
4
 74
0
 40
0
 40
0
 40
0
 40
0
 40
1
 40
1
 40
1
 40
1
 10
43.322592
 20
21.206406
 30
0.0
 10
43.230263
 20
20.794480
 30
0.0
 10
43.115746
 20
20.392254
 30
0.0
 10
42.979493
 20
20.004323
 30
0.0
  0
SPLINE
  5
1d3
100
AcDbEntity
  8
Layer_1
 62
7
100
AcDbSpline
 70
8
 71
3
 72
8
 73
4
 74
0
 40
0
 40
0
 40
0
 40
0
 40
1
 40
1
 40
1
 40
1
 10
42.979493
 20
20.004323
 30
0.0
 10
42.806563
 20
19.511956
 30
0.0
 10
42.599824
 20
19.041282
 30
0.0
 10
42.365388
 20
18.598963
 30
0.0
  0
SPLINE
  5
1d4
100
AcDbEntity
  8
Layer_1
 62
7
100
AcDbSpline
 70
8
 71
3
 72
8
 73
4
 74
0
 40
0
 40
0
 40
0
 40
0
 40
1
 40
1
 40
1
 40
1
 10
42.365388
 20
18.598963
 30
0.0
 10
42.151288
 20
18.195009
 30
0.0
 10
41.912880
 20
17.815478
 30
0.0
 10
41.657640
 20
17.461593
 30
0.0
  0
SPLINE
  5
1d5
100
AcDbEntity
  8
Layer_1
 62
7
100
AcDbSpline
 70
8
 71
3
 72
8
 73
4
 74
0
 40
0
 40
0
 40
0
 40
0
 40
1
 40
1
 40
1
 40
1
 10
41.657640
 20
17.461593
 30
0.0
 10
41.531129
 20
17.858403
 30
0.0
 10
41.383673
 20
18.236683
 30
0.0
 10
41.216473
 20
18.591345
 30
0.0
  0
SPLINE
  5
1d6
100
AcDbEntity
  8
Layer_1
 62
7
100
AcDbSpline
 70
8
 71
3
 72
8
 73
4
 74
0
 40
0
 40
0
 40
0
 40
0
 40
1
 40
1
 40
1
 40
1
 10
41.216473
 20
18.591345
 30
0.0
 10
41.018671
 20
19.010923
 30
0.0
 10
40.795577
 20
19.398349
 30
0.0
 10
40.554516
 20
19.750894
 30
0.0
  0
SPLINE
  5
1d7
100
AcDbEntity
  8
Layer_1
 62
7
100
AcDbSpline
 70
8
 71
3
 72
8
 73
4
 74
0
 40
0
 40
0
 40
0
 40
0
 40
1
 40
1
 40
1
 40
1
 10
40.554516
 20
19.750894
 30
0.0
 10
40.313463
 20
20.103420
 30
0.0
 10
40.054977
 20
20.420325
 30
0.0
 10
39.786568
 20
20.700612
 30
0.0
  0
SPLINE
  5
1d8
100
AcDbEntity
  8
Layer_1
 62
7
100
AcDbSpline
 70
8
 71
3
 72
8
 73
4
 74
0
 40
0
 40
0
 40
0
 40
0
 40
1
 40
1
 40
1
 40
1
 10
39.786568
 20
20.700612
 30
0.0
 10
39.679988
 20
20.811907
 30
0.0
 10
39.571858
 20
20.916634
 30
0.0
 10
39.462762
 20
21.015760
 30
0.0
  0
SPLINE
  5
1d9
100
AcDbEntity
  8
Layer_1
 62
7
100
AcDbSpline
 70
8
 71
3
 72
8
 73
4
 74
0
 40
0
 40
0
 40
0
 40
0
 40
1
 40
1
 40
1
 40
1
 10
39.462762
 20
21.015760
 30
0.0
 10
39.466357
 20
21.079294
 30
0.0
 10
39.469540
 20
21.142852
 30
0.0
 10
39.472310
 20
21.206427
 30
0.0
  0
SPLINE
  5
1da
100
AcDbEntity
  8
Layer_1
 62
7
100
AcDbSpline
 70
8
 71
3
 72
8
 73
4
 74
0
 40
0
 40
0
 40
0
 40
0
 40
1
 40
1
 40
1
 40
1
 10
39.472310
 20
21.206427
 30
0.0
 10
39.470454
 20
21.270801
 30
0.0
 10
39.468176
 20
21.335162
 30
0.0
 10
39.465474
 20
21.399505
 30
0.0
  0
SPLINE
  5
1db
100
AcDbEntity
  8
Layer_1
 62
7
100
AcDbSpline
 70
8
 71
3
 72
8
 73
4
 74
0
 40
0
 40
0
 40
0
 40
0
 40
1
 40
1
 40
1
 40
1
 10
39.465474
 20
21.399505
 30
0.0
 10
39.573649
 20
21.497915
 30
0.0
 10
39.680867
 20
21.601823
 30
0.0
 10
39.786568
 20
21.712201
 30
0.0
  0
SPLINE
  5
1dc
100
AcDbEntity
  8
Layer_1
 62
7
100
AcDbSpline
 70
8
 71
3
 72
8
 73
4
 74
0
 40
0
 40
0
 40
0
 40
0
 40
1
 40
1
 40
1
 40
1
 10
39.786568
 20
21.712201
 30
0.0
 10
40.054974
 20
21.992486
 30
0.0
 10
40.313462
 20
22.309392
 30
0.0
 10
40.554516
 20
22.661919
 30
0.0
  0
SPLINE
  5
1dd
100
AcDbEntity
  8
Layer_1
 62
7
100
AcDbSpline
 70
8
 71
3
 72
8
 73
4
 74
0
 40
0
 40
0
 40
0
 40
0
 40
1
 40
1
 40
1
 40
1
 10
40.554516
 20
22.661919
 30
0.0
 10
40.795577
 20
23.014464
 30
0.0
 10
41.018671
 20
23.401891
 30
0.0
 10
41.216473
 20
23.821467
 30
0.0
  0
SPLINE
  5
1de
100
AcDbEntity
  8
Layer_1
 62
7
100
AcDbSpline
 70
8
 71
3
 72
8
 73
4
 74
0
 40
0
 40
0
 40
0
 40
0
 40
1
 40
1
 40
1
 40
1
 10
41.216473
 20
23.821467
 30
0.0
 10
41.383673
 20
24.176130
 30
0.0
 10
41.531129
 20
24.554411
 30
0.0
 10
41.657640
 20
24.951220
 30
0.0
  0
LWPOLYLINE
  5
1df
100
AcDbEntity
  8
Layer_1
 62
7
100
AcDbPolyline
 90
2
 70
1
 10
7.866190
 20
24.951220
 30
0.0
 10
7.866168
 20
24.951220
 30
0.0
  0
SPLINE
  5
1e0
100
AcDbEntity
  8
Layer_1
 62
7
100
AcDbSpline
 70
8
 71
3
 72
8
 73
4
 74
0
 40
0
 40
0
 40
0
 40
0
 40
1
 40
1
 40
1
 40
1
 10
39.280643
 20
18.955819
 30
0.0
 10
39.292567
 20
18.938746
 30
0.0
 10
39.304441
 20
18.921568
 30
0.0
 10
39.316278
 20
18.904257
 30
0.0
  0
SPLINE
  5
1e1
100
AcDbEntity
  8
Layer_1
 62
7
100
AcDbSpline
 70
8
 71
3
 72
8
 73
4
 74
0
 40
0
 40
0
 40
0
 40
0
 40
1
 40
1
 40
1
 40
1
 10
39.316278
 20
18.904257
 30
0.0
 10
39.511637
 20
18.618552
 30
0.0
 10
39.695528
 20
18.299898
 30
0.0
 10
39.859659
 20
17.951740
 30
0.0
  0
SPLINE
  5
1e2
100
AcDbEntity
  8
Layer_1
 62
7
100
AcDbSpline
 70
8
 71
3
 72
8
 73
4
 74
0
 40
0
 40
0
 40
0
 40
0
 40
1
 40
1
 40
1
 40
1
 10
39.859659
 20
17.951740
 30
0.0
 10
40.023787
 20
17.603597
 30
0.0
 10
40.168530
 20
17.225170
 30
0.0
 10
40.286590
 20
16.821684
 30
0.0
  0
SPLINE
  5
1e3
100
AcDbEntity
  8
Layer_1
 62
7
100
AcDbSpline
 70
8
 71
3
 72
8
 73
4
 74
0
 40
0
 40
0
 40
0
 40
0
 40
1
 40
1
 40
1
 40
1
 10
40.286590
 20
16.821684
 30
0.0
 10
40.354092
 20
16.590989
 30
0.0
 10
40.411784
 20
16.351008
 30
0.0
 10
40.460873
 20
16.104648
 30
0.0
  0
SPLINE
  5
1e4
100
AcDbEntity
  8
Layer_1
 62
7
100
AcDbSpline
 70
8
 71
3
 72
8
 73
4
 74
0
 40
0
 40
0
 40
0
 40
0
 40
1
 40
1
 40
1
 40
1
 10
40.460873
 20
16.104648
 30
0.0
 10
40.212092
 20
15.874908
 30
0.0
 10
39.956760
 20
15.665678
 30
0.0
 10
39.698548
 20
15.478649
 30
0.0
  0
SPLINE
  5
1e5
100
AcDbEntity
  8
Layer_1
 62
7
100
AcDbSpline
 70
8
 71
3
 72
8
 73
4
 74
0
 40
0
 40
0
 40
0
 40
0
 40
1
 40
1
 40
1
 40
1
 10
39.698548
 20
15.478649
 30
0.0
 10
39.363606
 20
15.236042
 30
0.0
 10
39.023448
 20
15.029454
 30
0.0
 10
38.687046
 20
14.858402
 30
0.0
  0
SPLINE
  5
1e6
100
AcDbEntity
  8
Layer_1
 62
7
100
AcDbSpline
 70
8
 71
3
 72
8
 73
4
 74
0
 40
0
 40
0
 40
0
 40
0
 40
1
 40
1
 40
1
 40
1
 10
38.687046
 20
14.858402
 30
0.0
 10
38.399540
 20
14.712214
 30
0.0
 10
38.114241
 20
14.591764
 30
0.0
 10
37.836481
 20
14.495381
 30
0.0
  0
SPLINE
  5
1e7
100
AcDbEntity
  8
Layer_1
 62
7
100
AcDbSpline
 70
8
 71
3
 72
8
 73
4
 74
0
 40
0
 40
0
 40
0
 40
0
 40
1
 40
1
 40
1
 40
1
 10
37.836481
 20
14.495381
 30
0.0
 10
38.553230
 20
15.895427
 30
0.0
 10
39.040809
 20
17.401362
 30
0.0
 10
39.280643
 20
18.955819
 30
0.0
  0
LWPOLYLINE
  5
1e8
100
AcDbEntity
  8
Layer_1
 62
7
100
AcDbPolyline
 90
2
 70
1
 10
41.657640
 20
24.951220
 30
0.0
 10
41.657640
 20
24.951220
 30
0.0
  0
SPLINE
  5
1e9
100
AcDbEntity
  8
Layer_1
 62
7
100
AcDbSpline
 70
8
 71
3
 72
8
 73
4
 74
0
 40
0
 40
0
 40
0
 40
0
 40
1
 40
1
 40
1
 40
1
 10
10.236437
 20
18.945881
 30
0.0
 10
10.474748
 20
17.397433
 30
0.0
 10
10.958886
 20
15.896996
 30
0.0
 10
11.670552
 20
14.501284
 30
0.0
  0
SPLINE
  5
1ea
100
AcDbEntity
  8
Layer_1
 62
7
100
AcDbSpline
 70
8
 71
3
 72
8
 73
4
 74
0
 40
0
 40
0
 40
0
 40
0
 40
1
 40
1
 40
1
 40
1
 10
11.670552
 20
14.501284
 30
0.0
 10
11.398124
 20
14.596671
 30
0.0
 10
11.118567
 20
14.715179
 30
0.0
 10
10.836893
 20
14.858402
 30
0.0
  0
SPLINE
  5
1eb
100
AcDbEntity
  8
Layer_1
 62
7
100
AcDbSpline
 70
8
 71
3
 72
8
 73
4
 74
0
 40
0
 40
0
 40
0
 40
0
 40
1
 40
1
 40
1
 40
1
 10
10.836893
 20
14.858402
 30
0.0
 10
10.500492
 20
15.029452
 30
0.0
 10
10.160357
 20
15.236041
 30
0.0
 10
9.825413
 20
15.478649
 30
0.0
  0
SPLINE
  5
1ec
100
AcDbEntity
  8
Layer_1
 62
7
100
AcDbSpline
 70
8
 71
3
 72
8
 73
4
 74
0
 40
0
 40
0
 40
0
 40
0
 40
1
 40
1
 40
1
 40
1
 10
9.825413
 20
15.478649
 30
0.0
 10
9.567200
 20
15.665677
 30
0.0
 10
9.311847
 20
15.874907
 30
0.0
 10
9.063065
 20
16.104648
 30
0.0
  0
SPLINE
  5
1ed
100
AcDbEntity
  8
Layer_1
 62
7
100
AcDbSpline
 70
8
 71
3
 72
8
 73
4
 74
0
 40
0
 40
0
 40
0
 40
0
 40
1
 40
1
 40
1
 40
1
 10
9.063065
 20
16.104648
 30
0.0
 10
9.112154
 20
16.351008
 30
0.0
 10
9.169868
 20
16.590988
 30
0.0
 10
9.237370
 20
16.821684
 30
0.0
  0
SPLINE
  5
1ee
100
AcDbEntity
  8
Layer_1
 62
7
100
AcDbSpline
 70
8
 71
3
 72
8
 73
4
 74
0
 40
0
 40
0
 40
0
 40
0
 40
1
 40
1
 40
1
 40
1
 10
9.237370
 20
16.821684
 30
0.0
 10
9.355433
 20
17.225172
 30
0.0
 10
9.500153
 20
17.603596
 30
0.0
 10
9.664280
 20
17.951740
 30
0.0
  0
SPLINE
  5
1ef
100
AcDbEntity
  8
Layer_1
 62
7
100
AcDbSpline
 70
8
 71
3
 72
8
 73
4
 74
0
 40
0
 40
0
 40
0
 40
0
 40
1
 40
1
 40
1
 40
1
 10
9.664280
 20
17.951740
 30
0.0
 10
9.828415
 20
18.299902
 30
0.0
 10
10.012304
 20
18.618554
 30
0.0
 10
10.207662
 20
18.904257
 30
0.0
  0
SPLINE
  5
1f0
100
AcDbEntity
  8
Layer_1
 62
7
100
AcDbSpline
 70
8
 71
3
 72
8
 73
4
 74
0
 40
0
 40
0
 40
0
 40
0
 40
1
 40
1
 40
1
 40
1
 10
10.207662
 20
18.904257
 30
0.0
 10
10.217217
 20
18.918233
 30
0.0
 10
10.226825
 20
18.932059
 30
0.0
 10
10.236437
 20
18.945881
 30
0.0
  0
LWPOLYLINE
  5
1f1
100
AcDbEntity
  8
Layer_1
 62
7
100
AcDbPolyline
 90
2
 70
1
 10
39.280643
 20
18.955819
 30
0.0
 10
39.280643
 20
18.955819
 30
0.0
  0
SPLINE
  5
1f2
100
AcDbEntity
  8
Layer_1
 62
7
100
AcDbSpline
 70
8
 71
3
 72
8
 73
4
 74
0
 40
0
 40
0
 40
0
 40
0
 40
1
 40
1
 40
1
 40
1
 10
5.998352
 20
17.598312
 30
0.0
 10
6.224750
 20
17.200314
 30
0.0
 10
6.470338
 20
16.821708
 30
0.0
 10
6.733552
 20
16.466714
 30
0.0
  0
SPLINE
  5
1f3
100
AcDbEntity
  8
Layer_1
 62
7
100
AcDbSpline
 70
8
 71
3
 72
8
 73
4
 74
0
 40
0
 40
0
 40
0
 40
0
 40
1
 40
1
 40
1
 40
1
 10
6.733552
 20
16.466714
 30
0.0
 10
6.965176
 20
16.154322
 30
0.0
 10
7.210000
 20
15.860831
 30
0.0
 10
7.464237
 20
15.585204
 30
0.0
  0
SPLINE
  5
1f4
100
AcDbEntity
  8
Layer_1
 62
7
100
AcDbSpline
 70
8
 71
3
 72
8
 73
4
 74
0
 40
0
 40
0
 40
0
 40
0
 40
1
 40
1
 40
1
 40
1
 10
7.464237
 20
15.585204
 30
0.0
 10
7.408274
 20
15.107494
 30
0.0
 10
7.382197
 20
14.615211
 30
0.0
 10
7.392536
 20
14.111875
 30
0.0
  0
SPLINE
  5
1f5
100
AcDbEntity
  8
Layer_1
 62
7
100
AcDbSpline
 70
8
 71
3
 72
8
 73
4
 74
0
 40
0
 40
0
 40
0
 40
0
 40
1
 40
1
 40
1
 40
1
 10
7.392536
 20
14.111875
 30
0.0
 10
7.399400
 20
13.777632
 30
0.0
 10
7.423562
 20
13.438891
 30
0.0
 10
7.461567
 20
13.097920
 30
0.0
  0
SPLINE
  5
1f6
100
AcDbEntity
  8
Layer_1
 62
7
100
AcDbSpline
 70
8
 71
3
 72
8
 73
4
 74
0
 40
0
 40
0
 40
0
 40
0
 40
1
 40
1
 40
1
 40
1
 10
7.461567
 20
13.097920
 30
0.0
 10
7.234990
 20
13.491395
 30
0.0
 10
7.029697
 20
13.899554
 30
0.0
 10
6.850608
 20
14.319882
 30
0.0
  0
SPLINE
  5
1f7
100
AcDbEntity
  8
Layer_1
 62
7
100
AcDbSpline
 70
8
 71
3
 72
8
 73
4
 74
0
 40
0
 40
0
 40
0
 40
0
 40
1
 40
1
 40
1
 40
1
 10
6.850608
 20
14.319882
 30
0.0
 10
6.629642
 20
14.838507
 30
0.0
 10
6.446483
 20
15.375109
 30
0.0
 10
6.304124
 20
15.921032
 30
0.0
  0
SPLINE
  5
1f8
100
AcDbEntity
  8
Layer_1
 62
7
100
AcDbSpline
 70
8
 71
3
 72
8
 73
4
 74
0
 40
0
 40
0
 40
0
 40
0
 40
1
 40
1
 40
1
 40
1
 10
6.304124
 20
15.921032
 30
0.0
 10
6.161765
 20
16.466958
 30
0.0
 10
6.060015
 20
17.022940
 30
0.0
 10
6.000000
 20
17.579887
 30
0.0
  0
SPLINE
  5
1f9
100
AcDbEntity
  8
Layer_1
 62
7
100
AcDbSpline
 70
8
 71
3
 72
8
 73
4
 74
0
 40
0
 40
0
 40
0
 40
0
 40
1
 40
1
 40
1
 40
1
 10
6.000000
 20
17.579887
 30
0.0
 10
5.999334
 20
17.586026
 30
0.0
 10
5.999000
 20
17.592172
 30
0.0
 10
5.998352
 20
17.598312
 30
0.0
  0
LWPOLYLINE
  5
1fa
100
AcDbEntity
  8
Layer_1
 62
7
100
AcDbPolyline
 90
2
 70
1
 10
10.236437
 20
18.945881
 30
0.0
 10
10.236437
 20
18.945881
 30
0.0
  0
SPLINE
  5
1fb
100
AcDbEntity
  8
Layer_1
 62
7
100
AcDbSpline
 70
8
 71
3
 72
8
 73
4
 74
0
 40
0
 40
0
 40
0
 40
0
 40
1
 40
1
 40
1
 40
1
 10
43.525457
 20
17.598312
 30
0.0
 10
43.524801
 20
17.592172
 30
0.0
 10
43.524468
 20
17.586026
 30
0.0
 10
43.523808
 20
17.579887
 30
0.0
  0
SPLINE
  5
1fc
100
AcDbEntity
  8
Layer_1
 62
7
100
AcDbSpline
 70
8
 71
3
 72
8
 73
4
 74
0
 40
0
 40
0
 40
0
 40
0
 40
1
 40
1
 40
1
 40
1
 10
43.523808
 20
17.579887
 30
0.0
 10
43.463796
 20
17.022942
 30
0.0
 10
43.362064
 20
16.466958
 30
0.0
 10
43.219707
 20
15.921032
 30
0.0
  0
SPLINE
  5
1fd
100
AcDbEntity
  8
Layer_1
 62
7
100
AcDbSpline
 70
8
 71
3
 72
8
 73
4
 74
0
 40
0
 40
0
 40
0
 40
0
 40
1
 40
1
 40
1
 40
1
 10
43.219707
 20
15.921032
 30
0.0
 10
43.077346
 20
15.375108
 30
0.0
 10
42.894167
 20
14.838507
 30
0.0
 10
42.673200
 20
14.319882
 30
0.0
  0
SPLINE
  5
1fe
100
AcDbEntity
  8
Layer_1
 62
7
100
AcDbSpline
 70
8
 71
3
 72
8
 73
4
 74
0
 40
0
 40
0
 40
0
 40
0
 40
1
 40
1
 40
1
 40
1
 10
42.673200
 20
14.319882
 30
0.0
 10
42.494113
 20
13.899557
 30
0.0
 10
42.288839
 20
13.491392
 30
0.0
 10
42.062262
 20
13.097920
 30
0.0
  0
SPLINE
  5
1ff
100
AcDbEntity
  8
Layer_1
 62
7
100
AcDbSpline
 70
8
 71
3
 72
8
 73
4
 74
0
 40
0
 40
0
 40
0
 40
0
 40
1
 40
1
 40
1
 40
1
 10
42.062262
 20
13.097920
 30
0.0
 10
42.100268
 20
13.438891
 30
0.0
 10
42.124408
 20
13.777634
 30
0.0
 10
42.131273
 20
14.111875
 30
0.0
  0
SPLINE
  5
200
100
AcDbEntity
  8
Layer_1
 62
7
100
AcDbSpline
 70
8
 71
3
 72
8
 73
4
 74
0
 40
0
 40
0
 40
0
 40
0
 40
1
 40
1
 40
1
 40
1
 10
42.131273
 20
14.111875
 30
0.0
 10
42.141611
 20
14.615215
 30
0.0
 10
42.115558
 20
15.107511
 30
0.0
 10
42.059593
 20
15.585225
 30
0.0
  0
SPLINE
  5
201
100
AcDbEntity
  8
Layer_1
 62
7
100
AcDbSpline
 70
8
 71
3
 72
8
 73
4
 74
0
 40
0
 40
0
 40
0
 40
0
 40
1
 40
1
 40
1
 40
1
 10
42.059593
 20
15.585225
 30
0.0
 10
42.313824
 20
15.860848
 30
0.0
 10
42.558639
 20
16.154330
 30
0.0
 10
42.790258
 20
16.466714
 30
0.0
  0
SPLINE
  5
202
100
AcDbEntity
  8
Layer_1
 62
7
100
AcDbSpline
 70
8
 71
3
 72
8
 73
4
 74
0
 40
0
 40
0
 40
0
 40
0
 40
1
 40
1
 40
1
 40
1
 10
42.790258
 20
16.466714
 30
0.0
 10
43.053469
 20
16.821707
 30
0.0
 10
43.299059
 20
17.200315
 30
0.0
 10
43.525457
 20
17.598312
 30
0.0
  0
LWPOLYLINE
  5
203
100
AcDbEntity
  8
Layer_1
 62
7
100
AcDbPolyline
 90
2
 70
1
 10
5.998352
 20
17.598312
 30
0.0
 10
5.998352
 20
17.598312
 30
0.0
  0
SPLINE
  5
204
100
AcDbEntity
  8
Layer_1
 62
7
100
AcDbSpline
 70
8
 71
3
 72
8
 73
4
 74
0
 40
0
 40
0
 40
0
 40
0
 40
1
 40
1
 40
1
 40
1
 10
8.891972
 20
14.304018
 30
0.0
 10
8.909834
 20
14.290889
 30
0.0
 10
8.927435
 20
14.276728
 30
0.0
 10
8.945335
 20
14.263762
 30
0.0
  0
SPLINE
  5
205
100
AcDbEntity
  8
Layer_1
 62
7
100
AcDbSpline
 70
8
 71
3
 72
8
 73
4
 74
0
 40
0
 40
0
 40
0
 40
0
 40
1
 40
1
 40
1
 40
1
 10
8.945335
 20
14.263762
 30
0.0
 10
9.343278
 20
13.975516
 30
0.0
 10
9.749762
 20
13.728235
 30
0.0
 10
10.156880
 20
13.521227
 30
0.0
  0
SPLINE
  5
206
100
AcDbEntity
  8
Layer_1
 62
7
100
AcDbSpline
 70
8
 71
3
 72
8
 73
4
 74
0
 40
0
 40
0
 40
0
 40
0
 40
1
 40
1
 40
1
 40
1
 10
10.156880
 20
13.521227
 30
0.0
 10
10.563983
 20
13.314226
 30
0.0
 10
10.970911
 20
13.147871
 30
0.0
 10
11.370314
 20
13.019774
 30
0.0
  0
SPLINE
  5
207
100
AcDbEntity
  8
Layer_1
 62
7
100
AcDbSpline
 70
8
 71
3
 72
8
 73
4
 74
0
 40
0
 40
0
 40
0
 40
0
 40
1
 40
1
 40
1
 40
1
 10
11.370314
 20
13.019774
 30
0.0
 10
11.769694
 20
12.891682
 30
0.0
 10
12.160653
 20
12.802096
 30
0.0
 10
12.536720
 20
12.747117
 30
0.0
  0
SPLINE
  5
208
100
AcDbEntity
  8
Layer_1
 62
7
100
AcDbSpline
 70
8
 71
3
 72
8
 73
4
 74
0
 40
0
 40
0
 40
0
 40
0
 40
1
 40
1
 40
1
 40
1
 10
12.536720
 20
12.747117
 30
0.0
 10
12.615334
 20
12.735624
 30
0.0
 10
12.693124
 20
12.725904
 30
0.0
 10
12.770206
 20
12.717581
 30
0.0
  0
SPLINE
  5
209
100
AcDbEntity
  8
Layer_1
 62
7
100
AcDbSpline
 70
8
 71
3
 72
8
 73
4
 74
0
 40
0
 40
0
 40
0
 40
0
 40
1
 40
1
 40
1
 40
1
 10
12.770206
 20
12.717581
 30
0.0
 10
12.839890
 20
12.617521
 30
0.0
 10
12.910815
 20
12.518331
 30
0.0
 10
12.982966
 20
12.420034
 30
0.0
  0
SPLINE
  5
20a
100
AcDbEntity
  8
Layer_1
 62
7
100
AcDbSpline
 70
8
 71
3
 72
8
 73
4
 74
0
 40
0
 40
0
 40
0
 40
0
 40
1
 40
1
 40
1
 40
1
 10
12.982966
 20
12.420034
 30
0.0
 10
12.937087
 20
12.200051
 30
0.0
 10
12.900609
 20
11.970974
 30
0.0
 10
12.876151
 20
11.732404
 30
0.0
  0
SPLINE
  5
20b
100
AcDbEntity
  8
Layer_1
 62
7
100
AcDbSpline
 70
8
 71
3
 72
8
 73
4
 74
0
 40
0
 40
0
 40
0
 40
0
 40
1
 40
1
 40
1
 40
1
 10
12.876151
 20
11.732404
 30
0.0
 10
12.835764
 20
11.338444
 30
0.0
 10
12.826118
 20
10.921799
 30
0.0
 10
12.852497
 20
10.487980
 30
0.0
  0
SPLINE
  5
20c
100
AcDbEntity
  8
Layer_1
 62
7
100
AcDbSpline
 70
8
 71
3
 72
8
 73
4
 74
0
 40
0
 40
0
 40
0
 40
0
 40
1
 40
1
 40
1
 40
1
 10
12.852497
 20
10.487980
 30
0.0
 10
12.878878
 20
10.054144
 30
0.0
 10
12.941269
 20
9.604048
 30
0.0
 10
13.043664
 20
9.144405
 30
0.0
  0
SPLINE
  5
20d
100
AcDbEntity
  8
Layer_1
 62
7
100
AcDbSpline
 70
8
 71
3
 72
8
 73
4
 74
0
 40
0
 40
0
 40
0
 40
0
 40
1
 40
1
 40
1
 40
1
 10
13.043664
 20
9.144405
 30
0.0
 10
13.109793
 20
8.847552
 30
0.0
 10
13.194424
 20
8.546907
 30
0.0
 10
13.294446
 20
8.244860
 30
0.0
  0
SPLINE
  5
20e
100
AcDbEntity
  8
Layer_1
 62
7
100
AcDbSpline
 70
8
 71
3
 72
8
 73
4
 74
0
 40
0
 40
0
 40
0
 40
0
 40
1
 40
1
 40
1
 40
1
 10
13.294446
 20
8.244860
 30
0.0
 10
12.970556
 20
8.351339
 30
0.0
 10
12.645848
 20
8.476502
 30
0.0
 10
12.323547
 20
8.622399
 30
0.0
  0
SPLINE
  5
20f
100
AcDbEntity
  8
Layer_1
 62
7
100
AcDbSpline
 70
8
 71
3
 72
8
 73
4
 74
0
 40
0
 40
0
 40
0
 40
0
 40
1
 40
1
 40
1
 40
1
 10
12.323547
 20
8.622399
 30
0.0
 10
11.871802
 20
8.826889
 30
0.0
 10
11.424118
 20
9.070650
 30
0.0
 10
10.989433
 20
9.352260
 30
0.0
  0
SPLINE
  5
210
100
AcDbEntity
  8
Layer_1
 62
7
100
AcDbSpline
 70
8
 71
3
 72
8
 73
4
 74
0
 40
0
 40
0
 40
0
 40
0
 40
1
 40
1
 40
1
 40
1
 10
10.989433
 20
9.352260
 30
0.0
 10
10.560786
 20
9.629959
 30
0.0
 10
10.144365
 20
9.945237
 30
0.0
 10
9.747874
 20
10.294230
 30
0.0
  0
SPLINE
  5
211
100
AcDbEntity
  8
Layer_1
 62
7
100
AcDbSpline
 70
8
 71
3
 72
8
 73
4
 74
0
 40
0
 40
0
 40
0
 40
0
 40
1
 40
1
 40
1
 40
1
 10
9.747874
 20
10.294230
 30
0.0
 10
9.622463
 20
10.584268
 30
0.0
 10
9.509128
 20
10.876917
 30
0.0
 10
9.411524
 20
11.171076
 30
0.0
  0
SPLINE
  5
212
100
AcDbEntity
  8
Layer_1
 62
7
100
AcDbSpline
 70
8
 71
3
 72
8
 73
4
 74
0
 40
0
 40
0
 40
0
 40
0
 40
1
 40
1
 40
1
 40
1
 10
9.411524
 20
11.171076
 30
0.0
 10
9.245998
 20
11.669935
 30
0.0
 10
9.120594
 20
12.172800
 30
0.0
 10
9.034658
 20
12.670619
 30
0.0
  0
SPLINE
  5
213
100
AcDbEntity
  8
Layer_1
 62
7
100
AcDbSpline
 70
8
 71
3
 72
8
 73
4
 74
0
 40
0
 40
0
 40
0
 40
0
 40
1
 40
1
 40
1
 40
1
 10
9.034658
 20
12.670619
 30
0.0
 10
8.948719
 20
13.168447
 30
0.0
 10
8.902104
 20
13.662000
 30
0.0
 10
8.892232
 20
14.142625
 30
0.0
  0
SPLINE
  5
214
100
AcDbEntity
  8
Layer_1
 62
7
100
AcDbSpline
 70
8
 71
3
 72
8
 73
4
 74
0
 40
0
 40
0
 40
0
 40
0
 40
1
 40
1
 40
1
 40
1
 10
8.892232
 20
14.142625
 30
0.0
 10
8.891119
 20
14.196784
 30
0.0
 10
8.892120
 20
14.250178
 30
0.0
 10
8.891976
 20
14.304018
 30
0.0
  0
LWPOLYLINE
  5
215
100
AcDbEntity
  8
Layer_1
 62
7
100
AcDbPolyline
 90
2
 70
1
 10
43.525457
 20
17.598312
 30
0.0
 10
43.525457
 20
17.598312
 30
0.0
  0
SPLINE
  5
216
100
AcDbEntity
  8
Layer_1
 62
7
100
AcDbSpline
 70
8
 71
3
 72
8
 73
4
 74
0
 40
0
 40
0
 40
0
 40
0
 40
1
 40
1
 40
1
 40
1
 10
40.631859
 20
14.304018
 30
0.0
 10
40.631670
 20
14.250178
 30
0.0
 10
40.632692
 20
14.196784
 30
0.0
 10
40.631581
 20
14.142625
 30
0.0
  0
SPLINE
  5
217
100
AcDbEntity
  8
Layer_1
 62
7
100
AcDbSpline
 70
8
 71
3
 72
8
 73
4
 74
0
 40
0
 40
0
 40
0
 40
0
 40
1
 40
1
 40
1
 40
1
 10
40.631581
 20
14.142625
 30
0.0
 10
40.621710
 20
13.662000
 30
0.0
 10
40.575116
 20
13.168446
 30
0.0
 10
40.489177
 20
12.670619
 30
0.0
  0
SPLINE
  5
218
100
AcDbEntity
  8
Layer_1
 62
7
100
AcDbSpline
 70
8
 71
3
 72
8
 73
4
 74
0
 40
0
 40
0
 40
0
 40
0
 40
1
 40
1
 40
1
 40
1
 10
40.489177
 20
12.670619
 30
0.0
 10
40.403240
 20
12.172800
 30
0.0
 10
40.277836
 20
11.669937
 30
0.0
 10
40.112311
 20
11.171076
 30
0.0
  0
SPLINE
  5
219
100
AcDbEntity
  8
Layer_1
 62
7
100
AcDbSpline
 70
8
 71
3
 72
8
 73
4
 74
0
 40
0
 40
0
 40
0
 40
0
 40
1
 40
1
 40
1
 40
1
 10
40.112311
 20
11.171076
 30
0.0
 10
40.014702
 20
10.876908
 30
0.0
 10
39.901333
 20
10.584256
 30
0.0
 10
39.775918
 20
10.294209
 30
0.0
  0
SPLINE
  5
21a
100
AcDbEntity
  8
Layer_1
 62
7
100
AcDbSpline
 70
8
 71
3
 72
8
 73
4
 74
0
 40
0
 40
0
 40
0
 40
0
 40
1
 40
1
 40
1
 40
1
 10
39.775918
 20
10.294209
 30
0.0
 10
39.379434
 20
9.945226
 30
0.0
 10
38.963013
 20
9.629950
 30
0.0
 10
38.534381
 20
9.352260
 30
0.0
  0
SPLINE
  5
21b
100
AcDbEntity
  8
Layer_1
 62
7
100
AcDbSpline
 70
8
 71
3
 72
8
 73
4
 74
0
 40
0
 40
0
 40
0
 40
0
 40
1
 40
1
 40
1
 40
1
 10
38.534381
 20
9.352260
 30
0.0
 10
38.099693
 20
9.070649
 30
0.0
 10
37.652011
 20
8.826889
 30
0.0
 10
37.200267
 20
8.622399
 30
0.0
  0
SPLINE
  5
21c
100
AcDbEntity
  8
Layer_1
 62
7
100
AcDbSpline
 70
8
 71
3
 72
8
 73
4
 74
0
 40
0
 40
0
 40
0
 40
0
 40
1
 40
1
 40
1
 40
1
 10
37.200267
 20
8.622399
 30
0.0
 10
36.877966
 20
8.476501
 30
0.0
 10
36.553259
 20
8.351339
 30
0.0
 10
36.229368
 20
8.244860
 30
0.0
  0
SPLINE
  5
21d
100
AcDbEntity
  8
Layer_1
 62
7
100
AcDbSpline
 70
8
 71
3
 72
8
 73
4
 74
0
 40
0
 40
0
 40
0
 40
0
 40
1
 40
1
 40
1
 40
1
 10
36.229368
 20
8.244860
 30
0.0
 10
36.329389
 20
8.546907
 30
0.0
 10
36.414041
 20
8.847552
 30
0.0
 10
36.480171
 20
9.144405
 30
0.0
  0
SPLINE
  5
21e
100
AcDbEntity
  8
Layer_1
 62
7
100
AcDbSpline
 70
8
 71
3
 72
8
 73
4
 74
0
 40
0
 40
0
 40
0
 40
0
 40
1
 40
1
 40
1
 40
1
 10
36.480171
 20
9.144405
 30
0.0
 10
36.582563
 20
9.604037
 30
0.0
 10
36.644937
 20
10.054146
 30
0.0
 10
36.671317
 20
10.487980
 30
0.0
  0
SPLINE
  5
21f
100
AcDbEntity
  8
Layer_1
 62
7
100
AcDbSpline
 70
8
 71
3
 72
8
 73
4
 74
0
 40
0
 40
0
 40
0
 40
0
 40
1
 40
1
 40
1
 40
1
 10
36.671317
 20
10.487980
 30
0.0
 10
36.697693
 20
10.921789
 30
0.0
 10
36.688049
 20
11.338425
 30
0.0
 10
36.647662
 20
11.732381
 30
0.0
  0
SPLINE
  5
220
100
AcDbEntity
  8
Layer_1
 62
7
100
AcDbSpline
 70
8
 71
3
 72
8
 73
4
 74
0
 40
0
 40
0
 40
0
 40
0
 40
1
 40
1
 40
1
 40
1
 10
36.647662
 20
11.732381
 30
0.0
 10
36.623090
 20
11.972061
 30
0.0
 10
36.586402
 20
12.202171
 30
0.0
 10
36.540219
 20
12.423094
 30
0.0
  0
SPLINE
  5
221
100
AcDbEntity
  8
Layer_1
 62
7
100
AcDbSpline
 70
8
 71
3
 72
8
 73
4
 74
0
 40
0
 40
0
 40
0
 40
0
 40
1
 40
1
 40
1
 40
1
 10
36.540219
 20
12.423094
 30
0.0
 10
36.616395
 20
12.520711
 30
0.0
 10
36.691336
 20
12.619287
 30
0.0
 10
36.765023
 20
12.718797
 30
0.0
  0
SPLINE
  5
222
100
AcDbEntity
  8
Layer_1
 62
7
100
AcDbSpline
 70
8
 71
3
 72
8
 73
4
 74
0
 40
0
 40
0
 40
0
 40
0
 40
1
 40
1
 40
1
 40
1
 10
36.765023
 20
12.718797
 30
0.0
 10
36.838372
 20
12.726848
 30
0.0
 10
36.912358
 20
12.736169
 30
0.0
 10
36.987093
 20
12.747096
 30
0.0
  0
SPLINE
  5
223
100
AcDbEntity
  8
Layer_1
 62
7
100
AcDbSpline
 70
8
 71
3
 72
8
 73
4
 74
0
 40
0
 40
0
 40
0
 40
0
 40
1
 40
1
 40
1
 40
1
 10
36.987093
 20
12.747096
 30
0.0
 10
37.363158
 20
12.802075
 30
0.0
 10
37.754098
 20
12.891660
 30
0.0
 10
38.153478
 20
13.019751
 30
0.0
  0
SPLINE
  5
224
100
AcDbEntity
  8
Layer_1
 62
7
100
AcDbSpline
 70
8
 71
3
 72
8
 73
4
 74
0
 40
0
 40
0
 40
0
 40
0
 40
1
 40
1
 40
1
 40
1
 10
38.153478
 20
13.019751
 30
0.0
 10
38.552876
 20
13.147848
 30
0.0
 10
38.959814
 20
13.314209
 30
0.0
 10
39.366911
 20
13.521206
 30
0.0
  0
SPLINE
  5
225
100
AcDbEntity
  8
Layer_1
 62
7
100
AcDbSpline
 70
8
 71
3
 72
8
 73
4
 74
0
 40
0
 40
0
 40
0
 40
0
 40
1
 40
1
 40
1
 40
1
 10
39.366911
 20
13.521206
 30
0.0
 10
39.774029
 20
13.728214
 30
0.0
 10
40.180513
 20
13.975500
 30
0.0
 10
40.578457
 20
14.263740
 30
0.0
  0
SPLINE
  5
226
100
AcDbEntity
  8
Layer_1
 62
7
100
AcDbSpline
 70
8
 71
3
 72
8
 73
4
 74
0
 40
0
 40
0
 40
0
 40
0
 40
1
 40
1
 40
1
 40
1
 10
40.578457
 20
14.263740
 30
0.0
 10
40.596361
 20
14.276708
 30
0.0
 10
40.613977
 20
14.290864
 30
0.0
 10
40.631842
 20
14.303996
 30
0.0
  0
LWPOLYLINE
  5
227
100
AcDbEntity
  8
Layer_1
 62
7
100
AcDbPolyline
 90
2
 70
1
 10
8.891976
 20
14.304018
 30
0.0
 10
8.891972
 20
14.304018
 30
0.0
  0
SPLINE
  5
228
100
AcDbEntity
  8
Layer_1
 62
7
100
AcDbSpline
 70
8
 71
3
 72
8
 73
4
 74
0
 40
0
 40
0
 40
0
 40
0
 40
1
 40
1
 40
1
 40
1
 10
35.184767
 20
10.840541
 30
0.0
 10
35.183011
 20
10.754575
 30
0.0
 10
35.179480
 20
10.667396
 30
0.0
 10
35.174112
 20
10.579105
 30
0.0
  0
SPLINE
  5
229
100
AcDbEntity
  8
Layer_1
 62
7
100
AcDbSpline
 70
8
 71
3
 72
8
 73
4
 74
0
 40
0
 40
0
 40
0
 40
0
 40
1
 40
1
 40
1
 40
1
 10
35.174112
 20
10.579105
 30
0.0
 10
35.152620
 20
10.225644
 30
0.0
 10
35.101357
 20
9.853537
 30
0.0
 10
35.016060
 20
9.470641
 30
0.0
  0
SPLINE
  5
22a
100
AcDbEntity
  8
Layer_1
 62
7
100
AcDbSpline
 70
8
 71
3
 72
8
 73
4
 74
0
 40
0
 40
0
 40
0
 40
0
 40
1
 40
1
 40
1
 40
1
 10
35.016060
 20
9.470641
 30
0.0
 10
34.930767
 20
9.087767
 30
0.0
 10
34.811238
 20
8.693279
 30
0.0
 10
34.654992
 20
8.295794
 30
0.0
  0
SPLINE
  5
22b
100
AcDbEntity
  8
Layer_1
 62
7
100
AcDbSpline
 70
8
 71
3
 72
8
 73
4
 74
0
 40
0
 40
0
 40
0
 40
0
 40
1
 40
1
 40
1
 40
1
 10
34.654992
 20
8.295794
 30
0.0
 10
34.596921
 20
8.148058
 30
0.0
 10
34.532000
 20
7.999772
 30
0.0
 10
34.463673
 20
7.851457
 30
0.0
  0
SPLINE
  5
22c
100
AcDbEntity
  8
Layer_1
 62
7
100
AcDbSpline
 70
8
 71
3
 72
8
 73
4
 74
0
 40
0
 40
0
 40
0
 40
0
 40
1
 40
1
 40
1
 40
1
 10
34.463673
 20
7.851457
 30
0.0
 10
34.040331
 20
7.801559
 30
0.0
 10
33.627597
 20
7.784327
 30
0.0
 10
33.233118
 20
7.797160
 30
0.0
  0
SPLINE
  5
22d
100
AcDbEntity
  8
Layer_1
 62
7
100
AcDbSpline
 70
8
 71
3
 72
8
 73
4
 74
0
 40
0
 40
0
 40
0
 40
0
 40
1
 40
1
 40
1
 40
1
 10
33.233118
 20
7.797160
 30
0.0
 10
32.826718
 20
7.810379
 30
0.0
 10
32.438613
 20
7.854796
 30
0.0
 10
32.075479
 20
7.924482
 30
0.0
  0
SPLINE
  5
22e
100
AcDbEntity
  8
Layer_1
 62
7
100
AcDbSpline
 70
8
 71
3
 72
8
 73
4
 74
0
 40
0
 40
0
 40
0
 40
0
 40
1
 40
1
 40
1
 40
1
 10
32.075479
 20
7.924482
 30
0.0
 10
31.844332
 20
7.968840
 30
0.0
 10
31.623009
 20
8.023546
 30
0.0
 10
31.412762
 20
8.086614
 30
0.0
  0
SPLINE
  5
22f
100
AcDbEntity
  8
Layer_1
 62
7
100
AcDbSpline
 70
8
 71
3
 72
8
 73
4
 74
0
 40
0
 40
0
 40
0
 40
0
 40
1
 40
1
 40
1
 40
1
 10
31.412762
 20
8.086614
 30
0.0
 10
32.808727
 20
8.797866
 30
0.0
 10
34.082106
 20
9.727556
 30
0.0
 10
35.184767
 20
10.840541
 30
0.0
  0
LWPOLYLINE
  5
230
100
AcDbEntity
  8
Layer_1
 62
7
100
AcDbPolyline
 90
3
 70
1
 10
40.631842
 20
14.303996
 30
0.0
 10
40.631842
 20
14.303996
 30
0.0
 10
40.631859
 20
14.304018
 30
0.0
  0
SPLINE
  5
231
100
AcDbEntity
  8
Layer_1
 62
7
100
AcDbSpline
 70
8
 71
3
 72
8
 73
4
 74
0
 40
0
 40
0
 40
0
 40
0
 40
1
 40
1
 40
1
 40
1
 10
14.339281
 20
10.836418
 30
0.0
 10
15.448847
 20
9.725339
 30
0.0
 10
16.729149
 20
8.799076
 30
0.0
 10
18.131577
 20
8.092798
 30
0.0
  0
SPLINE
  5
232
100
AcDbEntity
  8
Layer_1
 62
7
100
AcDbSpline
 70
8
 71
3
 72
8
 73
4
 74
0
 40
0
 40
0
 40
0
 40
0
 40
1
 40
1
 40
1
 40
1
 10
18.131577
 20
8.092798
 30
0.0
 10
17.915248
 20
8.027119
 30
0.0
 10
17.687096
 20
7.970280
 30
0.0
 10
17.448439
 20
7.924482
 30
0.0
  0
SPLINE
  5
233
100
AcDbEntity
  8
Layer_1
 62
7
100
AcDbSpline
 70
8
 71
3
 72
8
 73
4
 74
0
 40
0
 40
0
 40
0
 40
0
 40
1
 40
1
 40
1
 40
1
 10
17.448439
 20
7.924482
 30
0.0
 10
17.085306
 20
7.854796
 30
0.0
 10
16.697200
 20
7.810379
 30
0.0
 10
16.290800
 20
7.797160
 30
0.0
  0
SPLINE
  5
234
100
AcDbEntity
  8
Layer_1
 62
7
100
AcDbSpline
 70
8
 71
3
 72
8
 73
4
 74
0
 40
0
 40
0
 40
0
 40
0
 40
1
 40
1
 40
1
 40
1
 10
16.290800
 20
7.797160
 30
0.0
 10
15.896327
 20
7.784328
 30
0.0
 10
15.483606
 20
7.801561
 30
0.0
 10
15.060267
 20
7.851457
 30
0.0
  0
SPLINE
  5
235
100
AcDbEntity
  8
Layer_1
 62
7
100
AcDbSpline
 70
8
 71
3
 72
8
 73
4
 74
0
 40
0
 40
0
 40
0
 40
0
 40
1
 40
1
 40
1
 40
1
 10
15.060267
 20
7.851457
 30
0.0
 10
14.991941
 20
7.999774
 30
0.0
 10
14.926998
 20
8.148057
 30
0.0
 10
14.868926
 20
8.295794
 30
0.0
  0
SPLINE
  5
236
100
AcDbEntity
  8
Layer_1
 62
7
100
AcDbSpline
 70
8
 71
3
 72
8
 73
4
 74
0
 40
0
 40
0
 40
0
 40
0
 40
1
 40
1
 40
1
 40
1
 10
14.868926
 20
8.295794
 30
0.0
 10
14.712681
 20
8.693279
 30
0.0
 10
14.593151
 20
9.087767
 30
0.0
 10
14.507858
 20
9.470641
 30
0.0
  0
SPLINE
  5
237
100
AcDbEntity
  8
Layer_1
 62
7
100
AcDbSpline
 70
8
 71
3
 72
8
 73
4
 74
0
 40
0
 40
0
 40
0
 40
0
 40
1
 40
1
 40
1
 40
1
 10
14.507858
 20
9.470641
 30
0.0
 10
14.422553
 20
9.853534
 30
0.0
 10
14.371321
 20
10.225639
 30
0.0
 10
14.349828
 20
10.579105
 30
0.0
  0
SPLINE
  5
238
100
AcDbEntity
  8
Layer_1
 62
7
100
AcDbSpline
 70
8
 71
3
 72
8
 73
4
 74
0
 40
0
 40
0
 40
0
 40
0
 40
1
 40
1
 40
1
 40
1
 10
14.349828
 20
10.579105
 30
0.0
 10
14.344544
 20
10.665989
 30
0.0
 10
14.341066
 20
10.751784
 30
0.0
 10
14.339281
 20
10.836418
 30
0.0
  0
LWPOLYLINE
  5
239
100
AcDbEntity
  8
Layer_1
 62
7
100
AcDbPolyline
 90
2
 70
1
 10
35.184767
 20
10.840541
 30
0.0
 10
35.184767
 20
10.840541
 30
0.0
  0
SPLINE
  5
23a
100
AcDbEntity
  8
Layer_1
 62
7
100
AcDbSpline
 70
8
 71
3
 72
8
 73
4
 74
0
 40
0
 40
0
 40
0
 40
0
 40
1
 40
1
 40
1
 40
1
 10
29.473461
 20
7.290042
 30
0.0
 10
29.476386
 20
7.288372
 30
0.0
 10
29.479253
 20
7.286674
 30
0.0
 10
29.482184
 20
7.285008
 30
0.0
  0
SPLINE
  5
23b
100
AcDbEntity
  8
Layer_1
 62
7
100
AcDbSpline
 70
8
 71
3
 72
8
 73
4
 74
0
 40
0
 40
0
 40
0
 40
0
 40
1
 40
1
 40
1
 40
1
 10
29.482184
 20
7.285008
 30
0.0
 10
29.805561
 20
7.101137
 30
0.0
 10
30.161869
 20
6.935014
 30
0.0
 10
30.548526
 20
6.793645
 30
0.0
  0
SPLINE
  5
23c
100
AcDbEntity
  8
Layer_1
 62
7
100
AcDbSpline
 70
8
 71
3
 72
8
 73
4
 74
0
 40
0
 40
0
 40
0
 40
0
 40
1
 40
1
 40
1
 40
1
 10
30.548526
 20
6.793645
 30
0.0
 10
30.935206
 20
6.652268
 30
0.0
 10
31.351360
 20
6.536009
 30
0.0
 10
31.792753
 20
6.451306
 30
0.0
  0
SPLINE
  5
23d
100
AcDbEntity
  8
Layer_1
 62
7
100
AcDbSpline
 70
8
 71
3
 72
8
 73
4
 74
0
 40
0
 40
0
 40
0
 40
0
 40
1
 40
1
 40
1
 40
1
 10
31.792753
 20
6.451306
 30
0.0
 10
32.234164
 20
6.366597
 30
0.0
 10
32.699927
 20
6.313655
 30
0.0
 10
33.184333
 20
6.297898
 30
0.0
  0
SPLINE
  5
23e
100
AcDbEntity
  8
Layer_1
 62
7
100
AcDbSpline
 70
8
 71
3
 72
8
 73
4
 74
0
 40
0
 40
0
 40
0
 40
0
 40
1
 40
1
 40
1
 40
1
 10
33.184333
 20
6.297898
 30
0.0
 10
33.303074
 20
6.294036
 30
0.0
 10
33.422933
 20
6.292537
 30
0.0
 10
33.543708
 20
6.293210
 30
0.0
  0
SPLINE
  5
23f
100
AcDbEntity
  8
Layer_1
 62
7
100
AcDbSpline
 70
8
 71
3
 72
8
 73
4
 74
0
 40
0
 40
0
 40
0
 40
0
 40
1
 40
1
 40
1
 40
1
 10
33.543708
 20
6.293210
 30
0.0
 10
33.455633
 20
6.172889
 30
0.0
 10
33.365253
 20
6.053232
 30
0.0
 10
33.270032
 20
5.935246
 30
0.0
  0
SPLINE
  5
240
100
AcDbEntity
  8
Layer_1
 62
7
100
AcDbSpline
 70
8
 71
3
 72
8
 73
4
 74
0
 40
0
 40
0
 40
0
 40
0
 40
1
 40
1
 40
1
 40
1
 10
33.270032
 20
5.935246
 30
0.0
 10
32.964850
 20
5.557105
 30
0.0
 10
32.622674
 20
5.191739
 30
0.0
 10
32.246898
 20
4.847529
 30
0.0
  0
SPLINE
  5
241
100
AcDbEntity
  8
Layer_1
 62
7
100
AcDbSpline
 70
8
 71
3
 72
8
 73
4
 74
0
 40
0
 40
0
 40
0
 40
0
 40
1
 40
1
 40
1
 40
1
 10
32.246898
 20
4.847529
 30
0.0
 10
31.871122
 20
4.503322
 30
0.0
 10
31.461160
 20
4.179748
 30
0.0
 10
31.022116
 20
3.884313
 30
0.0
  0
SPLINE
  5
242
100
AcDbEntity
  8
Layer_1
 62
7
100
AcDbSpline
 70
8
 71
3
 72
8
 73
4
 74
0
 40
0
 40
0
 40
0
 40
0
 40
1
 40
1
 40
1
 40
1
 10
31.022116
 20
3.884313
 30
0.0
 10
30.851609
 20
3.769580
 30
0.0
 10
30.675372
 20
3.660395
 30
0.0
 10
30.496290
 20
3.554387
 30
0.0
  0
SPLINE
  5
243
100
AcDbEntity
  8
Layer_1
 62
7
100
AcDbSpline
 70
8
 71
3
 72
8
 73
4
 74
0
 40
0
 40
0
 40
0
 40
0
 40
1
 40
1
 40
1
 40
1
 10
30.496290
 20
3.554387
 30
0.0
 10
30.396453
 20
3.545005
 30
0.0
 10
30.296604
 20
3.535637
 30
0.0
 10
30.197137
 20
3.529083
 30
0.0
  0
SPLINE
  5
244
100
AcDbEntity
  8
Layer_1
 62
7
100
AcDbSpline
 70
8
 71
3
 72
8
 73
4
 74
0
 40
0
 40
0
 40
0
 40
0
 40
1
 40
1
 40
1
 40
1
 10
30.197137
 20
3.529083
 30
0.0
 10
29.665684
 20
3.494073
 30
0.0
 10
29.139574
 20
3.499284
 30
0.0
 10
28.627519
 20
3.542060
 30
0.0
  0
SPLINE
  5
245
100
AcDbEntity
  8
Layer_1
 62
7
100
AcDbSpline
 70
8
 71
3
 72
8
 73
4
 74
0
 40
0
 40
0
 40
0
 40
0
 40
1
 40
1
 40
1
 40
1
 10
28.627519
 20
3.542060
 30
0.0
 10
28.115451
 20
3.584835
 30
0.0
 10
27.616656
 20
3.665213
 30
0.0
 10
27.138977
 20
3.778735
 30
0.0
  0
SPLINE
  5
246
100
AcDbEntity
  8
Layer_1
 62
7
100
AcDbSpline
 70
8
 71
3
 72
8
 73
4
 74
0
 40
0
 40
0
 40
0
 40
0
 40
1
 40
1
 40
1
 40
1
 10
27.138977
 20
3.778735
 30
0.0
 10
26.893862
 20
3.836988
 30
0.0
 10
26.654329
 20
3.904301
 30
0.0
 10
26.420834
 20
3.979278
 30
0.0
  0
SPLINE
  5
247
100
AcDbEntity
  8
Layer_1
 62
7
100
AcDbSpline
 70
8
 71
3
 72
8
 73
4
 74
0
 40
0
 40
0
 40
0
 40
0
 40
1
 40
1
 40
1
 40
1
 10
26.420834
 20
3.979278
 30
0.0
 10
26.599382
 20
4.107451
 30
0.0
 10
26.771977
 20
4.239221
 30
0.0
 10
26.936112
 20
4.375242
 30
0.0
  0
SPLINE
  5
248
100
AcDbEntity
  8
Layer_1
 62
7
100
AcDbSpline
 70
8
 71
3
 72
8
 73
4
 74
0
 40
0
 40
0
 40
0
 40
0
 40
1
 40
1
 40
1
 40
1
 10
26.936112
 20
4.375242
 30
0.0
 10
27.304034
 20
4.680143
 30
0.0
 10
27.634462
 20
5.002522
 30
0.0
 10
27.926326
 20
5.334595
 30
0.0
  0
SPLINE
  5
249
100
AcDbEntity
  8
Layer_1
 62
7
100
AcDbSpline
 70
8
 71
3
 72
8
 73
4
 74
0
 40
0
 40
0
 40
0
 40
0
 40
1
 40
1
 40
1
 40
1
 10
27.926326
 20
5.334595
 30
0.0
 10
28.218174
 20
5.666650
 30
0.0
 10
28.470890
 20
6.007701
 30
0.0
 10
28.685158
 20
6.350090
 30
0.0
  0
SPLINE
  5
24a
100
AcDbEntity
  8
Layer_1
 62
7
100
AcDbSpline
 70
8
 71
3
 72
8
 73
4
 74
0
 40
0
 40
0
 40
0
 40
0
 40
1
 40
1
 40
1
 40
1
 10
28.685158
 20
6.350090
 30
0.0
 10
28.857889
 20
6.626107
 30
0.0
 10
29.005293
 20
6.902469
 30
0.0
 10
29.128669
 20
7.175480
 30
0.0
  0
SPLINE
  5
24b
100
AcDbEntity
  8
Layer_1
 62
7
100
AcDbSpline
 70
8
 71
3
 72
8
 73
4
 74
0
 40
0
 40
0
 40
0
 40
0
 40
1
 40
1
 40
1
 40
1
 10
29.128669
 20
7.175480
 30
0.0
 10
29.244067
 20
7.212247
 30
0.0
 10
29.359006
 20
7.250437
 30
0.0
 10
29.473461
 20
7.290042
 30
0.0
  0
LWPOLYLINE
  5
24c
100
AcDbEntity
  8
Layer_1
 62
7
100
AcDbPolyline
 90
2
 70
1
 10
14.339281
 20
10.836418
 30
0.0
 10
14.339281
 20
10.836418
 30
0.0
  0
SPLINE
  5
24d
100
AcDbEntity
  8
Layer_1
 62
7
100
AcDbSpline
 70
8
 71
3
 72
8
 73
4
 74
0
 40
0
 40
0
 40
0
 40
0
 40
1
 40
1
 40
1
 40
1
 10
20.046009
 20
7.287547
 30
0.0
 10
20.164646
 20
7.242488
 30
0.0
 10
20.283862
 20
7.198965
 30
0.0
 10
20.403626
 20
7.156991
 30
0.0
  0
SPLINE
  5
24e
100
AcDbEntity
  8
Layer_1
 62
7
100
AcDbSpline
 70
8
 71
3
 72
8
 73
4
 74
0
 40
0
 40
0
 40
0
 40
0
 40
1
 40
1
 40
1
 40
1
 10
20.403626
 20
7.156991
 30
0.0
 10
20.525282
 20
6.890007
 30
0.0
 10
20.669848
 20
6.619909
 30
0.0
 10
20.838673
 20
6.350134
 30
0.0
  0
SPLINE
  5
24f
100
AcDbEntity
  8
Layer_1
 62
7
100
AcDbSpline
 70
8
 71
3
 72
8
 73
4
 74
0
 40
0
 40
0
 40
0
 40
0
 40
1
 40
1
 40
1
 40
1
 10
20.838673
 20
6.350134
 30
0.0
 10
21.052942
 20
6.007745
 30
0.0
 10
21.305639
 20
5.666691
 30
0.0
 10
21.597484
 20
5.334639
 30
0.0
  0
SPLINE
  5
250
100
AcDbEntity
  8
Layer_1
 62
7
100
AcDbSpline
 70
8
 71
3
 72
8
 73
4
 74
0
 40
0
 40
0
 40
0
 40
0
 40
1
 40
1
 40
1
 40
1
 10
21.597484
 20
5.334639
 30
0.0
 10
21.889348
 20
5.002570
 30
0.0
 10
22.219771
 20
4.680188
 30
0.0
 10
22.587697
 20
4.375285
 30
0.0
  0
SPLINE
  5
251
100
AcDbEntity
  8
Layer_1
 62
7
100
AcDbSpline
 70
8
 71
3
 72
8
 73
4
 74
0
 40
0
 40
0
 40
0
 40
0
 40
1
 40
1
 40
1
 40
1
 10
22.587697
 20
4.375285
 30
0.0
 10
22.751831
 20
4.239265
 30
0.0
 10
22.924429
 20
4.107494
 30
0.0
 10
23.102974
 20
3.979321
 30
0.0
  0
SPLINE
  5
252
100
AcDbEntity
  8
Layer_1
 62
7
100
AcDbSpline
 70
8
 71
3
 72
8
 73
4
 74
0
 40
0
 40
0
 40
0
 40
0
 40
1
 40
1
 40
1
 40
1
 10
23.102974
 20
3.979321
 30
0.0
 10
22.869481
 20
3.904344
 30
0.0
 10
22.629948
 20
3.837031
 30
0.0
 10
22.384832
 20
3.778779
 30
0.0
  0
SPLINE
  5
253
100
AcDbEntity
  8
Layer_1
 62
7
100
AcDbSpline
 70
8
 71
3
 72
8
 73
4
 74
0
 40
0
 40
0
 40
0
 40
0
 40
1
 40
1
 40
1
 40
1
 10
22.384832
 20
3.778779
 30
0.0
 10
21.907156
 20
3.665257
 30
0.0
 10
21.408357
 20
3.584879
 30
0.0
 10
20.896290
 20
3.542103
 30
0.0
  0
SPLINE
  5
254
100
AcDbEntity
  8
Layer_1
 62
7
100
AcDbSpline
 70
8
 71
3
 72
8
 73
4
 74
0
 40
0
 40
0
 40
0
 40
0
 40
1
 40
1
 40
1
 40
1
 10
20.896290
 20
3.542103
 30
0.0
 10
20.384232
 20
3.499328
 30
0.0
 10
19.858147
 20
3.494117
 30
0.0
 10
19.326694
 20
3.529127
 30
0.0
  0
SPLINE
  5
255
100
AcDbEntity
  8
Layer_1
 62
7
100
AcDbSpline
 70
8
 71
3
 72
8
 73
4
 74
0
 40
0
 40
0
 40
0
 40
0
 40
1
 40
1
 40
1
 40
1
 10
19.326694
 20
3.529127
 30
0.0
 10
19.227231
 20
3.535679
 30
0.0
 10
19.127372
 20
3.545050
 30
0.0
 10
19.027540
 20
3.554430
 30
0.0
  0
SPLINE
  5
256
100
AcDbEntity
  8
Layer_1
 62
7
100
AcDbSpline
 70
8
 71
3
 72
8
 73
4
 74
0
 40
0
 40
0
 40
0
 40
0
 40
1
 40
1
 40
1
 40
1
 10
19.027540
 20
3.554430
 30
0.0
 10
18.848459
 20
3.660439
 30
0.0
 10
18.672221
 20
3.769601
 30
0.0
 10
18.501716
 20
3.884334
 30
0.0
  0
SPLINE
  5
257
100
AcDbEntity
  8
Layer_1
 62
7
100
AcDbSpline
 70
8
 71
3
 72
8
 73
4
 74
0
 40
0
 40
0
 40
0
 40
0
 40
1
 40
1
 40
1
 40
1
 10
18.501716
 20
3.884334
 30
0.0
 10
18.062670
 20
4.179768
 30
0.0
 10
17.652688
 20
4.503344
 30
0.0
 10
17.276911
 20
4.847551
 30
0.0
  0
SPLINE
  5
258
100
AcDbEntity
  8
Layer_1
 62
7
100
AcDbSpline
 70
8
 71
3
 72
8
 73
4
 74
0
 40
0
 40
0
 40
0
 40
0
 40
1
 40
1
 40
1
 40
1
 10
17.276911
 20
4.847551
 30
0.0
 10
16.901134
 20
5.191760
 30
0.0
 10
16.558958
 20
5.557129
 30
0.0
 10
16.253778
 20
5.935268
 30
0.0
  0
SPLINE
  5
259
100
AcDbEntity
  8
Layer_1
 62
7
100
AcDbSpline
 70
8
 71
3
 72
8
 73
4
 74
0
 40
0
 40
0
 40
0
 40
0
 40
1
 40
1
 40
1
 40
1
 10
16.253778
 20
5.935268
 30
0.0
 10
16.158560
 20
6.053250
 30
0.0
 10
16.068172
 20
6.172894
 30
0.0
 10
15.980101
 20
6.293210
 30
0.0
  0
SPLINE
  5
25a
100
AcDbEntity
  8
Layer_1
 62
7
100
AcDbSpline
 70
8
 71
3
 72
8
 73
4
 74
0
 40
0
 40
0
 40
0
 40
0
 40
1
 40
1
 40
1
 40
1
 10
15.980101
 20
6.293210
 30
0.0
 10
16.100877
 20
6.292532
 30
0.0
 10
16.220736
 20
6.294032
 30
0.0
 10
16.339477
 20
6.297898
 30
0.0
  0
SPLINE
  5
25b
100
AcDbEntity
  8
Layer_1
 62
7
100
AcDbSpline
 70
8
 71
3
 72
8
 73
4
 74
0
 40
0
 40
0
 40
0
 40
0
 40
1
 40
1
 40
1
 40
1
 10
16.339477
 20
6.297898
 30
0.0
 10
16.823883
 20
6.313655
 30
0.0
 10
17.289646
 20
6.366597
 30
0.0
 10
17.731057
 20
6.451306
 30
0.0
  0
SPLINE
  5
25c
100
AcDbEntity
  8
Layer_1
 62
7
100
AcDbSpline
 70
8
 71
3
 72
8
 73
4
 74
0
 40
0
 40
0
 40
0
 40
0
 40
1
 40
1
 40
1
 40
1
 10
17.731057
 20
6.451306
 30
0.0
 10
18.172449
 20
6.536009
 30
0.0
 10
18.588603
 20
6.652268
 30
0.0
 10
18.975283
 20
6.793645
 30
0.0
  0
SPLINE
  5
25d
100
AcDbEntity
  8
Layer_1
 62
7
100
AcDbSpline
 70
8
 71
3
 72
8
 73
4
 74
0
 40
0
 40
0
 40
0
 40
0
 40
1
 40
1
 40
1
 40
1
 10
18.975283
 20
6.793645
 30
0.0
 10
19.361940
 20
6.935014
 30
0.0
 10
19.718249
 20
7.101138
 30
0.0
 10
20.041624
 20
7.285008
 30
0.0
  0
SPLINE
  5
25e
100
AcDbEntity
  8
Layer_1
 62
7
100
AcDbSpline
 70
8
 71
3
 72
8
 73
4
 74
0
 40
0
 40
0
 40
0
 40
0
 40
1
 40
1
 40
1
 40
1
 10
20.041624
 20
7.285008
 30
0.0
 10
20.043099
 20
7.285841
 30
0.0
 10
20.044536
 20
7.286708
 30
0.0
 10
20.046009
 20
7.287547
 30
0.0
  0
LWPOLYLINE
  5
25f
100
AcDbEntity
  8
Layer_1
 62
7
100
AcDbPolyline
 90
2
 70
1
 10
29.473461
 20
7.290042
 30
0.0
 10
29.473461
 20
7.290042
 30
0.0
  0
SPLINE
  5
260
100
AcDbEntity
  8
Layer_1
 62
7
100
AcDbSpline
 70
8
 71
3
 72
8
 73
4
 74
0
 40
0
 40
0
 40
0
 40
0
 40
1
 40
1
 40
1
 40
1
 10
11.706599
 20
7.255234
 30
0.0
 10
12.226521
 20
7.019976
 30
0.0
 10
12.753004
 20
6.828828
 30
0.0
 10
13.277974
 20
6.681167
 30
0.0
  0
SPLINE
  5
261
100
AcDbEntity
  8
Layer_1
 62
7
100
AcDbSpline
 70
8
 71
3
 72
8
 73
4
 74
0
 40
0
 40
0
 40
0
 40
0
 40
1
 40
1
 40
1
 40
1
 10
13.277974
 20
6.681167
 30
0.0
 10
13.543756
 20
6.606409
 30
0.0
 10
13.808921
 20
6.543029
 30
0.0
 10
14.072506
 20
6.490325
 30
0.0
  0
SPLINE
  5
262
100
AcDbEntity
  8
Layer_1
 62
7
100
AcDbSpline
 70
8
 71
3
 72
8
 73
4
 74
0
 40
0
 40
0
 40
0
 40
0
 40
1
 40
1
 40
1
 40
1
 10
14.072506
 20
6.490325
 30
0.0
 10
14.099552
 20
6.442172
 30
0.0
 10
14.125116
 20
6.393788
 30
0.0
 10
14.153083
 20
6.345794
 30
0.0
  0
SPLINE
  5
263
100
AcDbEntity
  8
Layer_1
 62
7
100
AcDbSpline
 70
8
 71
3
 72
8
 73
4
 74
0
 40
0
 40
0
 40
0
 40
0
 40
1
 40
1
 40
1
 40
1
 10
14.153083
 20
6.345794
 30
0.0
 10
14.422306
 20
5.883769
 30
0.0
 10
14.733814
 20
5.430241
 30
0.0
 10
15.086503
 20
4.993232
 30
0.0
  0
SPLINE
  5
264
100
AcDbEntity
  8
Layer_1
 62
7
100
AcDbSpline
 70
8
 71
3
 72
8
 73
4
 74
0
 40
0
 40
0
 40
0
 40
0
 40
1
 40
1
 40
1
 40
1
 10
15.086503
 20
4.993232
 30
0.0
 10
15.227566
 20
4.818447
 30
0.0
 10
15.376928
 20
4.647312
 30
0.0
 10
15.530818
 20
4.478519
 30
0.0
  0
SPLINE
  5
265
100
AcDbEntity
  8
Layer_1
 62
7
100
AcDbSpline
 70
8
 71
3
 72
8
 73
4
 74
0
 40
0
 40
0
 40
0
 40
0
 40
1
 40
1
 40
1
 40
1
 10
15.530818
 20
4.478519
 30
0.0
 10
15.218858
 20
4.617863
 30
0.0
 10
14.911422
 20
4.769910
 30
0.0
 10
14.611763
 20
4.937590
 30
0.0
  0
SPLINE
  5
266
100
AcDbEntity
  8
Layer_1
 62
7
100
AcDbSpline
 70
8
 71
3
 72
8
 73
4
 74
0
 40
0
 40
0
 40
0
 40
0
 40
1
 40
1
 40
1
 40
1
 10
14.611763
 20
4.937590
 30
0.0
 10
14.120363
 20
5.212565
 30
0.0
 10
13.647476
 20
5.525071
 30
0.0
 10
13.200826
 20
5.870185
 30
0.0
  0
SPLINE
  5
267
100
AcDbEntity
  8
Layer_1
 62
7
100
AcDbSpline
 70
8
 71
3
 72
8
 73
4
 74
0
 40
0
 40
0
 40
0
 40
0
 40
1
 40
1
 40
1
 40
1
 10
13.200826
 20
5.870185
 30
0.0
 10
12.754174
 20
6.215301
 30
0.0
 10
12.333164
 20
6.593507
 30
0.0
 10
11.944337
 20
6.998354
 30
0.0
  0
SPLINE
  5
268
100
AcDbEntity
  8
Layer_1
 62
7
100
AcDbSpline
 70
8
 71
3
 72
8
 73
4
 74
0
 40
0
 40
0
 40
0
 40
0
 40
1
 40
1
 40
1
 40
1
 10
11.944337
 20
6.998354
 30
0.0
 10
11.863422
 20
7.082602
 30
0.0
 10
11.784729
 20
7.168699
 30
0.0
 10
11.706599
 20
7.255234
 30
0.0
  0
LWPOLYLINE
  5
269
100
AcDbEntity
  8
Layer_1
 62
7
100
AcDbPolyline
 90
2
 70
1
 10
20.046009
 20
7.287547
 30
0.0
 10
20.046009
 20
7.287547
 30
0.0
  0
SPLINE
  5
26a
100
AcDbEntity
  8
Layer_1
 62
7
100
AcDbSpline
 70
8
 71
3
 72
8
 73
4
 74
0
 40
0
 40
0
 40
0
 40
0
 40
1
 40
1
 40
1
 40
1
 10
37.817211
 20
7.255234
 30
0.0
 10
37.739081
 20
7.168699
 30
0.0
 10
37.660388
 20
7.082602
 30
0.0
 10
37.579472
 20
6.998354
 30
0.0
  0
SPLINE
  5
26b
100
AcDbEntity
  8
Layer_1
 62
7
100
AcDbSpline
 70
8
 71
3
 72
8
 73
4
 74
0
 40
0
 40
0
 40
0
 40
0
 40
1
 40
1
 40
1
 40
1
 10
37.579472
 20
6.998354
 30
0.0
 10
37.190644
 20
6.593507
 30
0.0
 10
36.769657
 20
6.215301
 30
0.0
 10
36.323004
 20
5.870185
 30
0.0
  0
SPLINE
  5
26c
100
AcDbEntity
  8
Layer_1
 62
7
100
AcDbSpline
 70
8
 71
3
 72
8
 73
4
 74
0
 40
0
 40
0
 40
0
 40
0
 40
1
 40
1
 40
1
 40
1
 10
36.323004
 20
5.870185
 30
0.0
 10
35.876356
 20
5.525071
 30
0.0
 10
35.403451
 20
5.212565
 30
0.0
 10
34.912046
 20
4.937590
 30
0.0
  0
SPLINE
  5
26d
100
AcDbEntity
  8
Layer_1
 62
7
100
AcDbSpline
 70
8
 71
3
 72
8
 73
4
 74
0
 40
0
 40
0
 40
0
 40
0
 40
1
 40
1
 40
1
 40
1
 10
34.912046
 20
4.937590
 30
0.0
 10
34.612382
 20
4.769908
 30
0.0
 10
34.304958
 20
4.617843
 30
0.0
 10
33.992992
 20
4.478497
 30
0.0
  0
SPLINE
  5
26e
100
AcDbEntity
  8
Layer_1
 62
7
100
AcDbSpline
 70
8
 71
3
 72
8
 73
4
 74
0
 40
0
 40
0
 40
0
 40
0
 40
1
 40
1
 40
1
 40
1
 10
33.992992
 20
4.478497
 30
0.0
 10
34.146886
 20
4.647292
 30
0.0
 10
34.296240
 20
4.818443
 30
0.0
 10
34.437307
 20
4.993232
 30
0.0
  0
SPLINE
  5
26f
100
AcDbEntity
  8
Layer_1
 62
7
100
AcDbSpline
 70
8
 71
3
 72
8
 73
4
 74
0
 40
0
 40
0
 40
0
 40
0
 40
1
 40
1
 40
1
 40
1
 10
34.437307
 20
4.993232
 30
0.0
 10
34.789997
 20
5.430242
 30
0.0
 10
35.101502
 20
5.883770
 30
0.0
 10
35.370727
 20
6.345794
 30
0.0
  0
SPLINE
  5
270
100
AcDbEntity
  8
Layer_1
 62
7
100
AcDbSpline
 70
8
 71
3
 72
8
 73
4
 74
0
 40
0
 40
0
 40
0
 40
0
 40
1
 40
1
 40
1
 40
1
 10
35.370727
 20
6.345794
 30
0.0
 10
35.398692
 20
6.393787
 30
0.0
 10
35.424258
 20
6.442174
 30
0.0
 10
35.451303
 20
6.490325
 30
0.0
  0
SPLINE
  5
271
100
AcDbEntity
  8
Layer_1
 62
7
100
AcDbSpline
 70
8
 71
3
 72
8
 73
4
 74
0
 40
0
 40
0
 40
0
 40
0
 40
1
 40
1
 40
1
 40
1
 10
35.451303
 20
6.490325
 30
0.0
 10
35.714888
 20
6.543029
 30
0.0
 10
35.980053
 20
6.606409
 30
0.0
 10
36.245834
 20
6.681167
 30
0.0
  0
SPLINE
  5
272
100
AcDbEntity
  8
Layer_1
 62
7
100
AcDbSpline
 70
8
 71
3
 72
8
 73
4
 74
0
 40
0
 40
0
 40
0
 40
0
 40
1
 40
1
 40
1
 40
1
 10
36.245834
 20
6.681167
 30
0.0
 10
36.770802
 20
6.828828
 30
0.0
 10
37.297288
 20
7.019976
 30
0.0
 10
37.817211
 20
7.255234
 30
0.0
  0
LWPOLYLINE
  5
273
100
AcDbEntity
  8
Layer_1
 62
7
100
AcDbPolyline
 90
2
 70
1
 10
11.706599
 20
7.255234
 30
0.0
 10
11.706599
 20
7.255234
 30
0.0
  0
SPLINE
  5
274
100
AcDbEntity
  8
Layer_1
 62
7
100
AcDbSpline
 70
8
 71
3
 72
8
 73
4
 74
0
 40
0
 40
0
 40
0
 40
0
 40
1
 40
1
 40
1
 40
1
 10
22.416690
 20
6.701912
 30
0.0
 10
23.191674
 20
6.570711
 30
0.0
 10
23.975926
 20
6.501835
 30
0.0
 10
24.761916
 20
6.495945
 30
0.0
  0
SPLINE
  5
275
100
AcDbEntity
  8
Layer_1
 62
7
100
AcDbSpline
 70
8
 71
3
 72
8
 73
4
 74
0
 40
0
 40
0
 40
0
 40
0
 40
1
 40
1
 40
1
 40
1
 10
24.761916
 20
6.495945
 30
0.0
 10
25.544645
 20
6.498396
 30
0.0
 10
26.325931
 20
6.563315
 30
0.0
 10
27.098330
 20
6.690086
 30
0.0
  0
SPLINE
  5
276
100
AcDbEntity
  8
Layer_1
 62
7
100
AcDbSpline
 70
8
 71
3
 72
8
 73
4
 74
0
 40
0
 40
0
 40
0
 40
0
 40
1
 40
1
 40
1
 40
1
 10
27.098330
 20
6.690086
 30
0.0
 10
27.005587
 20
6.567979
 30
0.0
 10
26.906091
 20
6.446029
 30
0.0
 10
26.799719
 20
6.325004
 30
0.0
  0
SPLINE
  5
277
100
AcDbEntity
  8
Layer_1
 62
7
100
AcDbSpline
 70
8
 71
3
 72
8
 73
4
 74
0
 40
0
 40
0
 40
0
 40
0
 40
1
 40
1
 40
1
 40
1
 10
26.799719
 20
6.325004
 30
0.0
 10
26.560736
 20
6.053098
 30
0.0
 10
26.286672
 20
5.785263
 30
0.0
 10
25.979060
 20
5.530341
 30
0.0
  0
SPLINE
  5
278
100
AcDbEntity
  8
Layer_1
 62
7
100
AcDbSpline
 70
8
 71
3
 72
8
 73
4
 74
0
 40
0
 40
0
 40
0
 40
0
 40
1
 40
1
 40
1
 40
1
 10
25.979060
 20
5.530341
 30
0.0
 10
25.671461
 20
5.275431
 30
0.0
 10
25.329660
 20
5.032902
 30
0.0
 10
24.957098
 20
4.811005
 30
0.0
  0
SPLINE
  5
279
100
AcDbEntity
  8
Layer_1
 62
7
100
AcDbSpline
 70
8
 71
3
 72
8
 73
4
 74
0
 40
0
 40
0
 40
0
 40
0
 40
1
 40
1
 40
1
 40
1
 10
24.957098
 20
4.811005
 30
0.0
 10
24.893384
 20
4.773057
 30
0.0
 10
24.827489
 20
4.736579
 30
0.0
 10
24.761959
 20
4.699851
 30
0.0
  0
SPLINE
  5
27a
100
AcDbEntity
  8
Layer_1
 62
7
100
AcDbSpline
 70
8
 71
3
 72
8
 73
4
 74
0
 40
0
 40
0
 40
0
 40
0
 40
1
 40
1
 40
1
 40
1
 10
24.761959
 20
4.699851
 30
0.0
 10
24.696436
 20
4.736577
 30
0.0
 10
24.630551
 20
4.773060
 30
0.0
 10
24.566842
 20
4.811005
 30
0.0
  0
SPLINE
  5
27b
100
AcDbEntity
  8
Layer_1
 62
7
100
AcDbSpline
 70
8
 71
3
 72
8
 73
4
 74
0
 40
0
 40
0
 40
0
 40
0
 40
1
 40
1
 40
1
 40
1
 10
24.566842
 20
4.811005
 30
0.0
 10
24.194280
 20
5.032901
 30
0.0
 10
23.852481
 20
5.275430
 30
0.0
 10
23.544880
 20
5.530341
 30
0.0
  0
SPLINE
  5
27c
100
AcDbEntity
  8
Layer_1
 62
7
100
AcDbSpline
 70
8
 71
3
 72
8
 73
4
 74
0
 40
0
 40
0
 40
0
 40
0
 40
1
 40
1
 40
1
 40
1
 10
23.544880
 20
5.530341
 30
0.0
 10
23.237268
 20
5.785261
 30
0.0
 10
22.963206
 20
6.053074
 30
0.0
 10
22.724220
 20
6.324981
 30
0.0
  0
SPLINE
  5
27d
100
AcDbEntity
  8
Layer_1
 62
7
100
AcDbSpline
 70
8
 71
3
 72
8
 73
4
 74
0
 40
0
 40
0
 40
0
 40
0
 40
1
 40
1
 40
1
 40
1
 10
22.724220
 20
6.324981
 30
0.0
 10
22.614409
 20
6.449920
 30
0.0
 10
22.511978
 20
6.575851
 30
0.0
 10
22.416690
 20
6.701912
 30
0.0
  0
LWPOLYLINE
  5
27e
100
AcDbEntity
  8
Layer_1
 62
7
100
AcDbPolyline
 90
2
 70
1
 10
37.817211
 20
7.255234
 30
0.0
 10
37.817211
 20
7.255234
 30
0.0
  0
LWPOLYLINE
  5
27f
100
AcDbEntity
  8
Layer_1
 62
7
100
AcDbPolyline
 90
2
 70
1
 10
22.416690
 20
6.701912
 30
0.0
 10
22.416690
 20
6.701912
 30
0.0
  0
SPLINE
  5
280
100
AcDbEntity
  8
Layer_1
 62
7
100
AcDbSpline
 70
8
 71
3
 72
8
 73
4
 74
0
 40
0
 40
0
 40
0
 40
0
 40
1
 40
1
 40
1
 40
1
 10
24.761850
 20
3.018080
 30
0.0
 10
24.909132
 20
2.950375
 30
0.0
 10
25.058254
 20
2.884558
 30
0.0
 10
25.211026
 20
2.822745
 30
0.0
  0
SPLINE
  5
281
100
AcDbEntity
  8
Layer_1
 62
7
100
AcDbSpline
 70
8
 71
3
 72
8
 73
4
 74
0
 40
0
 40
0
 40
0
 40
0
 40
1
 40
1
 40
1
 40
1
 10
25.211026
 20
2.822745
 30
0.0
 10
25.711969
 20
2.620064
 30
0.0
 10
26.240949
 20
2.450409
 30
0.0
 10
26.792101
 20
2.319425
 30
0.0
  0
SPLINE
  5
282
100
AcDbEntity
  8
Layer_1
 62
7
100
AcDbSpline
 70
8
 71
3
 72
8
 73
4
 74
0
 40
0
 40
0
 40
0
 40
0
 40
1
 40
1
 40
1
 40
1
 10
26.792101
 20
2.319425
 30
0.0
 10
26.901974
 20
2.293313
 30
0.0
 10
27.013314
 20
2.269932
 30
0.0
 10
27.124828
 20
2.246943
 30
0.0
  0
SPLINE
  5
283
100
AcDbEntity
  8
Layer_1
 62
7
100
AcDbSpline
 70
8
 71
3
 72
8
 73
4
 74
0
 40
0
 40
0
 40
0
 40
0
 40
1
 40
1
 40
1
 40
1
 10
27.124828
 20
2.246943
 30
0.0
 10
26.900617
 20
2.199581
 30
0.0
 10
26.674981
 20
2.157155
 30
0.0
 10
26.447506
 20
2.123310
 30
0.0
  0
SPLINE
  5
284
100
AcDbEntity
  8
Layer_1
 62
7
100
AcDbSpline
 70
8
 71
3
 72
8
 73
4
 74
0
 40
0
 40
0
 40
0
 40
0
 40
1
 40
1
 40
1
 40
1
 10
26.447506
 20
2.123310
 30
0.0
 10
25.891321
 20
2.040558
 30
0.0
 10
25.326408
 20
1.998701
 30
0.0
 10
24.761871
 20
1.998701
 30
0.0
  0
SPLINE
  5
285
100
AcDbEntity
  8
Layer_1
 62
7
100
AcDbSpline
 70
8
 71
3
 72
8
 73
4
 74
0
 40
0
 40
0
 40
0
 40
0
 40
1
 40
1
 40
1
 40
1
 10
24.761871
 20
1.998701
 30
0.0
 10
24.197334
 20
1.998701
 30
0.0
 10
23.632402
 20
2.040557
 30
0.0
 10
23.076217
 20
2.123310
 30
0.0
  0
SPLINE
  5
286
100
AcDbEntity
  8
Layer_1
 62
7
100
AcDbSpline
 70
8
 71
3
 72
8
 73
4
 74
0
 40
0
 40
0
 40
0
 40
0
 40
1
 40
1
 40
1
 40
1
 10
23.076217
 20
2.123310
 30
0.0
 10
22.848742
 20
2.157155
 30
0.0
 10
22.623106
 20
2.199581
 30
0.0
 10
22.398894
 20
2.246943
 30
0.0
  0
SPLINE
  5
287
100
AcDbEntity
  8
Layer_1
 62
7
100
AcDbSpline
 70
8
 71
3
 72
8
 73
4
 74
0
 40
0
 40
0
 40
0
 40
0
 40
1
 40
1
 40
1
 40
1
 10
22.398894
 20
2.246943
 30
0.0
 10
22.510409
 20
2.269932
 30
0.0
 10
22.621748
 20
2.293313
 30
0.0
 10
22.731620
 20
2.319425
 30
0.0
  0
SPLINE
  5
288
100
AcDbEntity
  8
Layer_1
 62
7
100
AcDbSpline
 70
8
 71
3
 72
8
 73
4
 74
0
 40
0
 40
0
 40
0
 40
0
 40
1
 40
1
 40
1
 40
1
 10
22.731620
 20
2.319425
 30
0.0
 10
23.282774
 20
2.450409
 30
0.0
 10
23.811754
 20
2.620064
 30
0.0
 10
24.312697
 20
2.822745
 30
0.0
  0
SPLINE
  5
289
100
AcDbEntity
  8
Layer_1
 62
7
100
AcDbSpline
 70
8
 71
3
 72
8
 73
4
 74
0
 40
0
 40
0
 40
0
 40
0
 40
1
 40
1
 40
1
 40
1
 10
24.312697
 20
2.822745
 30
0.0
 10
24.465462
 20
2.884555
 30
0.0
 10
24.614552
 20
2.950378
 30
0.0
 10
24.761828
 20
3.018080
 30
0.0
  0
LWPOLYLINE
  5
28a
100
AcDbEntity
  8
Layer_1
 62
7
100
AcDbPolyline
 90
3
 70
1
 10
24.761850
 20
3.018080
 30
0.0
 10
24.761850
 20
3.018080
 30
0.0
 10
24.761850
 20
3.018080
 30
0.0
  0
ENDSEC
  0
SECTION
  2
OBJECTS
  0
DICTIONARY
  5
C
330
0
100
AcDbDictionary
  3
ACAD_GROUP
350
D
  3
ACAD_MLINESTYLE
350
17
  0
DICTIONARY
  5
D
330
C
100
AcDbDictionary
  0
DICTIONARY
  5
1A
330
C
100
AcDbDictionary
  0
DICTIONARY
  5
17
330
C
100
AcDbDictionary
  3
STANDARD
350
18
  0
DICTIONARY
  5
19
330
C
100
AcDbDictionary
  0
ENDSEC
  0
EOF
