<?xml version="1.0" encoding="UTF-8" standalone="no"?>
<!-- Created with Inkscape (http://www.inkscape.org/) -->

<svg
   xmlns:dc="http://purl.org/dc/elements/1.1/"
   xmlns:cc="http://creativecommons.org/ns#"
   xmlns:rdf="http://www.w3.org/1999/02/22-rdf-syntax-ns#"
   xmlns:svg="http://www.w3.org/2000/svg"
   xmlns="http://www.w3.org/2000/svg"
   xmlns:sodipodi="http://sodipodi.sourceforge.net/DTD/sodipodi-0.dtd"
   xmlns:inkscape="http://www.inkscape.org/namespaces/inkscape"
   width="60in"
   height="48in"
   viewBox="0 0 5399.9999 4320"
   id="svg4475"
   version="1.1"
   inkscape:version="0.91pre4 r13712"
   sodipodi:docname="circle_frame.svg">
  <defs
     id="defs4477" />
  <sodipodi:namedview
     id="base"
     pagecolor="#ffffff"
     bordercolor="#666666"
     borderopacity="1.0"
     inkscape:pageopacity="0.0"
     inkscape:pageshadow="2"
     inkscape:zoom="0.087500001"
     inkscape:cx="2634.6616"
     inkscape:cy="1133.1148"
     inkscape:document-units="cm"
     inkscape:current-layer="layer1"
     showgrid="false"
     units="ft"
     inkscape:window-width="1920"
     inkscape:window-height="1017"
     inkscape:window-x="1912"
     inkscape:window-y="-8"
     inkscape:window-maximized="1" />
  <metadata
     id="metadata4480">
    <rdf:RDF>
      <cc:Work
         rdf:about="">
        <dc:format>image/svg+xml</dc:format>
        <dc:type
           rdf:resource="http://purl.org/dc/dcmitype/StillImage" />
        <dc:title></dc:title>
      </cc:Work>
    </rdf:RDF>
  </metadata>
  <g
     inkscape:label="Layer 1"
     inkscape:groupmode="layer"
     id="layer1"
     transform="translate(0,3267.6377)">
    <path
       inkscape:connector-curvature="0"
       style="color:#000000;font-style:normal;font-variant:normal;font-weight:normal;font-stretch:normal;font-size:medium;line-height:normal;font-family:sans-serif;text-indent:0;text-align:start;text-decoration:none;text-decoration-line:none;text-decoration-style:solid;text-decoration-color:#000000;letter-spacing:normal;word-spacing:normal;text-transform:none;direction:ltr;block-progression:tb;writing-mode:lr-tb;baseline-shift:baseline;text-anchor:start;white-space:normal;clip-rule:nonzero;display:inline;overflow:visible;visibility:visible;opacity:1;isolation:auto;mix-blend-mode:normal;color-interpolation:sRGB;color-interpolation-filters:linearRGB;solid-color:#000000;solid-opacity:1;fill:#ff0000;fill-opacity:1;fill-rule:nonzero;stroke:none;stroke-width:135;stroke-linecap:butt;stroke-linejoin:miter;stroke-miterlimit:4;stroke-dasharray:none;stroke-dashoffset:0;stroke-opacity:1;color-rendering:auto;image-rendering:auto;shape-rendering:auto;text-rendering:auto;enable-background:accumulate"
       d="m 3297.7599,-2729.9349 -2157.2891,10.918 L 71.283236,-845.29037 1159.3829,1017.5163 3316.672,1006.5984 4385.8595,-867.12827 3297.7599,-2729.9349 Z m -1069.1875,145.0352 c 50.8083,0 101.6505,3.767 151.707,11.2148 20.4731,3.0462 40.7817,6.8643 60.961,11.1269 -10.0369,2.0692 -20.0581,4.1733 -29.9473,6.5235 -49.6031,11.7884 -97.2124,27.0575 -142.2969,45.2988 -13.7494,5.5631 -27.1703,11.4886 -40.4258,17.582 -13.2549,-6.0931 -26.6729,-12.0191 -40.4218,-17.582 -45.0849,-18.2415 -92.6949,-33.5103 -142.2989,-45.2988 l 0,0 c -9.8891,-2.3502 -19.9104,-4.4544 -29.9472,-6.5235 20.1798,-4.2627 40.4873,-8.0826 60.9609,-11.1288 50.0566,-7.4479 100.9007,-11.2149 151.709,-11.2149 z m -426.7363,135.6601 c 2.9536,0 5.9045,0.01 8.8515,0.035 l 0,0 c 23.5766,0.2049 46.9361,1.2841 69.9785,3.209 46.0861,3.8499 90.9779,11.0857 133.9688,21.3027 22.0603,5.2427 43.6185,11.299 64.6328,18.0469 -16.0691,11.5355 -31.601,23.3952 -46.373,35.6367 -33.1131,27.4413 -62.8515,56.4556 -89.1192,86.3418 -26.2662,29.8846 -49.0087,60.5776 -68.2929,91.3926 -15.5455,24.841 -28.8119,49.7127 -39.9161,74.2832 a 1323.9364,1323.9364 0 0 0 -31.0332,10.3105 c -0.2632,-0.1502 -0.5214,-0.3031 -0.7851,-0.4531 -29.104,-16.5483 -61.1718,-31.4995 -95.9707,-44.2227 -34.8013,-12.724 -72.2555,-23.1871 -111.9805,-30.8105 -39.7267,-7.6236 -81.6454,-12.3905 -125.2422,-13.8086 -10.6867,-0.3476 -21.474,-0.4805 -32.3437,-0.4199 7.9267,-10.8289 16.0609,-21.598 24.6308,-32.2168 27.4664,-34.0328 58.2617,-66.9155 92.0821,-97.8945 33.8199,-30.9787 70.7165,-60.0988 110.2304,-86.6875 15.3455,-10.326 31.207,-20.1525 47.3242,-29.6934 8.9849,-0.8442 17.9723,-1.6876 26.9239,-2.2773 20.926,-1.3785 41.758,-2.0636 62.4336,-2.0762 z m 853.4707,0 c 20.676,0.013 41.5095,0.6977 62.4355,2.0762 8.9515,0.5897 17.9372,1.4332 26.9219,2.2773 16.1175,9.541 31.9804,19.3672 47.3262,29.6934 39.5138,26.5888 76.4106,55.7088 110.2304,86.6875 33.8203,30.9791 64.6155,63.8635 92.0821,97.8964 8.5695,10.6184 16.7044,21.3863 24.6308,32.2148 -10.8691,-0.061 -21.6577,0.072 -32.3437,0.42 -43.5969,1.4181 -85.5156,6.1849 -125.2422,13.8086 -39.7251,7.6234 -77.1792,18.0867 -111.9805,30.8106 -34.7989,12.7232 -66.8667,27.6742 -95.9707,44.2226 -0.1324,0.075 -0.2623,0.1513 -0.3945,0.2266 a 1323.9364,1323.9364 0 0 0 -32.1836,-11.748 c -10.9487,-24.0293 -23.9595,-48.3387 -39.1543,-72.6193 -19.2841,-30.815 -42.0283,-61.5097 -68.2949,-91.3945 -26.2677,-29.8863 -56.0064,-58.9006 -89.1192,-86.3417 -14.7721,-12.2417 -30.3058,-24.1012 -46.375,-35.6367 21.0144,-6.7479 42.5725,-12.8042 64.6328,-18.0469 42.9911,-10.2171 87.8826,-17.4529 133.9688,-21.3028 23.0424,-1.9249 46.4019,-3.0041 69.9785,-3.2089 2.9471,-0.026 5.8979,-0.037 8.8516,-0.035 z m 404.0625,87.5195 c 28.0769,12.5413 55.7451,26.227 82.7148,41.3184 44.2266,24.748 86.7879,52.8734 126.9863,83.9336 40.1986,31.0602 78.0875,65.0971 113.0821,101.5332 7.2815,7.5815 14.3637,15.33 21.3945,23.1172 -46.792,-21.1723 -94.1756,-38.3728 -141.4219,-51.6621 -23.9202,-6.7281 -47.7852,-12.4325 -71.5078,-17.1758 -2.4341,-4.3336 -4.735,-8.6884 -7.2519,-13.0078 -24.2301,-41.5817 -52.2656,-82.3996 -84.0078,-121.7306 -12.696,-15.7301 -26.1379,-31.1325 -39.9883,-46.3241 l 0,0 z m -1661.5957,0 c -13.8501,15.1914 -27.2927,30.5937 -39.9883,46.3242 -31.742,39.3307 -59.7778,80.1486 -84.0078,121.7305 -2.5171,4.3195 -4.8179,8.6741 -7.252,13.0078 -23.7226,4.7433 -47.5876,10.4477 -71.5078,17.1758 -47.2465,13.2894 -94.63,30.4899 -141.4219,51.6621 7.0309,-7.7872 14.1131,-15.5357 21.3945,-23.1172 34.9946,-36.4361 72.8835,-70.473 113.0821,-101.5332 l 0,0 c 40.198,-31.0599 82.7584,-59.1858 126.9843,-83.9336 26.9693,-15.0911 54.6385,-28.7753 82.7149,-41.3164 z m 830.7949,19.9102 0,0 c 5.8972,3.3052 11.8269,6.5889 17.5606,10.0039 33.5307,19.9708 64.2924,41.8003 91.9766,64.7422 27.6852,22.9432 52.3508,47.0481 73.8593,71.5195 9.8858,11.2476 19.1076,22.5846 27.6856,33.9336 a 1323.9364,1323.9364 0 0 0 -211.0821,-18.5391 1323.9364,1323.9364 0 0 0 -210.2773,17.4727 c 8.3502,-10.9948 17.3087,-21.9756 26.8867,-32.8731 21.5081,-24.471 46.1751,-48.5753 73.8594,-71.5175 27.6838,-22.9415 58.4448,-44.7701 91.9746,-64.7402 5.732,-3.4141 11.6594,-6.6977 17.5547,-10.002 z m 0,249.9218 A 1235.674,1235.674 0 0 1 3464.2462,-856.21027 1235.674,1235.674 0 0 1 2228.5724,379.46548 1235.674,1235.674 0 0 1 992.89859,-856.21027 1235.674,1235.674 0 0 1 2228.5724,-2091.8842 Z m -782.5352,28.4727 c 6.7677,0.025 13.482,0.1468 20.1387,0.3633 36.5758,1.1897 71.5051,5.1872 104.1875,11.459 20.8062,3.9927 40.7278,8.9166 59.6524,14.5937 a 1323.9364,1323.9364 0 0 0 -339.4864,247.8477 c 0.1582,-7.7358 0.4759,-15.5807 0.959,-23.5254 1.9344,-31.8119 6.5458,-65.3015 14.2227,-99.7617 7.6764,-34.4587 18.4341,-69.9627 32.4961,-105.7364 5.2265,-13.2963 11.0714,-26.6417 17.2207,-39.9902 30.9566,-3.6486 61.2827,-5.3572 90.6093,-5.25 z m 1565.0782,0.01 c 29.3272,-0.1073 59.6544,1.6012 90.6113,5.25 6.1494,13.3484 11.9922,26.694 17.2187,39.9902 14.062,35.7737 24.8197,71.2776 32.4961,105.7363 7.6767,34.4604 12.2903,67.9502 14.2246,99.7617 0.4758,7.8242 0.7889,15.5503 0.9493,23.1719 a 1323.9364,1323.9364 0 0 0 -341.3184,-246.9355 c 19.4726,-5.9124 40.0094,-11.0298 61.4922,-15.1524 32.6824,-6.2718 67.6118,-10.2693 104.1875,-11.459 6.6568,-0.2165 13.3708,-0.3385 20.1387,-0.3632 z m -1814.6153,40.6621 c -9.0019,27.1842 -16.6187,54.2423 -22.5703,80.9589 -9.2156,41.3679 -14.8308,81.8764 -17.2051,120.9219 -2.3741,39.0435 -1.5059,76.5417 2.1289,111.9981 2.2114,21.5707 5.5137,42.2798 9.6699,62.1621 a 1323.9364,1323.9364 0 0 0 -20.2324,26.6152 c -6.6014,0.7246 -13.2601,1.5636 -19.9863,2.5469 -33.8462,4.9482 -69.0325,13.011 -104.9765,24.539 -35.94621,11.529 -72.57016,26.5012 -109.20906,45.1309 -36.6406,18.6309 -73.2243,40.8867 -109.0391,66.8281 -1.6109,1.1669 -3.1953,2.4415 -4.8027,3.6231 0.017,-4.8456 -0.077,-9.6511 0.023,-14.5254 0.8884,-43.2562 5.0839,-87.6762 12.8183,-132.4805 7.7343,-44.8036 19.0207,-90.0617 33.918,-134.959 8.7844,-26.4742 18.9845,-52.8126 30.2715,-78.916 35.6844,-31.4095 73.1624,-59.7847 111.74025,-84.7773 39.12171,-25.3449 79.41311,-47.2831 120.07031,-65.6875 29.0072,-13.1306 58.2307,-24.3954 87.3809,-33.9785 z m 2064.1465,0 c 29.149,9.5829 58.371,20.8465 87.377,33.9766 40.6572,18.4044 80.9484,40.3426 120.0703,65.6875 38.5766,24.9919 76.0546,53.3668 111.7383,84.7754 11.2874,26.1042 21.4906,52.4429 30.2754,78.9179 14.8972,44.8976 26.1836,90.1554 33.9179,134.959 7.7345,44.8043 11.928,89.2242 12.8164,132.4805 0.1001,4.8743 0.01,9.6798 0.025,14.5254 -1.6082,-1.1821 -3.193,-2.4577 -4.8047,-3.625 -35.8148,-25.9415 -72.3966,-48.1973 -109.0371,-66.8281 -36.639,-18.6297 -73.2628,-33.6019 -109.209,-45.1309 -35.9441,-11.5281 -71.1287,-19.591 -104.9746,-24.5391 -7.0773,-1.0346 -14.0802,-1.911 -21.0195,-2.6601 a 1323.9364,1323.9364 0 0 0 -19.1445,-26.7715 c 4.1297,-19.8003 7.4138,-40.4191 9.6152,-61.8926 3.6349,-35.4561 4.5029,-72.9535 2.1289,-111.9961 -2.3742,-39.0452 -7.9878,-79.5549 -17.2031,-120.9219 -5.9516,-26.716 -13.5706,-53.7734 -22.5723,-80.957 z m 524.957,436.7676 c 20.3915,35.4119 38.8668,72.1458 54.9844,109.9746 19.887,46.6758 36.3731,94.9701 49.1856,144.1035 12.8122,49.133 21.968,99.1699 27.3691,149.2949 0.06,0.5531 0.09,1.107 0.1484,1.6602 -20.3758,-35.8199 -42.4788,-69.8943 -66.1679,-101.8438 -20.8458,-28.1147 -42.879,-54.5279 -65.7598,-79.3339 5.0369,-42.9945 7.3817,-87.3006 6.4512,-132.6016 -0.6179,-30.0805 -2.7907,-60.5678 -6.211,-91.2539 z m -3114.06256,0 c -3.4202,30.6861 -5.595,61.1734 -6.2128,91.254 -0.9305,45.3003 1.4164,89.6058 6.4531,132.5996 -22.8813,24.8065 -44.9155,51.2204 -65.7617,79.3359 -23.6892,31.9496 -45.7922,66.024 -66.168,101.8438 0.059,-0.5526 0.089,-1.1058 0.1484,-1.6583 5.4013,-50.1244 14.559,-100.1625 27.3711,-149.2949 12.8123,-49.1333 29.2966,-97.4277 49.1836,-144.1035 16.118,-37.8296 34.5944,-74.564 54.9863,-109.9766 z m 380.32046,125.7676 a 1323.9364,1323.9364 0 0 0 -129.96886,401.4235 c -1.0703,-1.5329 -2.1366,-3.0749 -3.1992,-4.629 -17.5822,-25.7133 -34.1322,-54.392 -48.9043,-85.7265 -14.7715,-31.333 -27.7963,-65.3913 -38.4219,-101.7051 -6.0752,-20.7627 -11.2695,-42.3607 -15.6875,-64.5332 22.3904,-20.6767 45.3723,-39.5074 68.6113,-56.3398 30.1451,-21.8348 60.757,-40.4275 91.03325,-55.8223 25.87231,-13.1552 51.54541,-23.9941 76.54111,-32.668 z m 2354.9296,0.5274 c 24.5229,8.5857 49.6876,19.2521 75.043,32.1445 30.2763,15.3948 60.8903,33.9876 91.0352,55.8223 23.239,16.8324 46.219,35.6631 68.6093,56.3398 -4.418,22.1724 -9.6103,43.7706 -15.6855,64.5332 -10.6254,36.3137 -23.6523,70.3721 -38.4238,101.7051 -14.7718,31.3342 -31.322,60.013 -48.9043,85.7266 -0.8636,1.2628 -1.731,2.5128 -2.5996,3.7617 a 1323.9364,1323.9364 0 0 0 -129.0704,-400.0296 z m -2698.83206,266.4332 c 11.3861,35.7127 24.6591,69.7582 39.707,101.6777 17.8022,37.7617 37.8784,72.63 59.5743,104.35943 21.6947,31.7276 44.9586,60.2489 69.1152,85.4746 9.5925,10.017 19.3241,19.443 29.1426,28.3652 a 1323.9364,1323.9364 0 0 0 -0.8594,17.1563 1323.9364,1323.9364 0 0 0 0.6152,17.3847 c -9.7345,8.8558 -19.3843,18.2057 -28.8965,28.1387 l 0,0 c -24.1568,25.2258 -47.4205,53.7471 -69.1152,85.4746 -21.6958,31.7293 -41.772,66.59772 -59.5742,104.35942 -15.048,31.9195 -28.321,65.96491 -39.707,101.67771 -22.9716,-31.8497 -44.4263,-66.00741 -63.6953,-102.36331 l 0,0 c -21.0994,-39.8087 -39.7059,-82.16952 -55.2696,-126.48242 -12.2626,-34.9139 -22.5692,-71.114 -30.8789,-108.1875 8.3097,-37.0741 18.6161,-73.2749 30.8789,-108.1894 15.5637,-44.31293 34.1702,-86.67373 55.2696,-126.48253 l 0,0 c 19.269,-36.3558 40.7238,-70.5135 63.6953,-102.3632 z m 3041.23246,0 c 22.9712,31.8493 44.4285,66.006 63.6973,102.3613 21.0993,39.8088 39.7058,82.1695 55.2695,126.48253 12.2629,34.9144 22.5693,71.1153 30.8789,108.1894 -8.3096,37.0734 -18.6162,73.2737 -30.8789,108.1875 -15.5637,44.313 -34.1702,86.67372 -55.2695,126.48242 -19.269,36.3558 -40.7257,70.51361 -63.6973,102.36331 -11.386,-35.7129 -24.657,-69.75811 -39.705,-101.67771 -17.8022,-37.762 -37.8807,-72.63032 -59.5762,-104.35942 -21.6947,-31.7273 -44.9585,-60.2488 -69.1153,-85.4746 -9.5922,-10.0166 -19.3239,-19.442 -29.1425,-28.3633 a 1323.9364,1323.9364 0 0 0 0.8593,-17.1601 1323.9364,1323.9364 0 0 0 -0.6152,-17.377 c 9.7357,-8.8569 19.3853,-18.2086 28.8984,-28.1426 24.1566,-25.2257 47.4205,-53.7472 69.1153,-85.4746 21.6955,-31.72913 41.774,-66.59753 59.5762,-104.35933 15.048,-31.9197 28.319,-65.965 39.705,-101.6778 z m -213.9297,539.58605 c 1.0731,1.5366 2.1418,3.0826 3.2071,4.6406 17.5823,25.7135 34.1325,54.3923 48.9043,85.72651 14.7715,31.3329 27.7984,65.3913 38.4238,101.7051 6.0752,20.7625 11.2675,42.3608 15.6855,64.5332 -22.3903,20.67662 -45.3702,39.50732 -68.6093,56.33992 -30.1448,21.8346 -60.759,40.4276 -91.0352,55.8222 -25.8755,13.157 -51.5524,23.9975 -76.5508,32.6719 a 1323.9364,1323.9364 0 0 0 129.9746,-401.43943 z m -2613.97856,0.8945 a 1323.9364,1323.9364 0 0 0 129.07036,400.01373 c -24.5185,-8.5849 -49.6787,-19.2506 -75.02931,-32.1407 -30.27615,-15.3945 -60.88825,-33.9875 -91.03325,-55.8222 -23.2391,-16.8325 -46.2209,-35.6632 -68.6113,-56.33992 4.418,-22.1724 9.6123,-43.7706 15.6875,-64.5332 10.6256,-36.3139 23.6504,-70.3721 38.4219,-101.7051 14.7721,-31.33451 31.3221,-60.01321 48.9043,-85.72651 0.86,-1.2578 1.7247,-2.5022 2.5898,-3.7461 z m -381.4277,121.28121 c 20.3759,35.8198 42.4788,69.8943 66.168,101.8438 20.8462,28.1153 42.8804,54.52942 65.7617,79.33592 -5.0367,42.9939 -7.3836,87.2993 -6.4531,132.5996 0.6178,30.0818 2.7923,60.5685 6.2128,91.2559 -20.3919,-35.4127 -38.8683,-72.147 -54.9863,-109.9766 -19.887,-46.6762 -36.3713,-94.9704 -49.1836,-144.10349 -12.8123,-49.13333 -21.9698,-99.17173 -27.3711,-149.29693 -0.06,-0.5525 -0.09,-1.1056 -0.1484,-1.6582 z m 3377.43946,0 c -0.059,0.5526 -0.089,1.1057 -0.1484,1.6582 -5.4011,50.1251 -14.5569,100.1636 -27.3691,149.29693 -12.8125,49.13319 -29.2986,97.42729 -49.1856,144.10349 -16.1178,37.8293 -34.5925,74.5641 -54.9844,109.9766 3.4205,-30.6874 5.5931,-61.1742 6.211,-91.2559 0.9304,-45.3006 -1.4144,-89.6073 -6.4512,-132.6015 22.8808,-24.8061 44.9141,-51.21952 65.7598,-79.33402 23.689,-31.9494 45.7921,-66.0241 66.1679,-101.8438 z M 800.27744,-234.99932 c 1.6076,1.1816 3.1917,2.4561 4.8027,3.623 35.8149,25.9422 72.3984,48.1975 109.0391,66.8282 36.6392,18.6301 73.26275,33.602 109.20906,45.1308 35.9442,11.5282 71.1305,19.590995 104.9765,24.539095 7.0753,1.0344 14.0764,1.9092 21.0137,2.6582 a 1323.9364,1323.9364 0 0 0 19.1484,26.7793 c -4.1291,19.7984 -7.4121,40.4154 -9.6133,61.8867 -3.6348,35.4564 -4.503,72.9544 -2.1289,111.998105 2.3743,39.0453 7.9895,79.5539 17.2051,120.9218 5.9516,26.7167 13.5684,53.7748 22.5703,80.959 -29.1501,-9.5831 -58.3738,-20.8478 -87.3809,-33.9785 -40.657,-18.4041 -80.9486,-40.3426 -120.07021,-65.6875 -38.57825,-24.9929 -76.05615,-53.3679 -111.74035,-84.7773 -11.287,-26.103405 -21.4871,-52.441805 -30.2715,-78.916105 -14.8973,-44.8973 -26.1837,-90.1552 -33.9179,-134.9589 -7.7345,-44.804495 -11.9299,-89.224295 -12.8184,-132.480495 -0.1001,-4.8743 -0.01,-9.6798 -0.023,-14.5254 z m 2856.58986,0 c -0.017,4.8456 0.075,9.6511 -0.025,14.5254 -0.8884,43.2562 -5.0819,87.6761 -12.8164,132.480495 -7.7343,44.8037 -19.0207,90.0614 -33.9179,134.9589 -8.7848,26.4751 -18.988,52.8138 -30.2754,78.918005 -35.6835,31.4085 -73.1614,59.7833 -111.7383,84.7754 -39.1219,25.345 -79.4133,47.2834 -120.0703,65.6875 -29.0071,13.1308 -58.2307,24.3954 -87.3809,33.9785 9.0019,-27.1842 16.6206,-54.2423 22.5723,-80.959 9.2153,-41.3669 14.8289,-81.8767 17.2031,-120.9218 2.3739,-39.042805 1.5059,-76.540005 -2.1289,-111.996105 -2.2115,-21.5712 -5.5134,-42.2811 -9.6699,-62.1641 a 1323.9364,1323.9364 0 0 0 20.2324,-26.6133 c 6.6014,-0.7246 13.2601,-1.5635 19.9863,-2.5469 33.8458,-4.9481 69.0304,-13.010795 104.9746,-24.538995 35.9458,-11.5287 72.5703,-26.5012 109.209,-45.1309 36.6406,-18.6307 73.2242,-40.8865 109.0391,-66.8281 1.6114,-1.1671 3.1968,-2.4411 4.8047,-3.623 l 0,0 z M 3166.629,76.713575 c -0.158,7.737 -0.4758,15.5831 -0.9589,23.529305 -1.9343,31.8115 -6.548,65.3011 -14.2247,99.7617 -7.6764,34.4587 -18.434,69.9626 -32.4961,105.7363 -5.2264,13.2962 -11.0693,26.6419 -17.2187,39.9903 -38.1008,4.4908 -75.2469,6.0417 -110.75,4.8867 -36.576,-1.1897 -71.5054,-5.1872 -104.1875,-11.459 -20.8032,-3.9922 -40.7223,-8.9157 -59.6445,-14.5918 A 1323.9364,1323.9364 0 0 0 3166.629,76.713575 Z m -1876.0937,0.3711 a 1323.9364,1323.9364 0 0 0 341.3066,246.925805 c -19.4696,5.9111 -40.0033,11.0266 -61.4824,15.1484 -32.682,6.2718 -67.6115,10.2693 -104.1875,11.459 -35.5026,1.1549 -72.6475,-0.3961 -110.748,-4.8867 -6.1493,-13.3485 -11.9942,-26.694 -17.2207,-39.9903 -14.062,-35.7737 -24.8197,-71.2776 -32.4961,-105.7363 -7.6774,-34.4603 -12.2883,-67.9498 -14.2227,-99.7617 -0.4755,-7.819605 -0.7886,-15.541105 -0.9492,-23.158205 z M 2652.6115,396.25848 c 0.2632,0.1503 0.5213,0.3032 0.7851,0.4531 29.1039,16.5484 61.1716,31.4995 95.9707,44.2227 34.8012,12.7239 72.2551,23.1872 111.9805,30.8105 39.727,7.6238 81.6456,12.3886 125.2422,13.8067 10.6867,0.3476 21.474,0.4825 32.3437,0.4219 -7.9267,10.8289 -16.0609,21.598 -24.6308,32.2168 -27.4664,34.03263 -58.2622,66.91563 -92.0821,97.89453 -33.8198,30.9786 -70.7164,60.1003 -110.2304,86.6894 -15.3456,10.326 -31.2069,20.1526 -47.3243,29.6934 -8.9853,0.8443 -17.9717,1.6875 -26.9238,2.2773 -47.8307,3.1509 -95.1806,2.6819 -141.2656,-1.1679 -46.0861,-3.8498 -90.9777,-11.0838 -133.9688,-21.3008 -22.0603,-5.2427 -43.6183,-11.3009 -64.6328,-18.0488 16.0693,-11.5356 31.6028,-23.3949 46.375,-35.6368 33.113,-27.4411 62.8515,-56.4552 89.1192,-86.3418 26.2664,-29.8849 49.0108,-60.57953 68.2949,-91.39453 15.5458,-24.8415 28.8122,-49.7141 39.916,-74.2851 a 1323.9364,1323.9364 0 0 0 31.0313,-10.3106 z m -848.4707,0.2246 a 1323.9364,1323.9364 0 0 0 32.1855,11.75 c 10.9491,24.0286 23.96,48.3374 39.1543,72.6172 19.2842,30.815 42.0269,61.50983 68.293,91.39453 26.2677,29.8862 56.0058,58.9006 89.1191,86.3418 14.7721,12.2418 30.3059,24.1012 46.375,35.6368 -21.0144,6.7479 -42.5724,12.8061 -64.6328,18.0488 -42.9909,10.217 -87.8828,17.451 -133.9688,21.3008 -46.0852,3.8498 -93.4329,4.3188 -141.2636,1.1679 -8.9517,-0.5897 -17.939,-1.4331 -26.9239,-2.2773 -16.1173,-9.5408 -31.9787,-19.3654 -47.3242,-29.6914 -39.5141,-26.589 -76.4125,-55.7109 -110.2324,-86.6895 -33.8199,-30.9788 -64.6158,-63.862 -92.082,-97.89453 -8.5696,-10.6184 -16.7045,-21.3863 -24.6309,-32.2148 10.8698,0.061 21.6571,-0.074 32.3438,-0.4219 43.5966,-1.4181 85.5152,-6.1829 125.2422,-13.8067 39.7253,-7.6233 77.1792,-18.0866 111.9804,-30.8105 34.7991,-12.7232 66.8669,-27.6744 95.9707,-44.2227 0.1327,-0.075 0.262,-0.153 0.3946,-0.2285 z m -750.5469,2.9082 c 46.793,21.1732 94.1765,38.3765 141.4238,51.666 23.9203,6.7282 47.7852,12.4324 71.5078,17.1758 2.4342,4.3337 4.7349,8.6883 7.252,13.0078 24.23,41.58223 52.2658,82.39973 84.0078,121.73053 12.6956,15.7307 26.1382,31.1328 39.9883,46.3242 -28.0764,-12.541 -55.7456,-26.2252 -82.7149,-41.3164 -44.226,-24.7478 -86.7859,-52.8733 -126.9844,-83.9336 -40.1986,-31.06043 -78.0895,-65.09893 -113.084,-101.53513 -7.2823,-7.5824 -14.3647,-15.3311 -21.3964,-23.1192 z m 2349.9551,0 c -7.0317,7.7881 -14.1141,15.5368 -21.3965,23.1192 -34.9945,36.4362 -72.8834,70.4747 -113.0821,101.53513 -40.1984,31.0603 -82.7598,59.1858 -126.9863,83.9336 -26.9697,15.0914 -54.6379,28.7772 -82.7148,41.3184 13.8504,-15.1916 27.2923,-30.5952 39.9883,-46.3262 31.7421,-39.3309 59.7776,-80.1484 84.0078,-121.73053 2.5169,-4.3194 4.8178,-8.6742 7.2519,-13.0078 23.7226,-4.7434 47.5875,-10.4476 71.5078,-17.1758 47.2471,-13.2895 94.6308,-30.4928 141.4239,-51.666 z m -1386.0469,49.7989 a 1323.9364,1323.9364 0 0 0 211.0703,18.5371 1323.9364,1323.9364 0 0 0 210.2773,-17.4727 c -8.3469,10.9896 -17.3015,21.9651 -26.875,32.8574 -21.5085,24.4715 -46.1742,48.57663 -73.8593,71.51963 -27.6839,22.9419 -58.446,44.7695 -91.9766,64.7402 -5.7342,3.4154 -11.6648,6.6984 -17.5625,10.0039 -5.8971,-3.3053 -11.8267,-6.5888 -17.5605,-10.0039 -33.5306,-19.9706 -64.2925,-41.7982 -91.9766,-64.7402 -27.6851,-22.9428 -52.3507,-47.04593 -73.8594,-71.51763 -9.883,-11.2445 -19.1018,-22.5783 -27.6777,-33.9238 z m 211.0644,331.54493 0,0 c 13.2554,6.0934 26.6764,12.017 40.4258,17.5801 45.0849,18.2413 92.6931,33.5103 142.2968,45.2988 9.8886,2.3501 19.9092,4.4544 29.9454,6.5234 -20.179,4.2626 -40.4862,8.0809 -60.959,11.127 -50.0566,7.4477 -100.8988,11.2148 -151.7071,11.2148 -50.8083,0 -101.6522,-3.767 -151.7089,-11.2148 -20.4727,-3.0461 -40.78,-6.8644 -60.959,-11.127 10.0363,-2.069 20.0568,-4.1733 29.9453,-6.5234 49.6039,-11.7885 97.2121,-27.0575 142.2969,-45.2988 13.7489,-5.5629 27.167,-11.4869 40.4218,-17.5801 z"
       id="path3460" />
  </g>
</svg>
