  0
SECTION
  2
HEADER
  9
$ACADVER
  1
AC1014
  9
$HANDSEED
  5
FFFF
  9
$MEASUREMENT
 70
     1
  0
ENDSEC
  0
SECTION
  2
TABLES
  0
TABLE
  2
VPORT
  5
8
330
0
100
AcDbSymbolTable
 70
     4
  0
VPORT
  5
2E
330
8
100
AcDbSymbolTableRecord
100
AcDbViewportTableRecord
  2
*ACTIVE
 70
     0
 10
0.0
 20
0.0
 11
1.0
 21
1.0
 12
210.0
 22
148.5
 13
0.0
 23
0.0
 14
10.0
 24
10.0
 15
10.0
 25
10.0
 16
0.0
 26
0.0
 36
1.0
 17
0.0
 27
0.0
 37
0.0
 40
341.0
 41
1.24
 42
50.0
 43
0.0
 44
0.0
 50
0.0
 51
0.0
 71
     0
 72
   100
 73
     1
 74
     3
 75
     0
 76
     0
 77
     0
 78
     0
  0
ENDTAB
  0
TABLE
  2
LTYPE
  5
5
330
0
100
AcDbSymbolTable
 70
     1
  0
LTYPE
  5
14
330
5
100
AcDbSymbolTableRecord
100
AcDbLinetypeTableRecord
  2
BYBLOCK
 70
     0
  3

 72
    65
 73
     0
 40
0.0
  0
LTYPE
  5
15
330
5
100
AcDbSymbolTableRecord
100
AcDbLinetypeTableRecord
  2
BYLAYER
 70
     0
  3

 72
    65
 73
     0
 40
0.0
  0
LTYPE
  5
16
330
5
100
AcDbSymbolTableRecord
100
AcDbLinetypeTableRecord
  2
CONTINUOUS
 70
     0
  3
Solid line
 72
    65
 73
     0
 40
0.0
  0
ENDTAB
  0
TABLE
  2
LAYER
  5
2
100
AcDbSymbolTable
 70
2
  0
LAYER
  5
50
100
AcDbSymbolTableRecord
100
AcDbLayerTableRecord
  2
0
 70
0
  6
CONTINUOUS
  0
LAYER
  5
51
100
AcDbSymbolTableRecord
100
AcDbLayerTableRecord
  2
Layer_1
 70
0
  6
CONTINUOUS
  0
ENDTAB
  0
TABLE
  2
STYLE
  5
3
330
0
100
AcDbSymbolTable
 70
     1
  0
STYLE
  5
11
330
3
100
AcDbSymbolTableRecord
100
AcDbTextStyleTableRecord
  2
STANDARD
 70
     0
 40
0.0
 41
1.0
 50
0.0
 71
     0
 42
2.5
  3
txt
  4

  0
ENDTAB
  0
TABLE
  2
VIEW
  5
6
330
0
100
AcDbSymbolTable
 70
     0
  0
ENDTAB
  0
TABLE
  2
UCS
  5
7
330
0
100
AcDbSymbolTable
 70
     0
  0
ENDTAB
  0
TABLE
  2
APPID
  5
9
330
0
100
AcDbSymbolTable
 70
     2
  0
APPID
  5
12
330
9
100
AcDbSymbolTableRecord
100
AcDbRegAppTableRecord
  2
ACAD
 70
     0
  0
ENDTAB
  0
TABLE
  2
DIMSTYLE
  5
A
330
0
100
AcDbSymbolTable
 70
     1
  0
DIMSTYLE
105
27
330
A
100
AcDbSymbolTableRecord
100
AcDbDimStyleTableRecord
  2
ISO-25
 70
     0
  3

  4

  5

  6

  7

 40
1.0
 41
2.5
 42
0.625
 43
3.75
 44
1.25
 45
0.0
 46
0.0
 47
0.0
 48
0.0
140
2.5
141
2.5
142
0.0
143
0.03937007874016
144
1.0
145
0.0
146
1.0
147
0.625
 71
     0
 72
     0
 73
     0
 74
     0
 75
     0
 76
     0
 77
     1
 78
     8
170
     0
171
     3
172
     1
173
     0
174
     0
175
     0
176
     0
177
     0
178
     0
270
     2
271
     2
272
     2
273
     2
274
     3
340
11
275
     0
280
     0
281
     0
282
     0
283
     0
284
     8
285
     0
286
     0
287
     3
288
     0
  0
ENDTAB
  0
TABLE
  2
BLOCK_RECORD
  5
1
330
0
100
AcDbSymbolTable
 70
     1
  0
BLOCK_RECORD
  5
1F
330
1
100
AcDbSymbolTableRecord
100
AcDbBlockTableRecord
  2
*MODEL_SPACE
  0
BLOCK_RECORD
  5
1B
330
1
100
AcDbSymbolTableRecord
100
AcDbBlockTableRecord
  2
*PAPER_SPACE
  0
ENDTAB
  0
ENDSEC
  0
SECTION
  2
BLOCKS
  0
BLOCK
  5
20
330
1F
100
AcDbEntity
  8
0
100
AcDbBlockBegin
  2
*MODEL_SPACE
 70
     0
 10
0.0
 20
0.0
 30
0.0
  3
*MODEL_SPACE
  1

  0
ENDBLK
  5
21
330
1F
100
AcDbEntity
  8
0
100
AcDbBlockEnd
  0
BLOCK
  5
1C
330
1B
100
AcDbEntity
 67
     1
  8
0
100
AcDbBlockBegin
  2
*PAPER_SPACE
  1

  0
ENDBLK
  5
1D
330
1B
100
AcDbEntity
 67
     1
  8
0
100
AcDbBlockEnd
  0
ENDSEC
  0
SECTION
  2
ENTITIES
  0
LWPOLYLINE
  5
100
100
AcDbEntity
  8
Layer_1
 62
1
100
AcDbPolyline
 90
8
 70
0
 10
37.946586
 20
44.919869
 30
0.0
 10
14.097933
 20
44.799159
 30
0.0
 10
2.278142
 20
24.085290
 30
0.0
 10
14.307003
 20
3.492105
 30
0.0
 10
38.155656
 20
3.612809
 30
0.0
 10
49.975419
 20
24.326698
 30
0.0
 10
37.946586
 20
44.919869
 30
0.0
 10
37.946586
 20
44.919869
 30
0.0
  0
LWPOLYLINE
  5
101
100
AcDbEntity
  8
Layer_1
 62
5
100
AcDbPolyline
 90
6
 70
0
 10
27.770781
 20
42.870541
 30
0.0
 10
27.556850
 20
42.499994
 30
0.0
 10
26.373114
 20
42.499994
 30
0.0
 10
26.159961
 20
42.869025
 30
0.0
 10
27.770656
 20
42.870634
 30
0.0
 10
27.770781
 20
42.870541
 30
0.0
  0
LWPOLYLINE
  5
102
100
AcDbEntity
  8
Layer_1
 62
5
100
AcDbPolyline
 90
8
 70
0
 10
29.963864
 20
40.392036
 30
0.0
 10
30.558781
 20
39.362112
 30
0.0
 10
29.963906
 20
38.331447
 30
0.0
 10
28.774586
 20
38.331455
 30
0.0
 10
28.182822
 20
39.356527
 30
0.0
 10
28.780642
 20
40.391976
 30
0.0
 10
29.963989
 20
40.391966
 30
0.0
 10
29.963864
 20
40.392036
 30
0.0
  0
LWPOLYLINE
  5
103
100
AcDbEntity
  8
Layer_1
 62
5
100
AcDbPolyline
 90
9
 70
0
 10
32.372239
 20
39.001108
 30
0.0
 10
32.372239
 20
39.001108
 30
0.0
 10
32.967197
 20
37.970477
 30
0.0
 10
32.372197
 20
36.940536
 30
0.0
 10
31.182906
 20
36.940536
 30
0.0
 10
30.587919
 20
37.970529
 30
0.0
 10
31.182933
 20
39.001115
 30
0.0
 10
32.372253
 20
39.001115
 30
0.0
 10
32.372239
 20
39.001108
 30
0.0
  0
LWPOLYLINE
  5
104
100
AcDbEntity
  8
Layer_1
 62
5
100
AcDbPolyline
 90
9
 70
0
 10
27.562489
 20
41.777823
 30
0.0
 10
27.562489
 20
41.777823
 30
0.0
 10
28.154058
 20
40.753055
 30
0.0
 10
27.556253
 20
39.717316
 30
0.0
 10
26.373114
 20
39.717325
 30
0.0
 10
25.778128
 20
40.747319
 30
0.0
 10
26.373114
 20
41.777883
 30
0.0
 10
27.562364
 20
41.777893
 30
0.0
 10
27.562489
 20
41.777823
 30
0.0
  0
LWPOLYLINE
  5
105
100
AcDbEntity
  8
Layer_1
 62
5
100
AcDbPolyline
 90
10
 70
0
 10
34.780614
 20
37.609390
 30
0.0
 10
35.375572
 20
36.578816
 30
0.0
 10
34.780683
 20
35.549066
 30
0.0
 10
34.780544
 20
35.548830
 30
0.0
 10
33.591211
 20
35.548830
 30
0.0
 10
32.996239
 20
36.578787
 30
0.0
 10
33.591253
 20
37.609373
 30
0.0
 10
34.780503
 20
37.609373
 30
0.0
 10
34.780503
 20
37.609373
 30
0.0
 10
34.780614
 20
37.609390
 30
0.0
  0
LWPOLYLINE
  5
106
100
AcDbEntity
  8
Layer_1
 62
5
100
AcDbPolyline
 90
8
 70
0
 10
37.189572
 20
36.217783
 30
0.0
 10
37.783864
 20
35.187819
 30
0.0
 10
37.189572
 20
34.157216
 30
0.0
 10
35.999628
 20
34.157216
 30
0.0
 10
35.404669
 20
35.187819
 30
0.0
 10
35.999669
 20
36.217759
 30
0.0
 10
37.189586
 20
36.217759
 30
0.0
 10
37.189572
 20
36.217783
 30
0.0
  0
LWPOLYLINE
  5
107
100
AcDbEntity
  8
Layer_1
 62
5
100
AcDbPolyline
 90
10
 70
0
 10
39.596669
 20
34.826772
 30
0.0
 10
40.191642
 20
33.796133
 30
0.0
 10
39.596767
 20
32.766404
 30
0.0
 10
39.596628
 20
32.766168
 30
0.0
 10
38.406669
 20
32.766168
 30
0.0
 10
37.812364
 20
33.796169
 30
0.0
 10
38.406656
 20
34.826772
 30
0.0
 10
39.596572
 20
34.826772
 30
0.0
 10
39.596572
 20
34.826772
 30
0.0
 10
39.596669
 20
34.826772
 30
0.0
  0
LWPOLYLINE
  5
108
100
AcDbEntity
  8
Layer_1
 62
5
100
AcDbPolyline
 90
8
 70
0
 10
42.004975
 20
33.435114
 30
0.0
 10
42.599919
 20
32.405152
 30
0.0
 10
42.004906
 20
31.374565
 30
0.0
 10
40.815614
 20
31.374551
 30
0.0
 10
40.220642
 20
32.405161
 30
0.0
 10
40.815656
 20
33.435123
 30
0.0
 10
42.004975
 20
33.435114
 30
0.0
 10
42.004975
 20
33.435114
 30
0.0
  0
LWPOLYLINE
  5
109
100
AcDbEntity
  8
Layer_1
 62
5
100
AcDbPolyline
 90
8
 70
0
 10
25.327919
 20
42.868090
 30
0.0
 10
25.749058
 20
42.138976
 30
0.0
 10
25.154058
 20
41.108390
 30
0.0
 10
23.964781
 20
41.108390
 30
0.0
 10
23.369822
 20
42.138991
 30
0.0
 10
23.789919
 20
42.866625
 30
0.0
 10
25.327794
 20
42.868183
 30
0.0
 10
25.327919
 20
42.868090
 30
0.0
  0
LWPOLYLINE
  5
10a
100
AcDbEntity
  8
Layer_1
 62
5
100
AcDbPolyline
 90
10
 70
0
 10
43.189753
 20
31.984166
 30
0.0
 10
43.189753
 20
31.984166
 30
0.0
 10
43.189753
 20
31.984166
 30
0.0
 10
44.347475
 20
29.983619
 30
0.0
 10
43.223989
 20
29.983619
 30
0.0
 10
42.629017
 20
31.013598
 30
0.0
 10
43.189642
 20
31.983993
 30
0.0
 10
43.189642
 20
31.984187
 30
0.0
 10
43.189642
 20
31.984187
 30
0.0
 10
43.189753
 20
31.984166
 30
0.0
  0
LWPOLYLINE
  5
10b
100
AcDbEntity
  8
Layer_1
 62
5
100
AcDbPolyline
 90
7
 70
0
 10
22.957128
 20
42.865671
 30
0.0
 10
22.957128
 20
42.865671
 30
0.0
 10
22.745919
 20
42.499859
 30
0.0
 10
21.556586
 20
42.499859
 30
0.0
 10
21.346253
 20
42.863982
 30
0.0
 10
22.957169
 20
42.865622
 30
0.0
 10
22.957128
 20
42.865671
 30
0.0
  0
LWPOLYLINE
  5
10c
100
AcDbEntity
  8
Layer_1
 62
5
100
AcDbPolyline
 90
8
 70
0
 10
22.746503
 20
41.777775
 30
0.0
 10
23.340836
 20
40.747201
 30
0.0
 10
22.746517
 20
39.717201
 30
0.0
 10
21.556558
 20
39.717209
 30
0.0
 10
20.961558
 20
40.747161
 30
0.0
 10
21.556586
 20
41.777789
 30
0.0
 10
22.746489
 20
41.777783
 30
0.0
 10
22.746503
 20
41.777775
 30
0.0
  0
LWPOLYLINE
  5
10d
100
AcDbEntity
  8
Layer_1
 62
5
100
AcDbPolyline
 90
8
 70
0
 10
25.154239
 20
40.386172
 30
0.0
 10
25.748544
 20
39.355605
 30
0.0
 10
25.154225
 20
38.325584
 30
0.0
 10
23.964267
 20
38.325591
 30
0.0
 10
23.369294
 20
39.355577
 30
0.0
 10
23.964308
 20
40.386164
 30
0.0
 10
25.154225
 20
40.386164
 30
0.0
 10
25.154239
 20
40.386172
 30
0.0
  0
LWPOLYLINE
  5
10e
100
AcDbEntity
  8
Layer_1
 62
5
100
AcDbPolyline
 90
10
 70
0
 10
29.963836
 20
37.609348
 30
0.0
 10
30.558808
 20
36.578768
 30
0.0
 10
30.558808
 20
36.578532
 30
0.0
 10
29.963919
 20
35.548780
 30
0.0
 10
29.277294
 20
35.548787
 30
0.0
 10
28.774642
 20
35.548789
 30
0.0
 10
28.182600
 20
36.573772
 30
0.0
 10
28.780114
 20
37.609334
 30
0.0
 10
29.963989
 20
37.609329
 30
0.0
 10
29.963836
 20
37.609348
 30
0.0
  0
LWPOLYLINE
  5
10f
100
AcDbEntity
  8
Layer_1
 62
5
100
AcDbPolyline
 90
8
 70
0
 10
32.372794
 20
36.217741
 30
0.0
 10
32.967156
 20
35.187739
 30
0.0
 10
32.372850
 20
34.157739
 30
0.0
 10
31.182933
 20
34.157739
 30
0.0
 10
30.588600
 20
35.187727
 30
0.0
 10
31.182906
 20
36.217727
 30
0.0
 10
32.372822
 20
36.217727
 30
0.0
 10
32.372794
 20
36.217741
 30
0.0
  0
LWPOLYLINE
  5
110
100
AcDbEntity
  8
Layer_1
 62
5
100
AcDbPolyline
 90
8
 70
0
 10
27.562572
 20
38.994527
 30
0.0
 10
28.154531
 20
37.969736
 30
0.0
 10
27.557058
 20
36.934571
 30
0.0
 10
26.373239
 20
36.934572
 30
0.0
 10
25.778267
 20
37.964558
 30
0.0
 10
26.373281
 20
38.994521
 30
0.0
 10
27.562558
 20
38.994521
 30
0.0
 10
27.562572
 20
38.994527
 30
0.0
  0
LWPOLYLINE
  5
111
100
AcDbEntity
  8
Layer_1
 62
5
100
AcDbPolyline
 90
9
 70
0
 10
34.780461
 20
34.826771
 30
0.0
 10
34.780461
 20
34.826771
 30
0.0
 10
35.375392
 20
33.796157
 30
0.0
 10
34.780392
 20
32.766215
 30
0.0
 10
33.590475
 20
32.766215
 30
0.0
 10
32.996142
 20
33.796173
 30
0.0
 10
33.590461
 20
34.826819
 30
0.0
 10
34.780378
 20
34.826819
 30
0.0
 10
34.780461
 20
34.826771
 30
0.0
  0
LWPOLYLINE
  5
112
100
AcDbEntity
  8
Layer_1
 62
5
100
AcDbPolyline
 90
9
 70
0
 10
37.188878
 20
33.435109
 30
0.0
 10
37.783794
 20
32.405155
 30
0.0
 10
37.188794
 20
31.374568
 30
0.0
 10
35.999531
 20
31.374566
 30
0.0
 10
35.404558
 20
32.405177
 30
0.0
 10
35.999419
 20
33.434884
 30
0.0
 10
35.999558
 20
33.435148
 30
0.0
 10
37.188878
 20
33.435148
 30
0.0
 10
37.188878
 20
33.435109
 30
0.0
  0
LWPOLYLINE
  5
113
100
AcDbEntity
  8
Layer_1
 62
5
100
AcDbPolyline
 90
9
 70
0
 10
39.596614
 20
32.043418
 30
0.0
 10
40.191586
 20
31.013402
 30
0.0
 10
39.596572
 20
29.983440
 30
0.0
 10
38.407308
 20
29.983440
 30
0.0
 10
37.812322
 20
31.013434
 30
0.0
 10
38.407183
 20
32.043141
 30
0.0
 10
38.407322
 20
32.043405
 30
0.0
 10
39.596586
 20
32.043398
 30
0.0
 10
39.596614
 20
32.043418
 30
0.0
  0
LWPOLYLINE
  5
114
100
AcDbEntity
  8
Layer_1
 62
5
100
AcDbPolyline
 90
8
 70
0
 10
42.005558
 20
30.652384
 30
0.0
 10
42.599878
 20
29.622464
 30
0.0
 10
42.005558
 20
28.591797
 30
0.0
 10
40.815614
 20
28.591789
 30
0.0
 10
40.220697
 20
29.622426
 30
0.0
 10
40.815683
 20
30.652346
 30
0.0
 10
42.005600
 20
30.652346
 30
0.0
 10
42.005558
 20
30.652384
 30
0.0
  0
LWPOLYLINE
  5
115
100
AcDbEntity
  8
Layer_1
 62
5
100
AcDbPolyline
 90
8
 70
0
 10
44.413267
 20
29.260652
 30
0.0
 10
45.007558
 20
28.230725
 30
0.0
 10
44.413253
 20
27.200100
 30
0.0
 10
43.223336
 20
27.200100
 30
0.0
 10
42.628350
 20
28.230708
 30
0.0
 10
43.223364
 20
29.260672
 30
0.0
 10
44.413267
 20
29.260666
 30
0.0
 10
44.413267
 20
29.260652
 30
0.0
  0
LWPOLYLINE
  5
116
100
AcDbEntity
  8
Layer_1
 62
5
100
AcDbPolyline
 90
9
 70
0
 10
20.514100
 20
42.863169
 30
0.0
 10
20.932489
 20
42.138846
 30
0.0
 10
20.337614
 20
41.108183
 30
0.0
 10
19.148308
 20
41.108182
 30
0.0
 10
18.553336
 20
42.138791
 30
0.0
 10
18.970697
 20
42.861691
 30
0.0
 10
20.513961
 20
42.863226
 30
0.0
 10
20.513961
 20
42.863226
 30
0.0
 10
20.514100
 20
42.863169
 30
0.0
  0
LWPOLYLINE
  5
117
100
AcDbEntity
  8
Layer_1
 62
5
100
AcDbPolyline
 90
6
 70
0
 10
45.601642
 20
27.816480
 30
0.0
 10
46.763364
 20
25.809071
 30
0.0
 10
45.632308
 20
25.809065
 30
0.0
 10
45.037322
 20
26.839051
 30
0.0
 10
45.601642
 20
27.816480
 30
0.0
 10
45.601642
 20
27.816480
 30
0.0
  0
LWPOLYLINE
  5
118
100
AcDbEntity
  8
Layer_1
 62
5
100
AcDbPolyline
 90
6
 70
0
 10
18.138183
 20
42.860762
 30
0.0
 10
17.929836
 20
42.499875
 30
0.0
 10
16.740503
 20
42.499884
 30
0.0
 10
16.533017
 20
42.859109
 30
0.0
 10
18.138183
 20
42.860762
 30
0.0
 10
18.138183
 20
42.860762
 30
0.0
  0
LWPOLYLINE
  5
119
100
AcDbEntity
  8
Layer_1
 62
5
100
AcDbPolyline
 90
9
 70
0
 10
17.930419
 20
41.777790
 30
0.0
 10
17.930419
 20
41.777790
 30
0.0
 10
18.524739
 20
40.747187
 30
0.0
 10
17.930433
 20
39.717187
 30
0.0
 10
16.740489
 20
39.717187
 30
0.0
 10
16.145517
 20
40.747115
 30
0.0
 10
16.740544
 20
41.777744
 30
0.0
 10
17.930406
 20
41.777744
 30
0.0
 10
17.930419
 20
41.777790
 30
0.0
  0
LWPOLYLINE
  5
11a
100
AcDbEntity
  8
Layer_1
 62
5
100
AcDbPolyline
 90
9
 70
0
 10
20.337322
 20
40.386237
 30
0.0
 10
20.337322
 20
40.386237
 30
0.0
 10
20.932267
 20
39.356296
 30
0.0
 10
20.337253
 20
38.325689
 30
0.0
 10
19.147294
 20
38.325697
 30
0.0
 10
18.552975
 20
39.356291
 30
0.0
 10
19.147281
 20
40.386293
 30
0.0
 10
20.337239
 20
40.386284
 30
0.0
 10
20.337322
 20
40.386237
 30
0.0
  0
LWPOLYLINE
  5
11b
100
AcDbEntity
  8
Layer_1
 62
5
100
AcDbPolyline
 90
9
 70
0
 10
22.745850
 20
38.995136
 30
0.0
 10
22.745850
 20
38.995136
 30
0.0
 10
23.340753
 20
37.964594
 30
0.0
 10
22.745753
 20
36.934652
 30
0.0
 10
21.556447
 20
36.934655
 30
0.0
 10
20.961475
 20
37.964641
 30
0.0
 10
21.556475
 20
38.995205
 30
0.0
 10
22.745711
 20
38.995214
 30
0.0
 10
22.745850
 20
38.995136
 30
0.0
  0
LWPOLYLINE
  5
11c
100
AcDbEntity
  8
Layer_1
 62
5
100
AcDbPolyline
 90
9
 70
0
 10
25.154197
 20
37.603512
 30
0.0
 10
25.154197
 20
37.603512
 30
0.0
 10
25.749100
 20
36.572950
 30
0.0
 10
25.154114
 20
35.543030
 30
0.0
 10
23.964794
 20
35.543030
 30
0.0
 10
23.369822
 20
36.573016
 30
0.0
 10
23.964808
 20
37.603582
 30
0.0
 10
25.154072
 20
37.603582
 30
0.0
 10
25.154197
 20
37.603512
 30
0.0
  0
LWPOLYLINE
  5
11d
100
AcDbEntity
  8
Layer_1
 62
5
100
AcDbPolyline
 90
8
 70
0
 10
29.963878
 20
34.826648
 30
0.0
 10
30.558836
 20
33.796077
 30
0.0
 10
29.963836
 20
32.766136
 30
0.0
 10
28.774531
 20
32.766137
 30
0.0
 10
28.182822
 20
33.790437
 30
0.0
 10
28.780906
 20
34.826665
 30
0.0
 10
29.963892
 20
34.826665
 30
0.0
 10
29.963878
 20
34.826648
 30
0.0
  0
LWPOLYLINE
  5
11e
100
AcDbEntity
  8
Layer_1
 62
5
100
AcDbPolyline
 90
8
 70
0
 10
44.414169
 20
26.482943
 30
0.0
 10
45.009169
 20
25.452950
 30
0.0
 10
44.414169
 20
24.423007
 30
0.0
 10
43.224864
 20
24.423001
 30
0.0
 10
42.629892
 20
25.452958
 30
0.0
 10
43.224906
 20
26.482919
 30
0.0
 10
44.414169
 20
26.482919
 30
0.0
 10
44.414169
 20
26.482943
 30
0.0
  0
LWPOLYLINE
  5
11f
100
AcDbEntity
  8
Layer_1
 62
5
100
AcDbPolyline
 90
8
 70
0
 10
27.562419
 20
36.211968
 30
0.0
 10
28.154072
 20
35.187718
 30
0.0
 10
27.555822
 20
34.151507
 30
0.0
 10
26.372947
 20
34.151507
 30
0.0
 10
25.777961
 20
35.182125
 30
0.0
 10
26.372961
 20
36.212066
 30
0.0
 10
27.562294
 20
36.212066
 30
0.0
 10
27.562419
 20
36.211968
 30
0.0
  0
LWPOLYLINE
  5
120
100
AcDbEntity
  8
Layer_1
 62
5
100
AcDbPolyline
 90
8
 70
0
 10
32.372267
 20
33.435002
 30
0.0
 10
32.967156
 20
32.405093
 30
0.0
 10
32.372294
 20
31.374450
 30
0.0
 10
31.182975
 20
31.374458
 30
0.0
 10
30.588003
 20
32.405059
 30
0.0
 10
31.183003
 20
33.435001
 30
0.0
 10
32.372253
 20
33.435011
 30
0.0
 10
32.372267
 20
33.435002
 30
0.0
  0
LWPOLYLINE
  5
121
100
AcDbEntity
  8
Layer_1
 62
5
100
AcDbPolyline
 90
8
 70
0
 10
46.822558
 20
25.091927
 30
0.0
 10
47.417239
 20
24.062416
 30
0.0
 10
46.822142
 20
23.031371
 30
0.0
 10
45.633197
 20
23.031364
 30
0.0
 10
45.038211
 20
24.061972
 30
0.0
 10
45.633225
 20
25.091936
 30
0.0
 10
46.822558
 20
25.091927
 30
0.0
 10
46.822558
 20
25.091927
 30
0.0
  0
LWPOLYLINE
  5
122
100
AcDbEntity
  8
Layer_1
 62
5
100
AcDbPolyline
 90
9
 70
0
 10
34.780461
 20
32.043415
 30
0.0
 10
34.780461
 20
32.043415
 30
0.0
 10
35.375419
 20
31.013466
 30
0.0
 10
34.780544
 20
29.983426
 30
0.0
 10
33.591225
 20
29.983425
 30
0.0
 10
32.996253
 20
31.013440
 30
0.0
 10
33.591267
 20
32.043402
 30
0.0
 10
34.780475
 20
32.043407
 30
0.0
 10
34.780461
 20
32.043415
 30
0.0
  0
LWPOLYLINE
  5
123
100
AcDbEntity
  8
Layer_1
 62
5
100
AcDbPolyline
 90
9
 70
0
 10
37.189503
 20
30.652327
 30
0.0
 10
37.783781
 20
29.622401
 30
0.0
 10
37.189461
 20
28.591755
 30
0.0
 10
35.999586
 20
28.591744
 30
0.0
 10
35.404614
 20
29.622383
 30
0.0
 10
35.999489
 20
30.652111
 30
0.0
 10
35.999489
 20
30.652333
 30
0.0
 10
37.189378
 20
30.652336
 30
0.0
 10
37.189503
 20
30.652327
 30
0.0
  0
LWPOLYLINE
  5
124
100
AcDbEntity
  8
Layer_1
 62
5
100
AcDbPolyline
 90
9
 70
0
 10
39.596558
 20
29.260804
 30
0.0
 10
39.596558
 20
29.260804
 30
0.0
 10
40.191572
 20
28.230794
 30
0.0
 10
39.596558
 20
27.200832
 30
0.0
 10
38.406628
 20
27.200832
 30
0.0
 10
37.812281
 20
28.230819
 30
0.0
 10
38.406586
 20
29.260819
 30
0.0
 10
39.596447
 20
29.260819
 30
0.0
 10
39.596558
 20
29.260804
 30
0.0
  0
LWPOLYLINE
  5
125
100
AcDbEntity
  8
Layer_1
 62
5
100
AcDbPolyline
 90
8
 70
0
 10
42.004947
 20
27.869722
 30
0.0
 10
42.599933
 20
26.839134
 30
0.0
 10
42.004919
 20
25.809172
 30
0.0
 10
40.815614
 20
25.809172
 30
0.0
 10
40.220656
 20
26.839179
 30
0.0
 10
40.815656
 20
27.869744
 30
0.0
 10
42.004947
 20
27.869744
 30
0.0
 10
42.004947
 20
27.869722
 30
0.0
  0
LWPOLYLINE
  5
126
100
AcDbEntity
  8
Layer_1
 62
5
100
AcDbPolyline
 90
8
 70
0
 10
15.700864
 20
42.858259
 30
0.0
 10
16.116461
 20
42.138801
 30
0.0
 10
15.521447
 20
41.108215
 30
0.0
 10
14.332128
 20
41.108215
 30
0.0
 10
14.329003
 20
41.113551
 30
0.0
 10
15.333767
 20
42.857850
 30
0.0
 10
15.700864
 20
42.858225
 30
0.0
 10
15.700864
 20
42.858259
 30
0.0
  0
LWPOLYLINE
  5
127
100
AcDbEntity
  8
Layer_1
 62
5
100
AcDbPolyline
 90
9
 70
0
 10
15.521336
 20
40.386190
 30
0.0
 10
15.521336
 20
40.386190
 30
0.0
 10
16.116294
 20
39.355597
 30
0.0
 10
15.521281
 20
38.325633
 30
0.0
 10
14.331406
 20
38.325623
 30
0.0
 10
13.737058
 20
39.355612
 30
0.0
 10
14.331364
 20
40.386234
 30
0.0
 10
15.521225
 20
40.386234
 30
0.0
 10
15.521336
 20
40.386190
 30
0.0
  0
LWPOLYLINE
  5
128
100
AcDbEntity
  8
Layer_1
 62
5
100
AcDbPolyline
 90
10
 70
0
 10
17.929822
 20
38.994526
 30
0.0
 10
18.524781
 20
37.964548
 30
0.0
 10
18.524642
 20
37.964312
 30
0.0
 10
17.929781
 20
36.934604
 30
0.0
 10
16.740503
 20
36.934604
 30
0.0
 10
16.145517
 20
37.964590
 30
0.0
 10
16.740406
 20
38.994340
 30
0.0
 10
16.740406
 20
38.994562
 30
0.0
 10
17.929683
 20
38.994557
 30
0.0
 10
17.929822
 20
38.994526
 30
0.0
  0
SPLINE
  5
129
100
AcDbEntity
  8
Layer_1
 62
5
100
AcDbSpline
 70
8
 71
3
 72
8
 73
4
 74
0
 40
0
 40
0
 40
0
 40
0
 40
1
 40
1
 40
1
 40
1
 10
20.452378
 20
35.742096
 30
0.0
 10
20.379586
 20
35.787511
 30
0.0
 10
20.302461
 20
35.833804
 30
0.0
 10
20.220656
 20
35.881033
 30
0.0
  0
LWPOLYLINE
  5
12a
100
AcDbEntity
  8
Layer_1
 62
5
100
AcDbPolyline
 90
4
 70
0
 10
20.337461
 20
37.603505
 30
0.0
 10
20.337461
 20
37.603505
 30
0.0
 10
20.932419
 20
36.572912
 30
0.0
 10
20.452378
 20
35.742096
 30
0.0
  0
LWPOLYLINE
  5
12b
100
AcDbEntity
  8
Layer_1
 62
5
100
AcDbPolyline
 90
7
 70
0
 10
20.220656
 20
35.881033
 30
0.0
 10
18.691933
 20
36.763640
 30
0.0
 10
18.567461
 20
36.548043
 30
0.0
 10
18.553058
 20
36.572976
 30
0.0
 10
19.148058
 20
37.603562
 30
0.0
 10
20.337350
 20
37.603562
 30
0.0
 10
20.337461
 20
37.603505
 30
0.0
  0
SPLINE
  5
12c
100
AcDbEntity
  8
Layer_1
 62
5
100
AcDbSpline
 70
8
 71
3
 72
8
 73
4
 74
0
 40
0
 40
0
 40
0
 40
0
 40
1
 40
1
 40
1
 40
1
 10
21.471822
 20
34.298715
 30
0.0
 10
21.487544
 20
34.422309
 30
0.0
 10
21.482072
 20
34.543912
 30
0.0
 10
21.455197
 20
34.663509
 30
0.0
  0
SPLINE
  5
12d
100
AcDbEntity
  8
Layer_1
 62
5
100
AcDbSpline
 70
8
 71
3
 72
8
 73
4
 74
0
 40
0
 40
0
 40
0
 40
0
 40
1
 40
1
 40
1
 40
1
 10
21.455197
 20
34.663509
 30
0.0
 10
21.415406
 20
34.849930
 30
0.0
 10
21.302461
 20
35.040111
 30
0.0
 10
21.116406
 20
35.234069
 30
0.0
  0
SPLINE
  5
12e
100
AcDbEntity
  8
Layer_1
 62
5
100
AcDbSpline
 70
8
 71
3
 72
8
 73
4
 74
0
 40
0
 40
0
 40
0
 40
0
 40
1
 40
1
 40
1
 40
1
 10
21.116406
 20
35.234069
 30
0.0
 10
21.091961
 20
35.259691
 30
0.0
 10
21.065336
 20
35.285752
 30
0.0
 10
21.036836
 20
35.312189
 30
0.0
  0
LWPOLYLINE
  5
12f
100
AcDbEntity
  8
Layer_1
 62
5
100
AcDbPolyline
 90
6
 70
0
 10
22.746447
 20
36.211941
 30
0.0
 10
22.746447
 20
36.211941
 30
0.0
 10
23.340781
 20
35.181991
 30
0.0
 10
22.746475
 20
34.151991
 30
0.0
 10
21.556572
 20
34.151990
 30
0.0
 10
21.471822
 20
34.298715
 30
0.0
  0
LWPOLYLINE
  5
130
100
AcDbEntity
  8
Layer_1
 62
5
100
AcDbPolyline
 90
6
 70
0
 10
21.036836
 20
35.312189
 30
0.0
 10
21.556531
 20
36.211702
 30
0.0
 10
21.556531
 20
36.211925
 30
0.0
 10
22.310892
 20
36.211918
 30
0.0
 10
22.746336
 20
36.211918
 30
0.0
 10
22.746447
 20
36.211941
 30
0.0
  0
LWPOLYLINE
  5
131
100
AcDbEntity
  8
Layer_1
 62
5
100
AcDbPolyline
 90
7
 70
0
 10
39.597503
 20
26.482983
 30
0.0
 10
40.192461
 20
25.453033
 30
0.0
 10
39.714836
 20
24.626066
 30
0.0
 10
37.930642
 20
25.656165
 30
0.0
 10
38.408197
 20
26.482986
 30
0.0
 10
39.597503
 20
26.482983
 30
0.0
 10
39.597503
 20
26.482983
 30
0.0
  0
LWPOLYLINE
  5
132
100
AcDbEntity
  8
Layer_1
 62
5
100
AcDbPolyline
 90
10
 70
0
 10
42.006517
 20
25.091940
 30
0.0
 10
42.600808
 20
24.061983
 30
0.0
 10
42.006489
 20
23.031361
 30
0.0
 10
40.816531
 20
23.031368
 30
0.0
 10
40.346711
 20
23.845196
 30
0.0
 10
40.526878
 20
24.157234
 30
0.0
 10
40.339197
 20
24.265584
 30
0.0
 10
40.816642
 20
25.091901
 30
0.0
 10
42.006558
 20
25.091901
 30
0.0
 10
42.006517
 20
25.091940
 30
0.0
  0
SPLINE
  5
133
100
AcDbEntity
  8
Layer_1
 62
5
100
AcDbSpline
 70
8
 71
3
 72
8
 73
4
 74
0
 40
0
 40
0
 40
0
 40
0
 40
1
 40
1
 40
1
 40
1
 10
25.148253
 20
32.760225
 30
0.0
 10
25.093336
 20
32.884289
 30
0.0
 10
25.021558
 20
33.003414
 30
0.0
 10
24.932447
 20
33.117434
 30
0.0
  0
SPLINE
  5
134
100
AcDbEntity
  8
Layer_1
 62
5
100
AcDbSpline
 70
8
 71
3
 72
8
 73
4
 74
0
 40
0
 40
0
 40
0
 40
0
 40
1
 40
1
 40
1
 40
1
 10
24.932447
 20
33.117434
 30
0.0
 10
24.744531
 20
33.363733
 30
0.0
 10
24.494336
 20
33.577082
 30
0.0
 10
24.181864
 20
33.757487
 30
0.0
  0
SPLINE
  5
135
100
AcDbEntity
  8
Layer_1
 62
5
100
AcDbSpline
 70
8
 71
3
 72
8
 73
4
 74
0
 40
0
 40
0
 40
0
 40
0
 40
1
 40
1
 40
1
 40
1
 10
24.181864
 20
33.757487
 30
0.0
 10
23.954517
 20
33.888750
 30
0.0
 10
23.731767
 20
33.982929
 30
0.0
 10
23.513600
 20
34.040146
 30
0.0
  0
LWPOLYLINE
  5
136
100
AcDbEntity
  8
Layer_1
 62
5
100
AcDbPolyline
 90
4
 70
0
 10
25.154211
 20
34.820801
 30
0.0
 10
25.748544
 20
33.790227
 30
0.0
 10
25.154239
 20
32.760227
 30
0.0
 10
25.148253
 20
32.760225
 30
0.0
  0
LWPOLYLINE
  5
137
100
AcDbEntity
  8
Layer_1
 62
5
100
AcDbPolyline
 90
4
 70
0
 10
23.513600
 20
34.040146
 30
0.0
 10
23.964294
 20
34.820786
 30
0.0
 10
25.154197
 20
34.820786
 30
0.0
 10
25.154211
 20
34.820801
 30
0.0
  0
SPLINE
  5
138
100
AcDbEntity
  8
Layer_1
 62
5
100
AcDbSpline
 70
8
 71
3
 72
8
 73
4
 74
0
 40
0
 40
0
 40
0
 40
0
 40
1
 40
1
 40
1
 40
1
 10
29.390739
 20
29.983532
 30
0.0
 10
29.360058
 20
30.157951
 30
0.0
 10
29.293628
 20
30.336475
 30
0.0
 10
29.191364
 20
30.519114
 30
0.0
  0
SPLINE
  5
139
100
AcDbEntity
  8
Layer_1
 62
5
100
AcDbSpline
 70
8
 71
3
 72
8
 73
4
 74
0
 40
0
 40
0
 40
0
 40
0
 40
1
 40
1
 40
1
 40
1
 10
29.191364
 20
30.519114
 30
0.0
 10
29.020517
 20
30.824234
 30
0.0
 10
28.746808
 20
31.096069
 30
0.0
 10
28.370864
 20
31.334840
 30
0.0
  0
LWPOLYLINE
  5
13a
100
AcDbEntity
  8
Layer_1
 62
5
100
AcDbPolyline
 90
5
 70
0
 10
29.963794
 20
32.043448
 30
0.0
 10
29.963794
 20
32.043448
 30
0.0
 10
30.558767
 20
31.013462
 30
0.0
 10
29.963781
 20
29.983543
 30
0.0
 10
29.390739
 20
29.983532
 30
0.0
  0
LWPOLYLINE
  5
13b
100
AcDbEntity
  8
Layer_1
 62
5
100
AcDbPolyline
 90
4
 70
0
 10
28.370864
 20
31.334840
 30
0.0
 10
28.779961
 20
32.043429
 30
0.0
 10
29.963822
 20
32.043433
 30
0.0
 10
29.963794
 20
32.043448
 30
0.0
  0
LWPOLYLINE
  5
13c
100
AcDbEntity
  8
Layer_1
 62
5
100
AcDbPolyline
 90
9
 70
0
 10
32.372850
 20
30.652382
 30
0.0
 10
32.967197
 20
29.622394
 30
0.0
 10
32.372892
 20
28.591769
 30
0.0
 10
31.785169
 20
28.591766
 30
0.0
 10
32.050392
 20
29.051133
 30
0.0
 10
30.706669
 20
29.826926
 30
0.0
 10
31.182906
 20
30.652411
 30
0.0
 10
32.372808
 20
30.652404
 30
0.0
 10
32.372850
 20
30.652382
 30
0.0
  0
LWPOLYLINE
  5
13d
100
AcDbEntity
  8
Layer_1
 62
5
100
AcDbPolyline
 90
8
 70
0
 10
44.414225
 20
23.700293
 30
0.0
 10
45.008517
 20
22.670330
 30
0.0
 10
44.414211
 20
21.639705
 30
0.0
 10
43.224281
 20
21.639698
 30
0.0
 10
42.629308
 20
22.670307
 30
0.0
 10
43.224322
 20
23.700271
 30
0.0
 10
44.414239
 20
23.700271
 30
0.0
 10
44.414225
 20
23.700293
 30
0.0
  0
SPLINE
  5
13e
100
AcDbEntity
  8
Layer_1
 62
5
100
AcDbSpline
 70
8
 71
3
 72
8
 73
4
 74
0
 40
0
 40
0
 40
0
 40
0
 40
1
 40
1
 40
1
 40
1
 10
27.720253
 20
31.652272
 30
0.0
 10
27.565906
 20
31.703814
 30
0.0
 10
27.412600
 20
31.737923
 30
0.0
 10
27.260378
 20
31.754154
 30
0.0
  0
SPLINE
  5
13f
100
AcDbEntity
  8
Layer_1
 62
5
100
AcDbSpline
 70
8
 71
3
 72
8
 73
4
 74
0
 40
0
 40
0
 40
0
 40
0
 40
1
 40
1
 40
1
 40
1
 10
27.260378
 20
31.754154
 30
0.0
 10
26.944142
 20
31.789305
 30
0.0
 10
26.657711
 20
31.751161
 30
0.0
 10
26.401086
 20
31.639729
 30
0.0
  0
SPLINE
  5
140
100
AcDbEntity
  8
Layer_1
 62
5
100
AcDbSpline
 70
8
 71
3
 72
8
 73
4
 74
0
 40
0
 40
0
 40
0
 40
0
 40
1
 40
1
 40
1
 40
1
 10
26.401086
 20
31.639729
 30
0.0
 10
26.351253
 20
31.617614
 30
0.0
 10
26.303489
 20
31.593875
 30
0.0
 10
26.257614
 20
31.568609
 30
0.0
  0
LWPOLYLINE
  5
141
100
AcDbEntity
  8
Layer_1
 62
5
100
AcDbPolyline
 90
3
 70
0
 10
27.562447
 20
33.429277
 30
0.0
 10
28.154489
 20
32.404379
 30
0.0
 10
27.720253
 20
31.652272
 30
0.0
  0
LWPOLYLINE
  5
142
100
AcDbEntity
  8
Layer_1
 62
5
100
AcDbPolyline
 90
6
 70
0
 10
26.257614
 20
31.568609
 30
0.0
 10
25.778044
 20
32.399362
 30
0.0
 10
26.373031
 20
33.429282
 30
0.0
 10
27.562322
 20
33.429282
 30
0.0
 10
27.562322
 20
33.429282
 30
0.0
 10
27.562447
 20
33.429277
 30
0.0
  0
LWPOLYLINE
  5
143
100
AcDbEntity
  8
Layer_1
 62
5
100
AcDbPolyline
 90
13
 70
0
 10
34.780419
 20
29.260755
 30
0.0
 10
34.780419
 20
29.260755
 30
0.0
 10
35.375419
 20
28.230762
 30
0.0
 10
34.899392
 20
27.406262
 30
0.0
 10
34.498406
 20
27.637772
 30
0.0
 10
34.245781
 20
27.200208
 30
0.0
 10
33.590461
 20
27.200204
 30
0.0
 10
33.536725
 20
27.293414
 30
0.0
 10
34.148683
 20
27.839679
 30
0.0
 10
33.114822
 20
28.436582
 30
0.0
 10
33.590475
 20
29.260755
 30
0.0
 10
34.780406
 20
29.260755
 30
0.0
 10
34.780419
 20
29.260755
 30
0.0
  0
LWPOLYLINE
  5
144
100
AcDbEntity
  8
Layer_1
 62
5
100
AcDbPolyline
 90
12
 70
0
 10
37.188892
 20
27.869636
 30
0.0
 10
37.783850
 20
26.839062
 30
0.0
 10
37.308197
 20
26.015533
 30
0.0
 10
37.209892
 20
26.072293
 30
0.0
 10
37.057933
 20
25.809079
 30
0.0
 10
36.817558
 20
25.809079
 30
0.0
 10
37.029614
 20
26.176376
 30
0.0
 10
35.523933
 20
27.045679
 30
0.0
 10
35.999628
 20
27.869605
 30
0.0
 10
37.188878
 20
27.869605
 30
0.0
 10
37.188878
 20
27.869605
 30
0.0
 10
37.188892
 20
27.869636
 30
0.0
  0
LWPOLYLINE
  5
145
100
AcDbEntity
  8
Layer_1
 62
5
100
AcDbPolyline
 90
7
 70
0
 10
46.574017
 20
22.309322
 30
0.0
 10
45.509906
 20
20.461959
 30
0.0
 10
45.038086
 20
21.278723
 30
0.0
 10
45.632392
 20
22.309348
 30
0.0
 10
46.573933
 20
22.309341
 30
0.0
 10
46.573933
 20
22.309341
 30
0.0
 10
46.574017
 20
22.309322
 30
0.0
  0
LWPOLYLINE
  5
146
100
AcDbEntity
  8
Layer_1
 62
5
100
AcDbPolyline
 90
9
 70
0
 10
13.113017
 20
38.995125
 30
0.0
 10
13.113017
 20
38.995125
 30
0.0
 10
13.707947
 20
37.964509
 30
0.0
 10
13.112961
 20
36.934590
 30
0.0
 10
11.923656
 20
36.934589
 30
0.0
 10
11.922683
 20
36.936212
 30
0.0
 10
13.108656
 20
38.995187
 30
0.0
 10
13.112892
 20
38.995177
 30
0.0
 10
13.113017
 20
38.995125
 30
0.0
  0
LWPOLYLINE
  5
147
100
AcDbEntity
  8
Layer_1
 62
5
100
AcDbPolyline
 90
9
 70
0
 10
15.521322
 20
37.603444
 30
0.0
 10
15.521322
 20
37.603444
 30
0.0
 10
16.116267
 20
36.572851
 30
0.0
 10
15.521253
 20
35.542887
 30
0.0
 10
14.331947
 20
35.542890
 30
0.0
 10
13.736975
 20
36.572846
 30
0.0
 10
14.331989
 20
37.603454
 30
0.0
 10
15.521267
 20
37.603454
 30
0.0
 10
15.521322
 20
37.603444
 30
0.0
  0
LWPOLYLINE
  5
148
100
AcDbEntity
  8
Layer_1
 62
5
100
AcDbPolyline
 90
9
 70
0
 10
17.930378
 20
36.211783
 30
0.0
 10
17.930378
 20
36.211783
 30
0.0
 10
18.151850
 20
35.827954
 30
0.0
 10
17.183781
 20
34.151211
 30
0.0
 10
16.740447
 20
34.151208
 30
0.0
 10
16.145461
 20
35.181818
 30
0.0
 10
16.740475
 20
36.211780
 30
0.0
 10
17.930336
 20
36.211780
 30
0.0
 10
17.930378
 20
36.211783
 30
0.0
  0
LWPOLYLINE
  5
149
100
AcDbEntity
  8
Layer_1
 62
5
100
AcDbPolyline
 90
8
 70
0
 10
42.005781
 20
22.309123
 30
0.0
 10
42.600767
 20
21.278534
 30
0.0
 10
42.005753
 20
20.248573
 30
0.0
 10
40.816433
 20
20.248582
 30
0.0
 10
40.221447
 20
21.278546
 30
0.0
 10
40.816461
 20
22.309154
 30
0.0
 10
42.005781
 20
22.309154
 30
0.0
 10
42.005781
 20
22.309123
 30
0.0
  0
SPLINE
  5
14a
100
AcDbEntity
  8
Layer_1
 62
5
100
AcDbSpline
 70
8
 71
3
 72
8
 73
4
 74
0
 40
0
 40
0
 40
0
 40
0
 40
1
 40
1
 40
1
 40
1
 10
28.773794
 20
27.200696
 30
0.0
 10
28.616378
 20
27.450076
 30
0.0
 10
28.479544
 20
27.706451
 30
0.0
 10
28.363058
 20
27.976382
 30
0.0
  0
SPLINE
  5
14b
100
AcDbEntity
  8
Layer_1
 62
5
100
AcDbSpline
 70
8
 71
3
 72
8
 73
4
 74
0
 40
0
 40
0
 40
0
 40
0
 40
1
 40
1
 40
1
 40
1
 10
28.363058
 20
27.976382
 30
0.0
 10
28.869517
 20
28.348047
 30
0.0
 10
29.034044
 20
28.725194
 30
0.0
 10
29.214225
 20
29.289389
 30
0.0
  0
LWPOLYLINE
  5
14c
100
AcDbEntity
  8
Layer_1
 62
5
100
AcDbPolyline
 90
4
 70
0
 10
29.963808
 20
29.260629
 30
0.0
 10
30.055642
 20
29.101633
 30
0.0
 10
28.958128
 20
27.200694
 30
0.0
 10
28.773794
 20
27.200696
 30
0.0
  0
LWPOLYLINE
  5
14d
100
AcDbEntity
  8
Layer_1
 62
5
100
AcDbPolyline
 90
2
 70
0
 10
29.214225
 20
29.289389
 30
0.0
 10
29.963808
 20
29.260629
 30
0.0
  0
LWPOLYLINE
  5
14e
100
AcDbEntity
  8
Layer_1
 62
5
100
AcDbPolyline
 90
8
 70
0
 10
44.414086
 20
20.917522
 30
0.0
 10
45.009031
 20
19.887552
 30
0.0
 10
44.414031
 20
18.856966
 30
0.0
 10
43.224753
 20
18.856966
 30
0.0
 10
42.629739
 20
19.887598
 30
0.0
 10
43.224753
 20
20.917562
 30
0.0
 10
44.414086
 20
20.917562
 30
0.0
 10
44.414086
 20
20.917522
 30
0.0
  0
SPLINE
  5
14f
100
AcDbEntity
  8
Layer_1
 62
5
100
AcDbSpline
 70
8
 71
3
 72
8
 73
4
 74
0
 40
0
 40
0
 40
0
 40
0
 40
1
 40
1
 40
1
 40
1
 10
25.713058
 20
31.069923
 30
0.0
 10
25.575739
 20
30.877975
 30
0.0
 10
25.406364
 20
30.607676
 30
0.0
 10
25.204767
 20
30.258483
 30
0.0
  0
LWPOLYLINE
  5
150
100
AcDbEntity
  8
Layer_1
 62
5
100
AcDbPolyline
 90
2
 70
0
 10
25.261156
 20
31.852266
 30
0.0
 10
25.713058
 20
31.069923
 30
0.0
  0
SPLINE
  5
151
100
AcDbEntity
  8
Layer_1
 62
5
100
AcDbSpline
 70
8
 71
3
 72
8
 73
4
 74
0
 40
0
 40
0
 40
0
 40
0
 40
1
 40
1
 40
1
 40
1
 10
24.470211
 20
30.201847
 30
0.0
 10
24.817156
 20
30.802761
 30
0.0
 10
25.045558
 20
31.231734
 30
0.0
 10
25.155489
 20
31.488752
 30
0.0
  0
SPLINE
  5
152
100
AcDbEntity
  8
Layer_1
 62
5
100
AcDbSpline
 70
8
 71
3
 72
8
 73
4
 74
0
 40
0
 40
0
 40
0
 40
0
 40
1
 40
1
 40
1
 40
1
 10
25.155489
 20
31.488752
 30
0.0
 10
25.205753
 20
31.606280
 30
0.0
 10
25.240864
 20
31.727483
 30
0.0
 10
25.261156
 20
31.852266
 30
0.0
  0
LWPOLYLINE
  5
153
100
AcDbEntity
  8
Layer_1
 62
5
100
AcDbPolyline
 90
4
 70
0
 10
25.204767
 20
30.258483
 30
0.0
 10
25.042572
 20
29.977565
 30
0.0
 10
24.340725
 20
29.977565
 30
0.0
 10
24.470211
 20
30.201847
 30
0.0
  0
SPLINE
  5
154
100
AcDbEntity
  8
Layer_1
 62
5
100
AcDbSpline
 70
8
 71
3
 72
8
 73
4
 74
0
 40
0
 40
0
 40
0
 40
0
 40
1
 40
1
 40
1
 40
1
 10
23.618725
 20
32.765398
 30
0.0
 10
23.712461
 20
32.711273
 30
0.0
 10
23.751544
 20
32.637429
 30
0.0
 10
23.735989
 20
32.543858
 30
0.0
  0
SPLINE
  5
155
100
AcDbEntity
  8
Layer_1
 62
5
100
AcDbSpline
 70
8
 71
3
 72
8
 73
4
 74
0
 40
0
 40
0
 40
0
 40
0
 40
1
 40
1
 40
1
 40
1
 10
23.735989
 20
32.543858
 30
0.0
 10
23.724211
 20
32.451304
 30
0.0
 10
23.639919
 20
32.269221
 30
0.0
 10
23.483100
 20
31.997608
 30
0.0
  0
LWPOLYLINE
  5
156
100
AcDbEntity
  8
Layer_1
 62
5
100
AcDbPolyline
 90
2
 70
0
 10
25.261156
 20
31.852266
 30
0.0
 10
25.261156
 20
31.852266
 30
0.0
  0
SPLINE
  5
157
100
AcDbEntity
  8
Layer_1
 62
5
100
AcDbSpline
 70
8
 71
3
 72
8
 73
4
 74
0
 40
0
 40
0
 40
0
 40
0
 40
1
 40
1
 40
1
 40
1
 10
21.934378
 20
29.315137
 30
0.0
 10
21.735933
 20
28.971414
 30
0.0
 10
21.595919
 20
28.762208
 30
0.0
 10
21.514350
 20
28.687523
 30
0.0
  0
SPLINE
  5
158
100
AcDbEntity
  8
Layer_1
 62
5
100
AcDbSpline
 70
8
 71
3
 72
8
 73
4
 74
0
 40
0
 40
0
 40
0
 40
0
 40
1
 40
1
 40
1
 40
1
 10
21.514350
 20
28.687523
 30
0.0
 10
21.432767
 20
28.612837
 30
0.0
 10
21.340294
 20
28.605336
 30
0.0
 10
21.236919
 20
28.665014
 30
0.0
  0
SPLINE
  5
159
100
AcDbEntity
  8
Layer_1
 62
5
100
AcDbSpline
 70
8
 71
3
 72
8
 73
4
 74
0
 40
0
 40
0
 40
0
 40
0
 40
1
 40
1
 40
1
 40
1
 10
21.236919
 20
28.665014
 30
0.0
 10
21.135975
 20
28.723294
 30
0.0
 10
21.093989
 20
28.800423
 30
0.0
 10
21.110947
 20
28.896397
 30
0.0
  0
SPLINE
  5
15a
100
AcDbEntity
  8
Layer_1
 62
5
100
AcDbSpline
 70
8
 71
3
 72
8
 73
4
 74
0
 40
0
 40
0
 40
0
 40
0
 40
1
 40
1
 40
1
 40
1
 10
21.110947
 20
28.896397
 30
0.0
 10
21.130281
 20
28.990990
 30
0.0
 10
21.237808
 20
29.207726
 30
0.0
 10
21.433489
 20
29.546644
 30
0.0
  0
LWPOLYLINE
  5
15b
100
AcDbEntity
  8
Layer_1
 62
5
100
AcDbPolyline
 90
2
 70
0
 10
23.483100
 20
31.997608
 30
0.0
 10
21.934378
 20
29.315137
 30
0.0
  0
SPLINE
  5
15c
100
AcDbEntity
  8
Layer_1
 62
5
100
AcDbSpline
 70
8
 71
3
 72
8
 73
4
 74
0
 40
0
 40
0
 40
0
 40
0
 40
1
 40
1
 40
1
 40
1
 10
23.007183
 20
32.272379
 30
0.0
 10
23.180656
 20
32.572834
 30
0.0
 10
23.305156
 20
32.741318
 30
0.0
 10
23.380725
 20
32.777814
 30
0.0
  0
SPLINE
  5
15d
100
AcDbEntity
  8
Layer_1
 62
5
100
AcDbSpline
 70
8
 71
3
 72
8
 73
4
 74
0
 40
0
 40
0
 40
0
 40
0
 40
1
 40
1
 40
1
 40
1
 10
23.380725
 20
32.777814
 30
0.0
 10
23.460058
 20
32.815334
 30
0.0
 10
23.539406
 20
32.811191
 30
0.0
 10
23.618725
 20
32.765398
 30
0.0
  0
LWPOLYLINE
  5
15e
100
AcDbEntity
  8
Layer_1
 62
5
100
AcDbPolyline
 90
2
 70
0
 10
21.433489
 20
29.546644
 30
0.0
 10
23.007183
 20
32.272379
 30
0.0
  0
LWPOLYLINE
  5
15f
100
AcDbEntity
  8
Layer_1
 62
5
100
AcDbPolyline
 90
2
 70
0
 10
23.618725
 20
32.765398
 30
0.0
 10
23.618725
 20
32.765398
 30
0.0
  0
SPLINE
  5
160
100
AcDbEntity
  8
Layer_1
 62
5
100
AcDbSpline
 70
8
 71
3
 72
8
 73
4
 74
0
 40
0
 40
0
 40
0
 40
0
 40
1
 40
1
 40
1
 40
1
 10
27.845836
 20
30.155890
 30
0.0
 10
27.828739
 20
30.058071
 30
0.0
 10
27.740253
 20
29.870658
 30
0.0
 10
27.580322
 20
29.593643
 30
0.0
  0
LWPOLYLINE
  5
161
100
AcDbEntity
  8
Layer_1
 62
5
100
AcDbPolyline
 90
2
 70
0
 10
27.699406
 20
30.409387
 30
0.0
 10
27.845836
 20
30.155890
 30
0.0
  0
SPLINE
  5
162
100
AcDbEntity
  8
Layer_1
 62
5
100
AcDbSpline
 70
8
 71
3
 72
8
 73
4
 74
0
 40
0
 40
0
 40
0
 40
0
 40
1
 40
1
 40
1
 40
1
 10
27.001614
 20
29.865277
 30
0.0
 10
27.172308
 20
30.160929
 30
0.0
 10
27.300156
 20
30.343490
 30
0.0
 10
27.385156
 20
30.412996
 30
0.0
  0
SPLINE
  5
163
100
AcDbEntity
  8
Layer_1
 62
5
100
AcDbSpline
 70
8
 71
3
 72
8
 73
4
 74
0
 40
0
 40
0
 40
0
 40
0
 40
1
 40
1
 40
1
 40
1
 10
27.385156
 20
30.412996
 30
0.0
 10
27.469989
 20
30.482371
 30
0.0
 10
27.574725
 20
30.481155
 30
0.0
 10
27.699406
 20
30.409402
 30
0.0
  0
LWPOLYLINE
  5
164
100
AcDbEntity
  8
Layer_1
 62
5
100
AcDbPolyline
 90
5
 70
0
 10
27.580322
 20
29.593643
 30
0.0
 10
26.998544
 20
28.585983
 30
0.0
 10
26.373058
 20
28.585983
 30
0.0
 10
26.318031
 20
28.681294
 30
0.0
 10
27.001614
 20
29.865277
 30
0.0
  0
LWPOLYLINE
  5
165
100
AcDbEntity
  8
Layer_1
 62
5
100
AcDbPolyline
 90
2
 70
0
 10
27.699406
 20
30.409402
 30
0.0
 10
27.699406
 20
30.409387
 30
0.0
  0
LWPOLYLINE
  5
166
100
AcDbEntity
  8
Layer_1
 62
5
100
AcDbPolyline
 90
5
 70
0
 10
31.888169
 20
27.869687
 30
0.0
 10
30.741031
 20
26.783287
 30
0.0
 10
31.368253
 20
27.869661
 30
0.0
 10
31.888169
 20
27.869661
 30
0.0
 10
31.888169
 20
27.869687
 30
0.0
  0
SPLINE
  5
167
100
AcDbEntity
  8
Layer_1
 62
5
100
AcDbSpline
 70
8
 71
3
 72
8
 73
4
 74
0
 40
0
 40
0
 40
0
 40
0
 40
1
 40
1
 40
1
 40
1
 10
36.210572
 20
25.091832
 30
0.0
 10
35.985475
 20
25.060325
 30
0.0
 10
36.213822
 20
25.093876
 30
0.0
 10
35.984933
 20
25.064962
 30
0.0
  0
LWPOLYLINE
  5
168
100
AcDbEntity
  8
Layer_1
 62
5
100
AcDbPolyline
 90
4
 70
0
 10
36.643544
 20
25.091850
 30
0.0
 10
36.403517
 20
25.091848
 30
0.0
 10
36.355267
 20
25.008293
 30
0.0
 10
36.210572
 20
25.091832
 30
0.0
  0
SPLINE
  5
169
100
AcDbEntity
  8
Layer_1
 62
5
100
AcDbSpline
 70
8
 71
3
 72
8
 73
4
 74
0
 40
0
 40
0
 40
0
 40
0
 40
1
 40
1
 40
1
 40
1
 10
35.432169
 20
24.108341
 30
0.0
 10
35.653169
 20
23.931551
 30
0.0
 10
35.433003
 20
24.116605
 30
0.0
 10
35.651308
 20
23.938802
 30
0.0
  0
LWPOLYLINE
  5
16a
100
AcDbEntity
  8
Layer_1
 62
5
100
AcDbPolyline
 90
4
 70
0
 10
35.984933
 20
25.064962
 30
0.0
 10
35.326669
 20
25.445007
 30
0.0
 10
34.774253
 20
24.488190
 30
0.0
 10
35.432169
 20
24.108341
 30
0.0
  0
SPLINE
  5
16b
100
AcDbEntity
  8
Layer_1
 62
5
100
AcDbSpline
 70
8
 71
3
 72
8
 73
4
 74
0
 40
0
 40
0
 40
0
 40
0
 40
1
 40
1
 40
1
 40
1
 10
19.633336
 20
34.888491
 30
0.0
 10
19.830433
 20
34.774698
 30
0.0
 10
19.942892
 20
34.669711
 30
0.0
 10
19.970697
 20
34.573537
 30
0.0
  0
SPLINE
  5
16c
100
AcDbEntity
  8
Layer_1
 62
5
100
AcDbSpline
 70
8
 71
3
 72
8
 73
4
 74
0
 40
0
 40
0
 40
0
 40
0
 40
1
 40
1
 40
1
 40
1
 10
19.970697
 20
34.573537
 30
0.0
 10
19.998503
 20
34.477364
 30
0.0
 10
19.954808
 20
34.329518
 30
0.0
 10
19.839628
 20
34.130016
 30
0.0
  0
LWPOLYLINE
  5
16d
100
AcDbEntity
  8
Layer_1
 62
5
100
AcDbPolyline
 90
7
 70
0
 10
35.651308
 20
23.938802
 30
0.0
 10
35.563836
 20
23.787315
 30
0.0
 10
36.000433
 20
23.031190
 30
0.0
 10
36.651100
 20
23.030968
 30
0.0
 10
37.433350
 20
24.385865
 30
0.0
 10
36.535294
 20
24.904358
 30
0.0
 10
36.643544
 20
25.091850
 30
0.0
  0
SPLINE
  5
16e
100
AcDbEntity
  8
Layer_1
 62
5
100
AcDbSpline
 70
8
 71
3
 72
8
 73
4
 74
0
 40
0
 40
0
 40
0
 40
0
 40
1
 40
1
 40
1
 40
1
 10
19.562781
 20
33.650504
 30
0.0
 10
19.437878
 20
33.434175
 30
0.0
 10
19.327669
 20
33.307114
 30
0.0
 10
19.232142
 20
33.269323
 30
0.0
  0
SPLINE
  5
16f
100
AcDbEntity
  8
Layer_1
 62
5
100
AcDbSpline
 70
8
 71
3
 72
8
 73
4
 74
0
 40
0
 40
0
 40
0
 40
0
 40
1
 40
1
 40
1
 40
1
 10
19.232142
 20
33.269323
 30
0.0
 10
19.140406
 20
33.232551
 30
0.0
 10
19.024836
 20
33.254394
 30
0.0
 10
18.885419
 20
33.334890
 30
0.0
  0
SPLINE
  5
170
100
AcDbEntity
  8
Layer_1
 62
5
100
AcDbSpline
 70
8
 71
3
 72
8
 73
4
 74
0
 40
0
 40
0
 40
0
 40
0
 40
1
 40
1
 40
1
 40
1
 10
18.885419
 20
33.334890
 30
0.0
 10
18.854183
 20
33.352923
 30
0.0
 10
18.817600
 20
33.375657
 30
0.0
 10
18.775711
 20
33.403040
 30
0.0
  0
LWPOLYLINE
  5
171
100
AcDbEntity
  8
Layer_1
 62
5
100
AcDbPolyline
 90
2
 70
0
 10
19.839628
 20
34.130016
 30
0.0
 10
19.562781
 20
33.650504
 30
0.0
  0
LWPOLYLINE
  5
172
100
AcDbEntity
  8
Layer_1
 62
5
100
AcDbPolyline
 90
3
 70
0
 10
18.775711
 20
33.403040
 30
0.0
 10
19.633336
 20
34.888491
 30
0.0
 10
19.633336
 20
34.888491
 30
0.0
  0
LWPOLYLINE
  5
173
100
AcDbEntity
  8
Layer_1
 62
5
100
AcDbPolyline
 90
9
 70
0
 10
39.930308
 20
23.123923
 30
0.0
 10
40.192419
 20
22.670158
 30
0.0
 10
39.597419
 20
21.640218
 30
0.0
 10
38.407489
 20
21.640209
 30
0.0
 10
38.139725
 20
22.104201
 30
0.0
 10
38.951058
 20
23.509472
 30
0.0
 10
39.852433
 20
22.989065
 30
0.0
 10
39.930294
 20
23.123932
 30
0.0
 10
39.930308
 20
23.123923
 30
0.0
  0
SPLINE
  5
174
100
AcDbEntity
  8
Layer_1
 62
5
100
AcDbSpline
 70
8
 71
3
 72
8
 73
4
 74
0
 40
0
 40
0
 40
0
 40
0
 40
1
 40
1
 40
1
 40
1
 10
21.701031
 20
33.429182
 30
0.0
 10
21.543253
 20
33.210372
 30
0.0
 10
21.312142
 20
32.838465
 30
0.0
 10
21.009114
 20
32.316500
 30
0.0
  0
LWPOLYLINE
  5
175
100
AcDbEntity
  8
Layer_1
 62
5
100
AcDbPolyline
 90
6
 70
0
 10
33.831697
 20
26.482796
 30
0.0
 10
33.117114
 20
25.245104
 30
0.0
 10
32.997128
 20
25.452848
 30
0.0
 10
33.592128
 20
26.482789
 30
0.0
 10
33.831697
 20
26.482796
 30
0.0
 10
33.831697
 20
26.482796
 30
0.0
  0
LWPOLYLINE
  5
176
100
AcDbEntity
  8
Layer_1
 62
5
100
AcDbPolyline
 90
5
 70
0
 10
21.009114
 20
32.316500
 30
0.0
 10
20.961392
 20
32.399193
 30
0.0
 10
21.556419
 20
33.429175
 30
0.0
 10
21.701058
 20
33.429166
 30
0.0
 10
21.701031
 20
33.429182
 30
0.0
  0
LWPOLYLINE
  5
177
100
AcDbEntity
  8
Layer_1
 62
5
100
AcDbPolyline
 90
5
 70
0
 10
32.902656
 20
26.727277
 30
0.0
 10
32.372142
 20
25.809041
 30
0.0
 10
31.873919
 20
25.809030
 30
0.0
 10
32.902642
 20
26.727286
 30
0.0
 10
32.902656
 20
26.727277
 30
0.0
  0
LWPOLYLINE
  5
178
100
AcDbEntity
  8
Layer_1
 62
5
100
AcDbPolyline
 90
10
 70
0
 10
13.113683
 20
36.211723
 30
0.0
 10
13.113683
 20
36.211723
 30
0.0
 10
13.113683
 20
36.211723
 30
0.0
 10
13.707989
 20
35.181782
 30
0.0
 10
13.113683
 20
34.151782
 30
0.0
 10
11.923711
 20
34.151796
 30
0.0
 10
11.329419
 20
35.181751
 30
0.0
 10
11.923725
 20
36.211751
 30
0.0
 10
13.113642
 20
36.211747
 30
0.0
 10
13.113683
 20
36.211723
 30
0.0
  0
LWPOLYLINE
  5
179
100
AcDbEntity
  8
Layer_1
 62
5
100
AcDbPolyline
 90
8
 70
0
 10
32.373656
 20
25.091769
 30
0.0
 10
32.701031
 20
24.524411
 30
0.0
 10
31.838906
 20
23.031168
 30
0.0
 10
31.183711
 20
23.031168
 30
0.0
 10
31.137906
 20
23.110598
 30
0.0
 10
31.611433
 20
25.091769
 30
0.0
 10
32.373656
 20
25.091769
 30
0.0
 10
32.373656
 20
25.091769
 30
0.0
  0
LWPOLYLINE
  5
17a
100
AcDbEntity
  8
Layer_1
 62
5
100
AcDbPolyline
 90
9
 70
0
 10
15.521308
 20
34.820769
 30
0.0
 10
15.521308
 20
34.820769
 30
0.0
 10
16.116281
 20
33.790140
 30
0.0
 10
15.521281
 20
32.760197
 30
0.0
 10
14.331350
 20
32.760190
 30
0.0
 10
13.736989
 20
33.790155
 30
0.0
 10
14.331308
 20
34.820801
 30
0.0
 10
15.521267
 20
34.820793
 30
0.0
 10
15.521308
 20
34.820769
 30
0.0
  0
SPLINE
  5
17b
100
AcDbEntity
  8
Layer_1
 62
5
100
AcDbSpline
 70
8
 71
3
 72
8
 73
4
 74
0
 40
0
 40
0
 40
0
 40
0
 40
1
 40
1
 40
1
 40
1
 10
20.381850
 20
31.230634
 30
0.0
 10
20.049475
 20
30.654957
 30
0.0
 10
19.826169
 20
30.237527
 30
0.0
 10
19.711322
 20
29.977471
 30
0.0
  0
LWPOLYLINE
  5
17c
100
AcDbEntity
  8
Layer_1
 62
5
100
AcDbPolyline
 90
3
 70
0
 10
20.337392
 20
32.037404
 30
0.0
 10
20.592572
 20
31.595619
 30
0.0
 10
20.381850
 20
31.230634
 30
0.0
  0
SPLINE
  5
17d
100
AcDbEntity
  8
Layer_1
 62
5
100
AcDbSpline
 70
8
 71
3
 72
8
 73
4
 74
0
 40
0
 40
0
 40
0
 40
0
 40
1
 40
1
 40
1
 40
1
 10
19.088794
 20
31.934782
 30
0.0
 10
19.230406
 20
31.883433
 30
0.0
 10
19.363406
 20
31.851137
 30
0.0
 10
19.487586
 20
31.838279
 30
0.0
  0
SPLINE
  5
17e
100
AcDbEntity
  8
Layer_1
 62
5
100
AcDbSpline
 70
8
 71
3
 72
8
 73
4
 74
0
 40
0
 40
0
 40
0
 40
0
 40
1
 40
1
 40
1
 40
1
 10
19.487586
 20
31.838279
 30
0.0
 10
19.747031
 20
31.810272
 30
0.0
 10
19.964489
 20
31.859401
 30
0.0
 10
20.139947
 20
31.985647
 30
0.0
  0
SPLINE
  5
17f
100
AcDbEntity
  8
Layer_1
 62
5
100
AcDbSpline
 70
8
 71
3
 72
8
 73
4
 74
0
 40
0
 40
0
 40
0
 40
0
 40
1
 40
1
 40
1
 40
1
 10
20.139947
 20
31.985647
 30
0.0
 10
20.161336
 20
32.001050
 30
0.0
 10
20.183031
 20
32.018337
 30
0.0
 10
20.205017
 20
32.037402
 30
0.0
  0
LWPOLYLINE
  5
180
100
AcDbEntity
  8
Layer_1
 62
5
100
AcDbPolyline
 90
4
 70
0
 10
19.711322
 20
29.977471
 30
0.0
 10
19.148031
 20
29.977465
 30
0.0
 10
18.553044
 20
31.007459
 30
0.0
 10
19.088794
 20
31.934782
 30
0.0
  0
LWPOLYLINE
  5
181
100
AcDbEntity
  8
Layer_1
 62
5
100
AcDbPolyline
 90
3
 70
0
 10
20.205017
 20
32.037402
 30
0.0
 10
20.337406
 20
32.037397
 30
0.0
 10
20.337392
 20
32.037404
 30
0.0
  0
LWPOLYLINE
  5
182
100
AcDbEntity
  8
Layer_1
 62
5
100
AcDbPolyline
 90
8
 70
0
 10
39.597364
 20
20.917458
 30
0.0
 10
40.192350
 20
19.887465
 30
0.0
 10
39.597336
 20
18.856879
 30
0.0
 10
38.408058
 20
18.856879
 30
0.0
 10
37.813044
 20
19.887504
 30
0.0
 10
38.408058
 20
20.917466
 30
0.0
 10
39.597350
 20
20.917466
 30
0.0
 10
39.597364
 20
20.917458
 30
0.0
  0
LWPOLYLINE
  5
183
100
AcDbEntity
  8
Layer_1
 62
5
100
AcDbPolyline
 90
8
 70
0
 10
42.006364
 20
19.526415
 30
0.0
 10
42.600656
 20
18.495807
 30
0.0
 10
42.006350
 20
17.465807
 30
0.0
 10
40.816392
 20
17.465814
 30
0.0
 10
40.221406
 20
18.495807
 30
0.0
 10
40.816419
 20
19.526394
 30
0.0
 10
42.006364
 20
19.526394
 30
0.0
 10
42.006364
 20
19.526415
 30
0.0
  0
SPLINE
  5
184
100
AcDbEntity
  8
Layer_1
 62
5
100
AcDbSpline
 70
8
 71
3
 72
8
 73
4
 74
0
 40
0
 40
0
 40
0
 40
0
 40
1
 40
1
 40
1
 40
1
 10
27.377628
 20
25.803266
 30
0.0
 10
27.515211
 20
25.997802
 30
0.0
 10
27.665350
 20
26.235650
 30
0.0
 10
27.828350
 20
26.517977
 30
0.0
  0
LWPOLYLINE
  5
185
100
AcDbEntity
  8
Layer_1
 62
5
100
AcDbPolyline
 90
5
 70
0
 10
27.562336
 20
27.863815
 30
0.0
 10
27.562336
 20
27.863815
 30
0.0
 10
28.153294
 20
26.840171
 30
0.0
 10
27.554461
 20
25.803272
 30
0.0
 10
27.377628
 20
25.803266
 30
0.0
  0
SPLINE
  5
186
100
AcDbEntity
  8
Layer_1
 62
5
100
AcDbSpline
 70
8
 71
3
 72
8
 73
4
 74
0
 40
0
 40
0
 40
0
 40
0
 40
1
 40
1
 40
1
 40
1
 10
26.018989
 20
26.889573
 30
0.0
 10
25.968836
 20
26.802689
 30
0.0
 10
25.922447
 20
26.725516
 30
0.0
 10
25.879558
 20
26.657390
 30
0.0
  0
LWPOLYLINE
  5
187
100
AcDbEntity
  8
Layer_1
 62
5
100
AcDbPolyline
 90
4
 70
0
 10
27.828350
 20
26.517977
 30
0.0
 10
27.959489
 20
26.745123
 30
0.0
 10
26.441572
 20
27.621494
 30
0.0
 10
26.018989
 20
26.889573
 30
0.0
  0
LWPOLYLINE
  5
188
100
AcDbEntity
  8
Layer_1
 62
5
100
AcDbPolyline
 90
5
 70
0
 10
25.879558
 20
26.657390
 30
0.0
 10
25.387350
 20
27.044143
 30
0.0
 10
25.982350
 20
28.074732
 30
0.0
 10
27.562239
 20
27.863871
 30
0.0
 10
27.562336
 20
27.863815
 30
0.0
  0
LWPOLYLINE
  5
189
100
AcDbEntity
  8
Layer_1
 62
5
100
AcDbPolyline
 90
6
 70
0
 10
44.169447
 20
18.134736
 30
0.0
 10
43.103211
 20
16.283619
 30
0.0
 10
42.629197
 20
17.104165
 30
0.0
 10
43.224211
 20
18.134751
 30
0.0
 10
44.169447
 20
18.134751
 30
0.0
 10
44.169447
 20
18.134736
 30
0.0
  0
SPLINE
  5
18a
100
AcDbEntity
  8
Layer_1
 62
5
100
AcDbSpline
 70
8
 71
3
 72
8
 73
4
 74
0
 40
0
 40
0
 40
0
 40
0
 40
1
 40
1
 40
1
 40
1
 10
24.220142
 20
28.553080
 30
0.0
 10
24.004933
 20
28.180329
 30
0.0
 10
23.845072
 20
27.857150
 30
0.0
 10
23.739767
 20
27.582864
 30
0.0
  0
LWPOLYLINE
  5
18b
100
AcDbEntity
  8
Layer_1
 62
5
100
AcDbPolyline
 90
2
 70
0
 10
24.625253
 20
29.254751
 30
0.0
 10
24.220142
 20
28.553080
 30
0.0
  0
LWPOLYLINE
  5
18c
100
AcDbEntity
  8
Layer_1
 62
5
100
AcDbPolyline
 90
5
 70
0
 10
23.739767
 20
27.582864
 30
0.0
 10
23.369169
 20
28.224796
 30
0.0
 10
23.964183
 20
29.254757
 30
0.0
 10
24.625253
 20
29.254751
 30
0.0
 10
24.625253
 20
29.254751
 30
0.0
  0
LWPOLYLINE
  5
18d
100
AcDbEntity
  8
Layer_1
 62
5
100
AcDbPolyline
 90
10
 70
0
 10
35.147433
 20
23.066382
 30
0.0
 10
35.376350
 20
22.670072
 30
0.0
 10
34.781364
 20
21.639507
 30
0.0
 10
34.104892
 20
21.639507
 30
0.0
 10
33.335114
 20
22.083936
 30
0.0
 10
33.325433
 20
22.100737
 30
0.0
 10
34.061656
 20
23.375898
 30
0.0
 10
35.009878
 20
22.828437
 30
0.0
 10
35.147308
 20
23.066475
 30
0.0
 10
35.147433
 20
23.066382
 30
0.0
  0
LWPOLYLINE
  5
18e
100
AcDbEntity
  8
Layer_1
 62
5
100
AcDbPolyline
 90
6
 70
0
 10
36.234114
 20
22.309037
 30
0.0
 10
35.522294
 20
21.076122
 30
0.0
 10
35.405419
 20
21.278443
 30
0.0
 10
36.000419
 20
22.309030
 30
0.0
 10
36.234114
 20
22.309037
 30
0.0
 10
36.234114
 20
22.309037
 30
0.0
  0
LWPOLYLINE
  5
18f
100
AcDbEntity
  8
Layer_1
 62
5
100
AcDbPolyline
 90
6
 70
0
 10
37.723850
 20
21.383862
 30
0.0
 10
37.784739
 20
21.278404
 30
0.0
 10
37.189725
 20
20.248441
 30
0.0
 10
37.068336
 20
20.248441
 30
0.0
 10
37.723864
 20
21.383854
 30
0.0
 10
37.723850
 20
21.383862
 30
0.0
  0
LWPOLYLINE
  5
190
100
AcDbEntity
  8
Layer_1
 62
5
100
AcDbPolyline
 90
6
 70
0
 10
16.766919
 20
33.429123
 30
0.0
 10
16.158767
 20
32.375782
 30
0.0
 10
16.145253
 20
32.399182
 30
0.0
 10
16.740253
 20
33.429122
 30
0.0
 10
16.766906
 20
33.429132
 30
0.0
 10
16.766919
 20
33.429123
 30
0.0
  0
LWPOLYLINE
  5
191
100
AcDbEntity
  8
Layer_1
 62
5
100
AcDbPolyline
 90
5
 70
0
 10
30.124864
 20
25.716059
 30
0.0
 10
29.748281
 20
24.422827
 30
0.0
 10
29.378225
 20
24.422832
 30
0.0
 10
30.124864
 20
25.716059
 30
0.0
 10
30.124864
 20
25.716059
 30
0.0
  0
LWPOLYLINE
  5
192
100
AcDbEntity
  8
Layer_1
 62
5
100
AcDbPolyline
 90
6
 70
0
 10
18.197017
 20
32.400709
 30
0.0
 10
18.443378
 20
32.258473
 30
0.0
 10
17.929572
 20
31.368548
 30
0.0
 10
17.601100
 20
31.368552
 30
0.0
 10
18.197017
 20
32.400709
 30
0.0
 10
18.197017
 20
32.400709
 30
0.0
  0
LWPOLYLINE
  5
193
100
AcDbEntity
  8
Layer_1
 62
5
100
AcDbPolyline
 90
8
 70
0
 10
10.704614
 20
34.820711
 30
0.0
 10
10.704614
 20
34.820711
 30
0.0
 10
11.299572
 20
33.790116
 30
0.0
 10
10.704558
 20
32.760155
 30
0.0
 10
9.517350
 20
32.760158
 30
0.0
 10
10.704225
 20
34.820743
 30
0.0
 10
10.704503
 20
34.820734
 30
0.0
 10
10.704614
 20
34.820711
 30
0.0
  0
LWPOLYLINE
  5
194
100
AcDbEntity
  8
Layer_1
 62
5
100
AcDbPolyline
 90
10
 70
0
 10
13.112961
 20
33.428977
 30
0.0
 10
13.707947
 20
32.398984
 30
0.0
 10
13.112933
 20
31.368398
 30
0.0
 10
12.877697
 20
31.368407
 30
0.0
 10
12.068406
 20
31.835655
 30
0.0
 10
11.861156
 20
31.476677
 30
0.0
 10
11.328669
 20
32.399030
 30
0.0
 10
11.923683
 20
33.428993
 30
0.0
 10
13.112947
 20
33.428986
 30
0.0
 10
13.112961
 20
33.428977
 30
0.0
  0
SPLINE
  5
195
100
AcDbEntity
  8
Layer_1
 62
5
100
AcDbSpline
 70
8
 71
3
 72
8
 73
4
 74
0
 40
0
 40
0
 40
0
 40
0
 40
1
 40
1
 40
1
 40
1
 10
26.331628
 20
25.012964
 30
0.0
 10
26.421433
 20
25.031461
 30
0.0
 10
26.505864
 20
25.055641
 30
0.0
 10
26.584503
 20
25.085958
 30
0.0
  0
LWPOLYLINE
  5
196
100
AcDbEntity
  8
Layer_1
 62
5
100
AcDbPolyline
 90
10
 70
0
 10
27.563211
 20
25.085926
 30
0.0
 10
27.650211
 20
24.935301
 30
0.0
 10
27.162308
 20
24.090232
 30
0.0
 10
27.919281
 20
23.653193
 30
0.0
 10
27.556836
 20
23.025418
 30
0.0
 10
27.328183
 20
23.025418
 30
0.0
 10
26.108058
 20
23.729862
 30
0.0
 10
26.037558
 20
23.607775
 30
0.0
 10
25.778781
 20
24.056026
 30
0.0
 10
26.331628
 20
25.012964
 30
0.0
  0
LWPOLYLINE
  5
197
100
AcDbEntity
  8
Layer_1
 62
5
100
AcDbPolyline
 90
3
 70
0
 10
26.584503
 20
25.085958
 30
0.0
 10
27.563142
 20
25.085965
 30
0.0
 10
27.563211
 20
25.085926
 30
0.0
  0
LWPOLYLINE
  5
198
100
AcDbEntity
  8
Layer_1
 62
5
100
AcDbPolyline
 90
13
 70
0
 10
15.521253
 20
32.037336
 30
0.0
 10
15.521253
 20
32.037336
 30
0.0
 10
15.742336
 20
31.654583
 30
0.0
 10
15.321864
 20
30.926314
 30
0.0
 10
15.882392
 20
30.602691
 30
0.0
 10
15.521197
 20
29.977396
 30
0.0
 10
15.287003
 20
29.977396
 30
0.0
 10
14.022544
 20
30.707434
 30
0.0
 10
13.966378
 20
30.610165
 30
0.0
 10
13.736947
 20
31.007366
 30
0.0
 10
14.331947
 20
32.037329
 30
0.0
 10
15.521225
 20
32.037329
 30
0.0
 10
15.521253
 20
32.037336
 30
0.0
  0
LWPOLYLINE
  5
199
100
AcDbEntity
  8
Layer_1
 62
5
100
AcDbPolyline
 90
12
 70
0
 10
17.930253
 20
30.646301
 30
0.0
 10
18.524558
 20
29.616387
 30
0.0
 10
17.930239
 20
28.585743
 30
0.0
 10
17.360281
 20
28.585736
 30
0.0
 10
17.397294
 20
28.759043
 30
0.0
 10
16.261808
 20
29.414619
 30
0.0
 10
16.145364
 20
29.616357
 30
0.0
 10
16.506850
 20
30.242162
 30
0.0
 10
16.839767
 20
30.049951
 30
0.0
 10
17.184086
 20
30.646327
 30
0.0
 10
17.930225
 20
30.646316
 30
0.0
 10
17.930253
 20
30.646301
 30
0.0
  0
SPLINE
  5
19a
100
AcDbEntity
  8
Layer_1
 62
5
100
AcDbSpline
 70
8
 71
3
 72
8
 73
4
 74
0
 40
0
 40
0
 40
0
 40
0
 40
1
 40
1
 40
1
 40
1
 10
34.793531
 20
18.878165
 30
0.0
 10
34.779975
 20
18.886190
 30
0.0
 10
34.766572
 20
18.894290
 30
0.0
 10
34.752781
 20
18.902252
 30
0.0
  0
SPLINE
  5
19b
100
AcDbEntity
  8
Layer_1
 62
5
100
AcDbSpline
 70
8
 71
3
 72
8
 73
4
 74
0
 40
0
 40
0
 40
0
 40
0
 40
1
 40
1
 40
1
 40
1
 10
34.752781
 20
18.902252
 30
0.0
 10
34.392225
 20
19.110418
 30
0.0
 10
34.050558
 20
19.229169
 30
0.0
 10
33.727767
 20
19.258490
 30
0.0
  0
SPLINE
  5
19c
100
AcDbEntity
  8
Layer_1
 62
5
100
AcDbSpline
 70
8
 71
3
 72
8
 73
4
 74
0
 40
0
 40
0
 40
0
 40
0
 40
1
 40
1
 40
1
 40
1
 10
33.727767
 20
19.258490
 30
0.0
 10
33.598836
 20
19.271222
 30
0.0
 10
33.477031
 20
19.269865
 30
0.0
 10
33.362058
 20
19.254941
 30
0.0
  0
LWPOLYLINE
  5
19d
100
AcDbEntity
  8
Layer_1
 62
5
100
AcDbPolyline
 90
5
 70
0
 10
34.781267
 20
20.917358
 30
0.0
 10
35.106031
 20
20.355134
 30
0.0
 10
34.737447
 20
19.716725
 30
0.0
 10
35.142614
 20
19.482800
 30
0.0
 10
34.793531
 20
18.878165
 30
0.0
  0
LWPOLYLINE
  5
19e
100
AcDbEntity
  8
Layer_1
 62
5
100
AcDbPolyline
 90
7
 70
0
 10
33.362058
 20
19.254941
 30
0.0
 10
32.996933
 20
19.887402
 30
0.0
 10
33.358294
 20
20.512973
 30
0.0
 10
33.760308
 20
20.280868
 30
0.0
 10
34.127808
 20
20.917387
 30
0.0
 10
34.781225
 20
20.917379
 30
0.0
 10
34.781267
 20
20.917358
 30
0.0
  0
SPLINE
  5
19f
100
AcDbEntity
  8
Layer_1
 62
5
100
AcDbSpline
 70
8
 71
3
 72
8
 73
4
 74
0
 40
0
 40
0
 40
0
 40
0
 40
1
 40
1
 40
1
 40
1
 10
35.886489
 20
17.662730
 30
0.0
 10
35.843489
 20
17.811889
 30
0.0
 10
35.764128
 20
17.967796
 30
0.0
 10
35.648364
 20
18.130416
 30
0.0
  0
SPLINE
  5
1a0
100
AcDbEntity
  8
Layer_1
 62
5
100
AcDbSpline
 70
8
 71
3
 72
8
 73
4
 74
0
 40
0
 40
0
 40
0
 40
0
 40
1
 40
1
 40
1
 40
1
 10
35.648364
 20
18.130416
 30
0.0
 10
35.611017
 20
18.183254
 30
0.0
 10
35.570364
 20
18.235054
 30
0.0
 10
35.526531
 20
18.285871
 30
0.0
  0
LWPOLYLINE
  5
1a1
100
AcDbEntity
  8
Layer_1
 62
5
100
AcDbPolyline
 90
5
 70
0
 10
37.190267
 20
19.526301
 30
0.0
 10
37.784558
 20
18.495714
 30
0.0
 10
37.190253
 20
17.465714
 30
0.0
 10
36.000294
 20
17.465722
 30
0.0
 10
35.886489
 20
17.662730
 30
0.0
  0
LWPOLYLINE
  5
1a2
100
AcDbEntity
  8
Layer_1
 62
5
100
AcDbPolyline
 90
7
 70
0
 10
35.526531
 20
18.285871
 30
0.0
 10
35.405336
 20
18.495700
 30
0.0
 10
35.767086
 20
19.122262
 30
0.0
 10
36.255364
 20
18.840354
 30
0.0
 10
36.651392
 20
19.526294
 30
0.0
 10
37.190267
 20
19.526301
 30
0.0
 10
37.190267
 20
19.526301
 30
0.0
  0
LWPOLYLINE
  5
1a3
100
AcDbEntity
  8
Layer_1
 62
5
100
AcDbPolyline
 90
10
 70
0
 10
39.597281
 20
18.134714
 30
0.0
 10
39.597281
 20
18.134714
 30
0.0
 10
40.192211
 20
17.104780
 30
0.0
 10
39.597183
 20
16.074173
 30
0.0
 10
39.368100
 20
16.074169
 30
0.0
 10
37.927683
 20
16.905797
 30
0.0
 10
37.812947
 20
17.104761
 30
0.0
 10
38.407253
 20
18.134761
 30
0.0
 10
39.597169
 20
18.134761
 30
0.0
 10
39.597281
 20
18.134714
 30
0.0
  0
LWPOLYLINE
  5
1a4
100
AcDbEntity
  8
Layer_1
 62
5
100
AcDbPolyline
 90
9
 70
0
 10
42.005669
 20
16.743690
 30
0.0
 10
42.005669
 20
16.743690
 30
0.0
 10
42.600628
 20
15.713118
 30
0.0
 10
42.005614
 20
14.683155
 30
0.0
 10
40.816308
 20
14.683157
 30
0.0
 10
40.221350
 20
15.713134
 30
0.0
 10
40.816350
 20
16.743722
 30
0.0
 10
42.005572
 20
16.743722
 30
0.0
 10
42.005669
 20
16.743690
 30
0.0
  0
SPLINE
  5
1a5
100
AcDbEntity
  8
Layer_1
 62
5
100
AcDbSpline
 70
8
 71
3
 72
8
 73
4
 74
0
 40
0
 40
0
 40
0
 40
0
 40
1
 40
1
 40
1
 40
1
 10
21.291739
 20
27.405279
 30
0.0
 10
21.405447
 20
27.372805
 30
0.0
 10
21.517933
 20
27.350143
 30
0.0
 10
21.629156
 20
27.337671
 30
0.0
  0
SPLINE
  5
1a6
100
AcDbEntity
  8
Layer_1
 62
5
100
AcDbSpline
 70
8
 71
3
 72
8
 73
4
 74
0
 40
0
 40
0
 40
0
 40
0
 40
1
 40
1
 40
1
 40
1
 10
21.629156
 20
27.337671
 30
0.0
 10
21.939183
 20
27.302894
 30
0.0
 10
22.224600
 20
27.344837
 30
0.0
 10
22.485392
 20
27.463480
 30
0.0
  0
SPLINE
  5
1a7
100
AcDbEntity
  8
Layer_1
 62
5
100
AcDbSpline
 70
8
 71
3
 72
8
 73
4
 74
0
 40
0
 40
0
 40
0
 40
0
 40
1
 40
1
 40
1
 40
1
 10
22.485392
 20
27.463480
 30
0.0
 10
22.619044
 20
27.523026
 30
0.0
 10
22.740156
 20
27.596857
 30
0.0
 10
22.848906
 20
27.684832
 30
0.0
  0
LWPOLYLINE
  5
1a8
100
AcDbEntity
  8
Layer_1
 62
5
100
AcDbPolyline
 90
12
 70
0
 10
22.848906
 20
27.684832
 30
0.0
 10
23.340669
 20
26.833057
 30
0.0
 10
22.745669
 20
25.803116
 30
0.0
 10
22.517044
 20
25.803127
 30
0.0
 10
21.896947
 20
26.161146
 30
0.0
 10
21.756169
 20
25.803133
 30
0.0
 10
21.556350
 20
25.803125
 30
0.0
 10
21.452600
 20
25.982723
 30
0.0
 10
21.640947
 20
26.308944
 30
0.0
 10
21.075614
 20
26.635344
 30
0.0
 10
20.961378
 20
26.833080
 30
0.0
 10
21.291739
 20
27.405279
 30
0.0
  0
LWPOLYLINE
  5
1a9
100
AcDbEntity
  8
Layer_1
 62
5
100
AcDbPolyline
 90
2
 70
0
 10
22.848906
 20
27.684832
 30
0.0
 10
22.848906
 20
27.684832
 30
0.0
  0
SPLINE
  5
1aa
100
AcDbEntity
  8
Layer_1
 62
5
100
AcDbSpline
 70
8
 71
3
 72
8
 73
4
 74
0
 40
0
 40
0
 40
0
 40
0
 40
1
 40
1
 40
1
 40
1
 10
19.571683
 20
29.254714
 30
0.0
 10
19.573419
 20
29.210412
 30
0.0
 10
19.576669
 20
29.165732
 30
0.0
 10
19.581850
 20
29.120591
 30
0.0
  0
SPLINE
  5
1ab
100
AcDbEntity
  8
Layer_1
 62
5
100
AcDbSpline
 70
8
 71
3
 72
8
 73
4
 74
0
 40
0
 40
0
 40
0
 40
0
 40
1
 40
1
 40
1
 40
1
 10
19.581850
 20
29.120591
 30
0.0
 10
19.615336
 20
28.828852
 30
0.0
 10
19.726003
 20
28.559855
 30
0.0
 10
19.913906
 20
28.313565
 30
0.0
  0
SPLINE
  5
1ac
100
AcDbEntity
  8
Layer_1
 62
5
100
AcDbSpline
 70
8
 71
3
 72
8
 73
4
 74
0
 40
0
 40
0
 40
0
 40
0
 40
1
 40
1
 40
1
 40
1
 10
19.913906
 20
28.313565
 30
0.0
 10
20.097058
 20
28.079222
 30
0.0
 10
20.335447
 20
27.874561
 30
0.0
 10
20.628836
 20
27.699437
 30
0.0
  0
LWPOLYLINE
  5
1ad
100
AcDbEntity
  8
Layer_1
 62
5
100
AcDbPolyline
 90
17
 70
0
 10
29.537767
 20
23.699998
 30
0.0
 10
29.293156
 20
22.859984
 30
0.0
 10
30.325128
 20
22.264172
 30
0.0
 10
29.964586
 20
21.640001
 30
0.0
 10
29.727794
 20
21.640005
 30
0.0
 10
29.180031
 20
21.956255
 30
0.0
 10
28.997447
 20
21.640012
 30
0.0
 10
28.775294
 20
21.640025
 30
0.0
 10
28.525753
 20
22.071982
 30
0.0
 10
28.639211
 20
22.268496
 30
0.0
 10
28.298642
 20
22.465123
 30
0.0
 10
28.183503
 20
22.664432
 30
0.0
 10
28.545600
 20
23.291589
 30
0.0
 10
28.680350
 20
23.213791
 30
0.0
 10
28.961017
 20
23.699926
 30
0.0
 10
29.537892
 20
23.699929
 30
0.0
 10
29.537767
 20
23.699998
 30
0.0
  0
LWPOLYLINE
  5
1ae
100
AcDbEntity
  8
Layer_1
 62
5
100
AcDbPolyline
 90
9
 70
0
 10
20.628836
 20
27.699437
 30
0.0
 10
20.337406
 20
27.194664
 30
0.0
 10
19.321003
 20
27.194665
 30
0.0
 10
19.517461
 20
27.534940
 30
0.0
 10
18.668169
 20
28.025282
 30
0.0
 10
18.553128
 20
28.224643
 30
0.0
 10
19.147447
 20
29.254643
 30
0.0
 10
19.571794
 20
29.254650
 30
0.0
 10
19.571683
 20
29.254714
 30
0.0
  0
SPLINE
  5
1af
100
AcDbEntity
  8
Layer_1
 62
5
100
AcDbSpline
 70
8
 71
3
 72
8
 73
4
 74
0
 40
0
 40
0
 40
0
 40
0
 40
1
 40
1
 40
1
 40
1
 10
31.810503
 20
20.248429
 30
0.0
 10
31.766544
 20
20.307427
 30
0.0
 10
31.716294
 20
20.362672
 30
0.0
 10
31.659669
 20
20.414086
 30
0.0
  0
SPLINE
  5
1b0
100
AcDbEntity
  8
Layer_1
 62
5
100
AcDbSpline
 70
8
 71
3
 72
8
 73
4
 74
0
 40
0
 40
0
 40
0
 40
0
 40
1
 40
1
 40
1
 40
1
 10
31.659669
 20
20.414086
 30
0.0
 10
31.490211
 20
20.568584
 30
0.0
 10
31.173669
 20
20.786129
 30
0.0
 10
30.711253
 20
21.066212
 30
0.0
  0
LWPOLYLINE
  5
1b1
100
AcDbEntity
  8
Layer_1
 62
5
100
AcDbPolyline
 90
5
 70
0
 10
31.421975
 20
22.309033
 30
0.0
 10
31.128336
 20
21.800439
 30
0.0
 10
32.733975
 20
20.873427
 30
0.0
 10
32.372947
 20
20.248429
 30
0.0
 10
31.810503
 20
20.248429
 30
0.0
  0
SPLINE
  5
1b2
100
AcDbEntity
  8
Layer_1
 62
5
100
AcDbSpline
 70
8
 71
3
 72
8
 73
4
 74
0
 40
0
 40
0
 40
0
 40
0
 40
1
 40
1
 40
1
 40
1
 10
23.801892
 20
26.193461
 30
0.0
 10
23.803142
 20
26.191230
 30
0.0
 10
23.804475
 20
26.188990
 30
0.0
 10
23.805808
 20
26.186755
 30
0.0
  0
SPLINE
  5
1b3
100
AcDbEntity
  8
Layer_1
 62
5
100
AcDbSpline
 70
8
 71
3
 72
8
 73
4
 74
0
 40
0
 40
0
 40
0
 40
0
 40
1
 40
1
 40
1
 40
1
 10
23.805808
 20
26.186755
 30
0.0
 10
24.001267
 20
25.859180
 30
0.0
 10
24.321308
 20
25.567019
 30
0.0
 10
24.765989
 20
25.310283
 30
0.0
  0
SPLINE
  5
1b4
100
AcDbEntity
  8
Layer_1
 62
5
100
AcDbSpline
 70
8
 71
3
 72
8
 73
4
 74
0
 40
0
 40
0
 40
0
 40
0
 40
1
 40
1
 40
1
 40
1
 10
24.765989
 20
25.310283
 30
0.0
 10
25.015531
 20
25.166211
 30
0.0
 10
25.260419
 20
25.067990
 30
0.0
 10
25.500656
 20
25.015419
 30
0.0
  0
LWPOLYLINE
  5
1b5
100
AcDbEntity
  8
Layer_1
 62
5
100
AcDbPolyline
 90
5
 70
0
 10
30.711253
 20
21.066212
 30
0.0
 10
30.588656
 20
21.278437
 30
0.0
 10
31.183656
 20
22.309023
 30
0.0
 10
31.422017
 20
22.309023
 30
0.0
 10
31.421975
 20
22.309033
 30
0.0
  0
SPLINE
  5
1b6
100
AcDbEntity
  8
Layer_1
 62
5
100
AcDbSpline
 70
8
 71
3
 72
8
 73
4
 74
0
 40
0
 40
0
 40
0
 40
0
 40
1
 40
1
 40
1
 40
1
 10
23.495350
 20
25.231314
 30
0.0
 10
23.496183
 20
25.233164
 30
0.0
 10
23.496961
 20
25.235041
 30
0.0
 10
23.497850
 20
25.236893
 30
0.0
  0
LWPOLYLINE
  5
1b7
100
AcDbEntity
  8
Layer_1
 62
5
100
AcDbPolyline
 90
7
 70
0
 10
25.500656
 20
25.015419
 30
0.0
 10
25.155017
 20
24.417062
 30
0.0
 10
24.917822
 20
24.417069
 30
0.0
 10
24.247739
 20
24.803939
 30
0.0
 10
23.971767
 20
24.417077
 30
0.0
 10
23.965711
 20
24.417084
 30
0.0
 10
23.495350
 20
25.231314
 30
0.0
  0
LWPOLYLINE
  5
1b8
100
AcDbEntity
  8
Layer_1
 62
5
100
AcDbPolyline
 90
5
 70
0
 10
23.497850
 20
25.236893
 30
0.0
 10
23.489308
 20
25.241818
 30
0.0
 10
23.370753
 20
25.447034
 30
0.0
 10
23.801892
 20
26.193461
 30
0.0
 10
23.801892
 20
26.193461
 30
0.0
  0
LWPOLYLINE
  5
1b9
100
AcDbEntity
  8
Layer_1
 62
5
100
AcDbPolyline
 90
10
 70
0
 10
10.704572
 20
32.037297
 30
0.0
 10
10.704572
 20
32.037297
 30
0.0
 10
11.299531
 20
31.007319
 30
0.0
 10
10.704531
 20
29.977379
 30
0.0
 10
9.515225
 20
29.977379
 30
0.0
 10
8.920433
 20
31.007030
 30
0.0
 10
9.317961
 20
31.695580
 30
0.0
 10
9.515253
 20
32.037298
 30
0.0
 10
10.704531
 20
32.037298
 30
0.0
 10
10.704572
 20
32.037297
 30
0.0
  0
SPLINE
  5
1ba
100
AcDbEntity
  8
Layer_1
 62
5
100
AcDbSpline
 70
8
 71
3
 72
8
 73
4
 74
0
 40
0
 40
0
 40
0
 40
0
 40
1
 40
1
 40
1
 40
1
 10
32.705614
 20
18.950462
 30
0.0
 10
32.529989
 20
18.786950
 30
0.0
 10
32.347419
 20
18.541394
 30
0.0
 10
32.157878
 20
18.213107
 30
0.0
  0
SPLINE
  5
1bb
100
AcDbEntity
  8
Layer_1
 62
5
100
AcDbSpline
 70
8
 71
3
 72
8
 73
4
 74
0
 40
0
 40
0
 40
0
 40
0
 40
1
 40
1
 40
1
 40
1
 10
32.157878
 20
18.213107
 30
0.0
 10
31.999378
 20
17.938575
 30
0.0
 10
31.897114
 20
17.689472
 30
0.0
 10
31.850836
 20
17.465722
 30
0.0
  0
LWPOLYLINE
  5
1bc
100
AcDbEntity
  8
Layer_1
 62
5
100
AcDbPolyline
 90
2
 70
0
 10
32.373531
 20
19.526315
 30
0.0
 10
32.705614
 20
18.950462
 30
0.0
  0
SPLINE
  5
1bd
100
AcDbEntity
  8
Layer_1
 62
5
100
AcDbSpline
 70
8
 71
3
 72
8
 73
4
 74
0
 40
0
 40
0
 40
0
 40
0
 40
1
 40
1
 40
1
 40
1
 10
31.071183
 20
17.660543
 30
0.0
 10
31.244503
 20
17.790446
 30
0.0
 10
31.437142
 20
18.038843
 30
0.0
 10
31.649072
 20
18.405911
 30
0.0
  0
SPLINE
  5
1be
100
AcDbEntity
  8
Layer_1
 62
5
100
AcDbSpline
 70
8
 71
3
 72
8
 73
4
 74
0
 40
0
 40
0
 40
0
 40
0
 40
1
 40
1
 40
1
 40
1
 10
31.649072
 20
18.405911
 30
0.0
 10
31.905933
 20
18.850815
 30
0.0
 10
32.035614
 20
19.224248
 30
0.0
 10
32.038336
 20
19.526322
 30
0.0
  0
LWPOLYLINE
  5
1bf
100
AcDbEntity
  8
Layer_1
 62
5
100
AcDbPolyline
 90
3
 70
0
 10
31.850836
 20
17.465722
 30
0.0
 10
31.183600
 20
17.465721
 30
0.0
 10
31.071183
 20
17.660543
 30
0.0
  0
LWPOLYLINE
  5
1c0
100
AcDbEntity
  8
Layer_1
 62
5
100
AcDbPolyline
 90
3
 70
0
 10
32.038336
 20
19.526322
 30
0.0
 10
32.373531
 20
19.526315
 30
0.0
 10
32.373531
 20
19.526315
 30
0.0
  0
LWPOLYLINE
  5
1c1
100
AcDbEntity
  8
Layer_1
 62
5
100
AcDbPolyline
 90
9
 70
0
 10
15.521183
 20
29.254672
 30
0.0
 10
15.521183
 20
29.254672
 30
0.0
 10
15.756253
 20
28.847736
 30
0.0
 10
14.801517
 20
27.194090
 30
0.0
 10
14.331197
 20
27.194098
 30
0.0
 10
14.174642
 20
27.465552
 30
0.0
 10
15.207614
 20
29.254723
 30
0.0
 10
15.521100
 20
29.254719
 30
0.0
 10
15.521183
 20
29.254672
 30
0.0
  0
LWPOLYLINE
  5
1c2
100
AcDbEntity
  8
Layer_1
 62
5
100
AcDbPolyline
 90
8
 70
0
 10
17.929642
 20
27.863608
 30
0.0
 10
17.929642
 20
27.863608
 30
0.0
 10
17.972225
 20
27.789852
 30
0.0
 10
16.825156
 20
25.803064
 30
0.0
 10
16.765642
 20
25.803068
 30
0.0
 10
17.205933
 20
27.863632
 30
0.0
 10
17.929544
 20
27.863632
 30
0.0
 10
17.929642
 20
27.863608
 30
0.0
  0
LWPOLYLINE
  5
1c3
100
AcDbEntity
  8
Layer_1
 62
5
100
AcDbPolyline
 90
11
 70
0
 10
39.597267
 20
15.352018
 30
0.0
 10
39.597267
 20
15.352018
 30
0.0
 10
40.192211
 20
14.321423
 30
0.0
 10
39.597197
 20
13.291461
 30
0.0
 10
38.407892
 20
13.291462
 30
0.0
 10
37.173878
 20
14.648964
 30
0.0
 10
37.647183
 20
15.468751
 30
0.0
 10
38.838822
 20
14.822165
 30
0.0
 10
39.144753
 20
15.352051
 30
0.0
 10
39.597156
 20
15.352051
 30
0.0
 10
39.597267
 20
15.352018
 30
0.0
  0
LWPOLYLINE
  5
1c4
100
AcDbEntity
  8
Layer_1
 62
5
100
AcDbPolyline
 90
6
 70
0
 10
41.765003
 20
13.960359
 30
0.0
 10
40.697267
 20
12.106626
 30
0.0
 10
40.221419
 20
12.930383
 30
0.0
 10
40.816433
 20
13.960346
 30
0.0
 10
41.765003
 20
13.960346
 30
0.0
 10
41.765003
 20
13.960359
 30
0.0
  0
LWPOLYLINE
  5
1c5
100
AcDbEntity
  8
Layer_1
 62
5
100
AcDbPolyline
 90
6
 70
0
 10
13.259544
 20
30.393314
 30
0.0
 10
13.550308
 20
29.889437
 30
0.0
 10
12.797558
 20
28.585637
 30
0.0
 10
12.215892
 20
28.585637
 30
0.0
 10
13.259544
 20
30.393297
 30
0.0
 10
13.259544
 20
30.393314
 30
0.0
  0
LWPOLYLINE
  5
1c6
100
AcDbEntity
  8
Layer_1
 62
5
100
AcDbPolyline
 90
6
 70
0
 10
25.391364
 20
23.284447
 30
0.0
 10
25.621114
 20
22.886243
 30
0.0
 10
24.897906
 20
21.633605
 30
0.0
 10
24.123225
 20
21.633594
 30
0.0
 10
25.391364
 20
23.284447
 30
0.0
 10
25.391364
 20
23.284447
 30
0.0
  0
LWPOLYLINE
  5
1c7
100
AcDbEntity
  8
Layer_1
 62
5
100
AcDbPolyline
 90
6
 70
0
 10
19.714086
 20
26.476941
 30
0.0
 10
18.836767
 20
24.957376
 30
0.0
 10
18.553947
 20
25.446987
 30
0.0
 10
19.148947
 20
26.476930
 30
0.0
 10
19.714086
 20
26.476941
 30
0.0
 10
19.714086
 20
26.476941
 30
0.0
  0
LWPOLYLINE
  5
1c8
100
AcDbEntity
  8
Layer_1
 62
5
100
AcDbPolyline
 90
6
 70
0
 10
36.573169
 20
16.742948
 30
0.0
 10
35.692003
 20
15.216715
 30
0.0
 10
35.405322
 20
15.713002
 30
0.0
 10
36.000322
 20
16.742965
 30
0.0
 10
36.573156
 20
16.742957
 30
0.0
 10
36.573169
 20
16.742948
 30
0.0
  0
SPLINE
  5
1c9
100
AcDbEntity
  8
Layer_1
 62
5
100
AcDbSpline
 70
8
 71
3
 72
8
 73
4
 74
0
 40
0
 40
0
 40
0
 40
0
 40
1
 40
1
 40
1
 40
1
 10
22.519406
 20
23.025319
 30
0.0
 10
22.717114
 20
23.461912
 30
0.0
 10
22.922961
 20
23.923584
 30
0.0
 10
23.137017
 20
24.410479
 30
0.0
  0
LWPOLYLINE
  5
1ca
100
AcDbEntity
  8
Layer_1
 62
5
100
AcDbPolyline
 90
4
 70
0
 10
23.137003
 20
24.410486
 30
0.0
 10
23.341558
 20
24.055950
 30
0.0
 10
22.747253
 20
23.025325
 30
0.0
 10
22.519406
 20
23.025319
 30
0.0
  0
LWPOLYLINE
  5
1cb
100
AcDbEntity
  8
Layer_1
 62
5
100
AcDbPolyline
 90
2
 70
0
 10
23.137017
 20
24.410479
 30
0.0
 10
23.137003
 20
24.410486
 30
0.0
  0
SPLINE
  5
1cc
100
AcDbEntity
  8
Layer_1
 62
5
100
AcDbSpline
 70
8
 71
3
 72
8
 73
4
 74
0
 40
0
 40
0
 40
0
 40
0
 40
1
 40
1
 40
1
 40
1
 10
34.232836
 20
17.885250
 30
0.0
 10
34.316961
 20
17.836680
 30
0.0
 10
34.361100
 20
17.774350
 30
0.0
 10
34.365239
 20
17.698248
 30
0.0
  0
SPLINE
  5
1cd
100
AcDbEntity
  8
Layer_1
 62
5
100
AcDbSpline
 70
8
 71
3
 72
8
 73
4
 74
0
 40
0
 40
0
 40
0
 40
0
 40
1
 40
1
 40
1
 40
1
 10
34.365239
 20
17.698248
 30
0.0
 10
34.369378
 20
17.622146
 30
0.0
 10
34.313169
 20
17.483141
 30
0.0
 10
34.196600
 20
17.281232
 30
0.0
  0
LWPOLYLINE
  5
1ce
100
AcDbEntity
  8
Layer_1
 62
5
100
AcDbPolyline
 90
2
 70
0
 10
34.232836
 20
17.885250
 30
0.0
 10
34.232836
 20
17.885250
 30
0.0
  0
SPLINE
  5
1cf
100
AcDbEntity
  8
Layer_1
 62
5
100
AcDbSpline
 70
8
 71
3
 72
8
 73
4
 74
0
 40
0
 40
0
 40
0
 40
0
 40
1
 40
1
 40
1
 40
1
 10
33.975100
 20
16.074089
 30
0.0
 10
33.905447
 20
16.209677
 30
0.0
 10
33.828322
 20
16.353044
 30
0.0
 10
33.743406
 20
16.504487
 30
0.0
  0
SPLINE
  5
1d0
100
AcDbEntity
  8
Layer_1
 62
5
100
AcDbSpline
 70
8
 71
3
 72
8
 73
4
 74
0
 40
0
 40
0
 40
0
 40
0
 40
1
 40
1
 40
1
 40
1
 10
33.743406
 20
16.504487
 30
0.0
 10
33.588350
 20
16.779891
 30
0.0
 10
33.514017
 20
16.981441
 30
0.0
 10
33.520447
 20
17.109132
 30
0.0
  0
SPLINE
  5
1d1
100
AcDbEntity
  8
Layer_1
 62
5
100
AcDbSpline
 70
8
 71
3
 72
8
 73
4
 74
0
 40
0
 40
0
 40
0
 40
0
 40
1
 40
1
 40
1
 40
1
 10
33.520447
 20
17.109132
 30
0.0
 10
33.524475
 20
17.238212
 30
0.0
 10
33.582683
 20
17.400109
 30
0.0
 10
33.695100
 20
17.594804
 30
0.0
  0
SPLINE
  5
1d2
100
AcDbEntity
  8
Layer_1
 62
5
100
AcDbSpline
 70
8
 71
3
 72
8
 73
4
 74
0
 40
0
 40
0
 40
0
 40
0
 40
1
 40
1
 40
1
 40
1
 10
33.695100
 20
17.594804
 30
0.0
 10
33.782517
 20
17.746234
 30
0.0
 10
33.870586
 20
17.846022
 30
0.0
 10
33.959267
 20
17.894171
 30
0.0
  0
SPLINE
  5
1d3
100
AcDbEntity
  8
Layer_1
 62
5
100
AcDbSpline
 70
8
 71
3
 72
8
 73
4
 74
0
 40
0
 40
0
 40
0
 40
0
 40
1
 40
1
 40
1
 40
1
 10
33.959267
 20
17.894171
 30
0.0
 10
34.050378
 20
17.940923
 30
0.0
 10
34.141572
 20
17.937947
 30
0.0
 10
34.232906
 20
17.885211
 30
0.0
  0
LWPOLYLINE
  5
1d4
100
AcDbEntity
  8
Layer_1
 62
5
100
AcDbPolyline
 90
5
 70
0
 10
34.196600
 20
17.281232
 30
0.0
 10
33.946794
 20
16.848573
 30
0.0
 10
34.907975
 20
16.293636
 30
0.0
 10
34.781225
 20
16.074090
 30
0.0
 10
33.975100
 20
16.074089
 30
0.0
  0
LWPOLYLINE
  5
1d5
100
AcDbEntity
  8
Layer_1
 62
5
100
AcDbPolyline
 90
2
 70
0
 10
34.232906
 20
17.885211
 30
0.0
 10
34.232836
 20
17.885250
 30
0.0
  0
SPLINE
  5
1d6
100
AcDbEntity
  8
Layer_1
 62
5
100
AcDbSpline
 70
8
 71
3
 72
8
 73
4
 74
0
 40
0
 40
0
 40
0
 40
0
 40
1
 40
1
 40
1
 40
1
 10
30.121350
 20
20.081154
 30
0.0
 10
30.296808
 20
19.979855
 30
0.0
 10
30.400336
 20
19.881626
 30
0.0
 10
30.431933
 20
19.786468
 30
0.0
  0
SPLINE
  5
1d7
100
AcDbEntity
  8
Layer_1
 62
5
100
AcDbSpline
 70
8
 71
3
 72
8
 73
4
 74
0
 40
0
 40
0
 40
0
 40
0
 40
1
 40
1
 40
1
 40
1
 10
30.431933
 20
19.786468
 30
0.0
 10
30.465933
 20
19.689921
 30
0.0
 10
30.429489
 20
19.549111
 30
0.0
 10
30.322628
 20
19.364030
 30
0.0
  0
LWPOLYLINE
  5
1d8
100
AcDbEntity
  8
Layer_1
 62
5
100
AcDbPolyline
 90
9
 70
0
 10
28.111281
 20
21.354064
 30
0.0
 10
28.155086
 20
21.278165
 30
0.0
 10
27.557586
 20
20.242646
 30
0.0
 10
26.894031
 20
20.242644
 30
0.0
 10
26.312544
 20
20.578371
 30
0.0
 10
26.951600
 20
21.685254
 30
0.0
 10
27.964753
 20
21.100305
 30
0.0
 10
28.111267
 20
21.354071
 30
0.0
 10
28.111281
 20
21.354064
 30
0.0
  0
SPLINE
  5
1d9
100
AcDbEntity
  8
Layer_1
 62
5
100
AcDbSpline
 70
8
 71
3
 72
8
 73
4
 74
0
 40
0
 40
0
 40
0
 40
0
 40
1
 40
1
 40
1
 40
1
 10
30.137364
 20
19.043139
 30
0.0
 10
29.988878
 20
18.785947
 30
0.0
 10
29.865906
 20
18.653430
 30
0.0
 10
29.768433
 20
18.645604
 30
0.0
  0
SPLINE
  5
1da
100
AcDbEntity
  8
Layer_1
 62
5
100
AcDbSpline
 70
8
 71
3
 72
8
 73
4
 74
0
 40
0
 40
0
 40
0
 40
0
 40
1
 40
1
 40
1
 40
1
 10
29.768433
 20
18.645604
 30
0.0
 10
29.674781
 20
18.638787
 30
0.0
 10
29.542614
 20
18.684641
 30
0.0
 10
29.371961
 20
18.783171
 30
0.0
  0
LWPOLYLINE
  5
1db
100
AcDbEntity
  8
Layer_1
 62
5
100
AcDbPolyline
 90
2
 70
0
 10
30.322628
 20
19.364030
 30
0.0
 10
30.137364
 20
19.043139
 30
0.0
  0
LWPOLYLINE
  5
1dc
100
AcDbEntity
  8
Layer_1
 62
5
100
AcDbPolyline
 90
3
 70
0
 10
29.371961
 20
18.783171
 30
0.0
 10
30.121350
 20
20.081154
 30
0.0
 10
30.121350
 20
20.081154
 30
0.0
  0
LWPOLYLINE
  5
1dd
100
AcDbEntity
  8
Layer_1
 62
5
100
AcDbPolyline
 90
6
 70
0
 10
21.296933
 20
24.635057
 30
0.0
 10
21.025933
 20
23.945796
 30
0.0
 10
20.630378
 20
24.413218
 30
0.0
 10
20.955850
 20
24.989175
 30
0.0
 10
21.296919
 20
24.635065
 30
0.0
 10
21.296933
 20
24.635057
 30
0.0
  0
LWPOLYLINE
  5
1de
100
AcDbEntity
  8
Layer_1
 62
5
100
AcDbPolyline
 90
8
 70
0
 10
8.300586
 20
30.644989
 30
0.0
 10
8.300586
 20
30.644989
 30
0.0
 10
8.895378
 20
29.615339
 30
0.0
 10
8.300364
 20
28.584419
 30
0.0
 10
7.112239
 20
28.584419
 30
0.0
 10
8.299114
 20
30.645002
 30
0.0
 10
8.300544
 20
30.645002
 30
0.0
 10
8.300586
 20
30.644989
 30
0.0
  0
LWPOLYLINE
  5
1df
100
AcDbEntity
  8
Layer_1
 62
5
100
AcDbPolyline
 90
9
 70
0
 10
20.338128
 20
23.694266
 30
0.0
 10
20.338128
 20
23.694266
 30
0.0
 10
20.688433
 20
23.087821
 30
0.0
 10
20.116961
 20
21.634357
 30
0.0
 10
19.148156
 20
21.634357
 30
0.0
 10
19.045072
 20
21.813011
 30
0.0
 10
20.131267
 20
23.694357
 30
0.0
 10
20.338003
 20
23.694354
 30
0.0
 10
20.338128
 20
23.694266
 30
0.0
  0
SPLINE
  5
1e0
100
AcDbEntity
  8
Layer_1
 62
5
100
AcDbSpline
 70
8
 71
3
 72
8
 73
4
 74
0
 40
0
 40
0
 40
0
 40
0
 40
1
 40
1
 40
1
 40
1
 10
24.949169
 20
18.269668
 30
0.0
 10
25.005364
 20
18.402850
 30
0.0
 10
25.673919
 20
19.524975
 30
0.0
 10
25.673919
 20
19.524975
 30
0.0
  0
LWPOLYLINE
  5
1e1
100
AcDbEntity
  8
Layer_1
 62
5
100
AcDbPolyline
 90
5
 70
0
 10
27.563211
 20
19.520315
 30
0.0
 10
27.668419
 20
19.338093
 30
0.0
 10
26.583933
 20
17.459719
 30
0.0
 10
26.373919
 20
17.459711
 30
0.0
 10
24.949169
 20
18.269668
 30
0.0
  0
LWPOLYLINE
  5
1e2
100
AcDbEntity
  8
Layer_1
 62
5
100
AcDbPolyline
 90
4
 70
0
 10
25.673919
 20
19.524975
 30
0.0
 10
26.619628
 20
18.920418
 30
0.0
 10
26.965975
 20
19.520319
 30
0.0
 10
27.563211
 20
19.520315
 30
0.0
  0
SPLINE
  5
1e3
100
AcDbEntity
  8
Layer_1
 62
5
100
AcDbSpline
 70
8
 71
3
 72
8
 73
4
 74
0
 40
0
 40
0
 40
0
 40
0
 40
1
 40
1
 40
1
 40
1
 10
33.939600
 20
13.291332
 30
0.0
 10
33.957739
 20
13.321494
 30
0.0
 10
33.975989
 20
13.352161
 30
0.0
 10
33.994308
 20
13.383912
 30
0.0
  0
SPLINE
  5
1e4
100
AcDbEntity
  8
Layer_1
 62
5
100
AcDbSpline
 70
8
 71
3
 72
8
 73
4
 74
0
 40
0
 40
0
 40
0
 40
0
 40
1
 40
1
 40
1
 40
1
 10
33.994308
 20
13.383912
 30
0.0
 10
34.324600
 20
13.955982
 30
0.0
 10
34.476267
 20
14.421262
 30
0.0
 10
34.449281
 20
14.779758
 30
0.0
  0
SPLINE
  5
1e5
100
AcDbEntity
  8
Layer_1
 62
5
100
AcDbSpline
 70
8
 71
3
 72
8
 73
4
 74
0
 40
0
 40
0
 40
0
 40
0
 40
1
 40
1
 40
1
 40
1
 10
34.449281
 20
14.779758
 30
0.0
 10
34.437850
 20
14.931594
 30
0.0
 10
34.388906
 20
15.122411
 30
0.0
 10
34.302725
 20
15.351896
 30
0.0
  0
LWPOLYLINE
  5
1e6
100
AcDbEntity
  8
Layer_1
 62
5
100
AcDbPolyline
 90
5
 70
0
 10
34.781156
 20
15.351846
 30
0.0
 10
34.781156
 20
15.351846
 30
0.0
 10
35.275503
 20
14.495527
 30
0.0
 10
34.580253
 20
13.291333
 30
0.0
 10
33.939600
 20
13.291332
 30
0.0
  0
LWPOLYLINE
  5
1e7
100
AcDbEntity
  8
Layer_1
 62
5
100
AcDbPolyline
 90
3
 70
0
 10
34.302725
 20
15.351896
 30
0.0
 10
34.781031
 20
15.351896
 30
0.0
 10
34.781156
 20
15.351846
 30
0.0
  0
LWPOLYLINE
  5
1e8
100
AcDbEntity
  8
Layer_1
 62
5
100
AcDbPolyline
 90
9
 70
0
 10
39.597169
 20
12.569254
 30
0.0
 10
39.597169
 20
12.569254
 30
0.0
 10
40.192114
 20
11.538629
 30
0.0
 10
39.597114
 20
10.508689
 30
0.0
 10
38.407142
 20
10.508675
 30
0.0
 10
37.812808
 20
11.538662
 30
0.0
 10
38.407114
 20
12.569286
 30
0.0
 10
39.597044
 20
12.569286
 30
0.0
 10
39.597169
 20
12.569254
 30
0.0
  0
SPLINE
  5
1e9
100
AcDbEntity
  8
Layer_1
 62
5
100
AcDbSpline
 70
8
 71
3
 72
8
 73
4
 74
0
 40
0
 40
0
 40
0
 40
0
 40
1
 40
1
 40
1
 40
1
 10
10.074197
 20
28.381586
 30
0.0
 10
9.793058
 20
27.894626
 30
0.0
 10
9.590308
 20
27.528216
 30
0.0
 10
9.464933
 20
27.280714
 30
0.0
  0
LWPOLYLINE
  5
1ea
100
AcDbEntity
  8
Layer_1
 62
5
100
AcDbPolyline
 90
2
 70
0
 10
10.578225
 20
29.254591
 30
0.0
 10
10.074197
 20
28.381586
 30
0.0
  0
LWPOLYLINE
  5
1eb
100
AcDbEntity
  8
Layer_1
 62
5
100
AcDbPolyline
 90
5
 70
0
 10
9.464933
 20
27.280714
 30
0.0
 10
8.920794
 20
28.223694
 30
0.0
 10
9.515933
 20
29.254515
 30
0.0
 10
10.578350
 20
29.254521
 30
0.0
 10
10.578225
 20
29.254591
 30
0.0
  0
SPLINE
  5
1ec
100
AcDbEntity
  8
Layer_1
 62
5
100
AcDbSpline
 70
8
 71
3
 72
8
 73
4
 74
0
 40
0
 40
0
 40
0
 40
0
 40
1
 40
1
 40
1
 40
1
 10
22.478322
 20
22.303144
 30
0.0
 10
22.179169
 20
21.870641
 30
0.0
 10
21.866919
 20
21.413925
 30
0.0
 10
21.540072
 20
20.930111
 30
0.0
  0
SPLINE
  5
1ed
100
AcDbEntity
  8
Layer_1
 62
5
100
AcDbSpline
 70
8
 71
3
 72
8
 73
4
 74
0
 40
0
 40
0
 40
0
 40
0
 40
1
 40
1
 40
1
 40
1
 10
21.540072
 20
20.930111
 30
0.0
 10
21.744406
 20
21.350684
 30
0.0
 10
21.960919
 20
21.808691
 30
0.0
 10
22.189294
 20
22.303161
 30
0.0
  0
LWPOLYLINE
  5
1ee
100
AcDbEntity
  8
Layer_1
 62
5
100
AcDbPolyline
 90
6
 70
0
 10
18.017225
 20
24.936732
 30
0.0
 10
18.420933
 20
24.237129
 30
0.0
 10
17.721225
 20
23.025208
 30
0.0
 10
16.913600
 20
23.025200
 30
0.0
 10
18.017225
 20
24.936732
 30
0.0
 10
18.017225
 20
24.936732
 30
0.0
  0
SPLINE
  5
1ef
100
AcDbEntity
  8
Layer_1
 62
5
100
AcDbSpline
 70
8
 71
3
 72
8
 73
4
 74
0
 40
0
 40
0
 40
0
 40
0
 40
1
 40
1
 40
1
 40
1
 10
31.868794
 20
16.743486
 30
0.0
 10
31.869767
 20
16.740457
 30
0.0
 10
31.870531
 20
16.737365
 30
0.0
 10
31.871475
 20
16.734352
 30
0.0
  0
SPLINE
  5
1f0
100
AcDbEntity
  8
Layer_1
 62
5
100
AcDbSpline
 70
8
 71
3
 72
8
 73
4
 74
0
 40
0
 40
0
 40
0
 40
0
 40
1
 40
1
 40
1
 40
1
 10
31.871475
 20
16.734352
 30
0.0
 10
31.928822
 20
16.550611
 30
0.0
 10
32.074003
 20
16.224819
 30
0.0
 10
32.307058
 20
15.756961
 30
0.0
  0
SPLINE
  5
1f1
100
AcDbEntity
  8
Layer_1
 62
5
100
AcDbSpline
 70
8
 71
3
 72
8
 73
4
 74
0
 40
0
 40
0
 40
0
 40
0
 40
1
 40
1
 40
1
 40
1
 10
32.307058
 20
15.756961
 30
0.0
 10
32.443058
 20
15.486936
 30
0.0
 10
32.545294
 20
15.268475
 30
0.0
 10
32.614211
 20
15.100819
 30
0.0
  0
LWPOLYLINE
  5
1f2
100
AcDbEntity
  8
Layer_1
 62
5
100
AcDbPolyline
 90
3
 70
0
 10
22.189294
 20
22.303161
 30
0.0
 10
22.478322
 20
22.303161
 30
0.0
 10
22.478322
 20
22.303144
 30
0.0
  0
SPLINE
  5
1f3
100
AcDbEntity
  8
Layer_1
 62
5
100
AcDbSpline
 70
8
 71
3
 72
8
 73
4
 74
0
 40
0
 40
0
 40
0
 40
0
 40
1
 40
1
 40
1
 40
1
 10
30.697808
 20
15.575580
 30
0.0
 10
30.692739
 20
15.566801
 30
0.0
 10
30.687836
 20
15.558315
 30
0.0
 10
30.682947
 20
15.549539
 30
0.0
  0
LWPOLYLINE
  5
1f4
100
AcDbEntity
  8
Layer_1
 62
5
100
AcDbPolyline
 90
6
 70
0
 10
32.614211
 20
15.100819
 30
0.0
 10
32.372906
 20
14.682869
 30
0.0
 10
32.062058
 20
14.682883
 30
0.0
 10
32.328197
 20
15.143843
 30
0.0
 10
30.918461
 20
15.957759
 30
0.0
 10
30.697808
 20
15.575580
 30
0.0
  0
LWPOLYLINE
  5
1f5
100
AcDbEntity
  8
Layer_1
 62
5
100
AcDbPolyline
 90
5
 70
0
 10
30.682947
 20
15.549539
 30
0.0
 10
30.244058
 20
16.028907
 30
0.0
 10
30.682267
 20
16.813291
 30
0.0
 10
31.868878
 20
16.743439
 30
0.0
 10
31.868794
 20
16.743486
 30
0.0
  0
LWPOLYLINE
  5
1f6
100
AcDbEntity
  8
Layer_1
 62
5
100
AcDbPolyline
 90
6
 70
0
 10
24.481031
 20
20.911557
 30
0.0
 10
23.628406
 20
19.434766
 30
0.0
 10
23.370447
 20
19.881604
 30
0.0
 10
23.965461
 20
20.911566
 30
0.0
 10
24.481017
 20
20.911565
 30
0.0
 10
24.481031
 20
20.911557
 30
0.0
  0
LWPOLYLINE
  5
1f7
100
AcDbEntity
  8
Layer_1
 62
5
100
AcDbPolyline
 90
6
 70
0
 10
12.380614
 20
27.863461
 30
0.0
 10
11.557114
 20
26.437130
 30
0.0
 10
11.221919
 20
26.863348
 30
0.0
 10
11.816794
 20
27.894014
 30
0.0
 10
11.816794
 20
27.893875
 30
0.0
 10
12.380614
 20
27.863461
 30
0.0
  0
LWPOLYLINE
  5
1f8
100
AcDbEntity
  8
Layer_1
 62
5
100
AcDbPolyline
 90
9
 70
0
 10
37.722308
 20
13.037973
 30
0.0
 10
37.784461
 20
12.930244
 30
0.0
 10
37.190156
 20
11.899621
 30
0.0
 10
36.000267
 20
11.899621
 30
0.0
 10
35.720725
 20
12.155511
 30
0.0
 10
36.365794
 20
13.272794
 30
0.0
 10
37.493794
 20
12.642246
 30
0.0
 10
37.722294
 20
13.038012
 30
0.0
 10
37.722308
 20
13.037973
 30
0.0
  0
LWPOLYLINE
  5
1f9
100
AcDbEntity
  8
Layer_1
 62
5
100
AcDbPolyline
 90
5
 70
0
 10
14.387489
 20
26.476790
 30
0.0
 10
13.765419
 20
25.399332
 30
0.0
 10
13.422142
 20
25.939739
 30
0.0
 10
13.784058
 20
26.565972
 30
0.0
 10
14.387489
 20
26.476790
 30
0.0
  0
SPLINE
  5
1fa
100
AcDbEntity
  8
Layer_1
 62
5
100
AcDbSpline
 70
8
 71
3
 72
8
 73
4
 74
0
 40
0
 40
0
 40
0
 40
0
 40
1
 40
1
 40
1
 40
1
 10
28.847392
 20
17.874586
 30
0.0
 10
29.056489
 20
17.753858
 30
0.0
 10
29.163572
 20
17.642358
 30
0.0
 10
29.168642
 20
17.540086
 30
0.0
  0
SPLINE
  5
1fb
100
AcDbEntity
  8
Layer_1
 62
5
100
AcDbSpline
 70
8
 71
3
 72
8
 73
4
 74
0
 40
0
 40
0
 40
0
 40
0
 40
1
 40
1
 40
1
 40
1
 10
29.168642
 20
17.540086
 30
0.0
 10
29.176086
 20
17.436430
 30
0.0
 10
29.089614
 20
17.228377
 30
0.0
 10
28.909197
 20
16.915901
 30
0.0
  0
LWPOLYLINE
  5
1fc
100
AcDbEntity
  8
Layer_1
 62
5
100
AcDbPolyline
 90
5
 70
0
 10
15.559225
 20
25.575377
 30
0.0
 10
15.282614
 20
24.416869
 30
0.0
 10
14.890364
 20
24.416868
 30
0.0
 10
15.559225
 20
25.575377
 30
0.0
 10
15.559225
 20
25.575377
 30
0.0
  0
LWPOLYLINE
  5
1fd
100
AcDbEntity
  8
Layer_1
 62
5
100
AcDbPolyline
 90
5
 70
0
 10
28.909197
 20
16.915901
 30
0.0
 10
28.599183
 20
16.378923
 30
0.0
 10
28.291531
 20
16.911826
 30
0.0
 10
28.847392
 20
17.874586
 30
0.0
 10
28.847392
 20
17.874586
 30
0.0
  0
SPLINE
  5
1fe
100
AcDbEntity
  8
Layer_1
 62
5
100
AcDbSpline
 70
8
 71
3
 72
8
 73
4
 74
0
 40
0
 40
0
 40
0
 40
0
 40
1
 40
1
 40
1
 40
1
 10
11.586406
 20
24.499889
 30
0.0
 10
11.777503
 20
24.505455
 30
0.0
 10
11.959128
 20
24.544555
 30
0.0
 10
12.131253
 20
24.617255
 30
0.0
  0
SPLINE
  5
1ff
100
AcDbEntity
  8
Layer_1
 62
5
100
AcDbSpline
 70
8
 71
3
 72
8
 73
4
 74
0
 40
0
 40
0
 40
0
 40
0
 40
1
 40
1
 40
1
 40
1
 10
12.131253
 20
24.617255
 30
0.0
 10
12.382697
 20
24.725268
 30
0.0
 10
12.574183
 20
24.859875
 30
0.0
 10
12.705711
 20
25.021091
 30
0.0
  0
SPLINE
  5
200
100
AcDbEntity
  8
Layer_1
 62
5
100
AcDbSpline
 70
8
 71
3
 72
8
 73
4
 74
0
 40
0
 40
0
 40
0
 40
0
 40
1
 40
1
 40
1
 40
1
 10
12.705711
 20
25.021091
 30
0.0
 10
12.721572
 20
25.040608
 30
0.0
 10
12.738364
 20
25.062239
 30
0.0
 10
12.755961
 20
25.085716
 30
0.0
  0
LWPOLYLINE
  5
201
100
AcDbEntity
  8
Layer_1
 62
5
100
AcDbPolyline
 90
8
 70
0
 10
13.114392
 20
25.085700
 30
0.0
 10
13.349308
 20
24.678598
 30
0.0
 10
12.758017
 20
23.654465
 30
0.0
 10
13.297669
 20
23.342898
 30
0.0
 10
13.114378
 20
23.025112
 30
0.0
 10
11.924461
 20
23.025112
 30
0.0
 10
11.330142
 20
24.055707
 30
0.0
 10
11.586406
 20
24.499889
 30
0.0
  0
LWPOLYLINE
  5
202
100
AcDbEntity
  8
Layer_1
 62
5
100
AcDbPolyline
 90
3
 70
0
 10
12.755961
 20
25.085716
 30
0.0
 10
13.114364
 20
25.085716
 30
0.0
 10
13.114392
 20
25.085700
 30
0.0
  0
LWPOLYLINE
  5
203
100
AcDbEntity
  8
Layer_1
 62
5
100
AcDbPolyline
 90
9
 70
0
 10
8.300433
 20
27.862176
 30
0.0
 10
8.300433
 20
27.862176
 30
0.0
 10
8.894225
 20
26.833641
 30
0.0
 10
8.298364
 20
25.801591
 30
0.0
 10
7.111086
 20
25.801591
 30
0.0
 10
6.516128
 20
26.831569
 30
0.0
 10
7.111142
 20
27.862155
 30
0.0
 10
8.300392
 20
27.862155
 30
0.0
 10
8.300433
 20
27.862176
 30
0.0
  0
LWPOLYLINE
  5
204
100
AcDbEntity
  8
Layer_1
 62
5
100
AcDbPolyline
 90
12
 70
0
 10
22.747211
 20
19.520283
 30
0.0
 10
23.212211
 20
18.713933
 30
0.0
 10
22.737975
 20
17.892534
 30
0.0
 10
22.932225
 20
17.780387
 30
0.0
 10
22.747114
 20
17.459771
 30
0.0
 10
21.557156
 20
17.459780
 30
0.0
 10
20.962169
 20
18.489744
 30
0.0
 10
21.147517
 20
18.810784
 30
0.0
 10
21.706739
 20
18.487923
 30
0.0
 10
22.499794
 20
19.520327
 30
0.0
 10
22.747100
 20
19.520327
 30
0.0
 10
22.747211
 20
19.520283
 30
0.0
  0
SPLINE
  5
205
100
AcDbEntity
  8
Layer_1
 62
5
100
AcDbSpline
 70
8
 71
3
 72
8
 73
4
 74
0
 40
0
 40
0
 40
0
 40
0
 40
1
 40
1
 40
1
 40
1
 10
30.312225
 20
14.749472
 30
0.0
 10
30.282100
 20
14.655605
 30
0.0
 10
30.259864
 20
14.567476
 30
0.0
 10
30.246142
 20
14.485501
 30
0.0
  0
SPLINE
  5
206
100
AcDbEntity
  8
Layer_1
 62
5
100
AcDbSpline
 70
8
 71
3
 72
8
 73
4
 74
0
 40
0
 40
0
 40
0
 40
0
 40
1
 40
1
 40
1
 40
1
 10
30.246142
 20
14.485501
 30
0.0
 10
30.214086
 20
14.294090
 30
0.0
 10
30.235864
 20
14.096173
 30
0.0
 10
30.311336
 20
13.891779
 30
0.0
  0
LWPOLYLINE
  5
207
100
AcDbEntity
  8
Layer_1
 62
5
100
AcDbPolyline
 90
2
 70
0
 10
29.964489
 20
15.351830
 30
0.0
 10
30.312225
 20
14.749472
 30
0.0
  0
LWPOLYLINE
  5
208
100
AcDbEntity
  8
Layer_1
 62
5
100
AcDbPolyline
 90
10
 70
0
 10
30.311336
 20
13.891779
 30
0.0
 10
29.964447
 20
13.291258
 30
0.0
 10
28.775128
 20
13.291266
 30
0.0
 10
28.428017
 20
13.892152
 30
0.0
 10
28.183156
 20
14.316407
 30
0.0
 10
28.370364
 20
14.640675
 30
0.0
 10
29.199128
 20
14.162186
 30
0.0
 10
29.885947
 20
15.351775
 30
0.0
 10
29.964614
 20
15.351775
 30
0.0
 10
29.964489
 20
15.351830
 30
0.0
  0
SPLINE
  5
209
100
AcDbEntity
  8
Layer_1
 62
5
100
AcDbSpline
 70
8
 71
3
 72
8
 73
4
 74
0
 40
0
 40
0
 40
0
 40
0
 40
1
 40
1
 40
1
 40
1
 10
32.384697
 20
13.940757
 30
0.0
 10
32.319017
 20
13.850768
 30
0.0
 10
32.251767
 20
13.787690
 30
0.0
 10
32.182989
 20
13.751837
 30
0.0
  0
SPLINE
  5
20a
100
AcDbEntity
  8
Layer_1
 62
5
100
AcDbSpline
 70
8
 71
3
 72
8
 73
4
 74
0
 40
0
 40
0
 40
0
 40
0
 40
1
 40
1
 40
1
 40
1
 10
32.182989
 20
13.751837
 30
0.0
 10
32.089114
 20
13.700276
 30
0.0
 10
31.991711
 20
13.703648
 30
0.0
 10
31.890767
 20
13.761929
 30
0.0
  0
SPLINE
  5
20b
100
AcDbEntity
  8
Layer_1
 62
5
100
AcDbSpline
 70
8
 71
3
 72
8
 73
4
 74
0
 40
0
 40
0
 40
0
 40
0
 40
1
 40
1
 40
1
 40
1
 10
31.890767
 20
13.761929
 30
0.0
 10
31.797058
 20
13.816030
 30
0.0
 10
31.744878
 20
13.882112
 30
0.0
 10
31.734017
 20
13.960159
 30
0.0
  0
LWPOLYLINE
  5
20c
100
AcDbEntity
  8
Layer_1
 62
5
100
AcDbPolyline
 90
2
 70
0
 10
32.373489
 20
13.960169
 30
0.0
 10
32.384697
 20
13.940757
 30
0.0
  0
LWPOLYLINE
  5
20d
100
AcDbEntity
  8
Layer_1
 62
5
100
AcDbPolyline
 90
3
 70
0
 10
31.734017
 20
13.960159
 30
0.0
 10
32.373489
 20
13.960169
 30
0.0
 10
32.373489
 20
13.960169
 30
0.0
  0
LWPOLYLINE
  5
20e
100
AcDbEntity
  8
Layer_1
 62
5
100
AcDbPolyline
 90
10
 70
0
 10
37.189489
 20
11.177555
 30
0.0
 10
37.784406
 20
10.147601
 30
0.0
 10
37.189392
 20
9.117015
 30
0.0
 10
36.000128
 20
9.117015
 30
0.0
 10
35.405142
 20
10.147633
 30
0.0
 10
35.592003
 20
10.471286
 30
0.0
 10
36.244044
 20
10.094825
 30
0.0
 10
36.869225
 20
11.177655
 30
0.0
 10
37.189378
 20
11.177655
 30
0.0
 10
37.189489
 20
11.177555
 30
0.0
  0
LWPOLYLINE
  5
20f
100
AcDbEntity
  8
Layer_1
 62
5
100
AcDbPolyline
 90
6
 70
0
 10
39.360517
 20
9.785841
 30
0.0
 10
38.290781
 20
7.928647
 30
0.0
 10
37.812892
 20
8.755882
 30
0.0
 10
38.407919
 20
9.785866
 30
0.0
 10
39.360503
 20
9.785866
 30
0.0
 10
39.360517
 20
9.785841
 30
0.0
  0
SPLINE
  5
210
100
AcDbEntity
  8
Layer_1
 62
5
100
AcDbSpline
 70
8
 71
3
 72
8
 73
4
 74
0
 40
0
 40
0
 40
0
 40
0
 40
1
 40
1
 40
1
 40
1
 10
11.079475
 20
25.829276
 30
0.0
 10
11.032197
 20
25.822025
 30
0.0
 10
10.980683
 20
25.834373
 30
0.0
 10
10.924878
 20
25.866590
 30
0.0
  0
SPLINE
  5
211
100
AcDbEntity
  8
Layer_1
 62
5
100
AcDbSpline
 70
8
 71
3
 72
8
 73
4
 74
0
 40
0
 40
0
 40
0
 40
0
 40
1
 40
1
 40
1
 40
1
 10
10.924878
 20
25.866590
 30
0.0
 10
10.840753
 20
25.915159
 30
0.0
 10
10.804364
 20
25.982629
 30
0.0
 10
10.815767
 20
26.068987
 30
0.0
  0
SPLINE
  5
212
100
AcDbEntity
  8
Layer_1
 62
5
100
AcDbSpline
 70
8
 71
3
 72
8
 73
4
 74
0
 40
0
 40
0
 40
0
 40
0
 40
1
 40
1
 40
1
 40
1
 10
10.815767
 20
26.068987
 30
0.0
 10
10.821558
 20
26.102302
 30
0.0
 10
10.837114
 20
26.147971
 30
0.0
 10
10.862086
 20
26.205622
 30
0.0
  0
LWPOLYLINE
  5
213
100
AcDbEntity
  8
Layer_1
 62
5
100
AcDbPolyline
 90
2
 70
0
 10
10.862086
 20
26.205622
 30
0.0
 10
11.079475
 20
25.829276
 30
0.0
  0
LWPOLYLINE
  5
214
100
AcDbEntity
  8
Layer_1
 62
5
100
AcDbPolyline
 90
2
 70
0
 10
10.862086
 20
26.205622
 30
0.0
 10
10.862086
 20
26.205622
 30
0.0
  0
LWPOLYLINE
  5
215
100
AcDbEntity
  8
Layer_1
 62
5
100
AcDbPolyline
 90
11
 70
0
 10
15.110031
 20
23.694115
 30
0.0
 10
14.816739
 20
22.465861
 30
0.0
 10
15.706114
 20
21.952380
 30
0.0
 10
15.522017
 20
21.633505
 30
0.0
 10
14.332058
 20
21.633512
 30
0.0
 10
13.737725
 20
22.664115
 30
0.0
 10
13.921642
 20
22.982652
 30
0.0
 10
14.027211
 20
22.921696
 30
0.0
 10
14.473156
 20
23.694079
 30
0.0
 10
15.110114
 20
23.694079
 30
0.0
 10
15.110031
 20
23.694115
 30
0.0
  0
LWPOLYLINE
  5
216
100
AcDbEntity
  8
Layer_1
 62
5
100
AcDbPolyline
 90
10
 70
0
 10
19.832822
 20
20.911364
 30
0.0
 10
19.402947
 20
19.818018
 30
0.0
 10
20.523211
 20
19.171227
 30
0.0
 10
20.338183
 20
18.850740
 30
0.0
 10
19.148878
 20
18.850739
 30
0.0
 10
18.553919
 20
19.881333
 30
0.0
 10
19.148933
 20
20.911296
 30
0.0
 10
19.148933
 20
20.911296
 30
0.0
 10
19.832947
 20
20.911293
 30
0.0
 10
19.832822
 20
20.911364
 30
0.0
  0
LWPOLYLINE
  5
217
100
AcDbEntity
  8
Layer_1
 62
5
100
AcDbPolyline
 90
9
 70
0
 10
17.304253
 20
22.302989
 30
0.0
 10
16.752906
 20
21.348019
 30
0.0
 10
18.114961
 20
20.561636
 30
0.0
 10
17.930642
 20
20.242377
 30
0.0
 10
16.741294
 20
20.242377
 30
0.0
 10
16.146322
 20
21.272333
 30
0.0
 10
16.741350
 20
22.302941
 30
0.0
 10
17.304253
 20
22.302941
 30
0.0
 10
17.304253
 20
22.302989
 30
0.0
  0
LWPOLYLINE
  5
218
100
AcDbEntity
  8
Layer_1
 62
5
100
AcDbPolyline
 90
9
 70
0
 10
34.163447
 20
12.569186
 30
0.0
 10
33.612142
 20
11.614280
 30
0.0
 10
34.967697
 20
10.831647
 30
0.0
 10
34.781156
 20
10.508546
 30
0.0
 10
33.591211
 20
10.508546
 30
0.0
 10
32.996864
 20
11.538511
 30
0.0
 10
33.591183
 20
12.569158
 30
0.0
 10
34.163531
 20
12.569158
 30
0.0
 10
34.163447
 20
12.569186
 30
0.0
  0
SPLINE
  5
219
100
AcDbEntity
  8
Layer_1
 62
5
100
AcDbSpline
 70
8
 71
3
 72
8
 73
4
 74
0
 40
0
 40
0
 40
0
 40
0
 40
1
 40
1
 40
1
 40
1
 10
9.304544
 20
26.107211
 30
0.0
 10
9.358989
 20
25.922494
 30
0.0
 10
9.456128
 20
25.735839
 30
0.0
 10
9.596308
 20
25.547189
 30
0.0
  0
SPLINE
  5
21a
100
AcDbEntity
  8
Layer_1
 62
5
100
AcDbSpline
 70
8
 71
3
 72
8
 73
4
 74
0
 40
0
 40
0
 40
0
 40
0
 40
1
 40
1
 40
1
 40
1
 10
9.596308
 20
25.547189
 30
0.0
 10
9.796503
 20
25.277772
 30
0.0
 10
10.070864
 20
25.042434
 30
0.0
 10
10.419392
 20
24.841209
 30
0.0
  0
SPLINE
  5
21b
100
AcDbEntity
  8
Layer_1
 62
5
100
AcDbSpline
 70
8
 71
3
 72
8
 73
4
 74
0
 40
0
 40
0
 40
0
 40
0
 40
1
 40
1
 40
1
 40
1
 10
10.419392
 20
24.841209
 30
0.0
 10
10.560683
 20
24.759640
 30
0.0
 10
10.699072
 20
24.692762
 30
0.0
 10
10.834586
 20
24.640332
 30
0.0
  0
LWPOLYLINE
  5
21c
100
AcDbEntity
  8
Layer_1
 62
5
100
AcDbPolyline
 90
9
 70
0
 10
27.876989
 20
16.193809
 30
0.0
 10
28.155128
 20
15.712276
 30
0.0
 10
27.557461
 20
14.677083
 30
0.0
 10
26.373781
 20
14.677087
 30
0.0
 10
25.778822
 20
15.707064
 30
0.0
 10
25.964919
 20
16.029401
 30
0.0
 10
27.327558
 20
15.242680
 30
0.0
 10
27.876767
 20
16.193934
 30
0.0
 10
27.876989
 20
16.193809
 30
0.0
  0
LWPOLYLINE
  5
21d
100
AcDbEntity
  8
Layer_1
 62
5
100
AcDbPolyline
 90
6
 70
0
 10
10.834586
 20
24.640332
 30
0.0
 10
10.705489
 20
24.416730
 30
0.0
 10
9.516183
 20
24.416732
 30
0.0
 10
8.922253
 20
25.444923
 30
0.0
 10
9.304614
 20
26.107172
 30
0.0
 10
9.304544
 20
26.107211
 30
0.0
  0
SPLINE
  5
21e
100
AcDbEntity
  8
Layer_1
 62
5
100
AcDbSpline
 70
8
 71
3
 72
8
 73
4
 74
0
 40
0
 40
0
 40
0
 40
0
 40
1
 40
1
 40
1
 40
1
 10
30.753503
 20
13.214654
 30
0.0
 10
30.923850
 20
13.040925
 30
0.0
 10
31.131906
 20
12.882857
 30
0.0
 10
31.378169
 20
12.740676
 30
0.0
  0
SPLINE
  5
21f
100
AcDbEntity
  8
Layer_1
 62
5
100
AcDbSpline
 70
8
 71
3
 72
8
 73
4
 74
0
 40
0
 40
0
 40
0
 40
0
 40
1
 40
1
 40
1
 40
1
 10
31.378169
 20
12.740676
 30
0.0
 10
31.748322
 20
12.526964
 30
0.0
 10
32.110975
 20
12.405711
 30
0.0
 10
32.466128
 20
12.376936
 30
0.0
  0
SPLINE
  5
220
100
AcDbEntity
  8
Layer_1
 62
5
100
AcDbSpline
 70
8
 71
3
 72
8
 73
4
 74
0
 40
0
 40
0
 40
0
 40
0
 40
1
 40
1
 40
1
 40
1
 10
32.466128
 20
12.376936
 30
0.0
 10
32.528114
 20
12.372346
 30
0.0
 10
32.587711
 20
12.370476
 30
0.0
 10
32.645267
 20
12.370965
 30
0.0
  0
LWPOLYLINE
  5
221
100
AcDbEntity
  8
Layer_1
 62
5
100
AcDbPolyline
 90
6
 70
0
 10
32.645169
 20
12.371005
 30
0.0
 10
32.645169
 20
12.371005
 30
0.0
 10
32.373517
 20
11.900182
 30
0.0
 10
31.183600
 20
11.900182
 30
0.0
 10
30.589267
 20
12.930171
 30
0.0
 10
30.753503
 20
13.214654
 30
0.0
  0
LWPOLYLINE
  5
222
100
AcDbEntity
  8
Layer_1
 62
5
100
AcDbPolyline
 90
2
 70
0
 10
32.645267
 20
12.370965
 30
0.0
 10
32.645169
 20
12.371005
 30
0.0
  0
LWPOLYLINE
  5
223
100
AcDbEntity
  8
Layer_1
 62
5
100
AcDbPolyline
 90
7
 70
0
 10
23.556044
 20
17.420227
 30
0.0
 10
25.340600
 20
16.389909
 30
0.0
 10
25.154822
 20
16.068125
 30
0.0
 10
23.964906
 20
16.068125
 30
0.0
 10
23.369947
 20
17.098102
 30
0.0
 10
23.555961
 20
17.420290
 30
0.0
 10
23.556044
 20
17.420227
 30
0.0
  0
LWPOLYLINE
  5
224
100
AcDbEntity
  8
Layer_1
 62
5
100
AcDbPolyline
 90
9
 70
0
 10
8.301350
 20
25.084409
 30
0.0
 10
8.301350
 20
25.084409
 30
0.0
 10
8.896044
 20
24.054891
 30
0.0
 10
8.300822
 20
23.023923
 30
0.0
 10
7.111850
 20
23.023925
 30
0.0
 10
6.516878
 20
24.054533
 30
0.0
 10
7.111892
 20
25.084497
 30
0.0
 10
8.301142
 20
25.084497
 30
0.0
 10
8.301350
 20
25.084409
 30
0.0
  0
LWPOLYLINE
  5
225
100
AcDbEntity
  8
Layer_1
 62
5
100
AcDbPolyline
 90
7
 70
0
 10
5.895281
 20
26.471623
 30
0.0
 10
5.895281
 20
26.471623
 30
0.0
 10
6.488072
 20
25.445389
 30
0.0
 10
5.893072
 20
24.415448
 30
0.0
 10
4.710864
 20
24.415452
 30
0.0
 10
5.895239
 20
26.471647
 30
0.0
 10
5.895281
 20
26.471623
 30
0.0
  0
LWPOLYLINE
  5
226
100
AcDbEntity
  8
Layer_1
 62
5
100
AcDbPolyline
 90
9
 70
0
 10
10.705378
 20
23.693983
 30
0.0
 10
10.705378
 20
23.693983
 30
0.0
 10
11.300350
 20
22.663996
 30
0.0
 10
10.705336
 20
21.634033
 30
0.0
 10
9.516044
 20
21.634033
 30
0.0
 10
8.921517
 20
22.663223
 30
0.0
 10
9.516475
 20
23.694016
 30
0.0
 10
10.705350
 20
23.694014
 30
0.0
 10
10.705378
 20
23.693983
 30
0.0
  0
LWPOLYLINE
  5
227
100
AcDbEntity
  8
Layer_1
 62
5
100
AcDbPolyline
 90
9
 70
0
 10
13.113767
 20
22.302900
 30
0.0
 10
13.113767
 20
22.302900
 30
0.0
 10
13.708683
 20
21.272351
 30
0.0
 10
13.113683
 20
20.242409
 30
0.0
 10
11.924350
 20
20.242409
 30
0.0
 10
11.329392
 20
21.272386
 30
0.0
 10
11.924392
 20
22.302973
 30
0.0
 10
13.113642
 20
22.302973
 30
0.0
 10
13.113767
 20
22.302900
 30
0.0
  0
LWPOLYLINE
  5
228
100
AcDbEntity
  8
Layer_1
 62
5
100
AcDbPolyline
 90
8
 70
0
 10
15.522058
 20
20.911394
 30
0.0
 10
16.117003
 20
19.881425
 30
0.0
 10
15.522003
 20
18.850837
 30
0.0
 10
14.332656
 20
18.850837
 30
0.0
 10
13.737711
 20
19.881430
 30
0.0
 10
14.332725
 20
20.911393
 30
0.0
 10
15.522044
 20
20.911383
 30
0.0
 10
15.522058
 20
20.911394
 30
0.0
  0
LWPOLYLINE
  5
229
100
AcDbEntity
  8
Layer_1
 62
5
100
AcDbPolyline
 90
8
 70
0
 10
17.931100
 20
19.520277
 30
0.0
 10
18.525419
 20
18.489711
 30
0.0
 10
17.931114
 20
17.459711
 30
0.0
 10
16.741156
 20
17.459718
 30
0.0
 10
16.146169
 20
18.489683
 30
0.0
 10
16.741183
 20
19.520290
 30
0.0
 10
17.931086
 20
19.520284
 30
0.0
 10
17.931100
 20
19.520277
 30
0.0
  0
LWPOLYLINE
  5
22a
100
AcDbEntity
  8
Layer_1
 62
5
100
AcDbPolyline
 90
8
 70
0
 10
20.338114
 20
18.128691
 30
0.0
 10
20.933100
 20
17.098696
 30
0.0
 10
20.338100
 20
16.068111
 30
0.0
 10
19.148169
 20
16.068102
 30
0.0
 10
18.553808
 20
17.098722
 30
0.0
 10
19.148114
 20
18.128722
 30
0.0
 10
20.338114
 20
18.128722
 30
0.0
 10
20.338114
 20
18.128691
 30
0.0
  0
LWPOLYLINE
  5
22b
100
AcDbEntity
  8
Layer_1
 62
5
100
AcDbPolyline
 90
9
 70
0
 10
22.746475
 20
16.737633
 30
0.0
 10
22.746475
 20
16.737633
 30
0.0
 10
23.341419
 20
15.707068
 30
0.0
 10
22.746406
 20
14.677105
 30
0.0
 10
21.557100
 20
14.677107
 30
0.0
 10
20.962142
 20
15.707084
 30
0.0
 10
21.557142
 20
16.737672
 30
0.0
 10
22.746392
 20
16.737680
 30
0.0
 10
22.746475
 20
16.737633
 30
0.0
  0
LWPOLYLINE
  5
22c
100
AcDbEntity
  8
Layer_1
 62
5
100
AcDbPolyline
 90
9
 70
0
 10
25.154822
 20
15.346009
 30
0.0
 10
25.154822
 20
15.346009
 30
0.0
 10
25.749767
 20
14.315423
 30
0.0
 10
25.154767
 20
13.285480
 30
0.0
 10
23.965433
 20
13.285480
 30
0.0
 10
23.370475
 20
14.315459
 30
0.0
 10
23.965489
 20
15.346046
 30
0.0
 10
25.154739
 20
15.346046
 30
0.0
 10
25.154822
 20
15.346009
 30
0.0
  0
LWPOLYLINE
  5
22d
100
AcDbEntity
  8
Layer_1
 62
5
100
AcDbPolyline
 90
9
 70
0
 10
29.964572
 20
12.569100
 30
0.0
 10
29.964572
 20
12.569100
 30
0.0
 10
30.559544
 20
11.538489
 30
0.0
 10
29.964544
 20
10.508527
 30
0.0
 10
28.775211
 20
10.508527
 30
0.0
 10
28.183447
 20
11.532897
 30
0.0
 10
28.781711
 20
12.569108
 30
0.0
 10
29.964600
 20
12.569102
 30
0.0
 10
29.964572
 20
12.569100
 30
0.0
  0
LWPOLYLINE
  5
22e
100
AcDbEntity
  8
Layer_1
 62
5
100
AcDbPolyline
 90
8
 70
0
 10
27.563197
 20
13.954429
 30
0.0
 10
28.154794
 20
12.930277
 30
0.0
 10
27.556475
 20
11.893959
 30
0.0
 10
26.373697
 20
11.893951
 30
0.0
 10
25.778711
 20
12.924561
 30
0.0
 10
26.373725
 20
13.954523
 30
0.0
 10
27.563072
 20
13.954523
 30
0.0
 10
27.563197
 20
13.954429
 30
0.0
  0
LWPOLYLINE
  5
22f
100
AcDbEntity
  8
Layer_1
 62
5
100
AcDbPolyline
 90
8
 70
0
 10
32.372892
 20
11.177550
 30
0.0
 10
32.967808
 20
10.147623
 30
0.0
 10
32.372808
 20
9.117039
 30
0.0
 10
31.183489
 20
9.117039
 30
0.0
 10
30.588531
 20
10.147640
 30
0.0
 10
31.183544
 20
11.177602
 30
0.0
 10
32.372781
 20
11.177602
 30
0.0
 10
32.372892
 20
11.177550
 30
0.0
  0
LWPOLYLINE
  5
230
100
AcDbEntity
  8
Layer_1
 62
5
100
AcDbPolyline
 90
8
 70
0
 10
34.781183
 20
9.785907
 30
0.0
 10
35.376100
 20
8.755982
 30
0.0
 10
34.781350
 20
7.725841
 30
0.0
 10
33.591989
 20
7.725841
 30
0.0
 10
32.997031
 20
8.755821
 30
0.0
 10
33.592044
 20
9.785804
 30
0.0
 10
34.781308
 20
9.785805
 30
0.0
 10
34.781183
 20
9.785907
 30
0.0
  0
LWPOLYLINE
  5
231
100
AcDbEntity
  8
Layer_1
 62
5
100
AcDbPolyline
 90
8
 70
0
 10
37.190322
 20
8.394794
 30
0.0
 10
37.784628
 20
7.364851
 30
0.0
 10
37.190308
 20
6.334207
 30
0.0
 10
36.000406
 20
6.334211
 30
0.0
 10
35.405433
 20
7.364848
 30
0.0
 10
36.000433
 20
8.394790
 30
0.0
 10
37.190336
 20
8.394786
 30
0.0
 10
37.190322
 20
8.394794
 30
0.0
  0
LWPOLYLINE
  5
232
100
AcDbEntity
  8
Layer_1
 62
5
100
AcDbPolyline
 90
7
 70
0
 10
5.893072
 20
23.692802
 30
0.0
 10
5.893072
 20
23.692802
 30
0.0
 10
6.487364
 20
22.662839
 30
0.0
 10
5.973072
 20
21.771129
 30
0.0
 10
4.860989
 20
23.692827
 30
0.0
 10
5.892975
 20
23.692827
 30
0.0
 10
5.893072
 20
23.692802
 30
0.0
  0
LWPOLYLINE
  5
233
100
AcDbEntity
  8
Layer_1
 62
5
100
AcDbPolyline
 90
10
 70
0
 10
8.301461
 20
22.301780
 30
0.0
 10
8.301461
 20
22.301780
 30
0.0
 10
8.896142
 20
21.271647
 30
0.0
 10
8.466947
 20
20.527616
 30
0.0
 10
8.301544
 20
20.241137
 30
0.0
 10
7.112211
 20
20.241125
 30
0.0
 10
6.517239
 20
21.271109
 30
0.0
 10
7.111558
 20
22.301757
 30
0.0
 10
8.301503
 20
22.301757
 30
0.0
 10
8.301461
 20
22.301780
 30
0.0
  0
LWPOLYLINE
  5
234
100
AcDbEntity
  8
Layer_1
 62
5
100
AcDbPolyline
 90
11
 70
0
 10
10.705531
 20
20.911298
 30
0.0
 10
10.705531
 20
20.911298
 30
0.0
 10
11.300475
 20
19.881387
 30
0.0
 10
10.705447
 20
18.850779
 30
0.0
 10
9.516142
 20
18.850780
 30
0.0
 10
8.921308
 20
19.881137
 30
0.0
 10
9.314961
 20
20.563293
 30
0.0
 10
9.516114
 20
20.911384
 30
0.0
 10
9.516253
 20
20.911246
 30
0.0
 10
10.705517
 20
20.911247
 30
0.0
 10
10.705531
 20
20.911298
 30
0.0
  0
LWPOLYLINE
  5
235
100
AcDbEntity
  8
Layer_1
 62
5
100
AcDbPolyline
 90
8
 70
0
 10
13.114392
 20
19.520344
 30
0.0
 10
13.708725
 20
18.489740
 30
0.0
 10
13.114406
 20
17.459740
 30
0.0
 10
11.924447
 20
17.459747
 30
0.0
 10
11.330114
 20
18.489734
 30
0.0
 10
11.924419
 20
19.520358
 30
0.0
 10
13.114378
 20
19.520351
 30
0.0
 10
13.114392
 20
19.520344
 30
0.0
  0
LWPOLYLINE
  5
236
100
AcDbEntity
  8
Layer_1
 62
5
100
AcDbPolyline
 90
9
 70
0
 10
15.522031
 20
18.128736
 30
0.0
 10
15.522031
 20
18.128736
 30
0.0
 10
16.116989
 20
17.098133
 30
0.0
 10
15.521975
 20
16.068172
 30
0.0
 10
14.332031
 20
16.068171
 30
0.0
 10
13.737711
 20
17.098180
 30
0.0
 10
14.332003
 20
18.128783
 30
0.0
 10
15.521919
 20
18.128783
 30
0.0
 10
15.522031
 20
18.128736
 30
0.0
  0
LWPOLYLINE
  5
237
100
AcDbEntity
  8
Layer_1
 62
5
100
AcDbPolyline
 90
8
 70
0
 10
17.930406
 20
16.737039
 30
0.0
 10
18.525392
 20
15.707052
 30
0.0
 10
17.930392
 20
14.677112
 30
0.0
 10
16.741086
 20
14.677112
 30
0.0
 10
16.146128
 20
15.707090
 30
0.0
 10
16.741142
 20
16.737051
 30
0.0
 10
17.930447
 20
16.737051
 30
0.0
 10
17.930406
 20
16.737039
 30
0.0
  0
LWPOLYLINE
  5
238
100
AcDbEntity
  8
Layer_1
 62
5
100
AcDbPolyline
 90
8
 70
0
 10
20.338156
 20
15.346021
 30
0.0
 10
20.933128
 20
14.315412
 30
0.0
 10
20.338114
 20
13.285448
 30
0.0
 10
19.148794
 20
13.285458
 30
0.0
 10
18.553808
 20
14.315423
 30
0.0
 10
19.148836
 20
15.346030
 30
0.0
 10
20.338156
 20
15.346021
 30
0.0
 10
20.338156
 20
15.346021
 30
0.0
  0
LWPOLYLINE
  5
239
100
AcDbEntity
  8
Layer_1
 62
5
100
AcDbPolyline
 90
8
 70
0
 10
22.747142
 20
13.954400
 30
0.0
 10
23.341461
 20
12.924448
 30
0.0
 10
22.747156
 20
11.894448
 30
0.0
 10
21.557239
 20
11.894448
 30
0.0
 10
20.962267
 20
12.924433
 30
0.0
 10
21.557281
 20
13.954396
 30
0.0
 10
22.747142
 20
13.954396
 30
0.0
 10
22.747142
 20
13.954400
 30
0.0
  0
LWPOLYLINE
  5
23a
100
AcDbEntity
  8
Layer_1
 62
5
100
AcDbPolyline
 90
8
 70
0
 10
25.154878
 20
12.563333
 30
0.0
 10
25.749197
 20
11.532729
 30
0.0
 10
25.154892
 20
10.502729
 30
0.0
 10
23.964933
 20
10.502736
 30
0.0
 10
23.369947
 20
11.532730
 30
0.0
 10
23.964961
 20
12.563315
 30
0.0
 10
25.154878
 20
12.563315
 30
0.0
 10
25.154878
 20
12.563333
 30
0.0
  0
LWPOLYLINE
  5
23b
100
AcDbEntity
  8
Layer_1
 62
5
100
AcDbPolyline
 90
10
 70
0
 10
29.964364
 20
9.785918
 30
0.0
 10
29.964364
 20
9.785918
 30
0.0
 10
30.559350
 20
8.755954
 30
0.0
 10
29.964350
 20
7.725991
 30
0.0
 10
28.775031
 20
7.725991
 30
0.0
 10
28.550378
 20
8.114943
 30
0.0
 10
28.183183
 20
8.751121
 30
0.0
 10
28.780586
 20
9.785868
 30
0.0
 10
29.964378
 20
9.785868
 30
0.0
 10
29.964364
 20
9.785918
 30
0.0
  0
LWPOLYLINE
  5
23c
100
AcDbEntity
  8
Layer_1
 62
5
100
AcDbPolyline
 90
8
 70
0
 10
32.373475
 20
8.394821
 30
0.0
 10
32.967781
 20
7.364857
 30
0.0
 10
32.373475
 20
6.334233
 30
0.0
 10
31.183544
 20
6.334233
 30
0.0
 10
30.589225
 20
7.364837
 30
0.0
 10
31.183531
 20
8.394837
 30
0.0
 10
32.373489
 20
8.394830
 30
0.0
 10
32.373475
 20
8.394821
 30
0.0
  0
LWPOLYLINE
  5
23d
100
AcDbEntity
  8
Layer_1
 62
5
100
AcDbPolyline
 90
9
 70
0
 10
27.563253
 20
11.171664
 30
0.0
 10
28.155197
 20
10.146939
 30
0.0
 10
27.557364
 20
9.111157
 30
0.0
 10
26.373864
 20
9.111146
 30
0.0
 10
25.778919
 20
10.141768
 30
0.0
 10
26.373919
 20
11.171709
 30
0.0
 10
26.373919
 20
11.171709
 30
0.0
 10
27.563128
 20
11.171709
 30
0.0
 10
27.563253
 20
11.171664
 30
0.0
  0
LWPOLYLINE
  5
23e
100
AcDbEntity
  8
Layer_1
 62
5
100
AcDbPolyline
 90
8
 70
0
 10
34.781322
 20
7.003097
 30
0.0
 10
35.376253
 20
5.973162
 30
0.0
 10
35.132419
 20
5.550840
 30
0.0
 10
33.241614
 20
5.548912
 30
0.0
 10
32.996919
 20
5.973211
 30
0.0
 10
33.591489
 20
7.003054
 30
0.0
 10
34.781447
 20
7.003054
 30
0.0
 10
34.781322
 20
7.003097
 30
0.0
  0
LWPOLYLINE
  5
23f
100
AcDbEntity
  8
Layer_1
 62
5
100
AcDbPolyline
 90
9
 70
0
 10
36.884475
 20
42.879823
 30
0.0
 10
37.100864
 20
42.505900
 30
0.0
 10
37.100864
 20
42.505900
 30
0.0
 10
37.100864
 20
42.505900
 30
0.0
 10
35.999656
 20
42.505896
 30
0.0
 10
35.784294
 20
42.878694
 30
0.0
 10
35.784294
 20
42.878694
 30
0.0
 10
36.884489
 20
42.879819
 30
0.0
 10
36.884475
 20
42.879823
 30
0.0
  0
LWPOLYLINE
  5
240
100
AcDbEntity
  8
Layer_1
 62
5
100
AcDbPolyline
 90
13
 70
0
 10
37.189517
 20
41.783834
 30
0.0
 10
37.189517
 20
41.783696
 30
0.0
 10
37.783850
 20
40.753064
 30
0.0
 10
37.783850
 20
40.753064
 30
0.0
 10
37.189558
 20
39.723083
 30
0.0
 10
37.189558
 20
39.723083
 30
0.0
 10
35.999614
 20
39.723083
 30
0.0
 10
35.404656
 20
40.753061
 30
0.0
 10
35.404656
 20
40.753061
 30
0.0
 10
35.999517
 20
41.783705
 30
0.0
 10
35.999517
 20
41.783705
 30
0.0
 10
37.189461
 20
41.783705
 30
0.0
 10
37.189517
 20
41.783834
 30
0.0
  0
LWPOLYLINE
  5
241
100
AcDbEntity
  8
Layer_1
 62
5
100
AcDbPolyline
 90
16
 70
0
 10
34.952100
 20
42.877866
 30
0.0
 10
35.375489
 20
42.144883
 30
0.0
 10
35.375489
 20
42.144883
 30
0.0
 10
34.780489
 20
41.114318
 30
0.0
 10
34.780489
 20
41.114318
 30
0.0
 10
34.026503
 20
41.114327
 30
0.0
 10
33.591211
 20
41.114327
 30
0.0
 10
33.591211
 20
41.114327
 30
0.0
 10
32.996225
 20
42.144937
 30
0.0
 10
32.996225
 20
42.144937
 30
0.0
 10
33.418683
 20
42.876334
 30
0.0
 10
33.418683
 20
42.876334
 30
0.0
 10
34.952031
 20
42.877900
 30
0.0
 10
34.952031
 20
42.877900
 30
0.0
 10
34.952031
 20
42.877900
 30
0.0
 10
34.952100
 20
42.877866
 30
0.0
  0
LWPOLYLINE
  5
242
100
AcDbEntity
  8
Layer_1
 62
5
100
AcDbPolyline
 90
10
 70
0
 10
38.365419
 20
40.320765
 30
0.0
 10
39.516558
 20
38.331600
 30
0.0
 10
39.516558
 20
38.331600
 30
0.0
 10
39.516558
 20
38.331600
 30
0.0
 10
38.406656
 20
38.331600
 30
0.0
 10
37.812322
 20
39.362211
 30
0.0
 10
37.812322
 20
39.362211
 30
0.0
 10
38.365378
 20
40.320777
 30
0.0
 10
38.365378
 20
40.320777
 30
0.0
 10
38.365419
 20
40.320765
 30
0.0
  0
LWPOLYLINE
  5
243
100
AcDbEntity
  8
Layer_1
 62
5
100
AcDbPolyline
 90
10
 70
0
 10
32.585711
 20
42.875451
 30
0.0
 10
32.585711
 20
42.875451
 30
0.0
 10
32.585711
 20
42.875451
 30
0.0
 10
32.372183
 20
42.505940
 30
0.0
 10
32.372183
 20
42.505940
 30
0.0
 10
31.182878
 20
42.505940
 30
0.0
 10
30.970350
 20
42.873850
 30
0.0
 10
30.970350
 20
42.873850
 30
0.0
 10
32.585642
 20
42.875519
 30
0.0
 10
32.585711
 20
42.875451
 30
0.0
  0
LWPOLYLINE
  5
244
100
AcDbEntity
  8
Layer_1
 62
5
100
AcDbPolyline
 90
12
 70
0
 10
32.372906
 20
41.783727
 30
0.0
 10
32.967239
 20
40.753116
 30
0.0
 10
32.967239
 20
40.753116
 30
0.0
 10
32.372947
 20
39.723139
 30
0.0
 10
32.372947
 20
39.723139
 30
0.0
 10
31.183003
 20
39.723137
 30
0.0
 10
30.588656
 20
40.753104
 30
0.0
 10
30.588656
 20
40.753104
 30
0.0
 10
31.182961
 20
41.783727
 30
0.0
 10
31.182961
 20
41.783727
 30
0.0
 10
32.372906
 20
41.783727
 30
0.0
 10
32.372906
 20
41.783727
 30
0.0
  0
LWPOLYLINE
  5
245
100
AcDbEntity
  8
Layer_1
 62
5
100
AcDbPolyline
 90
10
 70
0
 10
34.780572
 20
40.392061
 30
0.0
 10
34.780572
 20
40.392061
 30
0.0
 10
35.375531
 20
39.361489
 30
0.0
 10
34.780517
 20
38.331505
 30
0.0
 10
34.780517
 20
38.331505
 30
0.0
 10
33.590600
 20
38.331505
 30
0.0
 10
32.996225
 20
39.361508
 30
0.0
 10
33.590531
 20
40.392133
 30
0.0
 10
34.780447
 20
40.392133
 30
0.0
 10
34.780572
 20
40.392061
 30
0.0
  0
LWPOLYLINE
  5
246
100
AcDbEntity
  8
Layer_1
 62
5
100
AcDbPolyline
 90
9
 70
0
 10
37.188933
 20
39.000404
 30
0.0
 10
37.783906
 20
37.970418
 30
0.0
 10
37.188892
 20
36.940455
 30
0.0
 10
35.999572
 20
36.940464
 30
0.0
 10
35.404586
 20
37.970421
 30
0.0
 10
35.404586
 20
37.970421
 30
0.0
 10
35.999600
 20
39.000383
 30
0.0
 10
37.188919
 20
39.000382
 30
0.0
 10
37.188933
 20
39.000404
 30
0.0
  0
LWPOLYLINE
  5
247
100
AcDbEntity
  8
Layer_1
 62
5
100
AcDbPolyline
 90
10
 70
0
 10
39.596628
 20
37.609409
 30
0.0
 10
39.596628
 20
37.609409
 30
0.0
 10
40.191572
 20
36.578816
 30
0.0
 10
40.191572
 20
36.578816
 30
0.0
 10
39.596572
 20
35.548854
 30
0.0
 10
38.407253
 20
35.548854
 30
0.0
 10
37.812253
 20
36.578826
 30
0.0
 10
38.407281
 20
37.609434
 30
0.0
 10
39.596544
 20
37.609434
 30
0.0
 10
39.596628
 20
37.609409
 30
0.0
  0
LWPOLYLINE
  5
248
100
AcDbEntity
  8
Layer_1
 62
5
100
AcDbPolyline
 90
9
 70
0
 10
30.138197
 20
42.872922
 30
0.0
 10
30.138197
 20
42.872922
 30
0.0
 10
30.558836
 20
42.144752
 30
0.0
 10
29.963836
 20
41.114165
 30
0.0
 10
28.774517
 20
41.114166
 30
0.0
 10
28.182461
 20
42.139723
 30
0.0
 10
28.604697
 20
42.871383
 30
0.0
 10
30.138142
 20
42.872954
 30
0.0
 10
30.138197
 20
42.872922
 30
0.0
  0
LWPOLYLINE
  5
249
100
AcDbEntity
  8
Layer_1
 62
5
100
AcDbPolyline
 90
9
 70
0
 10
40.777767
 20
36.152127
 30
0.0
 10
41.931878
 20
34.157791
 30
0.0
 10
40.815669
 20
34.157786
 30
0.0
 10
40.815669
 20
34.157786
 30
0.0
 10
40.220697
 20
35.187751
 30
0.0
 10
40.777683
 20
36.151862
 30
0.0
 10
40.777683
 20
36.152084
 30
0.0
 10
40.777683
 20
36.152084
 30
0.0
 10
40.777767
 20
36.152127
 30
0.0
  0
LWPOLYLINE
  5
24a
100
AcDbEntity
  8
Layer_1
 62
5
100
AcDbPolyline
 90
7
 70
0
 10
8.301461
 20
19.519066
 30
0.0
 10
8.301461
 20
19.519066
 30
0.0
 10
8.895975
 20
18.489239
 30
0.0
 10
8.384864
 20
17.603672
 30
0.0
 10
7.276433
 20
19.519044
 30
0.0
 10
8.301433
 20
19.519044
 30
0.0
 10
8.301461
 20
19.519066
 30
0.0
  0
LWPOLYLINE
  5
24b
100
AcDbEntity
  8
Layer_1
 62
5
100
AcDbPolyline
 90
8
 70
0
 10
10.705447
 20
18.128662
 30
0.0
 10
11.300419
 20
17.098684
 30
0.0
 10
10.705406
 20
16.068098
 30
0.0
 10
9.516114
 20
16.068098
 30
0.0
 10
8.921669
 20
17.097808
 30
0.0
 10
9.516656
 20
18.128664
 30
0.0
 10
10.705475
 20
18.128662
 30
0.0
 10
10.705447
 20
18.128662
 30
0.0
  0
LWPOLYLINE
  5
24c
100
AcDbEntity
  8
Layer_1
 62
5
100
AcDbPolyline
 90
8
 70
0
 10
13.113822
 20
16.737594
 30
0.0
 10
13.708739
 20
15.707016
 30
0.0
 10
13.113739
 20
14.677075
 30
0.0
 10
11.924433
 20
14.677076
 30
0.0
 10
11.329461
 20
15.707032
 30
0.0
 10
11.924475
 20
16.737640
 30
0.0
 10
13.113753
 20
16.737633
 30
0.0
 10
13.113822
 20
16.737594
 30
0.0
  0
LWPOLYLINE
  5
24d
100
AcDbEntity
  8
Layer_1
 62
5
100
AcDbPolyline
 90
8
 70
0
 10
15.522156
 20
15.345944
 30
0.0
 10
16.117086
 20
14.315387
 30
0.0
 10
15.522072
 20
13.285425
 30
0.0
 10
14.332767
 20
13.285425
 30
0.0
 10
13.737794
 20
14.315382
 30
0.0
 10
14.332822
 20
15.345989
 30
0.0
 10
15.522086
 20
15.345983
 30
0.0
 10
15.522156
 20
15.345944
 30
0.0
  0
LWPOLYLINE
  5
24e
100
AcDbEntity
  8
Layer_1
 62
5
100
AcDbPolyline
 90
8
 70
0
 10
17.931086
 20
13.954327
 30
0.0
 10
18.525419
 20
12.924350
 30
0.0
 10
17.931114
 20
11.893725
 30
0.0
 10
16.741169
 20
11.893723
 30
0.0
 10
16.146211
 20
12.924319
 30
0.0
 10
16.741225
 20
13.954279
 30
0.0
 10
17.931142
 20
13.954279
 30
0.0
 10
17.931086
 20
13.954327
 30
0.0
  0
LWPOLYLINE
  5
24f
100
AcDbEntity
  8
Layer_1
 62
5
100
AcDbPolyline
 90
10
 70
0
 10
20.338156
 20
12.563359
 30
0.0
 10
20.338156
 20
12.563359
 30
0.0
 10
20.933128
 20
11.532748
 30
0.0
 10
20.933128
 20
11.532748
 30
0.0
 10
20.338128
 20
10.502787
 30
0.0
 10
19.148169
 20
10.502786
 30
0.0
 10
18.553822
 20
11.532751
 30
0.0
 10
19.148142
 20
12.563397
 30
0.0
 10
20.338058
 20
12.563397
 30
0.0
 10
20.338156
 20
12.563359
 30
0.0
  0
LWPOLYLINE
  5
250
100
AcDbEntity
  8
Layer_1
 62
5
100
AcDbPolyline
 90
9
 70
0
 10
22.746364
 20
11.171766
 30
0.0
 10
22.746364
 20
11.171766
 30
0.0
 10
23.341350
 20
10.141771
 30
0.0
 10
22.746336
 20
9.111186
 30
0.0
 10
21.557017
 20
9.111186
 30
0.0
 10
20.962031
 20
10.141804
 30
0.0
 10
21.557044
 20
11.171766
 30
0.0
 10
22.746336
 20
11.171766
 30
0.0
 10
22.746364
 20
11.171766
 30
0.0
  0
LWPOLYLINE
  5
251
100
AcDbEntity
  8
Layer_1
 62
5
100
AcDbPolyline
 90
10
 70
0
 10
25.154850
 20
9.780030
 30
0.0
 10
25.749808
 20
8.750052
 30
0.0
 10
25.154794
 20
7.720090
 30
0.0
 10
25.154794
 20
7.720090
 30
0.0
 10
23.965517
 20
7.720090
 30
0.0
 10
23.370544
 20
8.750076
 30
0.0
 10
23.370544
 20
8.750076
 30
0.0
 10
23.965558
 20
9.780039
 30
0.0
 10
25.154864
 20
9.780037
 30
0.0
 10
25.154850
 20
9.780030
 30
0.0
  0
LWPOLYLINE
  5
252
100
AcDbEntity
  8
Layer_1
 62
5
100
AcDbPolyline
 90
10
 70
0
 10
29.964517
 20
7.003166
 30
0.0
 10
29.964517
 20
7.003166
 30
0.0
 10
30.559475
 20
5.973189
 30
0.0
 10
30.312642
 20
5.545977
 30
0.0
 10
28.427850
 20
5.544034
 30
0.0
 10
28.183517
 20
5.967469
 30
0.0
 10
28.183517
 20
5.967469
 30
0.0
 10
28.781294
 20
7.003165
 30
0.0
 10
29.964531
 20
7.003159
 30
0.0
 10
29.964517
 20
7.003166
 30
0.0
  0
LWPOLYLINE
  5
253
100
AcDbEntity
  8
Layer_1
 62
5
100
AcDbPolyline
 90
9
 70
0
 10
27.563100
 20
8.389116
 30
0.0
 10
27.563100
 20
8.389116
 30
0.0
 10
28.154975
 20
7.364516
 30
0.0
 10
27.557058
 20
6.328566
 30
0.0
 10
26.373739
 20
6.328561
 30
0.0
 10
25.778767
 20
7.359162
 30
0.0
 10
26.373781
 20
8.389125
 30
0.0
 10
27.563086
 20
8.389123
 30
0.0
 10
27.563100
 20
8.389116
 30
0.0
  0
LWPOLYLINE
  5
254
100
AcDbEntity
  8
Layer_1
 62
5
100
AcDbPolyline
 90
6
 70
0
 10
10.705433
 20
15.345987
 30
0.0
 10
11.300392
 20
14.315386
 30
0.0
 10
10.794614
 20
13.439676
 30
0.0
 10
9.691447
 20
15.345951
 30
0.0
 10
10.705489
 20
15.345955
 30
0.0
 10
10.705433
 20
15.345987
 30
0.0
  0
LWPOLYLINE
  5
255
100
AcDbEntity
  8
Layer_1
 62
5
100
AcDbPolyline
 90
10
 70
0
 10
13.114336
 20
13.954352
 30
0.0
 10
13.114336
 20
13.954352
 30
0.0
 10
13.708642
 20
12.924389
 30
0.0
 10
13.708642
 20
12.924389
 30
0.0
 10
13.114322
 20
11.894389
 30
0.0
 10
11.924364
 20
11.894397
 30
0.0
 10
11.330044
 20
12.924375
 30
0.0
 10
11.924350
 20
13.954376
 30
0.0
 10
13.114308
 20
13.954368
 30
0.0
 10
13.114336
 20
13.954352
 30
0.0
  0
LWPOLYLINE
  5
256
100
AcDbEntity
  8
Layer_1
 62
5
100
AcDbPolyline
 90
11
 70
0
 10
15.522128
 20
12.563312
 30
0.0
 10
15.522128
 20
12.563312
 30
0.0
 10
16.117058
 20
11.532697
 30
0.0
 10
16.117058
 20
11.532697
 30
0.0
 10
15.522058
 20
10.502755
 30
0.0
 10
15.522058
 20
10.502755
 30
0.0
 10
14.332142
 20
10.502755
 30
0.0
 10
13.737794
 20
11.532721
 30
0.0
 10
14.332114
 20
12.563366
 30
0.0
 10
15.522058
 20
12.563366
 30
0.0
 10
15.522128
 20
12.563312
 30
0.0
  0
LWPOLYLINE
  5
257
100
AcDbEntity
  8
Layer_1
 62
5
100
AcDbPolyline
 90
12
 70
0
 10
17.930308
 20
11.171748
 30
0.0
 10
17.930308
 20
11.171748
 30
0.0
 10
18.525239
 20
10.141757
 30
0.0
 10
18.525239
 20
10.141757
 30
0.0
 10
17.930253
 20
9.111191
 30
0.0
 10
17.930253
 20
9.111191
 30
0.0
 10
16.740947
 20
9.111184
 30
0.0
 10
16.145975
 20
10.141765
 30
0.0
 10
16.145975
 20
10.141765
 30
0.0
 10
16.741003
 20
11.171750
 30
0.0
 10
17.930308
 20
11.171748
 30
0.0
 10
17.930308
 20
11.171748
 30
0.0
  0
LWPOLYLINE
  5
258
100
AcDbEntity
  8
Layer_1
 62
5
100
AcDbPolyline
 90
11
 70
0
 10
20.338142
 20
9.780009
 30
0.0
 10
20.338142
 20
9.780009
 30
0.0
 10
20.933086
 20
8.750039
 30
0.0
 10
20.338072
 20
7.720077
 30
0.0
 10
20.338072
 20
7.720077
 30
0.0
 10
19.148781
 20
7.720071
 30
0.0
 10
18.553808
 20
8.750055
 30
0.0
 10
18.553808
 20
8.750055
 30
0.0
 10
19.148822
 20
9.780018
 30
0.0
 10
20.338100
 20
9.780018
 30
0.0
 10
20.338142
 20
9.780009
 30
0.0
  0
LWPOLYLINE
  5
259
100
AcDbEntity
  8
Layer_1
 62
5
100
AcDbPolyline
 90
9
 70
0
 10
22.747100
 20
8.388997
 30
0.0
 10
22.747100
 20
8.388997
 30
0.0
 10
23.341433
 20
7.359018
 30
0.0
 10
22.747128
 20
6.328393
 30
0.0
 10
21.557169
 20
6.328402
 30
0.0
 10
20.962197
 20
7.359032
 30
0.0
 10
21.557211
 20
8.388994
 30
0.0
 10
22.747128
 20
8.388980
 30
0.0
 10
22.747100
 20
8.388997
 30
0.0
  0
LWPOLYLINE
  5
25a
100
AcDbEntity
  8
Layer_1
 62
5
100
AcDbPolyline
 90
10
 70
0
 10
25.154822
 20
6.997341
 30
0.0
 10
25.154822
 20
6.997341
 30
0.0
 10
25.749114
 20
5.967377
 30
0.0
 10
25.749114
 20
5.967377
 30
0.0
 10
25.503350
 20
5.541057
 30
0.0
 10
23.617156
 20
5.539125
 30
0.0
 10
23.369947
 20
5.967332
 30
0.0
 10
23.964961
 20
6.997294
 30
0.0
 10
25.154878
 20
6.997294
 30
0.0
 10
25.154822
 20
6.997341
 30
0.0
  0
LWPOLYLINE
  5
25b
100
AcDbEntity
  8
Layer_1
 62
5
100
AcDbPolyline
 90
7
 70
0
 10
13.113697
 20
11.171647
 30
0.0
 10
13.113697
 20
11.171647
 30
0.0
 10
13.708669
 20
10.141661
 30
0.0
 10
13.206503
 20
9.271882
 30
0.0
 10
12.107072
 20
11.171668
 30
0.0
 10
13.113683
 20
11.171655
 30
0.0
 10
13.113697
 20
11.171647
 30
0.0
  0
LWPOLYLINE
  5
25c
100
AcDbEntity
  8
Layer_1
 62
5
100
AcDbPolyline
 90
11
 70
0
 10
15.522072
 20
9.779959
 30
0.0
 10
15.522072
 20
9.779959
 30
0.0
 10
16.117017
 20
8.749990
 30
0.0
 10
15.522003
 20
7.720027
 30
0.0
 10
15.522003
 20
7.720027
 30
0.0
 10
14.332711
 20
7.720021
 30
0.0
 10
13.737753
 20
8.749998
 30
0.0
 10
13.737753
 20
8.749998
 30
0.0
 10
14.332767
 20
9.779962
 30
0.0
 10
15.522031
 20
9.779962
 30
0.0
 10
15.522072
 20
9.779959
 30
0.0
  0
LWPOLYLINE
  5
25d
100
AcDbEntity
  8
Layer_1
 62
5
100
AcDbPolyline
 90
10
 70
0
 10
17.931017
 20
8.388955
 30
0.0
 10
17.931017
 20
8.388955
 30
0.0
 10
18.525364
 20
7.358990
 30
0.0
 10
18.525364
 20
7.358990
 30
0.0
 10
17.931044
 20
6.328344
 30
0.0
 10
16.741100
 20
6.328346
 30
0.0
 10
16.146128
 20
7.358984
 30
0.0
 10
16.741142
 20
8.388946
 30
0.0
 10
17.931044
 20
8.388940
 30
0.0
 10
17.931017
 20
8.388955
 30
0.0
  0
LWPOLYLINE
  5
25e
100
AcDbEntity
  8
Layer_1
 62
5
100
AcDbPolyline
 90
11
 70
0
 10
20.338142
 20
6.997307
 30
0.0
 10
20.338142
 20
6.997307
 30
0.0
 10
20.933128
 20
5.967312
 30
0.0
 10
20.684044
 20
5.536196
 30
0.0
 10
20.684044
 20
5.536196
 30
0.0
 10
18.803753
 20
5.534252
 30
0.0
 10
18.553864
 20
5.967322
 30
0.0
 10
18.553864
 20
5.967322
 30
0.0
 10
19.148169
 20
6.997322
 30
0.0
 10
20.338114
 20
6.997322
 30
0.0
 10
20.338142
 20
6.997307
 30
0.0
  0
LWPOLYLINE
  5
25f
100
AcDbEntity
  8
Layer_1
 62
5
100
AcDbPolyline
 90
8
 70
0
 10
15.521933
 20
6.997276
 30
0.0
 10
15.521933
 20
6.997276
 30
0.0
 10
16.116892
 20
5.967297
 30
0.0
 10
15.865156
 20
5.531284
 30
0.0
 10
15.371475
 20
5.530784
 30
0.0
 10
14.522794
 20
6.997311
 30
0.0
 10
15.521892
 20
6.997305
 30
0.0
 10
15.521933
 20
6.997276
 30
0.0
  0
ENDSEC
  0
SECTION
  2
OBJECTS
  0
DICTIONARY
  5
C
330
0
100
AcDbDictionary
  3
ACAD_GROUP
350
D
  3
ACAD_MLINESTYLE
350
17
  0
DICTIONARY
  5
D
330
C
100
AcDbDictionary
  0
DICTIONARY
  5
1A
330
C
100
AcDbDictionary
  0
DICTIONARY
  5
17
330
C
100
AcDbDictionary
  3
STANDARD
350
18
  0
DICTIONARY
  5
19
330
C
100
AcDbDictionary
  0
ENDSEC
  0
EOF
