  0
SECTION
  2
HEADER
  9
$ACADVER
  1
AC1014
  9
$HANDSEED
  5
FFFF
  9
$MEASUREMENT
 70
     1
  0
ENDSEC
  0
SECTION
  2
TABLES
  0
TABLE
  2
VPORT
  5
8
330
0
100
AcDbSymbolTable
 70
     4
  0
VPORT
  5
2E
330
8
100
AcDbSymbolTableRecord
100
AcDbViewportTableRecord
  2
*ACTIVE
 70
     0
 10
0.0
 20
0.0
 11
1.0
 21
1.0
 12
210.0
 22
148.5
 13
0.0
 23
0.0
 14
10.0
 24
10.0
 15
10.0
 25
10.0
 16
0.0
 26
0.0
 36
1.0
 17
0.0
 27
0.0
 37
0.0
 40
341.0
 41
1.24
 42
50.0
 43
0.0
 44
0.0
 50
0.0
 51
0.0
 71
     0
 72
   100
 73
     1
 74
     3
 75
     0
 76
     0
 77
     0
 78
     0
  0
ENDTAB
  0
TABLE
  2
LTYPE
  5
5
330
0
100
AcDbSymbolTable
 70
     1
  0
LTYPE
  5
14
330
5
100
AcDbSymbolTableRecord
100
AcDbLinetypeTableRecord
  2
BYBLOCK
 70
     0
  3

 72
    65
 73
     0
 40
0.0
  0
LTYPE
  5
15
330
5
100
AcDbSymbolTableRecord
100
AcDbLinetypeTableRecord
  2
BYLAYER
 70
     0
  3

 72
    65
 73
     0
 40
0.0
  0
LTYPE
  5
16
330
5
100
AcDbSymbolTableRecord
100
AcDbLinetypeTableRecord
  2
CONTINUOUS
 70
     0
  3
Solid line
 72
    65
 73
     0
 40
0.0
  0
ENDTAB
  0
TABLE
  2
LAYER
  5
2
100
AcDbSymbolTable
 70
2
  0
LAYER
  5
50
100
AcDbSymbolTableRecord
100
AcDbLayerTableRecord
  2
0
 70
0
  6
CONTINUOUS
  0
LAYER
  5
51
100
AcDbSymbolTableRecord
100
AcDbLayerTableRecord
  2
Layer_1
 70
0
  6
CONTINUOUS
  0
ENDTAB
  0
TABLE
  2
STYLE
  5
3
330
0
100
AcDbSymbolTable
 70
     1
  0
STYLE
  5
11
330
3
100
AcDbSymbolTableRecord
100
AcDbTextStyleTableRecord
  2
STANDARD
 70
     0
 40
0.0
 41
1.0
 50
0.0
 71
     0
 42
2.5
  3
txt
  4

  0
ENDTAB
  0
TABLE
  2
VIEW
  5
6
330
0
100
AcDbSymbolTable
 70
     0
  0
ENDTAB
  0
TABLE
  2
UCS
  5
7
330
0
100
AcDbSymbolTable
 70
     0
  0
ENDTAB
  0
TABLE
  2
APPID
  5
9
330
0
100
AcDbSymbolTable
 70
     2
  0
APPID
  5
12
330
9
100
AcDbSymbolTableRecord
100
AcDbRegAppTableRecord
  2
ACAD
 70
     0
  0
ENDTAB
  0
TABLE
  2
DIMSTYLE
  5
A
330
0
100
AcDbSymbolTable
 70
     1
  0
DIMSTYLE
105
27
330
A
100
AcDbSymbolTableRecord
100
AcDbDimStyleTableRecord
  2
ISO-25
 70
     0
  3

  4

  5

  6

  7

 40
1.0
 41
2.5
 42
0.625
 43
3.75
 44
1.25
 45
0.0
 46
0.0
 47
0.0
 48
0.0
140
2.5
141
2.5
142
0.0
143
0.03937007874016
144
1.0
145
0.0
146
1.0
147
0.625
 71
     0
 72
     0
 73
     0
 74
     0
 75
     0
 76
     0
 77
     1
 78
     8
170
     0
171
     3
172
     1
173
     0
174
     0
175
     0
176
     0
177
     0
178
     0
270
     2
271
     2
272
     2
273
     2
274
     3
340
11
275
     0
280
     0
281
     0
282
     0
283
     0
284
     8
285
     0
286
     0
287
     3
288
     0
  0
ENDTAB
  0
TABLE
  2
BLOCK_RECORD
  5
1
330
0
100
AcDbSymbolTable
 70
     1
  0
BLOCK_RECORD
  5
1F
330
1
100
AcDbSymbolTableRecord
100
AcDbBlockTableRecord
  2
*MODEL_SPACE
  0
BLOCK_RECORD
  5
1B
330
1
100
AcDbSymbolTableRecord
100
AcDbBlockTableRecord
  2
*PAPER_SPACE
  0
ENDTAB
  0
ENDSEC
  0
SECTION
  2
BLOCKS
  0
BLOCK
  5
20
330
1F
100
AcDbEntity
  8
0
100
AcDbBlockBegin
  2
*MODEL_SPACE
 70
     0
 10
0.0
 20
0.0
 30
0.0
  3
*MODEL_SPACE
  1

  0
ENDBLK
  5
21
330
1F
100
AcDbEntity
  8
0
100
AcDbBlockEnd
  0
BLOCK
  5
1C
330
1B
100
AcDbEntity
 67
     1
  8
0
100
AcDbBlockBegin
  2
*PAPER_SPACE
  1

  0
ENDBLK
  5
1D
330
1B
100
AcDbEntity
 67
     1
  8
0
100
AcDbBlockEnd
  0
ENDSEC
  0
SECTION
  2
ENTITIES
  0
LINE
  5
100
100
AcDbEntity
  8
Layer_1
 62
1
100
AcDbLine
 10
1040.627106
 20
87.936688
 30
0.0
 11
1340.849709
 21
614.069113
 31
0.0
  0
LINE
  5
101
100
AcDbEntity
  8
Layer_1
 62
1
100
AcDbLine
 10
1340.849709
 20
614.069113
 30
0.0
 11
1035.316707
 21
1137.135899
 31
0.0
  0
LINE
  5
102
100
AcDbEntity
  8
Layer_1
 62
1
100
AcDbLine
 10
1035.316707
 20
1137.135899
 30
0.0
 11
429.560962
 21
1134.069908
 31
0.0
  0
LINE
  5
103
100
AcDbEntity
  8
Layer_1
 62
1
100
AcDbLine
 10
429.560962
 20
1134.069908
 30
0.0
 11
129.338783
 21
607.937130
 31
0.0
  0
LINE
  5
104
100
AcDbEntity
  8
Layer_1
 62
1
100
AcDbLine
 10
129.338783
 20
607.937130
 30
0.0
 11
434.871326
 21
84.870696
 31
0.0
  0
LINE
  5
105
100
AcDbEntity
  8
Layer_1
 62
1
100
AcDbLine
 10
434.871326
 20
84.870696
 30
0.0
 11
1040.627106
 21
87.936688
 31
0.0
  0
LINE
  5
106
100
AcDbEntity
  8
Layer_1
 62
1
100
AcDbLine
 10
1040.627106
 20
87.936688
 30
0.0
 11
1040.627106
 21
87.936688
 31
0.0
  0
LINE
  5
107
100
AcDbEntity
  8
Layer_1
 62
5
100
AcDbLine
 10
1097.063648
 20
283.531505
 30
0.0
 11
1058.523911
 21
216.778894
 31
0.0
  0
LINE
  5
108
100
AcDbEntity
  8
Layer_1
 62
5
100
AcDbLine
 10
1058.523911
 20
216.778894
 30
0.0
 11
981.444401
 21
216.778894
 31
0.0
  0
LINE
  5
109
100
AcDbEntity
  8
Layer_1
 62
5
100
AcDbLine
 10
981.444401
 20
216.778894
 30
0.0
 11
951.559396
 21
268.541624
 31
0.0
  0
LINE
  5
10a
100
AcDbEntity
  8
Layer_1
 62
5
100
AcDbLine
 10
951.559396
 20
268.541624
 30
0.0
 11
981.371270
 21
268.541624
 31
0.0
  0
LINE
  5
10b
100
AcDbEntity
  8
Layer_1
 62
5
100
AcDbLine
 10
981.371270
 20
268.541624
 30
0.0
 11
1013.662255
 21
324.471013
 31
0.0
  0
LINE
  5
10c
100
AcDbEntity
  8
Layer_1
 62
5
100
AcDbLine
 10
1013.662255
 20
324.471013
 30
0.0
 11
998.759122
 21
350.284821
 31
0.0
  0
LINE
  5
10d
100
AcDbEntity
  8
Layer_1
 62
5
100
AcDbLine
 10
998.759122
 20
350.284821
 30
0.0
 11
1058.524052
 21
350.284821
 31
0.0
  0
LINE
  5
10e
100
AcDbEntity
  8
Layer_1
 62
5
100
AcDbLine
 10
1058.524052
 20
350.284821
 30
0.0
 11
1097.063648
 21
283.531858
 31
0.0
  0
LINE
  5
10f
100
AcDbEntity
  8
Layer_1
 62
5
100
AcDbLine
 10
1097.063648
 20
283.531858
 30
0.0
 11
1097.063648
 21
283.531505
 31
0.0
  0
LINE
  5
110
100
AcDbEntity
  8
Layer_1
 62
5
100
AcDbLine
 10
1238.675069
 20
529.093060
 30
0.0
 11
1200.135155
 21
462.340096
 31
0.0
  0
LINE
  5
111
100
AcDbEntity
  8
Layer_1
 62
5
100
AcDbLine
 10
1200.135155
 20
462.340096
 30
0.0
 11
1123.055292
 21
462.340096
 31
0.0
  0
LINE
  5
112
100
AcDbEntity
  8
Layer_1
 62
5
100
AcDbLine
 10
1123.055292
 20
462.340096
 30
0.0
 11
1093.170675
 21
514.103533
 31
0.0
  0
LINE
  5
113
100
AcDbEntity
  8
Layer_1
 62
5
100
AcDbLine
 10
1093.170675
 20
514.103533
 30
0.0
 11
1122.982549
 21
514.103533
 31
0.0
  0
LINE
  5
114
100
AcDbEntity
  8
Layer_1
 62
5
100
AcDbLine
 10
1122.982549
 20
514.103533
 30
0.0
 11
1155.273358
 21
570.032569
 31
0.0
  0
LINE
  5
115
100
AcDbEntity
  8
Layer_1
 62
5
100
AcDbLine
 10
1155.273358
 20
570.032569
 30
0.0
 11
1140.370190
 21
595.846377
 31
0.0
  0
LINE
  5
116
100
AcDbEntity
  8
Layer_1
 62
5
100
AcDbLine
 10
1140.370190
 20
595.846377
 30
0.0
 11
1200.135120
 21
595.846377
 31
0.0
  0
LINE
  5
117
100
AcDbEntity
  8
Layer_1
 62
5
100
AcDbLine
 10
1200.135120
 20
595.846377
 30
0.0
 11
1238.675069
 21
529.094119
 31
0.0
  0
LINE
  5
118
100
AcDbEntity
  8
Layer_1
 62
5
100
AcDbLine
 10
1238.675069
 20
529.094119
 30
0.0
 11
1238.675069
 21
529.093060
 31
0.0
  0
LINE
  5
119
100
AcDbEntity
  8
Layer_1
 62
5
100
AcDbLine
 10
1097.018775
 20
447.260610
 30
0.0
 11
1058.478861
 21
380.507646
 31
0.0
  0
LINE
  5
11a
100
AcDbEntity
  8
Layer_1
 62
5
100
AcDbLine
 10
1058.478861
 20
380.507646
 30
0.0
 11
998.664648
 21
380.507646
 31
0.0
  0
LINE
  5
11b
100
AcDbEntity
  8
Layer_1
 62
5
100
AcDbLine
 10
998.664648
 20
380.507646
 30
0.0
 11
1013.637419
 21
406.441046
 31
0.0
  0
LINE
  5
11c
100
AcDbEntity
  8
Layer_1
 62
5
100
AcDbLine
 10
1013.637419
 20
406.441046
 30
0.0
 11
981.346999
 21
462.370788
 31
0.0
  0
LINE
  5
11d
100
AcDbEntity
  8
Layer_1
 62
5
100
AcDbLine
 10
981.346999
 20
462.370788
 30
0.0
 11
951.582750
 21
462.370788
 31
0.0
  0
LINE
  5
11e
100
AcDbEntity
  8
Layer_1
 62
5
100
AcDbLine
 10
951.582750
 20
462.370788
 30
0.0
 11
972.594370
 21
498.764049
 31
0.0
  0
LINE
  5
11f
100
AcDbEntity
  8
Layer_1
 62
5
100
AcDbLine
 10
972.594370
 20
498.764049
 30
0.0
 11
987.393963
 21
473.130158
 31
0.0
  0
LINE
  5
120
100
AcDbEntity
  8
Layer_1
 62
5
100
AcDbLine
 10
987.393963
 20
473.130158
 30
0.0
 11
996.054198
 21
473.130158
 31
0.0
  0
LINE
  5
121
100
AcDbEntity
  8
Layer_1
 62
5
100
AcDbLine
 10
996.054198
 20
473.130158
 30
0.0
 11
1051.975368
 21
473.130158
 31
0.0
  0
LINE
  5
122
100
AcDbEntity
  8
Layer_1
 62
5
100
AcDbLine
 10
1051.975368
 20
473.130158
 30
0.0
 11
1067.029277
 21
499.203963
 31
0.0
  0
LINE
  5
123
100
AcDbEntity
  8
Layer_1
 62
5
100
AcDbLine
 10
1067.029277
 20
499.203963
 30
0.0
 11
1097.018775
 21
447.260963
 31
0.0
  0
LINE
  5
124
100
AcDbEntity
  8
Layer_1
 62
5
100
AcDbLine
 10
1097.018775
 20
447.260963
 30
0.0
 11
1097.018775
 21
447.260610
 31
0.0
  0
LINE
  5
125
100
AcDbEntity
  8
Layer_1
 62
5
100
AcDbLine
 10
955.234740
 20
201.691294
 30
0.0
 11
916.695179
 21
134.938683
 31
0.0
  0
LINE
  5
126
100
AcDbEntity
  8
Layer_1
 62
5
100
AcDbLine
 10
916.695179
 20
134.938683
 30
0.0
 11
839.615034
 21
134.938683
 31
0.0
  0
LINE
  5
127
100
AcDbEntity
  8
Layer_1
 62
5
100
AcDbLine
 10
839.615034
 20
134.938683
 30
0.0
 11
801.075614
 21
201.691646
 31
0.0
  0
LINE
  5
128
100
AcDbEntity
  8
Layer_1
 62
5
100
AcDbLine
 10
801.075614
 20
201.691646
 30
0.0
 11
830.899447
 21
253.348191
 31
0.0
  0
LINE
  5
129
100
AcDbEntity
  8
Layer_1
 62
5
100
AcDbLine
 10
830.899447
 20
253.348191
 30
0.0
 11
845.782860
 21
227.568602
 31
0.0
  0
LINE
  5
12a
100
AcDbEntity
  8
Layer_1
 62
5
100
AcDbLine
 10
845.782860
 20
227.568602
 30
0.0
 11
854.442954
 21
227.568602
 31
0.0
  0
LINE
  5
12b
100
AcDbEntity
  8
Layer_1
 62
5
100
AcDbLine
 10
854.442954
 20
227.568602
 30
0.0
 11
910.364300
 21
227.568602
 31
0.0
  0
LINE
  5
12c
100
AcDbEntity
  8
Layer_1
 62
5
100
AcDbLine
 10
910.364300
 20
227.568602
 30
0.0
 11
925.329310
 21
253.488949
 31
0.0
  0
LINE
  5
12d
100
AcDbEntity
  8
Layer_1
 62
5
100
AcDbLine
 10
925.329310
 20
253.488949
 30
0.0
 11
955.234740
 21
201.691294
 31
0.0
  0
LINE
  5
12e
100
AcDbEntity
  8
Layer_1
 62
5
100
AcDbLine
 10
955.234740
 20
201.691294
 30
0.0
 11
955.234740
 21
201.691294
 31
0.0
  0
LINE
  5
12f
100
AcDbEntity
  8
Layer_1
 62
5
100
AcDbLine
 10
1238.629666
 20
692.821460
 30
0.0
 11
1200.089929
 21
626.068496
 31
0.0
  0
LINE
  5
130
100
AcDbEntity
  8
Layer_1
 62
5
100
AcDbLine
 10
1200.089929
 20
626.068496
 30
0.0
 11
1140.275716
 21
626.068496
 31
0.0
  0
LINE
  5
131
100
AcDbEntity
  8
Layer_1
 62
5
100
AcDbLine
 10
1140.275716
 20
626.068496
 30
0.0
 11
1155.248310
 21
652.001896
 31
0.0
  0
LINE
  5
132
100
AcDbEntity
  8
Layer_1
 62
5
100
AcDbLine
 10
1155.248310
 20
652.001896
 30
0.0
 11
1122.957714
 21
707.930933
 31
0.0
  0
LINE
  5
133
100
AcDbEntity
  8
Layer_1
 62
5
100
AcDbLine
 10
1122.957714
 20
707.930933
 30
0.0
 11
1093.193465
 21
707.930933
 31
0.0
  0
LINE
  5
134
100
AcDbEntity
  8
Layer_1
 62
5
100
AcDbLine
 10
1093.193465
 20
707.930933
 30
0.0
 11
1123.010066
 21
759.574777
 31
0.0
  0
LINE
  5
135
100
AcDbEntity
  8
Layer_1
 62
5
100
AcDbLine
 10
1123.010066
 20
759.574777
 30
0.0
 11
1200.090105
 21
759.574777
 31
0.0
  0
LINE
  5
136
100
AcDbEntity
  8
Layer_1
 62
5
100
AcDbLine
 10
1200.090105
 20
759.574777
 30
0.0
 11
1238.629666
 21
692.822166
 31
0.0
  0
LINE
  5
137
100
AcDbEntity
  8
Layer_1
 62
5
100
AcDbLine
 10
1238.629666
 20
692.822166
 30
0.0
 11
1238.629666
 21
692.821460
 31
0.0
  0
LINE
  5
138
100
AcDbEntity
  8
Layer_1
 62
5
100
AcDbLine
 10
979.021452
 20
324.471013
 30
0.0
 11
964.050975
 21
298.541141
 31
0.0
  0
LINE
  5
139
100
AcDbEntity
  8
Layer_1
 62
5
100
AcDbLine
 10
964.050975
 20
298.541141
 30
0.0
 11
951.570614
 21
298.541141
 31
0.0
  0
LINE
  5
13a
100
AcDbEntity
  8
Layer_1
 62
5
100
AcDbLine
 10
951.570614
 20
298.541141
 30
0.0
 11
972.781201
 21
335.279066
 31
0.0
  0
LINE
  5
13b
100
AcDbEntity
  8
Layer_1
 62
5
100
AcDbLine
 10
972.781201
 20
335.279066
 30
0.0
 11
979.021452
 21
324.471013
 31
0.0
  0
LINE
  5
13c
100
AcDbEntity
  8
Layer_1
 62
5
100
AcDbLine
 10
979.021452
 20
324.471013
 30
0.0
 11
979.021452
 21
324.471013
 31
0.0
  0
LINE
  5
13d
100
AcDbEntity
  8
Layer_1
 62
5
100
AcDbLine
 10
1120.632520
 20
570.031863
 30
0.0
 11
1105.662395
 21
544.102696
 31
0.0
  0
LINE
  5
13e
100
AcDbEntity
  8
Layer_1
 62
5
100
AcDbLine
 10
1105.662395
 20
544.102696
 30
0.0
 11
1093.182035
 21
544.102696
 31
0.0
  0
LINE
  5
13f
100
AcDbEntity
  8
Layer_1
 62
5
100
AcDbLine
 10
1093.182035
 20
544.102696
 30
0.0
 11
1114.392446
 21
580.840269
 31
0.0
  0
LINE
  5
140
100
AcDbEntity
  8
Layer_1
 62
5
100
AcDbLine
 10
1114.392446
 20
580.840269
 30
0.0
 11
1120.632520
 21
570.031863
 31
0.0
  0
LINE
  5
141
100
AcDbEntity
  8
Layer_1
 62
5
100
AcDbLine
 10
1120.632520
 20
570.031863
 30
0.0
 11
1120.632520
 21
570.031863
 31
0.0
  0
LINE
  5
142
100
AcDbEntity
  8
Layer_1
 62
5
100
AcDbLine
 10
946.870556
 20
350.400180
 30
0.0
 11
925.520268
 21
313.420249
 31
0.0
  0
LINE
  5
143
100
AcDbEntity
  8
Layer_1
 62
5
100
AcDbLine
 10
925.520268
 20
313.420249
 30
0.0
 11
919.140317
 21
324.470308
 31
0.0
  0
LINE
  5
144
100
AcDbEntity
  8
Layer_1
 62
5
100
AcDbLine
 10
919.140317
 20
324.470308
 30
0.0
 11
934.110795
 21
350.400180
 31
0.0
  0
LINE
  5
145
100
AcDbEntity
  8
Layer_1
 62
5
100
AcDbLine
 10
934.110795
 20
350.400180
 30
0.0
 11
946.870556
 21
350.400180
 31
0.0
  0
LINE
  5
146
100
AcDbEntity
  8
Layer_1
 62
5
100
AcDbLine
 10
946.870556
 20
350.400180
 30
0.0
 11
946.870556
 21
350.400180
 31
0.0
  0
LINE
  5
147
100
AcDbEntity
  8
Layer_1
 62
5
100
AcDbLine
 10
1088.480988
 20
595.961030
 30
0.0
 11
1067.130877
 21
558.981452
 31
0.0
  0
LINE
  5
148
100
AcDbEntity
  8
Layer_1
 62
5
100
AcDbLine
 10
1067.130877
 20
558.981452
 30
0.0
 11
1060.751279
 21
570.032216
 31
0.0
  0
LINE
  5
149
100
AcDbEntity
  8
Layer_1
 62
5
100
AcDbLine
 10
1060.751279
 20
570.032216
 30
0.0
 11
1075.721404
 21
595.961030
 31
0.0
  0
LINE
  5
14a
100
AcDbEntity
  8
Layer_1
 62
5
100
AcDbLine
 10
1075.721404
 20
595.961030
 30
0.0
 11
1088.480988
 21
595.961030
 31
0.0
  0
LINE
  5
14b
100
AcDbEntity
  8
Layer_1
 62
5
100
AcDbLine
 10
1088.480988
 20
595.961030
 30
0.0
 11
1088.480988
 21
595.961030
 31
0.0
  0
LINE
  5
14c
100
AcDbEntity
  8
Layer_1
 62
5
100
AcDbLine
 10
978.996546
 20
406.441046
 30
0.0
 11
972.711634
 21
395.555030
 31
0.0
  0
LINE
  5
14d
100
AcDbEntity
  8
Layer_1
 62
5
100
AcDbLine
 10
972.711634
 20
395.555030
 30
0.0
 11
951.456243
 21
432.369860
 31
0.0
  0
LINE
  5
14e
100
AcDbEntity
  8
Layer_1
 62
5
100
AcDbLine
 10
951.456243
 20
432.369860
 30
0.0
 11
964.026139
 21
432.369860
 31
0.0
  0
LINE
  5
14f
100
AcDbEntity
  8
Layer_1
 62
5
100
AcDbLine
 10
964.026139
 20
432.369860
 30
0.0
 11
978.996546
 21
406.441046
 31
0.0
  0
LINE
  5
150
100
AcDbEntity
  8
Layer_1
 62
5
100
AcDbLine
 10
978.996546
 20
406.441046
 30
0.0
 11
978.996546
 21
406.441046
 31
0.0
  0
LINE
  5
151
100
AcDbEntity
  8
Layer_1
 62
5
100
AcDbLine
 10
899.323802
 20
268.443552
 30
0.0
 11
893.045063
 21
257.568471
 31
0.0
  0
LINE
  5
152
100
AcDbEntity
  8
Layer_1
 62
5
100
AcDbLine
 10
893.045063
 20
257.568471
 30
0.0
 11
863.104178
 21
257.568471
 31
0.0
  0
LINE
  5
153
100
AcDbEntity
  8
Layer_1
 62
5
100
AcDbLine
 10
863.104178
 20
257.568471
 30
0.0
 11
856.825016
 21
268.444610
 31
0.0
  0
LINE
  5
154
100
AcDbEntity
  8
Layer_1
 62
5
100
AcDbLine
 10
856.825016
 20
268.444610
 30
0.0
 11
899.323802
 21
268.444610
 31
0.0
  0
LINE
  5
155
100
AcDbEntity
  8
Layer_1
 62
5
100
AcDbLine
 10
899.323802
 20
268.444610
 30
0.0
 11
899.323802
 21
268.443552
 31
0.0
  0
LINE
  5
156
100
AcDbEntity
  8
Layer_1
 62
5
100
AcDbLine
 10
1120.608249
 20
652.000485
 30
0.0
 11
1114.323513
 21
641.115174
 31
0.0
  0
LINE
  5
157
100
AcDbEntity
  8
Layer_1
 62
5
100
AcDbLine
 10
1114.323513
 20
641.115174
 30
0.0
 11
1093.068123
 21
677.930005
 31
0.0
  0
LINE
  5
158
100
AcDbEntity
  8
Layer_1
 62
5
100
AcDbLine
 10
1093.068123
 20
677.930005
 30
0.0
 11
1105.638195
 21
677.930005
 31
0.0
  0
LINE
  5
159
100
AcDbEntity
  8
Layer_1
 62
5
100
AcDbLine
 10
1105.638195
 20
677.930005
 30
0.0
 11
1120.608249
 21
652.000485
 31
0.0
  0
LINE
  5
15a
100
AcDbEntity
  8
Layer_1
 62
5
100
AcDbLine
 10
1120.608249
 20
652.000485
 30
0.0
 11
1120.608249
 21
652.000485
 31
0.0
  0
LINE
  5
15b
100
AcDbEntity
  8
Layer_1
 62
5
100
AcDbLine
 10
1040.940620
 20
514.012163
 30
0.0
 11
1034.656766
 21
503.128263
 31
0.0
  0
LINE
  5
15c
100
AcDbEntity
  8
Layer_1
 62
5
100
AcDbLine
 10
1034.656766
 20
503.128263
 30
0.0
 11
1004.716410
 21
503.128263
 31
0.0
  0
LINE
  5
15d
100
AcDbEntity
  8
Layer_1
 62
5
100
AcDbLine
 10
1004.716410
 20
503.128263
 30
0.0
 11
998.432344
 21
514.012516
 31
0.0
  0
LINE
  5
15e
100
AcDbEntity
  8
Layer_1
 62
5
100
AcDbLine
 10
998.432344
 20
514.012516
 30
0.0
 11
1040.940620
 21
514.012516
 31
0.0
  0
LINE
  5
15f
100
AcDbEntity
  8
Layer_1
 62
5
100
AcDbLine
 10
1040.940620
 20
514.012516
 30
0.0
 11
1040.940620
 21
514.012163
 31
0.0
  0
LINE
  5
160
100
AcDbEntity
  8
Layer_1
 62
5
100
AcDbLine
 10
899.386561
 20
298.443774
 30
0.0
 11
856.764514
 21
298.443774
 31
0.0
  0
LINE
  5
161
100
AcDbEntity
  8
Layer_1
 62
5
100
AcDbLine
 10
856.764514
 20
298.443774
 30
0.0
 11
863.105518
 21
309.426452
 31
0.0
  0
LINE
  5
162
100
AcDbEntity
  8
Layer_1
 62
5
100
AcDbLine
 10
863.105518
 20
309.426452
 30
0.0
 11
893.045733
 21
309.426452
 31
0.0
  0
LINE
  5
163
100
AcDbEntity
  8
Layer_1
 62
5
100
AcDbLine
 10
893.045733
 20
309.426452
 30
0.0
 11
899.386561
 21
298.444480
 31
0.0
  0
LINE
  5
164
100
AcDbEntity
  8
Layer_1
 62
5
100
AcDbLine
 10
899.386561
 20
298.444480
 30
0.0
 11
899.386561
 21
298.443774
 31
0.0
  0
LINE
  5
165
100
AcDbEntity
  8
Layer_1
 62
5
100
AcDbLine
 10
946.758443
 20
380.510469
 30
0.0
 11
934.087582
 21
380.510469
 31
0.0
  0
LINE
  5
166
100
AcDbEntity
  8
Layer_1
 62
5
100
AcDbLine
 10
934.087582
 20
380.510469
 30
0.0
 11
919.116999
 21
406.440341
 31
0.0
  0
LINE
  5
167
100
AcDbEntity
  8
Layer_1
 62
5
100
AcDbLine
 10
919.116999
 20
406.440341
 30
0.0
 11
925.452358
 21
417.413494
 31
0.0
  0
LINE
  5
168
100
AcDbEntity
  8
Layer_1
 62
5
100
AcDbLine
 10
925.452358
 20
417.413494
 30
0.0
 11
946.758443
 21
380.511174
 31
0.0
  0
LINE
  5
169
100
AcDbEntity
  8
Layer_1
 62
5
100
AcDbLine
 10
946.758443
 20
380.511174
 30
0.0
 11
946.758443
 21
380.510469
 31
0.0
  0
LINE
  5
16a
100
AcDbEntity
  8
Layer_1
 62
5
100
AcDbLine
 10
1040.993536
 20
544.012738
 30
0.0
 11
998.380486
 21
544.012738
 31
0.0
  0
LINE
  5
16b
100
AcDbEntity
  8
Layer_1
 62
5
100
AcDbLine
 10
998.380486
 20
544.012738
 30
0.0
 11
1004.716727
 21
554.987302
 31
0.0
  0
LINE
  5
16c
100
AcDbEntity
  8
Layer_1
 62
5
100
AcDbLine
 10
1004.716727
 20
554.987302
 30
0.0
 11
1034.657295
 21
554.987302
 31
0.0
  0
LINE
  5
16d
100
AcDbEntity
  8
Layer_1
 62
5
100
AcDbLine
 10
1034.657295
 20
554.987302
 30
0.0
 11
1040.993536
 21
544.012738
 31
0.0
  0
LINE
  5
16e
100
AcDbEntity
  8
Layer_1
 62
5
100
AcDbLine
 10
1040.993536
 20
544.012738
 30
0.0
 11
1040.993536
 21
544.012738
 31
0.0
  0
LINE
  5
16f
100
AcDbEntity
  8
Layer_1
 62
5
100
AcDbLine
 10
1088.369828
 20
626.070613
 30
0.0
 11
1075.699285
 21
626.070613
 31
0.0
  0
LINE
  5
170
100
AcDbEntity
  8
Layer_1
 62
5
100
AcDbLine
 10
1075.699285
 20
626.070613
 30
0.0
 11
1060.728525
 21
651.999780
 31
0.0
  0
LINE
  5
171
100
AcDbEntity
  8
Layer_1
 62
5
100
AcDbLine
 10
1060.728525
 20
651.999780
 30
0.0
 11
1067.064061
 21
662.973285
 31
0.0
  0
LINE
  5
172
100
AcDbEntity
  8
Layer_1
 62
5
100
AcDbLine
 10
1067.064061
 20
662.973285
 30
0.0
 11
1088.369828
 21
626.070260
 31
0.0
  0
LINE
  5
173
100
AcDbEntity
  8
Layer_1
 62
5
100
AcDbLine
 10
1088.369828
 20
626.070260
 30
0.0
 11
1088.369828
 21
626.070613
 31
0.0
  0
LINE
  5
174
100
AcDbEntity
  8
Layer_1
 62
5
100
AcDbLine
 10
908.151713
 20
365.432746
 30
0.0
 11
893.136609
 21
339.425969
 31
0.0
  0
LINE
  5
175
100
AcDbEntity
  8
Layer_1
 62
5
100
AcDbLine
 10
893.136609
 20
339.425969
 30
0.0
 11
863.002825
 21
339.425969
 31
0.0
  0
LINE
  5
176
100
AcDbEntity
  8
Layer_1
 62
5
100
AcDbLine
 10
863.002825
 20
339.425969
 30
0.0
 11
843.152760
 21
373.807691
 31
0.0
  0
LINE
  5
177
100
AcDbEntity
  8
Layer_1
 62
5
100
AcDbLine
 10
843.152760
 20
373.807691
 30
0.0
 11
858.022873
 21
399.563644
 31
0.0
  0
LINE
  5
178
100
AcDbEntity
  8
Layer_1
 62
5
100
AcDbLine
 10
858.022873
 20
399.563644
 30
0.0
 11
888.446393
 21
399.563644
 31
0.0
  0
LINE
  5
179
100
AcDbEntity
  8
Layer_1
 62
5
100
AcDbLine
 10
888.446393
 20
399.563644
 30
0.0
 11
908.151713
 21
365.432746
 31
0.0
  0
LINE
  5
17a
100
AcDbEntity
  8
Layer_1
 62
5
100
AcDbLine
 10
908.151713
 20
365.432746
 30
0.0
 11
908.151713
 21
365.432746
 31
0.0
  0
LINE
  5
17b
100
AcDbEntity
  8
Layer_1
 62
5
100
AcDbLine
 10
1049.762781
 20
610.993596
 30
0.0
 11
1034.747677
 21
584.986819
 31
0.0
  0
LINE
  5
17c
100
AcDbEntity
  8
Layer_1
 62
5
100
AcDbLine
 10
1034.747677
 20
584.986819
 30
0.0
 11
995.865251
 21
584.986819
 31
0.0
  0
LINE
  5
17d
100
AcDbEntity
  8
Layer_1
 62
5
100
AcDbLine
 10
995.865251
 20
584.986819
 30
0.0
 11
980.460821
 21
611.667402
 31
0.0
  0
LINE
  5
17e
100
AcDbEntity
  8
Layer_1
 62
5
100
AcDbLine
 10
980.460821
 20
611.667402
 30
0.0
 11
995.127557
 21
637.070930
 31
0.0
  0
LINE
  5
17f
100
AcDbEntity
  8
Layer_1
 62
5
100
AcDbLine
 10
995.127557
 20
637.070930
 30
0.0
 11
996.004810
 21
637.070930
 31
0.0
  0
LINE
  5
180
100
AcDbEntity
  8
Layer_1
 62
5
100
AcDbLine
 10
996.004810
 20
637.070930
 30
0.0
 11
1034.707037
 21
637.070930
 31
0.0
  0
LINE
  5
181
100
AcDbEntity
  8
Layer_1
 62
5
100
AcDbLine
 10
1034.707037
 20
637.070930
 30
0.0
 11
1049.762781
 21
610.993596
 31
0.0
  0
LINE
  5
182
100
AcDbEntity
  8
Layer_1
 62
5
100
AcDbLine
 10
1049.762781
 20
610.993596
 30
0.0
 11
1049.762781
 21
610.993596
 31
0.0
  0
LINE
  5
183
100
AcDbEntity
  8
Layer_1
 62
5
100
AcDbLine
 10
951.564617
 20
522.332780
 30
0.0
 11
920.931688
 21
469.275002
 31
0.0
  0
LINE
  5
184
100
AcDbEntity
  8
Layer_1
 62
5
100
AcDbLine
 10
920.931688
 20
469.275002
 30
0.0
 11
909.602476
 21
488.897560
 31
0.0
  0
LINE
  5
185
100
AcDbEntity
  8
Layer_1
 62
5
100
AcDbLine
 10
909.602476
 20
488.897560
 30
0.0
 11
928.906300
 21
522.332780
 31
0.0
  0
LINE
  5
186
100
AcDbEntity
  8
Layer_1
 62
5
100
AcDbLine
 10
928.906300
 20
522.332780
 30
0.0
 11
951.564617
 21
522.332780
 31
0.0
  0
LINE
  5
187
100
AcDbEntity
  8
Layer_1
 62
5
100
AcDbLine
 10
951.564617
 20
522.332780
 30
0.0
 11
951.564617
 21
522.332780
 31
0.0
  0
LINE
  5
188
100
AcDbEntity
  8
Layer_1
 62
5
100
AcDbLine
 10
912.183293
 20
454.428702
 30
0.0
 11
889.167188
 21
414.563755
 31
0.0
  0
LINE
  5
189
100
AcDbEntity
  8
Layer_1
 62
5
100
AcDbLine
 10
889.167188
 20
414.563755
 30
0.0
 11
858.119075
 21
414.563755
 31
0.0
  0
LINE
  5
18a
100
AcDbEntity
  8
Layer_1
 62
5
100
AcDbLine
 10
858.119075
 20
414.563755
 30
0.0
 11
843.197880
 21
440.408960
 31
0.0
  0
LINE
  5
18b
100
AcDbEntity
  8
Layer_1
 62
5
100
AcDbLine
 10
843.197880
 20
440.408960
 30
0.0
 11
858.140736
 21
440.408960
 31
0.0
  0
LINE
  5
18c
100
AcDbEntity
  8
Layer_1
 62
5
100
AcDbLine
 10
858.140736
 20
440.408960
 30
0.0
 11
874.286140
 21
468.373655
 31
0.0
  0
LINE
  5
18d
100
AcDbEntity
  8
Layer_1
 62
5
100
AcDbLine
 10
874.286140
 20
468.373655
 30
0.0
 11
866.813072
 21
481.317424
 31
0.0
  0
LINE
  5
18e
100
AcDbEntity
  8
Layer_1
 62
5
100
AcDbLine
 10
866.813072
 20
481.317424
 30
0.0
 11
896.658530
 21
481.317424
 31
0.0
  0
LINE
  5
18f
100
AcDbEntity
  8
Layer_1
 62
5
100
AcDbLine
 10
896.658530
 20
481.317424
 30
0.0
 11
912.183293
 21
454.429408
 31
0.0
  0
LINE
  5
190
100
AcDbEntity
  8
Layer_1
 62
5
100
AcDbLine
 10
912.183293
 20
454.429408
 30
0.0
 11
912.183293
 21
454.428702
 31
0.0
  0
LINE
  5
191
100
AcDbEntity
  8
Layer_1
 62
5
100
AcDbLine
 10
982.970588
 20
577.320252
 30
0.0
 11
959.884105
 21
537.333244
 31
0.0
  0
LINE
  5
192
100
AcDbEntity
  8
Layer_1
 62
5
100
AcDbLine
 10
959.884105
 20
537.333244
 30
0.0
 11
928.977420
 21
537.333244
 31
0.0
  0
LINE
  5
193
100
AcDbEntity
  8
Layer_1
 62
5
100
AcDbLine
 10
928.977420
 20
537.333244
 30
0.0
 11
914.056331
 21
563.177744
 31
0.0
  0
LINE
  5
194
100
AcDbEntity
  8
Layer_1
 62
5
100
AcDbLine
 10
914.056331
 20
563.177744
 30
0.0
 11
928.999363
 21
563.177744
 31
0.0
  0
LINE
  5
195
100
AcDbEntity
  8
Layer_1
 62
5
100
AcDbLine
 10
928.999363
 20
563.177744
 30
0.0
 11
945.144767
 21
591.142438
 31
0.0
  0
LINE
  5
196
100
AcDbEntity
  8
Layer_1
 62
5
100
AcDbLine
 10
945.144767
 20
591.142438
 30
0.0
 11
937.671522
 21
604.085502
 31
0.0
  0
LINE
  5
197
100
AcDbEntity
  8
Layer_1
 62
5
100
AcDbLine
 10
937.671522
 20
604.085502
 30
0.0
 11
967.516981
 21
604.085502
 31
0.0
  0
LINE
  5
198
100
AcDbEntity
  8
Layer_1
 62
5
100
AcDbLine
 10
967.516981
 20
604.085502
 30
0.0
 11
982.970588
 21
577.319899
 31
0.0
  0
LINE
  5
199
100
AcDbEntity
  8
Layer_1
 62
5
100
AcDbLine
 10
982.970588
 20
577.319899
 30
0.0
 11
982.970588
 21
577.320252
 31
0.0
  0
LINE
  5
19a
100
AcDbEntity
  8
Layer_1
 62
5
100
AcDbLine
 10
804.698642
 20
268.565966
 30
0.0
 11
774.811308
 21
216.799708
 31
0.0
  0
LINE
  5
19b
100
AcDbEntity
  8
Layer_1
 62
5
100
AcDbLine
 10
774.811308
 20
216.799708
 30
0.0
 11
697.731445
 21
216.799708
 31
0.0
  0
LINE
  5
19c
100
AcDbEntity
  8
Layer_1
 62
5
100
AcDbLine
 10
697.731445
 20
216.799708
 30
0.0
 11
667.846476
 21
268.562085
 31
0.0
  0
LINE
  5
19d
100
AcDbEntity
  8
Layer_1
 62
5
100
AcDbLine
 10
667.846476
 20
268.562085
 30
0.0
 11
697.658667
 21
268.562085
 31
0.0
  0
LINE
  5
19e
100
AcDbEntity
  8
Layer_1
 62
5
100
AcDbLine
 10
697.658667
 20
268.562085
 30
0.0
 11
729.949476
 21
324.491474
 31
0.0
  0
LINE
  5
19f
100
AcDbEntity
  8
Layer_1
 62
5
100
AcDbLine
 10
729.949476
 20
324.491474
 30
0.0
 11
715.045355
 21
350.305635
 31
0.0
  0
LINE
  5
1a0
100
AcDbEntity
  8
Layer_1
 62
5
100
AcDbLine
 10
715.045355
 20
350.305635
 30
0.0
 11
757.360662
 21
350.305635
 31
0.0
  0
LINE
  5
1a1
100
AcDbEntity
  8
Layer_1
 62
5
100
AcDbLine
 10
757.360662
 20
350.305635
 30
0.0
 11
742.459328
 21
324.495708
 31
0.0
  0
LINE
  5
1a2
100
AcDbEntity
  8
Layer_1
 62
5
100
AcDbLine
 10
742.459328
 20
324.495708
 30
0.0
 11
774.750595
 21
268.566319
 31
0.0
  0
LINE
  5
1a3
100
AcDbEntity
  8
Layer_1
 62
5
100
AcDbLine
 10
774.750595
 20
268.566319
 30
0.0
 11
783.410620
 21
268.566319
 31
0.0
  0
LINE
  5
1a4
100
AcDbEntity
  8
Layer_1
 62
5
100
AcDbLine
 10
783.410620
 20
268.566319
 30
0.0
 11
804.698642
 21
268.566319
 31
0.0
  0
LINE
  5
1a5
100
AcDbEntity
  8
Layer_1
 62
5
100
AcDbLine
 10
804.698642
 20
268.566319
 30
0.0
 11
804.698642
 21
268.565966
 31
0.0
  0
LINE
  5
1a6
100
AcDbEntity
  8
Layer_1
 62
5
100
AcDbLine
 10
836.982289
 20
324.495002
 30
0.0
 11
830.668096
 21
313.558538
 31
0.0
  0
LINE
  5
1a7
100
AcDbEntity
  8
Layer_1
 62
5
100
AcDbLine
 10
830.668096
 20
313.558538
 30
0.0
 11
809.383319
 21
350.424874
 31
0.0
  0
LINE
  5
1a8
100
AcDbEntity
  8
Layer_1
 62
5
100
AcDbLine
 10
809.383319
 20
350.424874
 30
0.0
 11
822.011776
 21
350.424874
 31
0.0
  0
LINE
  5
1a9
100
AcDbEntity
  8
Layer_1
 62
5
100
AcDbLine
 10
822.011776
 20
350.424874
 30
0.0
 11
836.982289
 21
324.495355
 31
0.0
  0
LINE
  5
1aa
100
AcDbEntity
  8
Layer_1
 62
5
100
AcDbLine
 10
836.982289
 20
324.495355
 30
0.0
 11
836.982289
 21
324.495002
 31
0.0
  0
LINE
  5
1ab
100
AcDbEntity
  8
Layer_1
 62
5
100
AcDbLine
 10
1040.811150
 20
677.819233
 30
0.0
 11
1034.605789
 21
667.071152
 31
0.0
  0
LINE
  5
1ac
100
AcDbEntity
  8
Layer_1
 62
5
100
AcDbLine
 10
1034.605789
 20
667.071152
 30
0.0
 11
1004.665257
 21
667.071152
 31
0.0
  0
LINE
  5
1ad
100
AcDbEntity
  8
Layer_1
 62
5
100
AcDbLine
 10
1004.665257
 20
667.071152
 30
0.0
 11
998.460425
 21
677.819233
 31
0.0
  0
LINE
  5
1ae
100
AcDbEntity
  8
Layer_1
 62
5
100
AcDbLine
 10
998.460425
 20
677.819233
 30
0.0
 11
1040.811150
 21
677.819233
 31
0.0
  0
LINE
  5
1af
100
AcDbEntity
  8
Layer_1
 62
5
100
AcDbLine
 10
1040.811150
 20
677.819233
 30
0.0
 11
1040.811150
 21
677.819233
 31
0.0
  0
LINE
  5
1b0
100
AcDbEntity
  8
Layer_1
 62
5
100
AcDbLine
 10
1096.648464
 20
774.571713
 30
0.0
 11
1066.885309
 21
723.020296
 31
0.0
  0
LINE
  5
1b1
100
AcDbEntity
  8
Layer_1
 62
5
100
AcDbLine
 10
1066.885309
 20
723.020296
 30
0.0
 11
1051.926578
 21
748.929708
 31
0.0
  0
LINE
  5
1b2
100
AcDbEntity
  8
Layer_1
 62
5
100
AcDbLine
 10
1051.926578
 20
748.929708
 30
0.0
 11
987.345209
 21
748.929708
 31
0.0
  0
LINE
  5
1b3
100
AcDbEntity
  8
Layer_1
 62
5
100
AcDbLine
 10
987.345209
 20
748.929708
 30
0.0
 11
972.318992
 21
722.903527
 31
0.0
  0
LINE
  5
1b4
100
AcDbEntity
  8
Layer_1
 62
5
100
AcDbLine
 10
972.318992
 20
722.903527
 30
0.0
 11
951.143612
 21
759.581480
 31
0.0
  0
LINE
  5
1b5
100
AcDbEntity
  8
Layer_1
 62
5
100
AcDbLine
 10
951.143612
 20
759.581480
 30
0.0
 11
980.956262
 21
759.581480
 31
0.0
  0
LINE
  5
1b6
100
AcDbEntity
  8
Layer_1
 62
5
100
AcDbLine
 10
980.956262
 20
759.581480
 30
0.0
 11
1013.246894
 21
815.510163
 31
0.0
  0
LINE
  5
1b7
100
AcDbEntity
  8
Layer_1
 62
5
100
AcDbLine
 10
1013.246894
 20
815.510163
 30
0.0
 11
998.343232
 21
841.324324
 31
0.0
  0
LINE
  5
1b8
100
AcDbEntity
  8
Layer_1
 62
5
100
AcDbLine
 10
998.343232
 20
841.324324
 30
0.0
 11
1058.108198
 21
841.324324
 31
0.0
  0
LINE
  5
1b9
100
AcDbEntity
  8
Layer_1
 62
5
100
AcDbLine
 10
1058.108198
 20
841.324324
 30
0.0
 11
1096.648464
 21
774.571360
 31
0.0
  0
LINE
  5
1ba
100
AcDbEntity
  8
Layer_1
 62
5
100
AcDbLine
 10
1096.648464
 20
774.571360
 30
0.0
 11
1096.648464
 21
774.571713
 31
0.0
  0
LINE
  5
1bb
100
AcDbEntity
  8
Layer_1
 62
5
100
AcDbLine
 10
1041.020736
 20
707.818749
 30
0.0
 11
998.250628
 21
707.818749
 31
0.0
  0
LINE
  5
1bc
100
AcDbEntity
  8
Layer_1
 62
5
100
AcDbLine
 10
998.250628
 20
707.818749
 30
0.0
 11
1004.665363
 21
718.929485
 31
0.0
  0
LINE
  5
1bd
100
AcDbEntity
  8
Layer_1
 62
5
100
AcDbLine
 10
1004.665363
 20
718.929485
 30
0.0
 11
1034.605895
 21
718.929485
 31
0.0
  0
LINE
  5
1be
100
AcDbEntity
  8
Layer_1
 62
5
100
AcDbLine
 10
1034.605895
 20
718.929485
 30
0.0
 11
1041.020736
 21
707.818749
 31
0.0
  0
LINE
  5
1bf
100
AcDbEntity
  8
Layer_1
 62
5
100
AcDbLine
 10
1041.020736
 20
707.818749
 30
0.0
 11
1041.020736
 21
707.818749
 31
0.0
  0
LINE
  5
1c0
100
AcDbEntity
  8
Layer_1
 62
5
100
AcDbLine
 10
804.683190
 20
298.565835
 30
0.0
 11
792.071208
 21
298.565835
 31
0.0
  0
LINE
  5
1c1
100
AcDbEntity
  8
Layer_1
 62
5
100
AcDbLine
 10
792.071208
 20
298.565835
 30
0.0
 11
777.100801
 21
324.494649
 31
0.0
  0
LINE
  5
1c2
100
AcDbEntity
  8
Layer_1
 62
5
100
AcDbLine
 10
777.100801
 20
324.494649
 30
0.0
 11
783.407056
 21
335.417708
 31
0.0
  0
LINE
  5
1c3
100
AcDbEntity
  8
Layer_1
 62
5
100
AcDbLine
 10
783.407056
 20
335.417708
 30
0.0
 11
804.683190
 21
298.565835
 31
0.0
  0
LINE
  5
1c4
100
AcDbEntity
  8
Layer_1
 62
5
100
AcDbLine
 10
804.683190
 20
298.565835
 30
0.0
 11
804.683190
 21
298.565835
 31
0.0
  0
LINE
  5
1c5
100
AcDbEntity
  8
Layer_1
 62
5
100
AcDbLine
 10
845.019448
 20
407.040769
 30
0.0
 11
829.652801
 21
380.425096
 31
0.0
  0
LINE
  5
1c6
100
AcDbEntity
  8
Layer_1
 62
5
100
AcDbLine
 10
829.652801
 20
380.425096
 30
0.0
 11
783.307256
 21
380.425096
 31
0.0
  0
LINE
  5
1c7
100
AcDbEntity
  8
Layer_1
 62
5
100
AcDbLine
 10
783.307256
 20
380.425096
 30
0.0
 11
767.940256
 21
407.040769
 31
0.0
  0
LINE
  5
1c8
100
AcDbEntity
  8
Layer_1
 62
5
100
AcDbLine
 10
767.940256
 20
407.040769
 30
0.0
 11
782.866813
 21
432.894441
 31
0.0
  0
LINE
  5
1c9
100
AcDbEntity
  8
Layer_1
 62
5
100
AcDbLine
 10
782.866813
 20
432.894441
 30
0.0
 11
790.350535
 21
419.933033
 31
0.0
  0
LINE
  5
1ca
100
AcDbEntity
  8
Layer_1
 62
5
100
AcDbLine
 10
790.350535
 20
419.933033
 30
0.0
 11
822.641096
 21
419.933033
 31
0.0
  0
LINE
  5
1cb
100
AcDbEntity
  8
Layer_1
 62
5
100
AcDbLine
 10
822.641096
 20
419.933033
 30
0.0
 11
830.108696
 21
432.867277
 31
0.0
  0
LINE
  5
1cc
100
AcDbEntity
  8
Layer_1
 62
5
100
AcDbLine
 10
830.108696
 20
432.867277
 30
0.0
 11
845.019448
 21
407.041121
 31
0.0
  0
LINE
  5
1cd
100
AcDbEntity
  8
Layer_1
 62
5
100
AcDbLine
 10
845.019448
 20
407.041121
 30
0.0
 11
845.019448
 21
407.040769
 31
0.0
  0
LINE
  5
1ce
100
AcDbEntity
  8
Layer_1
 62
5
100
AcDbLine
 10
982.576323
 20
645.330163
 30
0.0
 11
967.500012
 21
619.217199
 31
0.0
  0
LINE
  5
1cf
100
AcDbEntity
  8
Layer_1
 62
5
100
AcDbLine
 10
967.500012
 20
619.217199
 30
0.0
 11
937.676073
 21
619.217199
 31
0.0
  0
LINE
  5
1d0
100
AcDbEntity
  8
Layer_1
 62
5
100
AcDbLine
 10
937.676073
 20
619.217199
 30
0.0
 11
945.136265
 21
632.138744
 31
0.0
  0
LINE
  5
1d1
100
AcDbEntity
  8
Layer_1
 62
5
100
AcDbLine
 10
945.136265
 20
632.138744
 30
0.0
 11
928.990825
 21
660.103791
 31
0.0
  0
LINE
  5
1d2
100
AcDbEntity
  8
Layer_1
 62
5
100
AcDbLine
 10
928.990825
 20
660.103791
 30
0.0
 11
924.660619
 21
660.103791
 31
0.0
  0
LINE
  5
1d3
100
AcDbEntity
  8
Layer_1
 62
5
100
AcDbLine
 10
924.660619
 20
660.103791
 30
0.0
 11
914.025604
 21
660.103791
 31
0.0
  0
LINE
  5
1d4
100
AcDbEntity
  8
Layer_1
 62
5
100
AcDbLine
 10
914.025604
 20
660.103791
 30
0.0
 11
928.959922
 21
685.970869
 31
0.0
  0
LINE
  5
1d5
100
AcDbEntity
  8
Layer_1
 62
5
100
AcDbLine
 10
928.959922
 20
685.970869
 30
0.0
 11
959.002266
 21
685.970869
 31
0.0
  0
LINE
  5
1d6
100
AcDbEntity
  8
Layer_1
 62
5
100
AcDbLine
 10
959.002266
 20
685.970869
 30
0.0
 11
963.708357
 21
677.819233
 31
0.0
  0
LINE
  5
1d7
100
AcDbEntity
  8
Layer_1
 62
5
100
AcDbLine
 10
963.708357
 20
677.819233
 30
0.0
 11
963.818953
 21
677.819233
 31
0.0
  0
LINE
  5
1d8
100
AcDbEntity
  8
Layer_1
 62
5
100
AcDbLine
 10
963.818953
 20
677.819233
 30
0.0
 11
982.576323
 21
645.330869
 31
0.0
  0
LINE
  5
1d9
100
AcDbEntity
  8
Layer_1
 62
5
100
AcDbLine
 10
982.576323
 20
645.330869
 30
0.0
 11
982.576323
 21
645.330163
 31
0.0
  0
LINE
  5
1da
100
AcDbEntity
  8
Layer_1
 62
5
100
AcDbLine
 10
915.877088
 20
529.810963
 30
0.0
 11
896.615421
 21
496.448769
 31
0.0
  0
LINE
  5
1db
100
AcDbEntity
  8
Layer_1
 62
5
100
AcDbLine
 10
896.615421
 20
496.448769
 30
0.0
 11
866.816741
 21
496.448769
 31
0.0
  0
LINE
  5
1dc
100
AcDbEntity
  8
Layer_1
 62
5
100
AcDbLine
 10
866.816741
 20
496.448769
 30
0.0
 11
874.276932
 21
509.369960
 31
0.0
  0
LINE
  5
1dd
100
AcDbEntity
  8
Layer_1
 62
5
100
AcDbLine
 10
874.276932
 20
509.369960
 30
0.0
 11
858.131352
 21
537.334655
 31
0.0
  0
LINE
  5
1de
100
AcDbEntity
  8
Layer_1
 62
5
100
AcDbLine
 10
858.131352
 20
537.334655
 30
0.0
 11
853.801498
 21
537.334655
 31
0.0
  0
LINE
  5
1df
100
AcDbEntity
  8
Layer_1
 62
5
100
AcDbLine
 10
853.801498
 20
537.334655
 30
0.0
 11
843.166271
 21
537.334655
 31
0.0
  0
LINE
  5
1e0
100
AcDbEntity
  8
Layer_1
 62
5
100
AcDbLine
 10
843.166271
 20
537.334655
 30
0.0
 11
853.736376
 21
555.642763
 31
0.0
  0
LINE
  5
1e1
100
AcDbEntity
  8
Layer_1
 62
5
100
AcDbLine
 10
853.736376
 20
555.642763
 30
0.0
 11
861.207010
 21
542.702874
 31
0.0
  0
LINE
  5
1e2
100
AcDbEntity
  8
Layer_1
 62
5
100
AcDbLine
 10
861.207010
 20
542.702874
 30
0.0
 11
893.498030
 21
542.702874
 31
0.0
  0
LINE
  5
1e3
100
AcDbEntity
  8
Layer_1
 62
5
100
AcDbLine
 10
893.498030
 20
542.702874
 30
0.0
 11
900.965982
 21
555.637824
 31
0.0
  0
LINE
  5
1e4
100
AcDbEntity
  8
Layer_1
 62
5
100
AcDbLine
 10
900.965982
 20
555.637824
 30
0.0
 11
915.877088
 21
529.811316
 31
0.0
  0
LINE
  5
1e5
100
AcDbEntity
  8
Layer_1
 62
5
100
AcDbLine
 10
915.877088
 20
529.811316
 30
0.0
 11
915.877088
 21
529.810963
 31
0.0
  0
LINE
  5
1e6
100
AcDbEntity
  8
Layer_1
 62
5
100
AcDbLine
 10
856.964857
 20
468.373302
 30
0.0
 11
849.479971
 21
455.409071
 31
0.0
  0
LINE
  5
1e7
100
AcDbEntity
  8
Layer_1
 62
5
100
AcDbLine
 10
849.479971
 20
455.409071
 30
0.0
 11
843.160310
 21
455.409071
 31
0.0
  0
LINE
  5
1e8
100
AcDbEntity
  8
Layer_1
 62
5
100
AcDbLine
 10
843.160310
 20
455.409071
 30
0.0
 11
853.804850
 21
473.845944
 31
0.0
  0
LINE
  5
1e9
100
AcDbEntity
  8
Layer_1
 62
5
100
AcDbLine
 10
853.804850
 20
473.845944
 30
0.0
 11
856.964857
 21
468.373302
 31
0.0
  0
LINE
  5
1ea
100
AcDbEntity
  8
Layer_1
 62
5
100
AcDbLine
 10
856.964857
 20
468.373302
 30
0.0
 11
856.964857
 21
468.373302
 31
0.0
  0
LINE
  5
1eb
100
AcDbEntity
  8
Layer_1
 62
5
100
AcDbLine
 10
927.823096
 20
591.142791
 30
0.0
 11
920.338033
 21
578.178560
 31
0.0
  0
LINE
  5
1ec
100
AcDbEntity
  8
Layer_1
 62
5
100
AcDbLine
 10
920.338033
 20
578.178560
 30
0.0
 11
914.019007
 21
578.178560
 31
0.0
  0
LINE
  5
1ed
100
AcDbEntity
  8
Layer_1
 62
5
100
AcDbLine
 10
914.019007
 20
578.178560
 30
0.0
 11
924.663547
 21
596.615433
 31
0.0
  0
LINE
  5
1ee
100
AcDbEntity
  8
Layer_1
 62
5
100
AcDbLine
 10
924.663547
 20
596.615433
 30
0.0
 11
927.823096
 21
591.142791
 31
0.0
  0
LINE
  5
1ef
100
AcDbEntity
  8
Layer_1
 62
5
100
AcDbLine
 10
927.823096
 20
591.142791
 30
0.0
 11
927.823096
 21
591.142791
 31
0.0
  0
LINE
  5
1f0
100
AcDbEntity
  8
Layer_1
 62
5
100
AcDbLine
 10
840.809751
 20
481.338238
 30
0.0
 11
830.174560
 21
462.917594
 31
0.0
  0
LINE
  5
1f1
100
AcDbEntity
  8
Layer_1
 62
5
100
AcDbLine
 10
830.174560
 20
462.917594
 30
0.0
 11
827.024254
 21
468.374008
 31
0.0
  0
LINE
  5
1f2
100
AcDbEntity
  8
Layer_1
 62
5
100
AcDbLine
 10
827.024254
 20
468.374008
 30
0.0
 11
834.509140
 21
481.338238
 31
0.0
  0
LINE
  5
1f3
100
AcDbEntity
  8
Layer_1
 62
5
100
AcDbLine
 10
834.509140
 20
481.338238
 30
0.0
 11
840.809751
 21
481.338238
 31
0.0
  0
LINE
  5
1f4
100
AcDbEntity
  8
Layer_1
 62
5
100
AcDbLine
 10
840.809751
 20
481.338238
 30
0.0
 11
840.809751
 21
481.338238
 31
0.0
  0
LINE
  5
1f5
100
AcDbEntity
  8
Layer_1
 62
5
100
AcDbLine
 10
911.668131
 20
604.107374
 30
0.0
 11
901.032940
 21
585.686377
 31
0.0
  0
LINE
  5
1f6
100
AcDbEntity
  8
Layer_1
 62
5
100
AcDbLine
 10
901.032940
 20
585.686377
 30
0.0
 11
897.882634
 21
591.143144
 31
0.0
  0
LINE
  5
1f7
100
AcDbEntity
  8
Layer_1
 62
5
100
AcDbLine
 10
897.882634
 20
591.143144
 30
0.0
 11
905.367696
 21
604.107374
 31
0.0
  0
LINE
  5
1f8
100
AcDbEntity
  8
Layer_1
 62
5
100
AcDbLine
 10
905.367696
 20
604.107374
 30
0.0
 11
911.668131
 21
604.107374
 31
0.0
  0
LINE
  5
1f9
100
AcDbEntity
  8
Layer_1
 62
5
100
AcDbLine
 10
911.668131
 20
604.107374
 30
0.0
 11
911.668131
 21
604.107374
 31
0.0
  0
LINE
  5
1fa
100
AcDbEntity
  8
Layer_1
 62
5
100
AcDbLine
 10
856.955861
 20
509.369608
 30
0.0
 11
853.798323
 21
503.900494
 31
0.0
  0
LINE
  5
1fb
100
AcDbEntity
  8
Layer_1
 62
5
100
AcDbLine
 10
853.798323
 20
503.900494
 30
0.0
 11
843.155053
 21
522.334544
 31
0.0
  0
LINE
  5
1fc
100
AcDbEntity
  8
Layer_1
 62
5
100
AcDbLine
 10
843.155053
 20
522.334544
 30
0.0
 11
849.470975
 21
522.334544
 31
0.0
  0
LINE
  5
1fd
100
AcDbEntity
  8
Layer_1
 62
5
100
AcDbLine
 10
849.470975
 20
522.334544
 30
0.0
 11
856.955861
 21
509.369608
 31
0.0
  0
LINE
  5
1fe
100
AcDbEntity
  8
Layer_1
 62
5
100
AcDbLine
 10
856.955861
 20
509.369608
 30
0.0
 11
856.955861
 21
509.369608
 31
0.0
  0
LINE
  5
1ff
100
AcDbEntity
  8
Layer_1
 62
5
100
AcDbLine
 10
817.146300
 20
440.417427
 30
0.0
 11
813.979767
 21
434.932791
 31
0.0
  0
LINE
  5
200
100
AcDbEntity
  8
Layer_1
 62
5
100
AcDbLine
 10
813.979767
 20
434.932791
 30
0.0
 11
799.009641
 21
434.932791
 31
0.0
  0
LINE
  5
201
100
AcDbEntity
  8
Layer_1
 62
5
100
AcDbLine
 10
799.009641
 20
434.932791
 30
0.0
 11
795.842932
 21
440.417074
 31
0.0
  0
LINE
  5
202
100
AcDbEntity
  8
Layer_1
 62
5
100
AcDbLine
 10
795.842932
 20
440.417074
 30
0.0
 11
817.146300
 21
440.417074
 31
0.0
  0
LINE
  5
203
100
AcDbEntity
  8
Layer_1
 62
5
100
AcDbLine
 10
817.146300
 20
440.417074
 30
0.0
 11
817.146300
 21
440.417427
 31
0.0
  0
LINE
  5
204
100
AcDbEntity
  8
Layer_1
 62
5
100
AcDbLine
 10
927.814276
 20
632.139449
 30
0.0
 11
924.656386
 21
626.669983
 31
0.0
  0
LINE
  5
205
100
AcDbEntity
  8
Layer_1
 62
5
100
AcDbLine
 10
924.656386
 20
626.669983
 30
0.0
 11
914.013327
 21
645.104033
 31
0.0
  0
LINE
  5
206
100
AcDbEntity
  8
Layer_1
 62
5
100
AcDbLine
 10
914.013327
 20
645.104033
 30
0.0
 11
920.329037
 21
645.104033
 31
0.0
  0
LINE
  5
207
100
AcDbEntity
  8
Layer_1
 62
5
100
AcDbLine
 10
920.329037
 20
645.104033
 30
0.0
 11
927.814276
 21
632.139449
 31
0.0
  0
LINE
  5
208
100
AcDbEntity
  8
Layer_1
 62
5
100
AcDbLine
 10
927.814276
 20
632.139449
 30
0.0
 11
927.814276
 21
632.139449
 31
0.0
  0
LINE
  5
209
100
AcDbEntity
  8
Layer_1
 62
5
100
AcDbLine
 10
888.004186
 20
563.186563
 30
0.0
 11
884.838005
 21
557.702280
 31
0.0
  0
LINE
  5
20a
100
AcDbEntity
  8
Layer_1
 62
5
100
AcDbLine
 10
884.838005
 20
557.702280
 30
0.0
 11
869.867880
 21
557.702280
 31
0.0
  0
LINE
  5
20b
100
AcDbEntity
  8
Layer_1
 62
5
100
AcDbLine
 10
869.867880
 20
557.702280
 30
0.0
 11
866.701171
 21
563.186563
 31
0.0
  0
LINE
  5
20c
100
AcDbEntity
  8
Layer_1
 62
5
100
AcDbLine
 10
866.701171
 20
563.186563
 30
0.0
 11
888.004186
 21
563.186563
 31
0.0
  0
LINE
  5
20d
100
AcDbEntity
  8
Layer_1
 62
5
100
AcDbLine
 10
888.004186
 20
563.186563
 30
0.0
 11
888.004186
 21
563.186563
 31
0.0
  0
LINE
  5
20e
100
AcDbEntity
  8
Layer_1
 62
5
100
AcDbLine
 10
671.521115
 20
201.712813
 30
0.0
 11
632.981377
 21
134.959849
 31
0.0
  0
LINE
  5
20f
100
AcDbEntity
  8
Layer_1
 62
5
100
AcDbLine
 10
632.981377
 20
134.959849
 30
0.0
 11
555.901867
 21
134.959849
 31
0.0
  0
LINE
  5
210
100
AcDbEntity
  8
Layer_1
 62
5
100
AcDbLine
 10
555.901867
 20
134.959849
 30
0.0
 11
517.361812
 21
201.712813
 31
0.0
  0
LINE
  5
211
100
AcDbEntity
  8
Layer_1
 62
5
100
AcDbLine
 10
517.361812
 20
201.712813
 30
0.0
 11
547.185469
 21
253.369005
 31
0.0
  0
LINE
  5
212
100
AcDbEntity
  8
Layer_1
 62
5
100
AcDbLine
 10
547.185469
 20
253.369005
 30
0.0
 11
562.069551
 21
227.589416
 31
0.0
  0
LINE
  5
213
100
AcDbEntity
  8
Layer_1
 62
5
100
AcDbLine
 10
562.069551
 20
227.589416
 30
0.0
 11
570.729435
 21
227.589416
 31
0.0
  0
LINE
  5
214
100
AcDbEntity
  8
Layer_1
 62
5
100
AcDbLine
 10
570.729435
 20
227.589416
 30
0.0
 11
626.651415
 21
227.589416
 31
0.0
  0
LINE
  5
215
100
AcDbEntity
  8
Layer_1
 62
5
100
AcDbLine
 10
626.651415
 20
227.589416
 30
0.0
 11
641.616248
 21
253.509410
 31
0.0
  0
LINE
  5
216
100
AcDbEntity
  8
Layer_1
 62
5
100
AcDbLine
 10
641.616248
 20
253.509410
 30
0.0
 11
671.521115
 21
201.712813
 31
0.0
  0
LINE
  5
217
100
AcDbEntity
  8
Layer_1
 62
5
100
AcDbLine
 10
671.521115
 20
201.712813
 30
0.0
 11
671.521115
 21
201.712813
 31
0.0
  0
LINE
  5
218
100
AcDbEntity
  8
Layer_1
 62
5
100
AcDbLine
 10
1096.601898
 20
938.300819
 30
0.0
 11
1058.062336
 21
871.548208
 31
0.0
  0
LINE
  5
219
100
AcDbEntity
  8
Layer_1
 62
5
100
AcDbLine
 10
1058.062336
 20
871.548208
 30
0.0
 11
998.248758
 21
871.548208
 31
0.0
  0
LINE
  5
21a
100
AcDbEntity
  8
Layer_1
 62
5
100
AcDbLine
 10
998.248758
 20
871.548208
 30
0.0
 11
1013.221000
 21
897.480902
 31
0.0
  0
LINE
  5
21b
100
AcDbEntity
  8
Layer_1
 62
5
100
AcDbLine
 10
1013.221000
 20
897.480902
 30
0.0
 11
980.930298
 21
953.410996
 31
0.0
  0
LINE
  5
21c
100
AcDbEntity
  8
Layer_1
 62
5
100
AcDbLine
 10
980.930298
 20
953.410996
 30
0.0
 11
951.166084
 21
953.410996
 31
0.0
  0
LINE
  5
21d
100
AcDbEntity
  8
Layer_1
 62
5
100
AcDbLine
 10
951.166084
 20
953.410996
 30
0.0
 11
980.982332
 21
1005.054488
 31
0.0
  0
LINE
  5
21e
100
AcDbEntity
  8
Layer_1
 62
5
100
AcDbLine
 10
980.982332
 20
1005.054488
 30
0.0
 11
1058.062301
 21
1005.054488
 31
0.0
  0
LINE
  5
21f
100
AcDbEntity
  8
Layer_1
 62
5
100
AcDbLine
 10
1058.062301
 20
1005.054488
 30
0.0
 11
1096.601898
 21
938.301877
 31
0.0
  0
LINE
  5
220
100
AcDbEntity
  8
Layer_1
 62
5
100
AcDbLine
 10
1096.601898
 20
938.301877
 30
0.0
 11
1096.601898
 21
938.300819
 31
0.0
  0
LINE
  5
221
100
AcDbEntity
  8
Layer_1
 62
5
100
AcDbLine
 10
817.123651
 20
455.417538
 30
0.0
 11
795.866145
 21
455.417538
 31
0.0
  0
LINE
  5
222
100
AcDbEntity
  8
Layer_1
 62
5
100
AcDbLine
 10
795.866145
 20
455.417538
 30
0.0
 11
799.009571
 21
460.862310
 31
0.0
  0
LINE
  5
223
100
AcDbEntity
  8
Layer_1
 62
5
100
AcDbLine
 10
799.009571
 20
460.862310
 30
0.0
 11
813.980507
 21
460.862310
 31
0.0
  0
LINE
  5
224
100
AcDbEntity
  8
Layer_1
 62
5
100
AcDbLine
 10
813.980507
 20
460.862310
 30
0.0
 11
817.123651
 21
455.417891
 31
0.0
  0
LINE
  5
225
100
AcDbEntity
  8
Layer_1
 62
5
100
AcDbLine
 10
817.123651
 20
455.417891
 30
0.0
 11
817.123651
 21
455.417538
 31
0.0
  0
LINE
  5
226
100
AcDbEntity
  8
Layer_1
 62
5
100
AcDbLine
 10
911.663722
 20
619.174160
 30
0.0
 11
905.359547
 21
619.174160
 31
0.0
  0
LINE
  5
227
100
AcDbEntity
  8
Layer_1
 62
5
100
AcDbLine
 10
905.359547
 20
619.174160
 30
0.0
 11
897.874308
 21
632.138391
 31
0.0
  0
LINE
  5
228
100
AcDbEntity
  8
Layer_1
 62
5
100
AcDbLine
 10
897.874308
 20
632.138391
 30
0.0
 11
901.026554
 21
637.598333
 31
0.0
  0
LINE
  5
229
100
AcDbEntity
  8
Layer_1
 62
5
100
AcDbLine
 10
901.026554
 20
637.598333
 30
0.0
 11
911.663722
 21
619.173808
 31
0.0
  0
LINE
  5
22a
100
AcDbEntity
  8
Layer_1
 62
5
100
AcDbLine
 10
911.663722
 20
619.173808
 30
0.0
 11
911.663722
 21
619.174160
 31
0.0
  0
LINE
  5
22b
100
AcDbEntity
  8
Layer_1
 62
5
100
AcDbLine
 10
840.763784
 20
496.405024
 30
0.0
 11
834.501520
 21
496.405024
 31
0.0
  0
LINE
  5
22c
100
AcDbEntity
  8
Layer_1
 62
5
100
AcDbLine
 10
834.501520
 20
496.405024
 30
0.0
 11
827.016316
 21
509.369255
 31
0.0
  0
LINE
  5
22d
100
AcDbEntity
  8
Layer_1
 62
5
100
AcDbLine
 10
827.016316
 20
509.369255
 30
0.0
 11
830.147396
 21
514.792508
 31
0.0
  0
LINE
  5
22e
100
AcDbEntity
  8
Layer_1
 62
5
100
AcDbLine
 10
830.147396
 20
514.792508
 30
0.0
 11
840.763784
 21
496.404671
 31
0.0
  0
LINE
  5
22f
100
AcDbEntity
  8
Layer_1
 62
5
100
AcDbLine
 10
840.763784
 20
496.404671
 30
0.0
 11
840.763784
 21
496.405024
 31
0.0
  0
LINE
  5
230
100
AcDbEntity
  8
Layer_1
 62
5
100
AcDbLine
 10
887.973106
 20
578.201491
 30
0.0
 11
866.732709
 21
578.201491
 31
0.0
  0
LINE
  5
231
100
AcDbEntity
  8
Layer_1
 62
5
100
AcDbLine
 10
866.732709
 20
578.201491
 30
0.0
 11
869.867669
 21
583.631446
 31
0.0
  0
LINE
  5
232
100
AcDbEntity
  8
Layer_1
 62
5
100
AcDbLine
 10
869.867669
 20
583.631446
 30
0.0
 11
884.838146
 21
583.631446
 31
0.0
  0
LINE
  5
233
100
AcDbEntity
  8
Layer_1
 62
5
100
AcDbLine
 10
884.838146
 20
583.631446
 30
0.0
 11
887.973106
 21
578.201491
 31
0.0
  0
LINE
  5
234
100
AcDbEntity
  8
Layer_1
 62
5
100
AcDbLine
 10
887.973106
 20
578.201491
 30
0.0
 11
887.973106
 21
578.201491
 31
0.0
  0
LINE
  5
235
100
AcDbEntity
  8
Layer_1
 62
5
100
AcDbLine
 10
766.054482
 20
380.305505
 30
0.0
 11
705.031264
 21
380.305505
 31
0.0
  0
LINE
  5
236
100
AcDbEntity
  8
Layer_1
 62
5
100
AcDbLine
 10
705.031264
 20
380.305505
 30
0.0
 11
716.177278
 21
399.611269
 31
0.0
  0
LINE
  5
237
100
AcDbEntity
  8
Layer_1
 62
5
100
AcDbLine
 10
716.177278
 20
399.611269
 30
0.0
 11
754.908680
 21
399.611269
 31
0.0
  0
LINE
  5
238
100
AcDbEntity
  8
Layer_1
 62
5
100
AcDbLine
 10
754.908680
 20
399.611269
 30
0.0
 11
766.054482
 21
380.305858
 31
0.0
  0
LINE
  5
239
100
AcDbEntity
  8
Layer_1
 62
5
100
AcDbLine
 10
766.054482
 20
380.305858
 30
0.0
 11
766.054482
 21
380.305505
 31
0.0
  0
LINE
  5
23a
100
AcDbEntity
  8
Layer_1
 62
5
100
AcDbLine
 10
950.341501
 20
700.970627
 30
0.0
 11
928.857405
 21
700.970627
 31
0.0
  0
LINE
  5
23b
100
AcDbEntity
  8
Layer_1
 62
5
100
AcDbLine
 10
928.857405
 20
700.970627
 30
0.0
 11
909.465387
 21
734.558952
 31
0.0
  0
LINE
  5
23c
100
AcDbEntity
  8
Layer_1
 62
5
100
AcDbLine
 10
909.465387
 20
734.558952
 30
0.0
 11
920.207117
 21
753.164452
 31
0.0
  0
LINE
  5
23d
100
AcDbEntity
  8
Layer_1
 62
5
100
AcDbLine
 10
920.207117
 20
753.164452
 30
0.0
 11
950.341501
 21
700.970627
 31
0.0
  0
LINE
  5
23e
100
AcDbEntity
  8
Layer_1
 62
5
100
AcDbLine
 10
950.341501
 20
700.970627
 30
0.0
 11
950.341501
 21
700.970627
 31
0.0
  0
LINE
  5
23f
100
AcDbEntity
  8
Layer_1
 62
5
100
AcDbLine
 10
821.534679
 20
488.864046
 30
0.0
 11
814.027921
 21
475.862069
 31
0.0
  0
LINE
  5
240
100
AcDbEntity
  8
Layer_1
 62
5
100
AcDbLine
 10
814.027921
 20
475.862069
 30
0.0
 11
798.958912
 21
475.862069
 31
0.0
  0
LINE
  5
241
100
AcDbEntity
  8
Layer_1
 62
5
100
AcDbLine
 10
798.958912
 20
475.862069
 30
0.0
 11
790.448854
 21
490.602183
 31
0.0
  0
LINE
  5
242
100
AcDbEntity
  8
Layer_1
 62
5
100
AcDbLine
 10
790.448854
 20
490.602183
 30
0.0
 11
798.095488
 21
503.846871
 31
0.0
  0
LINE
  5
243
100
AcDbEntity
  8
Layer_1
 62
5
100
AcDbLine
 10
798.095488
 20
503.846871
 30
0.0
 11
812.884427
 21
503.846871
 31
0.0
  0
LINE
  5
244
100
AcDbEntity
  8
Layer_1
 62
5
100
AcDbLine
 10
812.884427
 20
503.846871
 30
0.0
 11
821.534679
 21
488.864399
 31
0.0
  0
LINE
  5
245
100
AcDbEntity
  8
Layer_1
 62
5
100
AcDbLine
 10
821.534679
 20
488.864399
 30
0.0
 11
821.534679
 21
488.864046
 31
0.0
  0
LINE
  5
246
100
AcDbEntity
  8
Layer_1
 62
5
100
AcDbLine
 10
892.392741
 20
611.633183
 30
0.0
 11
884.886160
 21
598.631558
 31
0.0
  0
LINE
  5
247
100
AcDbEntity
  8
Layer_1
 62
5
100
AcDbLine
 10
884.886160
 20
598.631558
 30
0.0
 11
867.236229
 21
598.631558
 31
0.0
  0
LINE
  5
248
100
AcDbEntity
  8
Layer_1
 62
5
100
AcDbLine
 10
867.236229
 20
598.631558
 30
0.0
 11
860.008306
 21
611.150935
 31
0.0
  0
LINE
  5
249
100
AcDbEntity
  8
Layer_1
 62
5
100
AcDbLine
 10
860.008306
 20
611.150935
 30
0.0
 11
867.815807
 21
624.673966
 31
0.0
  0
LINE
  5
24a
100
AcDbEntity
  8
Layer_1
 62
5
100
AcDbLine
 10
867.815807
 20
624.673966
 30
0.0
 11
884.864005
 21
624.673966
 31
0.0
  0
LINE
  5
24b
100
AcDbEntity
  8
Layer_1
 62
5
100
AcDbLine
 10
884.864005
 20
624.673966
 30
0.0
 11
892.392742
 21
611.633888
 31
0.0
  0
LINE
  5
24c
100
AcDbEntity
  8
Layer_1
 62
5
100
AcDbLine
 10
892.392742
 20
611.633888
 30
0.0
 11
892.392741
 21
611.633183
 31
0.0
  0
LINE
  5
24d
100
AcDbEntity
  8
Layer_1
 62
5
100
AcDbLine
 10
821.487054
 20
529.792971
 30
0.0
 11
812.280260
 21
513.846358
 31
0.0
  0
LINE
  5
24e
100
AcDbEntity
  8
Layer_1
 62
5
100
AcDbLine
 10
812.280260
 20
513.846358
 30
0.0
 11
798.140785
 21
513.846358
 31
0.0
  0
LINE
  5
24f
100
AcDbEntity
  8
Layer_1
 62
5
100
AcDbLine
 10
798.140785
 20
513.846358
 30
0.0
 11
789.227149
 21
529.284266
 31
0.0
  0
LINE
  5
250
100
AcDbEntity
  8
Layer_1
 62
5
100
AcDbLine
 10
789.227149
 20
529.284266
 30
0.0
 11
798.140432
 21
544.722527
 31
0.0
  0
LINE
  5
251
100
AcDbEntity
  8
Layer_1
 62
5
100
AcDbLine
 10
798.140432
 20
544.722527
 30
0.0
 11
815.966999
 21
544.722527
 31
0.0
  0
LINE
  5
252
100
AcDbEntity
  8
Layer_1
 62
5
100
AcDbLine
 10
815.966999
 20
544.722527
 30
0.0
 11
823.026964
 21
532.494544
 31
0.0
  0
LINE
  5
253
100
AcDbEntity
  8
Layer_1
 62
5
100
AcDbLine
 10
823.026964
 20
532.494544
 30
0.0
 11
821.477211
 21
529.810258
 31
0.0
  0
LINE
  5
254
100
AcDbEntity
  8
Layer_1
 62
5
100
AcDbLine
 10
821.477211
 20
529.810258
 30
0.0
 11
821.486736
 21
529.792619
 31
0.0
  0
LINE
  5
255
100
AcDbEntity
  8
Layer_1
 62
5
100
AcDbLine
 10
821.486736
 20
529.792619
 30
0.0
 11
821.487054
 21
529.792971
 31
0.0
  0
LINE
  5
256
100
AcDbEntity
  8
Layer_1
 62
5
100
AcDbLine
 10
841.931020
 20
565.236908
 30
0.0
 11
828.800808
 21
542.494735
 31
0.0
  0
LINE
  5
257
100
AcDbEntity
  8
Layer_1
 62
5
100
AcDbLine
 10
828.800808
 20
542.494735
 30
0.0
 11
824.605821
 21
549.760899
 31
0.0
  0
LINE
  5
258
100
AcDbEntity
  8
Layer_1
 62
5
100
AcDbLine
 10
824.605821
 20
549.760899
 30
0.0
 11
833.540800
 21
565.236555
 31
0.0
  0
LINE
  5
259
100
AcDbEntity
  8
Layer_1
 62
5
100
AcDbLine
 10
833.540800
 20
565.236555
 30
0.0
 11
841.931020
 21
565.236555
 31
0.0
  0
LINE
  5
25a
100
AcDbEntity
  8
Layer_1
 62
5
100
AcDbLine
 10
841.931020
 20
565.236555
 30
0.0
 11
841.931020
 21
565.236908
 31
0.0
  0
LINE
  5
25b
100
AcDbEntity
  8
Layer_1
 62
5
100
AcDbLine
 10
858.448217
 20
593.852477
 30
0.0
 11
847.700489
 21
575.236746
 31
0.0
  0
LINE
  5
25c
100
AcDbEntity
  8
Layer_1
 62
5
100
AcDbLine
 10
847.700489
 20
575.236746
 30
0.0
 11
833.542705
 21
575.236746
 31
0.0
  0
LINE
  5
25d
100
AcDbEntity
  8
Layer_1
 62
5
100
AcDbLine
 10
833.542705
 20
575.236746
 30
0.0
 11
824.629598
 21
590.674302
 31
0.0
  0
LINE
  5
25e
100
AcDbEntity
  8
Layer_1
 62
5
100
AcDbLine
 10
824.629598
 20
590.674302
 30
0.0
 11
833.542882
 21
606.112563
 31
0.0
  0
LINE
  5
25f
100
AcDbEntity
  8
Layer_1
 62
5
100
AcDbLine
 10
833.542882
 20
606.112563
 30
0.0
 11
851.368919
 21
606.112563
 31
0.0
  0
LINE
  5
260
100
AcDbEntity
  8
Layer_1
 62
5
100
AcDbLine
 10
851.368919
 20
606.112563
 30
0.0
 11
858.448217
 21
593.851771
 31
0.0
  0
LINE
  5
261
100
AcDbEntity
  8
Layer_1
 62
5
100
AcDbLine
 10
858.448217
 20
593.851771
 30
0.0
 11
858.448217
 21
593.852477
 31
0.0
  0
LINE
  5
262
100
AcDbEntity
  8
Layer_1
 62
5
100
AcDbLine
 10
785.947445
 20
468.397644
 30
0.0
 11
782.788320
 21
462.925708
 31
0.0
  0
LINE
  5
263
100
AcDbEntity
  8
Layer_1
 62
5
100
AcDbLine
 10
782.788320
 20
462.925708
 30
0.0
 11
772.143744
 21
481.362933
 31
0.0
  0
LINE
  5
264
100
AcDbEntity
  8
Layer_1
 62
5
100
AcDbLine
 10
772.143744
 20
481.362933
 30
0.0
 11
778.462417
 21
481.362933
 31
0.0
  0
LINE
  5
265
100
AcDbEntity
  8
Layer_1
 62
5
100
AcDbLine
 10
778.462417
 20
481.362933
 30
0.0
 11
785.947445
 21
468.398349
 31
0.0
  0
LINE
  5
266
100
AcDbEntity
  8
Layer_1
 62
5
100
AcDbLine
 10
785.947445
 20
468.398349
 30
0.0
 11
785.947445
 21
468.397644
 31
0.0
  0
LINE
  5
267
100
AcDbEntity
  8
Layer_1
 62
5
100
AcDbLine
 10
887.961394
 20
645.129785
 30
0.0
 11
884.811441
 21
639.673724
 31
0.0
  0
LINE
  5
268
100
AcDbEntity
  8
Layer_1
 62
5
100
AcDbLine
 10
884.811441
 20
639.673724
 30
0.0
 11
869.841316
 21
639.673724
 31
0.0
  0
LINE
  5
269
100
AcDbEntity
  8
Layer_1
 62
5
100
AcDbLine
 10
869.841316
 20
639.673724
 30
0.0
 11
866.691646
 21
645.129080
 31
0.0
  0
LINE
  5
26a
100
AcDbEntity
  8
Layer_1
 62
5
100
AcDbLine
 10
866.691646
 20
645.129080
 30
0.0
 11
887.961394
 21
645.129080
 31
0.0
  0
LINE
  5
26b
100
AcDbEntity
  8
Layer_1
 62
5
100
AcDbLine
 10
887.961394
 20
645.129080
 30
0.0
 11
887.961394
 21
645.129785
 31
0.0
  0
LINE
  5
26c
100
AcDbEntity
  8
Layer_1
 62
5
100
AcDbLine
 10
769.714199
 20
440.433302
 30
0.0
 11
754.810749
 21
414.619494
 31
0.0
  0
LINE
  5
26d
100
AcDbEntity
  8
Layer_1
 62
5
100
AcDbLine
 10
754.810749
 20
414.619494
 30
0.0
 11
716.277679
 21
414.619494
 31
0.0
  0
LINE
  5
26e
100
AcDbEntity
  8
Layer_1
 62
5
100
AcDbLine
 10
716.277679
 20
414.619494
 30
0.0
 11
701.356131
 21
440.464346
 31
0.0
  0
LINE
  5
26f
100
AcDbEntity
  8
Layer_1
 62
5
100
AcDbLine
 10
701.356131
 20
440.464346
 30
0.0
 11
716.299657
 21
440.464346
 31
0.0
  0
LINE
  5
270
100
AcDbEntity
  8
Layer_1
 62
5
100
AcDbLine
 10
716.299657
 20
440.464346
 30
0.0
 11
732.445061
 21
468.429041
 31
0.0
  0
LINE
  5
271
100
AcDbEntity
  8
Layer_1
 62
5
100
AcDbLine
 10
732.445061
 20
468.429041
 30
0.0
 11
724.976861
 21
481.364344
 31
0.0
  0
LINE
  5
272
100
AcDbEntity
  8
Layer_1
 62
5
100
AcDbLine
 10
724.976861
 20
481.364344
 30
0.0
 11
746.172526
 21
481.364344
 31
0.0
  0
LINE
  5
273
100
AcDbEntity
  8
Layer_1
 62
5
100
AcDbLine
 10
746.172526
 20
481.364344
 30
0.0
 11
738.686405
 21
468.397996
 31
0.0
  0
LINE
  5
274
100
AcDbEntity
  8
Layer_1
 62
5
100
AcDbLine
 10
738.686405
 20
468.397996
 30
0.0
 11
754.831845
 21
440.433302
 31
0.0
  0
LINE
  5
275
100
AcDbEntity
  8
Layer_1
 62
5
100
AcDbLine
 10
754.831845
 20
440.433302
 30
0.0
 11
769.714199
 21
440.433302
 31
0.0
  0
LINE
  5
276
100
AcDbEntity
  8
Layer_1
 62
5
100
AcDbLine
 10
769.714199
 20
440.433302
 30
0.0
 11
769.714199
 21
440.433302
 31
0.0
  0
LINE
  5
277
100
AcDbEntity
  8
Layer_1
 62
5
100
AcDbLine
 10
915.735871
 20
693.505496
 30
0.0
 11
900.879516
 21
667.773533
 31
0.0
  0
LINE
  5
278
100
AcDbEntity
  8
Layer_1
 62
5
100
AcDbLine
 10
900.879516
 20
667.773533
 30
0.0
 11
893.471959
 21
680.603355
 31
0.0
  0
LINE
  5
279
100
AcDbEntity
  8
Layer_1
 62
5
100
AcDbLine
 10
893.471959
 20
680.603355
 30
0.0
 11
889.141788
 21
680.603355
 31
0.0
  0
LINE
  5
27a
100
AcDbEntity
  8
Layer_1
 62
5
100
AcDbLine
 10
889.141788
 20
680.603355
 30
0.0
 11
861.181574
 21
680.603355
 31
0.0
  0
LINE
  5
27b
100
AcDbEntity
  8
Layer_1
 62
5
100
AcDbLine
 10
861.181574
 20
680.603355
 30
0.0
 11
853.698805
 21
667.643005
 31
0.0
  0
LINE
  5
27c
100
AcDbEntity
  8
Layer_1
 62
5
100
AcDbLine
 10
853.698805
 20
667.643005
 30
0.0
 11
843.115225
 21
685.974044
 31
0.0
  0
LINE
  5
27d
100
AcDbEntity
  8
Layer_1
 62
5
100
AcDbLine
 10
843.115225
 20
685.974044
 30
0.0
 11
857.947801
 21
685.974044
 31
0.0
  0
LINE
  5
27e
100
AcDbEntity
  8
Layer_1
 62
5
100
AcDbLine
 10
857.947801
 20
685.974044
 30
0.0
 11
874.093382
 21
713.939091
 31
0.0
  0
LINE
  5
27f
100
AcDbEntity
  8
Layer_1
 62
5
100
AcDbLine
 10
874.093382
 20
713.939091
 30
0.0
 11
866.620773
 21
726.882155
 31
0.0
  0
LINE
  5
280
100
AcDbEntity
  8
Layer_1
 62
5
100
AcDbLine
 10
866.620773
 20
726.882155
 30
0.0
 11
896.465773
 21
726.882155
 31
0.0
  0
LINE
  5
281
100
AcDbEntity
  8
Layer_1
 62
5
100
AcDbLine
 10
896.465773
 20
726.882155
 30
0.0
 11
915.735871
 21
693.505849
 31
0.0
  0
LINE
  5
282
100
AcDbEntity
  8
Layer_1
 62
5
100
AcDbLine
 10
915.735871
 20
693.505849
 30
0.0
 11
915.735871
 21
693.505496
 31
0.0
  0
LINE
  5
283
100
AcDbEntity
  8
Layer_1
 62
5
100
AcDbLine
 10
695.307686
 20
324.492180
 30
0.0
 11
680.337208
 21
298.562308
 31
0.0
  0
LINE
  5
284
100
AcDbEntity
  8
Layer_1
 62
5
100
AcDbLine
 10
680.337208
 20
298.562308
 30
0.0
 11
667.856353
 21
298.562308
 31
0.0
  0
LINE
  5
285
100
AcDbEntity
  8
Layer_1
 62
5
100
AcDbLine
 10
667.856353
 20
298.562308
 30
0.0
 11
689.067117
 21
335.300233
 31
0.0
  0
LINE
  5
286
100
AcDbEntity
  8
Layer_1
 62
5
100
AcDbLine
 10
689.067117
 20
335.300233
 30
0.0
 11
695.307686
 21
324.491827
 31
0.0
  0
LINE
  5
287
100
AcDbEntity
  8
Layer_1
 62
5
100
AcDbLine
 10
695.307686
 20
324.491827
 30
0.0
 11
695.307686
 21
324.492180
 31
0.0
  0
LINE
  5
288
100
AcDbEntity
  8
Layer_1
 62
5
100
AcDbLine
 10
978.604963
 20
815.511574
 30
0.0
 11
963.634661
 21
789.582055
 31
0.0
  0
LINE
  5
289
100
AcDbEntity
  8
Layer_1
 62
5
100
AcDbLine
 10
963.634661
 20
789.582055
 30
0.0
 11
951.153666
 21
789.582055
 31
0.0
  0
LINE
  5
28a
100
AcDbEntity
  8
Layer_1
 62
5
100
AcDbLine
 10
951.153666
 20
789.582055
 30
0.0
 11
972.364430
 21
826.319980
 31
0.0
  0
LINE
  5
28b
100
AcDbEntity
  8
Layer_1
 62
5
100
AcDbLine
 10
972.364430
 20
826.319980
 30
0.0
 11
978.604963
 21
815.511574
 31
0.0
  0
LINE
  5
28c
100
AcDbEntity
  8
Layer_1
 62
5
100
AcDbLine
 10
978.604963
 20
815.511574
 30
0.0
 11
978.604963
 21
815.511574
 31
0.0
  0
LINE
  5
28d
100
AcDbEntity
  8
Layer_1
 62
5
100
AcDbLine
 10
769.776958
 20
455.433413
 30
0.0
 11
763.492187
 21
455.433413
 31
0.0
  0
LINE
  5
28e
100
AcDbEntity
  8
Layer_1
 62
5
100
AcDbLine
 10
763.492187
 20
455.433413
 30
0.0
 11
756.006983
 21
468.397644
 31
0.0
  0
LINE
  5
28f
100
AcDbEntity
  8
Layer_1
 62
5
100
AcDbLine
 10
756.006983
 20
468.397644
 30
0.0
 11
759.149527
 21
473.840652
 31
0.0
  0
LINE
  5
290
100
AcDbEntity
  8
Layer_1
 62
5
100
AcDbLine
 10
759.149527
 20
473.840652
 30
0.0
 11
769.776958
 21
455.433413
 31
0.0
  0
LINE
  5
291
100
AcDbEntity
  8
Layer_1
 62
5
100
AcDbLine
 10
769.776958
 20
455.433413
 30
0.0
 11
769.776958
 21
455.433413
 31
0.0
  0
LINE
  5
292
100
AcDbEntity
  8
Layer_1
 62
5
100
AcDbLine
 10
887.951693
 20
660.165527
 30
0.0
 11
866.701700
 21
660.165527
 31
0.0
  0
LINE
  5
293
100
AcDbEntity
  8
Layer_1
 62
5
100
AcDbLine
 10
866.701700
 20
660.165527
 30
0.0
 11
869.841775
 21
665.604302
 31
0.0
  0
LINE
  5
294
100
AcDbEntity
  8
Layer_1
 62
5
100
AcDbLine
 10
869.841775
 20
665.604302
 30
0.0
 11
884.811865
 21
665.604302
 31
0.0
  0
LINE
  5
295
100
AcDbEntity
  8
Layer_1
 62
5
100
AcDbLine
 10
884.811865
 20
665.604302
 30
0.0
 11
887.951693
 21
660.166233
 31
0.0
  0
LINE
  5
296
100
AcDbEntity
  8
Layer_1
 62
5
100
AcDbLine
 10
887.951693
 20
660.166233
 30
0.0
 11
887.951693
 21
660.165527
 31
0.0
  0
LINE
  5
297
100
AcDbEntity
  8
Layer_1
 62
5
100
AcDbLine
 10
789.422800
 20
508.824919
 30
0.0
 11
782.227544
 21
496.362338
 31
0.0
  0
LINE
  5
298
100
AcDbEntity
  8
Layer_1
 62
5
100
AcDbLine
 10
782.227544
 20
496.362338
 30
0.0
 11
763.483614
 21
496.362338
 31
0.0
  0
LINE
  5
299
100
AcDbEntity
  8
Layer_1
 62
5
100
AcDbLine
 10
763.483614
 20
496.362338
 30
0.0
 11
763.478675
 21
496.372921
 31
0.0
  0
LINE
  5
29a
100
AcDbEntity
  8
Layer_1
 62
5
100
AcDbLine
 10
763.478675
 20
496.372921
 30
0.0
 11
760.960053
 21
496.372921
 31
0.0
  0
LINE
  5
29b
100
AcDbEntity
  8
Layer_1
 62
5
100
AcDbLine
 10
760.960053
 20
496.372921
 30
0.0
 11
753.770019
 21
508.825271
 31
0.0
  0
LINE
  5
29c
100
AcDbEntity
  8
Layer_1
 62
5
100
AcDbLine
 10
753.770019
 20
508.825271
 30
0.0
 11
762.683479
 21
524.263885
 31
0.0
  0
LINE
  5
29d
100
AcDbEntity
  8
Layer_1
 62
5
100
AcDbLine
 10
762.683479
 20
524.263885
 30
0.0
 11
780.510186
 21
524.263885
 31
0.0
  0
LINE
  5
29e
100
AcDbEntity
  8
Layer_1
 62
5
100
AcDbLine
 10
780.510186
 20
524.263885
 30
0.0
 11
789.423646
 21
508.825624
 31
0.0
  0
LINE
  5
29f
100
AcDbEntity
  8
Layer_1
 62
5
100
AcDbLine
 10
789.423646
 20
508.825624
 30
0.0
 11
789.422800
 21
508.824919
 31
0.0
  0
LINE
  5
2a0
100
AcDbEntity
  8
Layer_1
 62
5
100
AcDbLine
 10
858.724653
 20
628.929171
 30
0.0
 11
851.357771
 21
616.169552
 31
0.0
  0
LINE
  5
2a1
100
AcDbEntity
  8
Layer_1
 62
5
100
AcDbLine
 10
851.357771
 20
616.169552
 30
0.0
 11
833.531064
 21
616.169552
 31
0.0
  0
LINE
  5
2a2
100
AcDbEntity
  8
Layer_1
 62
5
100
AcDbLine
 10
833.531064
 20
616.169552
 30
0.0
 11
824.618098
 21
631.607460
 31
0.0
  0
LINE
  5
2a3
100
AcDbEntity
  8
Layer_1
 62
5
100
AcDbLine
 10
824.618098
 20
631.607460
 30
0.0
 11
833.531205
 21
647.045721
 31
0.0
  0
LINE
  5
2a4
100
AcDbEntity
  8
Layer_1
 62
5
100
AcDbLine
 10
833.531205
 20
647.045721
 30
0.0
 11
848.159594
 21
647.045721
 31
0.0
  0
LINE
  5
2a5
100
AcDbEntity
  8
Layer_1
 62
5
100
AcDbLine
 10
848.159594
 20
647.045721
 30
0.0
 11
849.265764
 21
645.129785
 31
0.0
  0
LINE
  5
2a6
100
AcDbEntity
  8
Layer_1
 62
5
100
AcDbLine
 10
849.265764
 20
645.129785
 30
0.0
 11
849.371456
 21
645.129785
 31
0.0
  0
LINE
  5
2a7
100
AcDbEntity
  8
Layer_1
 62
5
100
AcDbLine
 10
849.371456
 20
645.129785
 30
0.0
 11
858.724653
 21
628.929524
 31
0.0
  0
LINE
  5
2a8
100
AcDbEntity
  8
Layer_1
 62
5
100
AcDbLine
 10
858.724653
 20
628.929524
 30
0.0
 11
858.724653
 21
628.929171
 31
0.0
  0
LINE
  5
2a9
100
AcDbEntity
  8
Layer_1
 62
5
100
AcDbLine
 10
824.826060
 20
570.215308
 30
0.0
 11
815.913659
 21
554.778458
 31
0.0
  0
LINE
  5
2aa
100
AcDbEntity
  8
Layer_1
 62
5
100
AcDbLine
 10
815.913659
 20
554.778458
 30
0.0
 11
798.129496
 21
554.778458
 31
0.0
  0
LINE
  5
2ab
100
AcDbEntity
  8
Layer_1
 62
5
100
AcDbLine
 10
798.129496
 20
554.778458
 30
0.0
 11
789.216036
 21
570.216719
 31
0.0
  0
LINE
  5
2ac
100
AcDbEntity
  8
Layer_1
 62
5
100
AcDbLine
 10
789.216036
 20
570.216719
 30
0.0
 11
798.128262
 21
585.653216
 31
0.0
  0
LINE
  5
2ad
100
AcDbEntity
  8
Layer_1
 62
5
100
AcDbLine
 10
798.128262
 20
585.653216
 30
0.0
 11
815.912283
 21
585.653216
 31
0.0
  0
LINE
  5
2ae
100
AcDbEntity
  8
Layer_1
 62
5
100
AcDbLine
 10
815.912283
 20
585.653216
 30
0.0
 11
824.826060
 21
570.215660
 31
0.0
  0
LINE
  5
2af
100
AcDbEntity
  8
Layer_1
 62
5
100
AcDbLine
 10
824.826060
 20
570.215660
 30
0.0
 11
824.826060
 21
570.215308
 31
0.0
  0
LINE
  5
2b0
100
AcDbEntity
  8
Layer_1
 62
5
100
AcDbLine
 10
789.468449
 20
549.702338
 30
0.0
 11
780.554460
 21
534.262666
 31
0.0
  0
LINE
  5
2b1
100
AcDbEntity
  8
Layer_1
 62
5
100
AcDbLine
 10
780.554460
 20
534.262666
 30
0.0
 11
762.632961
 21
534.262666
 31
0.0
  0
LINE
  5
2b2
100
AcDbEntity
  8
Layer_1
 62
5
100
AcDbLine
 10
762.632961
 20
534.262666
 30
0.0
 11
753.654131
 21
549.813463
 31
0.0
  0
LINE
  5
2b3
100
AcDbEntity
  8
Layer_1
 62
5
100
AcDbLine
 10
753.654131
 20
549.813463
 30
0.0
 11
762.529491
 21
565.186108
 31
0.0
  0
LINE
  5
2b4
100
AcDbEntity
  8
Layer_1
 62
5
100
AcDbLine
 10
762.529491
 20
565.186108
 30
0.0
 11
780.529272
 21
565.186108
 31
0.0
  0
LINE
  5
2b5
100
AcDbEntity
  8
Layer_1
 62
5
100
AcDbLine
 10
780.529272
 20
565.186108
 30
0.0
 11
789.468449
 21
549.701985
 31
0.0
  0
LINE
  5
2b6
100
AcDbEntity
  8
Layer_1
 62
5
100
AcDbLine
 10
789.468449
 20
549.701985
 30
0.0
 11
789.468449
 21
549.702338
 31
0.0
  0
LINE
  5
2b7
100
AcDbEntity
  8
Layer_1
 62
5
100
AcDbLine
 10
824.893300
 20
611.130474
 30
0.0
 11
815.958497
 21
595.654819
 31
0.0
  0
LINE
  5
2b8
100
AcDbEntity
  8
Layer_1
 62
5
100
AcDbLine
 10
815.958497
 20
595.654819
 30
0.0
 11
797.956741
 21
595.654819
 31
0.0
  0
LINE
  5
2b9
100
AcDbEntity
  8
Layer_1
 62
5
100
AcDbLine
 10
797.956741
 20
595.654819
 30
0.0
 11
789.039401
 21
611.100841
 31
0.0
  0
LINE
  5
2ba
100
AcDbEntity
  8
Layer_1
 62
5
100
AcDbLine
 10
789.039401
 20
611.100841
 30
0.0
 11
797.991490
 21
626.606483
 31
0.0
  0
LINE
  5
2bb
100
AcDbEntity
  8
Layer_1
 62
5
100
AcDbLine
 10
797.991490
 20
626.606483
 30
0.0
 11
815.958815
 21
626.606483
 31
0.0
  0
LINE
  5
2bc
100
AcDbEntity
  8
Layer_1
 62
5
100
AcDbLine
 10
815.958815
 20
626.606483
 30
0.0
 11
824.893300
 21
611.130827
 31
0.0
  0
LINE
  5
2bd
100
AcDbEntity
  8
Layer_1
 62
5
100
AcDbLine
 10
824.893300
 20
611.130827
 30
0.0
 11
824.893300
 21
611.130474
 31
0.0
  0
LINE
  5
2be
100
AcDbEntity
  8
Layer_1
 62
5
100
AcDbLine
 10
703.178652
 20
407.095449
 30
0.0
 11
687.777961
 21
380.420863
 31
0.0
  0
LINE
  5
2bf
100
AcDbEntity
  8
Layer_1
 62
5
100
AcDbLine
 10
687.777961
 20
380.420863
 30
0.0
 11
641.499444
 21
380.420863
 31
0.0
  0
LINE
  5
2c0
100
AcDbEntity
  8
Layer_1
 62
5
100
AcDbLine
 10
641.499444
 20
380.420863
 30
0.0
 11
626.099036
 21
407.096508
 31
0.0
  0
LINE
  5
2c1
100
AcDbEntity
  8
Layer_1
 62
5
100
AcDbLine
 10
626.099036
 20
407.096508
 30
0.0
 11
641.025416
 21
432.949827
 31
0.0
  0
LINE
  5
2c2
100
AcDbEntity
  8
Layer_1
 62
5
100
AcDbLine
 10
641.025416
 20
432.949827
 30
0.0
 11
648.508962
 21
419.988066
 31
0.0
  0
LINE
  5
2c3
100
AcDbEntity
  8
Layer_1
 62
5
100
AcDbLine
 10
648.508962
 20
419.988066
 30
0.0
 11
680.799805
 21
419.988066
 31
0.0
  0
LINE
  5
2c4
100
AcDbEntity
  8
Layer_1
 62
5
100
AcDbLine
 10
680.799805
 20
419.988066
 30
0.0
 11
688.267758
 21
432.923016
 31
0.0
  0
LINE
  5
2c5
100
AcDbEntity
  8
Layer_1
 62
5
100
AcDbLine
 10
688.267758
 20
432.923016
 30
0.0
 11
703.178652
 21
407.096155
 31
0.0
  0
LINE
  5
2c6
100
AcDbEntity
  8
Layer_1
 62
5
100
AcDbLine
 10
703.178652
 20
407.096155
 30
0.0
 11
703.178652
 21
407.095449
 31
0.0
  0
LINE
  5
2c7
100
AcDbEntity
  8
Layer_1
 62
5
100
AcDbLine
 10
911.482605
 20
768.052733
 30
0.0
 11
896.448804
 21
742.013499
 31
0.0
  0
LINE
  5
2c8
100
AcDbEntity
  8
Layer_1
 62
5
100
AcDbLine
 10
896.448804
 20
742.013499
 30
0.0
 11
866.625359
 21
742.013499
 31
0.0
  0
LINE
  5
2c9
100
AcDbEntity
  8
Layer_1
 62
5
100
AcDbLine
 10
866.625359
 20
742.013499
 30
0.0
 11
874.085550
 21
754.935044
 31
0.0
  0
LINE
  5
2ca
100
AcDbEntity
  8
Layer_1
 62
5
100
AcDbLine
 10
874.085550
 20
754.935044
 30
0.0
 11
857.940146
 21
782.900091
 31
0.0
  0
LINE
  5
2cb
100
AcDbEntity
  8
Layer_1
 62
5
100
AcDbLine
 10
857.940146
 20
782.900091
 30
0.0
 11
853.609764
 21
782.900091
 31
0.0
  0
LINE
  5
2cc
100
AcDbEntity
  8
Layer_1
 62
5
100
AcDbLine
 10
853.609764
 20
782.900091
 30
0.0
 11
842.974537
 21
782.900091
 31
0.0
  0
LINE
  5
2cd
100
AcDbEntity
  8
Layer_1
 62
5
100
AcDbLine
 10
842.974537
 20
782.900091
 30
0.0
 11
857.908855
 21
808.767169
 31
0.0
  0
LINE
  5
2ce
100
AcDbEntity
  8
Layer_1
 62
5
100
AcDbLine
 10
857.908855
 20
808.767169
 30
0.0
 11
887.977481
 21
808.767169
 31
0.0
  0
LINE
  5
2cf
100
AcDbEntity
  8
Layer_1
 62
5
100
AcDbLine
 10
887.977481
 20
808.767169
 30
0.0
 11
911.482605
 21
768.053791
 31
0.0
  0
LINE
  5
2d0
100
AcDbEntity
  8
Layer_1
 62
5
100
AcDbLine
 10
911.482605
 20
768.053791
 30
0.0
 11
911.482605
 21
768.052733
 31
0.0
  0
LINE
  5
2d1
100
AcDbEntity
  8
Layer_1
 62
5
100
AcDbLine
 10
842.387091
 20
657.045560
 30
0.0
 11
833.481075
 21
657.045560
 31
0.0
  0
LINE
  5
2d2
100
AcDbEntity
  8
Layer_1
 62
5
100
AcDbLine
 10
833.481075
 20
657.045560
 30
0.0
 11
824.523342
 21
672.560374
 31
0.0
  0
LINE
  5
2d3
100
AcDbEntity
  8
Layer_1
 62
5
100
AcDbLine
 10
824.523342
 20
672.560374
 30
0.0
 11
828.976632
 21
680.273860
 31
0.0
  0
LINE
  5
2d4
100
AcDbEntity
  8
Layer_1
 62
5
100
AcDbLine
 10
828.976632
 20
680.273860
 30
0.0
 11
842.387091
 21
657.046266
 31
0.0
  0
LINE
  5
2d5
100
AcDbEntity
  8
Layer_1
 62
5
100
AcDbLine
 10
842.387091
 20
657.046266
 30
0.0
 11
842.387091
 21
657.045560
 31
0.0
  0
LINE
  5
2d6
100
AcDbEntity
  8
Layer_1
 62
5
100
AcDbLine
 10
749.412790
 20
496.371863
 30
0.0
 11
722.848059
 21
496.371863
 31
0.0
  0
LINE
  5
2d7
100
AcDbEntity
  8
Layer_1
 62
5
100
AcDbLine
 10
722.848059
 20
496.371863
 30
0.0
 11
727.166941
 21
503.852163
 31
0.0
  0
LINE
  5
2d8
100
AcDbEntity
  8
Layer_1
 62
5
100
AcDbLine
 10
727.166941
 20
503.852163
 30
0.0
 11
745.094296
 21
503.852163
 31
0.0
  0
LINE
  5
2d9
100
AcDbEntity
  8
Layer_1
 62
5
100
AcDbLine
 10
745.094296
 20
503.852163
 30
0.0
 11
749.412790
 21
496.372216
 31
0.0
  0
LINE
  5
2da
100
AcDbEntity
  8
Layer_1
 62
5
100
AcDbLine
 10
749.412790
 20
496.372216
 30
0.0
 11
749.412790
 21
496.371863
 31
0.0
  0
LINE
  5
2db
100
AcDbEntity
  8
Layer_1
 62
5
100
AcDbLine
 10
663.156965
 20
350.420641
 30
0.0
 11
641.806854
 21
313.441416
 31
0.0
  0
LINE
  5
2dc
100
AcDbEntity
  8
Layer_1
 62
5
100
AcDbLine
 10
641.806854
 20
313.441416
 30
0.0
 11
635.426939
 21
324.491474
 31
0.0
  0
LINE
  5
2dd
100
AcDbEntity
  8
Layer_1
 62
5
100
AcDbLine
 10
635.426939
 20
324.491474
 30
0.0
 11
650.397416
 21
350.420994
 31
0.0
  0
LINE
  5
2de
100
AcDbEntity
  8
Layer_1
 62
5
100
AcDbLine
 10
650.397416
 20
350.420994
 30
0.0
 11
663.156965
 21
350.420994
 31
0.0
  0
LINE
  5
2df
100
AcDbEntity
  8
Layer_1
 62
5
100
AcDbLine
 10
663.156965
 20
350.420994
 30
0.0
 11
663.156965
 21
350.420641
 31
0.0
  0
LINE
  5
2e0
100
AcDbEntity
  8
Layer_1
 62
5
100
AcDbLine
 10
946.454454
 20
841.440388
 30
0.0
 11
925.104167
 21
804.460810
 31
0.0
  0
LINE
  5
2e1
100
AcDbEntity
  8
Layer_1
 62
5
100
AcDbLine
 10
925.104167
 20
804.460810
 30
0.0
 11
918.724392
 21
815.511221
 31
0.0
  0
LINE
  5
2e2
100
AcDbEntity
  8
Layer_1
 62
5
100
AcDbLine
 10
918.724392
 20
815.511221
 30
0.0
 11
933.694694
 21
841.440388
 31
0.0
  0
LINE
  5
2e3
100
AcDbEntity
  8
Layer_1
 62
5
100
AcDbLine
 10
933.694694
 20
841.440388
 30
0.0
 11
946.454454
 21
841.440388
 31
0.0
  0
LINE
  5
2e4
100
AcDbEntity
  8
Layer_1
 62
5
100
AcDbLine
 10
946.454454
 20
841.440388
 30
0.0
 11
946.454454
 21
841.440388
 31
0.0
  0
LINE
  5
2e5
100
AcDbEntity
  8
Layer_1
 62
5
100
AcDbLine
 10
615.610811
 20
268.465071
 30
0.0
 11
609.331367
 21
257.588933
 31
0.0
  0
LINE
  5
2e6
100
AcDbEntity
  8
Layer_1
 62
5
100
AcDbLine
 10
609.331367
 20
257.588933
 30
0.0
 11
579.390517
 21
257.588933
 31
0.0
  0
LINE
  5
2e7
100
AcDbEntity
  8
Layer_1
 62
5
100
AcDbLine
 10
579.390517
 20
257.588933
 30
0.0
 11
573.110826
 21
268.465424
 31
0.0
  0
LINE
  5
2e8
100
AcDbEntity
  8
Layer_1
 62
5
100
AcDbLine
 10
573.110826
 20
268.465424
 30
0.0
 11
615.610811
 21
268.465424
 31
0.0
  0
LINE
  5
2e9
100
AcDbEntity
  8
Layer_1
 62
5
100
AcDbLine
 10
615.610811
 20
268.465424
 30
0.0
 11
615.610811
 21
268.465071
 31
0.0
  0
LINE
  5
2ea
100
AcDbEntity
  8
Layer_1
 62
5
100
AcDbLine
 10
978.580163
 20
897.480549
 30
0.0
 11
972.295250
 21
886.594885
 31
0.0
  0
LINE
  5
2eb
100
AcDbEntity
  8
Layer_1
 62
5
100
AcDbLine
 10
972.295250
 20
886.594885
 30
0.0
 11
951.040213
 21
923.410421
 31
0.0
  0
LINE
  5
2ec
100
AcDbEntity
  8
Layer_1
 62
5
100
AcDbLine
 10
951.040213
 20
923.410421
 30
0.0
 11
963.610073
 21
923.410421
 31
0.0
  0
LINE
  5
2ed
100
AcDbEntity
  8
Layer_1
 62
5
100
AcDbLine
 10
963.610073
 20
923.410421
 30
0.0
 11
978.580163
 21
897.480902
 31
0.0
  0
LINE
  5
2ee
100
AcDbEntity
  8
Layer_1
 62
5
100
AcDbLine
 10
978.580163
 20
897.480902
 30
0.0
 11
978.580163
 21
897.480549
 31
0.0
  0
LINE
  5
2ef
100
AcDbEntity
  8
Layer_1
 62
5
100
AcDbLine
 10
753.949371
 20
529.294144
 30
0.0
 11
745.038381
 21
513.859763
 31
0.0
  0
LINE
  5
2f0
100
AcDbEntity
  8
Layer_1
 62
5
100
AcDbLine
 10
745.038381
 20
513.859763
 30
0.0
 11
727.212308
 21
513.859763
 31
0.0
  0
LINE
  5
2f1
100
AcDbEntity
  8
Layer_1
 62
5
100
AcDbLine
 10
727.212308
 20
513.859763
 30
0.0
 11
718.300965
 21
529.294144
 31
0.0
  0
LINE
  5
2f2
100
AcDbEntity
  8
Layer_1
 62
5
100
AcDbLine
 10
718.300965
 20
529.294144
 30
0.0
 11
727.210721
 21
544.726055
 31
0.0
  0
LINE
  5
2f3
100
AcDbEntity
  8
Layer_1
 62
5
100
AcDbLine
 10
727.210721
 20
544.726055
 30
0.0
 11
745.039404
 21
544.726055
 31
0.0
  0
LINE
  5
2f4
100
AcDbEntity
  8
Layer_1
 62
5
100
AcDbLine
 10
745.039404
 20
544.726055
 30
0.0
 11
753.949371
 21
529.293791
 31
0.0
  0
LINE
  5
2f5
100
AcDbEntity
  8
Layer_1
 62
5
100
AcDbLine
 10
753.949371
 20
529.293791
 30
0.0
 11
753.949371
 21
529.294144
 31
0.0
  0
LINE
  5
2f6
100
AcDbEntity
  8
Layer_1
 62
5
100
AcDbLine
 10
824.775719
 20
652.045288
 30
0.0
 11
815.882720
 21
636.641952
 31
0.0
  0
LINE
  5
2f7
100
AcDbEntity
  8
Layer_1
 62
5
100
AcDbLine
 10
815.882720
 20
636.641952
 30
0.0
 11
798.060740
 21
636.641952
 31
0.0
  0
LINE
  5
2f8
100
AcDbEntity
  8
Layer_1
 62
5
100
AcDbLine
 10
798.060740
 20
636.641952
 30
0.0
 11
789.147456
 21
652.079508
 31
0.0
  0
LINE
  5
2f9
100
AcDbEntity
  8
Layer_1
 62
5
100
AcDbLine
 10
789.147456
 20
652.079508
 30
0.0
 11
798.040455
 21
667.482491
 31
0.0
  0
LINE
  5
2fa
100
AcDbEntity
  8
Layer_1
 62
5
100
AcDbLine
 10
798.040455
 20
667.482491
 30
0.0
 11
815.862577
 21
667.482491
 31
0.0
  0
LINE
  5
2fb
100
AcDbEntity
  8
Layer_1
 62
5
100
AcDbLine
 10
815.862577
 20
667.482491
 30
0.0
 11
824.775719
 21
652.044935
 31
0.0
  0
LINE
  5
2fc
100
AcDbEntity
  8
Layer_1
 62
5
100
AcDbLine
 10
824.775719
 20
652.044935
 30
0.0
 11
824.775719
 21
652.045288
 31
0.0
  0
LINE
  5
2fd
100
AcDbEntity
  8
Layer_1
 62
5
100
AcDbLine
 10
789.314673
 20
590.624913
 30
0.0
 11
780.401213
 21
575.186299
 31
0.0
  0
LINE
  5
2fe
100
AcDbEntity
  8
Layer_1
 62
5
100
AcDbLine
 10
780.401213
 20
575.186299
 30
0.0
 11
762.575000
 21
575.186299
 31
0.0
  0
LINE
  5
2ff
100
AcDbEntity
  8
Layer_1
 62
5
100
AcDbLine
 10
762.575000
 20
575.186299
 30
0.0
 11
753.661540
 21
590.624913
 31
0.0
  0
LINE
  5
300
100
AcDbEntity
  8
Layer_1
 62
5
100
AcDbLine
 10
753.661540
 20
590.624913
 30
0.0
 11
762.575000
 21
606.063174
 31
0.0
  0
LINE
  5
301
100
AcDbEntity
  8
Layer_1
 62
5
100
AcDbLine
 10
762.575000
 20
606.063174
 30
0.0
 11
780.401566
 21
606.063174
 31
0.0
  0
LINE
  5
302
100
AcDbEntity
  8
Layer_1
 62
5
100
AcDbLine
 10
780.401566
 20
606.063174
 30
0.0
 11
789.314673
 21
590.625619
 31
0.0
  0
LINE
  5
303
100
AcDbEntity
  8
Layer_1
 62
5
100
AcDbLine
 10
789.314673
 20
590.625619
 30
0.0
 11
789.314673
 21
590.624913
 31
0.0
  0
LINE
  5
304
100
AcDbEntity
  8
Layer_1
 62
5
100
AcDbLine
 10
715.125683
 20
468.428335
 30
0.0
 11
707.640444
 21
455.463399
 31
0.0
  0
LINE
  5
305
100
AcDbEntity
  8
Layer_1
 62
5
100
AcDbLine
 10
707.640444
 20
455.463399
 30
0.0
 11
701.320606
 21
455.463399
 31
0.0
  0
LINE
  5
306
100
AcDbEntity
  8
Layer_1
 62
5
100
AcDbLine
 10
701.320606
 20
455.463399
 30
0.0
 11
711.966029
 21
473.902035
 31
0.0
  0
LINE
  5
307
100
AcDbEntity
  8
Layer_1
 62
5
100
AcDbLine
 10
711.966029
 20
473.902035
 30
0.0
 11
715.125683
 21
468.428688
 31
0.0
  0
LINE
  5
308
100
AcDbEntity
  8
Layer_1
 62
5
100
AcDbLine
 10
715.125683
 20
468.428688
 30
0.0
 11
715.125683
 21
468.428335
 31
0.0
  0
LINE
  5
309
100
AcDbEntity
  8
Layer_1
 62
5
100
AcDbLine
 10
856.774674
 20
713.938033
 30
0.0
 11
849.289435
 21
700.973096
 31
0.0
  0
LINE
  5
30a
100
AcDbEntity
  8
Layer_1
 62
5
100
AcDbLine
 10
849.289435
 20
700.973096
 30
0.0
 11
843.038601
 21
700.973096
 31
0.0
  0
LINE
  5
30b
100
AcDbEntity
  8
Layer_1
 62
5
100
AcDbLine
 10
843.038601
 20
700.973096
 30
0.0
 11
853.649451
 21
719.351408
 31
0.0
  0
LINE
  5
30c
100
AcDbEntity
  8
Layer_1
 62
5
100
AcDbLine
 10
853.649451
 20
719.351408
 30
0.0
 11
856.774674
 21
713.937680
 31
0.0
  0
LINE
  5
30d
100
AcDbEntity
  8
Layer_1
 62
5
100
AcDbLine
 10
856.774674
 20
713.937680
 30
0.0
 11
856.774674
 21
713.938033
 31
0.0
  0
LINE
  5
30e
100
AcDbEntity
  8
Layer_1
 62
5
100
AcDbLine
 10
615.671948
 20
298.465646
 30
0.0
 11
573.050395
 21
298.465646
 31
0.0
  0
LINE
  5
30f
100
AcDbEntity
  8
Layer_1
 62
5
100
AcDbLine
 10
573.050395
 20
298.465646
 30
0.0
 11
579.391046
 21
309.447971
 31
0.0
  0
LINE
  5
310
100
AcDbEntity
  8
Layer_1
 62
5
100
AcDbLine
 10
579.391046
 20
309.447971
 30
0.0
 11
609.331437
 21
309.447971
 31
0.0
  0
LINE
  5
311
100
AcDbEntity
  8
Layer_1
 62
5
100
AcDbLine
 10
609.331437
 20
309.447971
 30
0.0
 11
615.671948
 21
298.466352
 31
0.0
  0
LINE
  5
312
100
AcDbEntity
  8
Layer_1
 62
5
100
AcDbLine
 10
615.671948
 20
298.466352
 30
0.0
 11
615.671948
 21
298.465646
 31
0.0
  0
LINE
  5
313
100
AcDbEntity
  8
Layer_1
 62
5
100
AcDbLine
 10
946.340507
 20
871.551030
 30
0.0
 11
933.669964
 21
871.551030
 31
0.0
  0
LINE
  5
314
100
AcDbEntity
  8
Layer_1
 62
5
100
AcDbLine
 10
933.669964
 20
871.551030
 30
0.0
 11
918.699874
 21
897.480549
 31
0.0
  0
LINE
  5
315
100
AcDbEntity
  8
Layer_1
 62
5
100
AcDbLine
 10
918.699874
 20
897.480549
 30
0.0
 11
925.034705
 21
908.452644
 31
0.0
  0
LINE
  5
316
100
AcDbEntity
  8
Layer_1
 62
5
100
AcDbLine
 10
925.034705
 20
908.452644
 30
0.0
 11
946.340507
 21
871.551030
 31
0.0
  0
LINE
  5
317
100
AcDbEntity
  8
Layer_1
 62
5
100
AcDbLine
 10
946.340507
 20
871.551030
 30
0.0
 11
946.340507
 21
871.551030
 31
0.0
  0
LINE
  5
318
100
AcDbEntity
  8
Layer_1
 62
5
100
AcDbLine
 10
718.495028
 20
508.829858
 30
0.0
 11
711.314766
 21
496.393030
 31
0.0
  0
LINE
  5
319
100
AcDbEntity
  8
Layer_1
 62
5
100
AcDbLine
 10
711.314766
 20
496.393030
 30
0.0
 11
690.022369
 21
496.393030
 31
0.0
  0
LINE
  5
31a
100
AcDbEntity
  8
Layer_1
 62
5
100
AcDbLine
 10
690.022369
 20
496.393030
 30
0.0
 11
682.841577
 21
508.829505
 31
0.0
  0
LINE
  5
31b
100
AcDbEntity
  8
Layer_1
 62
5
100
AcDbLine
 10
682.841577
 20
508.829505
 30
0.0
 11
691.754861
 21
524.267766
 31
0.0
  0
LINE
  5
31c
100
AcDbEntity
  8
Layer_1
 62
5
100
AcDbLine
 10
691.754861
 20
524.267766
 30
0.0
 11
709.581568
 21
524.267766
 31
0.0
  0
LINE
  5
31d
100
AcDbEntity
  8
Layer_1
 62
5
100
AcDbLine
 10
709.581568
 20
524.267766
 30
0.0
 11
718.495028
 21
508.829505
 31
0.0
  0
LINE
  5
31e
100
AcDbEntity
  8
Layer_1
 62
5
100
AcDbLine
 10
718.495028
 20
508.829505
 30
0.0
 11
718.495028
 21
508.829858
 31
0.0
  0
LINE
  5
31f
100
AcDbEntity
  8
Layer_1
 62
5
100
AcDbLine
 10
823.190089
 20
690.248299
 30
0.0
 11
815.852135
 21
677.538774
 31
0.0
  0
LINE
  5
320
100
AcDbEntity
  8
Layer_1
 62
5
100
AcDbLine
 10
815.852135
 20
677.538774
 30
0.0
 11
798.025215
 21
677.538774
 31
0.0
  0
LINE
  5
321
100
AcDbEntity
  8
Layer_1
 62
5
100
AcDbLine
 10
798.025215
 20
677.538774
 30
0.0
 11
789.111967
 21
692.977388
 31
0.0
  0
LINE
  5
322
100
AcDbEntity
  8
Layer_1
 62
5
100
AcDbLine
 10
789.111967
 20
692.977388
 30
0.0
 11
798.025074
 21
708.415649
 31
0.0
  0
LINE
  5
323
100
AcDbEntity
  8
Layer_1
 62
5
100
AcDbLine
 10
798.025074
 20
708.415649
 30
0.0
 11
812.701053
 21
708.415649
 31
0.0
  0
LINE
  5
324
100
AcDbEntity
  8
Layer_1
 62
5
100
AcDbLine
 10
812.701053
 20
708.415649
 30
0.0
 11
823.190089
 21
690.249005
 31
0.0
  0
LINE
  5
325
100
AcDbEntity
  8
Layer_1
 62
5
100
AcDbLine
 10
823.190089
 20
690.249005
 30
0.0
 11
823.190089
 21
690.248299
 31
0.0
  0
LINE
  5
326
100
AcDbEntity
  8
Layer_1
 62
5
100
AcDbLine
 10
789.304196
 20
631.556308
 30
0.0
 11
780.390736
 21
616.117694
 31
0.0
  0
LINE
  5
327
100
AcDbEntity
  8
Layer_1
 62
5
100
AcDbLine
 10
780.390736
 20
616.117694
 30
0.0
 11
762.563958
 21
616.117694
 31
0.0
  0
LINE
  5
328
100
AcDbEntity
  8
Layer_1
 62
5
100
AcDbLine
 10
762.563958
 20
616.117694
 30
0.0
 11
753.716115
 21
631.442360
 31
0.0
  0
LINE
  5
329
100
AcDbEntity
  8
Layer_1
 62
5
100
AcDbLine
 10
753.716115
 20
631.442360
 30
0.0
 11
762.695191
 21
646.994569
 31
0.0
  0
LINE
  5
32a
100
AcDbEntity
  8
Layer_1
 62
5
100
AcDbLine
 10
762.695191
 20
646.994569
 30
0.0
 11
780.390701
 21
646.994569
 31
0.0
  0
LINE
  5
32b
100
AcDbEntity
  8
Layer_1
 62
5
100
AcDbLine
 10
780.390701
 20
646.994569
 30
0.0
 11
789.304196
 21
631.556308
 31
0.0
  0
LINE
  5
32c
100
AcDbEntity
  8
Layer_1
 62
5
100
AcDbLine
 10
789.304196
 20
631.556308
 30
0.0
 11
789.304196
 21
631.556308
 31
0.0
  0
LINE
  5
32d
100
AcDbEntity
  8
Layer_1
 62
5
100
AcDbLine
 10
753.859025
 20
570.163449
 30
0.0
 11
744.951386
 21
554.735066
 31
0.0
  0
LINE
  5
32e
100
AcDbEntity
  8
Layer_1
 62
5
100
AcDbLine
 10
744.951386
 20
554.735066
 30
0.0
 11
727.112719
 21
554.735066
 31
0.0
  0
LINE
  5
32f
100
AcDbEntity
  8
Layer_1
 62
5
100
AcDbLine
 10
727.112719
 20
554.735066
 30
0.0
 11
718.205539
 21
570.163449
 31
0.0
  0
LINE
  5
330
100
AcDbEntity
  8
Layer_1
 62
5
100
AcDbLine
 10
718.205539
 20
570.163449
 30
0.0
 11
727.118822
 21
585.601710
 31
0.0
  0
LINE
  5
331
100
AcDbEntity
  8
Layer_1
 62
5
100
AcDbLine
 10
727.118822
 20
585.601710
 30
0.0
 11
744.945530
 21
585.601710
 31
0.0
  0
LINE
  5
332
100
AcDbEntity
  8
Layer_1
 62
5
100
AcDbLine
 10
744.945530
 20
585.601710
 30
0.0
 11
753.859025
 21
570.163096
 31
0.0
  0
LINE
  5
333
100
AcDbEntity
  8
Layer_1
 62
5
100
AcDbLine
 10
753.859025
 20
570.163096
 30
0.0
 11
753.859025
 21
570.163449
 31
0.0
  0
LINE
  5
334
100
AcDbEntity
  8
Layer_1
 62
5
100
AcDbLine
 10
698.965356
 20
481.391860
 30
0.0
 11
688.333340
 21
462.976860
 31
0.0
  0
LINE
  5
335
100
AcDbEntity
  8
Layer_1
 62
5
100
AcDbLine
 10
688.333340
 20
462.976860
 30
0.0
 11
685.186526
 21
468.427277
 31
0.0
  0
LINE
  5
336
100
AcDbEntity
  8
Layer_1
 62
5
100
AcDbLine
 10
685.186526
 20
468.427277
 30
0.0
 11
692.671765
 21
481.392213
 31
0.0
  0
LINE
  5
337
100
AcDbEntity
  8
Layer_1
 62
5
100
AcDbLine
 10
692.671765
 20
481.392213
 30
0.0
 11
698.965356
 21
481.392213
 31
0.0
  0
LINE
  5
338
100
AcDbEntity
  8
Layer_1
 62
5
100
AcDbLine
 10
698.965356
 20
481.392213
 30
0.0
 11
698.965356
 21
481.391860
 31
0.0
  0
LINE
  5
339
100
AcDbEntity
  8
Layer_1
 62
5
100
AcDbLine
 10
675.308043
 20
440.471402
 30
0.0
 11
672.141157
 21
434.986060
 31
0.0
  0
LINE
  5
33a
100
AcDbEntity
  8
Layer_1
 62
5
100
AcDbLine
 10
672.141157
 20
434.986060
 30
0.0
 11
657.171420
 21
434.986060
 31
0.0
  0
LINE
  5
33b
100
AcDbEntity
  8
Layer_1
 62
5
100
AcDbLine
 10
657.171420
 20
434.986060
 30
0.0
 11
654.004710
 21
440.470344
 31
0.0
  0
LINE
  5
33c
100
AcDbEntity
  8
Layer_1
 62
5
100
AcDbLine
 10
654.004710
 20
440.470344
 30
0.0
 11
675.308043
 21
440.470344
 31
0.0
  0
LINE
  5
33d
100
AcDbEntity
  8
Layer_1
 62
5
100
AcDbLine
 10
675.308043
 20
440.470344
 30
0.0
 11
675.308043
 21
440.471402
 31
0.0
  0
LINE
  5
33e
100
AcDbEntity
  8
Layer_1
 62
5
100
AcDbLine
 10
840.620874
 20
726.901910
 30
0.0
 11
829.985330
 21
708.480560
 31
0.0
  0
LINE
  5
33f
100
AcDbEntity
  8
Layer_1
 62
5
100
AcDbLine
 10
829.985330
 20
708.480560
 30
0.0
 11
826.835059
 21
713.937327
 31
0.0
  0
LINE
  5
340
100
AcDbEntity
  8
Layer_1
 62
5
100
AcDbLine
 10
826.835059
 20
713.937327
 30
0.0
 11
834.320298
 21
726.901910
 31
0.0
  0
LINE
  5
341
100
AcDbEntity
  8
Layer_1
 62
5
100
AcDbLine
 10
834.320298
 20
726.901910
 30
0.0
 11
840.620874
 21
726.901910
 31
0.0
  0
LINE
  5
342
100
AcDbEntity
  8
Layer_1
 62
5
100
AcDbLine
 10
840.620874
 20
726.901910
 30
0.0
 11
840.620874
 21
726.901910
 31
0.0
  0
LINE
  5
343
100
AcDbEntity
  8
Layer_1
 62
5
100
AcDbLine
 10
856.767266
 20
754.933280
 30
0.0
 11
853.609023
 21
749.463108
 31
0.0
  0
LINE
  5
344
100
AcDbEntity
  8
Layer_1
 62
5
100
AcDbLine
 10
853.609023
 20
749.463108
 30
0.0
 11
842.965788
 21
767.898216
 31
0.0
  0
LINE
  5
345
100
AcDbEntity
  8
Layer_1
 62
5
100
AcDbLine
 10
842.965788
 20
767.898216
 30
0.0
 11
849.281568
 21
767.898216
 31
0.0
  0
LINE
  5
346
100
AcDbEntity
  8
Layer_1
 62
5
100
AcDbLine
 10
849.281568
 20
767.898216
 30
0.0
 11
856.767266
 21
754.933633
 31
0.0
  0
LINE
  5
347
100
AcDbEntity
  8
Layer_1
 62
5
100
AcDbLine
 10
856.767266
 20
754.933633
 30
0.0
 11
856.767266
 21
754.933280
 31
0.0
  0
LINE
  5
348
100
AcDbEntity
  8
Layer_1
 62
5
100
AcDbLine
 10
628.630146
 20
372.714433
 30
0.0
 11
609.423160
 21
339.446783
 31
0.0
  0
LINE
  5
349
100
AcDbEntity
  8
Layer_1
 62
5
100
AcDbLine
 10
609.423160
 20
339.446783
 30
0.0
 11
579.289164
 21
339.446783
 31
0.0
  0
LINE
  5
34a
100
AcDbEntity
  8
Layer_1
 62
5
100
AcDbLine
 10
579.289164
 20
339.446783
 30
0.0
 11
564.231374
 21
365.527291
 31
0.0
  0
LINE
  5
34b
100
AcDbEntity
  8
Layer_1
 62
5
100
AcDbLine
 10
564.231374
 20
365.527291
 30
0.0
 11
583.940892
 21
399.665244
 31
0.0
  0
LINE
  5
34c
100
AcDbEntity
  8
Layer_1
 62
5
100
AcDbLine
 10
583.940892
 20
399.665244
 30
0.0
 11
613.069965
 21
399.665244
 31
0.0
  0
LINE
  5
34d
100
AcDbEntity
  8
Layer_1
 62
5
100
AcDbLine
 10
613.069965
 20
399.665244
 30
0.0
 11
628.630146
 21
372.714080
 31
0.0
  0
LINE
  5
34e
100
AcDbEntity
  8
Layer_1
 62
5
100
AcDbLine
 10
628.630146
 20
372.714080
 30
0.0
 11
628.630146
 21
372.714433
 31
0.0
  0
LINE
  5
34f
100
AcDbEntity
  8
Layer_1
 62
5
100
AcDbLine
 10
907.734941
 20
856.472955
 30
0.0
 11
888.851100
 21
823.765163
 31
0.0
  0
LINE
  5
350
100
AcDbEntity
  8
Layer_1
 62
5
100
AcDbLine
 10
888.851100
 20
823.765163
 30
0.0
 11
857.809371
 21
823.765163
 31
0.0
  0
LINE
  5
351
100
AcDbEntity
  8
Layer_1
 62
5
100
AcDbLine
 10
857.809371
 20
823.765163
 30
0.0
 11
843.205959
 21
849.059683
 31
0.0
  0
LINE
  5
352
100
AcDbEntity
  8
Layer_1
 62
5
100
AcDbLine
 10
843.205959
 20
849.059683
 30
0.0
 11
862.542238
 21
882.551346
 31
0.0
  0
LINE
  5
353
100
AcDbEntity
  8
Layer_1
 62
5
100
AcDbLine
 10
862.542238
 20
882.551346
 30
0.0
 11
892.678668
 21
882.551346
 31
0.0
  0
LINE
  5
354
100
AcDbEntity
  8
Layer_1
 62
5
100
AcDbLine
 10
892.678668
 20
882.551346
 30
0.0
 11
907.734941
 21
856.473660
 31
0.0
  0
LINE
  5
355
100
AcDbEntity
  8
Layer_1
 62
5
100
AcDbLine
 10
907.734941
 20
856.473660
 30
0.0
 11
907.734941
 21
856.472955
 31
0.0
  0
LINE
  5
356
100
AcDbEntity
  8
Layer_1
 62
5
100
AcDbLine
 10
675.285183
 20
455.471160
 30
0.0
 11
654.027853
 21
455.471160
 31
0.0
  0
LINE
  5
357
100
AcDbEntity
  8
Layer_1
 62
5
100
AcDbLine
 10
654.027853
 20
455.471160
 30
0.0
 11
657.171455
 21
460.916285
 31
0.0
  0
LINE
  5
358
100
AcDbEntity
  8
Layer_1
 62
5
100
AcDbLine
 10
657.171455
 20
460.916285
 30
0.0
 11
672.141580
 21
460.916285
 31
0.0
  0
LINE
  5
359
100
AcDbEntity
  8
Layer_1
 62
5
100
AcDbLine
 10
672.141580
 20
460.916285
 30
0.0
 11
675.285183
 21
455.471513
 31
0.0
  0
LINE
  5
35a
100
AcDbEntity
  8
Layer_1
 62
5
100
AcDbLine
 10
675.285183
 20
455.471513
 30
0.0
 11
675.285183
 21
455.471160
 31
0.0
  0
LINE
  5
35b
100
AcDbEntity
  8
Layer_1
 62
5
100
AcDbLine
 10
840.615618
 20
741.968696
 30
0.0
 11
834.311091
 21
741.968696
 31
0.0
  0
LINE
  5
35c
100
AcDbEntity
  8
Layer_1
 62
5
100
AcDbLine
 10
834.311091
 20
741.968696
 30
0.0
 11
826.826240
 21
754.933633
 31
0.0
  0
LINE
  5
35d
100
AcDbEntity
  8
Layer_1
 62
5
100
AcDbLine
 10
826.826240
 20
754.933633
 30
0.0
 11
829.978309
 21
760.393221
 31
0.0
  0
LINE
  5
35e
100
AcDbEntity
  8
Layer_1
 62
5
100
AcDbLine
 10
829.978309
 20
760.393221
 30
0.0
 11
840.615618
 21
741.969049
 31
0.0
  0
LINE
  5
35f
100
AcDbEntity
  8
Layer_1
 62
5
100
AcDbLine
 10
840.615618
 20
741.969049
 30
0.0
 11
840.615618
 21
741.968696
 31
0.0
  0
LINE
  5
360
100
AcDbEntity
  8
Layer_1
 62
5
100
AcDbLine
 10
718.503283
 20
549.648363
 30
0.0
 11
709.622985
 21
534.267252
 31
0.0
  0
LINE
  5
361
100
AcDbEntity
  8
Layer_1
 62
5
100
AcDbLine
 10
709.622985
 20
534.267252
 30
0.0
 11
691.705895
 21
534.267252
 31
0.0
  0
LINE
  5
362
100
AcDbEntity
  8
Layer_1
 62
5
100
AcDbLine
 10
691.705895
 20
534.267252
 30
0.0
 11
682.748585
 21
549.781713
 31
0.0
  0
LINE
  5
363
100
AcDbEntity
  8
Layer_1
 62
5
100
AcDbLine
 10
682.748585
 20
549.781713
 30
0.0
 11
691.644935
 21
565.190694
 31
0.0
  0
LINE
  5
364
100
AcDbEntity
  8
Layer_1
 62
5
100
AcDbLine
 10
691.644935
 20
565.190694
 30
0.0
 11
709.529922
 21
565.190694
 31
0.0
  0
LINE
  5
365
100
AcDbEntity
  8
Layer_1
 62
5
100
AcDbLine
 10
709.529922
 20
565.190694
 30
0.0
 11
718.503283
 21
549.647658
 31
0.0
  0
LINE
  5
366
100
AcDbEntity
  8
Layer_1
 62
5
100
AcDbLine
 10
718.503283
 20
549.647658
 30
0.0
 11
718.503283
 21
549.648363
 31
0.0
  0
LINE
  5
367
100
AcDbEntity
  8
Layer_1
 62
5
100
AcDbLine
 10
789.387980
 20
672.500402
 30
0.0
 11
780.435539
 21
656.994055
 31
0.0
  0
LINE
  5
368
100
AcDbEntity
  8
Layer_1
 62
5
100
AcDbLine
 10
780.435539
 20
656.994055
 30
0.0
 11
762.898179
 21
656.994055
 31
0.0
  0
LINE
  5
369
100
AcDbEntity
  8
Layer_1
 62
5
100
AcDbLine
 10
762.898179
 20
656.994055
 30
0.0
 11
753.750687
 21
672.838716
 31
0.0
  0
LINE
  5
36a
100
AcDbEntity
  8
Layer_1
 62
5
100
AcDbLine
 10
753.750687
 20
672.838716
 30
0.0
 11
762.510335
 21
688.010630
 31
0.0
  0
LINE
  5
36b
100
AcDbEntity
  8
Layer_1
 62
5
100
AcDbLine
 10
762.510335
 20
688.010630
 30
0.0
 11
780.432999
 21
688.010630
 31
0.0
  0
LINE
  5
36c
100
AcDbEntity
  8
Layer_1
 62
5
100
AcDbLine
 10
780.432999
 20
688.010630
 30
0.0
 11
789.387980
 21
672.500049
 31
0.0
  0
LINE
  5
36d
100
AcDbEntity
  8
Layer_1
 62
5
100
AcDbLine
 10
789.387980
 20
672.500049
 30
0.0
 11
789.387980
 21
672.500402
 31
0.0
  0
LINE
  5
36e
100
AcDbEntity
  8
Layer_1
 62
5
100
AcDbLine
 10
753.926935
 20
611.080027
 30
0.0
 11
744.990368
 21
595.601196
 31
0.0
  0
LINE
  5
36f
100
AcDbEntity
  8
Layer_1
 62
5
100
AcDbLine
 10
744.990368
 20
595.601196
 30
0.0
 11
727.063683
 21
595.601196
 31
0.0
  0
LINE
  5
370
100
AcDbEntity
  8
Layer_1
 62
5
100
AcDbLine
 10
727.063683
 20
595.601196
 30
0.0
 11
718.129903
 21
611.075088
 31
0.0
  0
LINE
  5
371
100
AcDbEntity
  8
Layer_1
 62
5
100
AcDbLine
 10
718.129903
 20
611.075088
 30
0.0
 11
727.168599
 21
626.730660
 31
0.0
  0
LINE
  5
372
100
AcDbEntity
  8
Layer_1
 62
5
100
AcDbLine
 10
727.168599
 20
626.730660
 30
0.0
 11
744.891096
 21
626.730660
 31
0.0
  0
LINE
  5
373
100
AcDbEntity
  8
Layer_1
 62
5
100
AcDbLine
 10
744.891096
 20
626.730660
 30
0.0
 11
753.926935
 21
611.080027
 31
0.0
  0
LINE
  5
374
100
AcDbEntity
  8
Layer_1
 62
5
100
AcDbLine
 10
753.926935
 20
611.080027
 30
0.0
 11
753.926935
 21
611.080027
 31
0.0
  0
LINE
  5
375
100
AcDbEntity
  8
Layer_1
 62
5
100
AcDbLine
 10
681.244482
 20
491.598780
 30
0.0
 11
672.190087
 21
475.916044
 31
0.0
  0
LINE
  5
376
100
AcDbEntity
  8
Layer_1
 62
5
100
AcDbLine
 10
672.190087
 20
475.916044
 30
0.0
 11
657.121326
 21
475.916044
 31
0.0
  0
LINE
  5
377
100
AcDbEntity
  8
Layer_1
 62
5
100
AcDbLine
 10
657.121326
 20
475.916044
 30
0.0
 11
649.593154
 21
488.955063
 31
0.0
  0
LINE
  5
378
100
AcDbEntity
  8
Layer_1
 62
5
100
AcDbLine
 10
649.593154
 20
488.955063
 30
0.0
 11
658.200931
 21
503.864158
 31
0.0
  0
LINE
  5
379
100
AcDbEntity
  8
Layer_1
 62
5
100
AcDbLine
 10
658.200931
 20
503.864158
 30
0.0
 11
674.162785
 21
503.864158
 31
0.0
  0
LINE
  5
37a
100
AcDbEntity
  8
Layer_1
 62
5
100
AcDbLine
 10
674.162785
 20
503.864158
 30
0.0
 11
681.244482
 21
491.598780
 31
0.0
  0
LINE
  5
37b
100
AcDbEntity
  8
Layer_1
 62
5
100
AcDbLine
 10
681.244482
 20
491.598780
 30
0.0
 11
681.244482
 21
491.598780
 31
0.0
  0
LINE
  5
37c
100
AcDbEntity
  8
Layer_1
 62
5
100
AcDbLine
 10
821.345026
 20
734.427366
 30
0.0
 11
812.099602
 21
718.414077
 31
0.0
  0
LINE
  5
37d
100
AcDbEntity
  8
Layer_1
 62
5
100
AcDbLine
 10
812.099602
 20
718.414077
 30
0.0
 11
797.976567
 21
718.414077
 31
0.0
  0
LINE
  5
37e
100
AcDbEntity
  8
Layer_1
 62
5
100
AcDbLine
 10
797.976567
 20
718.414077
 30
0.0
 11
789.975708
 21
732.271188
 31
0.0
  0
LINE
  5
37f
100
AcDbEntity
  8
Layer_1
 62
5
100
AcDbLine
 10
789.975708
 20
732.271188
 30
0.0
 11
798.749291
 21
747.467444
 31
0.0
  0
LINE
  5
380
100
AcDbEntity
  8
Layer_1
 62
5
100
AcDbLine
 10
798.749291
 20
747.467444
 30
0.0
 11
813.816289
 21
747.467444
 31
0.0
  0
LINE
  5
381
100
AcDbEntity
  8
Layer_1
 62
5
100
AcDbLine
 10
813.816289
 20
747.467444
 30
0.0
 11
821.345026
 21
734.427366
 31
0.0
  0
LINE
  5
382
100
AcDbEntity
  8
Layer_1
 62
5
100
AcDbLine
 10
821.345026
 20
734.427366
 30
0.0
 11
821.345026
 21
734.427366
 31
0.0
  0
LINE
  5
383
100
AcDbEntity
  8
Layer_1
 62
5
100
AcDbLine
 10
754.072067
 20
652.282355
 30
0.0
 11
745.093344
 21
636.730499
 31
0.0
  0
LINE
  5
384
100
AcDbEntity
  8
Layer_1
 62
5
100
AcDbLine
 10
745.093344
 20
636.730499
 30
0.0
 11
727.397728
 21
636.730499
 31
0.0
  0
LINE
  5
385
100
AcDbEntity
  8
Layer_1
 62
5
100
AcDbLine
 10
727.397728
 20
636.730499
 30
0.0
 11
718.484621
 21
652.168055
 31
0.0
  0
LINE
  5
386
100
AcDbEntity
  8
Layer_1
 62
5
100
AcDbLine
 10
718.484621
 20
652.168055
 30
0.0
 11
727.371446
 21
667.560455
 31
0.0
  0
LINE
  5
387
100
AcDbEntity
  8
Layer_1
 62
5
100
AcDbLine
 10
727.371446
 20
667.560455
 30
0.0
 11
745.251212
 21
667.560455
 31
0.0
  0
LINE
  5
388
100
AcDbEntity
  8
Layer_1
 62
5
100
AcDbLine
 10
745.251212
 20
667.560455
 30
0.0
 11
754.072067
 21
652.281649
 31
0.0
  0
LINE
  5
389
100
AcDbEntity
  8
Layer_1
 62
5
100
AcDbLine
 10
754.072067
 20
652.281649
 30
0.0
 11
754.072067
 21
652.282355
 31
0.0
  0
LINE
  5
38a
100
AcDbEntity
  8
Layer_1
 62
5
100
AcDbLine
 10
683.025022
 20
529.302258
 30
0.0
 11
674.111915
 21
513.864349
 31
0.0
  0
LINE
  5
38b
100
AcDbEntity
  8
Layer_1
 62
5
100
AcDbLine
 10
674.111915
 20
513.864349
 30
0.0
 11
658.861543
 21
513.864349
 31
0.0
  0
LINE
  5
38c
100
AcDbEntity
  8
Layer_1
 62
5
100
AcDbLine
 10
658.861543
 20
513.864349
 30
0.0
 11
648.660586
 21
531.534283
 31
0.0
  0
LINE
  5
38d
100
AcDbEntity
  8
Layer_1
 62
5
100
AcDbLine
 10
648.660586
 20
531.534283
 30
0.0
 11
656.285348
 21
544.740871
 31
0.0
  0
LINE
  5
38e
100
AcDbEntity
  8
Layer_1
 62
5
100
AcDbLine
 10
656.285348
 20
544.740871
 30
0.0
 11
674.112197
 21
544.740871
 31
0.0
  0
LINE
  5
38f
100
AcDbEntity
  8
Layer_1
 62
5
100
AcDbLine
 10
674.112197
 20
544.740871
 30
0.0
 11
683.025022
 21
529.302610
 31
0.0
  0
LINE
  5
390
100
AcDbEntity
  8
Layer_1
 62
5
100
AcDbLine
 10
683.025022
 20
529.302610
 30
0.0
 11
683.025022
 21
529.302258
 31
0.0
  0
LINE
  5
391
100
AcDbEntity
  8
Layer_1
 62
5
100
AcDbLine
 10
718.387537
 20
590.629146
 30
0.0
 11
709.474077
 21
575.190533
 31
0.0
  0
LINE
  5
392
100
AcDbEntity
  8
Layer_1
 62
5
100
AcDbLine
 10
709.474077
 20
575.190533
 30
0.0
 11
691.707730
 21
575.190533
 31
0.0
  0
LINE
  5
393
100
AcDbEntity
  8
Layer_1
 62
5
100
AcDbLine
 10
691.707730
 20
575.190533
 30
0.0
 11
682.764531
 21
590.681005
 31
0.0
  0
LINE
  5
394
100
AcDbEntity
  8
Layer_1
 62
5
100
AcDbLine
 10
682.764531
 20
590.681005
 30
0.0
 11
691.647828
 21
606.067408
 31
0.0
  0
LINE
  5
395
100
AcDbEntity
  8
Layer_1
 62
5
100
AcDbLine
 10
691.647828
 20
606.067408
 30
0.0
 11
709.474606
 21
606.067408
 31
0.0
  0
LINE
  5
396
100
AcDbEntity
  8
Layer_1
 62
5
100
AcDbLine
 10
709.474606
 20
606.067408
 30
0.0
 11
718.387537
 21
590.629499
 31
0.0
  0
LINE
  5
397
100
AcDbEntity
  8
Layer_1
 62
5
100
AcDbLine
 10
718.387537
 20
590.629499
 30
0.0
 11
718.387537
 21
590.629146
 31
0.0
  0
LINE
  5
398
100
AcDbEntity
  8
Layer_1
 62
5
100
AcDbLine
 10
789.296928
 20
713.447671
 30
0.0
 11
780.383821
 21
698.009763
 31
0.0
  0
LINE
  5
399
100
AcDbEntity
  8
Layer_1
 62
5
100
AcDbLine
 10
780.383821
 20
698.009763
 30
0.0
 11
762.557114
 21
698.009763
 31
0.0
  0
LINE
  5
39a
100
AcDbEntity
  8
Layer_1
 62
5
100
AcDbLine
 10
762.557114
 20
698.009763
 30
0.0
 11
753.643654
 21
713.448024
 31
0.0
  0
LINE
  5
39b
100
AcDbEntity
  8
Layer_1
 62
5
100
AcDbLine
 10
753.643654
 20
713.448024
 30
0.0
 11
761.456271
 21
726.979874
 31
0.0
  0
LINE
  5
39c
100
AcDbEntity
  8
Layer_1
 62
5
100
AcDbLine
 10
761.456271
 20
726.979874
 30
0.0
 11
781.484559
 21
726.979874
 31
0.0
  0
LINE
  5
39d
100
AcDbEntity
  8
Layer_1
 62
5
100
AcDbLine
 10
781.484559
 20
726.979874
 30
0.0
 11
789.296928
 21
713.447671
 31
0.0
  0
LINE
  5
39e
100
AcDbEntity
  8
Layer_1
 62
5
100
AcDbLine
 10
789.296928
 20
713.447671
 30
0.0
 11
789.296928
 21
713.447671
 31
0.0
  0
LINE
  5
39f
100
AcDbEntity
  8
Layer_1
 62
5
100
AcDbLine
 10
644.111551
 20
468.450560
 30
0.0
 11
640.944313
 21
462.964866
 31
0.0
  0
LINE
  5
3a0
100
AcDbEntity
  8
Layer_1
 62
5
100
AcDbLine
 10
640.944313
 20
462.964866
 30
0.0
 11
630.291517
 21
481.415144
 31
0.0
  0
LINE
  5
3a1
100
AcDbEntity
  8
Layer_1
 62
5
100
AcDbLine
 10
630.291517
 20
481.415144
 30
0.0
 11
636.626348
 21
481.415144
 31
0.0
  0
LINE
  5
3a2
100
AcDbEntity
  8
Layer_1
 62
5
100
AcDbLine
 10
636.626348
 20
481.415144
 30
0.0
 11
644.111551
 21
468.450560
 31
0.0
  0
LINE
  5
3a3
100
AcDbEntity
  8
Layer_1
 62
5
100
AcDbLine
 10
644.111551
 20
468.450560
 30
0.0
 11
644.111551
 21
468.450560
 31
0.0
  0
LINE
  5
3a4
100
AcDbEntity
  8
Layer_1
 62
5
100
AcDbLine
 10
627.878235
 20
440.485866
 30
0.0
 11
612.970023
 21
414.663944
 31
0.0
  0
LINE
  5
3a5
100
AcDbEntity
  8
Layer_1
 62
5
100
AcDbLine
 10
612.970023
 20
414.663944
 30
0.0
 11
583.184466
 21
414.663944
 31
0.0
  0
LINE
  5
3a6
100
AcDbEntity
  8
Layer_1
 62
5
100
AcDbLine
 10
583.184466
 20
414.663944
 30
0.0
 11
559.536925
 21
455.621444
 31
0.0
  0
LINE
  5
3a7
100
AcDbEntity
  8
Layer_1
 62
5
100
AcDbLine
 10
559.536925
 20
455.621444
 30
0.0
 11
574.429791
 21
481.416555
 31
0.0
  0
LINE
  5
3a8
100
AcDbEntity
  8
Layer_1
 62
5
100
AcDbLine
 10
574.429791
 20
481.416555
 30
0.0
 11
604.337233
 21
481.416555
 31
0.0
  0
LINE
  5
3a9
100
AcDbEntity
  8
Layer_1
 62
5
100
AcDbLine
 10
604.337233
 20
481.416555
 30
0.0
 11
596.850759
 21
468.449502
 31
0.0
  0
LINE
  5
3aa
100
AcDbEntity
  8
Layer_1
 62
5
100
AcDbLine
 10
596.850759
 20
468.449502
 30
0.0
 11
612.995705
 21
440.484808
 31
0.0
  0
LINE
  5
3ab
100
AcDbEntity
  8
Layer_1
 62
5
100
AcDbLine
 10
612.995705
 20
440.484808
 30
0.0
 11
627.878235
 21
440.484808
 31
0.0
  0
LINE
  5
3ac
100
AcDbEntity
  8
Layer_1
 62
5
100
AcDbLine
 10
627.878235
 20
440.484808
 30
0.0
 11
627.878235
 21
440.485866
 31
0.0
  0
LINE
  5
3ad
100
AcDbEntity
  8
Layer_1
 62
5
100
AcDbLine
 10
816.936785
 20
767.958188
 30
0.0
 11
813.766195
 21
762.466496
 31
0.0
  0
LINE
  5
3ae
100
AcDbEntity
  8
Layer_1
 62
5
100
AcDbLine
 10
813.766195
 20
762.466496
 30
0.0
 11
798.796105
 21
762.466496
 31
0.0
  0
LINE
  5
3af
100
AcDbEntity
  8
Layer_1
 62
5
100
AcDbLine
 10
798.796105
 20
762.466496
 30
0.0
 11
795.625303
 21
767.958188
 31
0.0
  0
LINE
  5
3b0
100
AcDbEntity
  8
Layer_1
 62
5
100
AcDbLine
 10
795.625303
 20
767.958188
 30
0.0
 11
816.936785
 21
767.958188
 31
0.0
  0
LINE
  5
3b1
100
AcDbEntity
  8
Layer_1
 62
5
100
AcDbLine
 10
816.936785
 20
767.958188
 30
0.0
 11
816.936785
 21
767.958188
 31
0.0
  0
LINE
  5
3b2
100
AcDbEntity
  8
Layer_1
 62
5
100
AcDbLine
 10
844.780089
 20
816.334252
 30
0.0
 11
829.868172
 21
790.505980
 31
0.0
  0
LINE
  5
3b3
100
AcDbEntity
  8
Layer_1
 62
5
100
AcDbLine
 10
829.868172
 20
790.505980
 30
0.0
 11
822.426395
 21
803.395774
 31
0.0
  0
LINE
  5
3b4
100
AcDbEntity
  8
Layer_1
 62
5
100
AcDbLine
 10
822.426395
 20
803.395774
 30
0.0
 11
818.096048
 21
803.395774
 31
0.0
  0
LINE
  5
3b5
100
AcDbEntity
  8
Layer_1
 62
5
100
AcDbLine
 10
818.096048
 20
803.395774
 30
0.0
 11
790.135058
 21
803.395774
 31
0.0
  0
LINE
  5
3b6
100
AcDbEntity
  8
Layer_1
 62
5
100
AcDbLine
 10
790.135058
 20
803.395774
 30
0.0
 11
782.652994
 21
790.436483
 31
0.0
  0
LINE
  5
3b7
100
AcDbEntity
  8
Layer_1
 62
5
100
AcDbLine
 10
782.652994
 20
790.436483
 30
0.0
 11
767.700473
 21
816.334605
 31
0.0
  0
LINE
  5
3b8
100
AcDbEntity
  8
Layer_1
 62
5
100
AcDbLine
 10
767.700473
 20
816.334605
 30
0.0
 11
782.285893
 21
841.597374
 31
0.0
  0
LINE
  5
3b9
100
AcDbEntity
  8
Layer_1
 62
5
100
AcDbLine
 10
782.285893
 20
841.597374
 30
0.0
 11
782.978326
 21
841.597374
 31
0.0
  0
LINE
  5
3ba
100
AcDbEntity
  8
Layer_1
 62
5
100
AcDbLine
 10
782.978326
 20
841.597374
 30
0.0
 11
830.194421
 21
841.597374
 31
0.0
  0
LINE
  5
3bb
100
AcDbEntity
  8
Layer_1
 62
5
100
AcDbLine
 10
830.194421
 20
841.597374
 30
0.0
 11
844.780089
 21
816.333899
 31
0.0
  0
LINE
  5
3bc
100
AcDbEntity
  8
Layer_1
 62
5
100
AcDbLine
 10
844.780089
 20
816.333899
 30
0.0
 11
844.780089
 21
816.334252
 31
0.0
  0
LINE
  5
3bd
100
AcDbEntity
  8
Layer_1
 62
5
100
AcDbLine
 10
553.270039
 20
324.515463
 30
0.0
 11
546.965724
 21
313.595933
 31
0.0
  0
LINE
  5
3be
100
AcDbEntity
  8
Layer_1
 62
5
100
AcDbLine
 10
546.965724
 20
313.595933
 30
0.0
 11
525.691072
 21
350.444630
 31
0.0
  0
LINE
  5
3bf
100
AcDbEntity
  8
Layer_1
 62
5
100
AcDbLine
 10
525.691072
 20
350.444630
 30
0.0
 11
538.299773
 21
350.444630
 31
0.0
  0
LINE
  5
3c0
100
AcDbEntity
  8
Layer_1
 62
5
100
AcDbLine
 10
538.299773
 20
350.444630
 30
0.0
 11
553.270039
 21
324.515816
 31
0.0
  0
LINE
  5
3c1
100
AcDbEntity
  8
Layer_1
 62
5
100
AcDbLine
 10
553.270039
 20
324.515816
 30
0.0
 11
553.270039
 21
324.515463
 31
0.0
  0
LINE
  5
3c2
100
AcDbEntity
  8
Layer_1
 62
5
100
AcDbLine
 10
520.968753
 20
268.585369
 30
0.0
 11
491.100117
 21
216.851566
 31
0.0
  0
LINE
  5
3c3
100
AcDbEntity
  8
Layer_1
 62
5
100
AcDbLine
 10
491.100117
 20
216.851566
 30
0.0
 11
414.020960
 21
216.851566
 31
0.0
  0
LINE
  5
3c4
100
AcDbEntity
  8
Layer_1
 62
5
100
AcDbLine
 10
414.020960
 20
216.851566
 30
0.0
 11
375.481046
 21
283.603824
 31
0.0
  0
LINE
  5
3c5
100
AcDbEntity
  8
Layer_1
 62
5
100
AcDbLine
 10
375.481046
 20
283.603824
 30
0.0
 11
414.020960
 21
350.357141
 31
0.0
  0
LINE
  5
3c6
100
AcDbEntity
  8
Layer_1
 62
5
100
AcDbLine
 10
414.020960
 20
350.357141
 30
0.0
 11
473.668132
 21
350.357141
 31
0.0
  0
LINE
  5
3c7
100
AcDbEntity
  8
Layer_1
 62
5
100
AcDbLine
 10
473.668132
 20
350.357141
 30
0.0
 11
458.748102
 21
324.515110
 31
0.0
  0
LINE
  5
3c8
100
AcDbEntity
  8
Layer_1
 62
5
100
AcDbLine
 10
458.748102
 20
324.515110
 30
0.0
 11
491.038698
 21
268.585721
 31
0.0
  0
LINE
  5
3c9
100
AcDbEntity
  8
Layer_1
 62
5
100
AcDbLine
 10
491.038698
 20
268.585721
 30
0.0
 11
499.698546
 21
268.585721
 31
0.0
  0
LINE
  5
3ca
100
AcDbEntity
  8
Layer_1
 62
5
100
AcDbLine
 10
499.698546
 20
268.585721
 30
0.0
 11
520.968753
 21
268.585721
 31
0.0
  0
LINE
  5
3cb
100
AcDbEntity
  8
Layer_1
 62
5
100
AcDbLine
 10
520.968753
 20
268.585721
 30
0.0
 11
520.968753
 21
268.585369
 31
0.0
  0
LINE
  5
3cc
100
AcDbEntity
  8
Layer_1
 62
5
100
AcDbLine
 10
898.866813
 20
923.439349
 30
0.0
 11
892.579608
 21
912.549805
 31
0.0
  0
LINE
  5
3cd
100
AcDbEntity
  8
Layer_1
 62
5
100
AcDbLine
 10
892.579608
 20
912.549805
 30
0.0
 11
862.639393
 21
912.549805
 31
0.0
  0
LINE
  5
3ce
100
AcDbEntity
  8
Layer_1
 62
5
100
AcDbLine
 10
862.639393
 20
912.549805
 30
0.0
 11
856.352117
 21
923.439349
 31
0.0
  0
LINE
  5
3cf
100
AcDbEntity
  8
Layer_1
 62
5
100
AcDbLine
 10
856.352117
 20
923.439349
 30
0.0
 11
898.866813
 21
923.439349
 31
0.0
  0
LINE
  5
3d0
100
AcDbEntity
  8
Layer_1
 62
5
100
AcDbLine
 10
898.866813
 20
923.439349
 30
0.0
 11
898.866813
 21
923.439349
 31
0.0
  0
LINE
  5
3d1
100
AcDbEntity
  8
Layer_1
 62
5
100
AcDbLine
 10
954.720567
 20
1020.192183
 30
0.0
 11
924.867453
 21
968.485191
 31
0.0
  0
LINE
  5
3d2
100
AcDbEntity
  8
Layer_1
 62
5
100
AcDbLine
 10
924.867453
 20
968.485191
 30
0.0
 11
909.900221
 21
994.408360
 31
0.0
  0
LINE
  5
3d3
100
AcDbEntity
  8
Layer_1
 62
5
100
AcDbLine
 10
909.900221
 20
994.408360
 30
0.0
 11
845.318816
 21
994.408360
 31
0.0
  0
LINE
  5
3d4
100
AcDbEntity
  8
Layer_1
 62
5
100
AcDbLine
 10
845.318816
 20
994.408360
 30
0.0
 11
830.383086
 21
968.538813
 31
0.0
  0
LINE
  5
3d5
100
AcDbEntity
  8
Layer_1
 62
5
100
AcDbLine
 10
830.383086
 20
968.538813
 30
0.0
 11
800.561264
 21
1020.192535
 31
0.0
  0
LINE
  5
3d6
100
AcDbEntity
  8
Layer_1
 62
5
100
AcDbLine
 10
800.561264
 20
1020.192535
 30
0.0
 11
839.101002
 21
1086.945146
 31
0.0
  0
LINE
  5
3d7
100
AcDbEntity
  8
Layer_1
 62
5
100
AcDbLine
 10
839.101002
 20
1086.945146
 30
0.0
 11
916.180335
 21
1086.945146
 31
0.0
  0
LINE
  5
3d8
100
AcDbEntity
  8
Layer_1
 62
5
100
AcDbLine
 10
916.180335
 20
1086.945146
 30
0.0
 11
954.720567
 21
1020.192183
 31
0.0
  0
LINE
  5
3d9
100
AcDbEntity
  8
Layer_1
 62
5
100
AcDbLine
 10
954.720567
 20
1020.192183
 30
0.0
 11
954.720567
 21
1020.192183
 31
0.0
  0
LINE
  5
3da
100
AcDbEntity
  8
Layer_1
 62
5
100
AcDbLine
 10
627.940853
 20
455.486330
 30
0.0
 11
621.656046
 21
455.486330
 31
0.0
  0
LINE
  5
3db
100
AcDbEntity
  8
Layer_1
 62
5
100
AcDbLine
 10
621.656046
 20
455.486330
 30
0.0
 11
614.170808
 21
468.450913
 31
0.0
  0
LINE
  5
3dc
100
AcDbEntity
  8
Layer_1
 62
5
100
AcDbLine
 10
614.170808
 20
468.450913
 30
0.0
 11
617.312999
 21
473.893216
 31
0.0
  0
LINE
  5
3dd
100
AcDbEntity
  8
Layer_1
 62
5
100
AcDbLine
 10
617.312999
 20
473.893216
 30
0.0
 11
627.940853
 21
455.486683
 31
0.0
  0
LINE
  5
3de
100
AcDbEntity
  8
Layer_1
 62
5
100
AcDbLine
 10
627.940853
 20
455.486683
 30
0.0
 11
627.940853
 21
455.486330
 31
0.0
  0
LINE
  5
3df
100
AcDbEntity
  8
Layer_1
 62
5
100
AcDbLine
 10
816.905846
 20
782.958652
 30
0.0
 11
795.655818
 21
782.958652
 31
0.0
  0
LINE
  5
3e0
100
AcDbEntity
  8
Layer_1
 62
5
100
AcDbLine
 10
795.655818
 20
782.958652
 30
0.0
 11
798.795541
 21
788.396721
 31
0.0
  0
LINE
  5
3e1
100
AcDbEntity
  8
Layer_1
 62
5
100
AcDbLine
 10
798.795541
 20
788.396721
 30
0.0
 11
813.766512
 21
788.396721
 31
0.0
  0
LINE
  5
3e2
100
AcDbEntity
  8
Layer_1
 62
5
100
AcDbLine
 10
813.766512
 20
788.396721
 30
0.0
 11
816.905846
 21
782.959005
 31
0.0
  0
LINE
  5
3e3
100
AcDbEntity
  8
Layer_1
 62
5
100
AcDbLine
 10
816.905846
 20
782.959005
 30
0.0
 11
816.905846
 21
782.958652
 31
0.0
  0
LINE
  5
3e4
100
AcDbEntity
  8
Layer_1
 62
5
100
AcDbLine
 10
718.576943
 20
631.845585
 30
0.0
 11
709.663836
 21
616.407677
 31
0.0
  0
LINE
  5
3e5
100
AcDbEntity
  8
Layer_1
 62
5
100
AcDbLine
 10
709.663836
 20
616.407677
 30
0.0
 11
691.837128
 21
616.407677
 31
0.0
  0
LINE
  5
3e6
100
AcDbEntity
  8
Layer_1
 62
5
100
AcDbLine
 10
691.837128
 20
616.407677
 30
0.0
 11
682.924163
 21
631.845938
 31
0.0
  0
LINE
  5
3e7
100
AcDbEntity
  8
Layer_1
 62
5
100
AcDbLine
 10
682.924163
 20
631.845938
 30
0.0
 11
691.837270
 21
647.283846
 31
0.0
  0
LINE
  5
3e8
100
AcDbEntity
  8
Layer_1
 62
5
100
AcDbLine
 10
691.837270
 20
647.283846
 30
0.0
 11
709.663519
 21
647.283846
 31
0.0
  0
LINE
  5
3e9
100
AcDbEntity
  8
Layer_1
 62
5
100
AcDbLine
 10
709.663519
 20
647.283846
 30
0.0
 11
718.576943
 21
631.845233
 31
0.0
  0
LINE
  5
3ea
100
AcDbEntity
  8
Layer_1
 62
5
100
AcDbLine
 10
718.576943
 20
631.845233
 30
0.0
 11
718.576943
 21
631.845585
 31
0.0
  0
LINE
  5
3eb
100
AcDbEntity
  8
Layer_1
 62
5
100
AcDbLine
 10
682.970482
 20
570.222010
 30
0.0
 11
674.069723
 21
554.805621
 31
0.0
  0
LINE
  5
3ec
100
AcDbEntity
  8
Layer_1
 62
5
100
AcDbLine
 10
674.069723
 20
554.805621
 30
0.0
 11
656.277869
 21
554.805621
 31
0.0
  0
LINE
  5
3ed
100
AcDbEntity
  8
Layer_1
 62
5
100
AcDbLine
 10
656.277869
 20
554.805621
 30
0.0
 11
647.364480
 21
570.243883
 31
0.0
  0
LINE
  5
3ee
100
AcDbEntity
  8
Layer_1
 62
5
100
AcDbLine
 10
647.364480
 20
570.243883
 30
0.0
 11
656.267180
 21
585.663799
 31
0.0
  0
LINE
  5
3ef
100
AcDbEntity
  8
Layer_1
 62
5
100
AcDbLine
 10
656.267180
 20
585.663799
 30
0.0
 11
674.054765
 21
585.663799
 31
0.0
  0
LINE
  5
3f0
100
AcDbEntity
  8
Layer_1
 62
5
100
AcDbLine
 10
674.054765
 20
585.663799
 30
0.0
 11
682.970482
 21
570.221658
 31
0.0
  0
LINE
  5
3f1
100
AcDbEntity
  8
Layer_1
 62
5
100
AcDbLine
 10
682.970482
 20
570.221658
 30
0.0
 11
682.970482
 21
570.222010
 31
0.0
  0
LINE
  5
3f2
100
AcDbEntity
  8
Layer_1
 62
5
100
AcDbLine
 10
753.841774
 20
692.998908
 30
0.0
 11
744.955125
 21
677.606860
 31
0.0
  0
LINE
  5
3f3
100
AcDbEntity
  8
Layer_1
 62
5
100
AcDbLine
 10
744.955125
 20
677.606860
 30
0.0
 11
727.084179
 21
677.606860
 31
0.0
  0
LINE
  5
3f4
100
AcDbEntity
  8
Layer_1
 62
5
100
AcDbLine
 10
727.084179
 20
677.606860
 30
0.0
 11
718.194850
 21
693.003494
 31
0.0
  0
LINE
  5
3f5
100
AcDbEntity
  8
Layer_1
 62
5
100
AcDbLine
 10
718.194850
 20
693.003494
 30
0.0
 11
727.105840
 21
708.437521
 31
0.0
  0
LINE
  5
3f6
100
AcDbEntity
  8
Layer_1
 62
5
100
AcDbLine
 10
727.105840
 20
708.437521
 30
0.0
 11
744.928632
 21
708.437521
 31
0.0
  0
LINE
  5
3f7
100
AcDbEntity
  8
Layer_1
 62
5
100
AcDbLine
 10
744.928632
 20
708.437521
 30
0.0
 11
753.841774
 21
692.999613
 31
0.0
  0
LINE
  5
3f8
100
AcDbEntity
  8
Layer_1
 62
5
100
AcDbLine
 10
753.841774
 20
692.999613
 30
0.0
 11
753.841774
 21
692.998908
 31
0.0
  0
LINE
  5
3f9
100
AcDbEntity
  8
Layer_1
 62
5
100
AcDbLine
 10
644.099134
 20
509.435577
 30
0.0
 11
636.613895
 21
496.470641
 31
0.0
  0
LINE
  5
3fa
100
AcDbEntity
  8
Layer_1
 62
5
100
AcDbLine
 10
636.613895
 20
496.470641
 30
0.0
 11
630.234332
 21
496.470641
 31
0.0
  0
LINE
  5
3fb
100
AcDbEntity
  8
Layer_1
 62
5
100
AcDbLine
 10
630.234332
 20
496.470641
 30
0.0
 11
640.909388
 21
514.960430
 31
0.0
  0
LINE
  5
3fc
100
AcDbEntity
  8
Layer_1
 62
5
100
AcDbLine
 10
640.909388
 20
514.960430
 30
0.0
 11
644.099134
 21
509.435577
 31
0.0
  0
LINE
  5
3fd
100
AcDbEntity
  8
Layer_1
 62
5
100
AcDbLine
 10
644.099134
 20
509.435577
 30
0.0
 11
644.099134
 21
509.435577
 31
0.0
  0
LINE
  5
3fe
100
AcDbEntity
  8
Layer_1
 62
5
100
AcDbLine
 10
785.747631
 20
754.945274
 30
0.0
 11
778.262392
 21
741.980691
 31
0.0
  0
LINE
  5
3ff
100
AcDbEntity
  8
Layer_1
 62
5
100
AcDbLine
 10
778.262392
 20
741.980691
 30
0.0
 11
771.891649
 21
741.980691
 31
0.0
  0
LINE
  5
400
100
AcDbEntity
  8
Layer_1
 62
5
100
AcDbLine
 10
771.891649
 20
741.980691
 30
0.0
 11
782.562471
 21
760.463071
 31
0.0
  0
LINE
  5
401
100
AcDbEntity
  8
Layer_1
 62
5
100
AcDbLine
 10
782.562471
 20
760.463071
 30
0.0
 11
785.747631
 21
754.945627
 31
0.0
  0
LINE
  5
402
100
AcDbEntity
  8
Layer_1
 62
5
100
AcDbLine
 10
785.747631
 20
754.945627
 30
0.0
 11
785.747631
 21
754.945274
 31
0.0
  0
LINE
  5
403
100
AcDbEntity
  8
Layer_1
 62
5
100
AcDbLine
 10
520.990308
 20
298.585944
 30
0.0
 11
508.359100
 21
298.585944
 31
0.0
  0
LINE
  5
404
100
AcDbEntity
  8
Layer_1
 62
5
100
AcDbLine
 10
508.359100
 20
298.585944
 30
0.0
 11
493.389045
 21
324.515110
 31
0.0
  0
LINE
  5
405
100
AcDbEntity
  8
Layer_1
 62
5
100
AcDbLine
 10
493.389045
 20
324.515110
 30
0.0
 11
499.704649
 21
335.454044
 31
0.0
  0
LINE
  5
406
100
AcDbEntity
  8
Layer_1
 62
5
100
AcDbLine
 10
499.704649
 20
335.454044
 30
0.0
 11
520.990308
 21
298.585944
 31
0.0
  0
LINE
  5
407
100
AcDbEntity
  8
Layer_1
 62
5
100
AcDbLine
 10
520.990308
 20
298.585944
 30
0.0
 11
520.990308
 21
298.585944
 31
0.0
  0
LINE
  5
408
100
AcDbEntity
  8
Layer_1
 62
5
100
AcDbLine
 10
898.912957
 20
953.439571
 30
0.0
 11
856.306468
 21
953.439571
 31
0.0
  0
LINE
  5
409
100
AcDbEntity
  8
Layer_1
 62
5
100
AcDbLine
 10
856.306468
 20
953.439571
 30
0.0
 11
862.639358
 21
964.408491
 31
0.0
  0
LINE
  5
40a
100
AcDbEntity
  8
Layer_1
 62
5
100
AcDbLine
 10
862.639358
 20
964.408491
 30
0.0
 11
892.579925
 21
964.408491
 31
0.0
  0
LINE
  5
40b
100
AcDbEntity
  8
Layer_1
 62
5
100
AcDbLine
 10
892.579925
 20
964.408491
 30
0.0
 11
898.912957
 21
953.439219
 31
0.0
  0
LINE
  5
40c
100
AcDbEntity
  8
Layer_1
 62
5
100
AcDbLine
 10
898.912957
 20
953.439219
 30
0.0
 11
898.912957
 21
953.439571
 31
0.0
  0
LINE
  5
40d
100
AcDbEntity
  8
Layer_1
 62
5
100
AcDbLine
 10
718.577225
 20
672.326130
 30
0.0
 11
709.892895
 21
657.284391
 31
0.0
  0
LINE
  5
40e
100
AcDbEntity
  8
Layer_1
 62
5
100
AcDbLine
 10
709.892895
 20
657.284391
 30
0.0
 11
691.496239
 21
657.284391
 31
0.0
  0
LINE
  5
40f
100
AcDbEntity
  8
Layer_1
 62
5
100
AcDbLine
 10
691.496239
 20
657.284391
 30
0.0
 11
682.664553
 21
672.581188
 31
0.0
  0
LINE
  5
410
100
AcDbEntity
  8
Layer_1
 62
5
100
AcDbLine
 10
682.664553
 20
672.581188
 30
0.0
 11
691.588773
 21
688.038499
 31
0.0
  0
LINE
  5
411
100
AcDbEntity
  8
Layer_1
 62
5
100
AcDbLine
 10
691.588773
 20
688.038499
 30
0.0
 11
709.505862
 21
688.038499
 31
0.0
  0
LINE
  5
412
100
AcDbEntity
  8
Layer_1
 62
5
100
AcDbLine
 10
709.505862
 20
688.038499
 30
0.0
 11
718.577225
 21
672.326835
 31
0.0
  0
LINE
  5
413
100
AcDbEntity
  8
Layer_1
 62
5
100
AcDbLine
 10
718.577225
 20
672.326835
 30
0.0
 11
718.577225
 21
672.326130
 31
0.0
  0
LINE
  5
414
100
AcDbEntity
  8
Layer_1
 62
5
100
AcDbLine
 10
647.613647
 20
549.716802
 30
0.0
 11
642.856439
 21
541.476971
 31
0.0
  0
LINE
  5
415
100
AcDbEntity
  8
Layer_1
 62
5
100
AcDbLine
 10
642.856439
 20
541.476971
 30
0.0
 11
629.124140
 21
565.260896
 31
0.0
  0
LINE
  5
416
100
AcDbEntity
  8
Layer_1
 62
5
100
AcDbLine
 10
629.124140
 20
565.260896
 30
0.0
 11
638.639051
 21
565.260896
 31
0.0
  0
LINE
  5
417
100
AcDbEntity
  8
Layer_1
 62
5
100
AcDbLine
 10
638.639051
 20
565.260896
 30
0.0
 11
647.613647
 21
549.716802
 31
0.0
  0
LINE
  5
418
100
AcDbEntity
  8
Layer_1
 62
5
100
AcDbLine
 10
647.613647
 20
549.716802
 30
0.0
 11
647.613647
 21
549.716802
 31
0.0
  0
LINE
  5
419
100
AcDbEntity
  8
Layer_1
 62
5
100
AcDbLine
 10
683.181655
 20
611.399644
 30
0.0
 11
674.106976
 21
595.681983
 31
0.0
  0
LINE
  5
41a
100
AcDbEntity
  8
Layer_1
 62
5
100
AcDbLine
 10
674.106976
 20
595.681983
 30
0.0
 11
656.172142
 21
595.681983
 31
0.0
  0
LINE
  5
41b
100
AcDbEntity
  8
Layer_1
 62
5
100
AcDbLine
 10
656.172142
 20
595.681983
 30
0.0
 11
647.225309
 21
611.178452
 31
0.0
  0
LINE
  5
41c
100
AcDbEntity
  8
Layer_1
 62
5
100
AcDbLine
 10
647.225309
 20
611.178452
 30
0.0
 11
656.155526
 21
626.645994
 31
0.0
  0
LINE
  5
41d
100
AcDbEntity
  8
Layer_1
 62
5
100
AcDbLine
 10
656.155526
 20
626.645994
 30
0.0
 11
674.379250
 21
626.645994
 31
0.0
  0
LINE
  5
41e
100
AcDbEntity
  8
Layer_1
 62
5
100
AcDbLine
 10
674.379250
 20
626.645994
 30
0.0
 11
683.181655
 21
611.399996
 31
0.0
  0
LINE
  5
41f
100
AcDbEntity
  8
Layer_1
 62
5
100
AcDbLine
 10
683.181655
 20
611.399996
 30
0.0
 11
683.181655
 21
611.399644
 31
0.0
  0
LINE
  5
420
100
AcDbEntity
  8
Layer_1
 62
5
100
AcDbLine
 10
749.932467
 20
727.022560
 30
0.0
 11
744.978056
 21
718.441241
 31
0.0
  0
LINE
  5
421
100
AcDbEntity
  8
Layer_1
 62
5
100
AcDbLine
 10
744.978056
 20
718.441241
 30
0.0
 11
727.055393
 21
718.441241
 31
0.0
  0
LINE
  5
422
100
AcDbEntity
  8
Layer_1
 62
5
100
AcDbLine
 10
727.055393
 20
718.441241
 30
0.0
 11
722.100840
 21
727.022208
 31
0.0
  0
LINE
  5
423
100
AcDbEntity
  8
Layer_1
 62
5
100
AcDbLine
 10
722.100840
 20
727.022208
 30
0.0
 11
749.932467
 21
727.022208
 31
0.0
  0
LINE
  5
424
100
AcDbEntity
  8
Layer_1
 62
5
100
AcDbLine
 10
749.932467
 20
727.022208
 30
0.0
 11
749.932467
 21
727.022560
 31
0.0
  0
LINE
  5
425
100
AcDbEntity
  8
Layer_1
 62
5
100
AcDbLine
 10
627.874601
 20
522.400866
 30
0.0
 11
617.273276
 21
504.038783
 31
0.0
  0
LINE
  5
426
100
AcDbEntity
  8
Layer_1
 62
5
100
AcDbLine
 10
617.273276
 20
504.038783
 30
0.0
 11
614.157437
 21
509.435930
 31
0.0
  0
LINE
  5
427
100
AcDbEntity
  8
Layer_1
 62
5
100
AcDbLine
 10
614.157437
 20
509.435930
 30
0.0
 11
621.642676
 21
522.400866
 31
0.0
  0
LINE
  5
428
100
AcDbEntity
  8
Layer_1
 62
5
100
AcDbLine
 10
621.642676
 20
522.400866
 30
0.0
 11
627.874601
 21
522.400866
 31
0.0
  0
LINE
  5
429
100
AcDbEntity
  8
Layer_1
 62
5
100
AcDbLine
 10
627.874601
 20
522.400866
 30
0.0
 11
627.874601
 21
522.400866
 31
0.0
  0
LINE
  5
42a
100
AcDbEntity
  8
Layer_1
 62
5
100
AcDbLine
 10
769.531248
 20
767.910563
 30
0.0
 11
758.926043
 21
749.541777
 31
0.0
  0
LINE
  5
42b
100
AcDbEntity
  8
Layer_1
 62
5
100
AcDbLine
 10
758.926043
 20
749.541777
 30
0.0
 11
755.805935
 21
754.945980
 31
0.0
  0
LINE
  5
42c
100
AcDbEntity
  8
Layer_1
 62
5
100
AcDbLine
 10
755.805935
 20
754.945980
 30
0.0
 11
763.291174
 21
767.910563
 31
0.0
  0
LINE
  5
42d
100
AcDbEntity
  8
Layer_1
 62
5
100
AcDbLine
 10
763.291174
 20
767.910563
 30
0.0
 11
769.531248
 21
767.910563
 31
0.0
  0
LINE
  5
42e
100
AcDbEntity
  8
Layer_1
 62
5
100
AcDbLine
 10
769.531248
 20
767.910563
 30
0.0
 11
769.531248
 21
767.910563
 31
0.0
  0
LINE
  5
42f
100
AcDbEntity
  8
Layer_1
 62
5
100
AcDbLine
 10
553.251589
 20
406.508074
 30
0.0
 11
538.281111
 21
380.578555
 31
0.0
  0
LINE
  5
430
100
AcDbEntity
  8
Layer_1
 62
5
100
AcDbLine
 10
538.281111
 20
380.578555
 30
0.0
 11
525.541706
 21
380.578555
 31
0.0
  0
LINE
  5
431
100
AcDbEntity
  8
Layer_1
 62
5
100
AcDbLine
 10
525.541706
 20
380.578555
 30
0.0
 11
546.881939
 21
417.540846
 31
0.0
  0
LINE
  5
432
100
AcDbEntity
  8
Layer_1
 62
5
100
AcDbLine
 10
546.881939
 20
417.540846
 30
0.0
 11
553.251589
 21
406.508074
 31
0.0
  0
LINE
  5
433
100
AcDbEntity
  8
Layer_1
 62
5
100
AcDbLine
 10
553.251589
 20
406.508074
 30
0.0
 11
553.251589
 21
406.508074
 31
0.0
  0
LINE
  5
434
100
AcDbEntity
  8
Layer_1
 62
5
100
AcDbLine
 10
836.548407
 20
897.527821
 30
0.0
 11
821.578106
 21
871.598655
 31
0.0
  0
LINE
  5
435
100
AcDbEntity
  8
Layer_1
 62
5
100
AcDbLine
 10
821.578106
 20
871.598655
 30
0.0
 11
808.976707
 21
871.598655
 31
0.0
  0
LINE
  5
436
100
AcDbEntity
  8
Layer_1
 62
5
100
AcDbLine
 10
808.976707
 20
871.598655
 30
0.0
 11
830.247796
 21
908.441002
 31
0.0
  0
LINE
  5
437
100
AcDbEntity
  8
Layer_1
 62
5
100
AcDbLine
 10
830.247796
 20
908.441002
 30
0.0
 11
836.548407
 21
897.528174
 31
0.0
  0
LINE
  5
438
100
AcDbEntity
  8
Layer_1
 62
5
100
AcDbLine
 10
836.548407
 20
897.528174
 30
0.0
 11
836.548407
 21
897.527821
 31
0.0
  0
LINE
  5
439
100
AcDbEntity
  8
Layer_1
 62
5
100
AcDbLine
 10
604.288691
 20
496.529908
 30
0.0
 11
574.405873
 21
496.529908
 31
0.0
  0
LINE
  5
43a
100
AcDbEntity
  8
Layer_1
 62
5
100
AcDbLine
 10
574.405873
 20
496.529908
 30
0.0
 11
555.136375
 21
529.906566
 31
0.0
  0
LINE
  5
43b
100
AcDbEntity
  8
Layer_1
 62
5
100
AcDbLine
 10
555.136375
 20
529.906566
 30
0.0
 11
570.017776
 21
555.681921
 31
0.0
  0
LINE
  5
43c
100
AcDbEntity
  8
Layer_1
 62
5
100
AcDbLine
 10
570.017776
 20
555.681921
 30
0.0
 11
577.496594
 21
542.727216
 31
0.0
  0
LINE
  5
43d
100
AcDbEntity
  8
Layer_1
 62
5
100
AcDbLine
 10
577.496594
 20
542.727216
 30
0.0
 11
609.787614
 21
542.727216
 31
0.0
  0
LINE
  5
43e
100
AcDbEntity
  8
Layer_1
 62
5
100
AcDbLine
 10
609.787614
 20
542.727216
 30
0.0
 11
617.255214
 21
555.661460
 31
0.0
  0
LINE
  5
43f
100
AcDbEntity
  8
Layer_1
 62
5
100
AcDbLine
 10
617.255214
 20
555.661460
 30
0.0
 11
627.797731
 21
537.401330
 31
0.0
  0
LINE
  5
440
100
AcDbEntity
  8
Layer_1
 62
5
100
AcDbLine
 10
627.797731
 20
537.401330
 30
0.0
 11
612.982264
 21
537.401330
 31
0.0
  0
LINE
  5
441
100
AcDbEntity
  8
Layer_1
 62
5
100
AcDbLine
 10
612.982264
 20
537.401330
 30
0.0
 11
596.836860
 21
509.436635
 31
0.0
  0
LINE
  5
442
100
AcDbEntity
  8
Layer_1
 62
5
100
AcDbLine
 10
596.836860
 20
509.436635
 30
0.0
 11
604.288691
 21
496.530260
 31
0.0
  0
LINE
  5
443
100
AcDbEntity
  8
Layer_1
 62
5
100
AcDbLine
 10
604.288691
 20
496.530260
 30
0.0
 11
604.288691
 21
496.529908
 31
0.0
  0
LINE
  5
444
100
AcDbEntity
  8
Layer_1
 62
5
100
AcDbLine
 10
745.936835
 20
742.039252
 30
0.0
 11
724.779800
 21
742.039252
 31
0.0
  0
LINE
  5
445
100
AcDbEntity
  8
Layer_1
 62
5
100
AcDbLine
 10
724.779800
 20
742.039252
 30
0.0
 11
732.230466
 21
754.944216
 31
0.0
  0
LINE
  5
446
100
AcDbEntity
  8
Layer_1
 62
5
100
AcDbLine
 10
732.230466
 20
754.944216
 30
0.0
 11
716.084392
 21
782.908910
 31
0.0
  0
LINE
  5
447
100
AcDbEntity
  8
Layer_1
 62
5
100
AcDbLine
 10
716.084392
 20
782.908910
 30
0.0
 11
711.754680
 21
782.908910
 31
0.0
  0
LINE
  5
448
100
AcDbEntity
  8
Layer_1
 62
5
100
AcDbLine
 10
711.754680
 20
782.908910
 30
0.0
 11
701.119170
 21
782.908910
 31
0.0
  0
LINE
  5
449
100
AcDbEntity
  8
Layer_1
 62
5
100
AcDbLine
 10
701.119170
 20
782.908910
 30
0.0
 11
716.053488
 21
808.775988
 31
0.0
  0
LINE
  5
44a
100
AcDbEntity
  8
Layer_1
 62
5
100
AcDbLine
 10
716.053488
 20
808.775988
 30
0.0
 11
754.593543
 21
808.775988
 31
0.0
  0
LINE
  5
44b
100
AcDbEntity
  8
Layer_1
 62
5
100
AcDbLine
 10
754.593543
 20
808.775988
 30
0.0
 11
769.526450
 21
782.911380
 31
0.0
  0
LINE
  5
44c
100
AcDbEntity
  8
Layer_1
 62
5
100
AcDbLine
 10
769.526450
 20
782.911380
 30
0.0
 11
754.630550
 21
782.911380
 31
0.0
  0
LINE
  5
44d
100
AcDbEntity
  8
Layer_1
 62
5
100
AcDbLine
 10
754.630550
 20
782.911380
 30
0.0
 11
738.484969
 21
754.946333
 31
0.0
  0
LINE
  5
44e
100
AcDbEntity
  8
Layer_1
 62
5
100
AcDbLine
 10
738.484969
 20
754.946333
 30
0.0
 11
745.936835
 21
742.039958
 31
0.0
  0
LINE
  5
44f
100
AcDbEntity
  8
Layer_1
 62
5
100
AcDbLine
 10
745.936835
 20
742.039958
 30
0.0
 11
745.936835
 21
742.039252
 31
0.0
  0
LINE
  5
450
100
AcDbEntity
  8
Layer_1
 62
5
100
AcDbLine
 10
647.500088
 20
590.699702
 30
0.0
 11
638.586981
 21
575.261794
 31
0.0
  0
LINE
  5
451
100
AcDbEntity
  8
Layer_1
 62
5
100
AcDbLine
 10
638.586981
 20
575.261794
 30
0.0
 11
623.349838
 21
575.261794
 31
0.0
  0
LINE
  5
452
100
AcDbEntity
  8
Layer_1
 62
5
100
AcDbLine
 10
623.349838
 20
575.261794
 30
0.0
 11
621.605952
 21
578.282630
 31
0.0
  0
LINE
  5
453
100
AcDbEntity
  8
Layer_1
 62
5
100
AcDbLine
 10
621.605952
 20
578.282630
 30
0.0
 11
621.550284
 21
578.282630
 31
0.0
  0
LINE
  5
454
100
AcDbEntity
  8
Layer_1
 62
5
100
AcDbLine
 10
621.550284
 20
578.282630
 30
0.0
 11
613.113991
 21
592.895038
 31
0.0
  0
LINE
  5
455
100
AcDbEntity
  8
Layer_1
 62
5
100
AcDbLine
 10
613.113991
 20
592.895038
 30
0.0
 11
620.760097
 21
606.138316
 31
0.0
  0
LINE
  5
456
100
AcDbEntity
  8
Layer_1
 62
5
100
AcDbLine
 10
620.760097
 20
606.138316
 30
0.0
 11
638.586805
 21
606.138316
 31
0.0
  0
LINE
  5
457
100
AcDbEntity
  8
Layer_1
 62
5
100
AcDbLine
 10
638.586805
 20
606.138316
 30
0.0
 11
647.499735
 21
590.700408
 31
0.0
  0
LINE
  5
458
100
AcDbEntity
  8
Layer_1
 62
5
100
AcDbLine
 10
647.499735
 20
590.700408
 30
0.0
 11
647.500088
 21
590.699702
 31
0.0
  0
LINE
  5
459
100
AcDbEntity
  8
Layer_1
 62
5
100
AcDbLine
 10
718.375190
 20
713.476599
 30
0.0
 11
709.462083
 21
698.038691
 31
0.0
  0
LINE
  5
45a
100
AcDbEntity
  8
Layer_1
 62
5
100
AcDbLine
 10
709.462083
 20
698.038691
 30
0.0
 11
691.635198
 21
698.038691
 31
0.0
  0
LINE
  5
45b
100
AcDbEntity
  8
Layer_1
 62
5
100
AcDbLine
 10
691.635198
 20
698.038691
 30
0.0
 11
682.722374
 21
713.476952
 31
0.0
  0
LINE
  5
45c
100
AcDbEntity
  8
Layer_1
 62
5
100
AcDbLine
 10
682.722374
 20
713.476952
 30
0.0
 11
690.518233
 21
726.979874
 31
0.0
  0
LINE
  5
45d
100
AcDbEntity
  8
Layer_1
 62
5
100
AcDbLine
 10
690.518233
 20
726.979874
 30
0.0
 11
710.579436
 21
726.979874
 31
0.0
  0
LINE
  5
45e
100
AcDbEntity
  8
Layer_1
 62
5
100
AcDbLine
 10
710.579436
 20
726.979874
 30
0.0
 11
718.375190
 21
713.477305
 31
0.0
  0
LINE
  5
45f
100
AcDbEntity
  8
Layer_1
 62
5
100
AcDbLine
 10
718.375190
 20
713.477305
 30
0.0
 11
718.375190
 21
713.476599
 31
0.0
  0
LINE
  5
460
100
AcDbEntity
  8
Layer_1
 62
5
100
AcDbLine
 10
682.930019
 20
652.083741
 30
0.0
 11
674.020792
 21
636.652535
 31
0.0
  0
LINE
  5
461
100
AcDbEntity
  8
Layer_1
 62
5
100
AcDbLine
 10
674.020792
 20
636.652535
 30
0.0
 11
656.206961
 21
636.652535
 31
0.0
  0
LINE
  5
462
100
AcDbEntity
  8
Layer_1
 62
5
100
AcDbLine
 10
656.206961
 20
636.652535
 30
0.0
 11
647.294030
 21
652.090796
 31
0.0
  0
LINE
  5
463
100
AcDbEntity
  8
Layer_1
 62
5
100
AcDbLine
 10
647.294030
 20
652.090796
 30
0.0
 11
656.203257
 21
667.522002
 31
0.0
  0
LINE
  5
464
100
AcDbEntity
  8
Layer_1
 62
5
100
AcDbLine
 10
656.203257
 20
667.522002
 30
0.0
 11
674.017053
 21
667.522002
 31
0.0
  0
LINE
  5
465
100
AcDbEntity
  8
Layer_1
 62
5
100
AcDbLine
 10
674.017053
 20
667.522002
 30
0.0
 11
682.930019
 21
652.083741
 31
0.0
  0
LINE
  5
466
100
AcDbEntity
  8
Layer_1
 62
5
100
AcDbLine
 10
682.930019
 20
652.083741
 30
0.0
 11
682.930019
 21
652.083741
 31
0.0
  0
LINE
  5
467
100
AcDbEntity
  8
Layer_1
 62
5
100
AcDbLine
 10
647.492256
 20
631.641680
 30
0.0
 11
638.578973
 21
616.203419
 31
0.0
  0
LINE
  5
468
100
AcDbEntity
  8
Layer_1
 62
5
100
AcDbLine
 10
638.578973
 20
616.203419
 30
0.0
 11
620.752441
 21
616.203419
 31
0.0
  0
LINE
  5
469
100
AcDbEntity
  8
Layer_1
 62
5
100
AcDbLine
 10
620.752441
 20
616.203419
 30
0.0
 11
612.805487
 21
629.967749
 31
0.0
  0
LINE
  5
46a
100
AcDbEntity
  8
Layer_1
 62
5
100
AcDbLine
 10
612.805487
 20
629.967749
 30
0.0
 11
622.685029
 21
647.079588
 31
0.0
  0
LINE
  5
46b
100
AcDbEntity
  8
Layer_1
 62
5
100
AcDbLine
 10
622.685029
 20
647.079588
 30
0.0
 11
638.579008
 21
647.079588
 31
0.0
  0
LINE
  5
46c
100
AcDbEntity
  8
Layer_1
 62
5
100
AcDbLine
 10
638.579008
 20
647.079588
 30
0.0
 11
647.492256
 21
631.640974
 31
0.0
  0
LINE
  5
46d
100
AcDbEntity
  8
Layer_1
 62
5
100
AcDbLine
 10
647.492256
 20
631.640974
 30
0.0
 11
647.492256
 21
631.641680
 31
0.0
  0
LINE
  5
46e
100
AcDbEntity
  8
Layer_1
 62
5
100
AcDbLine
 10
682.921270
 20
693.026424
 30
0.0
 11
674.008163
 21
677.588163
 31
0.0
  0
LINE
  5
46f
100
AcDbEntity
  8
Layer_1
 62
5
100
AcDbLine
 10
674.008163
 20
677.588163
 30
0.0
 11
656.181455
 21
677.588163
 31
0.0
  0
LINE
  5
470
100
AcDbEntity
  8
Layer_1
 62
5
100
AcDbLine
 10
656.181455
 20
677.588163
 30
0.0
 11
648.198976
 21
691.414230
 31
0.0
  0
LINE
  5
471
100
AcDbEntity
  8
Layer_1
 62
5
100
AcDbLine
 10
648.198976
 20
691.414230
 30
0.0
 11
658.042534
 21
708.463980
 31
0.0
  0
LINE
  5
472
100
AcDbEntity
  8
Layer_1
 62
5
100
AcDbLine
 10
658.042534
 20
708.463980
 30
0.0
 11
674.008022
 21
708.463980
 31
0.0
  0
LINE
  5
473
100
AcDbEntity
  8
Layer_1
 62
5
100
AcDbLine
 10
674.008022
 20
708.463980
 30
0.0
 11
682.921270
 21
693.025366
 31
0.0
  0
LINE
  5
474
100
AcDbEntity
  8
Layer_1
 62
5
100
AcDbLine
 10
682.921270
 20
693.025366
 30
0.0
 11
682.921270
 21
693.026424
 31
0.0
  0
LINE
  5
475
100
AcDbEntity
  8
Layer_1
 62
5
100
AcDbLine
 10
561.414443
 20
488.874983
 30
0.0
 11
550.738506
 21
470.383783
 31
0.0
  0
LINE
  5
476
100
AcDbEntity
  8
Layer_1
 62
5
100
AcDbLine
 10
550.738506
 20
470.383783
 30
0.0
 11
520.704487
 21
522.405099
 31
0.0
  0
LINE
  5
477
100
AcDbEntity
  8
Layer_1
 62
5
100
AcDbLine
 10
520.704487
 20
522.405099
 30
0.0
 11
542.056574
 21
522.405099
 31
0.0
  0
LINE
  5
478
100
AcDbEntity
  8
Layer_1
 62
5
100
AcDbLine
 10
542.056574
 20
522.405099
 30
0.0
 11
561.414443
 21
488.875335
 31
0.0
  0
LINE
  5
479
100
AcDbEntity
  8
Layer_1
 62
5
100
AcDbLine
 10
561.414443
 20
488.875335
 30
0.0
 11
561.414443
 21
488.874983
 31
0.0
  0
LINE
  5
47a
100
AcDbEntity
  8
Layer_1
 62
5
100
AcDbLine
 10
604.294547
 20
563.210552
 30
0.0
 11
601.128190
 21
557.726269
 31
0.0
  0
LINE
  5
47b
100
AcDbEntity
  8
Layer_1
 62
5
100
AcDbLine
 10
601.128190
 20
557.726269
 30
0.0
 11
586.158065
 21
557.726269
 31
0.0
  0
LINE
  5
47c
100
AcDbEntity
  8
Layer_1
 62
5
100
AcDbLine
 10
586.158065
 20
557.726269
 30
0.0
 11
582.991849
 21
563.210552
 31
0.0
  0
LINE
  5
47d
100
AcDbEntity
  8
Layer_1
 62
5
100
AcDbLine
 10
582.991849
 20
563.210552
 30
0.0
 11
604.294547
 21
563.210552
 31
0.0
  0
LINE
  5
47e
100
AcDbEntity
  8
Layer_1
 62
5
100
AcDbLine
 10
604.294547
 20
563.210552
 30
0.0
 11
604.294547
 21
563.210552
 31
0.0
  0
LINE
  5
47f
100
AcDbEntity
  8
Layer_1
 62
5
100
AcDbLine
 10
764.990116
 20
841.640413
 30
0.0
 11
754.685125
 21
823.791621
 31
0.0
  0
LINE
  5
480
100
AcDbEntity
  8
Layer_1
 62
5
100
AcDbLine
 10
754.685125
 20
823.791621
 30
0.0
 11
715.944198
 21
823.791621
 31
0.0
  0
LINE
  5
481
100
AcDbEntity
  8
Layer_1
 62
5
100
AcDbLine
 10
715.944198
 20
823.791621
 30
0.0
 11
705.638642
 21
841.640766
 31
0.0
  0
LINE
  5
482
100
AcDbEntity
  8
Layer_1
 62
5
100
AcDbLine
 10
705.638642
 20
841.640766
 30
0.0
 11
764.990116
 21
841.640766
 31
0.0
  0
LINE
  5
483
100
AcDbEntity
  8
Layer_1
 62
5
100
AcDbLine
 10
764.990116
 20
841.640766
 30
0.0
 11
764.990116
 21
841.640413
 31
0.0
  0
LINE
  5
484
100
AcDbEntity
  8
Layer_1
 62
5
100
AcDbLine
 10
714.910876
 20
754.943510
 30
0.0
 11
711.757925
 21
749.482510
 31
0.0
  0
LINE
  5
485
100
AcDbEntity
  8
Layer_1
 62
5
100
AcDbLine
 10
711.757925
 20
749.482510
 30
0.0
 11
701.119523
 21
767.908446
 31
0.0
  0
LINE
  5
486
100
AcDbEntity
  8
Layer_1
 62
5
100
AcDbLine
 10
701.119523
 20
767.908446
 30
0.0
 11
707.425179
 21
767.908446
 31
0.0
  0
LINE
  5
487
100
AcDbEntity
  8
Layer_1
 62
5
100
AcDbLine
 10
707.425179
 20
767.908446
 30
0.0
 11
714.910876
 21
754.943510
 31
0.0
  0
LINE
  5
488
100
AcDbEntity
  8
Layer_1
 62
5
100
AcDbLine
 10
714.910876
 20
754.943510
 30
0.0
 11
714.910876
 21
754.943510
 31
0.0
  0
LINE
  5
489
100
AcDbEntity
  8
Layer_1
 62
5
100
AcDbLine
 10
520.842847
 20
432.437241
 30
0.0
 11
499.621500
 21
395.680619
 31
0.0
  0
LINE
  5
48a
100
AcDbEntity
  8
Layer_1
 62
5
100
AcDbLine
 10
499.621500
 20
395.680619
 30
0.0
 11
493.370983
 21
406.507369
 31
0.0
  0
LINE
  5
48b
100
AcDbEntity
  8
Layer_1
 62
5
100
AcDbLine
 10
493.370983
 20
406.507369
 30
0.0
 11
508.341461
 21
432.436888
 31
0.0
  0
LINE
  5
48c
100
AcDbEntity
  8
Layer_1
 62
5
100
AcDbLine
 10
508.341461
 20
432.436888
 30
0.0
 11
520.842847
 21
432.436888
 31
0.0
  0
LINE
  5
48d
100
AcDbEntity
  8
Layer_1
 62
5
100
AcDbLine
 10
520.842847
 20
432.436888
 30
0.0
 11
520.842847
 21
432.437241
 31
0.0
  0
LINE
  5
48e
100
AcDbEntity
  8
Layer_1
 62
5
100
AcDbLine
 10
804.277496
 20
923.456283
 30
0.0
 11
782.987533
 21
886.581127
 31
0.0
  0
LINE
  5
48f
100
AcDbEntity
  8
Layer_1
 62
5
100
AcDbLine
 10
782.987533
 20
886.581127
 30
0.0
 11
776.668436
 21
897.527116
 31
0.0
  0
LINE
  5
490
100
AcDbEntity
  8
Layer_1
 62
5
100
AcDbLine
 10
776.668436
 20
897.527116
 30
0.0
 11
791.638738
 21
923.456283
 31
0.0
  0
LINE
  5
491
100
AcDbEntity
  8
Layer_1
 62
5
100
AcDbLine
 10
791.638738
 20
923.456283
 30
0.0
 11
804.277496
 21
923.456283
 31
0.0
  0
LINE
  5
492
100
AcDbEntity
  8
Layer_1
 62
5
100
AcDbLine
 10
804.277496
 20
923.456283
 30
0.0
 11
804.277496
 21
923.456283
 31
0.0
  0
LINE
  5
493
100
AcDbEntity
  8
Layer_1
 62
5
100
AcDbLine
 10
698.759263
 20
741.978927
 30
0.0
 11
692.454701
 21
741.978927
 31
0.0
  0
LINE
  5
494
100
AcDbEntity
  8
Layer_1
 62
5
100
AcDbLine
 10
692.454701
 20
741.978927
 30
0.0
 11
684.969850
 21
754.943863
 31
0.0
  0
LINE
  5
495
100
AcDbEntity
  8
Layer_1
 62
5
100
AcDbLine
 10
684.969850
 20
754.943863
 30
0.0
 11
688.121920
 21
760.403452
 31
0.0
  0
LINE
  5
496
100
AcDbEntity
  8
Layer_1
 62
5
100
AcDbLine
 10
688.121920
 20
760.403452
 30
0.0
 11
698.759263
 21
741.979280
 31
0.0
  0
LINE
  5
497
100
AcDbEntity
  8
Layer_1
 62
5
100
AcDbLine
 10
698.759263
 20
741.979280
 30
0.0
 11
698.759263
 21
741.978927
 31
0.0
  0
LINE
  5
498
100
AcDbEntity
  8
Layer_1
 62
5
100
AcDbLine
 10
604.230659
 20
578.281571
 30
0.0
 11
583.055137
 21
578.281571
 31
0.0
  0
LINE
  5
499
100
AcDbEntity
  8
Layer_1
 62
5
100
AcDbLine
 10
583.055137
 20
578.281571
 30
0.0
 11
586.157994
 21
583.656141
 31
0.0
  0
LINE
  5
49a
100
AcDbEntity
  8
Layer_1
 62
5
100
AcDbLine
 10
586.157994
 20
583.656141
 30
0.0
 11
601.128119
 21
583.656141
 31
0.0
  0
LINE
  5
49b
100
AcDbEntity
  8
Layer_1
 62
5
100
AcDbLine
 10
601.128119
 20
583.656141
 30
0.0
 11
604.230659
 21
578.282277
 31
0.0
  0
LINE
  5
49c
100
AcDbEntity
  8
Layer_1
 62
5
100
AcDbLine
 10
604.230659
 20
578.282277
 30
0.0
 11
604.230659
 21
578.281571
 31
0.0
  0
LINE
  5
49d
100
AcDbEntity
  8
Layer_1
 62
5
100
AcDbLine
 10
612.115560
 20
611.162930
 30
0.0
 11
604.894375
 21
598.655546
 31
0.0
  0
LINE
  5
49e
100
AcDbEntity
  8
Layer_1
 62
5
100
AcDbLine
 10
604.894375
 20
598.655546
 30
0.0
 11
586.107265
 21
598.655546
 31
0.0
  0
LINE
  5
49f
100
AcDbEntity
  8
Layer_1
 62
5
100
AcDbLine
 10
586.107265
 20
598.655546
 30
0.0
 11
578.579269
 21
611.694919
 31
0.0
  0
LINE
  5
4a0
100
AcDbEntity
  8
Layer_1
 62
5
100
AcDbLine
 10
578.579269
 20
611.694919
 30
0.0
 11
586.086733
 21
624.697955
 31
0.0
  0
LINE
  5
4a1
100
AcDbEntity
  8
Layer_1
 62
5
100
AcDbLine
 10
586.086733
 20
624.697955
 30
0.0
 11
604.301214
 21
624.697955
 31
0.0
  0
LINE
  5
4a2
100
AcDbEntity
  8
Layer_1
 62
5
100
AcDbLine
 10
604.301214
 20
624.697955
 30
0.0
 11
612.115560
 21
611.162577
 31
0.0
  0
LINE
  5
4a3
100
AcDbEntity
  8
Layer_1
 62
5
100
AcDbLine
 10
612.115560
 20
611.162577
 30
0.0
 11
612.115560
 21
611.162930
 31
0.0
  0
LINE
  5
4a4
100
AcDbEntity
  8
Layer_1
 62
5
100
AcDbLine
 10
681.383265
 20
731.155705
 30
0.0
 11
674.056246
 21
718.464877
 31
0.0
  0
LINE
  5
4a5
100
AcDbEntity
  8
Layer_1
 62
5
100
AcDbLine
 10
674.056246
 20
718.464877
 30
0.0
 11
658.628251
 21
718.464877
 31
0.0
  0
LINE
  5
4a6
100
AcDbEntity
  8
Layer_1
 62
5
100
AcDbLine
 10
658.628251
 20
718.464877
 30
0.0
 11
649.385050
 21
734.475344
 31
0.0
  0
LINE
  5
4a7
100
AcDbEntity
  8
Layer_1
 62
5
100
AcDbLine
 10
649.385050
 20
734.475344
 30
0.0
 11
656.892690
 21
747.479085
 31
0.0
  0
LINE
  5
4a8
100
AcDbEntity
  8
Layer_1
 62
5
100
AcDbLine
 10
656.892690
 20
747.479085
 30
0.0
 11
671.959512
 21
747.479085
 31
0.0
  0
LINE
  5
4a9
100
AcDbEntity
  8
Layer_1
 62
5
100
AcDbLine
 10
671.959512
 20
747.479085
 30
0.0
 11
681.383265
 21
731.156410
 31
0.0
  0
LINE
  5
4aa
100
AcDbEntity
  8
Layer_1
 62
5
100
AcDbLine
 10
681.383265
 20
731.156410
 30
0.0
 11
681.383265
 21
731.155705
 31
0.0
  0
LINE
  5
4ab
100
AcDbEntity
  8
Layer_1
 62
5
100
AcDbLine
 10
647.545526
 20
672.546969
 30
0.0
 11
638.615309
 21
657.079427
 31
0.0
  0
LINE
  5
4ac
100
AcDbEntity
  8
Layer_1
 62
5
100
AcDbLine
 10
638.615309
 20
657.079427
 30
0.0
 11
628.372900
 21
657.079427
 31
0.0
  0
LINE
  5
4ad
100
AcDbEntity
  8
Layer_1
 62
5
100
AcDbLine
 10
628.372900
 20
657.079427
 30
0.0
 11
642.424392
 21
681.417213
 31
0.0
  0
LINE
  5
4ae
100
AcDbEntity
  8
Layer_1
 62
5
100
AcDbLine
 10
642.424392
 20
681.417213
 30
0.0
 11
647.545526
 21
672.546969
 31
0.0
  0
LINE
  5
4af
100
AcDbEntity
  8
Layer_1
 62
5
100
AcDbLine
 10
647.545526
 20
672.546969
 30
0.0
 11
647.545526
 21
672.546969
 31
0.0
  0
LINE
  5
4b0
100
AcDbEntity
  8
Layer_1
 62
5
100
AcDbLine
 10
473.718403
 20
380.548216
 30
0.0
 11
413.805695
 21
380.548216
 31
0.0
  0
LINE
  5
4b1
100
AcDbEntity
  8
Layer_1
 62
5
100
AcDbLine
 10
413.805695
 20
380.548216
 30
0.0
 11
375.265569
 21
447.301533
 31
0.0
  0
LINE
  5
4b2
100
AcDbEntity
  8
Layer_1
 62
5
100
AcDbLine
 10
375.265569
 20
447.301533
 30
0.0
 11
405.089402
 21
498.957724
 31
0.0
  0
LINE
  5
4b3
100
AcDbEntity
  8
Layer_1
 62
5
100
AcDbLine
 10
405.089402
 20
498.957724
 30
0.0
 11
419.973344
 21
473.178135
 31
0.0
  0
LINE
  5
4b4
100
AcDbEntity
  8
Layer_1
 62
5
100
AcDbLine
 10
419.973344
 20
473.178135
 30
0.0
 11
428.633721
 21
473.178135
 31
0.0
  0
LINE
  5
4b5
100
AcDbEntity
  8
Layer_1
 62
5
100
AcDbLine
 10
428.633721
 20
473.178135
 30
0.0
 11
484.555207
 21
473.178135
 31
0.0
  0
LINE
  5
4b6
100
AcDbEntity
  8
Layer_1
 62
5
100
AcDbLine
 10
484.555207
 20
473.178135
 30
0.0
 11
499.520393
 21
499.098835
 31
0.0
  0
LINE
  5
4b7
100
AcDbEntity
  8
Layer_1
 62
5
100
AcDbLine
 10
499.520393
 20
499.098835
 30
0.0
 11
520.687201
 21
462.436758
 31
0.0
  0
LINE
  5
4b8
100
AcDbEntity
  8
Layer_1
 62
5
100
AcDbLine
 10
520.687201
 20
462.436758
 30
0.0
 11
491.021800
 21
462.436758
 31
0.0
  0
LINE
  5
4b9
100
AcDbEntity
  8
Layer_1
 62
5
100
AcDbLine
 10
491.021800
 20
462.436758
 30
0.0
 11
458.730992
 21
406.507369
 31
0.0
  0
LINE
  5
4ba
100
AcDbEntity
  8
Layer_1
 62
5
100
AcDbLine
 10
458.730992
 20
406.507369
 30
0.0
 11
473.718403
 21
380.548569
 31
0.0
  0
LINE
  5
4bb
100
AcDbEntity
  8
Layer_1
 62
5
100
AcDbLine
 10
473.718403
 20
380.548569
 30
0.0
 11
473.718403
 21
380.548216
 31
0.0
  0
LINE
  5
4bc
100
AcDbEntity
  8
Layer_1
 62
5
100
AcDbLine
 10
756.973841
 20
871.639224
 30
0.0
 11
714.562932
 21
871.639224
 31
0.0
  0
LINE
  5
4bd
100
AcDbEntity
  8
Layer_1
 62
5
100
AcDbLine
 10
714.562932
 20
871.639224
 30
0.0
 11
729.544698
 21
897.588499
 31
0.0
  0
LINE
  5
4be
100
AcDbEntity
  8
Layer_1
 62
5
100
AcDbLine
 10
729.544698
 20
897.588499
 30
0.0
 11
697.253608
 21
953.517888
 31
0.0
  0
LINE
  5
4bf
100
AcDbEntity
  8
Layer_1
 62
5
100
AcDbLine
 10
697.253608
 20
953.517888
 30
0.0
 11
667.475318
 21
953.517888
 31
0.0
  0
LINE
  5
4c0
100
AcDbEntity
  8
Layer_1
 62
5
100
AcDbLine
 10
667.475318
 20
953.517888
 30
0.0
 11
697.282571
 21
1005.145505
 31
0.0
  0
LINE
  5
4c1
100
AcDbEntity
  8
Layer_1
 62
5
100
AcDbLine
 10
697.282571
 20
1005.145505
 30
0.0
 11
774.362434
 21
1005.145505
 31
0.0
  0
LINE
  5
4c2
100
AcDbEntity
  8
Layer_1
 62
5
100
AcDbLine
 10
774.362434
 20
1005.145505
 30
0.0
 11
804.205705
 21
953.456152
 31
0.0
  0
LINE
  5
4c3
100
AcDbEntity
  8
Layer_1
 62
5
100
AcDbLine
 10
804.205705
 20
953.456152
 30
0.0
 11
774.319148
 21
953.456152
 31
0.0
  0
LINE
  5
4c4
100
AcDbEntity
  8
Layer_1
 62
5
100
AcDbLine
 10
774.319148
 20
953.456152
 30
0.0
 11
742.028516
 21
897.527116
 31
0.0
  0
LINE
  5
4c5
100
AcDbEntity
  8
Layer_1
 62
5
100
AcDbLine
 10
742.028516
 20
897.527116
 30
0.0
 11
756.973841
 21
871.639577
 31
0.0
  0
LINE
  5
4c6
100
AcDbEntity
  8
Layer_1
 62
5
100
AcDbLine
 10
756.973841
 20
871.639577
 30
0.0
 11
756.973841
 21
871.639224
 31
0.0
  0
LINE
  5
4c7
100
AcDbEntity
  8
Layer_1
 62
5
100
AcDbLine
 10
604.271052
 20
645.184113
 30
0.0
 11
601.103284
 21
639.697360
 31
0.0
  0
LINE
  5
4c8
100
AcDbEntity
  8
Layer_1
 62
5
100
AcDbLine
 10
601.103284
 20
639.697360
 30
0.0
 11
586.132841
 21
639.697360
 31
0.0
  0
LINE
  5
4c9
100
AcDbEntity
  8
Layer_1
 62
5
100
AcDbLine
 10
586.132841
 20
639.697360
 30
0.0
 11
582.964826
 21
645.184819
 31
0.0
  0
LINE
  5
4ca
100
AcDbEntity
  8
Layer_1
 62
5
100
AcDbLine
 10
582.964826
 20
645.184819
 30
0.0
 11
604.271052
 21
645.184819
 31
0.0
  0
LINE
  5
4cb
100
AcDbEntity
  8
Layer_1
 62
5
100
AcDbLine
 10
604.271052
 20
645.184819
 30
0.0
 11
604.271052
 21
645.184113
 31
0.0
  0
LINE
  5
4cc
100
AcDbEntity
  8
Layer_1
 62
5
100
AcDbLine
 10
573.097667
 20
591.190416
 30
0.0
 11
569.930075
 21
585.704016
 31
0.0
  0
LINE
  5
4cd
100
AcDbEntity
  8
Layer_1
 62
5
100
AcDbLine
 10
569.930075
 20
585.704016
 30
0.0
 11
559.277598
 21
604.154999
 31
0.0
  0
LINE
  5
4ce
100
AcDbEntity
  8
Layer_1
 62
5
100
AcDbLine
 10
559.277598
 20
604.154999
 30
0.0
 11
565.612463
 21
604.154999
 31
0.0
  0
LINE
  5
4cf
100
AcDbEntity
  8
Layer_1
 62
5
100
AcDbLine
 10
565.612463
 20
604.154999
 30
0.0
 11
573.097667
 21
591.190769
 31
0.0
  0
LINE
  5
4d0
100
AcDbEntity
  8
Layer_1
 62
5
100
AcDbLine
 10
573.097667
 20
591.190769
 30
0.0
 11
573.097667
 21
591.190416
 31
0.0
  0
LINE
  5
4d1
100
AcDbEntity
  8
Layer_1
 62
5
100
AcDbLine
 10
675.079937
 20
767.968771
 30
0.0
 11
671.909523
 21
762.477433
 31
0.0
  0
LINE
  5
4d2
100
AcDbEntity
  8
Layer_1
 62
5
100
AcDbLine
 10
671.909523
 20
762.477433
 30
0.0
 11
656.939257
 21
762.477433
 31
0.0
  0
LINE
  5
4d3
100
AcDbEntity
  8
Layer_1
 62
5
100
AcDbLine
 10
656.939257
 20
762.477433
 30
0.0
 11
653.768914
 21
767.968771
 31
0.0
  0
LINE
  5
4d4
100
AcDbEntity
  8
Layer_1
 62
5
100
AcDbLine
 10
653.768914
 20
767.968771
 30
0.0
 11
675.079937
 21
767.968771
 31
0.0
  0
LINE
  5
4d5
100
AcDbEntity
  8
Layer_1
 62
5
100
AcDbLine
 10
675.079937
 20
767.968771
 30
0.0
 11
675.079937
 21
767.968771
 31
0.0
  0
LINE
  5
4d6
100
AcDbEntity
  8
Layer_1
 62
5
100
AcDbLine
 10
643.903906
 20
713.970488
 30
0.0
 11
640.780588
 21
708.560641
 31
0.0
  0
LINE
  5
4d7
100
AcDbEntity
  8
Layer_1
 62
5
100
AcDbLine
 10
640.780588
 20
708.560641
 30
0.0
 11
630.172243
 21
726.934719
 31
0.0
  0
LINE
  5
4d8
100
AcDbEntity
  8
Layer_1
 62
5
100
AcDbLine
 10
630.172243
 20
726.934719
 30
0.0
 11
636.418879
 21
726.934719
 31
0.0
  0
LINE
  5
4d9
100
AcDbEntity
  8
Layer_1
 62
5
100
AcDbLine
 10
636.418879
 20
726.934719
 30
0.0
 11
643.903907
 21
713.970135
 31
0.0
  0
LINE
  5
4da
100
AcDbEntity
  8
Layer_1
 62
5
100
AcDbLine
 10
643.903907
 20
713.970135
 30
0.0
 11
643.903906
 21
713.970488
 31
0.0
  0
LINE
  5
4db
100
AcDbEntity
  8
Layer_1
 62
5
100
AcDbLine
 10
556.865021
 20
563.226074
 30
0.0
 11
541.956456
 21
537.403446
 31
0.0
  0
LINE
  5
4dc
100
AcDbEntity
  8
Layer_1
 62
5
100
AcDbLine
 10
541.956456
 20
537.403446
 30
0.0
 11
512.056705
 21
537.403446
 31
0.0
  0
LINE
  5
4dd
100
AcDbEntity
  8
Layer_1
 62
5
100
AcDbLine
 10
512.056705
 20
537.403446
 30
0.0
 11
488.466843
 21
578.262169
 31
0.0
  0
LINE
  5
4de
100
AcDbEntity
  8
Layer_1
 62
5
100
AcDbLine
 10
488.466843
 20
578.262169
 30
0.0
 11
503.416859
 21
604.156410
 31
0.0
  0
LINE
  5
4df
100
AcDbEntity
  8
Layer_1
 62
5
100
AcDbLine
 10
503.416859
 20
604.156410
 30
0.0
 11
533.323666
 21
604.156410
 31
0.0
  0
LINE
  5
4e0
100
AcDbEntity
  8
Layer_1
 62
5
100
AcDbLine
 10
533.323666
 20
604.156410
 30
0.0
 11
525.837192
 21
591.189358
 31
0.0
  0
LINE
  5
4e1
100
AcDbEntity
  8
Layer_1
 62
5
100
AcDbLine
 10
525.837192
 20
591.189358
 30
0.0
 11
541.982491
 21
563.225369
 31
0.0
  0
LINE
  5
4e2
100
AcDbEntity
  8
Layer_1
 62
5
100
AcDbLine
 10
541.982491
 20
563.225369
 30
0.0
 11
556.865021
 21
563.225369
 31
0.0
  0
LINE
  5
4e3
100
AcDbEntity
  8
Layer_1
 62
5
100
AcDbLine
 10
556.865021
 20
563.225369
 30
0.0
 11
556.865021
 21
563.226074
 31
0.0
  0
LINE
  5
4e4
100
AcDbEntity
  8
Layer_1
 62
5
100
AcDbLine
 10
702.923982
 20
816.345188
 30
0.0
 11
688.011888
 21
790.516916
 31
0.0
  0
LINE
  5
4e5
100
AcDbEntity
  8
Layer_1
 62
5
100
AcDbLine
 10
688.011888
 20
790.516916
 30
0.0
 11
680.570041
 21
803.406358
 31
0.0
  0
LINE
  5
4e6
100
AcDbEntity
  8
Layer_1
 62
5
100
AcDbLine
 10
680.570041
 20
803.406358
 30
0.0
 11
676.240047
 21
803.406358
 31
0.0
  0
LINE
  5
4e7
100
AcDbEntity
  8
Layer_1
 62
5
100
AcDbLine
 10
676.240047
 20
803.406358
 30
0.0
 11
648.279056
 21
803.406358
 31
0.0
  0
LINE
  5
4e8
100
AcDbEntity
  8
Layer_1
 62
5
100
AcDbLine
 10
648.279056
 20
803.406358
 30
0.0
 11
640.796640
 21
790.446360
 31
0.0
  0
LINE
  5
4e9
100
AcDbEntity
  8
Layer_1
 62
5
100
AcDbLine
 10
640.796640
 20
790.446360
 30
0.0
 11
625.843625
 21
816.344835
 31
0.0
  0
LINE
  5
4ea
100
AcDbEntity
  8
Layer_1
 62
5
100
AcDbLine
 10
625.843625
 20
816.344835
 30
0.0
 11
640.458855
 21
841.659110
 31
0.0
  0
LINE
  5
4eb
100
AcDbEntity
  8
Layer_1
 62
5
100
AcDbLine
 10
640.458855
 20
841.659110
 30
0.0
 11
641.333321
 21
841.659110
 31
0.0
  0
LINE
  5
4ec
100
AcDbEntity
  8
Layer_1
 62
5
100
AcDbLine
 10
641.333321
 20
841.659110
 30
0.0
 11
679.951975
 21
841.659110
 31
0.0
  0
LINE
  5
4ed
100
AcDbEntity
  8
Layer_1
 62
5
100
AcDbLine
 10
679.951975
 20
841.659110
 30
0.0
 11
679.963616
 21
841.641471
 31
0.0
  0
LINE
  5
4ee
100
AcDbEntity
  8
Layer_1
 62
5
100
AcDbLine
 10
679.963616
 20
841.641471
 30
0.0
 11
688.320110
 21
841.641471
 31
0.0
  0
LINE
  5
4ef
100
AcDbEntity
  8
Layer_1
 62
5
100
AcDbLine
 10
688.320110
 20
841.641471
 30
0.0
 11
702.924370
 21
816.347305
 31
0.0
  0
LINE
  5
4f0
100
AcDbEntity
  8
Layer_1
 62
5
100
AcDbLine
 10
702.924370
 20
816.347305
 30
0.0
 11
702.923982
 21
816.345188
 31
0.0
  0
LINE
  5
4f1
100
AcDbEntity
  8
Layer_1
 62
5
100
AcDbLine
 10
627.668650
 20
686.006146
 30
0.0
 11
617.163104
 21
667.810221
 31
0.0
  0
LINE
  5
4f2
100
AcDbEntity
  8
Layer_1
 62
5
100
AcDbLine
 10
617.163104
 20
667.810221
 30
0.0
 11
609.763131
 21
680.626638
 31
0.0
  0
LINE
  5
4f3
100
AcDbEntity
  8
Layer_1
 62
5
100
AcDbLine
 10
609.763131
 20
680.626638
 30
0.0
 11
605.432961
 21
680.626638
 31
0.0
  0
LINE
  5
4f4
100
AcDbEntity
  8
Layer_1
 62
5
100
AcDbLine
 10
605.432961
 20
680.626638
 30
0.0
 11
577.472323
 21
680.626638
 31
0.0
  0
LINE
  5
4f5
100
AcDbEntity
  8
Layer_1
 62
5
100
AcDbLine
 10
577.472323
 20
680.626638
 30
0.0
 11
569.989906
 21
667.666641
 31
0.0
  0
LINE
  5
4f6
100
AcDbEntity
  8
Layer_1
 62
5
100
AcDbLine
 10
569.989906
 20
667.666641
 30
0.0
 11
555.037350
 21
693.564763
 31
0.0
  0
LINE
  5
4f7
100
AcDbEntity
  8
Layer_1
 62
5
100
AcDbLine
 10
555.037350
 20
693.564763
 30
0.0
 11
574.304837
 21
726.937188
 31
0.0
  0
LINE
  5
4f8
100
AcDbEntity
  8
Layer_1
 62
5
100
AcDbLine
 10
574.304837
 20
726.937188
 30
0.0
 11
604.127648
 21
726.937188
 31
0.0
  0
LINE
  5
4f9
100
AcDbEntity
  8
Layer_1
 62
5
100
AcDbLine
 10
604.127648
 20
726.937188
 30
0.0
 11
596.641527
 21
713.970841
 31
0.0
  0
LINE
  5
4fa
100
AcDbEntity
  8
Layer_1
 62
5
100
AcDbLine
 10
596.641527
 20
713.970841
 30
0.0
 11
612.786966
 21
686.006146
 31
0.0
  0
LINE
  5
4fb
100
AcDbEntity
  8
Layer_1
 62
5
100
AcDbLine
 10
612.786966
 20
686.006146
 30
0.0
 11
627.668650
 21
686.006146
 31
0.0
  0
LINE
  5
4fc
100
AcDbEntity
  8
Layer_1
 62
5
100
AcDbLine
 10
627.668650
 20
686.006146
 30
0.0
 11
627.668650
 21
686.006146
 31
0.0
  0
LINE
  5
4fd
100
AcDbEntity
  8
Layer_1
 62
5
100
AcDbLine
 10
556.926616
 20
578.225833
 30
0.0
 11
550.641527
 21
578.225833
 31
0.0
  0
LINE
  5
4fe
100
AcDbEntity
  8
Layer_1
 62
5
100
AcDbLine
 10
550.641527
 20
578.225833
 30
0.0
 11
543.156323
 21
591.190063
 31
0.0
  0
LINE
  5
4ff
100
AcDbEntity
  8
Layer_1
 62
5
100
AcDbLine
 10
543.156323
 20
591.190063
 30
0.0
 11
546.299044
 21
596.633424
 31
0.0
  0
LINE
  5
500
100
AcDbEntity
  8
Layer_1
 62
5
100
AcDbLine
 10
546.299044
 20
596.633424
 30
0.0
 11
556.926616
 21
578.225480
 31
0.0
  0
LINE
  5
501
100
AcDbEntity
  8
Layer_1
 62
5
100
AcDbLine
 10
556.926616
 20
578.225480
 30
0.0
 11
556.926616
 21
578.225833
 31
0.0
  0
LINE
  5
502
100
AcDbEntity
  8
Layer_1
 62
5
100
AcDbLine
 10
604.242371
 20
660.188810
 30
0.0
 11
582.993190
 21
660.188810
 31
0.0
  0
LINE
  5
503
100
AcDbEntity
  8
Layer_1
 62
5
100
AcDbLine
 10
582.993190
 20
660.188810
 30
0.0
 11
586.132559
 21
665.626527
 31
0.0
  0
LINE
  5
504
100
AcDbEntity
  8
Layer_1
 62
5
100
AcDbLine
 10
586.132559
 20
665.626527
 30
0.0
 11
601.102649
 21
665.626527
 31
0.0
  0
LINE
  5
505
100
AcDbEntity
  8
Layer_1
 62
5
100
AcDbLine
 10
601.102649
 20
665.626527
 30
0.0
 11
604.242371
 21
660.189163
 31
0.0
  0
LINE
  5
506
100
AcDbEntity
  8
Layer_1
 62
5
100
AcDbLine
 10
604.242371
 20
660.189163
 30
0.0
 11
604.242371
 21
660.188810
 31
0.0
  0
LINE
  5
507
100
AcDbEntity
  8
Layer_1
 62
5
100
AcDbLine
 10
627.731938
 20
701.006258
 30
0.0
 11
621.447167
 21
701.006258
 31
0.0
  0
LINE
  5
508
100
AcDbEntity
  8
Layer_1
 62
5
100
AcDbLine
 10
621.447167
 20
701.006258
 30
0.0
 11
613.962140
 21
713.970841
 31
0.0
  0
LINE
  5
509
100
AcDbEntity
  8
Layer_1
 62
5
100
AcDbLine
 10
613.962140
 20
713.970841
 30
0.0
 11
617.104684
 21
719.413849
 31
0.0
  0
LINE
  5
50a
100
AcDbEntity
  8
Layer_1
 62
5
100
AcDbLine
 10
617.104684
 20
719.413849
 30
0.0
 11
627.731938
 21
701.006258
 31
0.0
  0
LINE
  5
50b
100
AcDbEntity
  8
Layer_1
 62
5
100
AcDbLine
 10
627.731938
 20
701.006258
 30
0.0
 11
627.731938
 21
701.006258
 31
0.0
  0
LINE
  5
50c
100
AcDbEntity
  8
Layer_1
 62
5
100
AcDbLine
 10
675.048116
 20
782.968883
 30
0.0
 11
653.798476
 21
782.968883
 31
0.0
  0
LINE
  5
50d
100
AcDbEntity
  8
Layer_1
 62
5
100
AcDbLine
 10
653.798476
 20
782.968883
 30
0.0
 11
656.938199
 21
788.406952
 31
0.0
  0
LINE
  5
50e
100
AcDbEntity
  8
Layer_1
 62
5
100
AcDbLine
 10
656.938199
 20
788.406952
 30
0.0
 11
671.908747
 21
788.406952
 31
0.0
  0
LINE
  5
50f
100
AcDbEntity
  8
Layer_1
 62
5
100
AcDbLine
 10
671.908747
 20
788.406952
 30
0.0
 11
675.048116
 21
782.968883
 31
0.0
  0
LINE
  5
510
100
AcDbEntity
  8
Layer_1
 62
5
100
AcDbLine
 10
675.048116
 20
782.968883
 30
0.0
 11
675.048116
 21
782.968883
 31
0.0
  0
LINE
  5
511
100
AcDbEntity
  8
Layer_1
 62
5
100
AcDbLine
 10
573.084791
 20
632.175433
 30
0.0
 11
565.599552
 21
619.210496
 31
0.0
  0
LINE
  5
512
100
AcDbEntity
  8
Layer_1
 62
5
100
AcDbLine
 10
565.599552
 20
619.210496
 30
0.0
 11
559.219989
 21
619.210496
 31
0.0
  0
LINE
  5
513
100
AcDbEntity
  8
Layer_1
 62
5
100
AcDbLine
 10
559.219989
 20
619.210496
 30
0.0
 11
569.895045
 21
637.700285
 31
0.0
  0
LINE
  5
514
100
AcDbEntity
  8
Layer_1
 62
5
100
AcDbLine
 10
569.895045
 20
637.700285
 30
0.0
 11
573.084791
 21
632.175433
 31
0.0
  0
LINE
  5
515
100
AcDbEntity
  8
Layer_1
 62
5
100
AcDbLine
 10
573.084791
 20
632.175433
 30
0.0
 11
573.084791
 21
632.175433
 31
0.0
  0
LINE
  5
516
100
AcDbEntity
  8
Layer_1
 62
5
100
AcDbLine
 10
643.890254
 20
754.956210
 30
0.0
 11
636.405015
 21
741.991627
 31
0.0
  0
LINE
  5
517
100
AcDbEntity
  8
Layer_1
 62
5
100
AcDbLine
 10
636.405015
 20
741.991627
 30
0.0
 11
630.025452
 21
741.991627
 31
0.0
  0
LINE
  5
518
100
AcDbEntity
  8
Layer_1
 62
5
100
AcDbLine
 10
630.025452
 20
741.991627
 30
0.0
 11
640.700508
 21
760.481063
 31
0.0
  0
LINE
  5
519
100
AcDbEntity
  8
Layer_1
 62
5
100
AcDbLine
 10
640.700508
 20
760.481063
 30
0.0
 11
643.890254
 21
754.956210
 31
0.0
  0
LINE
  5
51a
100
AcDbEntity
  8
Layer_1
 62
5
100
AcDbLine
 10
643.890254
 20
754.956210
 30
0.0
 11
643.890254
 21
754.956210
 31
0.0
  0
LINE
  5
51b
100
AcDbEntity
  8
Layer_1
 62
5
100
AcDbLine
 10
556.869536
 20
645.140016
 30
0.0
 11
546.264331
 21
626.771230
 31
0.0
  0
LINE
  5
51c
100
AcDbEntity
  8
Layer_1
 62
5
100
AcDbLine
 10
546.264331
 20
626.771230
 30
0.0
 11
543.144223
 21
632.175080
 31
0.0
  0
LINE
  5
51d
100
AcDbEntity
  8
Layer_1
 62
5
100
AcDbLine
 10
543.144223
 20
632.175080
 30
0.0
 11
550.629462
 21
645.140016
 31
0.0
  0
LINE
  5
51e
100
AcDbEntity
  8
Layer_1
 62
5
100
AcDbLine
 10
550.629462
 20
645.140016
 30
0.0
 11
556.869536
 21
645.140016
 31
0.0
  0
LINE
  5
51f
100
AcDbEntity
  8
Layer_1
 62
5
100
AcDbLine
 10
556.869536
 20
645.140016
 30
0.0
 11
556.869536
 21
645.140016
 31
0.0
  0
LINE
  5
520
100
AcDbEntity
  8
Layer_1
 62
5
100
AcDbLine
 10
627.675670
 20
767.920794
 30
0.0
 11
617.069935
 21
749.551302
 31
0.0
  0
LINE
  5
521
100
AcDbEntity
  8
Layer_1
 62
5
100
AcDbLine
 10
617.069935
 20
749.551302
 30
0.0
 11
613.949686
 21
754.956210
 31
0.0
  0
LINE
  5
522
100
AcDbEntity
  8
Layer_1
 62
5
100
AcDbLine
 10
613.949686
 20
754.956210
 30
0.0
 11
621.434925
 21
767.920794
 31
0.0
  0
LINE
  5
523
100
AcDbEntity
  8
Layer_1
 62
5
100
AcDbLine
 10
621.434925
 20
767.920794
 30
0.0
 11
627.675670
 21
767.920794
 31
0.0
  0
LINE
  5
524
100
AcDbEntity
  8
Layer_1
 62
5
100
AcDbLine
 10
627.675670
 20
767.920794
 30
0.0
 11
627.675670
 21
767.920794
 31
0.0
  0
LINE
  5
525
100
AcDbEntity
  8
Layer_1
 62
5
100
AcDbLine
 10
473.514180
 20
514.054144
 30
0.0
 11
467.234736
 21
503.177652
 31
0.0
  0
LINE
  5
526
100
AcDbEntity
  8
Layer_1
 62
5
100
AcDbLine
 10
467.234736
 20
503.177652
 30
0.0
 11
437.293710
 21
503.177652
 31
0.0
  0
LINE
  5
527
100
AcDbEntity
  8
Layer_1
 62
5
100
AcDbLine
 10
437.293710
 20
503.177652
 30
0.0
 11
431.014512
 21
514.053791
 31
0.0
  0
LINE
  5
528
100
AcDbEntity
  8
Layer_1
 62
5
100
AcDbLine
 10
431.014512
 20
514.053791
 30
0.0
 11
473.514180
 21
514.053791
 31
0.0
  0
LINE
  5
529
100
AcDbEntity
  8
Layer_1
 62
5
100
AcDbLine
 10
473.514180
 20
514.053791
 30
0.0
 11
473.514180
 21
514.054144
 31
0.0
  0
LINE
  5
52a
100
AcDbEntity
  8
Layer_1
 62
5
100
AcDbLine
 10
694.903191
 20
897.589205
 30
0.0
 11
688.601698
 21
886.674966
 31
0.0
  0
LINE
  5
52b
100
AcDbEntity
  8
Layer_1
 62
5
100
AcDbLine
 10
688.601698
 20
886.674966
 30
0.0
 11
667.330256
 21
923.518019
 31
0.0
  0
LINE
  5
52c
100
AcDbEntity
  8
Layer_1
 62
5
100
AcDbLine
 10
667.330256
 20
923.518019
 30
0.0
 11
679.932925
 21
923.518019
 31
0.0
  0
LINE
  5
52d
100
AcDbEntity
  8
Layer_1
 62
5
100
AcDbLine
 10
679.932925
 20
923.518019
 30
0.0
 11
694.903191
 21
897.588852
 31
0.0
  0
LINE
  5
52e
100
AcDbEntity
  8
Layer_1
 62
5
100
AcDbLine
 10
694.903191
 20
897.588852
 30
0.0
 11
694.903191
 21
897.589205
 31
0.0
  0
LINE
  5
52f
100
AcDbEntity
  8
Layer_1
 62
5
100
AcDbLine
 10
556.875710
 20
660.140480
 30
0.0
 11
541.969085
 21
660.140480
 31
0.0
  0
LINE
  5
530
100
AcDbEntity
  8
Layer_1
 62
5
100
AcDbLine
 10
541.969085
 20
660.140480
 30
0.0
 11
525.823681
 21
632.175785
 31
0.0
  0
LINE
  5
531
100
AcDbEntity
  8
Layer_1
 62
5
100
AcDbLine
 10
525.823681
 20
632.175785
 30
0.0
 11
533.275618
 21
619.268705
 31
0.0
  0
LINE
  5
532
100
AcDbEntity
  8
Layer_1
 62
5
100
AcDbLine
 10
533.275618
 20
619.268705
 30
0.0
 11
503.392694
 21
619.268705
 31
0.0
  0
LINE
  5
533
100
AcDbEntity
  8
Layer_1
 62
5
100
AcDbLine
 10
503.392694
 20
619.268705
 30
0.0
 11
488.794538
 21
644.553346
 31
0.0
  0
LINE
  5
534
100
AcDbEntity
  8
Layer_1
 62
5
100
AcDbLine
 10
488.794538
 20
644.553346
 30
0.0
 11
512.736155
 21
686.021669
 31
0.0
  0
LINE
  5
535
100
AcDbEntity
  8
Layer_1
 62
5
100
AcDbLine
 10
512.736155
 20
686.021669
 30
0.0
 11
541.933102
 21
686.021669
 31
0.0
  0
LINE
  5
536
100
AcDbEntity
  8
Layer_1
 62
5
100
AcDbLine
 10
541.933102
 20
686.021669
 30
0.0
 11
556.875710
 21
660.140833
 31
0.0
  0
LINE
  5
537
100
AcDbEntity
  8
Layer_1
 62
5
100
AcDbLine
 10
556.875710
 20
660.140833
 30
0.0
 11
556.875710
 21
660.140480
 31
0.0
  0
LINE
  5
538
100
AcDbEntity
  8
Layer_1
 62
5
100
AcDbLine
 10
627.681315
 20
782.920552
 30
0.0
 11
612.774866
 21
782.920552
 31
0.0
  0
LINE
  5
539
100
AcDbEntity
  8
Layer_1
 62
5
100
AcDbLine
 10
612.774866
 20
782.920552
 30
0.0
 11
596.629462
 21
754.955858
 31
0.0
  0
LINE
  5
53a
100
AcDbEntity
  8
Layer_1
 62
5
100
AcDbLine
 10
596.629462
 20
754.955858
 30
0.0
 11
604.081116
 21
742.049130
 31
0.0
  0
LINE
  5
53b
100
AcDbEntity
  8
Layer_1
 62
5
100
AcDbLine
 10
604.081116
 20
742.049130
 30
0.0
 11
574.198157
 21
742.049130
 31
0.0
  0
LINE
  5
53c
100
AcDbEntity
  8
Layer_1
 62
5
100
AcDbLine
 10
574.198157
 20
742.049130
 30
0.0
 11
559.617464
 21
767.303433
 31
0.0
  0
LINE
  5
53d
100
AcDbEntity
  8
Layer_1
 62
5
100
AcDbLine
 10
559.617464
 20
767.303433
 30
0.0
 11
583.576543
 21
808.801741
 31
0.0
  0
LINE
  5
53e
100
AcDbEntity
  8
Layer_1
 62
5
100
AcDbLine
 10
583.576543
 20
808.801741
 30
0.0
 11
612.738565
 21
808.801741
 31
0.0
  0
LINE
  5
53f
100
AcDbEntity
  8
Layer_1
 62
5
100
AcDbLine
 10
612.738565
 20
808.801741
 30
0.0
 11
627.681315
 21
782.920199
 31
0.0
  0
LINE
  5
540
100
AcDbEntity
  8
Layer_1
 62
5
100
AcDbLine
 10
627.681315
 20
782.920199
 30
0.0
 11
627.681315
 21
782.920552
 31
0.0
  0
LINE
  5
541
100
AcDbEntity
  8
Layer_1
 62
5
100
AcDbLine
 10
473.575599
 20
544.054013
 30
0.0
 11
430.953270
 21
544.054013
 31
0.0
  0
LINE
  5
542
100
AcDbEntity
  8
Layer_1
 62
5
100
AcDbLine
 10
430.953270
 20
544.054013
 30
0.0
 11
437.294098
 21
555.036691
 31
0.0
  0
LINE
  5
543
100
AcDbEntity
  8
Layer_1
 62
5
100
AcDbLine
 10
437.294098
 20
555.036691
 30
0.0
 11
467.234489
 21
555.036691
 31
0.0
  0
LINE
  5
544
100
AcDbEntity
  8
Layer_1
 62
5
100
AcDbLine
 10
467.234489
 20
555.036691
 30
0.0
 11
473.575599
 21
544.054013
 31
0.0
  0
LINE
  5
545
100
AcDbEntity
  8
Layer_1
 62
5
100
AcDbLine
 10
473.575599
 20
544.054013
 30
0.0
 11
473.575599
 21
544.054013
 31
0.0
  0
LINE
  5
546
100
AcDbEntity
  8
Layer_1
 62
5
100
AcDbLine
 10
662.630409
 20
871.659685
 30
0.0
 11
649.992145
 21
871.659685
 31
0.0
  0
LINE
  5
547
100
AcDbEntity
  8
Layer_1
 62
5
100
AcDbLine
 10
649.992145
 20
871.659685
 30
0.0
 11
635.022091
 21
897.589205
 31
0.0
  0
LINE
  5
548
100
AcDbEntity
  8
Layer_1
 62
5
100
AcDbLine
 10
635.022091
 20
897.589205
 30
0.0
 11
641.341047
 21
908.533783
 31
0.0
  0
LINE
  5
549
100
AcDbEntity
  8
Layer_1
 62
5
100
AcDbLine
 10
641.341047
 20
908.533783
 30
0.0
 11
662.630409
 21
871.660038
 31
0.0
  0
LINE
  5
54a
100
AcDbEntity
  8
Layer_1
 62
5
100
AcDbLine
 10
662.630409
 20
871.660038
 30
0.0
 11
662.630409
 21
871.659685
 31
0.0
  0
LINE
  5
54b
100
AcDbEntity
  8
Layer_1
 62
5
100
AcDbLine
 10
490.445997
 20
611.692802
 30
0.0
 11
475.056066
 21
585.036560
 31
0.0
  0
LINE
  5
54c
100
AcDbEntity
  8
Layer_1
 62
5
100
AcDbLine
 10
475.056066
 20
585.036560
 30
0.0
 11
437.190804
 21
585.036560
 31
0.0
  0
LINE
  5
54d
100
AcDbEntity
  8
Layer_1
 62
5
100
AcDbLine
 10
437.190804
 20
585.036560
 30
0.0
 11
419.246198
 21
616.117341
 31
0.0
  0
LINE
  5
54e
100
AcDbEntity
  8
Layer_1
 62
5
100
AcDbLine
 10
419.246198
 20
616.117341
 30
0.0
 11
431.372581
 21
637.120671
 31
0.0
  0
LINE
  5
54f
100
AcDbEntity
  8
Layer_1
 62
5
100
AcDbLine
 10
431.372581
 20
637.120671
 30
0.0
 11
475.765185
 21
637.120671
 31
0.0
  0
LINE
  5
550
100
AcDbEntity
  8
Layer_1
 62
5
100
AcDbLine
 10
475.765185
 20
637.120671
 30
0.0
 11
490.445996
 21
611.692449
 31
0.0
  0
LINE
  5
551
100
AcDbEntity
  8
Layer_1
 62
5
100
AcDbLine
 10
490.445996
 20
611.692449
 30
0.0
 11
490.445997
 21
611.692802
 31
0.0
  0
LINE
  5
552
100
AcDbEntity
  8
Layer_1
 62
5
100
AcDbLine
 10
627.904905
 20
849.916580
 30
0.0
 11
612.827536
 21
823.801852
 31
0.0
  0
LINE
  5
553
100
AcDbEntity
  8
Layer_1
 62
5
100
AcDbLine
 10
612.827536
 20
823.801852
 30
0.0
 11
582.817824
 21
823.801852
 31
0.0
  0
LINE
  5
554
100
AcDbEntity
  8
Layer_1
 62
5
100
AcDbLine
 10
582.817824
 20
823.801852
 30
0.0
 11
563.849139
 21
856.656399
 31
0.0
  0
LINE
  5
555
100
AcDbEntity
  8
Layer_1
 62
5
100
AcDbLine
 10
563.849139
 20
856.656399
 30
0.0
 11
578.862303
 21
882.660002
 31
0.0
  0
LINE
  5
556
100
AcDbEntity
  8
Layer_1
 62
5
100
AcDbLine
 10
578.862303
 20
882.660002
 30
0.0
 11
609.000250
 21
882.660002
 31
0.0
  0
LINE
  5
557
100
AcDbEntity
  8
Layer_1
 62
5
100
AcDbLine
 10
609.000250
 20
882.660002
 30
0.0
 11
627.904905
 21
849.916227
 31
0.0
  0
LINE
  5
558
100
AcDbEntity
  8
Layer_1
 62
5
100
AcDbLine
 10
627.904905
 20
849.916227
 30
0.0
 11
627.904905
 21
849.916580
 31
0.0
  0
LINE
  5
559
100
AcDbEntity
  8
Layer_1
 62
5
100
AcDbLine
 10
561.250296
 20
734.474285
 30
0.0
 11
541.936771
 21
701.022485
 31
0.0
  0
LINE
  5
55a
100
AcDbEntity
  8
Layer_1
 62
5
100
AcDbLine
 10
541.936771
 20
701.022485
 30
0.0
 11
521.338076
 21
701.022485
 31
0.0
  0
LINE
  5
55b
100
AcDbEntity
  8
Layer_1
 62
5
100
AcDbLine
 10
521.338076
 20
701.022485
 30
0.0
 11
550.950772
 21
752.313199
 31
0.0
  0
LINE
  5
55c
100
AcDbEntity
  8
Layer_1
 62
5
100
AcDbLine
 10
550.950772
 20
752.313199
 30
0.0
 11
561.250296
 21
734.474285
 31
0.0
  0
LINE
  5
55d
100
AcDbEntity
  8
Layer_1
 62
5
100
AcDbLine
 10
561.250296
 20
734.474285
 30
0.0
 11
561.250296
 21
734.474285
 31
0.0
  0
LINE
  5
55e
100
AcDbEntity
  8
Layer_1
 62
5
100
AcDbLine
 10
473.451668
 20
677.982216
 30
0.0
 11
467.181219
 21
667.121599
 31
0.0
  0
LINE
  5
55f
100
AcDbEntity
  8
Layer_1
 62
5
100
AcDbLine
 10
467.181219
 20
667.121599
 30
0.0
 11
437.240652
 21
667.121599
 31
0.0
  0
LINE
  5
560
100
AcDbEntity
  8
Layer_1
 62
5
100
AcDbLine
 10
437.240652
 20
667.121599
 30
0.0
 11
430.970415
 21
677.982569
 31
0.0
  0
LINE
  5
561
100
AcDbEntity
  8
Layer_1
 62
5
100
AcDbLine
 10
430.970415
 20
677.982569
 30
0.0
 11
473.451668
 21
677.982569
 31
0.0
  0
LINE
  5
562
100
AcDbEntity
  8
Layer_1
 62
5
100
AcDbLine
 10
473.451668
 20
677.982569
 30
0.0
 11
473.451668
 21
677.982216
 31
0.0
  0
LINE
  5
563
100
AcDbEntity
  8
Layer_1
 62
5
100
AcDbLine
 10
411.169280
 20
570.105946
 30
0.0
 11
404.865318
 21
559.187474
 31
0.0
  0
LINE
  5
564
100
AcDbEntity
  8
Layer_1
 62
5
100
AcDbLine
 10
404.865318
 20
559.187474
 30
0.0
 11
383.590772
 21
596.035113
 31
0.0
  0
LINE
  5
565
100
AcDbEntity
  8
Layer_1
 62
5
100
AcDbLine
 10
383.590772
 20
596.035113
 30
0.0
 11
396.199367
 21
596.035113
 31
0.0
  0
LINE
  5
566
100
AcDbEntity
  8
Layer_1
 62
5
100
AcDbLine
 10
396.199367
 20
596.035113
 30
0.0
 11
411.169280
 21
570.105241
 31
0.0
  0
LINE
  5
567
100
AcDbEntity
  8
Layer_1
 62
5
100
AcDbLine
 10
411.169280
 20
570.105241
 30
0.0
 11
411.169280
 21
570.105946
 31
0.0
  0
LINE
  5
568
100
AcDbEntity
  8
Layer_1
 62
5
100
AcDbLine
 10
378.868347
 20
514.176910
 30
0.0
 11
348.999711
 21
462.442755
 31
0.0
  0
LINE
  5
569
100
AcDbEntity
  8
Layer_1
 62
5
100
AcDbLine
 10
348.999711
 20
462.442755
 30
0.0
 11
271.920201
 21
462.442755
 31
0.0
  0
LINE
  5
56a
100
AcDbEntity
  8
Layer_1
 62
5
100
AcDbLine
 10
271.920201
 20
462.442755
 30
0.0
 11
233.380640
 21
529.195719
 31
0.0
  0
LINE
  5
56b
100
AcDbEntity
  8
Layer_1
 62
5
100
AcDbLine
 10
233.380640
 20
529.195719
 30
0.0
 11
271.920201
 21
595.947977
 31
0.0
  0
LINE
  5
56c
100
AcDbEntity
  8
Layer_1
 62
5
100
AcDbLine
 10
271.920201
 20
595.947977
 30
0.0
 11
331.567515
 21
595.947977
 31
0.0
  0
LINE
  5
56d
100
AcDbEntity
  8
Layer_1
 62
5
100
AcDbLine
 10
331.567515
 20
595.947977
 30
0.0
 11
316.647661
 21
570.105946
 31
0.0
  0
LINE
  5
56e
100
AcDbEntity
  8
Layer_1
 62
5
100
AcDbLine
 10
316.647661
 20
570.105946
 30
0.0
 11
348.937905
 21
514.176205
 31
0.0
  0
LINE
  5
56f
100
AcDbEntity
  8
Layer_1
 62
5
100
AcDbLine
 10
348.937905
 20
514.176205
 30
0.0
 11
357.598140
 21
514.176205
 31
0.0
  0
LINE
  5
570
100
AcDbEntity
  8
Layer_1
 62
5
100
AcDbLine
 10
357.598140
 20
514.176205
 30
0.0
 11
378.868347
 21
514.176205
 31
0.0
  0
LINE
  5
571
100
AcDbEntity
  8
Layer_1
 62
5
100
AcDbLine
 10
378.868347
 20
514.176205
 30
0.0
 11
378.868347
 21
514.176910
 31
0.0
  0
LINE
  5
572
100
AcDbEntity
  8
Layer_1
 62
5
100
AcDbLine
 10
615.185961
 20
923.549416
 30
0.0
 11
608.899108
 21
912.660224
 31
0.0
  0
LINE
  5
573
100
AcDbEntity
  8
Layer_1
 62
5
100
AcDbLine
 10
608.899108
 20
912.660224
 30
0.0
 11
578.958047
 21
912.660224
 31
0.0
  0
LINE
  5
574
100
AcDbEntity
  8
Layer_1
 62
5
100
AcDbLine
 10
578.958047
 20
912.660224
 30
0.0
 11
572.671406
 21
923.548710
 31
0.0
  0
LINE
  5
575
100
AcDbEntity
  8
Layer_1
 62
5
100
AcDbLine
 10
572.671406
 20
923.548710
 30
0.0
 11
615.185961
 21
923.548710
 31
0.0
  0
LINE
  5
576
100
AcDbEntity
  8
Layer_1
 62
5
100
AcDbLine
 10
615.185961
 20
923.548710
 30
0.0
 11
615.185961
 21
923.549416
 31
0.0
  0
LINE
  5
577
100
AcDbEntity
  8
Layer_1
 62
5
100
AcDbLine
 10
552.886993
 20
815.644571
 30
0.0
 11
546.582501
 21
804.724688
 31
0.0
  0
LINE
  5
578
100
AcDbEntity
  8
Layer_1
 62
5
100
AcDbLine
 10
546.582501
 20
804.724688
 30
0.0
 11
525.307708
 21
841.574444
 31
0.0
  0
LINE
  5
579
100
AcDbEntity
  8
Layer_1
 62
5
100
AcDbLine
 10
525.307708
 20
841.574444
 30
0.0
 11
537.916409
 21
841.574444
 31
0.0
  0
LINE
  5
57a
100
AcDbEntity
  8
Layer_1
 62
5
100
AcDbLine
 10
537.916409
 20
841.574444
 30
0.0
 11
552.886993
 21
815.644924
 31
0.0
  0
LINE
  5
57b
100
AcDbEntity
  8
Layer_1
 62
5
100
AcDbLine
 10
552.886993
 20
815.644924
 30
0.0
 11
552.886993
 21
815.644571
 31
0.0
  0
LINE
  5
57c
100
AcDbEntity
  8
Layer_1
 62
5
100
AcDbLine
 10
671.040138
 20
1020.301896
 30
0.0
 11
641.187200
 21
968.594905
 31
0.0
  0
LINE
  5
57d
100
AcDbEntity
  8
Layer_1
 62
5
100
AcDbLine
 10
641.187200
 20
968.594905
 30
0.0
 11
626.220144
 21
994.518427
 31
0.0
  0
LINE
  5
57e
100
AcDbEntity
  8
Layer_1
 62
5
100
AcDbLine
 10
626.220144
 20
994.518427
 30
0.0
 11
561.638775
 21
994.518427
 31
0.0
  0
LINE
  5
57f
100
AcDbEntity
  8
Layer_1
 62
5
100
AcDbLine
 10
561.638775
 20
994.518427
 30
0.0
 11
546.703222
 21
968.649233
 31
0.0
  0
LINE
  5
580
100
AcDbEntity
  8
Layer_1
 62
5
100
AcDbLine
 10
546.703222
 20
968.649233
 30
0.0
 11
516.881011
 21
1020.302249
 31
0.0
  0
LINE
  5
581
100
AcDbEntity
  8
Layer_1
 62
5
100
AcDbLine
 10
516.881011
 20
1020.302249
 30
0.0
 11
555.420572
 21
1087.054860
 31
0.0
  0
LINE
  5
582
100
AcDbEntity
  8
Layer_1
 62
5
100
AcDbLine
 10
555.420572
 20
1087.054860
 30
0.0
 11
632.500718
 21
1087.054860
 31
0.0
  0
LINE
  5
583
100
AcDbEntity
  8
Layer_1
 62
5
100
AcDbLine
 10
632.500718
 20
1087.054860
 30
0.0
 11
671.040138
 21
1020.301896
 31
0.0
  0
LINE
  5
584
100
AcDbEntity
  8
Layer_1
 62
5
100
AcDbLine
 10
671.040138
 20
1020.301896
 30
0.0
 11
671.040138
 21
1020.301896
 31
0.0
  0
LINE
  5
585
100
AcDbEntity
  8
Layer_1
 62
5
100
AcDbLine
 10
520.585883
 20
759.715183
 30
0.0
 11
499.446028
 21
723.099671
 31
0.0
  0
LINE
  5
586
100
AcDbEntity
  8
Layer_1
 62
5
100
AcDbLine
 10
499.446028
 20
723.099671
 30
0.0
 11
484.503984
 21
748.979449
 31
0.0
  0
LINE
  5
587
100
AcDbEntity
  8
Layer_1
 62
5
100
AcDbLine
 10
484.503984
 20
748.979449
 30
0.0
 11
419.921944
 21
748.979449
 31
0.0
  0
LINE
  5
588
100
AcDbEntity
  8
Layer_1
 62
5
100
AcDbLine
 10
419.921944
 20
748.979449
 30
0.0
 11
404.944234
 21
723.037230
 31
0.0
  0
LINE
  5
589
100
AcDbEntity
  8
Layer_1
 62
5
100
AcDbLine
 10
404.944234
 20
723.037230
 30
0.0
 11
375.097682
 21
774.733991
 31
0.0
  0
LINE
  5
58a
100
AcDbEntity
  8
Layer_1
 62
5
100
AcDbLine
 10
375.097682
 20
774.733991
 30
0.0
 11
413.637420
 21
841.486955
 31
0.0
  0
LINE
  5
58b
100
AcDbEntity
  8
Layer_1
 62
5
100
AcDbLine
 10
413.637420
 20
841.486955
 30
0.0
 11
473.284592
 21
841.486955
 31
0.0
  0
LINE
  5
58c
100
AcDbEntity
  8
Layer_1
 62
5
100
AcDbLine
 10
473.284592
 20
841.486955
 30
0.0
 11
458.364738
 21
815.645277
 31
0.0
  0
LINE
  5
58d
100
AcDbEntity
  8
Layer_1
 62
5
100
AcDbLine
 10
458.364738
 20
815.645277
 30
0.0
 11
490.655335
 21
759.715888
 31
0.0
  0
LINE
  5
58e
100
AcDbEntity
  8
Layer_1
 62
5
100
AcDbLine
 10
490.655335
 20
759.715888
 30
0.0
 11
499.315676
 21
759.715888
 31
0.0
  0
LINE
  5
58f
100
AcDbEntity
  8
Layer_1
 62
5
100
AcDbLine
 10
499.315676
 20
759.715888
 30
0.0
 11
520.585883
 21
759.715888
 31
0.0
  0
LINE
  5
590
100
AcDbEntity
  8
Layer_1
 62
5
100
AcDbLine
 10
520.585883
 20
759.715888
 30
0.0
 11
520.585883
 21
759.715183
 31
0.0
  0
LINE
  5
591
100
AcDbEntity
  8
Layer_1
 62
5
100
AcDbLine
 10
473.533336
 20
707.981027
 30
0.0
 11
430.892451
 21
707.981027
 31
0.0
  0
LINE
  5
592
100
AcDbEntity
  8
Layer_1
 62
5
100
AcDbLine
 10
430.892451
 20
707.981027
 30
0.0
 11
437.242451
 21
718.979580
 31
0.0
  0
LINE
  5
593
100
AcDbEntity
  8
Layer_1
 62
5
100
AcDbLine
 10
437.242451
 20
718.979580
 30
0.0
 11
467.183124
 21
718.979580
 31
0.0
  0
LINE
  5
594
100
AcDbEntity
  8
Layer_1
 62
5
100
AcDbLine
 10
467.183124
 20
718.979580
 30
0.0
 11
473.533336
 21
707.981733
 31
0.0
  0
LINE
  5
595
100
AcDbEntity
  8
Layer_1
 62
5
100
AcDbLine
 10
473.533336
 20
707.981733
 30
0.0
 11
473.533336
 21
707.981027
 31
0.0
  0
LINE
  5
596
100
AcDbEntity
  8
Layer_1
 62
5
100
AcDbLine
 10
378.890749
 20
544.176427
 30
0.0
 11
366.259329
 21
544.176427
 31
0.0
  0
LINE
  5
597
100
AcDbEntity
  8
Layer_1
 62
5
100
AcDbLine
 10
366.259329
 20
544.176427
 30
0.0
 11
351.289239
 21
570.105594
 31
0.0
  0
LINE
  5
598
100
AcDbEntity
  8
Layer_1
 62
5
100
AcDbLine
 10
351.289239
 20
570.105594
 30
0.0
 11
357.605196
 21
581.045233
 31
0.0
  0
LINE
  5
599
100
AcDbEntity
  8
Layer_1
 62
5
100
AcDbLine
 10
357.605196
 20
581.045233
 30
0.0
 11
378.890749
 21
544.176780
 31
0.0
  0
LINE
  5
59a
100
AcDbEntity
  8
Layer_1
 62
5
100
AcDbLine
 10
378.890749
 20
544.176780
 30
0.0
 11
378.890749
 21
544.176427
 31
0.0
  0
LINE
  5
59b
100
AcDbEntity
  8
Layer_1
 62
5
100
AcDbLine
 10
615.232810
 20
953.549285
 30
0.0
 11
572.625933
 21
953.549285
 31
0.0
  0
LINE
  5
59c
100
AcDbEntity
  8
Layer_1
 62
5
100
AcDbLine
 10
572.625933
 20
953.549285
 30
0.0
 11
578.959176
 21
964.518910
 31
0.0
  0
LINE
  5
59d
100
AcDbEntity
  8
Layer_1
 62
5
100
AcDbLine
 10
578.959176
 20
964.518910
 30
0.0
 11
608.899743
 21
964.518910
 31
0.0
  0
LINE
  5
59e
100
AcDbEntity
  8
Layer_1
 62
5
100
AcDbLine
 10
608.899743
 20
964.518910
 30
0.0
 11
615.232810
 21
953.549638
 31
0.0
  0
LINE
  5
59f
100
AcDbEntity
  8
Layer_1
 62
5
100
AcDbLine
 10
615.232810
 20
953.549638
 30
0.0
 11
615.232810
 21
953.549285
 31
0.0
  0
LINE
  5
5a0
100
AcDbEntity
  8
Layer_1
 62
5
100
AcDbLine
 10
520.607509
 20
789.715405
 30
0.0
 11
507.975489
 21
789.715405
 31
0.0
  0
LINE
  5
5a1
100
AcDbEntity
  8
Layer_1
 62
5
100
AcDbLine
 10
507.975489
 20
789.715405
 30
0.0
 11
493.005752
 21
815.645277
 31
0.0
  0
LINE
  5
5a2
100
AcDbEntity
  8
Layer_1
 62
5
100
AcDbLine
 10
493.005752
 20
815.645277
 30
0.0
 11
499.321356
 21
826.584210
 31
0.0
  0
LINE
  5
5a3
100
AcDbEntity
  8
Layer_1
 62
5
100
AcDbLine
 10
499.321356
 20
826.584210
 30
0.0
 11
520.607509
 21
789.715758
 31
0.0
  0
LINE
  5
5a4
100
AcDbEntity
  8
Layer_1
 62
5
100
AcDbLine
 10
520.607509
 20
789.715758
 30
0.0
 11
520.607509
 21
789.715405
 31
0.0
  0
LINE
  5
5a5
100
AcDbEntity
  8
Layer_1
 62
5
100
AcDbLine
 10
414.101005
 20
647.203766
 30
0.0
 11
401.879195
 21
626.034983
 31
0.0
  0
LINE
  5
5a6
100
AcDbEntity
  8
Layer_1
 62
5
100
AcDbLine
 10
401.879195
 20
626.034983
 30
0.0
 11
383.504553
 21
626.034983
 31
0.0
  0
LINE
  5
5a7
100
AcDbEntity
  8
Layer_1
 62
5
100
AcDbLine
 10
383.504553
 20
626.034983
 30
0.0
 11
404.913754
 21
663.116866
 31
0.0
  0
LINE
  5
5a8
100
AcDbEntity
  8
Layer_1
 62
5
100
AcDbLine
 10
404.913754
 20
663.116866
 30
0.0
 11
414.101005
 21
647.203766
 31
0.0
  0
LINE
  5
5a9
100
AcDbEntity
  8
Layer_1
 62
5
100
AcDbLine
 10
414.101005
 20
647.203766
 30
0.0
 11
414.101005
 21
647.203766
 31
0.0
  0
LINE
  5
5aa
100
AcDbEntity
  8
Layer_1
 62
5
100
AcDbLine
 10
552.869142
 20
897.636477
 30
0.0
 11
537.899017
 21
871.707663
 31
0.0
  0
LINE
  5
5ab
100
AcDbEntity
  8
Layer_1
 62
5
100
AcDbLine
 10
537.899017
 20
871.707663
 30
0.0
 11
525.297795
 21
871.707663
 31
0.0
  0
LINE
  5
5ac
100
AcDbEntity
  8
Layer_1
 62
5
100
AcDbLine
 10
525.297795
 20
871.707663
 30
0.0
 11
546.568708
 21
908.550010
 31
0.0
  0
LINE
  5
5ad
100
AcDbEntity
  8
Layer_1
 62
5
100
AcDbLine
 10
546.568708
 20
908.550010
 30
0.0
 11
552.869142
 21
897.636477
 31
0.0
  0
LINE
  5
5ae
100
AcDbEntity
  8
Layer_1
 62
5
100
AcDbLine
 10
552.869142
 20
897.636477
 30
0.0
 11
552.869142
 21
897.636477
 31
0.0
  0
LINE
  5
5af
100
AcDbEntity
  8
Layer_1
 62
5
100
AcDbLine
 10
381.767510
 20
683.027291
 30
0.0
 11
354.704516
 21
636.153002
 31
0.0
  0
LINE
  5
5b0
100
AcDbEntity
  8
Layer_1
 62
5
100
AcDbLine
 10
354.704516
 20
636.153002
 30
0.0
 11
345.498639
 21
652.097852
 31
0.0
  0
LINE
  5
5b1
100
AcDbEntity
  8
Layer_1
 62
5
100
AcDbLine
 10
345.498639
 20
652.097852
 30
0.0
 11
363.355721
 21
683.027291
 31
0.0
  0
LINE
  5
5b2
100
AcDbEntity
  8
Layer_1
 62
5
100
AcDbLine
 10
363.355721
 20
683.027291
 30
0.0
 11
381.767510
 21
683.027291
 31
0.0
  0
LINE
  5
5b3
100
AcDbEntity
  8
Layer_1
 62
5
100
AcDbLine
 10
381.767510
 20
683.027291
 30
0.0
 11
381.767510
 21
683.027291
 31
0.0
  0
LINE
  5
5b4
100
AcDbEntity
  8
Layer_1
 62
5
100
AcDbLine
 10
520.597384
 20
923.565996
 30
0.0
 11
499.307774
 21
886.691194
 31
0.0
  0
LINE
  5
5b5
100
AcDbEntity
  8
Layer_1
 62
5
100
AcDbLine
 10
499.307774
 20
886.691194
 30
0.0
 11
492.988395
 21
897.636830
 31
0.0
  0
LINE
  5
5b6
100
AcDbEntity
  8
Layer_1
 62
5
100
AcDbLine
 10
492.988395
 20
897.636830
 30
0.0
 11
507.958520
 21
923.565644
 31
0.0
  0
LINE
  5
5b7
100
AcDbEntity
  8
Layer_1
 62
5
100
AcDbLine
 10
507.958520
 20
923.565644
 30
0.0
 11
520.597384
 21
923.565644
 31
0.0
  0
LINE
  5
5b8
100
AcDbEntity
  8
Layer_1
 62
5
100
AcDbLine
 10
520.597384
 20
923.565644
 30
0.0
 11
520.597384
 21
923.565996
 31
0.0
  0
LINE
  5
5b9
100
AcDbEntity
  8
Layer_1
 62
5
100
AcDbLine
 10
337.350142
 20
626.211371
 30
0.0
 11
271.885170
 21
626.211371
 31
0.0
  0
LINE
  5
5ba
100
AcDbEntity
  8
Layer_1
 62
5
100
AcDbLine
 10
271.885170
 20
626.211371
 30
0.0
 11
233.345574
 21
692.964335
 31
0.0
  0
LINE
  5
5bb
100
AcDbEntity
  8
Layer_1
 62
5
100
AcDbLine
 10
233.345574
 20
692.964335
 30
0.0
 11
271.885488
 21
759.717299
 31
0.0
  0
LINE
  5
5bc
100
AcDbEntity
  8
Layer_1
 62
5
100
AcDbLine
 10
271.885488
 20
759.717299
 30
0.0
 11
348.964645
 21
759.717299
 31
0.0
  0
LINE
  5
5bd
100
AcDbEntity
  8
Layer_1
 62
5
100
AcDbLine
 10
348.964645
 20
759.717299
 30
0.0
 11
381.694556
 21
703.027674
 31
0.0
  0
LINE
  5
5be
100
AcDbEntity
  8
Layer_1
 62
5
100
AcDbLine
 10
381.694556
 20
703.027674
 30
0.0
 11
351.808140
 21
703.027674
 31
0.0
  0
LINE
  5
5bf
100
AcDbEntity
  8
Layer_1
 62
5
100
AcDbLine
 10
351.808140
 20
703.027674
 30
0.0
 11
322.404465
 21
652.098910
 31
0.0
  0
LINE
  5
5c0
100
AcDbEntity
  8
Layer_1
 62
5
100
AcDbLine
 10
322.404465
 20
652.098910
 30
0.0
 11
337.350142
 21
626.212077
 31
0.0
  0
LINE
  5
5c1
100
AcDbEntity
  8
Layer_1
 62
5
100
AcDbLine
 10
337.350142
 20
626.212077
 30
0.0
 11
337.350142
 21
626.211371
 31
0.0
  0
LINE
  5
5c2
100
AcDbEntity
  8
Layer_1
 62
5
100
AcDbLine
 10
473.292706
 20
871.750349
 30
0.0
 11
413.602142
 21
871.750349
 31
0.0
  0
LINE
  5
5c3
100
AcDbEntity
  8
Layer_1
 62
5
100
AcDbLine
 10
413.602142
 20
871.750349
 30
0.0
 11
375.061875
 21
938.503313
 31
0.0
  0
LINE
  5
5c4
100
AcDbEntity
  8
Layer_1
 62
5
100
AcDbLine
 10
375.061875
 20
938.503313
 30
0.0
 11
413.601789
 21
1005.256277
 31
0.0
  0
LINE
  5
5c5
100
AcDbEntity
  8
Layer_1
 62
5
100
AcDbLine
 10
413.601789
 20
1005.256277
 30
0.0
 11
490.681617
 21
1005.256277
 31
0.0
  0
LINE
  5
5c6
100
AcDbEntity
  8
Layer_1
 62
5
100
AcDbLine
 10
490.681617
 20
1005.256277
 30
0.0
 11
520.524712
 21
953.566571
 31
0.0
  0
LINE
  5
5c7
100
AcDbEntity
  8
Layer_1
 62
5
100
AcDbLine
 10
520.524712
 20
953.566571
 30
0.0
 11
490.638155
 21
953.566571
 31
0.0
  0
LINE
  5
5c8
100
AcDbEntity
  8
Layer_1
 62
5
100
AcDbLine
 10
490.638155
 20
953.566571
 30
0.0
 11
458.347523
 21
897.637535
 31
0.0
  0
LINE
  5
5c9
100
AcDbEntity
  8
Layer_1
 62
5
100
AcDbLine
 10
458.347523
 20
897.637535
 30
0.0
 11
473.292706
 21
871.751055
 31
0.0
  0
LINE
  5
5ca
100
AcDbEntity
  8
Layer_1
 62
5
100
AcDbLine
 10
473.292706
 20
871.751055
 30
0.0
 11
473.292706
 21
871.750349
 31
0.0
  0
ENDSEC
  0
SECTION
  2
OBJECTS
  0
DICTIONARY
  5
C
330
0
100
AcDbDictionary
  3
ACAD_GROUP
350
D
  3
ACAD_MLINESTYLE
350
17
  0
DICTIONARY
  5
D
330
C
100
AcDbDictionary
  0
DICTIONARY
  5
1A
330
C
100
AcDbDictionary
  0
DICTIONARY
  5
17
330
C
100
AcDbDictionary
  3
STANDARD
350
18
  0
DICTIONARY
  5
19
330
C
100
AcDbDictionary
  0
ENDSEC
  0
EOF
