<?xml version="1.0" encoding="UTF-8" standalone="no"?>
<!-- Created with Inkscape (http://www.inkscape.org/) -->

<svg
   xmlns:dc="http://purl.org/dc/elements/1.1/"
   xmlns:cc="http://creativecommons.org/ns#"
   xmlns:rdf="http://www.w3.org/1999/02/22-rdf-syntax-ns#"
   xmlns:svg="http://www.w3.org/2000/svg"
   xmlns="http://www.w3.org/2000/svg"
   xmlns:sodipodi="http://sodipodi.sourceforge.net/DTD/sodipodi-0.dtd"
   xmlns:inkscape="http://www.inkscape.org/namespaces/inkscape"
   width="60in"
   height="48in"
   viewBox="0 0 5399.9999 4320"
   id="svg4475"
   version="1.1"
   inkscape:version="0.91pre4 r13712"
   sodipodi:docname="swirl5.svg">
  <defs
     id="defs4477" />
  <sodipodi:namedview
     id="base"
     pagecolor="#ffffff"
     bordercolor="#666666"
     borderopacity="1.0"
     inkscape:pageopacity="0.0"
     inkscape:pageshadow="2"
     inkscape:zoom="0.175"
     inkscape:cx="2498.6093"
     inkscape:cy="2093.478"
     inkscape:document-units="in"
     inkscape:current-layer="layer1"
     showgrid="false"
     units="ft"
     inkscape:window-width="1920"
     inkscape:window-height="1017"
     inkscape:window-x="-8"
     inkscape:window-y="-8"
     inkscape:window-maximized="1"
     showguides="true"
     inkscape:guide-bbox="true" />
  <metadata
     id="metadata4480">
    <rdf:RDF>
      <cc:Work
         rdf:about="">
        <dc:format>image/svg+xml</dc:format>
        <dc:type
           rdf:resource="http://purl.org/dc/dcmitype/StillImage" />
        <dc:title></dc:title>
      </cc:Work>
    </rdf:RDF>
  </metadata>
  <g
     inkscape:label="Layer 1"
     inkscape:groupmode="layer"
     id="layer1"
     transform="translate(0,3267.6378)">
    <path
       style="fill:none;stroke:#ff0000"
       d="m 233.17845,-1065.3067 c 6.845,-14.1736 245.537,-429.3321 530.426,-922.5743 322.93095,-559.1058 523.14595,-900.6855 531.69895,-907.1121 13.616,-10.2308 21.728,-10.3081 1082.7068,-10.3081 l 1068.9879,0 15.4601,15.4621 c 8.5036,8.5042 251.1716,423.6626 539.2627,922.5743 396.8286,687.2225 524.4283,912.2152 526.3874,928.1628 1.7446,14.2051 -0.3454,26.7758 -6.4261,38.6554 -30.1929,58.98286 -1042.5327,1808.69033 -1053.1917,1820.31425 -7.1899,7.84085 -21.63,16.56047 -32.0896,19.37715 -12.3811,3.33364 -386.8803,4.65359 -1073.1982,3.78307 -1045.1443,-1.32613 -1054.2973,-1.4256 -1067.8283,-11.64556 -8.41,-6.35236 -194.574,-323.78544 -485.13895,-827.2244344 C 216.35045,-1024.8206 227.31045,-1005.6063 223.72945,-1024.0743 c -2.062,-10.6333 0.888,-23.5097 9.449,-41.2324 z"
       id="path9090" />
    <path
       style="fill:none;stroke:#ff0000"
       d="m 731.85045,-1647.7139 c 181.68,-314.6545 331.23095,-573.1042 332.33695,-574.3324 1.106,-1.2287 4.548,0.3041 7.649,3.4048 4.082,4.0814 -60.879,161.9334 -235.29295,571.7553 -132.513,311.3647 -243.309,571.3358 -246.215,577.714 -5.191,11.3956 -6.879,11.5966 -97.228,11.5966 -84.202,0 -91.93,-0.7597 -91.761,-9.0196 0.103,-4.9608 148.831,-266.4642 330.511,-581.1187 z"
       id="path9086" />
    <path
       style="fill:none;stroke:#ff0000"
       d="m 492.35945,-1006.0352 92.407,0 244.025,573.3825 c 225.91395,530.826562 257.32195,606.54929 243.45995,586.98298 -3.463,-4.88758 -5.578,-5.22156 -6.953,-1.09781 -2.392,7.17701 -659.83795,-1130.45711 -663.07095,-1147.36701 l -2.274,-11.90066 92.406,0 z"
       id="path9082" />
    <path
       style="fill:none;stroke:#ff0000"
       d="m 830.68745,-1553.5608 c 135.49798,-317.5063 202.92995,-469.8599 205.30595,-463.8642 3.122,7.878 3.629,7.7161 4.308,-1.3803 0.423,-5.6694 1.868,-7.6228 3.21,-4.3407 2.567,6.273 -264.23395,934.7012 -270.32195,940.682 -2.74,2.6925 -125.02,19.7343 -141.599,19.7343 -2.011,0 -3.436,-4.0588 -3.164,-9.0196 0.273,-4.9607 91.289,-221.776 202.261,-481.8115 z"
       id="path9078" />
    <path
       style="fill:none;stroke:#ff0000"
       d="m 659.45245,-998.21964 c 18.098,1.9972 51.323,6.2741 73.833,9.5041 l 40.927,5.8735 132.744,458.71017 c 134.58895,465.084646 142.99895,495.320856 134.23695,482.608916 -3.662,-5.31228 -5.358,-5.48081 -6.954,-0.69219 -2.195,6.58533 -401.27795,-926.272796 -405.36995,-947.553896 -2.297,-11.94396 -1.95,-12.03976 30.583,-8.4506 z"
       id="path9074" />
    <path
       style="fill:none;stroke:#ff0000"
       d="m 825.94945,-969.95684 c 7.519,0 33.174,4.8912 57.009,10.8693 38.966,9.7726 43.622,12.2419 46.17,24.4818 4.50298,21.6325 116.28195,715.43879 116.28195,721.75508 0,3.13108 -3.009,5.69264 -6.688,5.69264 -4.427,0 -42.84797,-125.1655 -113.63695,-370.19502 -58.822,-203.60697 -108.268,-375.2368 -109.879,-381.3995 -2.465,-9.4236 -0.757,-11.2043 10.743,-11.2043 z"
       id="path9070" />
    <path
       style="fill:none;stroke:#ff0000"
       d="m 925.66745,-1486.65 c 71.89298,-247.3045 108.21695,-364.6487 112.87495,-364.6487 3.777,0 6.868,3.0615 6.868,6.8028 0,7.813 -111.89797,701.2765 -115.88895,718.1973 -2.193,9.2979 -10.283,12.9608 -48.38,21.9046 -59.979,14.0819 -62.625,13.935 -61.995,-3.4336 0.283,-7.7955 48.217,-178.2656 106.521,-378.8224 z"
       id="path9064" />
    <path
       style="fill:none;stroke:#ff0000"
       d="m 1013.6944,-1440.2636 c 31.509,-192.9257 46.304,-271.8759 50.945,-271.8759 4.526,0 6.545,9.1314 6.554,29.6358 0,41.8194 -14.911,428.127 -18.509,478.9511 l -2.983,42.1451 -33.124,13.2608 c -43.85997,17.5583 -48.61797,17.2115 -47.88197,-3.4903 0.324,-9.2128 20.576,-139.0948 44.99897,-288.6266 z"
       id="path9058" />
    <path
       style="fill:none;stroke:#ff0000"
       d="m 975.77643,-928.72454 c 17.494,0 74.78897,27.0567 74.83197,35.3377 0.05,4.6598 4.631,119.79913 10.237,255.86593 12.285,298.13686 12.179,289.4858 3.55,289.4858 -4.974,0 -18.763,-74.40382 -51.659,-278.74833 -24.68097,-153.31127 -44.82097,-283.9663 -44.75497,-290.3445 0.07,-6.7827 3.305,-11.5966 7.795,-11.5966 z"
       id="path9052" />
    <path
       style="fill:none;stroke:#ff0000"
       d="m 986.66043,-1072.2131 c 32.79197,-4.766 1236.66197,-150.292 1243.29597,-150.292 6.11,0 22.404,23.4086 51.305,73.7059 23.294,40.5382 42.353,77.6473 42.353,82.4648 0,8.2006 -42.627,8.7201 -668.738,8.1491 -367.806,-0.3351 -661.77897,-2.2833 -653.275,-4.3289 l 15.462,-3.7187 -18.03897,-2.5775 c -9.922,-1.4179 -15.486,-2.9486 -12.364,-3.4027 z"
       id="path9048" />
    <path
       style="fill:none;stroke:#ff0000"
       d="m 1653.5884,-1006.0352 c 602.629,0 670.026,0.8061 670.026,8.01296 0,10.5035 -82.256,152.00573 -90.114,155.02143 -3.329,1.2771 -283.029,-31.40473 -621.554,-72.62673 -338.525,-41.2221 -618.39897,-74.9481 -621.94197,-74.9471 -3.543,0 -6.442,-3.4774 -6.442,-7.7295 0,-6.83216 77.88297,-7.73106 670.02597,-7.73106 z"
       id="path9044" />
    <path
       style="fill:none;stroke:#ff0000"
       d="m 1010.6204,-997.46764 c 3.544,-1.4297 0.645,-2.59966 -6.442,-2.59966 -7.08697,0 -9.98597,1.16996 -6.44297,2.59966 3.54397,1.4297 9.34197,1.4297 12.88497,0 z"
       id="path9042" />
    <path
       style="fill:none;stroke:#ff0000"
       d="m 1094.6674,-1410.6278 c 3.546,-79.3723 6.67,-155.3301 6.942,-168.795 0.366,-18.1057 2.509,-24.4817 8.227,-24.4817 4.252,0 7.731,3.0378 7.731,6.7513 0,3.7129 6.942,90.9349 15.426,193.8261 8.485,102.8913 14.126,189.1803 12.536,191.7532 -4.136,6.692 -41.527,25.1471 -50.95,25.1471 -9.443,0 -9.439,-10.9302 0.09,-224.201 z"
       id="path9038" />
    <path
       style="fill:none;stroke:#ff0000"
       d="m 1094.5794,-877.18404 c 11.615,0 47.089,19.08033 49.901,26.83923 1.327,3.664 -4.08,84.3593 -12.018,179.3226 -7.937,94.96337 -14.864,181.93786 -15.395,193.27676 l -0.963,20.61618 -3.691,-20.61618 -3.692,-20.61619 -0.731,20.18686 c -0.402,11.10233 -2.007,18.91071 -3.566,17.35212 -2.877,-2.8775 -17.458,-317.78865 -17.667,-381.57155 -0.09,-27.93753 1.449,-34.78983 7.822,-34.78983 z"
       id="path9032" />
    <path
       style="fill:none;stroke:#ff0000"
       d="m 1121.0034,-2058.7491 c 1.361,-4.9608 6.096,-9.0196 10.523,-9.0196 11.864,0 346.759,212.7755 346.794,220.3355 0,3.5434 -2.869,6.4209 -6.413,6.3946 -3.543,-0.052 -84.139,-36.8669 -179.103,-81.8684 l -172.66,-81.8205 -0.807,-22.501 c -0.444,-12.3754 0.304,-26.5598 1.666,-31.5206 z"
       id="path9026" />
    <path
       style="fill:none;stroke:#ff0000"
       d="m 1132.6814,-65.241874 c 81.807,-42.303896 333.794,-157.104606 339.792,-154.802806 6.673,2.56053 6.72,3.90986 0.351,10.05503 -17.589,16.96712 -336.824,214.4845956 -344.346,213.0543456 -6.284,-1.1947 -8.711,-8.79383 -9.871,-30.9082996 -1.472,-28.07048 -0.87,-29.66978 14.076,-37.39827 z"
       id="path9022" />
    <path
       style="fill:none;stroke:#ff0000"
       d="m 1126.3044,-1964.7795 c 11.49,-0.2526 248.965,116.2407 248.965,122.1308 0,3.7465 -1.777,6.8121 -3.948,6.8121 -2.172,0 -58.415,-18.1624 -124.986,-40.3603 l -121.037,-40.3608 -1.571,-24.0648 c -0.864,-13.2361 0.294,-24.1065 2.577,-24.157 z"
       id="path9018" />
    <path
       style="fill:none;stroke:#ff0000"
       d="m 1131.7404,-149.58629 c 27.871,-14.33547 234.73,-78.74043 239.045,-74.42546 3.125,3.12541 2.49,6.78633 -1.74,10.03286 -13.181,10.11585 -228.772,109.9018 -237.446,109.9018 -12.743,0 -12.621,-38.94449 0.139,-45.5092 z"
       id="path9014" />
    <path
       style="fill:none;stroke:#ff0000"
       d="m 1128.7194,47.043142 c 16.305,-13.023756 458.748,-290.279482 463.226,-290.279482 2.721,0 4.948,3.16973 4.948,7.04403 0,9.56179 -441.481,369.20133 -453.219,369.20133 -7.322,0 -10.069,-5.67151 -12.831,-26.49282 -1.933,-14.571008 -4.751,-32.675628 -6.263,-40.232488 -1.652,-8.26194 0,-15.93322 4.139,-19.24057 z"
       id="path9010" />
    <path
       style="fill:none;stroke:#ff0000"
       d="m 1131.3084,-2165.6956 c 4.317,-27.4102 7.259,-36.0783 12.244,-36.0783 4.968,0 445.236,356.9935 450.227,365.0678 1.338,2.1662 0.756,6.6544 -1.296,9.9731 -2.496,4.0392 -79.931,-42.0632 -234.15,-139.4051 l -230.421,-145.44 0.683,-20.6162 c 0.377,-11.3389 1.597,-26.4145 2.713,-33.5013 z"
       id="path9006" />
    <path
       style="fill:none;stroke:#ff0000"
       d="m 1144.2184,-1871.9149 c 19.058,0 140.694,43.0012 142.144,50.2519 0.708,3.5434 -1.82,6.4426 -5.62,6.4426 -6.493,0 -138.979,-25.9671 -140.852,-27.6072 -0.479,-0.4174 -2.469,-7.1347 -4.424,-14.9245 -3.133,-12.4857 -2.097,-14.1628 8.752,-14.1628 z"
       id="path9002" />
    <path
       style="fill:none;stroke:#ff0000"
       d="m 1137.2384,-216.11318 c 2.228,-3.50836 32.662,-12.20581 67.633,-19.32767 73.183,-14.90499 77.625,-15.26886 77.625,-6.35855 0,6.45751 -122.526,50.10352 -140.655,50.10352 -9.193,0 -11.692,-13.25672 -4.603,-24.4173 z"
       id="path9000" />
    <path
       style="fill:none;stroke:#ff0000"
       d="m 1162.4234,-2306.401 c 10.571,-35.8387 15.212,-45.0309 22.117,-43.8094 14.53,2.5708 546.558,559.397 543.098,568.4124 -1.648,4.2954 -3.708,7.8099 -4.578,7.8099 -0.869,0 -129.923,-104.6472 -286.786,-232.5495 -201.027,-163.9115 -285.504,-235.7894 -286.217,-243.5287 -0.556,-6.0385 5.009,-31.3892 12.366,-56.3347 z"
       id="path8998" />
    <path
       style="fill:none;stroke:#ff0000"
       d="m 1432.2694,-55.452794 c 156.078,-127.376066 287.12,-232.342856 291.204,-233.259246 4.084,-0.91691 7.425,1.48333 7.425,5.33289 0,9.44427 -539.993,571.00957 -549.075,571.00957 -3.94,0 -9.508,-8.69745 -12.372,-19.32767 -2.865,-10.63022 -8.727,-30.92428 -13.028,-45.09792 -4.301,-14.17362 -7.845,-30.56143 -7.876,-36.41746 -0.05,-7.85425 74.369,-71.38508 283.722,-242.240164 z"
       id="path8994" />
    <path
       style="fill:none;stroke:#ff0000"
       d="m 1158.5464,-1804.9123 c 2.695,0 17.19,2.7146 32.212,6.0328 23.821,5.2617 25.665,6.5142 14.428,9.7947 l -12.886,3.7609 12.456,0.5154 c 6.85,0.2835 11.105,1.8648 9.454,3.5161 -1.652,1.6514 -15.954,1.3839 -31.784,-0.5937 -23.486,-2.9347 -28.781,-5.3834 -28.781,-13.3103 0,-5.3432 2.205,-9.7144 4.901,-9.7144 z"
       id="path8990" />
    <path
       style="fill:none;stroke:#ff0000"
       d="m 1172.9734,-281.16085 c 30.374,-5.02055 42.521,-3.92068 42.521,3.84956 0,4.2124 -7.954,8.59901 -19.328,10.66011 -10.63,1.92659 -24.546,4.75513 -30.924,6.28639 -9.055,2.17346 -11.597,0.54994 -11.597,-7.40842 0,-7.77437 4.586,-10.95081 19.328,-13.38764 z"
       id="path8988" />
    <path
       style="fill:none;stroke:#ff0000"
       d="m 1165.5784,-1514.5679 c 4.722,0 14.492,38.1771 32.212,125.8752 l 25.435,125.8757 -15.462,12.3991 c -15.213,12.1991 -28.341,16.1739 -28.355,8.5851 0,-2.126 -4.639,-59.5292 -10.301,-127.5626 -12.203,-146.6393 -12.167,-145.1725 -3.529,-145.1725 z"
       id="path8984" />
    <path
       style="fill:none;stroke:#ff0000"
       d="m 1169.3594,-714.83151 c 5.047,-56.6946 9.373,-104.8205 9.616,-106.9465 0.843,-7.3971 13.421,-3.7377 28.43,8.2712 l 15.104,12.0857 -25.412,124.4677 c -16.859,82.57297 -27.581,124.46807 -31.855,124.47067 -8.38,0 -7.601,-30.7011 4.117,-162.34877 z"
       id="path8978" />
    <path
       style="fill:none;stroke:#ff0000"
       d="m 1232.2444,-1158.1342 c 31.891,-7.6115 244.515,-59.9982 472.498,-116.4154 227.984,-56.4173 415.933,-102.5769 417.664,-102.5769 5.995,0 82.664,106.9387 82.664,115.3001 0,4.6186 -0.842,8.397 -1.872,8.397 -1.031,0 -230.575,27.8319 -510.099,61.8486 -279.524,34.0167 -510.613,61.8485 -513.532,61.8485 -2.918,0 -5.306,-3.2764 -5.306,-7.2816 0,-5.0211 18.001,-11.5775 57.983,-21.1203 z"
       id="path8974" />
    <path
       style="fill:none;stroke:#ff0000"
       d="m 1181.3164,-933.87854 c 8.284,0 975.971,117.13553 1004.427,121.58243 12.061,1.8853 19.327,5.8308 19.327,10.4962 0,4.1114 -18.793,31.8195 -41.762,61.5744 -29.635,38.3883 -44.229,53.3887 -50.252,51.6533 -4.669,-1.3447 -217.808,-54.0742 -473.642,-117.1762 -319.358,-78.77033 -465.153,-116.83093 -465.153,-121.43093 0,-3.6846 3.175,-6.6992 7.055,-6.6992 z"
       id="path8970" />
    <path
       style="fill:none;stroke:#ff0000"
       d="m 1219.6724,-2467.1568 c 14.939,-34.7109 27.613,-57.2671 32.731,-58.2525 5.83,-1.1231 101.905,122.9162 318.157,410.7615 170.393,226.8038 309.806,414.7899 309.806,417.7473 0,2.9574 -3.056,5.3772 -6.79,5.3772 -10.869,0 -675.966,-695.2711 -677.202,-707.9248 -0.595,-6.0853 9.889,-36.5545 23.298,-67.7087 z"
       id="path8964" />
    <path
       style="fill:none;stroke:#ff0000"
       d="m 1530.2304,-23.356484 c 184.444,-191.905756 337.519,-347.581146 340.167,-345.944226 2.648,1.63641 4.815,5.28496 4.815,8.10783 0,9.93906 -614.173,821.50137 -622.716,822.85122 -6.556,1.03596 -14.594,-12.71555 -33.138,-56.69451 -13.466,-31.93396 -24.483,-62.86287 -24.482,-68.73075 0,-7.10434 112.056,-127.25702 335.354,-359.589564 z"
       id="path8960" />
    <path
       style="fill:none;stroke:#ff0000"
       d="m 1789.5394,-269.00658 c 1.07,0 5.129,-4.05881 9.019,-9.01958 6.411,-8.17483 6.229,-8.35677 -1.946,-1.94617 -8.585,6.73325 -11.315,10.96575 -7.073,10.96575 z"
       id="path8956" />
    <path
       style="fill:none;stroke:#ff0000"
       d="m 1227.9524,-1449.2831 c 8.103,0 51.396,122.4982 48.497,137.2249 -2.561,13.0191 -18.942,21.696 -24.41,12.931 -3.73,-5.9787 -31.406,-134.9402 -31.395,-146.2904 0,-2.1261 3.29,-3.8655 7.308,-3.8655 z"
       id="path8954" />
    <path
       style="fill:none;stroke:#ff0000"
       d="m 1235.3174,-701.90211 c 14.118,-66.4511 21.352,-78.0153 37.006,-59.1535 5.903,7.1121 3.595,18.4917 -15.722,77.5318 -13.552,41.4195 -25.312,69.19617 -29.297,69.19617 -9.06,0 -7.901,-12.6728 8.013,-87.57447 z"
       id="path8952" />
    <path
       style="fill:none;stroke:#ff0000"
       d="m 1642.2854,3.1270656 c 206.065,-274.1179456 376.475,-498.5122356 378.69,-498.6539756 2.215,-0.13916 5.198,2.79195 6.628,6.51884 4.033,10.50961 -655.713,1150.30685 -665.829,1150.30685 -5.356,0 -23.943,-26.89175 -51.557,-74.59451 -23.751,-41.02673 -43.05,-76.9762 -42.889,-79.88772 0.16,-2.91152 168.892,-229.57153 374.957,-503.6894844 z"
       id="path8950" />
    <path
       style="fill:none;stroke:#ff0000"
       d="m 1313.4894,-2655.33 c 26.835,-45.7256 43.817,-69.5796 49.534,-69.5796 6.124,0 103.882,164.7615 330.27,556.637 176.864,306.1504 326.033,565.1118 331.485,575.4699 8.376,15.9116 8.751,19.2792 2.417,21.7099 -10.137,3.8897 -755.111,-986.0701 -754.774,-1002.9821 0.128,-6.4214 18.608,-42.9863 41.068,-81.2551 z"
       id="path8946" />
    <path
       style="fill:none;stroke:#ff0000"
       d="m 1292.3574,-689.06131 c 5.268,-14.9797 12.654,-26.4681 17.64,-27.4365 10.747,-2.088 10.814,5.773 0.284,33.3441 -5.951,15.5812 -11.047,21.5073 -18.04,20.98 -5.36,-0.402 -9.566,-0.82 -9.347,-0.9257 0.222,-0.1082 4.478,-11.7883 9.462,-25.9619 z"
       id="path8942" />
    <path
       style="fill:none;stroke:#ff0000"
       d="m 1293.7834,-1402.8967 c 8.31,0 24.792,30.9541 24.792,46.5611 0,15.1199 -14.904,12.2682 -21.119,-4.0402 -10.298,-27.0212 -11.637,-42.5209 -3.673,-42.5209 z"
       id="path8940" />
    <path
       style="fill:none;stroke:#ff0000"
       d="m 1315.9984,-851.12771 c 19.213,0.4793 767.89,190.2245 769.488,195.0203 2.313,6.9389 -64.07,83.01207 -72.438,83.01207 -6.281,0 -682.514,-256.31427 -694.473,-263.22787 -6.872,-3.9723 -6.872,-4.4954 0,-4.7047 6.871,-0.2113 6.871,-0.7906 0,-5.2318 -4.253,-2.7482 -5.412,-4.9386 -2.577,-4.868 z"
       id="path8938" />
    <path
       style="fill:none;stroke:#ff0000"
       d="m 1323.2994,-1229.9305 c 4.844,-2.9291 672.089,-256.5453 682.49,-259.4109 11.408,-3.1424 80.738,63.0536 80.738,77.088 0,10.7993 39.113,0.098 -373.668,102.2357 -434.505,107.5134 -392.567,97.983 -392.567,89.2052 0,-4.015 1.353,-8.1182 3.007,-9.118 z"
       id="path8934" />
    <path
       style="fill:none;stroke:#ff0000"
       d="m 1508.4904,-2763.5649 91.988,0 242.835,570.8106 c 133.56,313.9458 244.26,574.6906 246.001,579.4328 2.29,6.2374 0.628,8.2496 -6.009,7.2755 -6.24,-0.9159 -114.263,-183.3166 -337.814,-570.4133 -180.751,-312.9867 -328.718,-573.1253 -328.814,-578.0861 -0.16,-8.2598 7.574,-9.0195 91.813,-9.0195 z"
       id="path8930" />
    <path
       style="fill:none;stroke:#ff0000"
       d="m 1747.3604,108.517 c 181.972,-315.33125 332.447,-570.75805 334.389,-567.61614 2.444,3.95521 4.534,3.55114 6.789,-1.31222 1.795,-3.87121 2.429,-2.39715 1.412,3.28209 -1.015,5.66945 -111.677,268.33254 -245.915,583.69574 l -244.07,573.38766 -91.731,0 c -84.061,0 -91.733,-0.75713 -91.733,-9.05412 0,-4.97984 148.887,-267.05227 330.859,-582.38301 z"
       id="path8926" />
    <path
       style="fill:none;stroke:#ff0000"
       d="m 1662.1934,-1445.7021 c 133.234,-70.0028 245.526,-127.2611 249.536,-127.24 9.688,0.052 66.564,45.5164 66.562,53.2083 0,3.3141 -120.024,51.5626 -266.721,107.2196 -264.446,100.3313 -299.34,112.9649 -285.466,103.3521 5.558,-3.8512 5.649,-5.3273 0.433,-7.0652 -3.625,-1.2081 102.42,-59.472 235.654,-129.4748 z"
       id="path8922" />
    <path
       style="fill:none;stroke:#ff0000"
       d="m 1429.3874,-756.81431 c 8.274,1.5585 305.527,113.5003 503.808,189.72807 28.276,10.8709 39.859,17.8815 39.656,24.0014 -0.304,9.21028 -51.51,52.45427 -62.11,52.45427 -12.934,0 -489.713,-254.12954 -483.723,-257.83064 4.556,-2.8162 4.323,-4.6077 -0.914,-7.0358 -3.864,-1.792 -2.387,-2.3847 3.283,-1.3173 z"
       id="path8918" />
    <path
       style="fill:none;stroke:#ff0000"
       d="m 1506.0474,-1417.8192 c 37.698,-31.2861 307.377,-211.8556 316.405,-211.8556 15.438,0 47.461,21.0507 47.542,31.2521 0.05,5.3669 -59.374,39.3646 -177.9,101.7924 -97.88,51.5534 -180.079,93.7336 -182.664,93.7336 -8.46,0 -10.504,-9.0129 -3.383,-14.9225 z"
       id="path8914" />
    <path
       style="fill:none;stroke:#ff0000"
       d="m 1505.6794,-658.45971 c 11.023,-4.2294 364.378,183.29953 364.378,193.3793 0,10.67867 -41.966,33.50233 -55.225,30.0352 -11.093,-2.90121 -308.359,-207.3854 -313.445,-215.6133 -1.691,-2.7358 0.242,-6.2462 4.292,-7.8012 z"
       id="path8910" />
    <path
       style="fill:none;stroke:#ff0000"
       d="m 1640.7114,-1588.5166 c 49.611,-43.8975 93.862,-80.5985 98.334,-81.5587 12.977,-2.7847 38.262,9.9365 38.005,19.121 -0.232,8.2625 -202.285,150.9548 -218.595,154.374 -21.215,4.448 -0.464,-18.7442 82.256,-91.9363 z"
       id="path8906" />
    <path
       style="fill:none;stroke:#ff0000"
       d="m 1557.9874,-567.12074 c 16.258,3.3929 218.827,146.04042 219.063,154.26215 0.248,8.62736 -19.778,20.1549 -35.012,20.1549 -4.946,0 -49.484,-35.88041 -98.973,-79.73412 -83.927,-74.36983 -106.127,-99.07623 -85.078,-94.68293 z"
       id="path8902" />
    <path
       style="fill:none;stroke:#ff0000"
       d="m 1618.3244,-1644.1277 c 39.667,-44.9387 48.951,-52.8671 60.354,-51.5405 25.869,3.0095 17.693,16.8398 -40.236,68.0597 -49.12,43.4306 -67.812,54.6056 -67.158,40.1505 0.09,-1.959 21.256,-27.4602 47.04,-56.6697 z"
       id="path8898" />
    <path
       style="fill:none;stroke:#ff0000"
       d="m 1576.3854,-482.9665 c 6.276,-3.87894 118.435,93.94177 118.435,103.2943 0,6.70851 -11.059,12.73874 -23.361,12.73874 -6.733,0 -100.222,-101.80375 -100.299,-109.21939 0,-1.95854 2.331,-5.02468 5.225,-6.81365 z"
       id="path8890" />
    <path
       style="fill:none;stroke:#ff0000"
       d="m 1594.5024,-1692.9041 c 13.855,-20.3884 28.161,-25.4378 28.161,-9.9385 0,10.7266 -32.425,44.1779 -37.705,38.8981 -5.438,-5.4375 -4.495,-8.2996 9.544,-28.9596 z"
       id="path8888" />
    <path
       style="fill:none;stroke:#ff0000"
       d="m 1584.9584,-399.66629 c 5.28,-5.2798 37.705,28.1715 37.705,38.8981 0,14.73336 -13.757,10.84412 -28.085,-7.94032 -13.534,-17.74435 -15.739,-24.83941 -9.62,-30.95778 z"
       id="path8886" />
    <path
       style="fill:none;stroke:#ff0000"
       d="m 1660.0304,-2758.165 c 31.86,0.469 122.743,13.4902 127.089,18.2097 2.399,2.6059 63.891,211.1572 136.648,463.4477 151.433,525.0979 139.176,481.5065 132.798,472.3003 -4.11,-5.9312 -5.277,-5.9312 -7.494,0 -1.557,4.1671 -6.234,-1.3622 -11.495,-13.5901 -124.902,-290.327 -394.297,-928.0227 -394.297,-933.3592 0,-4.7989 5.67,-7.1708 16.751,-7.0084 z"
       id="path8884" />
    <path
       style="fill:none;stroke:#ff0000"
       d="m 1845.3794,203.69265 c 128.799,-302.151324 203.176,-470.6742 205.862,-466.44118 3.312,5.22053 4.221,5.07725 4.283,-0.67467 0.05,-4.01552 1.392,-5.98848 2.996,-4.38455 2.997,2.99657 -264.653,936.50516 -270.388,943.05853 -2.72,3.10841 -118.994,19.5493 -138.256,19.5493 -3.628,0 -6.497,-4.05881 -6.375,-9.01958 0.124,-4.96077 90.967,-221.90025 201.878,-482.08785 z"
       id="path8880" />
    <path
       style="fill:none;stroke:#ff0000"
       d="m 1834.6674,-2732.5376 c 9.574,0.1392 102.614,24.1699 105.758,27.3144 2.378,2.3781 119.973,720.4589 120.217,734.0929 0.06,3.5434 -2.861,6.4425 -6.5,6.4425 -4.329,0 -43.822,-128.6728 -114.293,-372.3798 -59.224,-204.8089 -108.702,-377.5983 -109.952,-383.9765 -1.471,-7.5053 0.211,-11.56 4.77,-11.4935 z"
       id="path8876" />
    <path
       style="fill:none;stroke:#ff0000"
       d="m 1938.3754,276.03382 c 73.285,-252.679704 110.972,-374.956874 115.566,-374.956874 3.749,0 6.816,2.08894 6.816,4.64277 0,5.44834 -112.224,702.749054 -116.328,722.798294 -2.543,12.42538 -7.129,14.69522 -52.862,26.16297 -50.736,12.72225 -63.064,13.18148 -62.342,2.32293 0.222,-3.30735 49.337,-174.74381 109.15,-380.97009 z"
       id="path8872" />
    <path
       style="fill:none;stroke:#ff0000"
       d="m 2000.1974,-2684.8085 c 9.213,1.5369 27.768,7.5563 41.233,13.3763 22.045,9.5293 24.491,12.2666 24.578,27.5159 0.05,9.3133 4.648,127.1013 10.211,261.7508 12.171,294.5372 11.959,278.3185 3.633,278.3185 -4.828,0 -19.134,-77.3514 -51.714,-279.607 -24.772,-153.7839 -44.961,-285.1291 -44.866,-291.8778 0.155,-10.9585 1.966,-11.9723 16.925,-9.4767 z"
       id="path8868" />
    <path
       style="fill:none;stroke:#ff0000"
       d="m 2028.9134,309.53512 c 31.978,-194.724 46.078,-269.298928 50.919,-269.298928 3.867,0 6.696,5.98694 6.698,14.17363 0,58.423688 -22.021,540.522878 -24.811,542.890138 -5.745,4.87572 -63.086,25.34347 -71,25.34347 -12.01,0 -8.502,-28.757 38.194,-313.10831 z"
       id="path8860" />
    <path
       style="fill:none;stroke:#ff0000"
       d="m 2006.4644,684.49199 c 4.157,0 284.164,-33.67551 622.2392,-74.83418 338.075,-41.15815 617.2073,-73.8647 620.2936,-72.6803 7.1857,2.75742 89.9638,146.0198 89.9638,155.69859 0,6.23072 -96.411,7.27803 -670.026,7.27803 -592.1426,0 -670.0256,-0.89887 -670.0256,-7.73107 0,-4.25209 3.4,-7.73107 7.555,-7.73107 z"
       id="path8854" />
    <path
       style="fill:none;stroke:#ff0000"
       d="m 2674.0891,-2763.5649 c 488.2237,0 664.8719,1.5374 664.8719,5.7859 0,8.649 -83.5146,153.3009 -89.8675,155.6553 -3.0151,1.1179 -283.221,-31.7768 -622.6794,-73.0988 -459.3687,-55.9189 -617.1967,-76.8206 -617.1967,-81.737 0,-5.337 127.655,-6.6054 664.8717,-6.6054 z"
       id="path8848" />
    <path
       style="fill:none;stroke:#ff0000"
       d="m 2108.7114,-2639.8678 c 3.698,0 17.663,6.9378 31.034,15.4178 19.697,12.4918 23.842,17.6273 21.837,27.0587 -1.36,6.4024 -8.835,93.3578 -16.609,193.2345 -7.774,99.8767 -15.951,178.7336 -18.172,175.2376 -3.041,-4.7876 -4.057,-4.5541 -4.116,0.9457 -0.05,4.0156 -1.546,5.8349 -3.338,4.0429 -3.418,-3.4182 -16.825,-293.1122 -17.162,-370.8393 -0.144,-33.742 1.497,-45.0979 6.526,-45.0979 z"
       id="path8842" />
    <path
       style="fill:none;stroke:#ff0000"
       d="m 2109.9704,310.82363 c 7.39,-165.22533 7.371,-165.00371 12.636,-144.3133 l 3.934,15.46213 1.269,-15.46213 c 0.698,-8.50418 8.683,71.5124 17.747,177.8146 9.063,106.3022 15.438,196.27485 14.167,199.93886 -2.682,7.73365 -38.131,26.83918 -49.797,26.83918 -9.659,0 -9.652,-43.53056 0.05,-260.27934 z"
       id="path8838" />
    <path
       style="fill:none;stroke:#ff0000"
       d="m 2136.6174,-1890.9009 2.053,-16.4089 122.356,-40.8232 c 100.2347,-33.443 122.4688,-39.3253 122.98,-32.5369 0.4484,5.9467 -32.756,24.0688 -117.606,64.1864 -104.545,49.4299 -135.564,60.1894 -132.661,46.0189 0.454,-2.2152 1.749,-11.4116 2.878,-20.4363 z"
       id="path8834" />
    <path
       style="fill:none;stroke:#ff0000"
       d="m 2310.8974,-1902.7696 c 97.8902,-46.154 179.453,-82.4452 181.2502,-80.648 1.7972,1.7972 0,3.3033 -4.0335,3.3466 -5.8272,0.062 -5.9463,0.939 -0.5891,4.3366 4.5603,2.8924 -48.6903,39.2315 -166.0406,113.3101 -95.014,59.9787 -176.312,109.0524 -180.662,109.0524 -6.278,0 -7.908,-6.7482 -7.908,-32.741 l 0,-32.7411 177.983,-83.9156 z"
       id="path8830" />
    <path
       style="fill:none;stroke:#ff0000"
       d="m 2142.0994,-310.23895 c 8.903,0 329.3423,198.39574 346.0708,214.265556 6.3617,6.03487 6.2581,7.40173 -0.7653,10.09678 -4.8113,1.84618 -78.206,-30.147046 -180.0185,-78.470866 l -171.895,-81.58752 -1.534,-32.15198 c -1.364,-28.56217 -0.454,-32.15197 8.142,-32.15197 z"
       id="path8826" />
    <path
       style="fill:none;stroke:#ff0000"
       d="m 2364.7654,-1853.2191 c 125.1629,-79.0111 231.2182,-143.952 235.6785,-144.3133 4.4608,-0.3608 8.8371,1.6627 9.7257,4.4974 2.0508,6.5415 -438.2942,365.3997 -450.9342,367.4876 -7.506,1.2401 -9.996,-2.8899 -12.428,-20.6162 -1.674,-12.1914 -4.521,-31.4438 -6.326,-42.7827 l -3.285,-20.6162 227.569,-143.6566 z"
       id="path8822" />
    <path
       style="fill:none;stroke:#ff0000"
       d="m 2144.5704,-406.87731 c 4.089,-25.11773 7.214,-32.21279 14.184,-32.21279 11.058,0 450.2679,357.509386 452.5754,368.388546 0.9169,4.32115 -1.4024,7.73622 -5.1541,7.58881 -3.7511,-0.14946 -110.0301,-65.667696 -236.1754,-145.601796 -171.8209,-108.87614 -229.5209,-147.91959 -230.0149,-155.64189 -0.361,-5.66945 1.701,-24.80385 4.585,-42.52088 z"
       id="path8818" />
    <path
       style="fill:none;stroke:#ff0000"
       d="m 2146.2474,-202.00397 c 14.892,0 239.2151,109.425036 239.2151,116.689666 0,3.85419 -1.6864,7.00744 -3.747,7.00744 -2.0611,0 -57.7251,-17.93763 -123.6971,-39.861906 l -119.95,-39.8614 0,-21.98716 c 0,-16.64344 1.988,-21.98664 8.179,-21.98664 z"
       id="path8814" />
    <path
       style="fill:none;stroke:#ff0000"
       d="m 2154.8194,-1978.7454 c 3.543,-2.7564 33.114,-10.1329 65.714,-16.3914 32.599,-6.2591 63.621,-12.6537 68.936,-14.2108 5.84,-1.7101 8.377,-0.7463 6.411,2.4353 -1.79,2.8961 -0.341,6.2374 3.22,7.4249 6.384,2.1292 -131.791,50.2618 -144.288,50.2618 -8.362,0 -8.357,-23.0134 0,-29.5198 z"
       id="path8810" />
    <path
       style="fill:none;stroke:#ff0000"
       d="m 2157.1884,-114.38519 c 18.129,0 140.655,43.646006 140.655,50.103516 0,3.62535 -3.16,6.59099 -7.022,6.59099 -10.725,0 -132.25,-25.23215 -137.676,-28.58537 -8.729,-5.39474 -5.461,-28.109136 4.043,-28.109136 z"
       id="path8808" />
    <path
       style="fill:none;stroke:#ff0000"
       d="m 2446.6023,-1815.2204 c 155.1322,-126.1453 285.4352,-229.3551 289.5626,-229.3551 4.1269,0 7.5038,2.4611 7.5038,5.4685 0,5.3179 -526.5543,556.52 -541.1183,566.4482 -4.011,2.7347 -8.594,3.6707 -10.185,2.0802 -5.287,-5.2865 -28.315,-89.3052 -28.066,-102.4017 0.201,-10.69 48.292,-51.9553 282.3029,-242.2401 z"
       id="path8806" />
    <path
       style="fill:none;stroke:#ff0000"
       d="m 2169.1364,-521.55484 c 2.467,-7.08682 8.247,-26.2212 12.845,-42.5209 4.752,-16.8475 11.288,-29.6358 15.148,-29.6358 8.335,0 545.8419,558.938836 548.2958,570.158686 1.1163,5.10353 -1.2148,7.39038 -6.3962,6.27402 -4.484,-0.96587 -135.7359,-105.845556 -291.6716,-233.065456 -304.063,-248.06992 -290.781,-235.12244 -278.221,-271.21055 z"
       id="path8802" />
    <path
       style="fill:none;stroke:#ff0000"
       d="m 2672.8005,-82.803254 c 8.1749,6.4106 8.3568,6.22866 1.9462,-1.94617 -3.8908,-4.96077 -7.9496,-9.01958 -9.0196,-9.01958 -4.2423,0 -1.5117,4.2325 7.0734,10.96575 z"
       id="path8798" />
    <path
       style="fill:none;stroke:#ff0000"
       d="m 2172.4284,-2038.5623 c 1.89,-1.8899 14.646,-3.4362 28.348,-3.4362 17.649,0 24.911,2.057 24.911,7.057 0,6.4894 -24.242,13.3551 -47.675,13.5025 -8.883,0.057 -12.296,-10.4117 -5.584,-17.1233 z"
       id="path8796" />
    <path
       style="fill:none;stroke:#ff0000"
       d="m 2172.8664,-44.013394 c 7.963,-4.92108 57.977,8.32276 57.977,15.35288 0,7.64963 -18.776,9.22007 -45.742,3.82688 -14.808,-2.96152 -21.5,-13.45309 -12.235,-19.17976 z"
       id="path8794" />
    <path
       style="fill:none;stroke:#ff0000"
       d="m 2184.0874,-2478.7276 c 4.844,-54.5267 10.479,-100.8116 12.523,-102.8552 5.801,-5.8014 39.408,14.5174 39.204,23.703 -0.469,21.097 -49.392,242.0123 -53.935,243.5498 -8.184,2.7692 -7.39,-56.3544 2.208,-164.3976 z"
       id="path8790" />
    <path
       style="fill:none;stroke:#ff0000"
       d="m 2178.9464,249.19515 c 2.639,-1.63074 5.86,-1.188 7.159,0.98443 1.297,2.17243 13.36,58.31185 26.806,124.75471 l 24.447,120.80467 -14.854,11.88626 c -29.593,23.68027 -28.582,26.73971 -40.383,-122.12771 -9.289,-117.17105 -9.642,-132.30539 -3.175,-136.30236 z"
       id="path8786" />
    <path
       style="fill:none;stroke:#ff0000"
       d="m 2188.6264,-2685.9053 c 3.711,-0.1907 5.16,-2.9167 3.22,-6.055 -2.276,-3.6826 -0.1,-4.7381 6.139,-2.9765 5.316,1.5014 236.6719,30.1579 514.1256,63.6809 349.3593,42.2111 505.2166,62.919 506.9174,67.352 3.4955,9.1093 -76.2788,114.7358 -86.6539,114.7358 -11.3482,0 -926.9501,-225.6132 -940.1871,-231.6708 -5.669,-2.5945 -7.271,-4.8747 -3.561,-5.0664 z"
       id="path8782" />
    <path
       style="fill:none;stroke:#ff0000"
       d="m 2654.7634,499.85962 c 255.834,-63.04121 470.1202,-114.54869 476.1911,-114.46158 7.9074,0.11339 22.1624,15.0426 50.252,52.62642 21.5676,28.85699 39.2135,55.3256 39.2135,58.8185 0,3.49341 -8.6974,7.74343 -19.3276,9.4453 -29.0297,4.6474 -994.049,121.50922 -1003.396,121.50922 -4.447,0 -8.086,-2.99656 -8.086,-6.65903 0,-4.54638 147.5499,-43.01722 465.153,-121.27883 z"
       id="path8778" />
    <path
       style="fill:none;stroke:#ff0000"
       d="m 2317.6044,-1546.3318 c 61.8933,-64.2642 212.6955,-221.2137 335.1175,-348.7763 122.4215,-127.5627 226.0173,-232.682 230.2122,-233.5984 4.1949,-0.9169 7.5801,1.4029 7.5229,5.154 -0.1701,11.0807 -615.1016,826.3137 -623.2906,826.3137 -4.631,0 -17.771,-23.5849 -34.457,-61.8485 -14.833,-34.0167 -27.12,-63.7726 -27.303,-66.1244 -0.186,-2.3518 50.306,-56.8558 112.198,-121.1201 z"
       id="path8774" />
    <path
       style="fill:none;stroke:#ff0000"
       d="m 2235.2094,-713.62031 c 18.04,-41.7396 26.125,-55.1452 32.637,-54.1175 12.166,1.9199 623.9367,817.972342 620.3046,827.436202 -2.4306,6.33535 -4.1737,6.40287 -11.4827,0.44324 -4.7391,-3.86244 -156.6268,-160.922712 -337.5287,-349.022722 -272.4412,-283.28135 -328.8262,-344.34025 -328.4122,-355.62922 0.273,-7.496 11.292,-38.5971 24.482,-69.1126 z"
       id="path8770" />
    <path
       style="fill:none;stroke:#ff0000"
       d="m 2250.1154,-2463.3417 c 10.652,-51.6446 14.659,-63.1371 22.014,-63.1371 4.946,0 11.791,3.3723 15.212,7.4945 4.977,5.9967 1.785,20.9321 -15.971,74.7337 -13.067,39.5933 -24.901,67.2391 -28.782,67.2391 -8.838,0 -7.783,-12.1006 7.527,-86.3302 z"
       id="path8766" />
    <path
       style="fill:none;stroke:#ff0000"
       d="m 2241.2594,310.75714 c 6.181,-3.82069 13.185,12.2656 36.317,83.41824 14.299,43.98515 15.958,53.73712 10.295,60.56004 -3.713,4.47268 -10.534,8.13257 -15.16,8.13257 -6.644,0 -11.38,-14.36948 -22.562,-68.46429 -15.951,-77.16586 -16.162,-79.15274 -8.89,-83.64656 z"
       id="path8764" />
    <path
       style="fill:none;stroke:#ff0000"
       d="m 2655.6494,-1753.3719 c 205.5568,-273.551 377.2937,-498.1153 381.6365,-499.0317 4.3434,-0.9169 7.8966,0.9931 7.8966,4.2443 0,10.6411 -662.1337,1154.3162 -668.3495,1154.4121 -5.7838,0.088 -88.4386,-137.1425 -92.8176,-154.1055 -1.258,-4.8695 148.4365,-208.4925 371.634,-505.5192 z"
       id="path8762" />
    <path
       style="fill:none;stroke:#ff0000"
       d="m 2325.2714,-892.64614 c 23.703,-41.1036 46.4566,-75.3898 50.5633,-76.1918 5.0541,-0.987 113.7658,182.71873 336.352,568.38154 180.8864,313.412396 330.0801,574.41226 331.5413,580.00028 1.69,6.46163 0.093,10.1411 -4.3866,10.10914 -6.6941,-0.0515 -752.854,-988.82183 -755.773,-1001.51313 -0.766,-3.3285 18.001,-39.6825 41.703,-80.78603 z"
       id="path8758" />
    <path
       style="fill:none;stroke:#ff0000"
       d="m 2306.9744,-2450.4566 c 5.75,-17.2846 10.908,-24.4817 17.547,-24.4817 12.1812,0 11.9003,10.9765 -0.924,36.1149 -7.055,13.8293 -12.77,19.3044 -18.039,17.282 -4.242,-1.6276 -7.491,-3.2909 -7.22,-3.6965 0.273,-0.4072 4.157,-11.7538 8.636,-25.2187 z"
       id="path8754" />
    <path
       style="fill:none;stroke:#ff0000"
       d="m 2306.4154,356.35087 c 7.947,0 27.5087,33.45233 27.5087,47.04046 0,4.5 -4.4627,7.9362 -10.3077,7.9362 -5.67,0 -10.334,-1.73949 -10.364,-3.86553 -0.05,-2.12605 -3.283,-14.49576 -7.226,-27.48808 -6.248,-20.58268 -6.198,-23.62305 0.392,-23.62305 z"
       id="path8752" />
    <path
       style="fill:none;stroke:#ff0000"
       d="m 2333.4947,-2609.1951 c 1.6534,-0.1391 175.216,42.1101 385.6943,93.8851 303.1796,74.5785 382.688,95.8081 382.688,102.1821 0,4.4252 -16.026,23.9493 -35.614,43.3867 -29.0595,28.8369 -37.9724,34.8903 -48.4269,32.8921 -31.583,-6.0374 -687.3477,-259.2588 -687.3477,-265.4169 0,-3.6727 1.3524,-6.7904 3.0063,-6.9291 z"
       id="path8750" />
    <path
       style="fill:none;stroke:#ff0000"
       d="m 2334.1849,528.92792 c 4.1088,-1.55858 161.1371,-61.23573 348.9526,-132.61516 217.7239,-82.74666 344.1084,-128.29245 348.729,-125.6742 14.1411,8.01351 70.8516,73.74049 68.8379,79.78206 -1.6343,4.90305 -750.0467,194.2524 -769.357,194.64875 -2.835,0.0567 -1.993,-1.89772 1.8716,-4.3459 5.7081,-3.61607 5.7565,-4.87418 0.2628,-6.70592 -5.2804,-1.76063 -5.1264,-2.87699 0.7051,-5.08963 z"
       id="path8746" />
    <path
       style="fill:none;stroke:#ff0000"
       d="m 2756.5316,-1642.4372 c 181.4529,-314.4556 332.1505,-573.9737 334.8842,-576.7069 23.4066,-23.4071 -15.1859,73.5318 -232.9773,585.2013 l -244.2322,573.7902 -92.0369,0 c -58.167,0 -92.6831,-1.9405 -93.7943,-5.2737 -0.9669,-2.9007 146.7037,-262.5553 328.1565,-577.0109 z"
       id="path8742" />
    <path
       style="fill:none;stroke:#ff0000"
       d="m 2519.2883,-1006.0352 c 86.4066,0 92.9496,0.669 97.9501,10.01276 4.987,9.3175 475.8184,1113.77703 484.7014,1136.99395 3.0244,7.90476 1.9076,10.6998 -4.467,11.18016 -6.0946,0.45871 -102.2026,-161.7262344 -339.6377,-573.14695 -182.126,-315.58273 -331.1382,-576.31876 -331.1382,-579.41372 0,-3.8568 29.1178,-5.6262 92.5914,-5.6262 z"
       id="path8738" />
    <path
       style="fill:none;stroke:#ff0000"
       d="m 2443.4475,-2513.7695 c 11.2287,-4.2345 542.1851,200.4698 543.9663,209.7197 2.4147,12.5398 -49.2572,51.6111 -65.728,49.6995 -15.0843,-1.7503 -484.453,-246.767 -484.5911,-252.9627 -0.052,-2.2152 2.8094,-5.1205 6.3528,-6.4565 z"
       id="path8734" />
    <path
       style="fill:none;stroke:#ff0000"
       d="m 2677.9144,311.90598 c 133.18,-70.04606 245.1156,-127.35649 248.7456,-127.35649 10.6905,0 62.4866,46.94202 60.7982,55.10037 -0.9721,4.69585 -102.0522,45.66537 -271.8693,110.19248 -247.8952,94.19586 -294.0069,110.6986 -274.1349,98.1083 5.3195,-3.37023 5.4823,-4.96541 0.67,-6.56935 -3.496,-1.16533 102.6098,-59.42925 235.7904,-129.47531 z"
       id="path8730" />
    <path
       style="fill:none;stroke:#ff0000"
       d="m 2524.1944,-2420.8136 c 9.2227,3.4217 266.5359,137.4491 323.8458,168.6826 20.5517,11.2003 37.3668,23.536 37.3668,27.4123 0,7.2301 -39.8155,33.2529 -50.8776,33.2529 -11.7183,0 -318.4959,-216.0319 -318.4959,-224.2835 0,-5.221 2.8956,-7.0177 8.1609,-5.0643 z"
       id="path8726" />
    <path
       style="fill:none;stroke:#ff0000"
       d="m 2523.4569,338.00916 c 25.644,-22.17219 299.2439,-207.22411 309.2196,-209.14347 13.4546,-2.58837 52.7305,21.10839 52.7305,31.81541 0,6.14878 -349.3113,193.95193 -360.7482,193.95193 -9.2092,0 -9.8689,-9.12988 -1.2019,-16.62387 z"
       id="path8722" />
    <path
       style="fill:none;stroke:#ff0000"
       d="m 2569.7217,-2329.3747 c 15.0266,4.0861 220.2159,148.2438 221.9446,155.929 1.7771,7.9011 -26.6614,24.7667 -37.4926,22.2351 -3.764,-0.8798 -48.7929,-38.709 -100.0638,-84.0646 -85.9999,-76.0784 -107.8938,-100.4915 -84.3882,-94.0995 z"
       id="path8718" />
    <path
       style="fill:none;stroke:#ff0000"
       d="m 2644.3121,178.79345 c 114.7393,-102.025378 104.0385,-94.716428 128.1126,-87.503848 13.469,4.0351 20.1311,8.994318 19.975,14.867358 -0.2268,8.50263 -201.381,151.17334 -218.1141,154.70025 -22.1382,4.66545 -5.2417,-15.13588 70.0265,-82.06376 z"
       id="path8714" />
    <path
       style="fill:none;stroke:#ff0000"
       d="m 2592.0078,-2240.6653 c 3.045,-1.8812 10.5828,1.0133 16.7506,6.4333 70.2301,61.7094 101.411,91.508 101.411,96.9162 0,5.4601 -14.6158,12.5258 -26.4412,12.7825 -3.6537,0.077 -97.2559,-105.7966 -97.2559,-110.0085 0,-1.4859 2.491,-4.2418 5.5355,-6.123 z"
       id="path8710" />
    <path
       style="fill:none;stroke:#ff0000"
       d="m 2633.1494,113.68135 c 25.6316,-29.055938 49.7783,-52.828968 53.6588,-52.828968 12.3022,0 23.3612,6.03023 23.3612,12.73874 0,9.35253 -112.1587,107.173238 -118.4348,103.294298 -2.894,-1.78897 -5.2458,-4.85511 -5.2252,-6.81365 0,-1.95905 21.0084,-27.33448 46.64,-56.39042 z"
       id="path8706" />
    <path
       style="fill:none;stroke:#ff0000"
       d="m 2597.4613,-2163.5391 c 6.2771,-3.88 40.0304,32.0339 40.3582,42.9414 0.4226,14.1458 -19.6951,5.4726 -32.623,-14.0633 -15.4807,-23.3927 -15.6415,-23.9921 -7.7352,-28.8781 z"
       id="path8704" />
    <path
       style="fill:none;stroke:#ff0000"
       d="m 2610.0964,62.140892 c 14.5009,-18.39943 27.9164,-21.98149 27.9164,-7.45378 0,10.7266 -32.4257,44.1779 -37.7055,38.8981 -6.2307,-6.23021 -3.7155,-14.30918 9.7891,-31.44432 z"
       id="path8702" />
    <path
       style="fill:none;stroke:#ff0000"
       d="m 2858.4447,-1553.6526 c 128.9398,-302.5023 201.9154,-467.7297 206.5819,-467.7297 5.1288,0 6.3869,4.0975 4.351,14.1737 -5.0288,24.8868 -261.2792,910.6586 -265.7792,918.7087 -4.08,7.2992 -13.4108,9.0768 -120.4877,22.9525 -23.0293,2.9847 -24.4683,2.4745 -24.257,-8.6016 0.1237,-6.4755 89.9396,-222.2522 199.591,-479.5036 z"
       id="path8700" />
    <path
       style="fill:none;stroke:#ff0000"
       d="m 2667.863,-1000.8811 c 23.2999,0 132.6038,16.61656 134.985,20.52076 1.4694,2.4085 62.7288,212.28333 136.1322,466.38813 99.0484,342.88272 131.9622,463.508016 127.6488,467.821436 -3.1971,3.19654 -6.6312,4.80718 -7.6322,3.57846 -6.4389,-7.90322 -400.4771,-942.043226 -400.4281,-949.289226 0.052,-5.2113 3.9593,-9.01956 9.2943,-9.01956 z"
       id="path8696" />
    <path
       style="fill:none;stroke:#ff0000"
       d="m 2949.8063,-1474.1272 c 57.7872,-199.3389 107.3423,-368.6493 110.1229,-376.2454 4.0702,-11.1183 5.1504,-11.8012 5.5416,-3.5032 0.4072,8.6959 1.3282,9.099 5.8736,2.5771 4.0804,-5.855 4.6938,-3.979 2.5286,7.731 -1.5725,8.5042 -28.5019,174.3356 -59.8432,368.5143 -31.3407,194.1787 -58.6087,354.6778 -60.595,356.6652 -3.9321,3.9325 -89.4856,24.7343 -101.7285,24.7343 -4.1424,0 -7.4043,-4.0589 -7.2492,-9.0196 0.1546,-4.9608 47.5626,-172.1153 105.3492,-371.4537 z"
       id="path8692" />
    <path
       style="fill:none;stroke:#ff0000"
       d="m 2846.9089,-975.11094 c 10.6214,0 110.6548,27.8035 110.6548,30.7558 0,2.0425 26.6263,168.02033 59.17,368.839 32.5431,200.81914 58.0557,366.23929 56.6945,367.60099 -1.3617,1.36118 -2.5111,-0.81073 -2.5544,-4.82625 -0.067,-6.16475 -0.7813,-6.19259 -4.5907,-0.17524 -3.613,5.70502 -5.0994,5.19167 -7.4646,-2.57702 -27.6216,-90.72668 -214.6439,-745.38698 -214.6439,-751.34708 0,-4.5474 1.2303,-8.2676 2.7343,-8.2676 z"
       id="path8688" />
    <path
       style="fill:none;stroke:#ff0000"
       d="m 3039.7893,-1431.244 c 24.6987,-150.2404 46.2699,-276.6434 47.9362,-280.8955 1.9864,-5.0685 3.347,-3.2929 3.9506,5.154 l 0.9205,12.8852 4.4917,-12.8852 c 2.9244,-8.3902 3.6744,2.3972 2.1482,30.9243 -1.2885,24.0952 -6.14,148.1789 -10.7807,275.7415 -5.6467,155.2172 -10.3632,233.787 -14.2586,237.5397 -6.8668,6.6142 -62.7717,27.8937 -73.2829,27.8937 -4.2891,0 -7.0177,-4.7562 -6.6518,-11.5966 0.3402,-6.3782 20.8286,-134.5206 45.5268,-284.7611 z"
       id="path8684" />
    <path
       style="fill:none;stroke:#ff0000"
       d="m 3003.7594,-928.72454 c 12.9305,0 62.7876,19.389 70.4573,27.4005 3.8924,4.0655 8.648,81.75193 14.2551,232.87893 4.6278,124.72787 9.469,248.81153 10.758,275.74142 1.5009,31.36289 0.7304,44.3315 -2.1451,36.07833 l -4.4881,-12.88512 -0.5154,12.45578 c -0.2835,6.85025 -1.6127,11.35643 -2.9564,10.01277 -1.8755,-1.87556 -95.4844,-570.04221 -95.4844,-579.55241 0,-1.1715 4.5531,-2.1302 10.1174,-2.1302 z"
       id="path8680" />
    <path
       style="fill:none;stroke:#ff0000"
       d="m 3033.5858,-1075.1035 c 66.8774,-10.2823 1215.7989,-147.6505 1224.3355,-146.3847 7.5177,1.1143 22.9396,23.17 53.9891,77.2128 23.9055,41.6091 41.9287,78.1384 40.0511,81.1762 -2.3992,3.8825 -201.5984,5.5236 -670.5584,5.5236 -571.125,0 -667.1449,-1.0473 -667.1449,-7.2781 0,-4.4458 7.5213,-8.4345 19.3276,-10.2498 z"
       id="path8676" />
    <path
       style="fill:none;stroke:#ff0000"
       d="m 3684.2842,-1006.0352 c 504.9651,0 670.026,1.4731 670.026,5.9803 0,8.18046 -87.627,158.94919 -92.3816,158.94919 -2.0931,0 -280.109,-33.63013 -617.813,-74.73373 -337.7044,-41.1035 -617.5738,-74.7336 -621.9326,-74.7336 -4.3587,0 -7.9248,-3.479 -7.9248,-7.7311 0,-6.83216 77.8833,-7.73106 670.026,-7.73106 z"
       id="path8670" />
    <path
       style="fill:none;stroke:#ff0000"
       d="m 3122.4931,-1410.6278 c 4.8031,-107.7196 9.25,-191.2151 9.8829,-185.5457 1.1499,10.3081 1.1499,10.3081 5.3257,0 3.5558,-8.7788 4.6247,-7.6321 7.2038,7.7311 3.6346,21.6491 29.2678,341.1355 29.1858,363.768 -0.051,13.9334 -3.1367,17.3114 -25.2971,27.6911 -27.3937,12.8305 -37.0478,11.0791 -35.8211,-6.4982 0.4329,-6.2112 4.7175,-99.4267 9.52,-207.1463 z"
       id="path8664" />
    <path
       style="fill:none;stroke:#ff0000"
       d="m 3120.2171,-875.43584 c 4.6881,-1.7987 18.7149,1.6803 31.1701,7.7316 27.5572,13.38823 26.7083,-5.5602 9.5031,212.14423 -14.3556,181.64402 -16.1657,196.49849 -22.6649,185.98218 -3.4383,-5.56277 -4.5774,-5.55349 -6.4457,0.0515 -1.2483,3.74493 -5.1004,-77.74875 -8.5609,-181.09678 -3.4599,-103.3484 -7.4687,-195.4739 -8.9082,-204.7238 -1.9513,-12.53573 -0.4484,-17.65063 5.9065,-20.08903 z"
       id="path8660" />
    <path
       style="fill:none;stroke:#ff0000"
       d="m 3153.8988,-2072.9227 c 7.01,0 348.3945,214.8665 352.8579,222.0883 10.4385,16.8904 -31.0222,0.7371 -183.5212,-71.4984 l -172.3951,-81.6602 -1.5241,-34.4651 c -1.0601,-23.9803 0.3351,-34.4646 4.5825,-34.4646 z"
       id="path8656" />
    <path
       style="fill:none;stroke:#ff0000"
       d="m 3154.0055,-1964.6811 c 3.9289,0 48.8908,19.939 99.9158,44.3006 51.0251,24.3616 105.4874,49.9814 121.0279,56.9331 21.8041,9.7541 26.5108,13.7418 20.6161,17.4692 -6.3467,4.0124 -6.4033,4.8432 -0.335,4.9087 4.0155,0.052 5.9004,1.4797 4.1882,3.1919 -2.3389,2.3394 -238.0608,-72.4855 -244.6883,-77.6705 -0.6964,-0.5453 -2.7513,-11.8244 -4.566,-25.0651 -2.5595,-18.6716 -1.6967,-24.073 3.8434,-24.0679 z"
       id="path8652" />
    <path
       style="fill:none;stroke:#ff0000"
       d="m 3151.8583,-138.54375 c 1.8874,-9.70919 18.4149,-16.68055 119.1322,-50.25195 64.3173,-21.43826 119.8388,-38.97851 123.3812,-38.97851 3.5418,0 6.4399,3.06872 6.4399,6.81881 0,7.53882 -227.1645,116.87831 -242.8267,116.87831 -9.8174,0 -11.2543,-8.08413 -6.1266,-34.46666 z"
       id="path8648" />
    <path
       style="fill:none;stroke:#ff0000"
       d="m 3319.9684,-141.44393 c 94.4185,-44.64693 174.4273,-81.17623 177.797,-81.17623 3.3703,0 6.1272,2.93523 6.1272,6.52245 0,7.7991 -334.8022,220.2555856 -347.0931,220.2555856 -7.0368,0 -8.533,-5.65811 -8.5186,-32.2127896 l 0,-32.21279 171.6699,-81.176226 z"
       id="path8644" />
    <path
       style="fill:none;stroke:#ff0000"
       d="m 3159.7038,-2172.1381 c 2.8554,-16.2997 7.8909,-29.6358 11.1894,-29.6358 3.2986,0 107.2521,82.5446 231.0075,183.4325 151.6326,123.6141 224.0984,185.8075 222.2146,190.7162 -3.6655,9.5515 3.0662,13.501 -254.2279,-149.1627 -239.8425,-151.6305 -220.9231,-134.0465 -210.1836,-195.3502 z"
       id="path8640" />
    <path
       style="fill:none;stroke:#ff0000"
       d="m 3381.1618,-95.872884 c 125.6139,-79.112036 232.6815,-144.964766 237.9283,-146.338836 6.6622,-1.74516 8.9939,-0.0979 7.7311,5.45556 -2.4244,10.66372 -442.7398,369.61159 -453.5025,369.69767 -8.7417,0.0722 -11.5022,-9.28605 -17.467,-59.204018 l -3.079,-25.77023 228.3891,-143.840146 z"
       id="path8636" />
    <path
       style="fill:none;stroke:#ff0000"
       d="m 3167.8601,-1873.8621 c 8.2568,-5.1025 145.3328,43.3409 145.3328,51.3616 0,9.4437 -1.1133,9.3448 -79.8878,-7.0889 -64.5755,-13.4722 -67.0598,-14.4741 -68.5864,-27.6654 -0.871,-7.5274 0.5427,-15.0008 3.1414,-16.6073 z"
       id="path8632" />
    <path
       style="fill:none;stroke:#ff0000"
       d="m 3175.852,-222.33153 c 6.6693,-2.53579 38.0956,-9.78444 69.8363,-16.10846 43.0048,-8.5686 59.1988,-10.00967 63.5524,-5.65605 3.2131,3.21303 4.8371,6.72345 3.6089,7.80116 -4.8242,4.23148 -131.6426,44.599 -140.1117,44.599 -14.387,0 -11.8512,-24.9461 3.1141,-30.63565 z"
       id="path8630" />
    <path
       style="fill:none;stroke:#ff0000"
       d="m 3188.9216,-2302.2448 c 8.9402,-29.9218 16.6754,-46.8982 21.8212,-47.8888 8.6964,-1.6751 548.273,556.6772 548.273,567.3517 0,3.4192 -2.7641,6.2168 -6.1426,6.2168 -9.2598,0 -578.9215,-466.101 -578.3216,-473.1868 0.2835,-3.3764 6.7528,-26.9984 14.37,-52.4929 z"
       id="path8628" />
    <path
       style="fill:none;stroke:#ff0000"
       d="m 3376.3279,13.626376 c 108.4282,-88.48828 235.1781,-192.074816 281.666,-230.192596 78.5894,-64.43898 101.0219,-78.85897 101.0219,-64.93789 0,9.35408 -540.694,569.30977 -548.3544,567.88932 -7.7667,-1.44056 -31.1485,-74.3997 -31.3531,-97.83412 -0.1083,-12.27952 24.5626,-34.18267 197.0196,-174.924714 z"
       id="path8624" />
    <path
       style="fill:none;stroke:#ff0000"
       d="m 3206.2443,-1802.208 c 26.6398,4.3907 42.8714,12.1672 27.0588,12.9635 -10.3081,0.519 -10.3081,0.519 0,5.4091 8.0135,3.8016 6.4353,4.2949 -7.0868,2.2147 -9.567,-1.4715 -22.9031,-2.6754 -29.6358,-2.6754 -8.9763,0 -12.2409,-2.8698 -12.2409,-10.7612 0,-9.7906 1.9761,-10.4354 21.9047,-7.1507 z"
       id="path8620" />
    <path
       style="fill:none;stroke:#ff0000"
       d="m 3189.0468,-1508.5547 c 4.5552,9.6283 4.9273,9.4587 5.6458,-2.577 1.2024,-20.1446 4.033,-8.9505 30.8536,122.0112 l 25.1508,122.806 -10.8838,11.5966 c -5.986,6.3781 -15.8828,11.5966 -21.9924,11.5966 -10.7869,0 -11.3688,-3.3955 -20.0837,-117.2545 -4.9361,-64.49 -10.0082,-126.5319 -11.2709,-137.8708 -1.739,-15.6111 -1.1122,-18.1134 2.5806,-10.3081 z"
       id="path8618" />
    <path
       style="fill:none;stroke:#ff0000"
       d="m 3196.6387,-696.74031 c 11.894,-137.8074 12.678,-140.0623 40.7742,-117.3597 l 14.4174,11.6497 -26.0557,125.8865 c -25.0008,120.78817 -30.6965,142.68873 -31.4892,121.07837 -0.3453,-9.4402 -0.5587,-9.4206 -4.7917,0.4277 -4.0119,9.3361 -4.3974,9.0933 -4.0892,-2.577 0.1855,-7.0868 5.2421,-69.6853 11.2342,-139.10717 z"
       id="path8614" />
    <path
       style="fill:none;stroke:#ff0000"
       d="m 3195.9362,-281.22012 c 21.262,-5.6978 45.0979,-3.66917 45.0979,3.83822 0,7.06671 -21.2341,13.52937 -44.4536,13.52937 -15.6307,0 -16.1208,-13.22013 -0.6443,-17.36759 z"
       id="path8610" />
    <path
       style="fill:none;stroke:#ff0000"
       d="m 3257.7848,-1158.1275 c 31.8907,-7.6078 244.375,-59.9951 472.1869,-116.4159 227.812,-56.4209 416.2058,-102.5831 418.6534,-102.5831 6.2807,0 87.14,108.3479 87.14,116.7639 0,3.8135 -2.8992,6.9446 -6.4426,6.9585 -3.5434,0 -234.7936,27.8457 -513.8898,61.8485 -279.0958,34.0028 -509.2884,61.8233 -511.5391,61.8233 -2.2503,0 -4.0918,-3.2764 -4.0918,-7.2816 0,-5.0211 17.9974,-11.575 57.983,-21.1136 z"
       id="path8608" />
    <path
       style="fill:none;stroke:#ff0000"
       d="m 3213.7507,-933.87854 c 9.8958,0 979.1647,117.02883 1005.2637,121.37473 9.2129,1.5343 16.7507,5.3035 16.7507,8.3758 0,3.0724 -17.8907,29.6394 -39.7578,59.0381 -27.3829,36.8148 -43.0239,53.5077 -50.252,53.632 -5.7715,0.098 -219.8128,-51.4029 -475.6468,-114.4482 -318.1804,-78.41013 -465.1527,-116.73663 -465.1527,-121.30053 0,-3.6697 3.9578,-6.6719 8.7949,-6.6719 z"
       id="path8602" />
    <path
       style="fill:none;stroke:#ff0000"
       d="m 3246.9592,-2465.9188 c 18.2588,-42.1786 28.7694,-60.5198 34.6275,-60.4276 5.0535,0.077 129.7938,161.7964 312.4996,405.1349 167.2488,222.7512 306.0689,408.4607 308.4882,412.6881 2.4998,4.366 2.3477,9.7375 -0.3504,12.4367 -5.6865,5.6865 -38.8811,-27.8561 -405.3926,-409.6452 -152.0268,-158.3642 -276.3393,-290.5655 -276.2496,-293.7806 0.088,-3.2156 11.9594,-33.0982 26.3784,-66.4063 z"
       id="path8598" />
    <path
       style="fill:none;stroke:#ff0000"
       d="m 3338.0385,206.03413 c 64.691,-67.09383 215.5916,-224.038654 335.3346,-348.76657 119.7429,-124.72792 221.0488,-227.52795 225.1241,-228.44434 4.0748,-0.91691 7.362,1.40293 7.3048,5.15404 -0.1649,10.68589 -614.8112,826.13126 -623.9725,827.81611 -6.022,1.10761 -15.1895,-15.14361 -34.8883,-61.84855 -14.6962,-34.8429 -26.6758,-65.2796 -26.6217,-67.63655 0.057,-2.35694 53.0279,-59.1803 117.719,-126.27414 z"
       id="path8594" />
    <path
       style="fill:none;stroke:#ff0000"
       d="m 3250.3501,-1447.3195 c 2.896,1.79 6.2379,0.3402 7.4254,-3.2202 2.5693,-7.7032 45.1072,117.6731 45.1072,132.9502 0,11.5873 -9.0309,22.9277 -18.2592,22.9277 -3.4115,0 -11.8131,-28.7302 -19.9704,-68.2911 -7.7445,-37.5601 -15.3158,-72.6401 -16.8254,-77.9559 -1.6514,-5.8185 -0.6479,-8.3697 2.5224,-6.4107 z"
       id="path8590" />
    <path
       style="fill:none;stroke:#ff0000"
       d="m 3256.9998,-668.44511 c 5.3793,-25.5126 12.2698,-58.5629 15.3122,-73.4452 5.8174,-28.4581 17.029,-35.6449 30.4254,-19.5034 5.0427,6.0766 2.0136,20.4543 -15.474,73.4451 -20.2544,61.37697 -30.7671,85.01857 -30.7671,69.19357 0,-3.5691 -2.3193,-5.0556 -5.1541,-3.3037 -2.8347,1.7519 -4.9221,2.4688 -4.6381,1.5926 0.2835,-0.8757 4.9165,-22.46647 10.2957,-47.97897 z"
       id="path8588" />
    <path
       style="fill:none;stroke:#ff0000"
       d="m 3340.1898,-2654.0415 c 25.5233,-44.4567 45.2994,-73.4446 50.1045,-73.4431 5.1169,0 125.6258,203.9235 339.0857,573.7949 182.1311,315.5858 331.1475,576.6785 331.1475,580.2059 0,3.5274 -3.2749,5.6638 -7.2775,4.7469 -9.2252,-2.1122 -755.5724,-994.6377 -755.3739,-1004.5293 0.082,-4.0315 19.122,-40.3804 42.3137,-80.7753 z"
       id="path8586" />
    <path
       style="fill:none;stroke:#ff0000"
       d="m 3671.2372,3.8517256 c 205.43,-273.3824656 377.27,-497.8499456 381.8675,-498.8158156 5.406,-1.13595 7.7382,1.12204 6.6023,6.39153 -0.9659,4.48145 -150.193,265.55348 -331.6155,580.159552 -207.6457,360.080228 -332.723,571.990908 -337.59,571.956378 -7.845,-0.0567 -92.7728,-142.62999 -92.7728,-155.74497 0,-3.78823 168.0791,-230.56369 373.5085,-503.9466744 z"
       id="path8582" />
    <path
       style="fill:none;stroke:#ff0000"
       d="m 3318.3448,-1402.8967 c 4.4413,6.8719 5.0294,6.8719 5.2912,0 0.5102,-13.3557 20.0358,27.6195 20.2631,42.5209 0.366,23.9678 -12.7851,16.0079 -22.0361,-13.3382 -9.7453,-30.9165 -10.9168,-40.6309 -3.5182,-29.1827 z"
       id="path8578" />
    <path
       style="fill:none;stroke:#ff0000"
       d="m 3322.3196,-692.92681 c 7.946,-23.8885 19.322,-31.7717 24.8941,-17.2506 4.0047,10.4364 -18.4597,52.8124 -23.5932,44.5057 -3.1888,-5.1598 -4.6098,-5.0536 -6.8219,0.5102 -6.1426,15.4467 -2.1157,-4.8046 5.521,-27.7638 z"
       id="path8576" />
    <path
       style="fill:none;stroke:#ff0000"
       d="m 3347.8966,-1229.3157 c 10.5818,-6.3461 686.503,-261.1998 692.7528,-261.1998 7.7867,0 76.5726,73.305 76.5726,81.6035 0,4.3443 -744.6849,191.8156 -761.2062,191.63 -7.6028,-0.088 -13.4907,-8.8124 -8.1192,-12.0337 z"
       id="path8574" />
    <path
       style="fill:none;stroke:#ff0000"
       d="m 3346.6921,-851.13081 c 2.8347,0.067 176.7838,42.5399 386.5535,94.3804 270.1643,66.766 381.8133,96.394 382.8178,101.5883 0.7803,4.0335 -15.7621,24.39917 -36.7602,45.25707 l -38.1791,37.924 -342.0617,-129.93657 c -188.134,-71.4649 -345.5412,-131.9477 -349.7933,-134.4056 -6.8719,-3.9723 -6.8719,-4.4954 0,-4.7047 6.8724,-0.2113 6.8724,-0.7906 0,-5.2318 -4.2521,-2.7482 -5.4117,-4.9402 -2.577,-4.8711 z"
       id="path8570" />
    <path
       style="fill:none;stroke:#ff0000"
       d="m 3474.13,-1332.3919 c 71.4722,-40.6882 457.8283,-240.5884 464.9955,-240.5884 11.7775,0 64.0632,41.9272 64.4199,51.657 0.2113,5.6906 -71.6237,35.1501 -261.2802,107.1567 -143.8624,54.6195 -266.5245,100.5756 -272.5826,102.1244 -20.5379,5.2509 -17.6975,-7.743 4.4474,-20.3497 z"
       id="path8566" />
    <path
       style="fill:none;stroke:#ff0000"
       d="m 3460.0811,-756.81431 c 8.2743,1.5585 305.5278,113.5003 503.808,189.72807 21.9692,8.446 39.9439,18.383 39.9439,22.0815 0,7.52132 -54.7143,54.37417 -63.4973,54.37417 -12.6718,0 -488.5923,-254.14184 -482.7187,-257.77184 4.6999,-2.9048 4.501,-4.6284 -0.818,-7.0946 -3.8645,-1.792 -2.3873,-2.3847 3.2821,-1.3173 z"
       id="path8562" />
    <path
       style="fill:none;stroke:#ff0000"
       d="m 3683.4271,-1522.9979 c 84.5717,-58.4891 157.2948,-107.6984 161.6077,-109.3528 10.7152,-4.1119 55.9188,23.8632 54.2917,33.5997 -1.2416,7.4285 -349.8082,195.1657 -363.2232,195.6311 -21.5032,0.7453 10.1385,-25.0018 147.3238,-119.878 z"
       id="path8558" />
    <path
       style="fill:none;stroke:#ff0000"
       d="m 3536.5465,-658.52571 c 8.7578,-3.3609 364.2056,183.5552 364.2056,191.52129 0,9.81794 -41.3463,34.24812 -53.901,31.8484 -12.6269,-2.41416 -316.6595,-210.25879 -316.9857,-216.70029 -0.1134,-2.2152 2.894,-5.2164 6.6811,-6.6694 z"
       id="path8554" />
    <path
       style="fill:none;stroke:#ff0000"
       d="m 3666.9944,-1588.4424 c 49.7675,-43.9382 95.1107,-80.6577 100.7627,-81.5988 13.6633,-2.275 40.2221,9.0314 40.2221,17.1227 0,7.4177 -208.3322,153.0937 -220.2963,154.0421 -19.8333,1.5715 -5.2014,-14.9519 79.3115,-89.566 z"
       id="path8550" />
    <path
       style="fill:none;stroke:#ff0000"
       d="m 3580.3235,-566.69764 c 2.9599,-4.6623 35.0913,14.9086 114.2327,69.57967 60.5626,41.83694 111.0063,78.83011 112.0974,82.20704 2.1158,6.55028 -23.8823,22.20724 -36.8746,22.20724 -5.8493,0 -194.0627,-161.92575 -193.653,-166.60555 0.052,-0.4948 1.9323,-3.8202 4.1975,-7.3884 z"
       id="path8546" />
    <path
       style="fill:none;stroke:#ff0000"
       d="m 3646.0412,-1645.1369 c 38.0193,-42.5209 45.9493,-48.9634 60.2678,-48.9634 10.74,0 16.8635,2.695 17.5665,7.731 1.188,8.5104 -99.9462,99.5004 -113.5606,102.1702 -16.7625,3.2878 -7.36,-12.75 35.7263,-60.9378 z"
       id="path8542" />
    <path
       style="fill:none;stroke:#ff0000"
       d="m 3606.6266,-479.76481 c 2.8574,-4.62266 20.825,8.23772 61.4631,43.99288 31.5834,27.78907 57.4248,53.23821 57.4248,56.55329 0,6.77293 -11.9404,12.47949 -24.9033,11.90224 -4.7289,-0.21132 -25.9929,-20.2652 -47.2533,-44.56498 -48.7671,-55.73946 -51.6487,-59.92609 -46.7313,-67.88343 z"
       id="path8538" />
    <path
       style="fill:none;stroke:#ff0000"
       d="m 3620.8637,-1692.8118 c 12.4016,-18.0588 32.4942,-26.4851 32.4942,-13.6268 0,9.2891 -31.1671,45.8396 -39.0883,45.8396 -10.5926,0 -8.497,-10.237 6.5941,-32.2128 z"
       id="path8536" />
    <path
       style="fill:none;stroke:#ff0000"
       d="m 3614.5242,-401.29394 c 11.8398,0 40.6711,32.44576 37.1003,41.7519 -5.0751,13.2258 -15.4348,9.08246 -30.4794,-12.19035 -16.0018,-22.62626 -17.5552,-29.56155 -6.6209,-29.56155 z"
       id="path3415" />
    <g
       id="g5942"
       transform="matrix(1.0949171,0,0,1.0949171,7272.4738,-6786.685)">
      <g
         id="g6454"
         transform="matrix(0.89997638,-0.15737063,0.15737063,0.89997638,-1548.7352,31.032088)">
        <g
           id="g7275"
           transform="translate(-4.3238187,-28.979229)">
          <g
             id="g7302" />
        </g>
      </g>
    </g>
  </g>
</svg>
