  0
SECTION
  2
HEADER
  9
$ACADVER
  1
AC1014
  9
$HANDSEED
  5
FFFF
  9
$MEASUREMENT
 70
     1
  0
ENDSEC
  0
SECTION
  2
TABLES
  0
TABLE
  2
VPORT
  5
8
330
0
100
AcDbSymbolTable
 70
     4
  0
VPORT
  5
2E
330
8
100
AcDbSymbolTableRecord
100
AcDbViewportTableRecord
  2
*ACTIVE
 70
     0
 10
0.0
 20
0.0
 11
1.0
 21
1.0
 12
210.0
 22
148.5
 13
0.0
 23
0.0
 14
10.0
 24
10.0
 15
10.0
 25
10.0
 16
0.0
 26
0.0
 36
1.0
 17
0.0
 27
0.0
 37
0.0
 40
341.0
 41
1.24
 42
50.0
 43
0.0
 44
0.0
 50
0.0
 51
0.0
 71
     0
 72
   100
 73
     1
 74
     3
 75
     0
 76
     0
 77
     0
 78
     0
  0
ENDTAB
  0
TABLE
  2
LTYPE
  5
5
330
0
100
AcDbSymbolTable
 70
     1
  0
LTYPE
  5
14
330
5
100
AcDbSymbolTableRecord
100
AcDbLinetypeTableRecord
  2
BYBLOCK
 70
     0
  3

 72
    65
 73
     0
 40
0.0
  0
LTYPE
  5
15
330
5
100
AcDbSymbolTableRecord
100
AcDbLinetypeTableRecord
  2
BYLAYER
 70
     0
  3

 72
    65
 73
     0
 40
0.0
  0
LTYPE
  5
16
330
5
100
AcDbSymbolTableRecord
100
AcDbLinetypeTableRecord
  2
CONTINUOUS
 70
     0
  3
Solid line
 72
    65
 73
     0
 40
0.0
  0
ENDTAB
  0
TABLE
  2
LAYER
  5
2
100
AcDbSymbolTable
 70
2
  0
LAYER
  5
50
100
AcDbSymbolTableRecord
100
AcDbLayerTableRecord
  2
0
 70
0
  6
CONTINUOUS
  0
LAYER
  5
51
100
AcDbSymbolTableRecord
100
AcDbLayerTableRecord
  2
Layer_1
 70
0
  6
CONTINUOUS
  0
ENDTAB
  0
TABLE
  2
STYLE
  5
3
330
0
100
AcDbSymbolTable
 70
     1
  0
STYLE
  5
11
330
3
100
AcDbSymbolTableRecord
100
AcDbTextStyleTableRecord
  2
STANDARD
 70
     0
 40
0.0
 41
1.0
 50
0.0
 71
     0
 42
2.5
  3
txt
  4

  0
ENDTAB
  0
TABLE
  2
VIEW
  5
6
330
0
100
AcDbSymbolTable
 70
     0
  0
ENDTAB
  0
TABLE
  2
UCS
  5
7
330
0
100
AcDbSymbolTable
 70
     0
  0
ENDTAB
  0
TABLE
  2
APPID
  5
9
330
0
100
AcDbSymbolTable
 70
     2
  0
APPID
  5
12
330
9
100
AcDbSymbolTableRecord
100
AcDbRegAppTableRecord
  2
ACAD
 70
     0
  0
ENDTAB
  0
TABLE
  2
DIMSTYLE
  5
A
330
0
100
AcDbSymbolTable
 70
     1
  0
DIMSTYLE
105
27
330
A
100
AcDbSymbolTableRecord
100
AcDbDimStyleTableRecord
  2
ISO-25
 70
     0
  3

  4

  5

  6

  7

 40
1.0
 41
2.5
 42
0.625
 43
3.75
 44
1.25
 45
0.0
 46
0.0
 47
0.0
 48
0.0
140
2.5
141
2.5
142
0.0
143
0.03937007874016
144
1.0
145
0.0
146
1.0
147
0.625
 71
     0
 72
     0
 73
     0
 74
     0
 75
     0
 76
     0
 77
     1
 78
     8
170
     0
171
     3
172
     1
173
     0
174
     0
175
     0
176
     0
177
     0
178
     0
270
     2
271
     2
272
     2
273
     2
274
     3
340
11
275
     0
280
     0
281
     0
282
     0
283
     0
284
     8
285
     0
286
     0
287
     3
288
     0
  0
ENDTAB
  0
TABLE
  2
BLOCK_RECORD
  5
1
330
0
100
AcDbSymbolTable
 70
     1
  0
BLOCK_RECORD
  5
1F
330
1
100
AcDbSymbolTableRecord
100
AcDbBlockTableRecord
  2
*MODEL_SPACE
  0
BLOCK_RECORD
  5
1B
330
1
100
AcDbSymbolTableRecord
100
AcDbBlockTableRecord
  2
*PAPER_SPACE
  0
ENDTAB
  0
ENDSEC
  0
SECTION
  2
BLOCKS
  0
BLOCK
  5
20
330
1F
100
AcDbEntity
  8
0
100
AcDbBlockBegin
  2
*MODEL_SPACE
 70
     0
 10
0.0
 20
0.0
 30
0.0
  3
*MODEL_SPACE
  1

  0
ENDBLK
  5
21
330
1F
100
AcDbEntity
  8
0
100
AcDbBlockEnd
  0
BLOCK
  5
1C
330
1B
100
AcDbEntity
 67
     1
  8
0
100
AcDbBlockBegin
  2
*PAPER_SPACE
  1

  0
ENDBLK
  5
1D
330
1B
100
AcDbEntity
 67
     1
  8
0
100
AcDbBlockEnd
  0
ENDSEC
  0
SECTION
  2
ENTITIES
  0
LWPOLYLINE
  5
100
100
AcDbEntity
  8
Layer_1
 62
1
100
AcDbPolyline
 90
121
 70
0
 10
49.399819
 20
24.622760
 30
0.0
 10
49.053918
 20
25.191027
 30
0.0
 10
48.164457
 20
26.747584
 30
0.0
 10
46.854972
 20
28.995944
 30
0.0
 10
45.273708
 20
31.763156
 30
0.0
 10
43.544200
 20
34.752734
 30
0.0
 10
41.814693
 20
37.742311
 30
0.0
 10
40.233428
 20
40.484816
 30
0.0
 10
38.923944
 20
42.757884
 30
0.0
 10
38.034483
 20
44.289733
 30
0.0
 10
37.713289
 20
44.858000
 30
0.0
 10
37.663874
 20
44.907415
 30
0.0
 10
37.639167
 20
44.956829
 30
0.0
 10
37.589752
 20
45.006244
 30
0.0
 10
37.540338
 20
45.030951
 30
0.0
 10
37.490923
 20
45.055658
 30
0.0
 10
37.441509
 20
45.105073
 30
0.0
 10
37.392094
 20
45.105073
 30
0.0
 10
37.342680
 20
45.129780
 30
0.0
 10
37.268558
 20
45.129780
 30
0.0
 10
37.219143
 20
45.154487
 30
0.0
 10
36.576755
 20
45.154487
 30
0.0
 10
34.797833
 20
45.154487
 30
0.0
 10
32.178864
 20
45.154487
 30
0.0
 10
28.991628
 20
45.154487
 30
0.0
 10
25.532613
 20
45.154487
 30
0.0
 10
22.073597
 20
45.154487
 30
0.0
 10
18.911069
 20
45.154487
 30
0.0
 10
16.292100
 20
45.154487
 30
0.0
 10
14.513178
 20
45.154487
 30
0.0
 10
13.870789
 20
45.154487
 30
0.0
 10
13.796667
 20
45.129780
 30
0.0
 10
13.747253
 20
45.129780
 30
0.0
 10
13.697838
 20
45.105073
 30
0.0
 10
13.623717
 20
45.105073
 30
0.0
 10
13.574302
 20
45.055658
 30
0.0
 10
13.524887
 20
45.030951
 30
0.0
 10
13.475473
 20
45.006244
 30
0.0
 10
13.450766
 20
44.956829
 30
0.0
 10
13.401351
 20
44.907415
 30
0.0
 10
13.376644
 20
44.858000
 30
0.0
 10
13.055450
 20
44.289733
 30
0.0
 10
12.165989
 20
42.757884
 30
0.0
 10
10.856504
 20
40.484816
 30
0.0
 10
9.275240
 20
37.742311
 30
0.0
 10
7.545732
 20
34.752734
 30
0.0
 10
5.816224
 20
31.763156
 30
0.0
 10
4.210253
 20
28.995944
 30
0.0
 10
2.900769
 20
26.747584
 30
0.0
 10
2.011307
 20
25.191027
 30
0.0
 10
1.690113
 20
24.622760
 30
0.0
 10
1.665406
 20
24.573345
 30
0.0
 10
1.640699
 20
24.523931
 30
0.0
 10
1.640699
 20
24.474516
 30
0.0
 10
1.615991
 20
24.400395
 30
0.0
 10
1.615991
 20
24.350980
 30
0.0
 10
1.615991
 20
24.301566
 30
0.0
 10
1.640699
 20
24.227444
 30
0.0
 10
1.640699
 20
24.178029
 30
0.0
 10
1.665406
 20
24.128615
 30
0.0
 10
1.690113
 20
24.079200
 30
0.0
 10
2.011307
 20
23.510933
 30
0.0
 10
2.900769
 20
21.979084
 30
0.0
 10
4.210253
 20
19.706016
 30
0.0
 10
5.816224
 20
16.938804
 30
0.0
 10
7.545732
 20
13.949226
 30
0.0
 10
9.275240
 20
10.959649
 30
0.0
 10
10.856504
 20
8.217144
 30
0.0
 10
12.165989
 20
5.944076
 30
0.0
 10
13.055450
 20
4.412227
 30
0.0
 10
13.376644
 20
3.843960
 30
0.0
 10
13.401351
 20
3.794545
 30
0.0
 10
13.450766
 20
3.745131
 30
0.0
 10
13.475473
 20
3.695716
 30
0.0
 10
13.524887
 20
3.671009
 30
0.0
 10
13.574302
 20
3.646302
 30
0.0
 10
13.623717
 20
3.596887
 30
0.0
 10
13.697838
 20
3.596887
 30
0.0
 10
13.747253
 20
3.572180
 30
0.0
 10
13.796667
 20
3.572180
 30
0.0
 10
13.870789
 20
3.547473
 30
0.0
 10
14.513178
 20
3.547473
 30
0.0
 10
16.292100
 20
3.547473
 30
0.0
 10
18.911069
 20
3.547473
 30
0.0
 10
22.073597
 20
3.547473
 30
0.0
 10
25.532613
 20
3.547473
 30
0.0
 10
28.991628
 20
3.547473
 30
0.0
 10
32.178864
 20
3.547473
 30
0.0
 10
34.797833
 20
3.547473
 30
0.0
 10
36.576755
 20
3.547473
 30
0.0
 10
37.219143
 20
3.547473
 30
0.0
 10
37.268558
 20
3.572180
 30
0.0
 10
37.342680
 20
3.572180
 30
0.0
 10
37.392094
 20
3.596887
 30
0.0
 10
37.441509
 20
3.596887
 30
0.0
 10
37.490923
 20
3.646302
 30
0.0
 10
37.540338
 20
3.671009
 30
0.0
 10
37.589752
 20
3.695716
 30
0.0
 10
37.639167
 20
3.745131
 30
0.0
 10
37.663874
 20
3.794545
 30
0.0
 10
37.713289
 20
3.843960
 30
0.0
 10
38.034483
 20
4.412227
 30
0.0
 10
38.923944
 20
5.944076
 30
0.0
 10
40.233428
 20
8.217144
 30
0.0
 10
41.814693
 20
10.959649
 30
0.0
 10
43.544200
 20
13.949226
 30
0.0
 10
45.273708
 20
16.938804
 30
0.0
 10
46.854972
 20
19.706016
 30
0.0
 10
48.164457
 20
21.979084
 30
0.0
 10
49.053918
 20
23.510933
 30
0.0
 10
49.399819
 20
24.079200
 30
0.0
 10
49.424527
 20
24.128615
 30
0.0
 10
49.424527
 20
24.178029
 30
0.0
 10
49.449234
 20
24.227444
 30
0.0
 10
49.449234
 20
24.301566
 30
0.0
 10
49.473941
 20
24.350980
 30
0.0
 10
49.449234
 20
24.400395
 30
0.0
 10
49.449234
 20
24.474516
 30
0.0
 10
49.424527
 20
24.523931
 30
0.0
 10
49.424527
 20
24.573345
 30
0.0
 10
49.399819
 20
24.622760
 30
0.0
  0
LWPOLYLINE
  5
101
100
AcDbEntity
  8
Layer_1
 62
5
100
AcDbPolyline
 90
5
 70
0
 10
44.779563
 20
18.322410
 30
0.0
 10
41.345255
 20
15.135175
 30
0.0
 10
42.382959
 20
29.218309
 30
0.0
 10
44.853685
 20
18.445946
 30
0.0
 10
44.779563
 20
18.322410
 30
0.0
  0
LWPOLYLINE
  5
102
100
AcDbEntity
  8
Layer_1
 62
5
100
AcDbPolyline
 90
5
 70
0
 10
29.930504
 20
4.684006
 30
0.0
 10
25.458491
 20
6.067613
 30
0.0
 10
38.182726
 20
12.195011
 30
0.0
 10
30.078747
 20
4.684006
 30
0.0
 10
29.930504
 20
4.684006
 30
0.0
  0
LWPOLYLINE
  5
103
100
AcDbEntity
  8
Layer_1
 62
5
100
AcDbPolyline
 90
5
 70
0
 10
10.708261
 20
10.712576
 30
0.0
 10
9.670556
 20
15.283418
 30
0.0
 10
21.332380
 20
7.327682
 30
0.0
 10
10.782382
 20
10.589040
 30
0.0
 10
10.708261
 20
10.712576
 30
0.0
  0
LWPOLYLINE
  5
104
100
AcDbEntity
  8
Layer_1
 62
5
100
AcDbPolyline
 90
5
 70
0
 10
6.310370
 20
30.379550
 30
0.0
 10
9.744678
 20
33.566786
 30
0.0
 10
8.706973
 20
19.483651
 30
0.0
 10
6.236248
 20
30.256014
 30
0.0
 10
6.310370
 20
30.379550
 30
0.0
  0
LWPOLYLINE
  5
105
100
AcDbEntity
  8
Layer_1
 62
5
100
AcDbPolyline
 90
5
 70
0
 10
21.159429
 20
44.017954
 30
0.0
 10
25.631442
 20
42.634347
 30
0.0
 10
12.907206
 20
36.506949
 30
0.0
 10
21.011185
 20
44.017954
 30
0.0
 10
21.159429
 20
44.017954
 30
0.0
  0
LWPOLYLINE
  5
106
100
AcDbEntity
  8
Layer_1
 62
5
100
AcDbPolyline
 90
5
 70
0
 10
31.462353
 20
39.076503
 30
0.0
 10
33.760128
 20
36.210462
 30
0.0
 10
22.567742
 20
37.865848
 30
0.0
 10
31.289403
 20
39.200039
 30
0.0
 10
31.462353
 20
39.076503
 30
0.0
  0
LWPOLYLINE
  5
107
100
AcDbEntity
  8
Layer_1
 62
5
100
AcDbPolyline
 90
5
 70
0
 10
41.246426
 20
26.599340
 30
0.0
 10
39.912234
 20
23.165032
 30
0.0
 10
35.761415
 20
33.690322
 30
0.0
 10
41.271133
 20
26.796998
 30
0.0
 10
41.246426
 20
26.599340
 30
0.0
  0
LWPOLYLINE
  5
108
100
AcDbEntity
  8
Layer_1
 62
5
100
AcDbPolyline
 90
5
 70
0
 10
35.341392
 20
11.873817
 30
0.0
 10
31.684719
 20
11.330258
 30
0.0
 10
38.726286
 20
20.175454
 30
0.0
 10
35.514343
 20
11.972646
 30
0.0
 10
35.341392
 20
11.873817
 30
0.0
  0
LWPOLYLINE
  5
109
100
AcDbEntity
  8
Layer_1
 62
5
100
AcDbPolyline
 90
5
 70
0
 10
19.627579
 20
9.625457
 30
0.0
 10
17.329805
 20
12.516206
 30
0.0
 10
28.522190
 20
10.836112
 30
0.0
 10
19.800530
 20
9.501921
 30
0.0
 10
19.627579
 20
9.625457
 30
0.0
  0
LWPOLYLINE
  5
10a
100
AcDbEntity
  8
Layer_1
 62
5
100
AcDbPolyline
 90
5
 70
0
 10
9.843507
 20
22.102620
 30
0.0
 10
11.177698
 20
25.536928
 30
0.0
 10
15.328517
 20
15.011638
 30
0.0
 10
9.818799
 20
21.904962
 30
0.0
 10
9.843507
 20
22.102620
 30
0.0
  0
LWPOLYLINE
  5
10b
100
AcDbEntity
  8
Layer_1
 62
5
100
AcDbPolyline
 90
5
 70
0
 10
20.368797
 20
37.544653
 30
0.0
 10
23.803105
 20
37.025801
 30
0.0
 10
15.328517
 20
31.219596
 30
0.0
 10
20.344089
 20
37.519946
 30
0.0
 10
20.368797
 20
37.544653
 30
0.0
  0
LWPOLYLINE
  5
10c
100
AcDbEntity
  8
Layer_1
 62
5
100
AcDbPolyline
 90
5
 70
0
 10
34.377809
 20
35.419830
 30
0.0
 10
35.637879
 20
32.183179
 30
0.0
 10
26.372659
 20
36.630485
 30
0.0
 10
34.353102
 20
35.444537
 30
0.0
 10
34.377809
 20
35.419830
 30
0.0
  0
LWPOLYLINE
  5
10d
100
AcDbEntity
  8
Layer_1
 62
5
100
AcDbPolyline
 90
5
 70
0
 10
39.541625
 20
22.250863
 30
0.0
 10
37.392094
 20
19.533066
 30
0.0
 10
36.601462
 20
29.761868
 30
0.0
 10
39.566333
 20
22.275571
 30
0.0
 10
39.541625
 20
22.250863
 30
0.0
  0
LWPOLYLINE
  5
10e
100
AcDbEntity
  8
Layer_1
 62
5
100
AcDbPolyline
 90
5
 70
0
 10
30.721136
 20
11.182014
 30
0.0
 10
27.286828
 20
11.676159
 30
0.0
 10
35.761415
 20
17.482364
 30
0.0
 10
30.745843
 20
11.182014
 30
0.0
 10
30.721136
 20
11.182014
 30
0.0
  0
LWPOLYLINE
  5
10f
100
AcDbEntity
  8
Layer_1
 62
5
100
AcDbPolyline
 90
5
 70
0
 10
16.712123
 20
13.282131
 30
0.0
 10
15.452053
 20
16.518781
 30
0.0
 10
24.717273
 20
12.071475
 30
0.0
 10
16.736830
 20
13.257423
 30
0.0
 10
16.712123
 20
13.282131
 30
0.0
  0
LWPOLYLINE
  5
110
100
AcDbEntity
  8
Layer_1
 62
5
100
AcDbPolyline
 90
5
 70
0
 10
14.290812
 20
29.910112
 30
0.0
 10
16.736830
 20
31.590205
 30
0.0
 10
14.686128
 20
22.572058
 30
0.0
 10
14.142569
 20
29.737161
 30
0.0
 10
14.290812
 20
29.910112
 30
0.0
  0
LWPOLYLINE
  5
111
100
AcDbEntity
  8
Layer_1
 62
5
100
AcDbPolyline
 90
5
 70
0
 10
24.741981
 20
36.877557
 30
0.0
 10
27.410364
 20
35.592780
 30
0.0
 10
18.589874
 20
32.850275
 30
0.0
 10
24.519615
 20
36.902265
 30
0.0
 10
24.741981
 20
36.877557
 30
0.0
  0
LWPOLYLINE
  5
112
100
AcDbEntity
  8
Layer_1
 62
5
100
AcDbPolyline
 90
5
 70
0
 10
35.983781
 20
31.318425
 30
0.0
 10
36.206146
 20
28.353555
 30
0.0
 10
29.411651
 20
34.629197
 30
0.0
 10
35.909659
 20
31.540791
 30
0.0
 10
35.983781
 20
31.318425
 30
0.0
  0
LWPOLYLINE
  5
113
100
AcDbEntity
  8
Layer_1
 62
5
100
AcDbPolyline
 90
5
 70
0
 10
36.799120
 20
18.791848
 30
0.0
 10
34.353102
 20
17.111755
 30
0.0
 10
36.379097
 20
26.129902
 30
0.0
 10
36.947364
 20
18.964799
 30
0.0
 10
36.799120
 20
18.791848
 30
0.0
  0
LWPOLYLINE
  5
114
100
AcDbEntity
  8
Layer_1
 62
5
100
AcDbPolyline
 90
5
 70
0
 10
26.347952
 20
11.824403
 30
0.0
 10
23.679569
 20
13.109180
 30
0.0
 10
32.500058
 20
15.851685
 30
0.0
 10
26.570317
 20
11.799695
 30
0.0
 10
26.347952
 20
11.824403
 30
0.0
  0
LWPOLYLINE
  5
115
100
AcDbEntity
  8
Layer_1
 62
5
100
AcDbPolyline
 90
4
 70
0
 10
34.303688
 20
22.374400
 30
0.0
 10
32.771838
 20
29.020651
 30
0.0
 10
35.464928
 20
24.375687
 30
0.0
 10
34.303688
 20
22.374400
 30
0.0
  0
LWPOLYLINE
  5
116
100
AcDbEntity
  8
Layer_1
 62
5
100
AcDbPolyline
 90
4
 70
0
 10
32.401229
 20
26.080488
 30
0.0
 10
29.337530
 20
29.910112
 30
0.0
 10
32.524765
 20
27.735874
 30
0.0
 10
32.401229
 20
26.080488
 30
0.0
  0
LWPOLYLINE
  5
117
100
AcDbEntity
  8
Layer_1
 62
5
100
AcDbPolyline
 90
4
 70
0
 10
30.375234
 20
22.053205
 30
0.0
 10
29.609309
 20
21.509646
 30
0.0
 10
30.202283
 20
24.227444
 30
0.0
 10
30.375234
 20
22.053205
 30
0.0
  0
LWPOLYLINE
  5
118
100
AcDbEntity
  8
Layer_1
 62
5
100
AcDbPolyline
 90
4
 70
0
 10
20.689991
 20
26.648755
 30
0.0
 10
21.480623
 20
27.192314
 30
0.0
 10
20.862942
 20
24.474516
 30
0.0
 10
20.689991
 20
26.648755
 30
0.0
  0
LWPOLYLINE
  5
119
100
AcDbEntity
  8
Layer_1
 62
5
100
AcDbPolyline
 90
4
 70
0
 10
26.916219
 20
26.327560
 30
0.0
 10
27.089170
 20
26.302853
 30
0.0
 10
27.113877
 20
26.228731
 30
0.0
 10
26.916219
 20
26.327560
 30
0.0
  0
LWPOLYLINE
  5
11a
100
AcDbEntity
  8
Layer_1
 62
5
100
AcDbPolyline
 90
4
 70
0
 10
24.173714
 20
22.374400
 30
0.0
 10
24.000763
 20
22.399107
 30
0.0
 10
23.976056
 20
22.473229
 30
0.0
 10
24.173714
 20
22.374400
 30
0.0
  0
LWPOLYLINE
  5
11b
100
AcDbEntity
  8
Layer_1
 62
5
100
AcDbPolyline
 90
4
 70
0
 10
26.397366
 20
22.053205
 30
0.0
 10
26.570317
 20
22.176742
 30
0.0
 10
26.471488
 20
22.028498
 30
0.0
 10
26.397366
 20
22.053205
 30
0.0
  0
LWPOLYLINE
  5
11c
100
AcDbEntity
  8
Layer_1
 62
5
100
AcDbPolyline
 90
4
 70
0
 10
27.953923
 20
23.930957
 30
0.0
 10
27.953923
 20
24.153322
 30
0.0
 10
28.003338
 20
24.005078
 30
0.0
 10
27.953923
 20
23.930957
 30
0.0
  0
LWPOLYLINE
  5
11d
100
AcDbEntity
  8
Layer_1
 62
5
100
AcDbPolyline
 90
4
 70
0
 10
26.150294
 20
26.945242
 30
0.0
 10
26.570317
 20
26.994656
 30
0.0
 10
26.669146
 20
26.871120
 30
0.0
 10
26.150294
 20
26.945242
 30
0.0
  0
LWPOLYLINE
  5
11e
100
AcDbEntity
  8
Layer_1
 62
5
100
AcDbPolyline
 90
4
 70
0
 10
24.692566
 20
26.648755
 30
0.0
 10
24.494908
 20
26.525218
 30
0.0
 10
24.618444
 20
26.673462
 30
0.0
 10
24.692566
 20
26.648755
 30
0.0
  0
LWPOLYLINE
  5
11f
100
AcDbEntity
  8
Layer_1
 62
5
100
AcDbPolyline
 90
4
 70
0
 10
23.111302
 20
24.771003
 30
0.0
 10
23.136009
 20
24.548638
 30
0.0
 10
23.086595
 20
24.696882
 30
0.0
 10
23.111302
 20
24.771003
 30
0.0
  0
LWPOLYLINE
  5
120
100
AcDbEntity
  8
Layer_1
 62
5
100
AcDbPolyline
 90
4
 70
0
 10
24.939639
 20
21.756718
 30
0.0
 10
24.519615
 20
21.707304
 30
0.0
 10
24.396079
 20
21.830840
 30
0.0
 10
24.939639
 20
21.756718
 30
0.0
  0
LWPOLYLINE
  5
121
100
AcDbEntity
  8
Layer_1
 62
5
100
AcDbPolyline
 90
4
 70
0
 10
27.138584
 20
22.102620
 30
0.0
 10
27.484486
 20
22.547351
 30
0.0
 10
27.336242
 20
22.152034
 30
0.0
 10
27.138584
 20
22.102620
 30
0.0
  0
LWPOLYLINE
  5
122
100
AcDbEntity
  8
Layer_1
 62
5
100
AcDbPolyline
 90
4
 70
0
 10
28.275118
 20
24.622760
 30
0.0
 10
28.077460
 20
25.116905
 30
0.0
 10
28.349239
 20
24.795711
 30
0.0
 10
28.275118
 20
24.622760
 30
0.0
  0
LWPOLYLINE
  5
123
100
AcDbEntity
  8
Layer_1
 62
5
100
AcDbPolyline
 90
4
 70
0
 10
25.137297
 20
27.266436
 30
0.0
 10
25.754978
 20
27.587630
 30
0.0
 10
26.002050
 20
27.414679
 30
0.0
 10
25.137297
 20
27.266436
 30
0.0
  0
LWPOLYLINE
  5
124
100
AcDbEntity
  8
Layer_1
 62
5
100
AcDbPolyline
 90
4
 70
0
 10
23.926641
 20
26.599340
 30
0.0
 10
23.605447
 20
26.179317
 30
0.0
 10
23.753690
 20
26.574633
 30
0.0
 10
23.926641
 20
26.599340
 30
0.0
  0
LWPOLYLINE
  5
125
100
AcDbEntity
  8
Layer_1
 62
5
100
AcDbPolyline
 90
4
 70
0
 10
22.790107
 20
24.079200
 30
0.0
 10
23.012473
 20
23.585055
 30
0.0
 10
22.740693
 20
23.906249
 30
0.0
 10
22.790107
 20
24.079200
 30
0.0
  0
LWPOLYLINE
  5
126
100
AcDbEntity
  8
Layer_1
 62
5
100
AcDbPolyline
 90
4
 70
0
 10
25.952636
 20
21.435524
 30
0.0
 10
25.310247
 20
21.114330
 30
0.0
 10
25.063175
 20
21.287281
 30
0.0
 10
25.952636
 20
21.435524
 30
0.0
  0
LWPOLYLINE
  5
127
100
AcDbEntity
  8
Layer_1
 62
5
100
AcDbPolyline
 90
4
 70
0
 10
27.953923
 20
22.423814
 30
0.0
 10
28.275118
 20
23.239154
 30
0.0
 10
28.225703
 20
22.547351
 30
0.0
 10
27.953923
 20
22.423814
 30
0.0
  0
LWPOLYLINE
  5
128
100
AcDbEntity
  8
Layer_1
 62
5
100
AcDbPolyline
 90
4
 70
0
 10
28.423361
 20
25.462806
 30
0.0
 10
27.879802
 20
26.154610
 30
0.0
 10
28.448069
 20
25.784001
 30
0.0
 10
28.423361
 20
25.462806
 30
0.0
  0
LWPOLYLINE
  5
129
100
AcDbEntity
  8
Layer_1
 62
5
100
AcDbPolyline
 90
4
 70
0
 10
23.976056
 20
27.241729
 30
0.0
 10
24.692566
 20
27.933532
 30
0.0
 10
25.112589
 20
27.809995
 30
0.0
 10
23.976056
 20
27.241729
 30
0.0
  0
LWPOLYLINE
  5
12a
100
AcDbEntity
  8
Layer_1
 62
5
100
AcDbPolyline
 90
4
 70
0
 10
23.136009
 20
26.278146
 30
0.0
 10
22.814815
 20
25.462806
 30
0.0
 10
22.864229
 20
26.154610
 30
0.0
 10
23.136009
 20
26.278146
 30
0.0
  0
LWPOLYLINE
  5
12b
100
AcDbEntity
  8
Layer_1
 62
5
100
AcDbPolyline
 90
4
 70
0
 10
22.666571
 20
23.239154
 30
0.0
 10
23.210131
 20
22.547351
 30
0.0
 10
22.641864
 20
22.942667
 30
0.0
 10
22.666571
 20
23.239154
 30
0.0
  0
LWPOLYLINE
  5
12c
100
AcDbEntity
  8
Layer_1
 62
5
100
AcDbPolyline
 90
4
 70
0
 10
27.113877
 20
21.460231
 30
0.0
 10
26.372659
 20
20.768428
 30
0.0
 10
25.952636
 20
20.891965
 30
0.0
 10
27.113877
 20
21.460231
 30
0.0
  0
LWPOLYLINE
  5
12d
100
AcDbEntity
  8
Layer_1
 62
5
100
AcDbPolyline
 90
4
 70
0
 10
28.744556
 20
22.992081
 30
0.0
 10
28.818677
 20
24.276858
 30
0.0
 10
29.065750
 20
23.288568
 30
0.0
 10
28.744556
 20
22.992081
 30
0.0
  0
LWPOLYLINE
  5
12e
100
AcDbEntity
  8
Layer_1
 62
5
100
AcDbPolyline
 90
4
 70
0
 10
28.324532
 20
26.451097
 30
0.0
 10
27.262120
 20
27.167607
 30
0.0
 10
28.225703
 20
26.871120
 30
0.0
 10
28.324532
 20
26.451097
 30
0.0
  0
LWPOLYLINE
  5
12f
100
AcDbEntity
  8
Layer_1
 62
5
100
AcDbPolyline
 90
4
 70
0
 10
22.765400
 20
26.772291
 30
0.0
 10
23.432496
 20
27.958239
 30
0.0
 10
24.025470
 20
27.958239
 30
0.0
 10
22.765400
 20
26.772291
 30
0.0
  0
LWPOLYLINE
  5
130
100
AcDbEntity
  8
Layer_1
 62
5
100
AcDbPolyline
 90
4
 70
0
 10
22.345377
 20
25.709879
 30
0.0
 10
22.246548
 20
24.425102
 30
0.0
 10
22.024183
 20
25.413392
 30
0.0
 10
22.345377
 20
25.709879
 30
0.0
  0
LWPOLYLINE
  5
131
100
AcDbEntity
  8
Layer_1
 62
5
100
AcDbPolyline
 90
4
 70
0
 10
22.765400
 20
22.250863
 30
0.0
 10
23.827812
 20
21.534353
 30
0.0
 10
22.864229
 20
21.830840
 30
0.0
 10
22.765400
 20
22.250863
 30
0.0
  0
LWPOLYLINE
  5
132
100
AcDbEntity
  8
Layer_1
 62
5
100
AcDbPolyline
 90
4
 70
0
 10
28.324532
 20
21.929669
 30
0.0
 10
27.657436
 20
20.743721
 30
0.0
 10
27.064462
 20
20.743721
 30
0.0
 10
28.324532
 20
21.929669
 30
0.0
  0
LWPOLYLINE
  5
133
100
AcDbEntity
  8
Layer_1
 62
5
100
AcDbPolyline
 90
4
 70
0
 10
29.436359
 20
23.856835
 30
0.0
 10
29.041043
 20
25.536928
 30
0.0
 10
29.708138
 20
24.375687
 30
0.0
 10
29.436359
 20
23.856835
 30
0.0
  0
LWPOLYLINE
  5
134
100
AcDbEntity
  8
Layer_1
 62
5
100
AcDbPolyline
 90
4
 70
0
 10
27.904509
 20
27.464094
 30
0.0
 10
26.249123
 20
27.958239
 30
0.0
 10
27.608022
 20
27.982946
 30
0.0
 10
27.904509
 20
27.464094
 30
0.0
  0
LWPOLYLINE
  5
135
100
AcDbEntity
  8
Layer_1
 62
5
100
AcDbPolyline
 90
4
 70
0
 10
21.678281
 20
25.858122
 30
0.0
 10
22.048890
 20
27.562923
 30
0.0
 10
22.765400
 20
27.785288
 30
0.0
 10
21.678281
 20
25.858122
 30
0.0
  0
LWPOLYLINE
  5
136
100
AcDbEntity
  8
Layer_1
 62
5
100
AcDbPolyline
 90
4
 70
0
 10
21.653574
 20
24.845125
 30
0.0
 10
22.048890
 20
23.165032
 30
0.0
 10
21.357087
 20
24.326273
 30
0.0
 10
21.653574
 20
24.845125
 30
0.0
  0
LWPOLYLINE
  5
137
100
AcDbEntity
  8
Layer_1
 62
5
100
AcDbPolyline
 90
4
 70
0
 10
23.185424
 20
21.237866
 30
0.0
 10
24.816102
 20
20.743721
 30
0.0
 10
23.481911
 20
20.719014
 30
0.0
 10
23.185424
 20
21.237866
 30
0.0
  0
LWPOLYLINE
  5
138
100
AcDbEntity
  8
Layer_1
 62
5
100
AcDbPolyline
 90
4
 70
0
 10
29.411651
 20
22.843838
 30
0.0
 10
29.016335
 20
21.139037
 30
0.0
 10
28.299825
 20
20.916672
 30
0.0
 10
29.411651
 20
22.843838
 30
0.0
  0
LWPOLYLINE
  5
139
100
AcDbEntity
  8
Layer_1
 62
5
100
AcDbPolyline
 90
4
 70
0
 10
29.905796
 20
25.042783
 30
0.0
 10
28.769263
 20
26.945242
 30
0.0
 10
30.054040
 20
25.759293
 30
0.0
 10
29.905796
 20
25.042783
 30
0.0
  0
LWPOLYLINE
  5
13a
100
AcDbEntity
  8
Layer_1
 62
5
100
AcDbPolyline
 90
4
 70
0
 10
27.138584
 20
28.452384
 30
0.0
 10
24.914931
 20
28.452384
 30
0.0
 10
26.570317
 20
28.971236
 30
0.0
 10
27.138584
 20
28.452384
 30
0.0
  0
LWPOLYLINE
  5
13b
100
AcDbEntity
  8
Layer_1
 62
5
100
AcDbPolyline
 90
4
 70
0
 10
21.184136
 20
23.683884
 30
0.0
 10
22.295962
 20
21.756718
 30
0.0
 10
21.035893
 20
22.942667
 30
0.0
 10
21.184136
 20
23.683884
 30
0.0
  0
LWPOLYLINE
  5
13c
100
AcDbEntity
  8
Layer_1
 62
5
100
AcDbPolyline
 90
4
 70
0
 10
23.951348
 20
20.249576
 30
0.0
 10
26.175001
 20
20.249576
 30
0.0
 10
24.519615
 20
19.730724
 30
0.0
 10
23.951348
 20
20.249576
 30
0.0
  0
LWPOLYLINE
  5
13d
100
AcDbEntity
  8
Layer_1
 62
5
100
AcDbPolyline
 90
4
 70
0
 10
27.978631
 20
28.328848
 30
0.0
 10
29.955211
 20
27.389972
 30
0.0
 10
30.029333
 20
26.451097
 30
0.0
 10
27.978631
 20
28.328848
 30
0.0
  0
LWPOLYLINE
  5
13e
100
AcDbEntity
  8
Layer_1
 62
5
100
AcDbPolyline
 90
4
 70
0
 10
25.977343
 20
29.292431
 30
0.0
 10
23.308960
 20
28.452384
 30
0.0
 10
25.112589
 20
29.687747
 30
0.0
 10
25.977343
 20
29.292431
 30
0.0
  0
LWPOLYLINE
  5
13f
100
AcDbEntity
  8
Layer_1
 62
5
100
AcDbPolyline
 90
4
 70
0
 10
21.035893
 20
22.250863
 30
0.0
 10
23.086595
 20
20.373112
 30
0.0
 10
21.134722
 20
21.311988
 30
0.0
 10
21.035893
 20
22.250863
 30
0.0
  0
LWPOLYLINE
  5
140
100
AcDbEntity
  8
Layer_1
 62
5
100
AcDbPolyline
 90
4
 70
0
 10
25.112589
 20
19.409529
 30
0.0
 10
27.756265
 20
20.249576
 30
0.0
 10
25.977343
 20
19.014213
 30
0.0
 10
25.112589
 20
19.409529
 30
0.0
  0
LWPOLYLINE
  5
141
100
AcDbEntity
  8
Layer_1
 62
5
100
AcDbPolyline
 90
4
 70
0
 10
26.669146
 20
29.490089
 30
0.0
 10
29.312822
 20
29.119480
 30
0.0
 10
29.732846
 20
28.032361
 30
0.0
 10
26.669146
 20
29.490089
 30
0.0
  0
LWPOLYLINE
  5
142
100
AcDbEntity
  8
Layer_1
 62
5
100
AcDbPolyline
 90
4
 70
0
 10
21.628867
 20
27.884117
 30
0.0
 10
23.308960
 20
29.984234
 30
0.0
 10
24.445493
 20
29.835990
 30
0.0
 10
21.628867
 20
27.884117
 30
0.0
  0
LWPOLYLINE
  5
143
100
AcDbEntity
  8
Layer_1
 62
5
100
AcDbPolyline
 90
4
 70
0
 10
20.245260
 20
26.129902
 30
0.0
 10
20.517040
 20
22.745009
 30
0.0
 10
19.528750
 20
25.240441
 30
0.0
 10
20.245260
 20
26.129902
 30
0.0
  0
LWPOLYLINE
  5
144
100
AcDbEntity
  8
Layer_1
 62
5
100
AcDbPolyline
 90
4
 70
0
 10
21.357087
 20
20.669599
 30
0.0
 10
24.420786
 20
19.211871
 30
0.0
 10
21.777110
 20
19.582480
 30
0.0
 10
21.357087
 20
20.669599
 30
0.0
  0
LWPOLYLINE
  5
145
100
AcDbEntity
  8
Layer_1
 62
5
100
AcDbPolyline
 90
4
 70
0
 10
29.436359
 20
20.817843
 30
0.0
 10
27.780973
 20
18.717726
 30
0.0
 10
26.644439
 20
18.865970
 30
0.0
 10
29.436359
 20
20.817843
 30
0.0
  0
LWPOLYLINE
  5
146
100
AcDbEntity
  8
Layer_1
 62
5
100
AcDbPolyline
 90
4
 70
0
 10
30.819965
 20
22.572058
 30
0.0
 10
30.572892
 20
25.956951
 30
0.0
 10
31.561182
 20
23.461519
 30
0.0
 10
30.819965
 20
22.572058
 30
0.0
  0
LWPOLYLINE
  5
147
100
AcDbEntity
  8
Layer_1
 62
5
100
AcDbPolyline
 90
4
 70
0
 10
24.840810
 20
30.256014
 30
0.0
 10
28.028045
 20
30.750159
 30
0.0
 10
28.892799
 20
29.663039
 30
0.0
 10
24.840810
 20
30.256014
 30
0.0
  0
LWPOLYLINE
  5
148
100
AcDbEntity
  8
Layer_1
 62
5
100
AcDbPolyline
 90
4
 70
0
 10
20.072310
 20
26.698169
 30
0.0
 10
21.233551
 20
29.712454
 30
0.0
 10
22.617157
 20
29.910112
 30
0.0
 10
20.072310
 20
26.698169
 30
0.0
  0
LWPOLYLINE
  5
149
100
AcDbEntity
  8
Layer_1
 62
5
100
AcDbPolyline
 90
4
 70
0
 10
19.256970
 20
24.598053
 30
0.0
 10
20.788820
 20
20.793136
 30
0.0
 10
18.762825
 20
23.313275
 30
0.0
 10
19.256970
 20
24.598053
 30
0.0
  0
LWPOLYLINE
  5
14a
100
AcDbEntity
  8
Layer_1
 62
5
100
AcDbPolyline
 90
4
 70
0
 10
26.249123
 20
18.445946
 30
0.0
 10
23.061887
 20
17.951801
 30
0.0
 10
22.172426
 20
19.038921
 30
0.0
 10
26.249123
 20
18.445946
 30
0.0
  0
LWPOLYLINE
  5
14b
100
AcDbEntity
  8
Layer_1
 62
5
100
AcDbPolyline
 90
4
 70
0
 10
31.017623
 20
22.003791
 30
0.0
 10
29.856382
 20
18.989506
 30
0.0
 10
28.472776
 20
18.791848
 30
0.0
 10
31.017623
 20
22.003791
 30
0.0
  0
LWPOLYLINE
  5
14c
100
AcDbEntity
  8
Layer_1
 62
5
100
AcDbPolyline
 90
4
 70
0
 10
31.832962
 20
24.103907
 30
0.0
 10
30.301113
 20
27.933532
 30
0.0
 10
32.327107
 20
25.388685
 30
0.0
 10
31.832962
 20
24.103907
 30
0.0
  0
LWPOLYLINE
  5
14d
100
AcDbEntity
  8
Layer_1
 62
5
100
AcDbPolyline
 90
4
 70
0
 10
22.617157
 20
30.404257
 30
0.0
 10
26.100879
 20
32.109058
 30
0.0
 10
27.484486
 20
31.170182
 30
0.0
 10
22.617157
 20
30.404257
 30
0.0
  0
LWPOLYLINE
  5
14e
100
AcDbEntity
  8
Layer_1
 62
5
100
AcDbPolyline
 90
4
 70
0
 10
18.836947
 20
24.845125
 30
0.0
 10
19.108727
 20
28.699457
 30
0.0
 10
20.615869
 20
29.440674
 30
0.0
 10
18.836947
 20
24.845125
 30
0.0
  0
LWPOLYLINE
  5
14f
100
AcDbEntity
  8
Layer_1
 62
5
100
AcDbPolyline
 90
4
 70
0
 10
18.663996
 20
22.621472
 30
0.0
 10
21.752403
 20
18.791848
 30
0.0
 10
18.565167
 20
20.966086
 30
0.0
 10
18.663996
 20
22.621472
 30
0.0
  0
LWPOLYLINE
  5
150
100
AcDbEntity
  8
Layer_1
 62
5
100
AcDbPolyline
 90
4
 70
0
 10
28.472776
 20
18.297703
 30
0.0
 10
24.989053
 20
16.592902
 30
0.0
 10
23.605447
 20
17.531778
 30
0.0
 10
28.472776
 20
18.297703
 30
0.0
  0
LWPOLYLINE
  5
151
100
AcDbEntity
  8
Layer_1
 62
5
100
AcDbPolyline
 90
4
 70
0
 10
32.252986
 20
23.856835
 30
0.0
 10
31.981206
 20
20.002503
 30
0.0
 10
30.474063
 20
19.261286
 30
0.0
 10
32.252986
 20
23.856835
 30
0.0
  0
LWPOLYLINE
  5
152
100
AcDbEntity
  8
Layer_1
 62
5
100
AcDbPolyline
 90
4
 70
0
 10
27.583315
 20
31.689034
 30
0.0
 10
31.956498
 20
30.354843
 30
0.0
 10
32.401229
 20
28.427677
 30
0.0
 10
27.583315
 20
31.689034
 30
0.0
  0
LWPOLYLINE
  5
153
100
AcDbEntity
  8
Layer_1
 62
5
100
AcDbPolyline
 90
4
 70
0
 10
20.220553
 20
29.786576
 30
0.0
 10
23.556032
 20
32.899690
 30
0.0
 10
25.458491
 20
32.331423
 30
0.0
 10
20.220553
 20
29.786576
 30
0.0
  0
LWPOLYLINE
  5
154
100
AcDbEntity
  8
Layer_1
 62
5
100
AcDbPolyline
 90
4
 70
0
 10
18.169851
 20
22.473229
 30
0.0
 10
17.132146
 20
26.920534
 30
0.0
 10
18.589874
 20
28.254726
 30
0.0
 10
18.169851
 20
22.473229
 30
0.0
  0
LWPOLYLINE
  5
155
100
AcDbEntity
  8
Layer_1
 62
5
100
AcDbPolyline
 90
4
 70
0
 10
23.481911
 20
17.037633
 30
0.0
 10
19.133434
 20
18.371825
 30
0.0
 10
18.663996
 20
20.274283
 30
0.0
 10
23.481911
 20
17.037633
 30
0.0
  0
LWPOLYLINE
  5
156
100
AcDbEntity
  8
Layer_1
 62
5
100
AcDbPolyline
 90
4
 70
0
 10
30.869379
 20
18.915384
 30
0.0
 10
27.533900
 20
15.802270
 30
0.0
 10
25.631442
 20
16.370537
 30
0.0
 10
30.869379
 20
18.915384
 30
0.0
  0
LWPOLYLINE
  5
157
100
AcDbEntity
  8
Layer_1
 62
5
100
AcDbPolyline
 90
4
 70
0
 10
32.920081
 20
26.228731
 30
0.0
 10
33.933079
 20
21.781426
 30
0.0
 10
32.500058
 20
20.447234
 30
0.0
 10
32.920081
 20
26.228731
 30
0.0
  0
LWPOLYLINE
  5
158
100
AcDbEntity
  8
Layer_1
 62
5
100
AcDbPolyline
 90
4
 70
0
 10
25.112589
 20
32.949104
 30
0.0
 10
30.474063
 20
32.949104
 30
0.0
 10
31.635304
 20
30.947817
 30
0.0
 10
25.112589
 20
32.949104
 30
0.0
  0
LWPOLYLINE
  5
159
100
AcDbEntity
  8
Layer_1
 62
5
100
AcDbPolyline
 90
4
 70
0
 10
17.898071
 20
28.279433
 30
0.0
 10
20.566455
 20
32.924397
 30
0.0
 10
22.888937
 20
32.924397
 30
0.0
 10
17.898071
 20
28.279433
 30
0.0
  0
LWPOLYLINE
  5
15a
100
AcDbEntity
  8
Layer_1
 62
5
100
AcDbPolyline
 90
4
 70
0
 10
16.786245
 20
26.327560
 30
0.0
 10
18.318095
 20
19.681309
 30
0.0
 10
15.625004
 20
24.326273
 30
0.0
 10
16.786245
 20
26.327560
 30
0.0
  0
LWPOLYLINE
  5
15b
100
AcDbEntity
  8
Layer_1
 62
5
100
AcDbPolyline
 90
42
 70
0
 10
24.890224
 20
16.098757
 30
0.0
 10
24.890224
 20
16.098757
 30
0.0
 10
24.914931
 20
16.074050
 30
0.0
 10
25.013760
 20
16.049343
 30
0.0
 10
25.137297
 20
16.024636
 30
0.0
 10
25.260833
 20
15.975221
 30
0.0
 10
25.433784
 20
15.925807
 30
0.0
 10
25.582027
 20
15.876392
 30
0.0
 10
25.730271
 20
15.826978
 30
0.0
 10
25.853807
 20
15.802270
 30
0.0
 10
25.927929
 20
15.777563
 30
0.0
 10
25.977343
 20
15.752856
 30
0.0
 10
25.829100
 20
15.752856
 30
0.0
 10
25.409076
 20
15.752856
 30
0.0
 10
24.816102
 20
15.752856
 30
0.0
 10
24.074885
 20
15.752856
 30
0.0
 10
23.284253
 20
15.752856
 30
0.0
 10
22.493620
 20
15.752856
 30
0.0
 10
21.752403
 20
15.752856
 30
0.0
 10
21.159429
 20
15.752856
 30
0.0
 10
20.764113
 20
15.752856
 30
0.0
 10
20.591162
 20
15.752856
 30
0.0
 10
20.566455
 20
15.802270
 30
0.0
 10
20.492333
 20
15.950514
 30
0.0
 10
20.344089
 20
16.172879
 30
0.0
 10
20.195846
 20
16.444659
 30
0.0
 10
20.022895
 20
16.741146
 30
0.0
 10
19.849944
 20
17.037633
 30
0.0
 10
19.701701
 20
17.309413
 30
0.0
 10
19.553457
 20
17.556485
 30
0.0
 10
19.479336
 20
17.704729
 30
0.0
 10
19.429921
 20
17.754143
 30
0.0
 10
19.602872
 20
17.704729
 30
0.0
 10
19.998188
 20
17.581193
 30
0.0
 10
20.615869
 20
17.383535
 30
0.0
 10
21.357087
 20
17.161169
 30
0.0
 10
22.172426
 20
16.914097
 30
0.0
 10
22.963058
 20
16.667024
 30
0.0
 10
23.704276
 20
16.444659
 30
0.0
 10
24.321957
 20
16.271708
 30
0.0
 10
24.741981
 20
16.148172
 30
0.0
 10
24.890224
 20
16.098757
 30
0.0
  0
LWPOLYLINE
  5
15c
100
AcDbEntity
  8
Layer_1
 62
5
100
AcDbPolyline
 90
4
 70
0
 10
33.191861
 20
20.422527
 30
0.0
 10
30.523478
 20
15.777563
 30
0.0
 10
28.200996
 20
15.777563
 30
0.0
 10
33.191861
 20
20.422527
 30
0.0
  0
LWPOLYLINE
  5
15d
100
AcDbEntity
  8
Layer_1
 62
5
100
AcDbPolyline
 90
4
 70
0
 10
35.143734
 20
22.843838
 30
0.0
 10
33.760128
 20
16.741146
 30
0.0
 10
31.190574
 20
15.950514
 30
0.0
 10
35.143734
 20
22.843838
 30
0.0
  0
LWPOLYLINE
  5
15e
100
AcDbEntity
  8
Layer_1
 62
5
100
AcDbPolyline
 90
4
 70
0
 10
35.637879
 20
25.042783
 30
0.0
 10
31.635304
 20
31.911400
 30
0.0
 10
36.230853
 20
27.686459
 30
0.0
 10
35.637879
 20
25.042783
 30
0.0
  0
LWPOLYLINE
  5
15f
100
AcDbEntity
  8
Layer_1
 62
5
100
AcDbPolyline
 90
4
 70
0
 10
22.024183
 20
33.418542
 30
0.0
 10
28.003338
 20
35.271586
 30
0.0
 10
30.004625
 20
33.443249
 30
0.0
 10
22.024183
 20
33.418542
 30
0.0
  0
LWPOLYLINE
  5
160
100
AcDbEntity
  8
Layer_1
 62
5
100
AcDbPolyline
 90
4
 70
0
 10
15.921491
 20
25.858122
 30
0.0
 10
17.305097
 20
31.960814
 30
0.0
 10
19.899359
 20
32.751446
 30
0.0
 10
15.921491
 20
25.858122
 30
0.0
  0
LWPOLYLINE
  5
161
100
AcDbEntity
  8
Layer_1
 62
5
100
AcDbPolyline
 90
4
 70
0
 10
15.452053
 20
23.659177
 30
0.0
 10
19.454628
 20
16.790560
 30
0.0
 10
14.834372
 20
21.015501
 30
0.0
 10
15.452053
 20
23.659177
 30
0.0
  0
LWPOLYLINE
  5
162
100
AcDbEntity
  8
Layer_1
 62
5
100
AcDbPolyline
 90
42
 70
0
 10
27.583315
 20
15.283418
 30
0.0
 10
27.583315
 20
15.283418
 30
0.0
 10
27.632729
 20
15.283418
 30
0.0
 10
27.731558
 20
15.283418
 30
0.0
 10
27.904509
 20
15.283418
 30
0.0
 10
28.102167
 20
15.283418
 30
0.0
 10
28.324532
 20
15.283418
 30
0.0
 10
28.522190
 20
15.283418
 30
0.0
 10
28.744556
 20
15.283418
 30
0.0
 10
28.892799
 20
15.283418
 30
0.0
 10
29.016335
 20
15.283418
 30
0.0
 10
29.041043
 20
15.283418
 30
0.0
 10
28.892799
 20
15.234004
 30
0.0
 10
28.423361
 20
15.085760
 30
0.0
 10
27.756265
 20
14.888102
 30
0.0
 10
26.940926
 20
14.641029
 30
0.0
 10
26.051465
 20
14.344542
 30
0.0
 10
25.186711
 20
14.072763
 30
0.0
 10
24.371372
 20
13.825690
 30
0.0
 10
23.704276
 20
13.628032
 30
0.0
 10
23.234838
 20
13.479789
 30
0.0
 10
23.061887
 20
13.430374
 30
0.0
 10
23.012473
 20
13.479789
 30
0.0
 10
22.864229
 20
13.628032
 30
0.0
 10
22.641864
 20
13.825690
 30
0.0
 10
22.370084
 20
14.072763
 30
0.0
 10
22.073597
 20
14.344542
 30
0.0
 10
21.777110
 20
14.616322
 30
0.0
 10
21.505330
 20
14.863395
 30
0.0
 10
21.282965
 20
15.061053
 30
0.0
 10
21.134722
 20
15.209296
 30
0.0
 10
21.085307
 20
15.258711
 30
0.0
 10
21.258258
 20
15.258711
 30
0.0
 10
21.752403
 20
15.258711
 30
0.0
 10
22.493620
 20
15.258711
 30
0.0
 10
23.383082
 20
15.258711
 30
0.0
 10
24.346664
 20
15.258711
 30
0.0
 10
25.285540
 20
15.283418
 30
0.0
 10
26.175001
 20
15.283418
 30
0.0
 10
26.916219
 20
15.283418
 30
0.0
 10
27.410364
 20
15.283418
 30
0.0
 10
27.583315
 20
15.283418
 30
0.0
  0
LWPOLYLINE
  5
163
100
AcDbEntity
  8
Layer_1
 62
5
100
AcDbPolyline
 90
5
 70
0
 10
21.653574
 20
14.072763
 30
0.0
 10
15.180273
 20
17.185877
 30
0.0
 10
15.081444
 20
17.383535
 30
0.0
 10
14.859079
 20
20.348405
 30
0.0
 10
21.653574
 20
14.072763
 30
0.0
  0
LWPOLYLINE
  5
164
100
AcDbEntity
  8
Layer_1
 62
5
100
AcDbPolyline
 90
5
 70
0
 10
13.697838
 20
29.168894
 30
0.0
 10
14.488470
 20
18.940092
 30
0.0
 10
11.523600
 20
26.426389
 30
0.0
 10
11.548307
 20
26.451097
 30
0.0
 10
13.697838
 20
29.168894
 30
0.0
  0
LWPOLYLINE
  5
165
100
AcDbEntity
  8
Layer_1
 62
5
100
AcDbPolyline
 90
5
 70
0
 10
12.338939
 20
28.526506
 30
0.0
 10
15.550882
 20
36.754021
 30
0.0
 10
15.748540
 20
36.828143
 30
0.0
 10
19.380507
 20
37.396410
 30
0.0
 10
12.338939
 20
28.526506
 30
0.0
  0
LWPOLYLINE
  5
166
100
AcDbEntity
  8
Layer_1
 62
5
100
AcDbPolyline
 90
4
 70
0
 10
10.016458
 20
24.647467
 30
0.0
 10
10.757675
 20
34.431539
 30
0.0
 10
14.562592
 20
36.259876
 30
0.0
 10
10.016458
 20
24.647467
 30
0.0
  0
LWPOLYLINE
  5
167
100
AcDbEntity
  8
Layer_1
 62
5
100
AcDbPolyline
 90
4
 70
0
 10
9.744678
 20
20.817843
 30
0.0
 10
17.527463
 20
11.058478
 30
0.0
 10
9.423483
 20
16.568195
 30
0.0
 10
9.744678
 20
20.817843
 30
0.0
  0
LWPOLYLINE
  5
168
100
AcDbEntity
  8
Layer_1
 62
5
100
AcDbPolyline
 90
4
 70
0
 10
33.043618
 20
10.761991
 30
0.0
 10
24.223128
 20
6.512343
 30
0.0
 10
20.714698
 20
8.884239
 30
0.0
 10
33.043618
 20
10.761991
 30
0.0
  0
LWPOLYLINE
  5
169
100
AcDbEntity
  8
Layer_1
 62
5
100
AcDbPolyline
 90
4
 70
0
 10
41.048768
 20
24.054493
 30
0.0
 10
40.332257
 20
14.270421
 30
0.0
 10
36.502633
 20
12.442084
 30
0.0
 10
41.048768
 20
24.054493
 30
0.0
  0
LWPOLYLINE
  5
16a
100
AcDbEntity
  8
Layer_1
 62
5
100
AcDbPolyline
 90
4
 70
0
 10
41.345255
 20
27.908824
 30
0.0
 10
33.562470
 20
37.643482
 30
0.0
 10
41.666449
 20
32.133765
 30
0.0
 10
41.345255
 20
27.908824
 30
0.0
  0
LWPOLYLINE
  5
16b
100
AcDbEntity
  8
Layer_1
 62
5
100
AcDbPolyline
 90
4
 70
0
 10
18.021608
 20
37.939969
 30
0.0
 10
26.866804
 20
42.189617
 30
0.0
 10
30.375234
 20
39.817721
 30
0.0
 10
18.021608
 20
37.939969
 30
0.0
  0
LWPOLYLINE
  5
16c
100
AcDbEntity
  8
Layer_1
 62
5
100
AcDbPolyline
 90
5
 70
0
 10
29.732846
 20
41.374278
 30
0.0
 10
40.307550
 20
38.112920
 30
0.0
 10
40.381672
 20
37.989384
 30
0.0
 10
41.419377
 20
33.418542
 30
0.0
 10
29.732846
 20
41.374278
 30
0.0
  0
LWPOLYLINE
  5
16d
100
AcDbEntity
  8
Layer_1
 62
5
100
AcDbPolyline
 90
4
 70
0
 10
39.615747
 20
39.323576
 30
0.0
 10
24.321957
 20
44.017954
 30
0.0
 10
36.897949
 20
44.017954
 30
0.0
 10
39.615747
 20
39.323576
 30
0.0
  0
LWPOLYLINE
  5
16e
100
AcDbEntity
  8
Layer_1
 62
5
100
AcDbPolyline
 90
4
 70
0
 10
14.191983
 20
44.017954
 30
0.0
 10
19.627579
 20
44.017954
 30
0.0
 10
7.891634
 20
33.146762
 30
0.0
 10
14.191983
 20
44.017954
 30
0.0
  0
LWPOLYLINE
  5
16f
100
AcDbEntity
  8
Layer_1
 62
5
100
AcDbPolyline
 90
4
 70
0
 10
5.544445
 20
29.070065
 30
0.0
 10
9.102289
 20
13.455081
 30
0.0
 10
2.826647
 20
24.350980
 30
0.0
 10
5.544445
 20
29.070065
 30
0.0
  0
LWPOLYLINE
  5
170
100
AcDbEntity
  8
Layer_1
 62
5
100
AcDbPolyline
 90
4
 70
0
 10
11.474185
 20
9.403092
 30
0.0
 10
26.743268
 20
4.684006
 30
0.0
 10
14.191983
 20
4.684006
 30
0.0
 10
11.474185
 20
9.403092
 30
0.0
  0
LWPOLYLINE
  5
171
100
AcDbEntity
  8
Layer_1
 62
5
100
AcDbPolyline
 90
4
 70
0
 10
36.897949
 20
4.684006
 30
0.0
 10
31.462353
 20
4.684006
 30
0.0
 10
43.173591
 20
15.555198
 30
0.0
 10
36.897949
 20
4.684006
 30
0.0
  0
LWPOLYLINE
  5
172
100
AcDbEntity
  8
Layer_1
 62
5
100
AcDbPolyline
 90
4
 70
0
 10
45.545488
 20
19.631895
 30
0.0
 10
41.962936
 20
35.246879
 30
0.0
 10
48.263286
 20
24.350980
 30
0.0
 10
45.545488
 20
19.631895
 30
0.0
  0
ENDSEC
  0
SECTION
  2
OBJECTS
  0
DICTIONARY
  5
C
330
0
100
AcDbDictionary
  3
ACAD_GROUP
350
D
  3
ACAD_MLINESTYLE
350
17
  0
DICTIONARY
  5
D
330
C
100
AcDbDictionary
  0
DICTIONARY
  5
1A
330
C
100
AcDbDictionary
  0
DICTIONARY
  5
17
330
C
100
AcDbDictionary
  3
STANDARD
350
18
  0
DICTIONARY
  5
19
330
C
100
AcDbDictionary
  0
ENDSEC
  0
EOF
