<?xml version="1.0" encoding="UTF-8" standalone="no"?>
<!-- Created with Inkscape (http://www.inkscape.org/) -->

<svg
   xmlns:dc="http://purl.org/dc/elements/1.1/"
   xmlns:cc="http://creativecommons.org/ns#"
   xmlns:rdf="http://www.w3.org/1999/02/22-rdf-syntax-ns#"
   xmlns:svg="http://www.w3.org/2000/svg"
   xmlns="http://www.w3.org/2000/svg"
   xmlns:sodipodi="http://sodipodi.sourceforge.net/DTD/sodipodi-0.dtd"
   xmlns:inkscape="http://www.inkscape.org/namespaces/inkscape"
   width="60in"
   height="48in"
   viewBox="0 0 5399.9999 4320"
   id="svg4475"
   version="1.1"
   inkscape:version="0.91pre4 r13712"
   sodipodi:docname="donut_optical_illusion.svg">
  <defs
     id="defs4477" />
  <sodipodi:namedview
     id="base"
     pagecolor="#ffffff"
     bordercolor="#666666"
     borderopacity="1.0"
     inkscape:pageopacity="0.0"
     inkscape:pageshadow="2"
     inkscape:zoom="0.11313708"
     inkscape:cx="557.07212"
     inkscape:cy="1978.233"
     inkscape:document-units="in"
     inkscape:current-layer="layer1"
     showgrid="false"
     units="ft"
     inkscape:window-width="1920"
     inkscape:window-height="1017"
     inkscape:window-x="-8"
     inkscape:window-y="-8"
     inkscape:window-maximized="1"
     showguides="false" />
  <metadata
     id="metadata4480">
    <rdf:RDF>
      <cc:Work
         rdf:about="">
        <dc:format>image/svg+xml</dc:format>
        <dc:type
           rdf:resource="http://purl.org/dc/dcmitype/StillImage" />
        <dc:title></dc:title>
      </cc:Work>
    </rdf:RDF>
  </metadata>
  <g
     inkscape:label="Layer 1"
     inkscape:groupmode="layer"
     id="layer1"
     transform="translate(0,3267.6378)">
    <path
       style="fill:#000000"
       d="M 1563.682,-3179.4386 380.45299,-1130.0265 1563.68,919.38564 l 2366.459,0 1183.2282,-2049.41214 -51.9629,-90 -1131.2653,-1959.4121 z m 207.843,360.002 51.653,0 -0.772,138.6172 c -4.023,134.2137 43.493,274.3974 130.02,383.582 19.578,24.7017 37.003,44.9121 38.726,44.9121 1.723,0 19.888,-3.5474 40.366,-7.8848 20.475,-4.3374 58.77,-7.9031 85.097,-7.9257 55.007,-0.046 80.146,9.0902 137.377,49.9277 97.409,69.5109 147.131,170.8937 140.125,285.7168 -2.661,43.6306 -12.646,80.0205 -43.586,158.875 -6.086,15.5162 -9.493,39.0536 -9.687,66.918 -0.253,36.354 1.935,47.5439 14.174,72.5585 17.002,34.752 53.052,69.8686 87.271,85.004 15.391,6.808 24.498,9.135 44.301,8.6386 -18.054,11.4485 -35.404,24.118 -51.914,37.9571 -63.596,4.2092 -120.846,-24.7702 -155.084,-81.6172 -24.474,-40.6378 -28.657,-97.0704 -12.061,-162.7012 21.051,-83.245 11.115,-174.5507 -26.72,-245.5371 -22.051,-41.3687 -75.137,-98.2363 -112.858,-120.8965 -44.497,-26.7295 -108.644,-44.4202 -162.928,-44.9336 -39.255,-0.3712 -51.063,1.8893 -89.646,17.166 -53.725,21.2709 -50.793,22.3215 -115.527,-41.4082 -72.081,-70.9633 -110.717,-129.1978 -143.391,-216.1289 -15.386,-40.9374 -23.689,-69.9307 -27.877,-103.9765 z m 294.69,0 245.703,0 -1.145,127.707 c -0.639,71.2205 19.203,158.0375 51.01,230.6328 l 12.235,27.9238 28.697,0 c 36.933,0 105.628,17.5994 134.31,34.4082 24.588,14.4093 64.664,58.4159 94.598,103.8829 30.375,46.1383 41.713,84.6021 44.756,151.8125 4.422,97.7228 -19,162.5824 -89.412,247.5839 -47.648,57.5185 -60.002,88.6132 -56.856,143.1387 4.19,72.627 40.59,125.4019 102.903,149.7969 -21.506,5.1851 -42.602,11.8258 -63.147,19.8613 -10.404,-2.0903 -19.17,-5.4101 -30.619,-10.7363 -40.621,-18.8992 -65.822,-42.544 -83.318,-78.1699 -12.924,-26.3178 -14.831,-36.4027 -14.784,-78.0918 0.07,-51.8856 4.533,-65.027 42.534,-124.9942 10.195,-16.0898 25.096,-48.4032 33.111,-71.8066 13,-37.9552 14.559,-50.02 14.439,-111.6973 -0.126,-65.5332 -1.045,-71.438 -17.584,-112.9883 -20.888,-52.476 -45.894,-87.1067 -91.689,-126.9609 -61.627,-53.6344 -114.716,-72.9926 -193.336,-70.5039 l -47.664,1.5078 -14.234,-19.6308 c -18.745,-25.8519 -54.455,-94.813 -68.1,-131.5157 -18.075,-48.6143 -27.139,-95.2961 -30.73,-158.2383 z m 490.383,0 260.142,0 c -4.539,45.0175 -12.357,126.3802 -13.888,133.6133 -4.804,22.6734 -7.923,66.6189 -7.979,112.3886 l -0.08,75.1543 50.795,25.209 c 70.138,34.8088 103.137,65.9749 124.701,117.7774 9.248,22.2132 21.73,59.8286 27.738,83.5878 33.795,133.6398 -34.724,283.1524 -164.843,359.6973 -71.472,42.0444 -107.397,96.6742 -107.487,163.4531 -0.07,55.3875 14.118,89.7071 51.059,123.4688 3.916,3.5785 8.262,7.2625 12.771,10.8711 -14.116,-1.2425 -28.334,-1.875 -42.617,-1.875 -6.808,0 -13.6,0.1514 -20.375,0.4355 -29.222,-16.5879 -65.842,-52.9675 -78.713,-80.6074 -9.405,-20.1982 -12.507,-36.194 -12.545,-64.7227 -0.09,-64.4156 23.523,-110.194 82.129,-159.2402 156.178,-130.7005 166.754,-356.9217 23.266,-497.7187 -29.374,-28.8232 -56.621,-43.0248 -114.17,-59.5118 l -41.754,-11.9628 -8.939,-33.129 c -11.735,-43.479 -20.332,-115.2764 -20.354,-169.9257 z m 514.638,0 387.66,0 -88.337,113.6679 c -61.629,71.6041 -94.86,128.9049 -120.254,207.3653 -27.768,85.7923 -27.6,83.019 -6.047,99.459 26.078,19.8899 74.751,81.5666 88.826,112.5527 10.338,22.7618 11.868,35.2367 12.029,97.8926 0.203,79.77 -4.865,104.9579 -32.213,160.0371 -44.536,89.695 -123.77,149.5618 -234.353,177.0703 -28.812,7.1677 -63.515,19.2932 -77.117,26.9434 -56.503,31.7776 -89.671,89.5686 -89.575,156.0761 0.054,34.9658 8.947,62.9021 31.026,93.5489 -20.781,-9.1554 -42.196,-16.849 -64.086,-23.0215 -34.669,-32.5805 -51.974,-71.9451 -52.041,-118.3985 -0.114,-82.0433 47.223,-145.8252 129.166,-174.0175 41.898,-14.4152 99.875,-54.4269 135.006,-93.17 62.157,-68.5496 90.311,-146.6425 85.351,-236.7597 -5.913,-107.4318 -49.16,-184.611 -132.82,-237.045 l -25.252,-15.83 -0.019,-35.3282 c 0,-46.3524 17.957,-134.6208 37.972,-186.5234 z m 721.756,122.457 120.535,208.7754 c -76.384,27.3168 -145.599,71.4254 -209.894,133.4062 -41.972,40.4612 -111.004,130.7514 -111.004,145.1875 0,2.633 8.172,19.83 18.164,38.2149 22.293,41.0211 40.394,98.8918 41.129,131.5117 0.706,31.3384 -17.482,97.4784 -40.508,147.3125 -24.592,53.2264 -84.696,113.543 -141.121,141.6152 -61.996,30.8436 -92.763,36.5135 -189.861,34.9922 -77.269,-1.2104 -86.646,-0.3101 -115.981,11.1289 -37.079,14.46 -66.842,42.6421 -90.424,85.6289 -14.024,25.566 -15.942,34.2393 -15.832,71.6387 0.065,22.1395 0.808,34.3694 5.065,48.5195 -14.451,-12.3881 -29.564,-23.867 -45.246,-34.4043 -11.625,-25.5222 -20.651,-63.7718 -20.922,-92.3671 -0.427,-45.208 38.356,-110.0321 81.953,-136.9766 25.759,-15.9196 62.721,-25.2116 114.66,-28.8242 176.801,-12.2973 313.82,-154.2844 313.82,-325.1992 0,-73.9968 -13.188,-114.2189 -56.927,-173.6368 -19.413,-26.3701 -23.321,-35.3485 -20.823,-47.8398 4.634,-23.1753 49.003,-108.9589 76.582,-148.0664 44.49,-63.0872 124.22,-133.314 197.969,-174.3711 17.159,-9.5531 54.803,-24.6113 88.666,-36.2461 z m 242.973,420.8398 133.785,231.7247 c -51.368,10.3495 -103.574,28.3405 -154.467,53.4882 -56.122,27.7316 -138.34,89.6075 -137.369,103.3809 0.395,5.6125 3.338,26.9594 6.541,47.4375 7.268,46.4555 7.63,95.5827 0.875,119.1348 -17.586,61.3178 -109.026,166.364 -170.75,196.1601 -47.888,23.1172 -94.639,34.1765 -145.537,34.4238 -49.884,0.2426 -92.059,-9.8925 -153.383,-36.8554 -38.864,-17.0874 -48.463,-19.1628 -87.717,-18.9824 -37.033,0.1703 -48.851,2.5378 -73.964,14.8242 -36.942,18.0741 -64.734,45.2793 -81.524,79.8027 -8.978,18.4633 -11.717,27.7242 -12.621,65.1699 -9.937,-16.0053 -20.825,-31.4703 -32.631,-46.3027 -5.232,-33.6272 -2.491,-69.6326 8.25,-98.3398 13.745,-36.7396 61.435,-82.9447 98.717,-95.6485 31.103,-10.598 84.683,-10.7848 127.084,-0.4433 121.983,29.751 232.905,3.4477 315.99,-74.9297 44.924,-42.3778 69.002,-80.9649 88.459,-141.7637 22.411,-70.0289 19.589,-126.661 -9.807,-196.7734 -8.046,-19.19 -7.878,-20.177 6.741,-39.8907 21.031,-28.3611 92.929,-97.1624 128.22,-122.6953 42.728,-30.9129 92.411,-55.6088 145.108,-72.9219 z m -2611.069,57.084 c 10.344,19.6855 22.127,39.4709 35.485,59.6973 47.315,71.6391 101.152,126.0282 168.308,170.0293 29.268,19.1771 54.844,34.8672 56.836,34.8672 1.993,0 11.405,-5.9383 20.92,-13.1953 22.903,-17.4696 78.833,-42.2766 113.864,-50.5059 47.121,-11.0699 121.58,4.0058 189.927,38.457 41.028,20.6815 101.32,80.9761 126.301,126.3047 32.971,59.8314 37.552,82.0439 38.375,186.1641 0.421,53.3721 3.404,102.1931 6.99,114.4394 11,37.5494 36.019,70.3937 70.69,92.8028 37.031,23.9339 74.318,31.917 116.623,24.0332 -13.878,17.1329 -26.521,35.1262 -37.873,53.8418 -32.538,10.7567 -68.328,13.5327 -95.865,5.5039 -82.952,-24.1849 -131.88,-92.8222 -132.082,-185.2988 -0.1,-47.1374 -20.912,-113.0412 -51.143,-161.9747 -59.527,-96.354 -160.048,-150.9065 -277.729,-150.7246 -69.421,0.108 -114.939,16.9005 -174.718,64.461 l -32.785,26.082 -25.723,-8.6269 c -14.149,-4.7453 -47.064,-19.5927 -73.143,-32.9961 -73.377,-37.7121 -135.627,-88.1079 -184.574,-148.5938 z m 2876.772,403.1289 141.281,244.7032 -144.885,-4.6621 c -49.298,-2.1692 -123.193,10.3875 -186.142,31.6308 -67.362,22.7322 -65.366,21.1149 -69.66,56.377 -4.847,39.802 -20.811,97.6714 -35.057,127.1015 -13.793,28.496 -64.653,75.5256 -112.555,104.0801 -123.703,73.7412 -271.009,57.5578 -385.574,-42.3594 -52.772,-46.0261 -88.524,-61.8767 -139.842,-61.9922 -52.409,-0.1167 -86.649,14.7987 -121.496,52.9278 -11.738,12.8434 -23.099,31.2502 -31.892,50.2285 -4.877,-17.8808 -10.761,-35.4541 -17.631,-52.6309 17.374,-82.8647 82.854,-139.3835 168.117,-139.2597 40.274,0.059 64.939,8.7482 112.932,39.7949 20.845,13.484 59.417,31.7262 85.722,40.5391 40.342,13.5157 56.065,16.0253 100.446,16.0253 81.547,0 135.601,-18.2019 199.197,-67.0781 33.058,-25.4051 45.439,-38.9546 75.016,-82.0898 31.598,-46.0862 41.971,-82.5361 41.707,-146.543 -0.219,-53.3797 0.135,-55.0219 14.296,-66.2402 27.756,-21.9888 131.849,-68.3467 183.629,-81.7813 28.65,-7.4333 74.844,-15.1175 102.651,-17.0722 7.439,-0.5229 13.988,-1.0913 19.74,-1.6993 z m -3137.57,48.5899 0,31.9492 34.433,27.8047 c 73.403,59.2615 141.014,93.48 231.262,117.0469 l 47.193,12.3222 45.887,-45.9023 c 60.507,-60.5272 86.615,-74.214 155.936,-81.7481 183.484,-19.9418 324.453,82.3119 366.216,265.6368 20.212,88.7188 67.097,139.7609 143.223,155.916 37.1,7.8731 69.109,4.0764 102.602,-13.8125 -7.024,19.0552 -12.857,38.5601 -17.455,58.4043 -14.587,11.2021 -31.307,21.0308 -49.321,28.8066 -23.526,10.155 -82.085,7.4415 -115.404,-5.3476 -38.969,-14.9577 -80.283,-57.0778 -95.268,-97.1309 -58.693,-156.8714 -185.625,-245.2031 -337.863,-235.1152 -103.248,6.8417 -177.502,48.1706 -232.213,129.248 -14.564,21.5829 -30.092,39.2441 -34.506,39.2441 -52.975,0 -162.561,-21.3523 -221.695,-43.1933 l -191.71101,-51.959 z m 1595.472,241.3437 c 14.207,0.4536 28.317,1.6675 42.276,3.6211 22.172,35.5702 30.786,86.2584 19.595,126.543 -2.867,10.3192 -18.214,38.4105 -34.105,62.4258 -15.89,24.015 -30.47,50.8506 -32.398,59.6328 -5.836,26.5658 -11.966,22.8502 -7.624,-4.6192 2.229,-14.0982 13.024,-46.9189 23.989,-72.9375 26.608,-63.134 28.14,-107.6783 5.15,-149.7207 -5.112,-9.3476 -10.628,-17.559 -16.883,-24.9453 z m -84.847,6.4219 c 41.775,30.9512 71.3,87.6906 64.664,130.7637 -1.872,12.1509 -7.937,36.4515 -13.475,54.0039 -5.537,17.5527 -11.849,43.8825 -14.029,58.5098 l -3.963,26.5937 -4.231,-21.2734 c -2.41,-12.1352 -1.646,-42.3262 1.776,-70.2715 9.123,-74.48 1.651,-100.9018 -40.299,-142.5176 -10.438,-10.3549 -21.024,-18.9385 -31.898,-25.7891 13.601,-4.0726 27.437,-7.4225 41.455,-10.0195 z m 204.511,16.1231 c 12.689,4.4964 25.142,9.6306 37.307,15.3945 2.406,10.5507 3.099,22.5998 3.145,41.5488 0.08,36.9578 -1.822,45.8272 -14.538,67.459 -8.052,13.6977 -25.896,34.0408 -39.65,45.209 -13.755,11.1683 -39.15,34.5231 -56.434,51.8965 l -31.425,31.5879 13.394,-26.2696 c 7.367,-14.4488 26.801,-41.0256 43.186,-59.0586 33.622,-37.0065 56.189,-80.4549 56.265,-108.3359 0.057,-20.0692 -3.996,-40.4529 -11.25,-59.4316 z m -321.255,25.2011 c 37.089,11.8119 72.231,38.3047 90.203,71.6817 13.666,25.383 16.094,36.7004 19.392,90.2832 2.073,33.6948 5.494,66.6482 7.6,73.2304 6.815,21.2838 -1.107,12.6905 -12.26,-13.2988 -5.963,-13.8958 -13.621,-40.8208 -17.023,-59.8359 -14.963,-83.6798 -56.734,-129.7432 -125.797,-138.6602 12.206,-8.524 24.856,-16.3317 37.885,-23.4004 z m 426.619,31.2715 c 12.742,9.557 24.956,19.917 36.562,31.0508 -1.285,7.9905 -3.892,17.4219 -8.082,31.293 -9.749,32.2776 -16.296,43.5108 -37.152,63.7129 -14.919,14.4521 -36.018,28.3106 -51.369,33.7402 -14.327,5.0673 -37.915,14.374 -52.416,20.6836 -14.501,6.3097 -34.248,16.7856 -43.881,23.2793 -9.634,6.4942 -17.518,10.7667 -17.518,9.4941 0,-9.8338 40.609,-44.4125 73.092,-62.2402 45.408,-24.9212 73.219,-50.9804 86.869,-81.3965 10.288,-22.9253 14.778,-46.5662 13.895,-69.6172 z m -519.532,47.168 c 15.105,-0.1953 30.883,2.1689 47.872,6.9355 42.816,12.014 78.889,44.8618 92.974,84.6621 5.177,14.627 16.771,42.1527 25.766,61.168 8.996,19.0153 17.367,36.9671 18.601,39.8926 1.239,2.9254 -6.12,-2.6276 -16.353,-12.3399 -10.231,-9.7123 -27.848,-34.5237 -39.147,-55.1367 -35.622,-64.9856 -79.212,-94.7539 -138.75,-94.7539 -9.064,0 -17.932,0.8026 -26.599,2.375 8.375,-11.2196 17.37,-22.0338 26.968,-32.3848 2.868,-0.2294 5.754,-0.3802 8.668,-0.4179 z m -764.486,25.0801 c 39.22,0.088 78.473,7.0242 112.854,20.5273 72.132,28.3303 120.347,71.2836 169.435,150.9453 26.481,42.971 53.524,68.7951 93.854,89.6289 19.371,10.0062 32.558,12.4135 69.146,12.6113 39.083,0.2112 49.339,-1.7823 75.658,-14.707 14.583,-7.1608 27.575,-16.1367 39.502,-27.5019 -0.119,4.3922 -0.183,8.7917 -0.183,13.1972 0,15.8602 0.778,31.6402 2.308,47.291 -16.159,24.4909 -35.293,41.9066 -58.412,53.5391 -81.843,41.1821 -160.399,19.4547 -229.947,-63.5957 -39.815,-47.5468 -95.906,-86.7431 -149.861,-104.7246 -37.806,-12.5998 -51.659,-14.4422 -107.243,-14.2773 -55.087,0.163 -69.247,2.1069 -103.406,14.1992 -62.668,22.1854 -131.348,74.298 -162.879,123.5879 -9.529,14.898 -23.827,48.4796 -31.775,74.6269 -7.949,26.1469 -17.137,49.266 -20.422,51.3731 -3.285,2.1069 -27.514,8.9583 -53.844,15.2265 -30.169,7.1825 -73.933,12.4341 -118.347,14.2071 l -318.05901,-16.0469 -112.814,-195.4024 68.437,-118.539 324.66401,84.5273 c 48.199,9.9326 118.2,13.6344 168.592,8.9141 l 44.387,-4.1582 12.49,-30.7442 c 15.759,-38.7928 56.141,-99.8766 78.465,-118.6953 23.266,-19.6114 77.55,-43.4721 128.511,-56.4824 25.235,-6.4424 52.054,-9.5874 78.889,-9.5273 z m 1368.277,13.8261 c 8.873,12.3719 17.003,25.2147 24.362,38.459 -1.341,3.3382 -2.897,6.6516 -4.717,10.0938 -32.099,60.6946 -74.277,86.3958 -142.129,86.6113 -23.403,0.074 -56.314,3.3737 -73.135,7.332 -16.821,3.9584 -30.582,6.3632 -30.582,5.3438 0,-6.2266 49.353,-25.1596 81.737,-31.3555 73.465,-14.0568 107.336,-35.4935 131.404,-83.1719 5.536,-10.9674 9.876,-22.1371 13.06,-33.3125 z m 1208.573,28.7774 308.474,8.5078 111.77,193.5898 -30.565,52.9395 c -144.731,-3.4124 -368.157,-7.2644 -381.099,-10.5371 -54.125,-13.6871 -192.026,-13.581 -198.922,0.1523 -2.201,4.3882 -11.535,23.6294 -20.74,42.7598 -19.926,41.4022 -49.038,80.8602 -75.123,101.8222 -10.418,8.3723 -43.928,24.015 -74.465,34.7618 -48.133,16.9397 -62.955,19.7428 -111.373,21.0605 -64.021,1.7423 -98.324,-6.1786 -154.246,-35.6133 -46.507,-24.4782 -102.815,-81.466 -137.362,-139.0215 -45.331,-75.522 -82.21,-100.5488 -153.968,-104.4863 -41.03,-2.2514 -46.282,-1.2917 -77.842,14.2442 -19.218,9.4615 -35.155,21.068 -49.215,36.2754 0.141,-4.7784 0.223,-9.5632 0.223,-14.3575 0,-14.881 -0.691,-29.691 -2.039,-44.3906 5.28,-7.88 11.603,-15.6013 19.902,-24.7715 38.583,-42.6358 66.805,-55.6239 121.055,-55.7129 36.353,-0.06 47.179,2.2 74.326,15.5078 17.477,8.5673 40.618,25.31 51.425,37.2071 68.853,75.7986 84.687,90.9257 111.868,106.8554 126.71,74.2635 269.105,62.8808 377.203,-30.1562 19.986,-17.201 43.282,-41.4149 51.773,-53.8086 14.757,-21.5473 43.485,-95.4968 43.485,-111.9434 0,-19.1308 103.827,-40.8482 195.455,-40.8847 z m -1826.893,27.3847 c 4.061,0.034 8.171,0.2172 12.326,0.5508 45.444,3.6479 73.852,21.1432 110.129,67.834 15.933,20.5056 37.978,44.4387 48.987,53.1875 11.008,8.749 18.396,15.9102 16.414,15.9102 -11.671,0 -52.516,-26.4974 -77.881,-50.5215 -52.806,-50.0161 -99.562,-64.7119 -154.789,-48.6563 -13.331,3.8754 -25.085,8.4398 -35.602,14 4.174,-12.8494 8.997,-25.4743 14.457,-37.8222 20.011,-9.7597 42.149,-14.6837 65.959,-14.4825 z m 672.697,50.8731 c 4.338,13.1803 7.984,26.5999 10.922,40.207 -17.165,21.1919 -42.516,42.0498 -64.717,52.1309 -29.251,13.2824 -77.411,12.9231 -115.087,-0.8594 -16.09,-5.8862 -46.01,-12.1948 -66.489,-14.0195 -65.237,-5.8128 -14.834,-13.1949 64.889,-9.5039 89.574,4.147 105.794,-0.034 144.904,-37.3379 10.044,-9.5796 18.572,-19.8133 25.578,-30.6172 z m -665.373,45.0176 c 33.861,0.027 67.005,12.0659 96.797,35.6621 11.449,9.0675 33.66,22.6859 49.358,30.2636 l 28.537,13.7793 -24.287,-2.8671 c -13.358,-1.575 -43.278,-11.9083 -66.487,-22.9649 -36.725,-17.4952 -47.028,-20.0655 -79.431,-19.8262 -45.14,0.3338 -84.069,18.5181 -111.555,51.1817 -0.034,-2.1341 -0.059,-4.2684 -0.059,-6.4063 0,-11.8568 0.537,-23.6587 1.586,-35.373 14.606,-14.6743 32.12,-26.058 52.119,-33.541 17.752,-6.6413 35.686,-9.9226 53.422,-9.9082 z m 408.731,62.0976 26.596,3.3477 c 14.627,1.8413 44.545,11.8995 66.486,22.3515 31.404,14.9601 48.437,19.5551 80.06,21.5938 35.412,2.283 43.314,0.9964 66.704,-10.8555 13.87,-7.0287 26.07,-15.276 36.615,-24.7519 0.021,1.6782 0.033,3.3585 0.033,5.039 0,11.7408 -0.526,23.4259 -1.555,35.0274 -12.505,9.88 -25.627,16.587 -43.476,22.6152 -55.627,18.7853 -97.586,11.562 -146.243,-25.1738 -16.425,-12.4029 -42.323,-28.5445 -57.544,-35.8711 z m -377.897,27.5625 c 21.023,-0.1776 44.424,3.3006 69.387,10.4395 20.46,5.8507 46.183,10.6386 57.162,10.6386 10.98,0 19.963,2.0678 19.963,4.5957 0,8.0572 -44.469,11.0419 -82.699,5.5508 -65.134,-9.3559 -104.396,0.8336 -142.477,36.9785 -16.28,15.4523 -28.469,33.6493 -36.414,53.6524 -4.746,-13.3509 -8.782,-26.9629 -12.078,-40.7832 15.91,-29.4352 42.239,-55.1566 72.037,-69.582 15.452,-7.48 34.097,-11.3127 55.119,-11.4903 z m 380.608,11.8477 c 1.105,0 3.012,0.4692 5.668,1.2949 17.915,5.5712 39.474,21.0475 76.523,54.9297 41.21,37.6854 65.519,48.4946 109.238,48.5762 24.47,0.046 46.47,-4.7824 65.858,-14.3711 -3.768,12.6466 -8.159,25.0906 -13.162,37.2832 -16.833,6.1901 -35.568,9.1718 -56.567,9.1718 -60.467,0 -90.678,-16.893 -132.191,-73.9082 -11.94,-16.3972 -30.905,-37.883 -42.15,-47.75 -12.628,-11.0802 -16.534,-15.2353 -13.217,-15.2265 z m -17.016,33.164 16.969,15.959 c 9.334,8.7763 25.242,32.3025 35.355,52.2813 23.73,46.8738 54.752,80.3213 85.332,92 24.778,9.4627 56.474,11.669 84.455,6.8593 -7.664,11.2582 -15.931,22.1494 -24.777,32.625 -4.846,0.5327 -9.726,0.8028 -14.654,0.8028 -69.262,0 -121.258,-41.579 -144.33,-115.4219 -3.657,-11.7017 -13.779,-35.6388 -22.496,-53.1914 z m 473.135,8.4688 c 36.955,-0.3125 74.84,11.4581 105.055,34.5039 24.78,18.8992 52.751,62.6284 66.074,103.2988 6.516,19.8888 23.77,52.1225 40.627,75.8906 94.113,132.716 251.363,172.78838 403.943,102.9356 36.421,-16.6739 82.39,-59.6381 107.721,-100.6777 l 19.336,-31.3262 40.14,3.5918 c 74.125,6.6281 143.743,23.9037 203.703,50.5527 l 208.678,3.4434 -184.8933,319.16854 -6.0767,-3.57091 c -6.47,-5.7023 -17.223,-15.44554 -29.678,-26.96484 -67.231,-62.1767 -143.505,-105.26197 -233.863,-132.10547 l -54.264,-16.12304 -42.362,41.51562 c -55.095,53.9968 -88.736,74.24296 -135.589,81.60156 -56.333,8.8478 -132.774,2.40908 -176.03,-14.82812 -112.539,-44.847 -170.697,-114.6767 -204.082,-245.04104 -18.442,-72.0189 -24.811,-85.476 -56.511,-119.3672 -30.679,-32.7983 -69.509,-48.4111 -120.108,-48.2968 -26.45,0.0597 -48.823,5.3149 -71.459,17.7402 6.454,-18.4754 11.795,-37.3542 15.987,-56.5371 10.548,-8.29 21.813,-16.0647 31.861,-21.5332 21.657,-11.7873 46.506,-17.6573 71.791,-17.8711 z m -674.645,6.668 c 2.776,0.026 -0.955,2.7607 -11.548,8.6289 -10.954,6.0664 -38.479,14.8151 -61.168,19.4414 -54.267,11.065 -98.91,34.8776 -118.342,63.1211 -15.955,23.1905 -26.331,49.9176 -29.789,75.4687 -7.473,-9.9661 -14.456,-20.2539 -20.928,-30.8281 3.908,-24.1309 14.449,-47.0327 31.682,-69.6016 28.899,-37.8481 61.947,-52.2319 132.279,-57.5801 32.773,-2.4921 65.57,-5.9963 72.883,-7.789 2.357,-0.578 4.006,-0.87 4.931,-0.8613 z m 175.254,11.3339 c 0.241,-0.039 0.528,0.039 0.86,0.2442 9.479,5.8578 25.797,50.7971 33.74,92.914 10.604,56.219 29.976,91.3728 61.314,111.25 22.867,14.505 45.463,23.2054 68.069,26.0899 -10.89,8.4639 -22.185,16.327 -33.83,23.5723 -24.409,-4.6218 -47.403,-15.908 -67.672,-33.75 -38.04,-33.4848 -46.854,-55.2103 -51.555,-127.1133 -2.199,-33.6424 -6.446,-68.9926 -9.443,-78.5567 -2.622,-8.3686 -3.165,-14.3777 -1.483,-14.6504 z m -1049.984,0.3282 c 32.022,0.077 63.511,3.3018 84.961,9.7734 51.545,15.5507 93.576,38.9233 135.412,75.3027 49.637,43.1624 84.001,57.3897 138.81,57.4649 31.428,0.042 46.101,-2.7881 69.147,-13.3457 32.392,-14.8385 58.764,-40.3037 76.758,-72.916 6.026,20.1984 13.354,39.9736 21.935,59.1992 -17.886,61.1588 -58.161,98.0992 -123.189,114.1465 -30.289,7.4747 -39.971,7.7637 -67.791,2.0175 -35.158,-7.2617 -53.258,-15.2471 -100.838,-44.4746 -49.865,-30.6303 -97.155,-42.7784 -168.563,-43.3066 -46.993,-0.3475 -67.949,1.876 -90.423,9.5918 -73.027,25.0715 -124.688,61.2452 -166.789,116.7871 -52.264,68.9472 -62.544,98.00011 -62.403,176.34961 l 0.102,58.50781 -25.317,17.19336 c -54.163,36.7825 -139.009,73.71961 -205.535,89.47461 -17.638,4.1772 -55.406,9.17462 -83.928,11.10352 l -4.738,0.32031 -147.336,-255.19336 144.127,8.30469 c 78.932,-2.0563 157.978,-19.96019 231.321,-52.39649 l 27.951,-12.36328 0,-26.03518 c 0,-33.3628 16.772,-98.9895 33.974,-132.9355 25.309,-49.9421 114.007,-117.377 185.266,-140.8555 23.819,-7.8478 60.794,-11.8024 97.086,-11.7148 z m 909.451,10.955 c 1.565,-0.056 -0.535,2.6852 -5.078,7.9727 -18.032,20.9842 -30.621,30.5775 -66.488,50.6641 -71.915,40.2758 -92.96,72.0448 -92.944,140.3046 0.01,12.6364 0.729,24.0468 2.291,34.4825 -12.472,-8.5297 -24.49,-17.8024 -35.99,-27.7813 -3.864,-29.2579 2.357,-59.3721 18.557,-91.0488 18.703,-36.5675 47.908,-59.6205 95.666,-75.5137 19.8,-6.5889 48.047,-19.0664 62.773,-27.7304 12.959,-7.6254 19.44,-11.2856 21.213,-11.3497 z m 72.178,10.1192 -1.955,24.2148 c -1.074,13.3191 -10.688,43.5618 -21.362,67.2051 -21.92,48.5451 -31.297,89.2349 -26.437,114.6992 5.033,26.3521 25.392,63.2598 45.16,81.8594 1.59,1.49577 3.159,2.9245 4.721,4.32031 -3.626,0.0996 -7.256,0.1543 -10.893,0.1543 -9.608,0 -19.179,-0.35238 -28.697,-1.04297 -25.608,-24.13664 -41.531,-56.84934 -44.668,-94.67384 -3.093,-37.2874 5.109,-60.6448 39.43,-112.3047 15.792,-23.7724 32.31,-52.4933 36.707,-63.8261 z m 39.469,6.9238 c 4.975,-0.1873 6.387,42.1678 1.63,80.836 -9.064,73.6727 2.106,116.9107 39.43,152.621 13.001,12.4395 27.63,21.905 43.666,28.375 -14.143,5.1246 -28.586,9.452 -43.262,12.9434 -8.216,-4.7447 -16.019,-10.4897 -23.562,-17.3047 -50.914,-45.9979 -63.298,-100.4477 -39.303,-172.8105 7.548,-22.7625 13.894,-47.8932 14.1,-55.8477 0.206,-7.9546 2.27,-19.2508 4.584,-25.1015 0.993,-2.5118 1.902,-3.6803 2.717,-3.711 z m -85.415,9.9141 c 1.366,0.06 -0.49,4.0039 -4.169,11.1894 -4.899,9.5649 -23.552,33.502 -41.45,53.1914 -42.369,46.6054 -54.651,73.4775 -54.076,118.3145 0.36,28.0528 8.106,54.0759 21.805,76.4394 -13.241,-3.9428 -26.258,-8.5692 -38.998,-13.8652 -10.109,-19.767 -12.814,-33.2689 -12.772,-63.8008 0.07,-50.6442 15.469,-85.0583 50.914,-113.7695 14.062,-11.3916 38.602,-32.6776 54.526,-47.3047 15.382,-14.128 22.465,-20.4716 24.22,-20.3945 z m 517.213,109.9297 c 41.105,0.4571 80.389,17.6684 114.262,51.5058 31.697,31.6635 44.877,67.2644 49.828,134.57815 7.064,96.0634 41.894,175.54124 101.975,232.71484 61.958,58.9554 131.759,86.16185 219.027,85.37305 75.664,-0.6836 116.434,-15.31575 174.555,-62.65625 l 30.525,-24.86524 26.912,9.31836 c 40.678,14.0868 119.937,59.23983 160.756,91.57813 36.987,29.30391 70.38,64.64343 98.932,104.06054 l -143.557,248.648438 c -26.426,-60.91732 -64.344,-118.098448 -114.318,-172.919918 -28.909,-31.7142 -100.508,-88.04355 -129.654,-102.00195 -15.495,-7.4201 -17.756,-7.06388 -38.567,6.07422 -33.492,21.1422 -77.723,39.40156 -113.205,46.73046 -27.161,5.6097 -38.35,5.25195 -75.555,-2.40625 -107.027,-22.0305 -177.875,-69.86518 -227.88,-153.86718 -39.858,-66.9543 -47.492,-112.32936 -42.17,-250.63086 3.569,-92.71484 -50.147,-162.56764 -137.793,-179.18944 -14.41,-2.7328 -30.687,-2.6731 -47.918,-0.0274 12.303,-16.3292 23.527,-33.371 33.627,-51.0136 20.227,-7.5577 40.434,-11.224 60.218,-11.0039 z m -881.793,45.9902 c 11.54,16.6872 24.162,32.7038 37.821,47.9414 -0.496,29.4726 -5.479,60.34 -14.211,77.16016 -15.545,29.942 -52.344,64.60637 -84.975,80.04297 -32.182,15.2251 -89.662,18.69986 -129.283,7.81836 -68.46,-18.8025 -143.132,-16.30141 -211.754,7.08789 -49.178,16.7624 -78.85,36.0962 -123.867,80.7207 -42.343,41.9707 -68.814,90.54286 -85.279,156.47266 -14.466,57.9246 -11.733,100.11269 10.101,155.99609 l 16.154,41.3457 -22.462,30.51368 c -26.481,35.9706 -113.542,116.017288 -155.084,142.591788 -37.168,23.7758501 -76.282,41.9788 -118.889,55.05469 L 1335.934,-195.08116 c 55.648,-12.9354 112.141,-32.45606 154.859,-55.02734 40.704,-21.5074 122.077,-80.1388 138.223,-99.5918 5.478,-6.6016 5.079,-16.97733 -2.125,-55.14453 -13.494,-71.5013 -8.267,-125.7199 16.375,-169.7832 25.77,-46.0818 75.963,-107.55591 104.384,-127.84961 63.823,-45.57326 119.223,-62.72756 201.412,-62.36916 53.199,0.232 66.367,2.1788 101.061,14.9434 100.058,36.81464 96.637,35.98489 138.293,33.54099 46.276,-2.7147 73.835,-14.77289 110.043,-48.14839 28.309,-26.0936 43.395,-51.4448 48.691,-89.0352 z m 727.168,82.7617 c 5.214,0.4134 11.046,1.0089 17.897,1.7754 50.53,5.6533 80.778,21.1559 109.365,56.04298 38.961,47.54609 48.974,107.83978 29.225,176.02148 -31.819,109.8479 -10.069,223.29588 59.177,308.64258 42.797,52.7493 93.276,83.9091 167.356,103.3125 57.097,14.9552 88.607,13.87293 147.75,-5.07227 27.398,-8.7764 52.418,-15.95508 55.601,-15.95508 9.316,0 64.806,50.626398 100.907,92.062498 41.878,48.0700001 69.888,94.08823 94.508,155.265632 24.443,60.73843 35.72,103.47558 39.619,157.68164 l -173.432,300.39453 -71.322,0 4.015,-143.33984 c 7.522,-152.72541 -43.89,-299.23595 -149.369,-425.6562519 -10.712,-12.8399001 -14.347,-14.2830101 -23.566,-9.3496101 -21.586,11.5526001 -109.298,19.08296014 -144.981,12.4472601 -44.423,-8.2615001 -99.245,-41.3857301 -146.55,-88.5527301 -94.612,-94.337498 -119.554,-243.194008 -61.526,-367.195308 32.153,-68.707 35.171,-126.51714 9.279,-177.61524 -27.989,-55.23353 -60.124,-82.15079 -116.25,-89.4414 18.278,-12.54727 35.756,-26.39307 52.297,-41.46877 z m -622.832,26.7324 c 15.815,12.10378 32.31,23.18844 49.385,33.20902 2.684,8.21991 4.969,16.51658 6.608,24.44531 11.254,54.469 -3.15,101.34117 -44.842,145.91407 -34.508,36.8894 -75.439,54.1783 -140.651,59.4082 -90.392,7.2491 -161.541,39.53826 -223.527,101.44336 -114.078,113.9247 -128.03,295.938078 -31.49,410.738278 26.647,31.6889 25.941,37.74374 -13.797,118.523442 -35.091,71.32559 -64.334,111.04524 -121.018,164.36914 -43.616,41.03169 -123.14,120.17085 -197.5,181.52734 L 1586.562,239.0204 c 132.693,-46.80495 246.883,-139.790632 321.997,-264.677732 l 18.781,-31.23047 -13.35,-17.50391 c -7.343,-9.6277 -22.064,-38.658718 -32.709,-64.511708 -16.011,-38.88141 -19.34,-53.44059 -19.263,-84.23829 0.279,-110.9896 67.56,-226.40315 165.839,-284.47265 62.418,-36.8811 95.104,-44.28894 197.791,-44.83594 73.838,-0.3932 92.333,-2.15557 116.565,-11.10547 37.98,-14.0271 76.048,-48.91039 94.596,-86.68359 12.769,-25.9983 14.894,-36.79342 14.894,-75.54492 0,-6.98999 -0.054,-12.93096 -0.217,-18.26762 z m 493.608,57.83988 c 4.843,1.90541 9.954,4.1707 15.799,6.91797 54.228,25.4902 82.475,62.40865 95.591,124.93945 7.956,37.9281 -4.234,90.83714 -29.795,129.33594 -43.342,65.2779 -61.085,117.32594 -65.195,191.24024 -7.573,136.225298 59.274,247.823978 184.334,307.742178 32.173,15.4142 38.982,16.63147 98.059,17.54297 74.491,1.1491 68.643,-2.94998 108.836,76.294922 46.392,91.4701 64.261,162.75422 64.334,256.64063 l -2.768,134.94531 -245.793,0 3.928,-146.44531 c 0.934,-34.8353 -3.394,-81.10813 -7.545,-102.79883 -7.304,-38.1801 -36.378,-132.6604 -45.221,-146.9707 -2.576,-4.1678 -22.487,-9.06253 -48.883,-12.01563 -83.356,-9.3258 -124.501,-27.35539 -162.587,-71.242192 -31.916,-36.7724 -66.774,-93.14608 -79.022,-127.80078 -13.866,-39.2201 -16.754,-138.928578 -5.299,-182.833978 13.337,-51.1135 42.208,-104.95715 77.682,-144.87305 51.441,-57.8809 75.091,-122.64284 63.877,-174.93164 -8.405,-39.1946 -28.768,-75.45555 -55.66,-99.12695 -6.806,-5.99101 -13.455,-10.98887 -21.096,-15.44922 19.236,-5.86619 38.079,-12.92015 56.424,-21.11133 z m -360.528,14.32422 c 19.763,7.00352 39.992,12.73743 60.567,17.14453 21.857,28.62657 29.969,57.7642 29.969,96.62695 0,37.542 -2.116,46.9658 -17.581,78.3711 -21.82,44.3125 -54.768,71.54497 -116.806,96.54297 -102.34,41.2365 -184.773,134.71114 -209.172,237.18554 -10.821,45.4542 -8.141,125.590028 5.627,168.203128 24.051,74.451 51.396,112.305392 108.555,150.275392 l 37.894,25.17187 -1.215,44.20899 c -1.435,52.2558 -21.254,139.10977 -44.463,194.85937 l -45.113,122.68555 -341.976,0 c 53.015,-65.05652 165.676,-214.56456 185.595,-255.59766 23.797,-49.0258 53.051,-135.39494 53.014,-156.52734 0,-4.7923 -7.386,-13.50271 -16.393,-19.35351 -23.131,-15.02321 -71.905,-74.624592 -88.164,-107.742192 -11.351,-23.1152999 -14.199,-37.9302 -16.455,-85.5 -3.518,-74.234498 4.522,-120.053528 30.5,-173.765628 46.64,-96.44 123.363,-156.69308 235.908,-185.27148 107.531,-27.305 157.588,-81.23174 162.198,-174.74414 1.385,-28.08504 -1.943,-50.41897 -12.489,-72.77344 z m 213.725,25.19336 c 40.766,32.82038 59.871,67.82304 64.016,117.26172 5.44,64.8834 -18.467,114.69998 -79.354,165.36328 -89.356,74.3503 -137.211,181.20765 -130.041,290.373048 5.149,78.3672001 31.734,139.39531 86.494,198.541012 32.803,35.4301 70.95,57.19086 126.729,72.28906 21.172,5.7314 37.615,13.44198 40.617,19.05078 12.312,23.00587 21.689,234.1894 21.943,343.20313 l -285.193,0 c 24.545,-85.11519 61.616,-213.41997 61.449,-260.52539 -0.142,-40.5449 -2.58,-76.50868 -5.412,-79.92188 -2.832,-3.4133 -14.278,-9.39959 -25.432,-13.30468 -24.189,-8.4678 -64.844,-33.10214 -96.177,-58.27344 -26.141,-20.9993 -59.32,-83.202412 -74.207,-139.1289119 -11.022,-41.4014001 -11.89,-113.1050981 -1.866,-154.2499981 21.098,-86.6057 72.907,-155.62353 161.502,-215.14843 87.608,-58.8623 112.125,-96.11237 112.202,-170.47657 0.05,-33.0769 -2.721,-48.80246 -12.368,-70.63086 -6.152,-13.92055 -16.458,-28.43781 -29.144,-41.86523 4.28,0.11324 8.568,0.17578 12.861,0.17578 17.243,0 34.391,-0.92614 51.381,-2.73242 z"
       id="path4938"
       inkscape:connector-curvature="0"
       sodipodi:nodetypes="ccccccccccccscccccscccccsccscscccccsccsscccsccccccccscccsccccccccscsscccscccssccccccccccccsccccccssscccccccsscscssccscccsssccsccccsccssssssccccssssscscccsscsccccsccscscccsscccccsscsccsccccssccccssccccccsscsccsscssscccccccccccccscccccscccccscscscccccccccccccccsscssccscccccssccsssccsccscccssccccccccccscccssccccsscccccccscccsscssccsccssscscscccccscccccccscsscccccccsscscccccssccscccccscsssscccsccccccsccccccsccscccscccssccccccccccssccscccsccsccccsccccccccscccscsccccsscsscccssccccccscssccccccccccccccccsccccccsccccssccsccsccsccsssccsccccccccccsccsccsccccsscssccsccscccsscscccsscsssscscccccccsscccccccsccccccccsccssccsccccccsscccccccscccscsccccscsccscccccccccccscccsscsccccccccccscscsc" />
  </g>
</svg>
