  0
SECTION
  2
HEADER
  9
$ACADVER
  1
AC1014
  9
$HANDSEED
  5
FFFF
  9
$MEASUREMENT
 70
     1
  0
ENDSEC
  0
SECTION
  2
TABLES
  0
TABLE
  2
VPORT
  5
8
330
0
100
AcDbSymbolTable
 70
     4
  0
VPORT
  5
2E
330
8
100
AcDbSymbolTableRecord
100
AcDbViewportTableRecord
  2
*ACTIVE
 70
     0
 10
0.0
 20
0.0
 11
1.0
 21
1.0
 12
210.0
 22
148.5
 13
0.0
 23
0.0
 14
10.0
 24
10.0
 15
10.0
 25
10.0
 16
0.0
 26
0.0
 36
1.0
 17
0.0
 27
0.0
 37
0.0
 40
341.0
 41
1.24
 42
50.0
 43
0.0
 44
0.0
 50
0.0
 51
0.0
 71
     0
 72
   100
 73
     1
 74
     3
 75
     0
 76
     0
 77
     0
 78
     0
  0
ENDTAB
  0
TABLE
  2
LTYPE
  5
5
330
0
100
AcDbSymbolTable
 70
     1
  0
LTYPE
  5
14
330
5
100
AcDbSymbolTableRecord
100
AcDbLinetypeTableRecord
  2
BYBLOCK
 70
     0
  3

 72
    65
 73
     0
 40
0.0
  0
LTYPE
  5
15
330
5
100
AcDbSymbolTableRecord
100
AcDbLinetypeTableRecord
  2
BYLAYER
 70
     0
  3

 72
    65
 73
     0
 40
0.0
  0
LTYPE
  5
16
330
5
100
AcDbSymbolTableRecord
100
AcDbLinetypeTableRecord
  2
CONTINUOUS
 70
     0
  3
Solid line
 72
    65
 73
     0
 40
0.0
  0
ENDTAB
  0
TABLE
  2
LAYER
  5
2
100
AcDbSymbolTable
 70
2
  0
LAYER
  5
50
100
AcDbSymbolTableRecord
100
AcDbLayerTableRecord
  2
0
 70
0
  6
CONTINUOUS
  0
LAYER
  5
51
100
AcDbSymbolTableRecord
100
AcDbLayerTableRecord
  2
Layer_1
 70
0
  6
CONTINUOUS
  0
ENDTAB
  0
TABLE
  2
STYLE
  5
3
330
0
100
AcDbSymbolTable
 70
     1
  0
STYLE
  5
11
330
3
100
AcDbSymbolTableRecord
100
AcDbTextStyleTableRecord
  2
STANDARD
 70
     0
 40
0.0
 41
1.0
 50
0.0
 71
     0
 42
2.5
  3
txt
  4

  0
ENDTAB
  0
TABLE
  2
VIEW
  5
6
330
0
100
AcDbSymbolTable
 70
     0
  0
ENDTAB
  0
TABLE
  2
UCS
  5
7
330
0
100
AcDbSymbolTable
 70
     0
  0
ENDTAB
  0
TABLE
  2
APPID
  5
9
330
0
100
AcDbSymbolTable
 70
     2
  0
APPID
  5
12
330
9
100
AcDbSymbolTableRecord
100
AcDbRegAppTableRecord
  2
ACAD
 70
     0
  0
ENDTAB
  0
TABLE
  2
DIMSTYLE
  5
A
330
0
100
AcDbSymbolTable
 70
     1
  0
DIMSTYLE
105
27
330
A
100
AcDbSymbolTableRecord
100
AcDbDimStyleTableRecord
  2
ISO-25
 70
     0
  3

  4

  5

  6

  7

 40
1.0
 41
2.5
 42
0.625
 43
3.75
 44
1.25
 45
0.0
 46
0.0
 47
0.0
 48
0.0
140
2.5
141
2.5
142
0.0
143
0.03937007874016
144
1.0
145
0.0
146
1.0
147
0.625
 71
     0
 72
     0
 73
     0
 74
     0
 75
     0
 76
     0
 77
     1
 78
     8
170
     0
171
     3
172
     1
173
     0
174
     0
175
     0
176
     0
177
     0
178
     0
270
     2
271
     2
272
     2
273
     2
274
     3
340
11
275
     0
280
     0
281
     0
282
     0
283
     0
284
     8
285
     0
286
     0
287
     3
288
     0
  0
ENDTAB
  0
TABLE
  2
BLOCK_RECORD
  5
1
330
0
100
AcDbSymbolTable
 70
     1
  0
BLOCK_RECORD
  5
1F
330
1
100
AcDbSymbolTableRecord
100
AcDbBlockTableRecord
  2
*MODEL_SPACE
  0
BLOCK_RECORD
  5
1B
330
1
100
AcDbSymbolTableRecord
100
AcDbBlockTableRecord
  2
*PAPER_SPACE
  0
ENDTAB
  0
ENDSEC
  0
SECTION
  2
BLOCKS
  0
BLOCK
  5
20
330
1F
100
AcDbEntity
  8
0
100
AcDbBlockBegin
  2
*MODEL_SPACE
 70
     0
 10
0.0
 20
0.0
 30
0.0
  3
*MODEL_SPACE
  1

  0
ENDBLK
  5
21
330
1F
100
AcDbEntity
  8
0
100
AcDbBlockEnd
  0
BLOCK
  5
1C
330
1B
100
AcDbEntity
 67
     1
  8
0
100
AcDbBlockBegin
  2
*PAPER_SPACE
  1

  0
ENDBLK
  5
1D
330
1B
100
AcDbEntity
 67
     1
  8
0
100
AcDbBlockEnd
  0
ENDSEC
  0
SECTION
  2
ENTITIES
  0
LWPOLYLINE
  5
100
100
AcDbEntity
  8
Layer_1
 62
5
100
AcDbPolyline
 90
10
 70
1
 10
43.191482
 20
11.162662
 30
0.0
 10
41.674170
 20
8.534606
 30
0.0
 10
38.639543
 20
8.534606
 30
0.0
 10
37.462968
 20
10.572509
 30
0.0
 10
38.636664
 20
10.572509
 30
0.0
 10
39.907963
 20
12.774453
 30
0.0
 10
39.321225
 20
13.790745
 30
0.0
 10
41.674175
 20
13.790745
 30
0.0
 10
43.191482
 20
11.162676
 30
0.0
 10
43.191482
 20
11.162662
 30
0.0
  0
LWPOLYLINE
  5
101
100
AcDbEntity
  8
Layer_1
 62
5
100
AcDbPolyline
 90
10
 70
1
 10
48.766735
 20
20.830439
 30
0.0
 10
47.249416
 20
18.202370
 30
0.0
 10
44.214775
 20
18.202370
 30
0.0
 10
43.038216
 20
20.240301
 30
0.0
 10
44.211911
 20
20.240301
 30
0.0
 10
45.483203
 20
22.442231
 30
0.0
 10
44.896464
 20
23.458523
 30
0.0
 10
47.249414
 20
23.458523
 30
0.0
 10
48.766735
 20
20.830481
 30
0.0
 10
48.766735
 20
20.830439
 30
0.0
  0
LWPOLYLINE
  5
102
100
AcDbEntity
  8
Layer_1
 62
5
100
AcDbPolyline
 90
13
 70
1
 10
43.189716
 20
17.608689
 30
0.0
 10
41.672396
 20
14.980620
 30
0.0
 10
39.317506
 20
14.980620
 30
0.0
 10
39.906985
 20
16.001620
 30
0.0
 10
38.635709
 20
18.203578
 30
0.0
 10
37.463888
 20
18.203578
 30
0.0
 10
38.291117
 20
19.636384
 30
0.0
 10
38.873778
 20
18.627176
 30
0.0
 10
39.214732
 20
18.627176
 30
0.0
 10
41.416353
 20
18.627176
 30
0.0
 10
42.009027
 20
19.653703
 30
0.0
 10
43.189716
 20
17.608703
 30
0.0
 10
43.189716
 20
17.608689
 30
0.0
  0
LWPOLYLINE
  5
103
100
AcDbEntity
  8
Layer_1
 62
5
100
AcDbPolyline
 90
11
 70
1
 10
37.607667
 20
7.940606
 30
0.0
 10
36.090361
 20
5.312551
 30
0.0
 10
33.055710
 20
5.312551
 30
0.0
 10
31.538410
 20
7.940620
 30
0.0
 10
32.712577
 20
9.974342
 30
0.0
 10
33.298538
 20
8.959398
 30
0.0
 10
33.639486
 20
8.959398
 30
0.0
 10
35.841114
 20
8.959398
 30
0.0
 10
36.430288
 20
9.979884
 30
0.0
 10
37.607667
 20
7.940606
 30
0.0
 10
37.607667
 20
7.940606
 30
0.0
  0
LWPOLYLINE
  5
104
100
AcDbEntity
  8
Layer_1
 62
5
100
AcDbPolyline
 90
10
 70
1
 10
48.764947
 20
27.276439
 30
0.0
 10
47.247635
 20
24.648370
 30
0.0
 10
44.892745
 20
24.648370
 30
0.0
 10
45.482217
 20
25.669370
 30
0.0
 10
44.210934
 20
27.871301
 30
0.0
 10
43.039113
 20
27.871301
 30
0.0
 10
44.212995
 20
29.904523
 30
0.0
 10
47.247642
 20
29.904523
 30
0.0
 10
48.764947
 20
27.276467
 30
0.0
 10
48.764947
 20
27.276439
 30
0.0
  0
LWPOLYLINE
  5
105
100
AcDbEntity
  8
Layer_1
 62
5
100
AcDbPolyline
 90
6
 70
1
 10
38.544152
 20
12.774453
 30
0.0
 10
37.954763
 20
11.753592
 30
0.0
 10
37.463410
 20
11.753592
 30
0.0
 10
38.298473
 20
13.199967
 30
0.0
 10
38.544152
 20
12.774453
 30
0.0
 10
38.544152
 20
12.774453
 30
0.0
  0
LWPOLYLINE
  5
106
100
AcDbEntity
  8
Layer_1
 62
5
100
AcDbPolyline
 90
6
 70
1
 10
44.119391
 20
22.442203
 30
0.0
 10
43.530016
 20
21.421370
 30
0.0
 10
43.038663
 20
21.421370
 30
0.0
 10
43.873718
 20
22.867731
 30
0.0
 10
44.119391
 20
22.442203
 30
0.0
 10
44.119391
 20
22.442203
 30
0.0
  0
LWPOLYLINE
  5
107
100
AcDbEntity
  8
Layer_1
 62
5
100
AcDbPolyline
 90
6
 70
1
 10
37.278368
 20
13.795287
 30
0.0
 10
36.437806
 20
12.339384
 30
0.0
 10
36.186627
 20
12.774426
 30
0.0
 10
36.776016
 20
13.795287
 30
0.0
 10
37.278368
 20
13.795287
 30
0.0
 10
37.278368
 20
13.795287
 30
0.0
  0
LWPOLYLINE
  5
108
100
AcDbEntity
  8
Layer_1
 62
5
100
AcDbPolyline
 90
6
 70
1
 10
42.853582
 20
23.463037
 30
0.0
 10
42.013027
 20
22.007148
 30
0.0
 10
41.761861
 20
22.442217
 30
0.0
 10
42.351236
 20
23.463037
 30
0.0
 10
42.853582
 20
23.463037
 30
0.0
 10
42.853582
 20
23.463037
 30
0.0
  0
LWPOLYLINE
  5
109
100
AcDbEntity
  8
Layer_1
 62
5
100
AcDbPolyline
 90
6
 70
1
 10
38.543171
 20
16.001620
 30
0.0
 10
38.295734
 20
15.573037
 30
0.0
 10
37.458907
 20
17.022439
 30
0.0
 10
37.953785
 20
17.022439
 30
0.0
 10
38.543171
 20
16.001620
 30
0.0
 10
38.543171
 20
16.001620
 30
0.0
  0
LWPOLYLINE
  5
10a
100
AcDbEntity
  8
Layer_1
 62
5
100
AcDbPolyline
 90
6
 70
1
 10
35.406449
 20
10.568648
 30
0.0
 10
35.159254
 20
10.140495
 30
0.0
 10
33.980479
 20
10.140495
 30
0.0
 10
33.733268
 20
10.568689
 30
0.0
 10
35.406449
 20
10.568689
 30
0.0
 10
35.406449
 20
10.568648
 30
0.0
  0
LWPOLYLINE
  5
10b
100
AcDbEntity
  8
Layer_1
 62
5
100
AcDbPolyline
 90
6
 70
1
 10
44.118435
 20
25.669314
 30
0.0
 10
43.871004
 20
25.240759
 30
0.0
 10
43.034178
 20
26.690162
 30
0.0
 10
43.529063
 20
26.690162
 30
0.0
 10
44.118435
 20
25.669314
 30
0.0
 10
44.118435
 20
25.669314
 30
0.0
  0
LWPOLYLINE
  5
10c
100
AcDbEntity
  8
Layer_1
 62
5
100
AcDbPolyline
 90
6
 70
1
 10
40.981914
 20
20.236703
 30
0.0
 10
40.734518
 20
19.808203
 30
0.0
 10
39.555764
 20
19.808203
 30
0.0
 10
39.308360
 20
20.236717
 30
0.0
 10
40.981914
 20
20.236717
 30
0.0
 10
40.981914
 20
20.236703
 30
0.0
  0
LWPOLYLINE
  5
10d
100
AcDbEntity
  8
Layer_1
 62
5
100
AcDbPolyline
 90
6
 70
1
 10
35.408920
 20
11.749759
 30
0.0
 10
33.730886
 20
11.749759
 30
0.0
 10
33.980532
 20
12.182148
 30
0.0
 10
35.159281
 20
12.182148
 30
0.0
 10
35.408920
 20
11.749787
 30
0.0
 10
35.408920
 20
11.749759
 30
0.0
  0
LWPOLYLINE
  5
10e
100
AcDbEntity
  8
Layer_1
 62
5
100
AcDbPolyline
 90
6
 70
1
 10
37.273954
 20
14.980731
 30
0.0
 10
36.775102
 20
14.980731
 30
0.0
 10
36.185709
 20
16.001592
 30
0.0
 10
36.435132
 20
16.433606
 30
0.0
 10
37.273954
 20
14.980759
 30
0.0
 10
37.273954
 20
14.980731
 30
0.0
  0
LWPOLYLINE
  5
10f
100
AcDbEntity
  8
Layer_1
 62
5
100
AcDbPolyline
 90
6
 70
1
 10
40.983998
 20
21.417828
 30
0.0
 10
39.306318
 20
21.417828
 30
0.0
 10
39.555777
 20
21.849898
 30
0.0
 10
40.734539
 20
21.849898
 30
0.0
 10
40.983998
 20
21.417828
 30
0.0
 10
40.983998
 20
21.417828
 30
0.0
  0
LWPOLYLINE
  5
110
100
AcDbEntity
  8
Layer_1
 62
5
100
AcDbPolyline
 90
6
 70
1
 10
42.849206
 20
24.648453
 30
0.0
 10
42.350366
 20
24.648453
 30
0.0
 10
41.760966
 20
25.669287
 30
0.0
 10
42.010396
 20
26.101314
 30
0.0
 10
42.849206
 20
24.648439
 30
0.0
 10
42.849206
 20
24.648453
 30
0.0
  0
LWPOLYLINE
  5
111
100
AcDbEntity
  8
Layer_1
 62
5
100
AcDbPolyline
 90
8
 70
1
 10
35.754004
 20
14.387120
 30
0.0
 10
35.162859
 20
13.363231
 30
0.0
 10
33.976489
 20
13.363231
 30
0.0
 10
33.194991
 20
14.716842
 30
0.0
 10
33.780428
 20
15.730856
 30
0.0
 10
34.978204
 20
15.730856
 30
0.0
 10
35.754004
 20
14.387120
 30
0.0
 10
35.754004
 20
14.387120
 30
0.0
  0
LWPOLYLINE
  5
112
100
AcDbEntity
  8
Layer_1
 62
5
100
AcDbPolyline
 90
9
 70
1
 10
41.329243
 20
24.054870
 30
0.0
 10
40.738098
 20
23.030981
 30
0.0
 10
39.207293
 20
23.030981
 30
0.0
 10
38.600820
 20
24.081398
 30
0.0
 10
39.178250
 20
25.081537
 30
0.0
 10
39.212788
 20
25.081537
 30
0.0
 10
40.736498
 20
25.081537
 30
0.0
 10
41.329243
 20
24.054870
 30
0.0
 10
41.329243
 20
24.054870
 30
0.0
  0
LWPOLYLINE
  5
113
100
AcDbEntity
  8
Layer_1
 62
5
100
AcDbPolyline
 90
6
 70
1
 10
37.463174
 20
20.564287
 30
0.0
 10
36.257153
 20
18.475398
 30
0.0
 10
35.811121
 20
19.247939
 30
0.0
 10
36.571114
 20
20.564287
 30
0.0
 10
37.463174
 20
20.564287
 30
0.0
 10
37.463174
 20
20.564287
 30
0.0
  0
LWPOLYLINE
  5
114
100
AcDbEntity
  8
Layer_1
 62
5
100
AcDbPolyline
 90
10
 70
1
 10
35.912728
 20
17.890898
 30
0.0
 10
35.006582
 20
16.321412
 30
0.0
 10
33.784216
 20
16.321412
 30
0.0
 10
33.196767
 20
17.338939
 30
0.0
 10
33.785068
 20
17.338939
 30
0.0
 10
34.420714
 20
18.439912
 30
0.0
 10
34.126499
 20
18.949509
 30
0.0
 10
35.301517
 20
18.949509
 30
0.0
 10
35.912728
 20
17.890926
 30
0.0
 10
35.912728
 20
17.890898
 30
0.0
  0
LWPOLYLINE
  5
115
100
AcDbEntity
  8
Layer_1
 62
5
100
AcDbPolyline
 90
10
 70
1
 10
38.699629
 20
22.729148
 30
0.0
 10
37.790713
 20
21.154856
 30
0.0
 10
36.573914
 20
21.154856
 30
0.0
 10
35.986470
 20
22.172356
 30
0.0
 10
36.574778
 20
22.172356
 30
0.0
 10
37.210424
 20
23.273328
 30
0.0
 10
36.916202
 20
23.782898
 30
0.0
 10
38.091220
 20
23.782898
 30
0.0
 10
38.699629
 20
22.729134
 30
0.0
 10
38.699629
 20
22.729148
 30
0.0
  0
LWPOLYLINE
  5
116
100
AcDbEntity
  8
Layer_1
 62
5
100
AcDbPolyline
 90
13
 70
1
 10
31.681049
 20
10.573467
 30
0.0
 10
30.504382
 20
8.535426
 30
0.0
 10
27.469742
 20
8.535426
 30
0.0
 10
26.293168
 20
10.573314
 30
0.0
 10
27.466877
 20
10.573314
 30
0.0
 10
28.738168
 20
12.775259
 30
0.0
 10
28.151392
 20
13.791564
 30
0.0
 10
29.817349
 20
13.791564
 30
0.0
 10
29.230682
 20
12.775426
 30
0.0
 10
30.501992
 20
10.573481
 30
0.0
 10
30.842938
 20
10.573481
 30
0.0
 10
31.681049
 20
10.573481
 30
0.0
 10
31.681049
 20
10.573467
 30
0.0
  0
LWPOLYLINE
  5
117
100
AcDbEntity
  8
Layer_1
 62
5
100
AcDbPolyline
 90
6
 70
1
 10
32.952059
 20
12.775398
 30
0.0
 10
32.703468
 20
12.344828
 30
0.0
 10
31.865485
 20
13.796259
 30
0.0
 10
32.362668
 20
13.796259
 30
0.0
 10
32.952059
 20
12.775412
 30
0.0
 10
32.952059
 20
12.775398
 30
0.0
  0
LWPOLYLINE
  5
118
100
AcDbEntity
  8
Layer_1
 62
5
100
AcDbPolyline
 90
6
 70
1
 10
40.976817
 20
26.685801
 30
0.0
 10
40.732511
 20
26.262648
 30
0.0
 10
39.553750
 20
26.262648
 30
0.0
 10
39.309466
 20
26.685801
 30
0.0
 10
40.976817
 20
26.685801
 30
0.0
 10
40.976817
 20
26.685801
 30
0.0
  0
LWPOLYLINE
  5
119
100
AcDbEntity
  8
Layer_1
 62
5
100
AcDbPolyline
 90
12
 70
1
 10
43.175136
 20
30.494953
 30
0.0
 10
42.003359
 20
28.465370
 30
0.0
 10
41.414432
 20
29.485426
 30
0.0
 10
38.871859
 20
29.485426
 30
0.0
 10
38.280275
 20
28.460773
 30
0.0
 10
37.446599
 20
29.904787
 30
0.0
 10
38.620325
 20
29.904787
 30
0.0
 10
39.891610
 20
32.106703
 30
0.0
 10
39.304852
 20
33.123009
 30
0.0
 10
41.657803
 20
33.123009
 30
0.0
 10
43.175136
 20
30.494939
 30
0.0
 10
43.175136
 20
30.494953
 30
0.0
  0
LWPOLYLINE
  5
11a
100
AcDbEntity
  8
Layer_1
 62
5
100
AcDbPolyline
 90
6
 70
1
 10
40.985068
 20
27.866884
 30
0.0
 10
39.301206
 20
27.866884
 30
0.0
 10
39.553754
 20
28.304314
 30
0.0
 10
40.732516
 20
28.304314
 30
0.0
 10
40.985068
 20
27.866884
 30
0.0
 10
40.985068
 20
27.866884
 30
0.0
  0
LWPOLYLINE
  5
11b
100
AcDbEntity
  8
Layer_1
 62
5
100
AcDbPolyline
 90
6
 70
1
 10
31.680441
 20
11.754564
 30
0.0
 10
31.183906
 20
11.754564
 30
0.0
 10
30.594520
 20
12.775384
 30
0.0
 10
30.842797
 20
13.205426
 30
0.0
 10
31.680441
 20
11.754564
 30
0.0
 10
31.680441
 20
11.754564
 30
0.0
  0
LWPOLYLINE
  5
11c
100
AcDbEntity
  8
Layer_1
 62
5
100
AcDbPolyline
 90
10
 70
1
 10
33.268482
 20
16.025231
 30
0.0
 10
32.663496
 20
14.977370
 30
0.0
 10
30.838868
 20
14.977370
 30
0.0
 10
30.233868
 20
16.025231
 30
0.0
 10
30.821528
 20
17.043092
 30
0.0
 10
31.116163
 20
16.532801
 30
0.0
 10
32.387445
 20
16.532801
 30
0.0
 10
32.681445
 20
17.042023
 30
0.0
 10
33.268482
 20
16.025245
 30
0.0
 10
33.268482
 20
16.025231
 30
0.0
  0
LWPOLYLINE
  5
11d
100
AcDbEntity
  8
Layer_1
 62
5
100
AcDbPolyline
 90
13
 70
1
 10
38.684107
 20
25.406703
 30
0.0
 10
38.090552
 20
24.378634
 30
0.0
 10
36.916381
 20
24.378634
 30
0.0
 10
37.210089
 20
24.887356
 30
0.0
 10
36.574442
 20
25.988342
 30
0.0
 10
36.403961
 20
25.988342
 30
0.0
 10
35.985260
 20
25.988342
 30
0.0
 10
36.573225
 20
27.006731
 30
0.0
 10
37.755995
 20
27.006731
 30
0.0
 10
37.941274
 20
26.685801
 30
0.0
 10
37.945628
 20
26.685801
 30
0.0
 10
38.684107
 20
25.406731
 30
0.0
 10
38.684107
 20
25.406703
 30
0.0
  0
LWPOLYLINE
  5
11e
100
AcDbEntity
  8
Layer_1
 62
5
100
AcDbPolyline
 90
13
 70
1
 10
36.058153
 20
20.858703
 30
0.0
 10
35.299820
 20
19.545231
 30
0.0
 10
34.126643
 20
19.545231
 30
0.0
 10
34.420352
 20
20.053939
 30
0.0
 10
33.784699
 20
21.154912
 30
0.0
 10
33.614232
 20
21.154912
 30
0.0
 10
33.195522
 20
21.154912
 30
0.0
 10
33.611668
 20
21.875703
 30
0.0
 10
33.905788
 20
21.366259
 30
0.0
 10
35.177088
 20
21.366259
 30
0.0
 10
35.471102
 20
21.875509
 30
0.0
 10
36.058153
 20
20.858717
 30
0.0
 10
36.058153
 20
20.858703
 30
0.0
  0
LWPOLYLINE
  5
11f
100
AcDbEntity
  8
Layer_1
 62
5
100
AcDbPolyline
 90
6
 70
1
 10
33.738774
 20
18.439898
 30
0.0
 10
33.444093
 20
17.929495
 30
0.0
 10
33.195288
 20
17.929495
 30
0.0
 10
33.614364
 20
18.655356
 30
0.0
 10
33.738774
 20
18.439898
 30
0.0
 10
33.738774
 20
18.439898
 30
0.0
  0
LWPOLYLINE
  5
120
100
AcDbEntity
  8
Layer_1
 62
5
100
AcDbPolyline
 90
6
 70
1
 10
36.528468
 20
23.273342
 30
0.0
 10
36.233781
 20
22.762939
 30
0.0
 10
35.985000
 20
22.762939
 30
0.0
 10
36.404077
 20
23.488801
 30
0.0
 10
36.528468
 20
23.273342
 30
0.0
 10
36.528468
 20
23.273342
 30
0.0
  0
LWPOLYLINE
  5
121
100
AcDbEntity
  8
Layer_1
 62
5
100
AcDbPolyline
 90
6
 70
1
 10
33.102746
 20
18.950328
 30
0.0
 10
32.684038
 20
18.225106
 30
0.0
 10
32.560010
 20
18.439926
 30
0.0
 10
32.854691
 20
18.950328
 30
0.0
 10
33.102746
 20
18.950328
 30
0.0
 10
33.102746
 20
18.950328
 30
0.0
  0
LWPOLYLINE
  5
122
100
AcDbEntity
  8
Layer_1
 62
5
100
AcDbPolyline
 90
6
 70
1
 10
35.892446
 20
23.783759
 30
0.0
 10
35.473738
 20
23.058523
 30
0.0
 10
35.349710
 20
23.273356
 30
0.0
 10
35.644397
 20
23.783759
 30
0.0
 10
35.892446
 20
23.783759
 30
0.0
 10
35.892446
 20
23.783759
 30
0.0
  0
LWPOLYLINE
  5
123
100
AcDbEntity
  8
Layer_1
 62
5
100
AcDbPolyline
 90
6
 70
1
 10
33.738420
 20
20.053926
 30
0.0
 10
33.614107
 20
19.838606
 30
0.0
 10
33.195081
 20
20.564356
 30
0.0
 10
33.443739
 20
20.564356
 30
0.0
 10
33.738420
 20
20.053926
 30
0.0
 10
33.738420
 20
20.053926
 30
0.0
  0
LWPOLYLINE
  5
124
100
AcDbEntity
  8
Layer_1
 62
5
100
AcDbPolyline
 90
6
 70
1
 10
32.171114
 20
17.339273
 30
0.0
 10
32.046448
 20
17.123342
 30
0.0
 10
31.457073
 20
17.123342
 30
0.0
 10
31.332399
 20
17.339259
 30
0.0
 10
32.171114
 20
17.339259
 30
0.0
 10
32.171114
 20
17.339273
 30
0.0
  0
LWPOLYLINE
  5
125
100
AcDbEntity
  8
Layer_1
 62
5
100
AcDbPolyline
 90
6
 70
1
 10
36.528121
 20
24.887384
 30
0.0
 10
36.403795
 20
24.672051
 30
0.0
 10
35.984777
 20
25.397801
 30
0.0
 10
36.233427
 20
25.397801
 30
0.0
 10
36.528121
 20
24.887384
 30
0.0
 10
36.528121
 20
24.887384
 30
0.0
  0
LWPOLYLINE
  5
126
100
AcDbEntity
  8
Layer_1
 62
5
100
AcDbPolyline
 90
6
 70
1
 10
34.960795
 20
22.172703
 30
0.0
 10
34.836142
 20
21.956787
 30
0.0
 10
34.246767
 20
21.956787
 30
0.0
 10
34.122093
 20
22.172703
 30
0.0
 10
34.960795
 20
22.172703
 30
0.0
 10
34.960795
 20
22.172703
 30
0.0
  0
LWPOLYLINE
  5
127
100
AcDbEntity
  8
Layer_1
 62
5
100
AcDbPolyline
 90
11
 70
1
 10
26.437839
 20
7.941453
 30
0.0
 10
24.920527
 20
5.313384
 30
0.0
 10
21.885900
 20
5.313384
 30
0.0
 10
20.368575
 20
7.941453
 30
0.0
 10
21.542735
 20
9.975162
 30
0.0
 10
22.128722
 20
8.960217
 30
0.0
 10
22.469663
 20
8.960217
 30
0.0
 10
24.671316
 20
8.960217
 30
0.0
 10
25.260482
 20
9.980689
 30
0.0
 10
26.437839
 20
7.941453
 30
0.0
 10
26.437839
 20
7.941453
 30
0.0
  0
LWPOLYLINE
  5
128
100
AcDbEntity
  8
Layer_1
 62
5
100
AcDbPolyline
 90
10
 70
1
 10
43.173303
 20
36.940981
 30
0.0
 10
41.655998
 20
34.312926
 30
0.0
 10
39.301132
 20
34.312926
 30
0.0
 10
39.890591
 20
35.333898
 30
0.0
 10
38.619303
 20
37.535870
 30
0.0
 10
37.447484
 20
37.535870
 30
0.0
 10
38.621352
 20
39.569078
 30
0.0
 10
41.655996
 20
39.569078
 30
0.0
 10
43.173303
 20
36.941023
 30
0.0
 10
43.173303
 20
36.940981
 30
0.0
  0
LWPOLYLINE
  5
129
100
AcDbEntity
  8
Layer_1
 62
5
100
AcDbPolyline
 90
6
 70
1
 10
32.170223
 20
17.929828
 30
0.0
 10
31.333313
 20
17.929828
 30
0.0
 10
31.457070
 20
18.144189
 30
0.0
 10
32.046477
 20
18.144189
 30
0.0
 10
32.170223
 20
17.929842
 30
0.0
 10
32.170223
 20
17.929828
 30
0.0
  0
LWPOLYLINE
  5
12a
100
AcDbEntity
  8
Layer_1
 62
5
100
AcDbPolyline
 90
6
 70
1
 10
35.892273
 20
24.376939
 30
0.0
 10
35.644077
 20
24.376939
 30
0.0
 10
35.349382
 20
24.887342
 30
0.0
 10
35.473486
 20
25.102301
 30
0.0
 10
35.892273
 20
24.376926
 30
0.0
 10
35.892273
 20
24.376939
 30
0.0
  0
LWPOLYLINE
  5
12b
100
AcDbEntity
  8
Layer_1
 62
5
100
AcDbPolyline
 90
6
 70
1
 10
33.100936
 20
19.543509
 30
0.0
 10
32.854391
 20
19.543509
 30
0.0
 10
32.559698
 20
20.053912
 30
0.0
 10
32.682968
 20
20.267426
 30
0.0
 10
33.100936
 20
19.543495
 30
0.0
 10
33.100936
 20
19.543509
 30
0.0
  0
LWPOLYLINE
  5
12c
100
AcDbEntity
  8
Layer_1
 62
5
100
AcDbPolyline
 90
6
 70
1
 10
34.959571
 20
22.763842
 30
0.0
 10
34.123335
 20
22.763842
 30
0.0
 10
34.246759
 20
22.977620
 30
0.0
 10
34.836148
 20
22.977620
 30
0.0
 10
34.959571
 20
22.763842
 30
0.0
 10
34.959571
 20
22.763842
 30
0.0
  0
LWPOLYLINE
  5
12d
100
AcDbEntity
  8
Layer_1
 62
5
100
AcDbPolyline
 90
6
 70
1
 10
30.159625
 20
14.972662
 30
0.0
 10
27.757136
 20
14.972662
 30
0.0
 10
28.195956
 20
15.732731
 30
0.0
 10
29.720814
 20
15.732731
 30
0.0
 10
30.159625
 20
14.972676
 30
0.0
 10
30.159625
 20
14.972662
 30
0.0
  0
LWPOLYLINE
  5
12e
100
AcDbEntity
  8
Layer_1
 62
5
100
AcDbPolyline
 90
6
 70
1
 10
37.415020
 20
27.597273
 30
0.0
 10
36.569189
 20
27.597273
 30
0.0
 10
35.805724
 20
28.919648
 30
0.0
 10
36.228627
 20
29.652148
 30
0.0
 10
37.415020
 20
27.597273
 30
0.0
 10
37.415020
 20
27.597273
 30
0.0
  0
LWPOLYLINE
  5
12f
100
AcDbEntity
  8
Layer_1
 62
5
100
AcDbPolyline
 90
8
 70
1
 10
32.343885
 20
19.246620
 30
0.0
 10
32.048343
 20
18.734731
 30
0.0
 10
31.455075
 20
18.734731
 30
0.0
 10
31.120034
 20
19.315051
 30
0.0
 10
31.421082
 20
19.836495
 30
0.0
 10
32.003324
 20
19.836495
 30
0.0
 10
32.343885
 20
19.246634
 30
0.0
 10
32.343885
 20
19.246620
 30
0.0
  0
LWPOLYLINE
  5
130
100
AcDbEntity
  8
Layer_1
 62
5
100
AcDbPolyline
 90
8
 70
1
 10
35.133573
 20
24.080051
 30
0.0
 10
34.838038
 20
23.568176
 30
0.0
 10
34.143159
 20
23.568176
 30
0.0
 10
33.858595
 20
24.061064
 30
0.0
 10
34.165977
 20
24.593467
 30
0.0
 10
34.837166
 20
24.593467
 30
0.0
 10
35.133573
 20
24.080078
 30
0.0
 10
35.133573
 20
24.080051
 30
0.0
  0
LWPOLYLINE
  5
131
100
AcDbEntity
  8
Layer_1
 62
5
100
AcDbPolyline
 90
10
 70
1
 10
32.342010
 20
20.857995
 30
0.0
 10
31.979538
 20
20.230176
 30
0.0
 10
31.422866
 20
20.230176
 30
0.0
 10
31.071935
 20
20.837967
 30
0.0
 10
31.422852
 20
21.445773
 30
0.0
 10
32.124685
 20
21.445773
 30
0.0
 10
32.402636
 20
20.964356
 30
0.0
 10
32.341622
 20
20.858676
 30
0.0
 10
32.341997
 20
20.857981
 30
0.0
 10
32.342010
 20
20.857995
 30
0.0
  0
LWPOLYLINE
  5
132
100
AcDbEntity
  8
Layer_1
 62
5
100
AcDbPolyline
 90
6
 70
1
 10
33.146891
 20
22.253426
 30
0.0
 10
32.629953
 20
21.358064
 30
0.0
 10
32.464796
 20
21.644134
 30
0.0
 10
32.816567
 20
22.253412
 30
0.0
 10
33.146891
 20
22.253412
 30
0.0
 10
33.146891
 20
22.253426
 30
0.0
  0
LWPOLYLINE
  5
133
100
AcDbEntity
  8
Layer_1
 62
5
100
AcDbPolyline
 90
8
 70
1
 10
33.797174
 20
23.380023
 30
0.0
 10
33.374035
 20
22.647120
 30
0.0
 10
32.816642
 20
22.647120
 30
0.0
 10
32.465732
 20
23.254898
 30
0.0
 10
32.816649
 20
23.862703
 30
0.0
 10
33.518461
 20
23.862703
 30
0.0
 10
33.797174
 20
23.379995
 30
0.0
 10
33.797174
 20
23.380023
 30
0.0
  0
LWPOLYLINE
  5
134
100
AcDbEntity
  8
Layer_1
 62
5
100
AcDbPolyline
 90
6
 70
1
 10
30.942813
 20
18.440856
 30
0.0
 10
30.818438
 20
18.225426
 30
0.0
 10
30.399360
 20
18.951301
 30
0.0
 10
30.648127
 20
18.951301
 30
0.0
 10
30.942813
 20
18.440884
 30
0.0
 10
30.942813
 20
18.440856
 30
0.0
  0
LWPOLYLINE
  5
135
100
AcDbEntity
  8
Layer_1
 62
5
100
AcDbPolyline
 90
6
 70
1
 10
34.959110
 20
25.398814
 30
0.0
 10
34.835096
 20
25.184009
 30
0.0
 10
34.245721
 20
25.184009
 30
0.0
 10
34.121718
 20
25.398787
 30
0.0
 10
34.959110
 20
25.398787
 30
0.0
 10
34.959110
 20
25.398814
 30
0.0
  0
LWPOLYLINE
  5
136
100
AcDbEntity
  8
Layer_1
 62
5
100
AcDbPolyline
 90
12
 70
1
 10
30.303709
 20
17.339898
 30
0.0
 10
29.716959
 20
16.323606
 30
0.0
 10
28.199909
 20
16.323606
 30
0.0
 10
27.612446
 20
17.341120
 30
0.0
 10
28.200774
 20
17.341120
 30
0.0
 10
28.836420
 20
18.442092
 30
0.0
 10
28.542396
 20
18.951356
 30
0.0
 10
29.376871
 20
18.951356
 30
0.0
 10
29.082142
 20
18.440870
 30
0.0
 10
29.717789
 20
17.339898
 30
0.0
 10
30.303709
 20
17.339898
 30
0.0
 10
30.303709
 20
17.339898
 30
0.0
  0
LWPOLYLINE
  5
137
100
AcDbEntity
  8
Layer_1
 62
5
100
AcDbPolyline
 90
13
 70
1
 10
36.052593
 20
27.303370
 30
0.0
 10
35.467698
 20
26.290301
 30
0.0
 10
35.176061
 20
26.795412
 30
0.0
 10
35.005582
 20
26.795412
 30
0.0
 10
33.904786
 20
26.795412
 30
0.0
 10
33.610189
 20
26.285162
 30
0.0
 10
33.193513
 20
27.006856
 30
0.0
 10
33.777472
 20
27.006856
 30
0.0
 10
34.413125
 20
28.107842
 30
0.0
 10
34.118928
 20
28.617412
 30
0.0
 10
35.293928
 20
28.617412
 30
0.0
 10
36.052593
 20
27.303384
 30
0.0
 10
36.052593
 20
27.303370
 30
0.0
  0
LWPOLYLINE
  5
138
100
AcDbEntity
  8
Layer_1
 62
5
100
AcDbPolyline
 90
6
 70
1
 10
27.374318
 20
12.775287
 30
0.0
 10
26.784929
 20
11.754426
 30
0.0
 10
26.293557
 20
11.754426
 30
0.0
 10
27.128627
 20
13.200801
 30
0.0
 10
27.374318
 20
12.775273
 30
0.0
 10
27.374318
 20
12.775287
 30
0.0
  0
LWPOLYLINE
  5
139
100
AcDbEntity
  8
Layer_1
 62
5
100
AcDbPolyline
 90
6
 70
1
 10
38.527754
 20
32.106759
 30
0.0
 10
37.938373
 20
31.085912
 30
0.0
 10
37.446995
 20
31.085912
 30
0.0
 10
38.282064
 20
32.532287
 30
0.0
 10
38.527754
 20
32.106759
 30
0.0
 10
38.527754
 20
32.106759
 30
0.0
  0
LWPOLYLINE
  5
13a
100
AcDbEntity
  8
Layer_1
 62
5
100
AcDbPolyline
 90
6
 70
1
 10
30.306179
 20
17.930453
 30
0.0
 10
30.058748
 20
17.930453
 30
0.0
 10
29.764054
 20
18.440856
 30
0.0
 10
29.887777
 20
18.655148
 30
0.0
 10
30.306179
 20
17.930453
 30
0.0
 10
30.306179
 20
17.930453
 30
0.0
  0
LWPOLYLINE
  5
13b
100
AcDbEntity
  8
Layer_1
 62
5
100
AcDbPolyline
 90
6
 70
1
 10
34.958728
 20
25.990773
 30
0.0
 10
34.122114
 20
25.990773
 30
0.0
 10
34.245739
 20
26.204898
 30
0.0
 10
34.835113
 20
26.204898
 30
0.0
 10
34.958728
 20
25.990801
 30
0.0
 10
34.958728
 20
25.990773
 30
0.0
  0
LWPOLYLINE
  5
13c
100
AcDbEntity
  8
Layer_1
 62
5
100
AcDbPolyline
 90
10
 70
1
 10
31.079638
 20
20.032481
 30
0.0
 10
30.796360
 20
19.541828
 30
0.0
 10
30.058410
 20
19.541828
 30
0.0
 10
30.058216
 20
19.542245
 30
0.0
 10
29.959057
 20
19.542245
 30
0.0
 10
29.675985
 20
20.032495
 30
0.0
 10
30.026909
 20
20.640314
 30
0.0
 10
30.728748
 20
20.640314
 30
0.0
 10
31.079671
 20
20.032509
 30
0.0
 10
31.079638
 20
20.032481
 30
0.0
  0
LWPOLYLINE
  5
13d
100
AcDbEntity
  8
Layer_1
 62
5
100
AcDbPolyline
 90
10
 70
1
 10
33.808057
 20
24.760995
 30
0.0
 10
33.518023
 20
24.258648
 30
0.0
 10
32.816184
 20
24.258648
 30
0.0
 10
32.465279
 20
24.866439
 30
0.0
 10
32.816189
 20
25.474245
 30
0.0
 10
33.392110
 20
25.474245
 30
0.0
 10
33.435660
 20
25.398814
 30
0.0
 10
33.439821
 20
25.398814
 30
0.0
 10
33.808057
 20
24.761009
 30
0.0
 10
33.808057
 20
24.760995
 30
0.0
  0
LWPOLYLINE
  5
13e
100
AcDbEntity
  8
Layer_1
 62
5
100
AcDbPolyline
 90
8
 70
1
 10
32.473467
 20
22.449426
 30
0.0
 10
32.122585
 20
21.841676
 30
0.0
 10
31.422421
 20
21.841676
 30
0.0
 10
31.071498
 20
22.449481
 30
0.0
 10
31.422373
 20
23.057217
 30
0.0
 10
32.122531
 20
23.057217
 30
0.0
 10
32.473467
 20
22.449439
 30
0.0
 10
32.473467
 20
22.449426
 30
0.0
  0
LWPOLYLINE
  5
13f
100
AcDbEntity
  8
Layer_1
 62
5
100
AcDbPolyline
 90
8
 70
1
 10
31.081435
 20
21.641828
 30
0.0
 10
30.730491
 20
21.033967
 30
0.0
 10
30.024920
 20
21.033967
 30
0.0
 10
29.671423
 20
21.646203
 30
0.0
 10
30.020846
 20
22.251426
 30
0.0
 10
30.729499
 20
22.251426
 30
0.0
 10
31.081435
 20
21.641814
 30
0.0
 10
31.081435
 20
21.641828
 30
0.0
  0
LWPOLYLINE
  5
140
100
AcDbEntity
  8
Layer_1
 62
5
100
AcDbPolyline
 90
8
 70
1
 10
32.476114
 20
24.060259
 30
0.0
 10
32.124350
 20
23.450981
 30
0.0
 10
31.415620
 20
23.450981
 30
0.0
 10
31.064543
 20
24.059092
 30
0.0
 10
31.416988
 20
24.669551
 30
0.0
 10
32.124363
 20
24.669551
 30
0.0
 10
32.476114
 20
24.060273
 30
0.0
 10
32.476114
 20
24.060259
 30
0.0
  0
LWPOLYLINE
  5
141
100
AcDbEntity
  8
Layer_1
 62
5
100
AcDbPolyline
 90
10
 70
1
 10
27.684199
 20
16.027384
 30
0.0
 10
27.077873
 20
14.977203
 30
0.0
 10
25.255884
 20
14.977203
 30
0.0
 10
24.649568
 20
16.027426
 30
0.0
 10
25.237221
 20
17.045273
 30
0.0
 10
25.531849
 20
16.534967
 30
0.0
 10
26.803142
 20
16.534967
 30
0.0
 10
27.097156
 20
17.044217
 30
0.0
 10
27.684199
 20
16.027412
 30
0.0
 10
27.684199
 20
16.027384
 30
0.0
  0
LWPOLYLINE
  5
142
100
AcDbEntity
  8
Layer_1
 62
5
100
AcDbPolyline
 90
11
 70
1
 10
35.885142
 20
30.238301
 30
0.0
 10
35.293260
 20
29.213134
 30
0.0
 10
34.119109
 20
29.213134
 30
0.0
 10
34.412817
 20
29.721856
 30
0.0
 10
33.777171
 20
30.822842
 30
0.0
 10
33.606684
 20
30.822842
 30
0.0
 10
33.187974
 20
30.822842
 30
0.0
 10
33.775939
 20
31.841231
 30
0.0
 10
34.959743
 20
31.841231
 30
0.0
 10
35.885142
 20
30.238342
 30
0.0
 10
35.885142
 20
30.238301
 30
0.0
  0
LWPOLYLINE
  5
143
100
AcDbEntity
  8
Layer_1
 62
5
100
AcDbPolyline
 90
6
 70
1
 10
33.164846
 20
25.867939
 30
0.0
 10
32.814216
 20
25.867939
 30
0.0
 10
32.461549
 20
26.478759
 30
0.0
 10
32.636875
 20
26.782439
 30
0.0
 10
33.164846
 20
25.867967
 30
0.0
 10
33.164846
 20
25.867939
 30
0.0
  0
LWPOLYLINE
  5
144
100
AcDbEntity
  8
Layer_1
 62
5
100
AcDbPolyline
 90
6
 70
1
 10
29.504441
 20
19.542203
 30
0.0
 10
28.458585
 20
19.542203
 30
0.0
 10
28.628620
 20
19.836703
 30
0.0
 10
29.334421
 20
19.836703
 30
0.0
 10
29.504441
 20
19.542217
 30
0.0
 10
29.504441
 20
19.542203
 30
0.0
  0
LWPOLYLINE
  5
145
100
AcDbEntity
  8
Layer_1
 62
5
100
AcDbPolyline
 90
6
 70
1
 10
26.108542
 20
13.796092
 30
0.0
 10
25.267986
 20
12.340217
 30
0.0
 10
25.016809
 20
12.775259
 30
0.0
 10
25.606198
 20
13.796106
 30
0.0
 10
26.108542
 20
13.796106
 30
0.0
 10
26.108542
 20
13.796092
 30
0.0
  0
LWPOLYLINE
  5
146
100
AcDbEntity
  8
Layer_1
 62
5
100
AcDbPolyline
 90
6
 70
1
 10
37.261986
 20
33.127578
 30
0.0
 10
36.421424
 20
31.671689
 30
0.0
 10
36.170252
 20
32.106745
 30
0.0
 10
36.759634
 20
33.127578
 30
0.0
 10
37.261986
 20
33.127578
 30
0.0
 10
37.261986
 20
33.127578
 30
0.0
  0
LWPOLYLINE
  5
147
100
AcDbEntity
  8
Layer_1
 62
5
100
AcDbPolyline
 90
6
 70
1
 10
24.236646
 20
10.569495
 30
0.0
 10
23.989424
 20
10.141301
 30
0.0
 10
22.810650
 20
10.141301
 30
0.0
 10
22.563418
 20
10.569509
 30
0.0
 10
24.236646
 20
10.569509
 30
0.0
 10
24.236646
 20
10.569495
 30
0.0
  0
LWPOLYLINE
  5
148
100
AcDbEntity
  8
Layer_1
 62
5
100
AcDbPolyline
 90
6
 70
1
 10
38.526778
 20
35.333884
 30
0.0
 10
38.279341
 20
34.905314
 30
0.0
 10
37.442528
 20
36.354745
 30
0.0
 10
37.937404
 20
36.354745
 30
0.0
 10
38.526778
 20
35.333898
 30
0.0
 10
38.526778
 20
35.333884
 30
0.0
  0
LWPOLYLINE
  5
149
100
AcDbEntity
  8
Layer_1
 62
5
100
AcDbPolyline
 90
8
 70
1
 10
29.683046
 20
20.838356
 30
0.0
 10
29.332220
 20
20.230703
 30
0.0
 10
28.630406
 20
20.230703
 30
0.0
 10
28.279566
 20
20.838356
 30
0.0
 10
28.630343
 20
21.445912
 30
0.0
 10
29.332260
 20
21.445912
 30
0.0
 10
29.683046
 20
20.838342
 30
0.0
 10
29.683046
 20
20.838356
 30
0.0
  0
LWPOLYLINE
  5
14a
100
AcDbEntity
  8
Layer_1
 62
5
100
AcDbPolyline
 90
8
 70
1
 10
32.471485
 20
25.671078
 30
0.0
 10
32.121367
 20
25.064648
 30
0.0
 10
31.419714
 20
25.064648
 30
0.0
 10
31.068798
 20
25.672426
 30
0.0
 10
31.418916
 20
26.278842
 30
0.0
 10
32.120574
 20
26.278842
 30
0.0
 10
32.471485
 20
25.671064
 30
0.0
 10
32.471485
 20
25.671078
 30
0.0
  0
LWPOLYLINE
  5
14b
100
AcDbEntity
  8
Layer_1
 62
5
100
AcDbPolyline
 90
8
 70
1
 10
31.075381
 20
23.252953
 30
0.0
 10
30.724457
 20
22.645134
 30
0.0
 10
30.022638
 20
22.645134
 30
0.0
 10
29.671714
 20
23.252953
 30
0.0
 10
30.022638
 20
23.860759
 30
0.0
 10
30.724471
 20
23.860759
 30
0.0
 10
31.075381
 20
23.252981
 30
0.0
 10
31.075381
 20
23.252953
 30
0.0
  0
LWPOLYLINE
  5
14c
100
AcDbEntity
  8
Layer_1
 62
5
100
AcDbPolyline
 90
6
 70
1
 10
28.154554
 20
18.442064
 30
0.0
 10
27.859860
 20
17.931634
 30
0.0
 10
27.611048
 20
17.931634
 30
0.0
 10
28.030159
 20
18.657564
 30
0.0
 10
28.154554
 20
18.442078
 30
0.0
 10
28.154554
 20
18.442064
 30
0.0
  0
LWPOLYLINE
  5
14d
100
AcDbEntity
  8
Layer_1
 62
5
100
AcDbPolyline
 90
6
 70
1
 10
33.731286
 20
28.107801
 30
0.0
 10
33.436592
 20
27.597370
 30
0.0
 10
33.190496
 20
27.597370
 30
0.0
 10
33.608246
 20
28.320926
 30
0.0
 10
33.731286
 20
28.107787
 30
0.0
 10
33.731286
 20
28.107801
 30
0.0
  0
LWPOLYLINE
  5
14e
100
AcDbEntity
  8
Layer_1
 62
5
100
AcDbPolyline
 90
6
 70
1
 10
24.239053
 20
11.750620
 30
0.0
 10
22.561039
 20
11.750620
 30
0.0
 10
22.810671
 20
12.182995
 30
0.0
 10
23.989427
 20
12.182995
 30
0.0
 10
24.239053
 20
11.750648
 30
0.0
 10
24.239053
 20
11.750620
 30
0.0
  0
LWPOLYLINE
  5
14f
100
AcDbEntity
  8
Layer_1
 62
5
100
AcDbPolyline
 90
6
 70
1
 10
37.257500
 20
34.313037
 30
0.0
 10
36.758660
 20
34.313037
 30
0.0
 10
36.169286
 20
35.333884
 30
0.0
 10
36.418689
 20
35.765856
 30
0.0
 10
37.257500
 20
34.313037
 30
0.0
 10
37.257500
 20
34.313037
 30
0.0
  0
LWPOLYLINE
  5
150
100
AcDbEntity
  8
Layer_1
 62
5
100
AcDbPolyline
 90
8
 70
1
 10
28.287206
 20
20.032676
 30
0.0
 10
28.004518
 20
19.543037
 30
0.0
 10
27.166235
 20
19.543037
 30
0.0
 10
26.883527
 20
20.032662
 30
0.0
 10
27.234443
 20
20.640467
 30
0.0
 10
27.936282
 20
20.640467
 30
0.0
 10
28.287206
 20
20.032662
 30
0.0
 10
28.287206
 20
20.032676
 30
0.0
  0
LWPOLYLINE
  5
151
100
AcDbEntity
  8
Layer_1
 62
5
100
AcDbPolyline
 90
8
 70
1
 10
32.409059
 20
27.175134
 30
0.0
 10
32.120163
 20
26.674759
 30
0.0
 10
31.418316
 20
26.674759
 30
0.0
 10
31.067400
 20
27.282578
 30
0.0
 10
31.418310
 20
27.890384
 30
0.0
 10
31.996104
 20
27.890384
 30
0.0
 10
32.409059
 20
27.175162
 30
0.0
 10
32.409059
 20
27.175134
 30
0.0
  0
LWPOLYLINE
  5
152
100
AcDbEntity
  8
Layer_1
 62
5
100
AcDbPolyline
 90
8
 70
1
 10
31.074968
 20
24.864426
 30
0.0
 10
30.724045
 20
24.256606
 30
0.0
 10
30.022203
 20
24.256606
 30
0.0
 10
29.673863
 20
24.859939
 30
0.0
 10
30.027370
 20
25.472231
 30
0.0
 10
30.724043
 20
25.472231
 30
0.0
 10
31.074968
 20
24.864426
 30
0.0
 10
31.074968
 20
24.864426
 30
0.0
  0
LWPOLYLINE
  5
153
100
AcDbEntity
  8
Layer_1
 62
5
100
AcDbPolyline
 90
8
 70
1
 10
29.679489
 20
22.447384
 30
0.0
 10
29.328795
 20
21.839967
 30
0.0
 10
28.626485
 20
21.839967
 30
0.0
 10
28.275809
 20
22.447384
 30
0.0
 10
28.626725
 20
23.055189
 30
0.0
 10
29.328564
 20
23.055189
 30
0.0
 10
29.679489
 20
22.447370
 30
0.0
 10
29.679489
 20
22.447384
 30
0.0
  0
LWPOLYLINE
  5
154
100
AcDbEntity
  8
Layer_1
 62
5
100
AcDbPolyline
 90
6
 70
1
 10
27.518321
 20
18.952439
 30
0.0
 10
27.099738
 20
18.227439
 30
0.0
 10
26.975848
 20
18.442023
 30
0.0
 10
27.270542
 20
18.952453
 30
0.0
 10
27.518321
 20
18.952453
 30
0.0
 10
27.518321
 20
18.952439
 30
0.0
  0
LWPOLYLINE
  5
155
100
AcDbEntity
  8
Layer_1
 62
5
100
AcDbPolyline
 90
6
 70
1
 10
26.586931
 20
17.341398
 30
0.0
 10
26.462250
 20
17.125439
 30
0.0
 10
25.872891
 20
17.125439
 30
0.0
 10
25.748217
 20
17.341356
 30
0.0
 10
26.586931
 20
17.341356
 30
0.0
 10
26.586931
 20
17.341398
 30
0.0
  0
LWPOLYLINE
  5
156
100
AcDbEntity
  8
Layer_1
 62
5
100
AcDbPolyline
 90
6
 70
1
 10
33.095310
 20
28.618189
 30
0.0
 10
32.676588
 20
27.892939
 30
0.0
 10
32.552561
 20
28.107773
 30
0.0
 10
32.847256
 20
28.618189
 30
0.0
 10
33.095310
 20
28.618189
 30
0.0
 10
33.095310
 20
28.618189
 30
0.0
  0
LWPOLYLINE
  5
157
100
AcDbEntity
  8
Layer_1
 62
5
100
AcDbPolyline
 90
6
 70
1
 10
33.730995
 20
29.721787
 30
0.0
 10
33.606654
 20
29.506426
 30
0.0
 10
33.187629
 20
30.232217
 30
0.0
 10
33.436282
 20
30.232217
 30
0.0
 10
33.730995
 20
29.721801
 30
0.0
 10
33.730995
 20
29.721787
 30
0.0
  0
LWPOLYLINE
  5
158
100
AcDbEntity
  8
Layer_1
 62
5
100
AcDbPolyline
 90
8
 70
1
 10
24.749218
 20
14.673801
 30
0.0
 10
23.993038
 20
13.364051
 30
0.0
 10
22.806660
 20
13.364051
 30
0.0
 10
22.213834
 20
14.390842
 30
0.0
 10
22.989799
 20
15.734856
 30
0.0
 10
24.136613
 20
15.734856
 30
0.0
 10
24.749218
 20
14.673787
 30
0.0
 10
24.749218
 20
14.673801
 30
0.0
  0
LWPOLYLINE
  5
159
100
AcDbEntity
  8
Layer_1
 62
5
100
AcDbPolyline
 90
8
 70
1
 10
35.737596
 20
33.719412
 30
0.0
 10
34.994138
 20
32.431703
 30
0.0
 10
33.772022
 20
32.431703
 30
0.0
 10
33.197085
 20
33.427551
 30
0.0
 10
33.958356
 20
34.746120
 30
0.0
 10
35.144829
 20
34.746120
 30
0.0
 10
35.737596
 20
33.719439
 30
0.0
 10
35.737596
 20
33.719412
 30
0.0
  0
LWPOLYLINE
  5
15a
100
AcDbEntity
  8
Layer_1
 62
5
100
AcDbPolyline
 90
6
 70
1
 10
26.586031
 20
17.931939
 30
0.0
 10
25.749128
 20
17.931939
 30
0.0
 10
25.872892
 20
18.146314
 30
0.0
 10
26.462267
 20
18.146314
 30
0.0
 10
26.586031
 20
17.931953
 30
0.0
 10
26.586031
 20
17.931939
 30
0.0
  0
LWPOLYLINE
  5
15b
100
AcDbEntity
  8
Layer_1
 62
5
100
AcDbPolyline
 90
6
 70
1
 10
33.095103
 20
29.211370
 30
0.0
 10
32.846893
 20
29.211370
 30
0.0
 10
32.552214
 20
29.721801
 30
0.0
 10
32.676311
 20
29.936745
 30
0.0
 10
33.095103
 20
29.211384
 30
0.0
 10
33.095103
 20
29.211370
 30
0.0
  0
LWPOLYLINE
  5
15c
100
AcDbEntity
  8
Layer_1
 62
5
100
AcDbPolyline
 90
8
 70
1
 10
28.287531
 20
21.639703
 30
0.0
 10
27.937913
 20
21.034148
 30
0.0
 10
27.232516
 20
21.034148
 30
0.0
 10
26.879866
 20
21.644953
 30
0.0
 10
27.230116
 20
22.251606
 30
0.0
 10
27.934249
 20
22.251606
 30
0.0
 10
28.287531
 20
21.639676
 30
0.0
 10
28.287531
 20
21.639703
 30
0.0
  0
LWPOLYLINE
  5
15d
100
AcDbEntity
  8
Layer_1
 62
5
100
AcDbPolyline
 90
8
 70
1
 10
31.078267
 20
26.476398
 30
0.0
 10
30.725809
 20
25.865912
 30
0.0
 10
30.035361
 20
25.865912
 30
0.0
 10
29.675224
 20
26.489717
 30
0.0
 10
30.020092
 20
27.087037
 30
0.0
 10
30.725709
 20
27.087037
 30
0.0
 10
31.078267
 20
26.476384
 30
0.0
 10
31.078267
 20
26.476398
 30
0.0
  0
LWPOLYLINE
  5
15e
100
AcDbEntity
  8
Layer_1
 62
5
100
AcDbPolyline
 90
8
 70
1
 10
29.682163
 20
24.058273
 30
0.0
 10
29.330329
 20
23.448870
 30
0.0
 10
28.624554
 20
23.448870
 30
0.0
 10
28.272831
 20
24.058078
 30
0.0
 10
28.628685
 20
24.674439
 30
0.0
 10
29.326421
 20
24.674439
 30
0.0
 10
29.682163
 20
24.058273
 30
0.0
 10
29.682163
 20
24.058273
 30
0.0
  0
LWPOLYLINE
  5
15f
100
AcDbEntity
  8
Layer_1
 62
5
100
AcDbPolyline
 90
8
 70
1
 10
26.820649
 20
19.354287
 30
0.0
 10
26.464177
 20
18.736856
 30
0.0
 10
25.870918
 20
18.736856
 30
0.0
 10
25.574534
 20
19.250203
 30
0.0
 10
25.913422
 20
19.837176
 30
0.0
 10
26.541842
 20
19.837176
 30
0.0
 10
26.820649
 20
19.354287
 30
0.0
 10
26.820649
 20
19.354287
 30
0.0
  0
LWPOLYLINE
  5
160
100
AcDbEntity
  8
Layer_1
 62
5
100
AcDbPolyline
 90
8
 70
1
 10
32.336418
 20
28.914467
 30
0.0
 10
31.972425
 20
28.284023
 30
0.0
 10
31.416400
 20
28.284023
 30
0.0
 10
31.101406
 20
28.829578
 30
0.0
 10
31.446822
 20
29.427856
 30
0.0
 10
32.040011
 20
29.427856
 30
0.0
 10
32.336418
 20
28.914467
 30
0.0
 10
32.336418
 20
28.914467
 30
0.0
  0
LWPOLYLINE
  5
161
100
AcDbEntity
  8
Layer_1
 62
5
100
AcDbPolyline
 90
8
 70
1
 10
29.687877
 20
25.680412
 30
0.0
 10
29.334384
 20
25.068134
 30
0.0
 10
28.637706
 20
25.068134
 30
0.0
 10
28.286796
 20
25.675912
 30
0.0
 10
28.636671
 20
26.281912
 30
0.0
 10
29.340599
 20
26.281912
 30
0.0
 10
29.687877
 20
25.680384
 30
0.0
 10
29.687877
 20
25.680412
 30
0.0
  0
LWPOLYLINE
  5
162
100
AcDbEntity
  8
Layer_1
 62
5
100
AcDbPolyline
 90
8
 70
1
 10
26.890749
 20
20.838676
 30
0.0
 10
26.539839
 20
20.230884
 30
0.0
 10
25.939431
 20
20.230884
 30
0.0
 10
25.537818
 20
20.926551
 30
0.0
 10
25.838006
 20
21.446495
 30
0.0
 10
26.539850
 20
21.446495
 30
0.0
 10
26.890749
 20
20.838689
 30
0.0
 10
26.890749
 20
20.838676
 30
0.0
  0
LWPOLYLINE
  5
163
100
AcDbEntity
  8
Layer_1
 62
5
100
AcDbPolyline
 90
8
 70
1
 10
28.282974
 20
23.253120
 30
0.0
 10
27.932050
 20
22.645301
 30
0.0
 10
27.232588
 20
22.645301
 30
0.0
 10
26.880493
 20
23.255162
 30
0.0
 10
27.230229
 20
23.860926
 30
0.0
 10
27.932071
 20
23.860926
 30
0.0
 10
28.282974
 20
23.253134
 30
0.0
 10
28.282974
 20
23.253120
 30
0.0
  0
LWPOLYLINE
  5
164
100
AcDbEntity
  8
Layer_1
 62
5
100
AcDbPolyline
 90
8
 70
1
 10
31.074682
 20
28.088495
 30
0.0
 10
30.723773
 20
27.480703
 30
0.0
 10
30.021934
 20
27.480703
 30
0.0
 10
29.671010
 20
28.088509
 30
0.0
 10
29.978593
 20
28.621259
 30
0.0
 10
30.767109
 20
28.621259
 30
0.0
 10
31.074682
 20
28.088495
 30
0.0
 10
31.074682
 20
28.088495
 30
0.0
  0
LWPOLYLINE
  5
165
100
AcDbEntity
  8
Layer_1
 62
5
100
AcDbPolyline
 90
6
 70
1
 10
25.358723
 20
18.442939
 30
0.0
 10
25.234028
 20
18.226967
 30
0.0
 10
24.814627
 20
18.953356
 30
0.0
 10
25.064029
 20
18.953356
 30
0.0
 10
25.358723
 20
18.442939
 30
0.0
 10
25.358723
 20
18.442939
 30
0.0
  0
LWPOLYLINE
  5
166
100
AcDbEntity
  8
Layer_1
 62
5
100
AcDbPolyline
 90
10
 70
1
 10
24.719616
 20
17.341967
 30
0.0
 10
24.132678
 20
16.325356
 30
0.0
 10
22.960018
 20
16.325356
 30
0.0
 10
22.029013
 20
17.937856
 30
0.0
 10
22.615346
 20
18.953412
 30
0.0
 10
23.792804
 20
18.953412
 30
0.0
 10
23.498061
 20
18.442898
 30
0.0
 10
24.133689
 20
17.341926
 30
0.0
 10
24.719616
 20
17.341926
 30
0.0
 10
24.719616
 20
17.341967
 30
0.0
  0
LWPOLYLINE
  5
167
100
AcDbEntity
  8
Layer_1
 62
5
100
AcDbPolyline
 90
6
 70
1
 10
32.162866
 20
30.234578
 30
0.0
 10
32.038039
 20
30.018370
 30
0.0
 10
31.448666
 20
30.018370
 30
0.0
 10
31.323831
 20
30.234578
 30
0.0
 10
32.162866
 20
30.234578
 30
0.0
 10
32.162866
 20
30.234578
 30
0.0
  0
LWPOLYLINE
  5
168
100
AcDbEntity
  8
Layer_1
 62
5
100
AcDbPolyline
 90
12
 70
1
 10
33.259059
 20
32.139148
 30
0.0
 10
32.671975
 20
31.122287
 30
0.0
 10
32.378992
 20
31.629759
 30
0.0
 10
32.208506
 20
31.629759
 30
0.0
 10
31.107679
 20
31.629759
 30
0.0
 10
30.813110
 20
31.119551
 30
0.0
 10
30.224428
 20
32.139162
 30
0.0
 10
30.798657
 20
33.133759
 30
0.0
 10
30.825918
 20
33.133759
 30
0.0
 10
32.684820
 20
33.133759
 30
0.0
 10
33.259059
 20
32.139134
 30
0.0
 10
33.259059
 20
32.139148
 30
0.0
  0
LWPOLYLINE
  5
169
100
AcDbEntity
  8
Layer_1
 62
5
100
AcDbPolyline
 90
6
 70
1
 10
21.782285
 20
12.776203
 30
0.0
 10
21.534084
 20
12.346301
 30
0.0
 10
20.696499
 20
13.797037
 30
0.0
 10
21.192904
 20
13.797037
 30
0.0
 10
21.782285
 20
12.776217
 30
0.0
 10
21.782285
 20
12.776203
 30
0.0
  0
LWPOLYLINE
  5
16a
100
AcDbEntity
  8
Layer_1
 62
5
100
AcDbPolyline
 90
11
 70
1
 10
20.510581
 20
10.574231
 30
0.0
 10
19.334650
 20
8.537467
 30
0.0
 10
16.300038
 20
8.537467
 30
0.0
 10
14.782718
 20
11.165509
 30
0.0
 10
16.300038
 20
13.793592
 30
0.0
 10
18.648352
 20
13.793592
 30
0.0
 10
18.060949
 20
12.776189
 30
0.0
 10
19.332232
 20
10.574245
 30
0.0
 10
19.673171
 20
10.574245
 30
0.0
 10
20.510581
 20
10.574245
 30
0.0
 10
20.510581
 20
10.574231
 30
0.0
  0
LWPOLYLINE
  5
16b
100
AcDbEntity
  8
Layer_1
 62
5
100
AcDbPolyline
 90
6
 70
1
 10
35.388457
 20
36.355884
 30
0.0
 10
35.140929
 20
35.927162
 30
0.0
 10
33.962181
 20
35.927162
 30
0.0
 10
33.714650
 20
36.355884
 30
0.0
 10
35.388457
 20
36.355884
 30
0.0
 10
35.388457
 20
36.355884
 30
0.0
  0
LWPOLYLINE
  5
16c
100
AcDbEntity
  8
Layer_1
 62
5
100
AcDbPolyline
 90
10
 70
1
 10
37.587424
 20
40.165051
 30
0.0
 10
36.412104
 20
38.129342
 30
0.0
 10
35.822843
 20
39.149939
 30
0.0
 10
33.280268
 20
39.149939
 30
0.0
 10
32.692248
 20
38.131453
 30
0.0
 10
31.518160
 20
40.165064
 30
0.0
 10
33.035473
 20
42.793120
 30
0.0
 10
36.070092
 20
42.793120
 30
0.0
 10
37.587424
 20
40.165051
 30
0.0
 10
37.587424
 20
40.165051
 30
0.0
  0
LWPOLYLINE
  5
16d
100
AcDbEntity
  8
Layer_1
 62
5
100
AcDbPolyline
 90
6
 70
1
 10
24.722081
 20
17.932537
 30
0.0
 10
24.474647
 20
17.932537
 30
0.0
 10
24.179953
 20
18.442953
 30
0.0
 10
24.303661
 20
18.657217
 30
0.0
 10
24.722081
 20
17.932551
 30
0.0
 10
24.722081
 20
17.932537
 30
0.0
  0
LWPOLYLINE
  5
16e
100
AcDbEntity
  8
Layer_1
 62
5
100
AcDbPolyline
 90
6
 70
1
 10
32.161647
 20
30.825148
 30
0.0
 10
31.325032
 20
30.825148
 30
0.0
 10
31.448643
 20
31.039245
 30
0.0
 10
32.038052
 20
31.039245
 30
0.0
 10
32.161647
 20
30.825162
 30
0.0
 10
32.161647
 20
30.825148
 30
0.0
  0
LWPOLYLINE
  5
16f
100
AcDbEntity
  8
Layer_1
 62
5
100
AcDbPolyline
 90
8
 70
1
 10
28.290431
 20
24.875814
 30
0.0
 10
27.939521
 20
24.268023
 30
0.0
 10
27.237682
 20
24.268023
 30
0.0
 10
26.886778
 20
24.875828
 30
0.0
 10
27.237688
 20
25.483620
 30
0.0
 10
27.939509
 20
25.483620
 30
0.0
 10
28.290431
 20
24.875801
 30
0.0
 10
28.290431
 20
24.875814
 30
0.0
  0
LWPOLYLINE
  5
170
100
AcDbEntity
  8
Layer_1
 62
5
100
AcDbPolyline
 90
8
 70
1
 10
26.888602
 20
22.449689
 30
0.0
 10
26.538178
 20
21.842745
 30
0.0
 10
25.837711
 20
21.842745
 30
0.0
 10
25.486791
 20
22.450551
 30
0.0
 10
25.837291
 20
23.057634
 30
0.0
 10
26.537589
 20
23.057634
 30
0.0
 10
26.888602
 20
22.449676
 30
0.0
 10
26.888602
 20
22.449689
 30
0.0
  0
LWPOLYLINE
  5
171
100
AcDbEntity
  8
Layer_1
 62
5
100
AcDbPolyline
 90
8
 70
1
 10
29.678810
 20
27.283426
 30
0.0
 10
29.328942
 20
26.677439
 30
0.0
 10
28.625361
 20
26.677439
 30
0.0
 10
28.275388
 20
27.283606
 30
0.0
 10
28.626214
 20
27.891245
 30
0.0
 10
29.327899
 20
27.891245
 30
0.0
 10
29.678810
 20
27.283453
 30
0.0
 10
29.678810
 20
27.283426
 30
0.0
  0
LWPOLYLINE
  5
172
100
AcDbEntity
  8
Layer_1
 62
5
100
AcDbPolyline
 90
6
 70
1
 10
25.358234
 20
20.056523
 30
0.0
 10
25.063539
 20
19.546092
 30
0.0
 10
24.812375
 20
19.546092
 30
0.0
 10
25.232653
 20
20.274037
 30
0.0
 10
25.358234
 20
20.056523
 30
0.0
 10
25.358234
 20
20.056523
 30
0.0
  0
LWPOLYLINE
  5
173
100
AcDbEntity
  8
Layer_1
 62
5
100
AcDbPolyline
 90
6
 70
1
 10
30.934946
 20
29.722259
 30
0.0
 10
30.640252
 20
29.211842
 30
0.0
 10
30.389435
 20
29.211842
 30
0.0
 10
30.809546
 20
29.939495
 30
0.0
 10
30.934946
 20
29.722273
 30
0.0
 10
30.934946
 20
29.722259
 30
0.0
  0
LWPOLYLINE
  5
174
100
AcDbEntity
  8
Layer_1
 62
5
100
AcDbPolyline
 90
6
 70
1
 10
20.511429
 20
11.755356
 30
0.0
 10
20.014138
 20
11.755356
 30
0.0
 10
19.424766
 20
12.776189
 30
0.0
 10
19.673411
 20
13.206856
 30
0.0
 10
20.511429
 20
11.755356
 30
0.0
 10
20.511429
 20
11.755356
 30
0.0
  0
LWPOLYLINE
  5
175
100
AcDbEntity
  8
Layer_1
 62
5
100
AcDbPolyline
 90
6
 70
1
 10
35.390274
 20
37.536995
 30
0.0
 10
33.712853
 20
37.536995
 30
0.0
 10
33.962179
 20
37.968842
 30
0.0
 10
35.140942
 20
37.968842
 30
0.0
 10
35.390274
 20
37.536981
 30
0.0
 10
35.390274
 20
37.536995
 30
0.0
  0
LWPOLYLINE
  5
176
100
AcDbEntity
  8
Layer_1
 62
5
100
AcDbPolyline
 90
8
 70
1
 10
28.290442
 20
26.469537
 30
0.0
 10
27.948539
 20
25.877342
 30
0.0
 10
27.224261
 20
25.877342
 30
0.0
 10
26.876557
 20
26.479578
 30
0.0
 10
27.227904
 20
27.088134
 30
0.0
 10
27.933302
 20
27.088134
 30
0.0
 10
28.290442
 20
26.469564
 30
0.0
 10
28.290442
 20
26.469537
 30
0.0
  0
LWPOLYLINE
  5
177
100
AcDbEntity
  8
Layer_1
 62
5
100
AcDbPolyline
 90
6
 70
1
 10
25.496600
 20
21.642398
 30
0.0
 10
25.309309
 20
21.317995
 30
0.0
 10
24.768667
 20
22.254370
 30
0.0
 10
25.143270
 20
22.254370
 30
0.0
 10
25.496600
 20
21.642398
 30
0.0
 10
25.496600
 20
21.642398
 30
0.0
  0
LWPOLYLINE
  5
178
100
AcDbEntity
  8
Layer_1
 62
5
100
AcDbPolyline
 90
8
 70
1
 10
26.896916
 20
24.070856
 30
0.0
 10
26.539645
 20
23.452051
 30
0.0
 10
25.833549
 20
23.452051
 30
0.0
 10
25.481311
 20
24.062148
 30
0.0
 10
25.832895
 20
24.671106
 30
0.0
 10
26.550364
 20
24.671106
 30
0.0
 10
26.896916
 20
24.070870
 30
0.0
 10
26.896916
 20
24.070856
 30
0.0
  0
LWPOLYLINE
  5
179
100
AcDbEntity
  8
Layer_1
 62
5
100
AcDbPolyline
 90
6
 70
1
 10
29.524900
 20
28.622939
 30
0.0
 10
29.329845
 20
28.285092
 30
0.0
 10
28.624228
 20
28.285092
 30
0.0
 10
28.429167
 20
28.622926
 30
0.0
 10
29.524900
 20
28.622926
 30
0.0
 10
29.524900
 20
28.622939
 30
0.0
  0
LWPOLYLINE
  5
17a
100
AcDbEntity
  8
Layer_1
 62
5
100
AcDbPolyline
 90
6
 70
1
 10
24.719473
 20
20.566967
 30
0.0
 10
24.302097
 20
19.844051
 30
0.0
 10
24.179427
 20
20.056537
 30
0.0
 10
24.474121
 20
20.566967
 30
0.0
 10
24.719472
 20
20.566967
 30
0.0
 10
24.719473
 20
20.566967
 30
0.0
  0
LWPOLYLINE
  5
17b
100
AcDbEntity
  8
Layer_1
 62
5
100
AcDbPolyline
 90
6
 70
1
 10
30.296506
 20
30.232703
 30
0.0
 10
29.878978
 20
29.509523
 30
0.0
 10
29.756139
 20
29.722287
 30
0.0
 10
30.050834
 20
30.232703
 30
0.0
 10
30.296506
 20
30.232703
 30
0.0
 10
30.296506
 20
30.232703
 30
0.0
  0
LWPOLYLINE
  5
17c
100
AcDbEntity
  8
Layer_1
 62
5
100
AcDbPolyline
 90
6
 70
1
 10
21.781559
 20
16.004259
 30
0.0
 10
21.192170
 20
14.983412
 30
0.0
 10
20.690618
 20
14.983412
 30
0.0
 10
21.530785
 20
16.438620
 30
0.0
 10
21.781559
 20
16.004259
 30
0.0
 10
21.781559
 20
16.004259
 30
0.0
  0
LWPOLYLINE
  5
17d
100
AcDbEntity
  8
Layer_1
 62
5
100
AcDbPolyline
 90
6
 70
1
 10
32.934977
 20
35.335745
 30
0.0
 10
32.345595
 20
34.314912
 30
0.0
 10
31.849477
 20
34.314912
 30
0.0
 10
32.686921
 20
35.765398
 30
0.0
 10
32.934977
 20
35.335759
 30
0.0
 10
32.934977
 20
35.335745
 30
0.0
  0
LWPOLYLINE
  5
17e
100
AcDbEntity
  8
Layer_1
 62
5
100
AcDbPolyline
 90
12
 70
1
 10
23.790893
 20
19.548426
 30
0.0
 10
22.614404
 20
19.548426
 30
0.0
 10
21.855763
 20
20.862467
 30
0.0
 10
22.441645
 20
21.877245
 30
0.0
 10
22.736086
 20
21.367217
 30
0.0
 10
24.007386
 20
21.367217
 30
0.0
 10
24.301386
 20
21.876439
 30
0.0
 10
24.716446
 20
21.157537
 30
0.0
 10
24.133160
 20
21.157537
 30
0.0
 10
23.497514
 20
20.056564
 30
0.0
 10
23.790893
 20
19.548439
 30
0.0
 10
23.790893
 20
19.548426
 30
0.0
  0
LWPOLYLINE
  5
17f
100
AcDbEntity
  8
Layer_1
 62
5
100
AcDbPolyline
 90
13
 70
1
 10
29.367592
 20
29.214148
 30
0.0
 10
28.534638
 20
29.214148
 30
0.0
 10
28.827971
 20
29.722217
 30
0.0
 10
28.192299
 20
30.823189
 30
0.0
 10
28.021838
 20
30.823189
 30
0.0
 10
27.603117
 20
30.823189
 30
0.0
 10
28.191082
 20
31.841578
 30
0.0
 10
29.708407
 20
31.841578
 30
0.0
 10
30.296317
 20
30.823287
 30
0.0
 10
29.709864
 20
30.823287
 30
0.0
 10
29.074211
 20
29.722301
 30
0.0
 10
29.367592
 20
29.214176
 30
0.0
 10
29.367592
 20
29.214148
 30
0.0
  0
LWPOLYLINE
  5
180
100
AcDbEntity
  8
Layer_1
 62
5
100
AcDbPolyline
 90
10
 70
1
 10
25.492129
 20
23.255898
 30
0.0
 10
25.141220
 20
22.648106
 30
0.0
 10
24.541332
 20
22.648106
 30
0.0
 10
24.472675
 20
22.767037
 30
0.0
 10
24.470484
 20
22.767037
 30
0.0
 10
24.138346
 20
23.342328
 30
0.0
 10
24.439374
 20
23.863717
 30
0.0
 10
25.141213
 20
23.863717
 30
0.0
 10
25.492116
 20
23.255926
 30
0.0
 10
25.492129
 20
23.255898
 30
0.0
  0
LWPOLYLINE
  5
181
100
AcDbEntity
  8
Layer_1
 62
5
100
AcDbPolyline
 90
8
 70
1
 10
28.282488
 20
28.089634
 30
0.0
 10
27.931578
 20
27.481842
 30
0.0
 10
27.229732
 20
27.481842
 30
0.0
 10
26.878834
 20
28.089648
 30
0.0
 10
27.185757
 20
28.621259
 30
0.0
 10
27.975568
 20
28.621259
 30
0.0
 10
28.282488
 20
28.089662
 30
0.0
 10
28.282488
 20
28.089634
 30
0.0
  0
LWPOLYLINE
  5
182
100
AcDbEntity
  8
Layer_1
 62
5
100
AcDbPolyline
 90
8
 70
1
 10
26.887009
 20
25.672592
 30
0.0
 10
26.536252
 20
25.065064
 30
0.0
 10
25.834920
 20
25.065064
 30
0.0
 10
25.484017
 20
25.672870
 30
0.0
 10
25.834774
 20
26.280398
 30
0.0
 10
26.536104
 20
26.280398
 30
0.0
 10
26.887009
 20
25.672592
 30
0.0
 10
26.887009
 20
25.672592
 30
0.0
  0
LWPOLYLINE
  5
183
100
AcDbEntity
  8
Layer_1
 62
5
100
AcDbPolyline
 90
8
 70
1
 10
25.491821
 20
24.867787
 30
0.0
 10
25.140904
 20
24.259981
 30
0.0
 10
24.439073
 20
24.259981
 30
0.0
 10
24.126200
 20
24.801884
 30
0.0
 10
24.515159
 20
25.475578
 30
0.0
 10
25.140906
 20
25.475578
 30
0.0
 10
25.491821
 20
24.867759
 30
0.0
 10
25.491821
 20
24.867787
 30
0.0
  0
LWPOLYLINE
  5
184
100
AcDbEntity
  8
Layer_1
 62
5
100
AcDbPolyline
 90
8
 70
1
 10
26.886664
 20
27.284509
 30
0.0
 10
26.535754
 20
26.676703
 30
0.0
 10
25.833916
 20
26.676703
 30
0.0
 10
25.519645
 20
27.221037
 30
0.0
 10
25.907186
 20
27.892287
 30
0.0
 10
26.535749
 20
27.892287
 30
0.0
 10
26.886664
 20
27.284467
 30
0.0
 10
26.886664
 20
27.284509
 30
0.0
  0
LWPOLYLINE
  5
185
100
AcDbEntity
  8
Layer_1
 62
5
100
AcDbPolyline
 90
6
 70
1
 10
22.102931
 20
19.247051
 30
0.0
 10
21.682618
 20
18.519051
 30
0.0
 10
20.500177
 20
20.567134
 30
0.0
 10
21.340810
 20
20.567134
 30
0.0
 10
22.102931
 20
19.247064
 30
0.0
 10
22.102931
 20
19.247051
 30
0.0
  0
LWPOLYLINE
  5
186
100
AcDbEntity
  8
Layer_1
 62
5
100
AcDbPolyline
 90
6
 70
1
 10
23.791124
 20
22.173648
 30
0.0
 10
23.666464
 20
21.957731
 30
0.0
 10
23.077089
 20
21.957731
 30
0.0
 10
22.952435
 20
22.173648
 30
0.0
 10
23.791124
 20
22.173648
 30
0.0
 10
23.791124
 20
22.173648
 30
0.0
  0
LWPOLYLINE
  5
187
100
AcDbEntity
  8
Layer_1
 62
5
100
AcDbPolyline
 90
6
 70
1
 10
30.117721
 20
33.135453
 30
0.0
 10
29.712013
 20
32.432745
 30
0.0
 10
28.186779
 20
32.432745
 30
0.0
 10
27.781049
 20
33.135467
 30
0.0
 10
30.117721
 20
33.135467
 30
0.0
 10
30.117721
 20
33.135453
 30
0.0
  0
LWPOLYLINE
  5
188
100
AcDbEntity
  8
Layer_1
 62
5
100
AcDbPolyline
 90
6
 70
1
 10
28.146098
 20
29.722189
 30
0.0
 10
28.021966
 20
29.507189
 30
0.0
 10
27.603131
 20
30.232620
 30
0.0
 10
27.851385
 20
30.232620
 30
0.0
 10
28.146098
 20
29.722189
 30
0.0
 10
28.146098
 20
29.722189
 30
0.0
  0
LWPOLYLINE
  5
189
100
AcDbEntity
  8
Layer_1
 62
5
100
AcDbPolyline
 90
6
 70
1
 10
20.505624
 20
17.025092
 30
0.0
 10
19.670138
 20
15.577981
 30
0.0
 10
19.424054
 20
16.004231
 30
0.0
 10
20.013443
 20
17.025078
 30
0.0
 10
20.505624
 20
17.025078
 30
0.0
 10
20.505624
 20
17.025092
 30
0.0
  0
LWPOLYLINE
  5
18a
100
AcDbEntity
  8
Layer_1
 62
5
100
AcDbPolyline
 90
6
 70
1
 10
31.664468
 20
36.356551
 30
0.0
 10
30.826281
 20
34.904773
 30
0.0
 10
30.577498
 20
35.335717
 30
0.0
 10
31.166879
 20
36.356551
 30
0.0
 10
31.664468
 20
36.356551
 30
0.0
 10
31.664468
 20
36.356551
 30
0.0
  0
LWPOLYLINE
  5
18b
100
AcDbEntity
  8
Layer_1
 62
5
100
AcDbPolyline
 90
6
 70
1
 10
27.510207
 20
29.211773
 30
0.0
 10
27.261996
 20
29.211773
 30
0.0
 10
26.967317
 20
29.722203
 30
0.0
 10
27.091414
 20
29.937148
 30
0.0
 10
27.510207
 20
29.211787
 30
0.0
 10
27.510207
 20
29.211773
 30
0.0
  0
LWPOLYLINE
  5
18c
100
AcDbEntity
  8
Layer_1
 62
5
100
AcDbPolyline
 90
6
 70
1
 10
23.788609
 20
22.766995
 30
0.0
 10
22.954927
 20
22.766995
 30
0.0
 10
23.077086
 20
22.978592
 30
0.0
 10
23.666461
 20
22.978592
 30
0.0
 10
23.788609
 20
22.767023
 30
0.0
 10
23.788609
 20
22.766995
 30
0.0
  0
LWPOLYLINE
  5
18d
100
AcDbEntity
  8
Layer_1
 62
5
100
AcDbPolyline
 90
8
 70
1
 10
24.099038
 20
24.061537
 30
0.0
 10
23.814739
 20
23.569120
 30
0.0
 10
23.075089
 20
23.569120
 30
0.0
 10
22.778711
 20
24.082481
 30
0.0
 10
23.074281
 20
24.594412
 30
0.0
 10
23.791386
 20
24.594412
 30
0.0
 10
24.099038
 20
24.061523
 30
0.0
 10
24.099038
 20
24.061537
 30
0.0
  0
LWPOLYLINE
  5
18e
100
AcDbEntity
  8
Layer_1
 62
5
100
AcDbPolyline
 90
8
 70
1
 10
26.826113
 20
28.785662
 30
0.0
 10
26.537647
 20
28.286023
 30
0.0
 10
25.930246
 20
28.286023
 30
0.0
 10
25.566341
 20
28.916356
 30
0.0
 10
25.861917
 20
29.428314
 30
0.0
 10
26.455099
 20
29.428314
 30
0.0
 10
26.826113
 20
28.785689
 30
0.0
 10
26.826113
 20
28.785662
 30
0.0
  0
LWPOLYLINE
  5
18f
100
AcDbEntity
  8
Layer_1
 62
5
100
AcDbPolyline
 90
6
 70
1
 10
25.493918
 20
26.478231
 30
0.0
 10
25.142335
 20
25.869273
 30
0.0
 10
24.739091
 20
25.869273
 30
0.0
 10
25.292299
 20
26.827453
 30
0.0
 10
25.493918
 20
26.478231
 30
0.0
 10
25.493918
 20
26.478231
 30
0.0
  0
LWPOLYLINE
  5
190
100
AcDbEntity
  8
Layer_1
 62
5
100
AcDbPolyline
 90
13
 70
1
 10
18.650331
 20
14.982217
 30
0.0
 10
16.291563
 20
14.982217
 30
0.0
 10
14.774235
 20
17.610301
 30
0.0
 10
15.948402
 20
19.644009
 30
0.0
 10
16.534384
 20
18.629064
 30
0.0
 10
16.875343
 20
18.629064
 30
0.0
 10
19.076977
 20
18.629064
 30
0.0
 10
19.666157
 20
19.649564
 30
0.0
 10
20.499496
 20
18.206176
 30
0.0
 10
19.331567
 20
18.206176
 30
0.0
 10
18.060275
 20
16.004231
 30
0.0
 10
18.650331
 20
14.982231
 30
0.0
 10
18.650331
 20
14.982217
 30
0.0
  0
LWPOLYLINE
  5
191
100
AcDbEntity
  8
Layer_1
 62
5
100
AcDbPolyline
 90
12
 70
1
 10
29.802120
 20
34.316509
 30
0.0
 10
28.132399
 20
34.316509
 30
0.0
 10
28.722232
 20
35.338134
 30
0.0
 10
27.450929
 20
37.540078
 30
0.0
 10
26.278556
 20
37.540078
 30
0.0
 10
27.452070
 20
39.572662
 30
0.0
 10
30.486710
 20
39.572662
 30
0.0
 10
31.661642
 20
37.537648
 30
0.0
 10
30.485006
 20
37.537648
 30
0.0
 10
29.213721
 20
35.335717
 30
0.0
 10
29.802120
 20
34.316523
 30
0.0
 10
29.802120
 20
34.316509
 30
0.0
  0
LWPOLYLINE
  5
192
100
AcDbEntity
  8
Layer_1
 62
5
100
AcDbPolyline
 90
6
 70
1
 10
23.790199
 20
25.400953
 30
0.0
 10
23.665484
 20
25.184939
 30
0.0
 10
23.076096
 20
25.184939
 30
0.0
 10
22.951371
 20
25.400981
 30
0.0
 10
23.790199
 20
25.400981
 30
0.0
 10
23.790199
 20
25.400953
 30
0.0
  0
LWPOLYLINE
  5
193
100
AcDbEntity
  8
Layer_1
 62
5
100
AcDbPolyline
 90
6
 70
1
 10
22.562900
 20
23.275217
 30
0.0
 10
22.438192
 20
23.059217
 30
0.0
 10
22.018803
 20
23.785634
 30
0.0
 10
22.268207
 20
23.785634
 30
0.0
 10
22.562900
 20
23.275231
 30
0.0
 10
22.562900
 20
23.275217
 30
0.0
  0
LWPOLYLINE
  5
194
100
AcDbEntity
  8
Layer_1
 62
5
100
AcDbPolyline
 90
6
 70
1
 10
26.577950
 20
30.234995
 30
0.0
 10
26.453131
 20
30.018801
 30
0.0
 10
25.863750
 20
30.018801
 30
0.0
 10
25.738934
 20
30.234995
 30
0.0
 10
26.577950
 20
30.234995
 30
0.0
 10
26.577950
 20
30.234995
 30
0.0
  0
LWPOLYLINE
  5
195
100
AcDbEntity
  8
Layer_1
 62
5
100
AcDbPolyline
 90
6
 70
1
 10
25.350547
 20
28.109078
 30
0.0
 10
25.227582
 20
27.896092
 30
0.0
 10
24.809931
 20
28.619481
 30
0.0
 10
25.055861
 20
28.619481
 30
0.0
 10
25.350548
 20
28.109064
 30
0.0
 10
25.350547
 20
28.109078
 30
0.0
  0
LWPOLYLINE
  5
196
100
AcDbEntity
  8
Layer_1
 62
5
100
AcDbPolyline
 90
10
 70
1
 10
21.923820
 20
22.174259
 30
0.0
 10
21.336868
 20
21.157620
 30
0.0
 10
20.159713
 20
21.157620
 30
0.0
 10
19.230978
 20
22.766231
 30
0.0
 10
19.819561
 20
23.785689
 30
0.0
 10
20.996995
 20
23.785689
 30
0.0
 10
20.702252
 20
23.275176
 30
0.0
 10
21.337893
 20
22.174231
 30
0.0
 10
21.923820
 20
22.174231
 30
0.0
 10
21.923820
 20
22.174259
 30
0.0
  0
LWPOLYLINE
  5
197
100
AcDbEntity
  8
Layer_1
 62
5
100
AcDbPolyline
 90
14
 70
1
 10
27.674173
 20
32.139578
 30
0.0
 10
27.087082
 20
31.122717
 30
0.0
 10
26.794096
 20
31.630176
 30
0.0
 10
26.623624
 20
31.630176
 30
0.0
 10
25.522798
 20
31.630176
 30
0.0
 10
25.228214
 20
31.119939
 30
0.0
 10
24.639513
 20
32.139564
 30
0.0
 10
25.214916
 20
33.136189
 30
0.0
 10
25.249343
 20
33.136189
 30
0.0
 10
26.769763
 20
33.136189
 30
0.0
 10
26.770221
 20
33.135495
 30
0.0
 10
27.099217
 20
33.135495
 30
0.0
 10
27.674188
 20
32.139662
 30
0.0
 10
27.674173
 20
32.139578
 30
0.0
  0
LWPOLYLINE
  5
198
100
AcDbEntity
  8
Layer_1
 62
5
100
AcDbPolyline
 90
13
 70
1
 10
24.711364
 20
27.008120
 30
0.0
 10
24.297760
 20
26.291745
 30
0.0
 10
24.006423
 20
26.796328
 30
0.0
 10
23.835943
 20
26.796328
 30
0.0
 10
22.735131
 20
26.796328
 30
0.0
 10
22.440547
 20
26.286092
 30
0.0
 10
21.851864
 20
27.305703
 30
0.0
 10
22.610427
 20
28.619578
 30
0.0
 10
23.784553
 20
28.619578
 30
0.0
 10
23.489824
 20
28.109092
 30
0.0
 10
24.125471
 20
27.008120
 30
0.0
 10
24.711364
 20
27.008120
 30
0.0
 10
24.711364
 20
27.008120
 30
0.0
  0
LWPOLYLINE
  5
199
100
AcDbEntity
  8
Layer_1
 62
5
100
AcDbPolyline
 90
6
 70
1
 10
21.926245
 20
22.764801
 30
0.0
 10
21.678800
 20
22.764801
 30
0.0
 10
21.384107
 20
23.275203
 30
0.0
 10
21.507836
 20
23.489509
 30
0.0
 10
21.926245
 20
22.764787
 30
0.0
 10
21.926245
 20
22.764801
 30
0.0
  0
LWPOLYLINE
  5
19a
100
AcDbEntity
  8
Layer_1
 62
5
100
AcDbPolyline
 90
6
 70
1
 10
23.789070
 20
25.991689
 30
0.0
 10
22.952488
 20
25.991689
 30
0.0
 10
23.076085
 20
26.205773
 30
0.0
 10
23.665459
 20
26.205773
 30
0.0
 10
23.789070
 20
25.991703
 30
0.0
 10
23.789070
 20
25.991689
 30
0.0
  0
LWPOLYLINE
  5
19b
100
AcDbEntity
  8
Layer_1
 62
5
100
AcDbPolyline
 90
6
 70
1
 10
24.713856
 20
27.598676
 30
0.0
 10
24.466424
 20
27.598676
 30
0.0
 10
24.171738
 20
28.109092
 30
0.0
 10
24.295460
 20
28.323384
 30
0.0
 10
24.713856
 20
27.598676
 30
0.0
 10
24.713856
 20
27.598676
 30
0.0
  0
LWPOLYLINE
  5
19c
100
AcDbEntity
  8
Layer_1
 62
5
100
AcDbPolyline
 90
6
 70
1
 10
26.576698
 20
30.825551
 30
0.0
 10
25.740097
 20
30.825551
 30
0.0
 10
25.863709
 20
31.039648
 30
0.0
 10
26.453100
 20
31.039648
 30
0.0
 10
26.576698
 20
30.825551
 30
0.0
 10
26.576698
 20
30.825551
 30
0.0
  0
LWPOLYLINE
  5
19d
100
AcDbEntity
  8
Layer_1
 62
5
100
AcDbPolyline
 90
6
 70
1
 10
22.562393
 20
24.888801
 30
0.0
 10
22.267699
 20
24.378370
 30
0.0
 10
22.016535
 20
24.378370
 30
0.0
 10
22.436813
 20
25.106314
 30
0.0
 10
22.562393
 20
24.888801
 30
0.0
 10
22.562393
 20
24.888801
 30
0.0
  0
LWPOLYLINE
  5
19e
100
AcDbEntity
  8
Layer_1
 62
5
100
AcDbPolyline
 90
6
 70
1
 10
25.350010
 20
29.722689
 30
0.0
 10
25.055316
 20
29.212273
 30
0.0
 10
24.804152
 20
29.212273
 30
0.0
 10
25.224429
 20
29.940203
 30
0.0
 10
25.350010
 20
29.722689
 30
0.0
 10
25.350010
 20
29.722689
 30
0.0
  0
LWPOLYLINE
  5
19f
100
AcDbEntity
  8
Layer_1
 62
5
100
AcDbPolyline
 90
6
 70
1
 10
21.923998
 20
25.399217
 30
0.0
 10
21.506470
 20
24.676037
 30
0.0
 10
21.383631
 20
24.888787
 30
0.0
 10
21.678325
 20
25.399217
 30
0.0
 10
21.923998
 20
25.399217
 30
0.0
 10
21.923998
 20
25.399217
 30
0.0
  0
LWPOLYLINE
  5
1a0
100
AcDbEntity
  8
Layer_1
 62
5
100
AcDbPolyline
 90
6
 70
1
 10
24.711641
 20
30.233106
 30
0.0
 10
24.294092
 20
29.509898
 30
0.0
 10
24.171248
 20
29.722689
 30
0.0
 10
24.465942
 20
30.233106
 30
0.0
 10
24.711641
 20
30.233106
 30
0.0
 10
24.711641
 20
30.233106
 30
0.0
  0
LWPOLYLINE
  5
1a1
100
AcDbEntity
  8
Layer_1
 62
5
100
AcDbPolyline
 90
6
 70
1
 10
18.642291
 20
20.238356
 30
0.0
 10
18.395068
 20
19.810148
 30
0.0
 10
17.216288
 20
19.810148
 30
0.0
 10
16.969075
 20
20.238342
 30
0.0
 10
18.642291
 20
20.238342
 30
0.0
 10
18.642291
 20
20.238356
 30
0.0
  0
LWPOLYLINE
  5
1a2
100
AcDbEntity
  8
Layer_1
 62
5
100
AcDbPolyline
 90
6
 70
1
 10
27.358393
 20
35.338162
 30
0.0
 10
27.110303
 20
34.908467
 30
0.0
 10
26.272845
 20
36.358981
 30
0.0
 10
26.769013
 20
36.358981
 30
0.0
 10
27.358393
 20
35.338148
 30
0.0
 10
27.358393
 20
35.338162
 30
0.0
  0
LWPOLYLINE
  5
1a3
100
AcDbEntity
  8
Layer_1
 62
5
100
AcDbPolyline
 90
10
 70
1
 10
21.924241
 20
25.989787
 30
0.0
 10
21.337366
 20
25.989787
 30
0.0
 10
20.701720
 20
24.888814
 30
0.0
 10
20.995103
 20
24.380662
 30
0.0
 10
19.818610
 20
24.380662
 30
0.0
 10
19.243879
 20
25.376120
 30
0.0
 10
20.186463
 20
27.008731
 30
0.0
 10
21.335949
 20
27.008731
 30
0.0
 10
21.924241
 20
25.989801
 30
0.0
 10
21.924241
 20
25.989787
 30
0.0
  0
LWPOLYLINE
  5
1a4
100
AcDbEntity
  8
Layer_1
 62
5
100
AcDbPolyline
 90
10
 70
1
 10
24.711863
 20
30.823648
 30
0.0
 10
24.124995
 20
30.823648
 30
0.0
 10
23.489349
 20
29.722676
 30
0.0
 10
23.782721
 20
29.214537
 30
0.0
 10
22.606227
 20
29.214537
 30
0.0
 10
22.032184
 20
30.208801
 30
0.0
 10
22.975454
 20
31.842592
 30
0.0
 10
24.123566
 20
31.842592
 30
0.0
 10
24.711863
 20
30.823634
 30
0.0
 10
24.711863
 20
30.823648
 30
0.0
  0
LWPOLYLINE
  5
1a5
100
AcDbEntity
  8
Layer_1
 62
5
100
AcDbPolyline
 90
6
 70
1
 10
18.644709
 20
21.419453
 30
0.0
 10
16.966664
 20
21.419453
 30
0.0
 10
17.216303
 20
21.851842
 30
0.0
 10
18.395059
 20
21.851842
 30
0.0
 10
18.644709
 20
21.419453
 30
0.0
 10
18.644709
 20
21.419453
 30
0.0
  0
LWPOLYLINE
  5
1a6
100
AcDbEntity
  8
Layer_1
 62
5
100
AcDbPolyline
 90
6
 70
1
 10
26.087811
 20
34.317314
 30
0.0
 10
25.590242
 20
34.317314
 30
0.0
 10
25.000870
 20
35.338162
 30
0.0
 10
25.249648
 20
35.769051
 30
0.0
 10
26.087811
 20
34.317328
 30
0.0
 10
26.087811
 20
34.317314
 30
0.0
  0
LWPOLYLINE
  5
1a7
100
AcDbEntity
  8
Layer_1
 62
5
100
AcDbPolyline
 90
8
 70
1
 10
19.308898
 20
24.082398
 30
0.0
 10
18.702995
 20
23.032939
 30
0.0
 10
17.212236
 20
23.032939
 30
0.0
 10
16.505756
 20
24.256592
 30
0.0
 10
16.983173
 20
25.083495
 30
0.0
 10
18.730913
 20
25.083495
 30
0.0
 10
19.308897
 20
24.082384
 30
0.0
 10
19.308898
 20
24.082398
 30
0.0
  0
LWPOLYLINE
  5
1a8
100
AcDbEntity
  8
Layer_1
 62
5
100
AcDbPolyline
 90
8
 70
1
 10
24.720666
 20
33.461287
 30
0.0
 10
24.127068
 20
32.433148
 30
0.0
 10
22.945584
 20
32.433148
 30
0.0
 10
22.198785
 20
33.726634
 30
0.0
 10
22.789854
 20
34.750398
 30
0.0
 10
23.976388
 20
34.750398
 30
0.0
 10
24.720666
 20
33.461273
 30
0.0
 10
24.720666
 20
33.461287
 30
0.0
  0
LWPOLYLINE
  5
1a9
100
AcDbEntity
  8
Layer_1
 62
5
100
AcDbPolyline
 90
6
 70
1
 10
22.096468
 20
28.916314
 30
0.0
 10
21.336093
 20
27.599314
 30
0.0
 10
20.525121
 20
27.599314
 30
0.0
 10
21.690975
 20
29.618634
 30
0.0
 10
22.096468
 20
28.916314
 30
0.0
 10
22.096468
 20
28.916314
 30
0.0
  0
LWPOLYLINE
  5
1aa
100
AcDbEntity
  8
Layer_1
 62
5
100
AcDbPolyline
 90
6
 70
1
 10
18.639829
 20
26.692217
 30
0.0
 10
18.392961
 20
26.264634
 30
0.0
 10
17.214199
 20
26.264634
 30
0.0
 10
16.967339
 20
26.692231
 30
0.0
 10
18.639829
 20
26.692231
 30
0.0
 10
18.639829
 20
26.692217
 30
0.0
  0
LWPOLYLINE
  5
1ab
100
AcDbEntity
  8
Layer_1
 62
5
100
AcDbPolyline
 90
6
 70
1
 10
16.187767
 20
22.445120
 30
0.0
 10
15.939579
 20
22.015259
 30
0.0
 10
15.101999
 20
23.465953
 30
0.0
 10
15.598400
 20
23.465953
 30
0.0
 10
16.187767
 20
22.445092
 30
0.0
 10
16.187767
 20
22.445120
 30
0.0
  0
LWPOLYLINE
  5
1ac
100
AcDbEntity
  8
Layer_1
 62
5
100
AcDbPolyline
 90
11
 70
1
 10
14.916077
 20
20.243189
 30
0.0
 10
13.740146
 20
18.206412
 30
0.0
 10
10.705520
 20
18.206412
 30
0.0
 10
9.188214
 20
20.834481
 30
0.0
 10
10.705520
 20
23.462523
 30
0.0
 10
13.053839
 20
23.462523
 30
0.0
 10
12.466443
 20
22.445120
 30
0.0
 10
13.737713
 20
20.243162
 30
0.0
 10
14.078667
 20
20.243162
 30
0.0
 10
14.916077
 20
20.243162
 30
0.0
 10
14.916077
 20
20.243189
 30
0.0
  0
LWPOLYLINE
  5
1ad
100
AcDbEntity
  8
Layer_1
 62
5
100
AcDbPolyline
 90
6
 70
1
 10
24.219920
 20
36.360217
 30
0.0
 10
23.972406
 20
35.931509
 30
0.0
 10
22.793624
 20
35.931509
 30
0.0
 10
22.546118
 20
36.360189
 30
0.0
 10
24.219920
 20
36.360189
 30
0.0
 10
24.219920
 20
36.360217
 30
0.0
  0
LWPOLYLINE
  5
1ae
100
AcDbEntity
  8
Layer_1
 62
5
100
AcDbPolyline
 90
6
 70
1
 10
21.767204
 20
32.111995
 30
0.0
 10
21.518996
 20
31.682078
 30
0.0
 10
20.681406
 20
33.132856
 30
0.0
 10
21.177811
 20
33.132856
 30
0.0
 10
21.767204
 20
32.112009
 30
0.0
 10
21.767204
 20
32.111995
 30
0.0
  0
LWPOLYLINE
  5
1af
100
AcDbEntity
  8
Layer_1
 62
5
100
AcDbPolyline
 90
10
 70
1
 10
26.418903
 20
40.169370
 30
0.0
 10
25.243591
 20
38.133662
 30
0.0
 10
24.654336
 20
39.154273
 30
0.0
 10
22.111763
 20
39.154273
 30
0.0
 10
21.523749
 20
38.135801
 30
0.0
 10
20.349646
 20
40.169384
 30
0.0
 10
21.866952
 20
42.797439
 30
0.0
 10
24.901603
 20
42.797439
 30
0.0
 10
26.418903
 20
40.169370
 30
0.0
 10
26.418903
 20
40.169370
 30
0.0
  0
LWPOLYLINE
  5
1b0
100
AcDbEntity
  8
Layer_1
 62
5
100
AcDbPolyline
 90
13
 70
1
 10
20.495507
 20
29.910051
 30
0.0
 10
19.663229
 20
28.468495
 30
0.0
 10
19.074960
 20
29.487384
 30
0.0
 10
16.532360
 20
29.487384
 30
0.0
 10
15.942686
 20
28.466037
 30
0.0
 10
14.767625
 20
30.501342
 30
0.0
 10
16.284938
 20
33.129412
 30
0.0
 10
18.633252
 20
33.129412
 30
0.0
 10
18.045856
 20
32.112023
 30
0.0
 10
19.317139
 20
29.910078
 30
0.0
 10
19.658097
 20
29.910078
 30
0.0
 10
20.495507
 20
29.910078
 30
0.0
 10
20.495507
 20
29.910051
 30
0.0
  0
LWPOLYLINE
  5
1b1
100
AcDbEntity
  8
Layer_1
 62
5
100
AcDbPolyline
 90
6
 70
1
 10
18.643045
 20
27.873273
 30
0.0
 10
16.964270
 20
27.873273
 30
0.0
 10
17.214270
 20
28.306287
 30
0.0
 10
18.393036
 20
28.306287
 30
0.0
 10
18.643045
 20
27.873301
 30
0.0
 10
18.643045
 20
27.873273
 30
0.0
  0
LWPOLYLINE
  5
1b2
100
AcDbEntity
  8
Layer_1
 62
5
100
AcDbPolyline
 90
6
 70
1
 10
14.916959
 20
21.424273
 30
0.0
 10
14.419659
 20
21.424273
 30
0.0
 10
13.830285
 20
22.445106
 30
0.0
 10
14.078945
 20
22.875801
 30
0.0
 10
14.916959
 20
21.424287
 30
0.0
 10
14.916959
 20
21.424273
 30
0.0
  0
LWPOLYLINE
  5
1b3
100
AcDbEntity
  8
Layer_1
 62
5
100
AcDbPolyline
 90
6
 70
1
 10
24.221764
 20
37.541314
 30
0.0
 10
22.544328
 20
37.541314
 30
0.0
 10
22.793668
 20
37.973189
 30
0.0
 10
23.972431
 20
37.973189
 30
0.0
 10
24.221764
 20
37.541328
 30
0.0
 10
24.221764
 20
37.541314
 30
0.0
  0
LWPOLYLINE
  5
1b4
100
AcDbEntity
  8
Layer_1
 62
5
100
AcDbPolyline
 90
6
 70
1
 10
20.496359
 20
31.091162
 30
0.0
 10
19.999035
 20
31.091162
 30
0.0
 10
19.409675
 20
32.112023
 30
0.0
 10
19.658321
 20
32.542689
 30
0.0
 10
20.496359
 20
31.091176
 30
0.0
 10
20.496359
 20
31.091162
 30
0.0
  0
LWPOLYLINE
  5
1b5
100
AcDbEntity
  8
Layer_1
 62
5
100
AcDbPolyline
 90
6
 70
1
 10
16.303189
 20
25.480467
 30
0.0
 10
15.822016
 20
24.647051
 30
0.0
 10
15.098604
 20
24.647051
 30
0.0
 10
15.941486
 20
26.106967
 30
0.0
 10
16.303189
 20
25.480467
 30
0.0
 10
16.303189
 20
25.480467
 30
0.0
  0
LWPOLYLINE
  5
1b6
100
AcDbEntity
  8
Layer_1
 62
5
100
AcDbPolyline
 90
6
 70
1
 10
21.766502
 20
35.340023
 30
0.0
 10
21.177127
 20
34.319203
 30
0.0
 10
20.681016
 20
34.319203
 30
0.0
 10
21.518453
 20
35.769689
 30
0.0
 10
21.766502
 20
35.340023
 30
0.0
 10
21.766502
 20
35.340023
 30
0.0
  0
LWPOLYLINE
  5
1b7
100
AcDbEntity
  8
Layer_1
 62
5
100
AcDbPolyline
 90
6
 70
1
 10
15.030217
 20
26.890842
 30
0.0
 10
13.964745
 20
25.045398
 30
0.0
 10
13.602309
 20
25.673148
 30
0.0
 10
14.305343
 20
26.890842
 30
0.0
 10
15.030217
 20
26.890842
 30
0.0
 10
15.030217
 20
26.890842
 30
0.0
  0
LWPOLYLINE
  5
1b8
100
AcDbEntity
  8
Layer_1
 62
5
100
AcDbPolyline
 90
6
 70
1
 10
20.495960
 20
36.360870
 30
0.0
 10
19.657786
 20
34.909106
 30
0.0
 10
19.408992
 20
35.340037
 30
0.0
 10
19.998367
 20
36.360856
 30
0.0
 10
20.495960
 20
36.360856
 30
0.0
 10
20.495960
 20
36.360870
 30
0.0
  0
LWPOLYLINE
  5
1b9
100
AcDbEntity
  8
Layer_1
 62
5
100
AcDbPolyline
 90
10
 70
1
 10
13.281502
 20
24.653995
 30
0.0
 10
10.704141
 20
24.653995
 30
0.0
 10
9.186834
 20
27.282064
 30
0.0
 10
10.704153
 20
29.910134
 30
0.0
 10
13.738766
 20
29.910134
 30
0.0
 10
15.027345
 20
27.678259
 30
0.0
 10
13.850714
 20
27.678259
 30
0.0
 10
12.693089
 20
25.673189
 30
0.0
 10
13.281502
 20
24.654023
 30
0.0
 10
13.281502
 20
24.653995
 30
0.0
  0
LWPOLYLINE
  5
1ba
100
AcDbEntity
  8
Layer_1
 62
5
100
AcDbPolyline
 90
10
 70
1
 10
18.633571
 20
34.320884
 30
0.0
 10
16.283549
 20
34.320884
 30
0.0
 10
14.766216
 20
36.948953
 30
0.0
 10
16.283535
 20
39.577023
 30
0.0
 10
19.318174
 20
39.577023
 30
0.0
 10
20.493099
 20
37.541995
 30
0.0
 10
19.316463
 20
37.541995
 30
0.0
 10
18.045178
 20
35.340064
 30
0.0
 10
18.633571
 20
34.320912
 30
0.0
 10
18.633571
 20
34.320884
 30
0.0
  0
ENDSEC
  0
SECTION
  2
OBJECTS
  0
DICTIONARY
  5
C
330
0
100
AcDbDictionary
  3
ACAD_GROUP
350
D
  3
ACAD_MLINESTYLE
350
17
  0
DICTIONARY
  5
D
330
C
100
AcDbDictionary
  0
DICTIONARY
  5
1A
330
C
100
AcDbDictionary
  0
DICTIONARY
  5
17
330
C
100
AcDbDictionary
  3
STANDARD
350
18
  0
DICTIONARY
  5
19
330
C
100
AcDbDictionary
  0
ENDSEC
  0
EOF
