<?xml version="1.0" encoding="UTF-8" standalone="no"?>
<!-- Created with Inkscape (http://www.inkscape.org/) -->

<svg
   xmlns:dc="http://purl.org/dc/elements/1.1/"
   xmlns:cc="http://creativecommons.org/ns#"
   xmlns:rdf="http://www.w3.org/1999/02/22-rdf-syntax-ns#"
   xmlns:svg="http://www.w3.org/2000/svg"
   xmlns="http://www.w3.org/2000/svg"
   xmlns:sodipodi="http://sodipodi.sourceforge.net/DTD/sodipodi-0.dtd"
   xmlns:inkscape="http://www.inkscape.org/namespaces/inkscape"
   width="60in"
   height="48in"
   viewBox="0 0 5399.9999 4320"
   id="svg4475"
   version="1.1"
   inkscape:version="0.91pre4 r13712"
   sodipodi:docname="swirl.svg">
  <defs
     id="defs4477" />
  <sodipodi:namedview
     id="base"
     pagecolor="#ffffff"
     bordercolor="#666666"
     borderopacity="1.0"
     inkscape:pageopacity="0.0"
     inkscape:pageshadow="2"
     inkscape:zoom="0.061871844"
     inkscape:cx="-561.55816"
     inkscape:cy="2395.9779"
     inkscape:document-units="cm"
     inkscape:current-layer="layer1"
     showgrid="false"
     units="ft"
     inkscape:window-width="1920"
     inkscape:window-height="1017"
     inkscape:window-x="1912"
     inkscape:window-y="-8"
     inkscape:window-maximized="1" />
  <metadata
     id="metadata4480">
    <rdf:RDF>
      <cc:Work
         rdf:about="">
        <dc:format>image/svg+xml</dc:format>
        <dc:type
           rdf:resource="http://purl.org/dc/dcmitype/StillImage" />
        <dc:title></dc:title>
      </cc:Work>
    </rdf:RDF>
  </metadata>
  <g
     inkscape:label="Layer 1"
     inkscape:groupmode="layer"
     id="layer1"
     transform="translate(0,3267.6377)">
    <g
       transform="matrix(2.2236528,0,0,2.2236528,109.86078,-5148.4719)"
       id="g10"
       style="fill:none;stroke:#0000ff;stroke-width:0.5mm">
      <path
         style="stroke:#ff0000;fill:none"
         d="m 1950,1792 -14,-23 -36,-63 -53,-91 -64,-112 -70,-121 -70,-121 -64,-111 -53,-92 -36,-62 -13,-23 -2,-2 -1,-2 -2,-2 -2,-1 -2,-1 -2,-2 -2,0 -2,-1 -3,0 -2,-1 -26,0 -72,0 -106,0 -129,0 -140,0 -140,0 -128,0 -106,0 -72,0 -26,0 -3,1 -2,0 -2,1 -3,0 -2,2 -2,1 -2,1 -1,2 -2,2 -1,2 -13,23 -36,62 -53,92 -64,111 -70,121 -70,121 -65,112 -53,91 -36,63 -13,23 -1,2 -1,2 0,2 -1,3 0,2 0,2 1,3 0,2 1,2 1,2 13,23 36,62 53,92 65,112 70,121 70,121 64,111 53,92 36,62 13,23 1,2 2,2 1,2 2,1 2,1 2,2 3,0 2,1 2,0 3,1 26,0 72,0 106,0 128,0 140,0 140,0 129,0 106,0 72,0 26,0 2,-1 3,0 2,-1 2,0 2,-2 2,-1 2,-1 2,-2 1,-2 2,-2 13,-23 36,-62 53,-92 64,-111 70,-121 70,-121 64,-112 53,-92 36,-62 14,-23 1,-2 0,-2 1,-2 0,-3 1,-2 -1,-2 0,-3 -1,-2 0,-2 -1,-2"
         id="path4365" />
      <path
         style="stroke:#0000ff;fill:none"
         d="m 1763,2047 -139,129 42,-570 100,436 -3,5"
         id="path4363" />
      <path
         style="stroke:#0000ff;fill:none"
         d="m 1162,2599 -181,-56 515,-248 -328,304 -6,0"
         id="path4361" />
      <path
         style="stroke:#0000ff;fill:none"
         d="m 384,2355 -42,-185 472,322 -427,-132 -3,-5"
         id="path4359" />
      <path
         style="stroke:#0000ff;fill:none"
         d="m 206,1559 139,-129 -42,570 -100,-436 3,-5"
         id="path4357" />
      <path
         style="stroke:#0000ff;fill:none"
         d="m 807,1007 181,56 -515,248 328,-304 6,0"
         id="path4355" />
      <path
         style="stroke:#0000ff;fill:none"
         d="m 1224,1207 93,116 -453,-67 353,-54 7,5"
         id="path4353" />
      <path
         style="stroke:#0000ff;fill:none"
         d="m 1620,1712 -54,139 -168,-426 223,279 -1,8"
         id="path4351" />
      <path
         style="stroke:#0000ff;fill:none"
         d="m 1381,2308 -148,22 285,-358 -130,332 -7,4"
         id="path4349" />
      <path
         style="stroke:#0000ff;fill:none"
         d="m 745,2399 -93,-117 453,68 -353,54 -7,-5"
         id="path4347" />
      <path
         style="stroke:#0000ff;fill:none"
         d="m 349,1894 54,-139 168,426 -223,-279 1,-8"
         id="path4345" />
      <path
         style="stroke:#0000ff;fill:none"
         d="m 775,1269 139,21 -343,235 203,-255 1,-1"
         id="path4343" />
      <path
         style="stroke:#0000ff;fill:none"
         d="m 1342,1355 51,131 -375,-180 323,48 1,1"
         id="path4341" />
      <path
         style="stroke:#0000ff;fill:none"
         d="m 1551,1888 -87,110 -32,-414 120,303 -1,1"
         id="path4339" />
      <path
         style="stroke:#0000ff;fill:none"
         d="m 1194,2336 -139,-20 343,-235 -203,255 -1,0"
         id="path4337" />
      <path
         style="stroke:#0000ff;fill:none"
         d="m 627,2251 -51,-131 375,180 -323,-48 -1,-1"
         id="path4335" />
      <path
         style="stroke:#0000ff;fill:none"
         d="m 529,1578 99,-68 -83,365 -22,-290 6,-7"
         id="path4333" />
      <path
         style="stroke:#0000ff;fill:none"
         d="m 952,1296 108,52 -357,111 240,-164 9,1"
         id="path4331" />
      <path
         style="stroke:#0000ff;fill:none"
         d="m 1407,1521 9,120 -275,-254 263,125 3,9"
         id="path4329" />
      <path
         style="stroke:#0000ff;fill:none"
         d="m 1440,2028 -99,68 82,-365 23,290 -6,7"
         id="path4327" />
      <path
         style="stroke:#0000ff;fill:none"
         d="m 1017,2310 -108,-52 357,-111 -240,164 -9,-1"
         id="path4325" />
      <path
         style="stroke:#0000ff;fill:none"
         d="m 1339,1883 -62,-269 109,188 -47,81"
         id="path4323" />
      <path
         style="stroke:#0000ff;fill:none"
         d="m 1262,1733 -124,-155 129,88 -5,67"
         id="path4321" />
      <path
         style="stroke:#0000ff;fill:none"
         d="m 1180,1896 -31,22 24,-110 7,88"
         id="path4319" />
      <path
         style="stroke:#0000ff;fill:none"
         d="m 788,1710 32,-22 -25,110 -7,-88"
         id="path4317" />
      <path
         style="stroke:#0000ff;fill:none"
         d="m 955,1789 27,-18 29,14 3,32 -27,18 -29,-14 -3,-32"
         id="path4315" />
      <path
         style="stroke:#0000ff;fill:none"
         d="m 1040,1723 7,1 1,3 -8,-4"
         id="path4313" />
      <path
         style="stroke:#0000ff;fill:none"
         d="m 929,1883 -7,-1 -1,-3 8,4"
         id="path4311" />
      <path
         style="stroke:#0000ff;fill:none"
         d="m 1019,1896 7,-5 -4,6 -3,-1"
         id="path4309" />
      <path
         style="stroke:#0000ff;fill:none"
         d="m 1082,1820 0,-9 2,6 -2,3"
         id="path4307" />
      <path
         style="stroke:#0000ff;fill:none"
         d="m 1009,1698 17,-2 4,5 -21,-3"
         id="path4305" />
      <path
         style="stroke:#0000ff;fill:none"
         d="m 950,1710 -8,5 5,-6 3,1"
         id="path4303" />
      <path
         style="stroke:#0000ff;fill:none"
         d="m 886,1786 1,9 -2,-6 1,-3"
         id="path4301" />
      <path
         style="stroke:#0000ff;fill:none"
         d="m 960,1908 -17,2 -5,-5 22,3"
         id="path4299" />
      <path
         style="stroke:#0000ff;fill:none"
         d="m 1049,1894 14,-18 -6,16 -8,2"
         id="path4297" />
      <path
         style="stroke:#0000ff;fill:none"
         d="m 1095,1792 -8,-20 11,13 -3,7"
         id="path4295" />
      <path
         style="stroke:#0000ff;fill:none"
         d="m 968,1685 25,-13 10,7 -35,6"
         id="path4293" />
      <path
         style="stroke:#0000ff;fill:none"
         d="m 919,1712 -13,17 6,-16 7,-1"
         id="path4291" />
      <path
         style="stroke:#0000ff;fill:none"
         d="m 873,1814 9,20 -11,-13 2,-7"
         id="path4289" />
      <path
         style="stroke:#0000ff;fill:none"
         d="m 1001,1921 -26,13 -10,-7 36,-6"
         id="path4287" />
      <path
         style="stroke:#0000ff;fill:none"
         d="m 1082,1881 13,-33 -2,28 -11,5"
         id="path4285" />
      <path
         style="stroke:#0000ff;fill:none"
         d="m 1101,1758 -22,-28 23,15 -1,13"
         id="path4283" />
      <path
         style="stroke:#0000ff;fill:none"
         d="m 921,1686 29,-28 17,5 -46,23"
         id="path4281" />
      <path
         style="stroke:#0000ff;fill:none"
         d="m 887,1725 -13,33 2,-28 11,-5"
         id="path4279" />
      <path
         style="stroke:#0000ff;fill:none"
         d="m 868,1848 22,28 -23,-16 1,-12"
         id="path4277" />
      <path
         style="stroke:#0000ff;fill:none"
         d="m 1048,1920 -30,28 -17,-5 47,-23"
         id="path4275" />
      <path
         style="stroke:#0000ff;fill:none"
         d="m 1114,1858 3,-52 10,40 -13,12"
         id="path4273" />
      <path
         style="stroke:#0000ff;fill:none"
         d="m 1097,1718 -43,-29 39,12 4,17"
         id="path4271" />
      <path
         style="stroke:#0000ff;fill:none"
         d="m 872,1705 27,-48 24,0 -51,48"
         id="path4269" />
      <path
         style="stroke:#0000ff;fill:none"
         d="m 855,1748 -4,52 -9,-40 13,-12"
         id="path4267" />
      <path
         style="stroke:#0000ff;fill:none"
         d="m 872,1888 43,29 -39,-12 -4,-17"
         id="path4265" />
      <path
         style="stroke:#0000ff;fill:none"
         d="m 1097,1901 -27,48 -24,0 51,-48"
         id="path4263" />
      <path
         style="stroke:#0000ff;fill:none"
         d="m 1142,1823 -16,-68 27,47 -11,21"
         id="path4261" />
      <path
         style="stroke:#0000ff;fill:none"
         d="m 1080,1677 -67,-20 55,-1 12,21"
         id="path4259" />
      <path
         style="stroke:#0000ff;fill:none"
         d="m 828,1742 15,-69 29,-9 -44,78"
         id="path4257" />
      <path
         style="stroke:#0000ff;fill:none"
         d="m 827,1783 16,68 -28,-47 12,-21"
         id="path4255" />
      <path
         style="stroke:#0000ff;fill:none"
         d="m 889,1929 66,20 -54,1 -12,-21"
         id="path4253" />
      <path
         style="stroke:#0000ff;fill:none"
         d="m 1141,1864 -16,69 -29,9 45,-78"
         id="path4251" />
      <path
         style="stroke:#0000ff;fill:none"
         d="m 1161,1775 -46,-77 52,48 -6,29"
         id="path4249" />
      <path
         style="stroke:#0000ff;fill:none"
         d="m 1049,1637 -90,0 67,-21 23,21"
         id="path4247" />
      <path
         style="stroke:#0000ff;fill:none"
         d="m 808,1830 45,78 -51,-48 6,-30"
         id="path4245" />
      <path
         style="stroke:#0000ff;fill:none"
         d="m 920,1969 90,0 -67,21 -23,-21"
         id="path4243" />
      <path
         style="stroke:#0000ff;fill:none"
         d="m 1083,1642 80,38 3,38 -83,-76"
         id="path4241" />
      <path
         style="stroke:#0000ff;fill:none"
         d="m 1002,1603 -108,34 73,-50 35,16"
         id="path4239" />
      <path
         style="stroke:#0000ff;fill:none"
         d="m 802,1888 83,76 -79,-38 -4,-38"
         id="path4237" />
      <path
         style="stroke:#0000ff;fill:none"
         d="m 967,2003 107,-34 -72,50 -35,-16"
         id="path4235" />
      <path
         style="stroke:#0000ff;fill:none"
         d="m 1030,1595 107,15 17,44 -124,-59"
         id="path4233" />
      <path
         style="stroke:#0000ff;fill:none"
         d="m 826,1660 68,-85 46,6 -114,79"
         id="path4231" />
      <path
         style="stroke:#0000ff;fill:none"
         d="m 770,1731 11,137 -40,-101 29,-36"
         id="path4229" />
      <path
         style="stroke:#0000ff;fill:none"
         d="m 815,1952 124,59 -107,-15 -17,-44"
         id="path4227" />
      <path
         style="stroke:#0000ff;fill:none"
         d="m 1142,1946 -67,85 -46,-6 113,-79"
         id="path4225" />
      <path
         style="stroke:#0000ff;fill:none"
         d="m 1198,1875 -10,-137 40,101 -30,36"
         id="path4223" />
      <path
         style="stroke:#0000ff;fill:none"
         d="m 956,1564 129,-20 35,44 -164,-24"
         id="path4221" />
      <path
         style="stroke:#0000ff;fill:none"
         d="m 763,1708 47,-122 56,-8 -103,130"
         id="path4219" />
      <path
         style="stroke:#0000ff;fill:none"
         d="m 730,1793 62,154 -82,-102 20,-52"
         id="path4217" />
      <path
         style="stroke:#0000ff;fill:none"
         d="m 1013,2042 -129,20 -36,-44 165,24"
         id="path4215" />
      <path
         style="stroke:#0000ff;fill:none"
         d="m 1206,1898 -47,122 -56,8 103,-130"
         id="path4213" />
      <path
         style="stroke:#0000ff;fill:none"
         d="m 1239,1813 -62,-155 82,103 -20,52"
         id="path4211" />
      <path
         style="stroke:#0000ff;fill:none"
         d="m 866,1558 141,-69 56,38 -197,31"
         id="path4209" />
      <path
         style="stroke:#0000ff;fill:none"
         d="m 713,1783 11,-156 61,-30 -72,186"
         id="path4207" />
      <path
         style="stroke:#0000ff;fill:none"
         d="m 706,1873 125,155 -129,-88 4,-67"
         id="path4205" />
      <path
         style="stroke:#0000ff;fill:none"
         d="m 1103,2048 -141,69 -56,-38 197,-31"
         id="path4203" />
      <path
         style="stroke:#0000ff;fill:none"
         d="m 1256,1823 -11,156 -61,30 72,-186"
         id="path4201" />
      <path
         style="stroke:#0000ff;fill:none"
         d="m 1067,1506 177,54 18,78 -195,-132"
         id="path4199" />
      <path
         style="stroke:#0000ff;fill:none"
         d="m 769,1583 135,-126 77,23 -212,103"
         id="path4197" />
      <path
         style="stroke:#0000ff;fill:none"
         d="m 686,1879 -42,-180 59,-54 -17,234"
         id="path4195" />
      <path
         style="stroke:#0000ff;fill:none"
         d="m 901,2099 -176,-54 -19,-77 195,131"
         id="path4193" />
      <path
         style="stroke:#0000ff;fill:none"
         d="m 1200,2023 -135,126 -77,-23 212,-103"
         id="path4191" />
      <path
         style="stroke:#0000ff;fill:none"
         d="m 1283,1727 41,180 -58,54 17,-234"
         id="path4189" />
      <path
         style="stroke:#0000ff;fill:none"
         d="m 967,1455 217,0 47,81 -264,-81"
         id="path4187" />
      <path
         style="stroke:#0000ff;fill:none"
         d="m 675,1644 108,-188 94,0 -202,188"
         id="path4185" />
      <path
         style="stroke:#0000ff;fill:none"
         d="m 630,1723 62,269 -109,-188 47,-81"
         id="path4183" />
      <path
         style="stroke:#0000ff;fill:none"
         d="m 958,2137 0,0 1,1 4,1 5,1 5,2 7,2 6,2 6,2 5,1 3,1 2,1 -6,0 -17,0 -24,0 -30,0 -32,0 -32,0 -30,0 -24,0 -16,0 -7,0 -1,-2 -3,-6 -6,-9 -6,-11 -7,-12 -7,-12 -6,-11 -6,-10 -3,-6 -2,-2 7,2 16,5 25,8 30,9 33,10 32,10 30,9 25,7 17,5 6,2"
         id="path4181" />
      <path
         style="stroke:#0000ff;fill:none"
         d="m 1294,1962 -108,188 -94,0 202,-188"
         id="path4179" />
      <path
         style="stroke:#0000ff;fill:none"
         d="m 1373,1864 -56,247 -104,32 160,-279"
         id="path4177" />
      <path
         style="stroke:#0000ff;fill:none"
         d="m 1393,1775 -162,-278 186,171 -24,107"
         id="path4175" />
      <path
         style="stroke:#0000ff;fill:none"
         d="m 842,1436 242,-75 81,74 -323,1"
         id="path4173" />
      <path
         style="stroke:#0000ff;fill:none"
         d="m 595,1742 56,-247 105,-32 -161,279"
         id="path4171" />
      <path
         style="stroke:#0000ff;fill:none"
         d="m 576,1831 162,278 -187,-171 25,-107"
         id="path4169" />
      <path
         style="stroke:#0000ff;fill:none"
         d="m 1067,2170 0,0 2,0 4,0 7,0 8,0 9,0 8,0 9,0 6,0 5,0 1,0 -6,2 -19,6 -27,8 -33,10 -36,12 -35,11 -33,10 -27,8 -19,6 -7,2 -2,-2 -6,-6 -9,-8 -11,-10 -12,-11 -12,-11 -11,-10 -9,-8 -6,-6 -2,-2 7,0 20,0 30,0 36,0 39,0 38,-1 36,0 30,0 20,0 7,0"
         id="path4167" />
      <path
         style="stroke:#0000ff;fill:none"
         d="m 827,2219 -262,-126 -4,-8 -9,-120 275,254"
         id="path4165" />
      <path
         style="stroke:#0000ff;fill:none"
         d="m 505,1608 32,414 -120,-303 1,-1 87,-110"
         id="path4163" />
      <path
         style="stroke:#0000ff;fill:none"
         d="m 450,1634 130,-333 8,-3 147,-23 -285,359"
         id="path4161" />
      <path
         style="stroke:#0000ff;fill:none"
         d="m 356,1791 30,-396 154,-74 -184,470"
         id="path4159" />
      <path
         style="stroke:#0000ff;fill:none"
         d="m 345,1946 315,395 -328,-223 13,-172"
         id="path4157" />
      <path
         style="stroke:#0000ff;fill:none"
         d="m 1288,2353 -357,172 -142,-96 499,-76"
         id="path4155" />
      <path
         style="stroke:#0000ff;fill:none"
         d="m 1612,1815 -29,396 -155,74 184,-470"
         id="path4153" />
      <path
         style="stroke:#0000ff;fill:none"
         d="m 1624,1659 -315,-394 328,223 -13,171"
         id="path4151" />
      <path
         style="stroke:#0000ff;fill:none"
         d="m 680,1253 358,-172 142,96 -500,76"
         id="path4149" />
      <path
         style="stroke:#0000ff;fill:none"
         d="m 1154,1114 428,132 3,5 42,185 -473,-322"
         id="path4147" />
      <path
         style="stroke:#0000ff;fill:none"
         d="m 1554,1197 -619,-190 509,0 110,190"
         id="path4145" />
      <path
         style="stroke:#0000ff;fill:none"
         d="m 525,1007 220,0 -475,440 255,-440"
         id="path4143" />
      <path
         style="stroke:#0000ff;fill:none"
         d="M 175,1612 319,2244 65,1803 175,1612"
         id="path4141" />
      <path
         style="stroke:#0000ff;fill:none"
         d="m 415,2408 618,191 -508,0 -110,-191"
         id="path4139" />
      <path
         style="stroke:#0000ff;fill:none"
         d="m 1444,2599 -220,0 474,-440 -254,440"
         id="path4137" />
      <path
         style="stroke:#0000ff;fill:none"
         d="m 1794,1994 -145,-632 255,441 -110,191"
         id="path12" />
    </g>
  </g>
</svg>
