<?xml version="1.0" encoding="UTF-8" standalone="no"?>
<!-- Created with Inkscape (http://www.inkscape.org/) -->

<svg
   xmlns:dc="http://purl.org/dc/elements/1.1/"
   xmlns:cc="http://creativecommons.org/ns#"
   xmlns:rdf="http://www.w3.org/1999/02/22-rdf-syntax-ns#"
   xmlns:svg="http://www.w3.org/2000/svg"
   xmlns="http://www.w3.org/2000/svg"
   xmlns:sodipodi="http://sodipodi.sourceforge.net/DTD/sodipodi-0.dtd"
   xmlns:inkscape="http://www.inkscape.org/namespaces/inkscape"
   width="60in"
   height="48in"
   viewBox="0 0 5399.9999 4320"
   id="svg4475"
   version="1.1"
   inkscape:version="0.91pre4 r13712"
   sodipodi:docname="swirl4.svg">
  <defs
     id="defs4477" />
  <sodipodi:namedview
     id="base"
     pagecolor="#ffffff"
     bordercolor="#666666"
     borderopacity="1.0"
     inkscape:pageopacity="0.0"
     inkscape:pageshadow="2"
     inkscape:zoom="0.12374369"
     inkscape:cx="2028.3903"
     inkscape:cy="1681.5865"
     inkscape:document-units="in"
     inkscape:current-layer="layer1"
     showgrid="false"
     units="ft"
     inkscape:window-width="1920"
     inkscape:window-height="1017"
     inkscape:window-x="1912"
     inkscape:window-y="-8"
     inkscape:window-maximized="1" />
  <metadata
     id="metadata4480">
    <rdf:RDF>
      <cc:Work
         rdf:about="">
        <dc:format>image/svg+xml</dc:format>
        <dc:type
           rdf:resource="http://purl.org/dc/dcmitype/StillImage" />
        <dc:title></dc:title>
      </cc:Work>
    </rdf:RDF>
  </metadata>
  <g
     inkscape:label="Layer 1"
     inkscape:groupmode="layer"
     id="layer1"
     transform="translate(0,3267.6378)">
    <path
       inkscape:connector-curvature="0"
       style="fill:none;stroke:#ff0000;stroke-width:4.97505808"
       d="m 1632.4197,643.39365 c 25.4494,-43.58154 35.0681,-56.01866 43.4591,-56.1913 5.9268,-0.1244 219.5417,25.03644 474.7001,55.90875 340.5675,41.20539 463.9242,57.80014 463.9242,62.41005 0,5.01483 -102.1912,6.27956 -507.456,6.27956 -402.6867,0 -507.4404,-1.28406 -507.3833,-6.21885 0.049,-3.42039 14.7805,-31.40502 32.7559,-62.18821 z"
       id="path3801-6" />
    <path
       inkscape:connector-curvature="0"
       style="fill:none;stroke:#ff0000;stroke-width:4.97505808"
       d="m 2593.2646,705.29825 c 4.8406,-1.26163 2.0844,-2.37653 -6.1243,-2.47803 -8.2089,-0.0996 -12.169,0.93086 -8.8009,2.2935 3.3681,1.36313 10.0844,1.44568 14.9252,0.18405 z"
       id="path3797-3" />
    <path
       inkscape:connector-curvature="0"
       style="fill:none;stroke:#ff0000;stroke-width:4.97505808"
       d="m 1740.2804,481.89078 c 24.0548,-32.35423 39.2134,-48.40236 45.8755,-48.56746 9.1656,-0.22889 862.9522,208.68477 867.8163,212.34488 1.1856,0.89268 -0.3432,4.12187 -3.3989,7.17706 -4.089,4.089 -126.7088,-9.08797 -464.8361,-49.95263 -252.6051,-30.52887 -464.3192,-56.61564 -470.476,-57.97036 -6.1566,-1.35472 -11.1292,-5.21878 -11.05,-8.58745 0.079,-3.3681 16.3098,-27.86777 36.0692,-54.44404 z"
       id="path3775-0" />
    <path
       inkscape:connector-curvature="0"
       style="fill:none;stroke:#ff0000;stroke-width:4.97505808"
       d="m 1854.5684,349.84878 c 17.246,-17.09285 35.7736,-31.07221 41.1726,-31.06525 14.4824,0 610.585,227.84125 615.1266,235.09342 2.2438,3.58297 1.312,6.74314 -2.2154,7.51228 -3.3483,0.73038 -158.3134,-36.30897 -344.3661,-82.30938 -244.444,-60.43746 -338.6661,-85.6506 -339.6759,-90.89529 -0.7688,-3.99205 12.7121,-21.24294 29.9582,-38.33578 z"
       id="path3753-2" />
    <path
       inkscape:connector-curvature="0"
       style="fill:none;stroke:#ff0000;stroke-width:4.97505808"
       d="m 2228.8003,-326.37807 c 170.7112,-295.51842 313.5619,-537.96547 317.446,-538.77096 8.3835,-1.73875 89.4242,135.73147 87.1476,147.83037 -2.4293,12.91173 -701.3807,940.68446 -708.6786,940.68446 -3.6969,0 -6.6263,-2.79846 -6.5099,-6.21875 0.1145,-3.42029 139.8837,-248.006704 310.5949,-543.52512 z"
       id="path3733-9" />
    <path
       inkscape:connector-curvature="0"
       style="fill:none;stroke:#ff0000;stroke-width:4.97505808"
       d="m 1960.9004,252.85159 c 12.7286,-10.26106 27.5623,-18.65645 32.9636,-18.65645 14.0794,0 411.619,210.19463 411.6563,217.65878 0,3.42029 -2.7681,6.21431 -6.1885,6.20938 -3.4203,0 -108.0727,-38.72939 -232.5607,-86.05359 -143.3989,-54.51372 -226.8317,-88.69343 -227.6779,-93.27289 -0.7345,-3.97619 9.0784,-15.62416 21.8072,-25.88523 z"
       id="path3729-1" />
    <path
       inkscape:connector-curvature="0"
       style="fill:none;stroke:#ff0000;stroke-width:4.97505808"
       d="m 2058.5402,184.38983 c 8.893,-5.42188 20.284,-9.86659 25.3132,-9.87703 8.685,0 243.4022,159.17147 249.6887,169.34303 1.6438,2.65965 -0.2288,6.07008 -4.1581,7.57849 -9.1716,3.51937 -286.9121,-142.52201 -286.9693,-150.89401 -10e-5,-3.46059 7.2326,-10.72823 16.1255,-16.15048 z"
       id="path3721-4" />
    <path
       inkscape:connector-curvature="0"
       style="fill:none;stroke:#ff0000;stroke-width:4.97505808"
       d="m 2364.7239,-284.09007 c 189.9491,-252.59515 285.3797,-375.61695 291.3727,-375.61685 6.5791,-1e-4 14.7347,13.61369 31.1548,52.00525 12.2337,28.60307 21.5784,57.05497 20.766,63.22597 -1.6547,12.57593 -609.2258,648.44018 -619.5874,648.44009 -3.4422,0 -6.2382,-2.79837 -6.2129,-6.218853 0.049,-3.42029 127.1531,-175.246371 282.5068,-381.835607 z"
       id="path3717-9" />
    <path
       inkscape:connector-curvature="0"
       style="fill:none;stroke:#ff0000;stroke-width:4.97505808"
       d="m 2148.9415,136.83567 c 6.6243,-1.66268 15.3775,-2.26508 19.4516,-1.33877 12.3202,2.80194 121.073,102.25541 121.073,110.72087 0,4.33278 -1.708,7.87758 -3.7954,7.87758 -8.9482,0 -148.7732,-100.68784 -148.7732,-107.13143 -1e-4,-3.90795 5.4202,-8.46556 12.044,-10.12825 z"
       id="path3713-4" />
    <path
       inkscape:connector-curvature="0"
       style="fill:none;stroke:#ff0000;stroke-width:4.97505808"
       d="m 2225.9997,107.60874 c 7.178,-4.43679 16.595,1.73924 34.8061,22.828 12.1595,14.08057 15.4231,21.1425 11.5576,25.00812 -3.8657,3.86571 -11.8114,0.1244 -28.1381,-13.25653 -22.0031,-18.0296 -27.6542,-28.75232 -18.2256,-34.57959 z"
       id="path3701-1" />
    <path
       inkscape:connector-curvature="0"
       style="fill:none;stroke:#ff0000;stroke-width:4.97505808"
       d="m 2477.4338,-234.4281 c 132.5698,-138.13346 244.0793,-251.79315 247.7993,-252.57669 9.8291,-2.07108 36.0546,91.90821 28.2667,101.29265 -10.4949,12.64514 -502.9968,412.556156 -510.0649,414.171572 -3.8706,0.884555 -7.0372,-1.393963 -7.0372,-5.063545 0,-3.669678 108.4662,-119.690529 241.0361,-257.823987 z"
       id="path3699-9" />
    <path
       inkscape:connector-curvature="0"
       style="fill:none;stroke:#ff0000;stroke-width:4.97505808"
       d="m 2404.3129,-43.909224 c 106.6652,-91.262416 356.2728,-290.302636 361.528,-288.286266 6.1219,2.34928 12.8382,35.06175 12.8381,62.52953 0,11.74067 -18.9101,24.98327 -190.4661,133.37633 -104.7567,66.187696 -194.0814,121.728262 -198.4994,123.423811 -19.215,7.373478 -11.7505,-8.498431 14.5994,-31.043405 z"
       id="path3665-9" />
    <path
       inkscape:connector-curvature="0"
       style="fill:none;stroke:#ff0000;stroke-width:4.97505808"
       d="m 2637.2481,-117.32512 c 72.708,-45.87755 135.9534,-83.69793 140.5455,-84.04524 6.8526,-0.51839 8.348,4.13637 8.3481,25.97687 l -1e-4,26.60806 -136.126,64.186701 c -74.8696,35.302529 -138.1151,64.186697 -140.5454,64.186697 -19.1719,0 13.7018,-24.93301 127.7779,-96.913078 z"
       id="path3643-9" />
    <path
       inkscape:connector-curvature="0"
       style="fill:none;stroke:#ff0000;stroke-width:4.97505808"
       d="m 2686.9172,-55.035413 c 40.8073,-19.482817 79.267,-36.696589 85.4659,-38.252266 10.1133,-2.538249 11.271,-1.028871 11.2711,14.691374 l -10e-5,17.51961 -82.9939,27.718617 c -45.6472,15.244573 -84.0795,26.632909 -85.4054,25.307093 -1.3257,-1.325914 0.7607,-2.44526 4.6374,-2.487018 6.0366,-0.06476 6.0282,-0.721389 -0.06,-4.575112 -5.1701,-3.272107 13.1262,-14.160024 67.0863,-39.922298 z"
       id="path3625-7" />
    <path
       inkscape:connector-curvature="0"
       style="fill:none;stroke:#ff0000;stroke-width:4.97505808"
       d="m 2649.3285,450.61007 c 5.3402,-14.47243 9.4864,-20.71409 9.9143,-14.9251 0.7353,9.9502 0.7353,9.9502 5.4556,0 4.8332,-10.18741 4.7443,-9.13969 -3.7004,43.53176 -2.2204,13.85002 -5.3906,18.65645 -12.3054,18.65655 -11.8564,-1e-4 -11.6695,-13.9148 0.6359,-47.26321 z"
       id="path3621-1" />
    <path
       inkscape:connector-curvature="0"
       style="fill:none;stroke:#ff0000;stroke-width:4.97505808"
       d="m 2710.9008,449.60518 c 14.1979,-67.56572 22.8609,-95.97788 23.0798,-75.69403 0.065,5.81587 0.96,5.74308 5.1263,-0.41294 3.893,-5.75265 4.5093,-4.61233 2.69,4.9751 -1.2979,6.84068 -5.0208,48.81772 -8.2725,93.28226 -5.0348,68.84088 -7.1074,80.82137 -13.9601,80.68653 -11.1147,-0.21894 -25.5543,-11.93467 -25.0076,-20.29014 0.2488,-3.80307 7.6034,-40.94837 16.3441,-82.54485 z"
       id="path3615-4" />
    <path
       inkscape:connector-curvature="0"
       style="fill:none;stroke:#ff0000;stroke-width:4.97505808"
       d="m 2730.2041,3.012083 c 34.0711,-10.740217 38.5249,-10.647131 38.5248,0.803939 10e-5,7.417266 -6.1477,10.512288 -30.3339,15.270381 -16.6838,3.282643 -31.6091,4.693039 -33.1668,3.134847 -1.5581,-1.558192 1.4578,-2.990047 6.7025,-3.182598 9.0257,-0.333291 9.0486,-0.541211 0.423,-3.938689 -6.9558,-2.739306 -2.732,-5.599922 17.8499,-12.08788 z"
       id="path3611-7" />
    <path
       inkscape:connector-curvature="0"
       style="fill:none;stroke:#ff0000;stroke-width:4.97505808"
       d="m 2781.4073,433.19737 c 6.2796,-69.77512 11.858,-133.58029 12.3963,-141.78912 l 0.979,-14.9252 3.7976,14.9252 3.7979,14.9253 1.3398,-14.9253 c 2.018,-22.47828 8.2393,80.56956 12.3894,205.22118 3.5414,106.37166 3.3198,110.694 -5.677,110.6766 -5.1492,1e-4 -16.6386,-4.45515 -25.5315,-9.87693 -19.0092,-11.59046 -18.6694,4.40586 -3.4915,-164.23173 z"
       id="path3601-1" />
    <path
       inkscape:connector-curvature="0"
       style="fill:none;stroke:#ff0000;stroke-width:4.97505808"
       d="m 2855.0664,164.54424 c 4.5046,0 8.1896,2.23134 8.1896,4.95866 -10e-5,2.72684 16.7908,108.7075 37.3129,235.51226 20.5221,126.80535 37.3129,236.75514 37.3129,244.33413 0,12.07193 -1.4835,13.40722 -11.976,10.77347 -6.5865,-1.65322 -22.0986,-7.34468 -34.4712,-12.64814 -27.7618,-11.90016 -26.0184,-0.98846 -33.0493,-206.81465 -2.8974,-84.82472 -6.6719,-181.65187 -8.3883,-215.17118 -2.7911,-54.52416 -2.2573,-60.94455 5.0694,-60.94455 z"
       id="path3581-3" />
    <path
       inkscape:connector-curvature="0"
       style="fill:none;stroke:#ff0000;stroke-width:4.97505808"
       d="m 2856.6008,190.66329 c 1.3801,-3.42029 1.3801,-9.01722 0,-12.4376 -1.38,-3.42039 -2.5094,-0.62193 -2.5093,6.21885 -1e-4,6.84067 1.1293,9.63914 2.5093,6.21875 z"
       id="path3579-8" />
    <path
       inkscape:connector-curvature="0"
       style="fill:none;stroke:#ff0000;stroke-width:4.97505808"
       d="m 2877.6553,-348.56781 c 3.2099,5.06712 4.8083,5.2473 6.3193,0.71394 1.1123,-3.33774 139.2141,231.72427 306.893,522.35971 167.6783,290.63592 303.6745,531.5427 302.2138,535.34906 -2.1149,5.5109 -18.6485,6.90544 -81.1692,6.84474 -43.1819,-0.0503 -81.1993,-1.7841 -84.4828,-3.87113 -6.1587,-3.91491 -454.283,-1052.30342 -454.1473,-1062.47836 0.05,-3.47558 1.7528,-3.05326 4.3732,1.08204 z"
       id="path3573-9" />
    <path
       inkscape:connector-curvature="0"
       style="fill:none;stroke:#ff0000;stroke-width:4.97505808"
       d="m 2887.7293,30.217715 c 4.4308,6.328271 5.2363,6.012863 5.3009,-2.073111 0.049,-5.244206 1.2423,-8.36958 2.6671,-6.944105 3.4238,3.423286 196.4113,670.704451 196.4113,679.118201 -1e-4,3.57911 -1.6791,6.46215 -3.7313,6.40744 -6.1257,-0.16423 -96.4848,-23.80023 -97.8718,-25.6022 -0.7034,-0.91336 -24.224,-144.94282 -52.2681,-320.06488 C 2910.1932,185.937 2886.181,38.177835 2884.8766,32.705216 c -1.9373,-8.126765 -1.4144,-8.58243 2.8527,-2.487501 z"
       id="path3569-4" />
    <path
       inkscape:connector-curvature="0"
       style="fill:none;stroke:#ff0000;stroke-width:4.97505808"
       d="m 2902.8071,-146.24264 c 2.5991,-1.60642 6.8566,1.06174 9.4617,5.92935 10.5023,19.62404 358.942,841.42259 358.942,846.56878 0,3.79099 -20.353,5.54522 -64.3406,5.54522 -56.9709,0 -64.6378,-0.99756 -66.9368,-8.70636 -26.9972,-90.53261 -241.852,-838.2108 -241.852,-841.62761 0,-2.63385 2.1269,-6.10285 4.7257,-7.70938 z"
       id="path3565-0" />
    <path
       id="path3801-6-8"
       d="m 1632.42,-2721.5263 c 25.4494,43.5816 35.0681,56.0187 43.4591,56.1913 5.9268,0.1243 219.5418,-25.0365 474.7001,-55.9087 340.5676,-41.2055 463.9243,-57.8002 463.9243,-62.4102 -10e-5,-5.0147 -102.1912,-6.2794 -507.456,-6.2794 -402.6867,0 -507.4405,1.284 -507.3833,6.2188 0.049,3.4204 14.7805,31.405 32.7558,62.1882 z"
       style="fill:none;stroke:#ff0000;stroke-width:4.97505808"
       inkscape:connector-curvature="0" />
    <path
       id="path3797-3-8"
       d="m 2593.2649,-2783.4309 c 4.8407,1.2616 2.0845,2.3765 -6.1243,2.478 -8.2089,0.1 -12.169,-0.9308 -8.8008,-2.2936 3.3681,-1.3631 10.0843,-1.4456 14.9252,-0.1839 z"
       style="fill:none;stroke:#ff0000;stroke-width:4.97505808"
       inkscape:connector-curvature="0" />
    <path
       id="path3775-0-0"
       d="m 1740.2807,-2560.0234 c 24.0549,32.3542 39.2134,48.4023 45.8755,48.5674 9.1655,0.2289 862.9522,-208.6847 867.8164,-212.3448 1.1855,-0.8927 -0.3432,-4.1219 -3.3989,-7.1771 -4.089,-4.089 -126.7088,9.0879 -464.8362,49.9526 -252.6052,30.5289 -464.3192,56.6157 -470.4759,57.9704 -6.1566,1.3546 -11.1292,5.2188 -11.05,8.5874 0.079,3.3681 16.3097,27.8677 36.0691,54.4441 z"
       style="fill:none;stroke:#ff0000;stroke-width:4.97505808"
       inkscape:connector-curvature="0" />
    <path
       id="path3753-2-3"
       d="m 1854.5687,-2427.9815 c 17.2461,17.0928 35.7737,31.0723 41.1726,31.0653 14.4825,0 610.5849,-227.8412 615.1266,-235.0934 2.2439,-3.583 1.312,-6.7431 -2.2153,-7.5123 -3.3483,-0.7303 -158.3134,36.309 -344.3661,82.3094 -244.444,60.4375 -338.6661,85.6505 -339.676,90.8953 -0.7687,3.992 12.7122,21.2428 29.9582,38.3357 z"
       style="fill:none;stroke:#ff0000;stroke-width:4.97505808"
       inkscape:connector-curvature="0" />
    <path
       id="path3733-9-0"
       d="m 2228.8007,-1751.7546 c 170.7112,295.5185 313.5619,537.9655 317.4459,538.771 8.3835,1.7388 89.4243,-135.7315 87.1477,-147.8304 -2.4294,-12.9117 -701.3808,-940.6844 -708.6786,-940.6844 -3.6969,-1e-4 -6.6263,2.7984 -6.51,6.2187 0.1145,3.4203 139.8838,248.0067 310.595,543.5251 z"
       style="fill:none;stroke:#ff0000;stroke-width:4.97505808"
       inkscape:connector-curvature="0" />
    <path
       id="path3729-1-3"
       d="m 1960.9006,-2330.9843 c 12.7288,10.2611 27.5624,18.6564 32.9637,18.6565 14.0795,0 411.6191,-210.1946 411.6564,-217.6588 -1e-4,-3.4203 -2.7681,-6.2143 -6.1885,-6.2094 -3.4203,10e-5 -108.0727,38.7294 -232.5607,86.0537 -143.399,54.5137 -226.8317,88.6934 -227.678,93.2728 -0.7345,3.9761 9.0785,15.6242 21.8071,25.8852 z"
       style="fill:none;stroke:#ff0000;stroke-width:4.97505808"
       inkscape:connector-curvature="0" />
    <path
       id="path3721-4-1"
       d="m 2058.5406,-2262.5225 c 8.8929,5.4219 20.2839,9.8666 25.3131,9.877 8.685,0 243.4022,-159.1714 249.6888,-169.343 1.6437,-2.6597 -0.2289,-6.07 -4.1581,-7.5785 -9.1717,-3.5193 -286.9121,142.522 -286.9694,150.8941 0,3.4605 7.2327,10.7282 16.1256,16.1504 z"
       style="fill:none;stroke:#ff0000;stroke-width:4.97505808"
       inkscape:connector-curvature="0" />
    <path
       id="path3717-9-4"
       d="m 2364.7242,-1794.0426 c 189.9492,252.5952 285.3797,375.617 291.3727,375.6169 6.5791,10e-5 14.7347,-13.6137 31.1549,-52.0053 12.2336,-28.603 21.5783,-57.0549 20.7659,-63.2259 -1.6547,-12.576 -609.2257,-648.4402 -619.5874,-648.4401 -3.4422,0 -6.2381,2.7983 -6.2128,6.2187 0.049,3.4203 127.1531,175.2465 282.5067,381.8357 z"
       style="fill:none;stroke:#ff0000;stroke-width:4.97505808"
       inkscape:connector-curvature="0" />
    <path
       id="path3713-4-2"
       d="m 2148.9419,-2214.9684 c 6.6243,1.6628 15.3775,2.2652 19.4515,1.3389 12.3203,-2.802 121.0731,-102.2554 121.073,-110.721 0,-4.3327 -1.7079,-7.8775 -3.7954,-7.8776 -8.9482,10e-5 -148.7732,100.6879 -148.7732,107.1315 0,3.908 5.4203,8.4656 12.0441,10.1282 z"
       style="fill:none;stroke:#ff0000;stroke-width:4.97505808"
       inkscape:connector-curvature="0" />
    <path
       id="path3701-1-2"
       d="m 2226.0001,-2185.7414 c 7.178,4.4367 16.5948,-1.7392 34.806,-22.828 12.1596,-14.0805 15.4232,-21.1425 11.5576,-25.0081 -3.8656,-3.8657 -11.8114,-0.1244 -28.138,13.2564 -22.0032,18.0297 -27.6543,28.7525 -18.2256,34.5797 z"
       style="fill:none;stroke:#ff0000;stroke-width:4.97505808"
       inkscape:connector-curvature="0" />
    <path
       id="path3699-9-1"
       d="m 2477.4341,-1843.7045 c 132.5699,138.1334 244.0793,251.7931 247.7993,252.5767 9.8292,2.071 36.0547,-91.9083 28.2668,-101.2928 -10.495,-12.645 -502.9968,-412.5561 -510.0649,-414.1716 -3.8707,-0.8845 -7.0372,1.3941 -7.0372,5.0637 0,3.6696 108.4662,119.6905 241.036,257.824 z"
       style="fill:none;stroke:#ff0000;stroke-width:4.97505808"
       inkscape:connector-curvature="0" />
    <path
       id="path3665-9-9"
       d="m 2404.3133,-2034.2234 c 106.6652,91.2624 356.2728,290.3025 361.5279,288.2863 6.1219,-2.3493 12.8382,-35.0618 12.8381,-62.5297 0,-11.7405 -18.9101,-24.9831 -190.466,-133.3762 -104.7568,-66.1878 -194.0814,-121.7284 -198.4995,-123.4238 -19.215,-7.3736 -11.7504,8.4984 14.5995,31.0434 z"
       style="fill:none;stroke:#ff0000;stroke-width:4.97505808"
       inkscape:connector-curvature="0" />
    <path
       id="path3643-9-3"
       d="m 2637.2485,-1960.8075 c 72.708,45.8775 135.9533,83.6979 140.5454,84.0452 6.8527,0.5184 8.3481,-4.1363 8.3481,-25.9768 l 0,-26.6081 -136.1261,-64.1867 c -74.8696,-35.3025 -138.1151,-64.1867 -140.5453,-64.1867 -19.1719,0 13.7017,24.933 127.7779,96.9131 z"
       style="fill:none;stroke:#ff0000;stroke-width:4.97505808"
       inkscape:connector-curvature="0" />
    <path
       id="path3625-7-4"
       d="m 2686.9174,-2023.0972 c 40.8075,19.4828 79.2672,36.6966 85.4661,38.2521 10.1132,2.5384 11.2709,1.0289 11.271,-14.6912 l -1e-4,-17.5196 -82.9938,-27.7187 c -45.6472,-15.2445 -84.0796,-26.6329 -85.4054,-25.3071 -1.3258,1.326 0.7606,2.4453 4.6373,2.4871 6.0367,0.065 6.0283,0.7214 -0.06,4.5751 -5.1702,3.272 13.1262,14.16 67.0862,39.9223 z"
       style="fill:none;stroke:#ff0000;stroke-width:4.97505808"
       inkscape:connector-curvature="0" />
    <path
       id="path3621-1-9"
       d="m 2649.3288,-2528.7427 c 5.3403,14.4724 9.4865,20.7141 9.9143,14.9251 0.7353,-9.9502 0.7353,-9.9502 5.4556,0 4.8333,10.1874 4.7443,9.1397 -3.7004,-43.5318 -2.2203,-13.85 -5.3905,-18.6564 -12.3053,-18.6565 -11.8566,1e-4 -11.6695,13.9148 0.6358,47.2632 z"
       style="fill:none;stroke:#ff0000;stroke-width:4.97505808"
       inkscape:connector-curvature="0" />
    <path
       id="path3615-4-6"
       d="m 2710.9011,-2527.7379 c 14.1979,67.5658 22.861,95.978 23.0797,75.6941 0.065,-5.8159 0.9602,-5.7432 5.1265,0.413 3.8929,5.7526 4.5093,4.6123 2.69,-4.9751 -1.298,-6.8407 -5.0208,-48.8178 -8.2726,-93.2823 -5.0347,-68.8409 -7.1074,-80.8214 -13.96,-80.6865 -11.1147,0.2189 -25.5543,11.9346 -25.0077,20.2901 0.2487,3.8031 7.6035,40.9483 16.3442,82.5449 z"
       style="fill:none;stroke:#ff0000;stroke-width:4.97505808"
       inkscape:connector-curvature="0" />
    <path
       id="path3611-7-7"
       d="m 2730.2045,-2081.1447 c 34.0711,10.7402 38.5248,10.6471 38.5247,-0.804 10e-5,-7.4172 -6.1476,-10.5122 -30.3339,-15.2703 -16.6838,-3.2827 -31.609,-4.6931 -33.1668,-3.1349 -1.5581,1.5582 1.4579,2.9901 6.7026,3.1826 9.0257,0.3333 9.0486,0.5412 0.4229,3.9387 -6.9558,2.7393 -2.7319,5.5999 17.85,12.0879 z"
       style="fill:none;stroke:#ff0000;stroke-width:4.97505808"
       inkscape:connector-curvature="0" />
    <path
       id="path3601-1-3"
       d="m 2781.4077,-2511.3301 c 6.2795,69.7752 11.858,133.5804 12.3963,141.7892 l 0.979,14.9251 3.7975,-14.9251 3.798,-14.9253 1.3398,14.9253 c 2.0179,22.4783 8.2391,-80.5695 12.3894,-205.2212 3.5413,-106.3716 3.3198,-110.6941 -5.677,-110.6766 -5.1493,-10e-5 -16.6387,4.4552 -25.5315,9.8769 -19.0092,11.5904 -18.6695,-4.4058 -3.4915,164.2317 z"
       style="fill:none;stroke:#ff0000;stroke-width:4.97505808"
       inkscape:connector-curvature="0" />
    <path
       id="path3581-3-9"
       d="m 2855.0668,-2242.677 c 4.5045,0 8.1895,-2.2312 8.1895,-4.9585 0,-2.7269 16.7909,-108.7075 37.3129,-235.5123 20.5222,-126.8053 37.313,-236.7551 37.3129,-244.3341 1e-4,-12.072 -1.4835,-13.4072 -11.9759,-10.7735 -6.5865,1.6532 -22.0986,7.3447 -34.4712,12.6481 -27.7618,11.9002 -26.0185,0.9884 -33.0493,206.8147 -2.8974,84.8247 -6.6719,181.6518 -8.3884,215.1712 -2.7911,54.5241 -2.2572,60.9445 5.0695,60.9444 z"
       style="fill:none;stroke:#ff0000;stroke-width:4.97505808"
       inkscape:connector-curvature="0" />
    <path
       id="path3579-8-0"
       d="m 2856.6011,-2268.7959 c 1.3801,3.4203 1.3801,9.0172 1e-4,12.4376 -1.38,3.4204 -2.5094,0.6219 -2.5093,-6.219 -10e-5,-6.8405 1.1293,-9.639 2.5092,-6.2186 z"
       style="fill:none;stroke:#ff0000;stroke-width:4.97505808"
       inkscape:connector-curvature="0" />
    <path
       id="path3573-9-1"
       d="m 2877.6556,-1729.5648 c 3.2099,-5.0671 4.8084,-5.2473 6.3194,-0.714 1.1123,3.3378 139.214,-231.7242 306.893,-522.3597 167.6782,-290.6359 303.6744,-531.5427 302.2138,-535.349 -2.1149,-5.511 -18.6486,-6.9055 -81.1692,-6.8448 -43.182,0.05 -81.1994,1.7841 -84.4829,3.8711 -6.1586,3.915 -454.283,1052.3035 -454.1472,1062.4784 0.05,3.4756 1.7527,3.0532 4.3731,-1.082 z"
       style="fill:none;stroke:#ff0000;stroke-width:4.97505808"
       inkscape:connector-curvature="0" />
    <path
       id="path3569-4-0"
       d="m 2887.7296,-2108.3504 c 4.4308,-6.3282 5.2364,-6.0129 5.3009,2.0732 0.049,5.2442 1.2424,8.3695 2.6671,6.9441 3.4239,-3.4233 196.4114,-670.7045 196.4113,-679.1182 0,-3.5791 -1.679,-6.4622 -3.7312,-6.4075 -6.1258,0.1643 -96.4848,23.8003 -97.8718,25.6022 -0.7035,0.9133 -24.224,144.9428 -52.2681,320.0649 -28.0443,175.1221 -52.0565,322.8812 -53.3609,328.3538 -1.9373,8.1268 -1.4144,8.5825 2.8527,2.4875 z"
       style="fill:none;stroke:#ff0000;stroke-width:4.97505808"
       inkscape:connector-curvature="0" />
    <path
       id="path3565-0-2"
       d="m 2902.8075,-1931.89 c 2.5991,1.6064 6.8566,-1.0617 9.4617,-5.9293 10.5022,-19.6241 358.9419,-841.4226 358.9419,-846.5688 0,-3.791 -20.3529,-5.5452 -64.3405,-5.5452 -56.9709,0 -64.638,0.9975 -66.9368,8.7063 -26.9973,90.5326 -241.852,838.2108 -241.8521,841.6276 10e-5,2.6339 2.1268,6.1029 4.7258,7.7094 z"
       style="fill:none;stroke:#ff0000;stroke-width:4.97505808"
       inkscape:connector-curvature="0" />
    <path
       id="path3801-6-1"
       d="m 632.36809,-989.38591 c 50.46744,0.24902 66.04766,2.36056 70.39266,9.54099 3.0711,5.07063 88.08867,202.64704 188.93167,439.05673 134.59878,315.54294 181.90568,430.67024 177.91338,432.9752 -4.3429,2.50737 -56.5338,-85.36035 -259.16619,-436.33 -201.34336,-348.73686 -252.6082,-440.09834 -248.30599,-442.51618 2.98678,-1.6675 34.58778,-2.90226 70.23447,-2.72674 z"
       style="fill:none;stroke:#ff0000;stroke-width:4.97505808"
       inkscape:connector-curvature="0" />
    <path
       id="path3797-3-1"
       d="m 1059.1796,-126.31755 c 3.5129,3.56137 3.1004,0.61692 -0.9161,-6.5428 -4.0182,-7.15884 -6.8906,-10.07326 -6.3867,-6.47503 0.5035,3.59842 3.7902,9.45621 7.3032,13.0176 z"
       style="fill:none;stroke:#ff0000;stroke-width:4.97505808"
       inkscape:connector-curvature="0" />
    <path
       id="path3775-0-2"
       d="m 826.16405,-976.72722 c 40.04701,4.65497 61.52438,9.75859 64.9984,15.44564 4.78099,7.82312 250.74985,851.68083 250.01205,857.7234 -0.1802,1.473 -3.7412,1.76364 -7.9149,0.64497 -5.5858,-1.4967 -55.4841,-114.27698 -189.15781,-427.53624 -99.86378,-234.02689 -183.12906,-430.42002 -185.03418,-436.42926 -1.90514,-6.00911 -1.045,-12.24754 1.91192,-13.86333 2.95648,-1.61542 32.28904,0.19079 65.18452,4.01482 z"
       style="fill:none;stroke:#ff0000;stroke-width:4.97505808"
       inkscape:connector-curvature="0" />
    <path
       id="path3753-2-8"
       d="m 997.65976,-943.77188 c 23.42584,6.38905 44.79614,15.44474 47.48964,20.12388 7.2412,12.54213 107.9761,642.70265 103.9664,650.26194 -1.9811,3.7347 -5.1837,4.5078 -7.6135,1.83757 -2.3066,-2.53448 -47.7122,-155.25787 -100.901,-339.38449 -69.88165,-241.91347 -95.15754,-336.11871 -91.12038,-339.61568 3.07279,-2.6617 24.75294,0.38765 48.17884,6.77678 z"
       style="fill:none;stroke:#ff0000;stroke-width:4.97505808"
       inkscape:connector-curvature="0" />
    <path
       id="path3733-9-1"
       d="m 1770.4054,-957.79098 c 341.2821,0.081 622.6726,2.56986 625.3123,5.53078 5.6975,6.39095 -72.8348,145.30939 -84.4511,149.38728 -12.3966,4.35199 -1165.347,-137.07133 -1168.9959,-143.39145 -1.8485,-3.2016 -0.8896,-7.13779 2.1306,-8.74719 3.0193,-1.61099 284.722,-2.86045 626.0041,-2.77942 z"
       style="fill:none;stroke:#ff0000;stroke-width:4.97505808"
       inkscape:connector-curvature="0" />
    <path
       id="path3729-1-6"
       d="m 1134.8277,-900.18433 c 15.2508,5.89281 29.9382,14.54144 32.6388,19.21909 7.0398,12.19316 23.7757,461.56983 17.3302,465.33425 -2.9621,1.71013 -6.7659,0.70989 -8.4718,-2.25471 -1.7101,-2.96209 -20.4957,-112.95841 -41.7557,-244.43028 -24.4893,-151.44399 -36.6051,-240.78871 -33.0623,-243.81129 3.0762,-2.62421 18.0701,0.0501 33.3208,5.94294 z"
       style="fill:none;stroke:#ff0000;stroke-width:4.97505808"
       inkscape:connector-curvature="0" />
    <path
       id="path3721-4-9"
       d="m 1242.9373,-849.85657 c 9.142,4.99053 18.6868,12.63306 21.2103,16.98332 4.3426,7.52143 -16.1454,290.3782 -21.8109,300.90827 -1.4815,2.75337 -5.3712,2.83686 -8.6422,0.18821 -7.6338,-6.18318 -20.0285,-319.73414 -12.8066,-323.96975 2.9968,-1.7303 12.9072,0.89959 22.0494,5.88995 z"
       style="fill:none;stroke:#ff0000;stroke-width:4.97505808"
       inkscape:connector-curvature="0" />
    <path
       id="path3717-9-40"
       d="m 1801.7446,-818.93376 c 313.7284,38.20325 467.9837,59.33763 470.9801,64.52772 3.2896,5.69763 -4.4224,19.56752 -29.4604,52.98355 -18.6542,24.89616 -38.6219,47.21483 -44.3724,49.59684 -11.7184,4.85492 -866.1785,-203.38493 -871.3592,-212.35839 -1.7211,-2.98105 -0.6956,-6.80161 2.2792,-8.48988 2.9867,-1.66743 215.3444,22.49458 471.9327,53.74016 z"
       style="fill:none;stroke:#ff0000;stroke-width:4.97505808"
       inkscape:connector-curvature="0" />
    <path
       id="path3713-4-1"
       d="m 1329.321,-795.34384 c 4.7521,4.90551 9.6505,12.1847 10.8852,16.17613 3.7336,12.07063 -28.0192,155.98001 -35.3505,160.21273 -3.7523,2.16637 -7.6762,2.45961 -8.7199,0.65186 -4.4741,-7.74936 12.8116,-179.18524 18.3919,-182.40707 3.3844,-1.95401 10.0416,0.46128 14.7933,5.36635 z"
       style="fill:none;stroke:#ff0000;stroke-width:4.97505808"
       inkscape:connector-curvature="0" />
    <path
       id="path3701-1-1"
       d="m 1393.1615,-743.22298 c 7.4313,3.99801 6.7912,15.24123 -2.3667,41.55692 -6.1142,17.57074 -10.5983,23.92811 -15.8788,22.5132 -5.2807,-1.41487 -6.0134,-10.16667 -2.5886,-30.99644 4.6126,-28.07011 11.0732,-38.32547 20.8341,-33.07368 z"
       style="fill:none;stroke:#ff0000;stroke-width:4.97505808"
       inkscape:connector-curvature="0" />
    <path
       id="path3699-9-8"
       d="m 1815.0911,-696.49314 c 185.912,45.74217 340.0989,85.48231 342.6375,88.3122 6.7082,7.47671 -61.5676,77.1783 -73.5888,75.12603 -16.1983,-2.76632 -608.7825,-229.32996 -613.7155,-234.64331 -2.7014,-2.90986 -2.3112,-6.79146 0.8666,-8.6262 3.1781,-1.83481 157.8882,34.08918 343.8002,79.83128 z"
       style="fill:none;stroke:#ff0000;stroke-width:4.97505808"
       inkscape:connector-curvature="0" />
    <path
       id="path3665-9-0"
       d="m 1613.5364,-664.55821 c 132.3682,46.74355 429.5458,163.39001 430.4272,168.94928 1.0265,6.47635 -23.9452,28.64908 -47.7331,42.38293 -10.1677,5.87029 -31.0911,-3.88504 -210.7403,-98.26031 -109.6986,-57.62816 -202.4605,-107.21528 -206.1378,-110.19366 -15.9932,-12.95397 1.4847,-14.42542 34.184,-2.87824 z"
       style="fill:none;stroke:#ff0000;stroke-width:4.97505808"
       inkscape:connector-curvature="0" />
    <path
       id="path3643-9-1"
       d="m 1793.5841,-499.53832 c 76.0851,40.02813 140.4611,75.89005 143.058,79.69328 3.8752,5.67537 0.5919,9.29784 -18.3225,20.21811 l -23.0434,13.30403 -123.6503,-85.79528 c -68.0076,-47.18769 -124.6448,-87.51786 -125.86,-89.62257 -9.586,-16.60329 28.4435,-0.60037 147.8182,62.20243 z"
       style="fill:none;stroke:#ff0000;stroke-width:4.97505808"
       inkscape:connector-curvature="0" />
    <path
       id="path3625-7-2"
       d="m 1764.4741,-425.37887 c 37.2763,25.59878 71.4137,50.29899 75.8605,54.88966 7.2547,7.48915 6.5264,9.24647 -7.0876,17.10666 l -15.1725,8.75972 -65.5019,-58.01555 c -36.0259,-31.90932 -65.1046,-59.49849 -64.6194,-61.30963 0.4854,-1.81113 2.498,-0.56385 4.4726,2.77251 3.0743,5.19558 3.6389,4.85994 3.9321,-2.33947 0.2486,-6.11359 18.826,4.28753 68.1169,38.13719 z"
       style="fill:none;stroke:#ff0000;stroke-width:4.97505808"
       inkscape:connector-curvature="0" />
    <path
       id="path3621-1-2"
       d="m 1307.778,-205.10888 c 15.2036,-2.61143 22.6821,-2.14158 17.8826,1.12353 -8.2494,5.61184 -8.2494,5.61184 2.7278,4.72468 11.2392,-0.908 10.2874,-0.4612 -39.5498,18.56124 -13.1046,5.00205 -18.8522,4.6599 -22.3096,-1.32846 -5.9283,-10.2681 6.2157,-17.0635 41.249,-23.08099 z"
       style="fill:none;stroke:#ff0000;stroke-width:4.97505808"
       inkscape:connector-curvature="0" />
    <path
       id="path3615-4-7"
       d="m 1339.4344,-152.28808 c 65.6126,-21.48721 94.5497,-28.19084 77.0928,-17.8594 -5.0043,2.96402 -4.4936,3.70301 2.9209,4.23312 6.9283,0.49507 6.249,1.59901 -2.9637,4.81718 -6.5731,2.29622 -44.7877,20.06068 -84.921,39.47684 -62.1353,30.060216 -73.5471,34.255555 -76.8566,28.253502 -5.3678,-9.735082 -2.4415,-28.097962 5.068,-31.802292 3.4179,-1.68614 39.2639,-13.88942 79.658,-27.118 z"
       style="fill:none;stroke:#ff0000;stroke-width:4.97505808"
       inkscape:connector-curvature="0" />
    <path
       id="path3611-7-0"
       d="m 1735.847,-358.86752 c 26.3369,24.13639 28.4831,28.04 18.5662,33.76543 -6.4236,3.70871 -12.1778,-0.0678 -28.3916,-18.63473 -11.1846,-12.80727 -19.8688,-25.02775 -19.2982,-27.15584 0.5704,-2.12846 3.3183,-0.23253 6.1074,4.21321 4.8016,7.64984 4.9931,7.56576 3.6226,-1.60307 -1.1056,-7.39354 3.4836,-5.16584 19.3933,9.41457 z"
       style="fill:none;stroke:#ff0000;stroke-width:4.97505808"
       inkscape:connector-curvature="0" />
    <path
       id="path3601-1-6"
       d="m 1388.8971,-99.431559 c 63.5669,-29.449331 121.6131,-56.520791 128.9913,-60.159081 l 13.4151,-6.61469 -11.0269,10.7513 -11.0266,10.75182 13.5955,-6.30238 c 20.4757,-9.49155 -65.6557,47.42017 -171.5321,113.340148 -90.3498,56.25269 -94.2038,58.222054 -98.6872,50.421829 -2.5747,-4.459347 -4.461,-16.637001 -4.2121,-27.049331 0.533,-22.257705 -13.1503,-13.965307 140.483,-85.139615 z"
       style="fill:none;stroke:#ff0000;stroke-width:4.97505808"
       inkscape:connector-curvature="0" />
    <path
       id="path3581-3-4"
       d="m 1658.3872,-169.96745 c 2.2522,3.90102 2.1624,8.208 -0.1995,9.57164 -2.3616,1.3634 -85.7481,68.895039 -185.3032,150.070062 -99.5556,81.175395 -186.3795,150.691548 -192.9431,154.481018 -10.4546,6.03596 -12.3527,5.41886 -15.3181,-4.98481 -1.8614,-6.53063 -4.6886,-22.81031 -6.282,-36.17691 -3.5749,-29.992563 -12.1532,-23.026913 162.5821,-132.028929 72.0117,-44.921553 153.9792,-96.603961 182.1495,-114.850131 45.8238,-29.67917 51.651,-32.42709 55.3143,-26.08194 z"
       style="fill:none;stroke:#ff0000;stroke-width:4.97505808"
       inkscape:connector-curvature="0" />
    <path
       id="path3579-8-9"
       d="m 1636.5346,-155.57915 c 3.6522,-0.51496 8.4992,-3.31339 10.7713,-6.21879 2.2722,-2.90535 -0.7161,-2.48415 -6.6404,0.93629 -5.9242,3.42025 -7.783,5.79754 -4.1309,5.2825 z"
       style="fill:none;stroke:#ff0000;stroke-width:4.97505808"
       inkscape:connector-curvature="0" />
    <path
       id="path3573-9-3"
       d="m 2114.0497,-406.96103 c -2.7833,5.31344 -2.1401,6.78787 2.5414,5.82975 3.4468,-0.70559 -131.0721,236.42501 -298.9304,526.95693 -167.8588,290.53159 -308.4922,528.7612 -312.5189,529.39936 -5.83,0.92394 -15.3045,-12.69735 -46.5123,-66.87214 -21.5475,-37.42183 -39.0545,-71.21281 -38.8889,-75.09989 0.3111,-7.29103 684.18,-919.57235 693.0596,-924.54227 3.0351,-1.69416 3.5206,-0.009 1.2495,4.32826 z"
       style="fill:none;stroke:#ff0000;stroke-width:4.97505808"
       inkscape:connector-curvature="0" />
    <path
       id="path3569-4-6"
       d="m 1791.0488,-208.84391 c -3.2651,7.00132 -2.5892,7.54125 4.4459,3.5542 4.5663,-2.57943 7.8694,-3.10889 7.3473,-1.16229 -1.2528,4.6768 -482.6414,505.44944 -489.928,509.6563 -3.0997,1.78953 -6.4359,1.77699 -7.4146,-0.0276 -2.9207,-5.38715 -27.6308,-95.45838 -26.7637,-97.56059 0.4392,-1.06584 113.4121,-93.45 251.0502,-205.297866 137.638,-111.848144 253.5951,-206.522844 257.6823,-210.388844 6.0694,-5.7411 6.7255,-5.51609 3.5806,1.22676 z"
       style="fill:none;stroke:#ff0000;stroke-width:4.97505808"
       inkscape:connector-curvature="0" />
    <path
       id="path3565-0-5"
       d="m 1951.4069,-284.01624 c 2.6907,1.4476 2.5089,6.46889 -0.4042,11.1587 -11.7437,18.90728 -549.2223,731.56416 -553.679,734.13728 -3.2832,1.89547 -14.9788,-14.85362 -36.9726,-52.94797 -28.4854,-49.33821 -31.455,-56.47685 -25.9285,-62.3221 64.905,-68.64664 604.9858,-628.5554 607.9449,-630.26387 2.281,-1.31688 6.3487,-1.2095 9.0394,0.23796 z"
       style="fill:none;stroke:#ff0000;stroke-width:4.97505808"
       inkscape:connector-curvature="0" />
    <path
       id="path3801-6-8-0"
       d="m 3546.4745,-2671.8456 c -25.0181,43.8307 -30.9795,58.3793 -26.9336,65.7324 2.8558,5.195 131.4531,177.6106 285.7685,383.148 205.9688,274.3375 282.0185,372.87 286.0108,370.565 4.343,-2.5073 -45.6573,-91.6397 -248.2898,-442.6094 -201.3433,-348.7369 -254.8322,-438.8143 -259.0772,-436.2974 -2.9376,1.7529 -19.8074,28.5028 -37.4787,59.4614 z"
       style="fill:none;stroke:#ff0000;stroke-width:4.97505808"
       inkscape:connector-curvature="0" />
    <path
       id="path3797-3-8-1"
       d="m 4080.5079,-1870.6818 c 1.3278,4.823 -1.0159,2.9936 -5.2081,-4.0648 -4.1907,-7.0592 -5.2785,-11.004 -2.4143,-8.7685 2.8646,2.2353 6.2943,8.0106 7.6219,12.8336 z"
       style="fill:none;stroke:#ff0000;stroke-width:4.97505808"
       inkscape:connector-curvature="0" />
    <path
       id="path3775-0-0-4"
       d="m 3460.5392,-2497.6839 c -15.9921,37.0092 -22.3109,58.1609 -19.1228,64.0131 4.3845,8.0519 612.2023,642.996 617.8042,645.3785 1.3657,0.5803 3.398,-2.3582 4.5161,-6.5322 1.4966,-5.5856 -71.2248,-105.189 -275.6784,-377.5835 -152.7414,-203.498 -281.1902,-373.8044 -285.4418,-378.4589 -4.2515,-4.6545 -10.0842,-7.0288 -12.9619,-5.2759 -2.8772,1.7527 -15.9793,28.0586 -29.1154,58.4589 z"
       style="fill:none;stroke:#ff0000;stroke-width:4.97505808"
       inkscape:connector-curvature="0" />
    <path
       id="path3753-2-3-8"
       d="m 3403.3315,-2332.6866 c -6.1798,23.4819 -9.0225,46.5169 -6.3169,51.1892 7.2411,12.5421 502.6087,414.8613 511.1601,415.1684 4.2248,0.1518 6.4957,-2.2353 5.3981,-5.6747 -1.0416,-3.2648 -110.6011,-118.9488 -243.465,-257.0751 -174.5624,-181.4759 -243.5086,-250.4682 -248.5557,-248.7203 -3.8415,1.3303 -12.0408,21.6304 -18.2206,45.1125 z"
       style="fill:none;stroke:#ff0000;stroke-width:4.97505808"
       inkscape:connector-curvature="0" />
    <path
       id="path3733-9-0-6"
       d="m 3004.8179,-1670.4789 c -170.571,295.5994 -309.1109,540.5354 -307.8665,544.3018 2.686,8.1297 162.2591,9.578 171.5988,1.5569 9.9672,-8.5598 463.9662,-1077.7558 460.3173,-1084.0759 -1.8484,-3.2016 -5.7367,-4.3394 -8.6406,-2.5284 -2.9048,1.8092 -144.8382,245.1462 -315.409,540.7456 z"
       style="fill:none;stroke:#ff0000;stroke-width:4.97505808"
       inkscape:connector-curvature="0" />
    <path
       id="path3729-1-3-5"
       d="m 3372.4955,-2192.1019 c -2.522,16.1539 -2.3758,33.1979 0.3248,37.8755 7.0398,12.1933 387.8434,251.3753 394.3262,247.6755 2.9621,-1.7102 3.9977,-5.5044 2.2833,-8.464 -1.7102,-2.9621 -87.577,-74.229 -190.805,-158.3767 -118.9097,-96.9303 -190.2266,-152.0954 -194.6156,-150.5384 -3.8107,1.3519 -8.9918,15.6742 -11.5137,31.8281 z"
       style="fill:none;stroke:#ff0000;stroke-width:4.97505808"
       inkscape:connector-curvature="0" />
    <path
       id="path3721-4-1-5"
       d="m 3362.0258,-2073.3123 c -0.249,10.4123 1.5972,22.4996 4.1028,26.8603 4.3426,7.5213 259.5476,131.2067 271.4997,131.5652 3.1253,0.094 5.1424,-3.2331 4.4841,-7.3902 -1.5379,-9.7026 -266.8836,-177.2122 -274.1626,-173.0758 -2.9971,1.7303 -5.6747,11.6279 -5.924,22.0405 z"
       style="fill:none;stroke:#ff0000;stroke-width:4.97505808"
       inkscape:connector-curvature="0" />
    <path
       id="path3717-9-4-9"
       d="m 3109.4021,-1573.9096 c -123.7792,290.7984 -182.6039,434.9546 -179.6074,440.1445 3.2895,5.6978 19.1571,5.9538 60.6153,0.9784 30.8878,-3.7069 60.2002,-9.8401 65.1383,-13.6292 10.0637,-7.7211 256.9527,-851.8251 251.7719,-860.7985 -1.7211,-2.981 -5.5426,-4.0032 -8.492,-2.2711 -2.9375,1.7529 -88.1914,197.741 -189.4261,435.5759 z"
       style="fill:none;stroke:#ff0000;stroke-width:4.97505808"
       inkscape:connector-curvature="0" />
    <path
       id="path3713-4-2-4"
       d="m 3366.0434,-1971.2455 c 1.8722,6.5682 5.727,14.4498 8.5663,17.5149 8.5867,9.2687 149.0923,53.7247 156.4236,49.4918 3.7523,-2.1663 5.9681,-5.4179 4.9245,-7.2256 -4.4741,-7.7493 -161.5849,-78.4975 -167.1652,-75.2757 -3.3844,1.954 -4.6213,8.9269 -2.7492,15.4946 z"
       style="fill:none;stroke:#ff0000;stroke-width:4.97505808"
       inkscape:connector-curvature="0" />
    <path
       id="path3701-1-2-2"
       d="m 3379.2611,-1889.8977 c -0.2532,8.4348 9.8037,13.5021 37.1727,18.729 18.2739,3.4901 26.0215,2.7856 27.4365,-2.4949 1.415,-5.2806 -5.7979,-10.2911 -25.5495,-17.74 -26.6157,-10.0405 -38.7274,-9.5731 -39.0597,1.5059 z"
       style="fill:none;stroke:#ff0000;stroke-width:4.97505808"
       inkscape:connector-curvature="0" />
    <path
       id="path3699-9-1-9"
       d="m 3208.7656,-1501.1309 c -53.3422,183.8756 -96.0196,337.2754 -94.8381,340.8888 3.1208,9.5478 97.6221,-14.7299 101.8553,-26.1667 5.7035,-15.4114 105.7857,-641.8861 103.6507,-648.8148 -1.1693,-3.7945 -4.7259,-5.3974 -7.9037,-3.5627 -3.1781,1.8349 -49.422,153.7798 -102.7642,337.6554 z"
       style="fill:none;stroke:#ff0000;stroke-width:4.97505808"
       inkscape:connector-curvature="0" />
    <path
       id="path3665-9-9-4"
       d="m 3337.1993,-1659.715 c -25.703,138.0061 -73.273,453.6926 -68.8991,457.2356 5.0954,4.1271 36.7834,-6.4127 60.5712,-20.1466 10.1676,-5.8704 12.181,-28.8683 20.2742,-231.6366 4.9418,-123.816 8.3791,-228.9436 7.6384,-233.6175 -3.2218,-20.3274 -13.2351,-5.9269 -19.5847,28.1651 z"
       style="fill:none;stroke:#ff0000;stroke-width:4.97505808"
       inkscape:connector-curvature="0" />
    <path
       id="path3643-9-3-2"
       d="m 3390.0869,-1421.2791 c -3.3771,85.9056 -4.5078,159.5879 -2.5125,163.7385 2.9774,6.1937 7.7561,5.1614 26.6706,-5.7588 l 23.0433,-13.304 -12.4757,-149.9819 c -6.862,-82.4903 -13.4703,-151.7046 -14.6854,-153.8094 -9.586,-16.6032 -14.7418,24.3327 -20.0403,159.1156 z"
       style="fill:none;stroke:#ff0000;stroke-width:4.97505808"
       inkscape:connector-curvature="0" />
    <path
       id="path3625-7-4-0"
       d="m 3468.8659,-1409.4094 c 3.5311,45.0817 7.8533,86.9956 9.6056,93.1419 2.8584,10.0275 4.7445,10.2753 18.3586,2.4153 l 15.1724,-8.7599 -17.492,-85.7341 c -9.6213,-47.154 -18.9749,-86.1315 -20.7861,-86.6168 -1.8111,-0.4852 -1.7373,1.8814 0.1649,5.2596 2.9623,5.2603 2.3893,5.5813 -3.9921,2.2356 -5.4189,-2.8415 -5.6999,18.4475 -1.0307,78.0595 z"
       style="fill:none;stroke:#ff0000;stroke-width:4.97505808"
       inkscape:connector-curvature="0" />
    <path
       id="path3621-1-9-8"
       d="m 3887.9734,-1694.7848 c -9.8634,11.861 -13.1958,18.5725 -7.9683,16.0486 8.9846,-4.3383 8.9846,-4.3383 2.7278,4.7246 -6.406,9.2795 -5.5431,8.6785 35.8493,-24.9705 10.8843,-8.848 13.4618,-13.9966 10.0044,-19.985 -5.9283,-10.268 -17.8853,-3.1487 -40.6132,24.1823 z"
       style="fill:none;stroke:#ff0000;stroke-width:4.97505808"
       inkscape:connector-curvature="0" />
    <path
       id="path3615-4-6-7"
       d="m 3917.8894,-1640.9593 c -51.4149,46.0786 -71.689,67.7871 -54.0131,57.8347 5.069,-2.8518 5.4536,-2.0401 2.2055,4.6461 -3.0355,6.2477 -1.7397,6.2114 5.6536,-0.1579 5.2751,-4.5445 39.7669,-28.7571 76.6484,-53.8054 57.1006,-38.7807 66.4398,-46.5659 62.8966,-52.4331 -5.7469,-9.5161 -23.1128,-16.1633 -30.0756,-11.5121 -3.1691,2.1169 -31.6605,27.0589 -63.3138,55.4269 z"
       style="fill:none;stroke:#ff0000;stroke-width:4.97505808"
       inkscape:connector-curvature="0" />
    <path
       id="path3611-7-7-3"
       d="m 3540.78,-1400.9455 c 7.7343,34.8766 10.0418,38.6871 19.9586,32.9615 6.4236,-3.7086 6.0301,-10.5802 -1.9424,-33.9052 -5.4991,-16.0898 -11.7403,-29.7207 -13.8685,-30.2907 -2.1285,-0.5703 -1.8605,2.7575 0.595,7.3959 4.2242,7.9831 4.0556,8.1069 -3.1995,2.3356 -5.8502,-4.6543 -6.2156,0.434 -1.5434,21.5025 z"
       style="fill:none;stroke:#ff0000;stroke-width:4.97505808"
       inkscape:connector-curvature="0" />
    <path
       id="path3601-1-3-4"
       d="m 3938.933,-1571.6949 c -57.2873,40.3259 -109.7549,77.0596 -116.5948,81.6301 l -12.4361,8.3105 14.8243,-4.1739 14.8247,-4.1735 -12.2558,8.6229 c -18.4577,12.9867 73.8949,-33.1494 183.9215,-91.881 93.8912,-50.119 97.5238,-52.4719 93.0102,-60.2548 -2.5746,-4.4594 -12.1776,-12.1818 -21.3194,-17.1724 -19.5422,-10.6672 -5.5192,-18.3711 -143.9746,79.0921 z"
       style="fill:none;stroke:#ff0000;stroke-width:4.97505808"
       inkscape:connector-curvature="0" />
    <path
       id="path3581-3-9-1"
       d="m 3743.1021,-1373.5776 c 2.2523,3.901 6.0272,5.9766 8.3891,4.613 2.3615,-1.3635 102.5389,-39.8125 222.616,-85.4422 120.0778,-45.63 223.6926,-86.0637 230.2561,-89.8532 10.4546,-6.036 10.8692,-7.9883 3.3421,-15.7582 -4.7249,-4.8774 -17.41,-15.4657 -28.1892,-23.5288 -24.1867,-18.0924 -13.8653,-22.0385 -195.6314,74.7858 -74.909,39.9031 -160.6511,85.0478 -190.5379,100.321 -48.6148,24.8449 -53.9082,28.5175 -50.2448,34.8626 z"
       style="fill:none;stroke:#ff0000;stroke-width:4.97505808"
       inkscape:connector-curvature="0" />
    <path
       id="path3579-8-0-0"
       d="m 3766.489,-1385.3084 c -2.272,2.9053 -7.119,5.7038 -10.7712,6.2189 -3.6522,0.515 -1.7933,-1.8623 4.131,-5.2827 5.9242,-3.4203 8.9124,-3.8415 6.6402,-0.9362 z"
       style="fill:none;stroke:#ff0000;stroke-width:4.97505808"
       inkscape:connector-curvature="0" />
    <path
       id="path3573-9-1-6"
       d="m 3310.0284,-1097.4592 c 5.9932,0.2464 6.9486,1.5406 3.778,5.1159 -2.3344,2.6322 270.2862,4.7007 605.8233,4.5971 335.5372,-0.1042 612.1667,-2.7814 614.7328,-5.9496 3.7151,-4.587 -3.344,-19.6028 -34.6569,-73.7169 -21.6345,-37.3716 -42.1447,-69.4287 -45.5938,-71.2287 -6.4699,-3.3762 -1138.4631,132.731 -1147.207,137.936 -2.9848,1.7814 -1.7678,3.0447 3.1236,3.2462 z"
       style="fill:none;stroke:#ff0000;stroke-width:4.97505808"
       inkscape:connector-curvature="0" />
    <path
       id="path3569-4-0-8"
       d="m 3643.1033,-1278.1275 c 7.6959,0.6729 7.8255,1.5283 0.8552,5.6273 -4.517,2.6647 -6.6272,5.2606 -4.6803,5.7818 4.6766,1.2535 679.0528,-165.255 686.3392,-169.4619 3.0997,-1.7896 4.757,-4.6852 3.6835,-6.4352 -3.2051,-5.2229 -68.854,-71.6581 -71.1081,-71.9583 -1.1427,-0.1526 -137.6362,51.4928 -303.3183,114.7669 -165.6823,63.274 -305.6516,116.3584 -311.0433,117.9651 -8.0066,2.3857 -8.1398,3.0664 -0.7279,3.7143 z"
       style="fill:none;stroke:#ff0000;stroke-width:4.97505808"
       inkscape:connector-curvature="0" />
    <path
       id="path3565-0-2-4"
       d="m 3497.8231,-1176.8395 c -0.092,3.0539 4.3478,5.4071 9.8658,5.2293 22.2462,-0.7167 908.1644,-109.8584 912.6211,-112.4315 3.283,-1.8955 -5.3742,-20.3988 -27.368,-58.4932 -28.4854,-49.3382 -33.1828,-55.4793 -41.0083,-53.6157 -91.9021,21.8859 -846.8378,209.6553 -849.7969,211.3637 -2.2809,1.317 -4.2218,4.8934 -4.3137,7.9474 z"
       style="fill:none;stroke:#ff0000;stroke-width:4.97505808"
       inkscape:connector-curvature="0" />
    <path
       id="path3801-6-17"
       d="m 3546.4743,593.71358 c -25.0181,-43.8306 -30.9795,-58.37924 -26.9336,-65.73233 2.8558,-5.19496 131.4532,-177.61055 285.7685,-383.148 205.9688,-274.33747 282.0185,-372.87006 286.0108,-370.56507 4.343,2.50738 -45.6573,91.63984 -248.2898,442.60947 -201.3433,348.7369 -254.8322,438.81429 -259.0772,436.29739 -2.9375,-1.75288 -19.8073,-28.50277 -37.4787,-59.46146 z"
       style="fill:none;stroke:#ff0000;stroke-width:4.97505808"
       inkscape:connector-curvature="0" />
    <path
       id="path3797-3-7"
       d="m 4080.5077,-207.45021 c 1.3278,-4.82296 -1.0159,-2.99347 -5.2081,4.06481 -4.1907,7.05927 -5.2785,11.00404 -2.4143,8.76852 2.8646,-2.23529 6.2943,-8.01052 7.622,-12.8336 z"
       style="fill:none;stroke:#ff0000;stroke-width:4.97505808"
       inkscape:connector-curvature="0" />
    <path
       id="path3775-0-3"
       d="m 3460.539,419.55201 c -15.9921,-37.00922 -22.3109,-58.16098 -19.1228,-64.01309 4.3846,-8.05201 612.2023,-642.9961 617.8042,-645.37853 1.3658,-0.58038 3.398,2.35816 4.5161,6.53209 1.4967,5.58566 -71.2248,105.18904 -275.6784,377.583567 -152.7413,203.498013 -281.1901,373.804413 -285.4418,378.458923 -4.2514,4.65446 -10.0841,7.02878 -12.9619,5.2759 -2.8772,-1.75268 -15.9793,-28.05853 -29.1154,-58.45886 z"
       style="fill:none;stroke:#ff0000;stroke-width:4.97505808"
       inkscape:connector-curvature="0" />
    <path
       id="path3753-2-5"
       d="m 3403.3314,254.55469 c -6.1798,-23.48188 -9.0225,-46.51697 -6.317,-51.18918 7.2412,-12.54213 502.6087,-414.86138 511.1601,-415.16848 4.2249,-0.15176 6.4957,2.23531 5.3981,5.67469 -1.0415,3.26484 -110.6011,118.948881 -243.465,257.075077 C 3495.5452,232.4228 3426.599,301.41499 3421.552,299.66717 c -3.8415,-1.33025 -12.0408,-21.6305 -18.2206,-45.11248 z"
       style="fill:none;stroke:#ff0000;stroke-width:4.97505808"
       inkscape:connector-curvature="0" />
    <path
       id="path3733-9-8"
       d="m 3004.8177,-407.65306 c -170.5709,-295.59947 -309.1108,-540.53538 -307.8663,-544.30181 2.6859,-8.12969 162.2589,-9.5779 171.5987,-1.55685 9.9672,8.55973 463.9662,1077.75579 460.3172,1084.0759 -1.8483,3.20164 -5.7366,4.33931 -8.6406,2.52839 -2.9048,-1.8093 -144.8381,-245.14621 -315.409,-540.74563 z"
       style="fill:none;stroke:#ff0000;stroke-width:4.97505808"
       inkscape:connector-curvature="0" />
    <path
       id="path3729-1-2"
       d="m 3372.4954,113.96996 c -2.5221,-16.153913 -2.3759,-33.197893 0.3248,-37.875603 7.0397,-12.19317 387.8433,-251.375197 394.3261,-247.675417 2.9622,1.71017 3.9978,5.50442 2.2833,8.46408 -1.7101,2.96207 -87.577,74.22902 -190.805,158.376634 C 3459.7149,92.189977 3388.398,147.35499 3384.009,145.7981 c -3.8107,-1.35195 -8.9917,-15.67426 -11.5136,-31.82814 z"
       style="fill:none;stroke:#ff0000;stroke-width:4.97505808"
       inkscape:connector-curvature="0" />
    <path
       id="path3721-4-0"
       d="m 3362.0256,-4.819627 c -0.249,-10.412393 1.5973,-22.499655 4.1028,-26.860297 4.3426,-7.521412 259.5477,-131.206766 271.4998,-131.565306 3.1253,-0.0937 5.1424,3.23321 4.484,7.39028 -1.5379,9.70259 -266.8836,177.212196 -274.1626,173.075768 -2.997,-1.730239 -5.6746,-11.627828 -5.924,-22.040445 z"
       style="fill:none;stroke:#ff0000;stroke-width:4.97505808"
       inkscape:connector-curvature="0" />
    <path
       id="path3717-9-1"
       d="m 3109.402,-504.22234 c -123.7793,-290.79835 -182.604,-434.95455 -179.6074,-440.14458 3.2894,-5.69768 19.1571,-5.9538 60.6152,-0.97828 30.8879,3.70689 60.2003,9.84014 65.1383,13.62915 10.0637,7.72103 256.9528,851.825086 251.7719,860.798487 -1.721,2.981013 -5.5426,4.003198 -8.492,2.271049 -2.9374,-1.752847 -88.1914,-197.740976 -189.426,-435.575826 z"
       style="fill:none;stroke:#ff0000;stroke-width:4.97505808"
       inkscape:connector-curvature="0" />
    <path
       id="path3713-4-25"
       d="m 3366.0432,-106.88646 c 1.8722,-6.56821 5.727,-14.44984 8.5664,-17.51492 8.5867,-9.26871 149.0922,-53.7246 156.4235,-49.49184 3.7523,2.16636 5.9682,5.41793 4.9245,7.22572 -4.4741,7.74932 -161.5848,78.497411 -167.1651,75.275617 -3.3845,-1.953952 -4.6214,-8.926897 -2.7493,-15.494577 z"
       style="fill:none;stroke:#ff0000;stroke-width:4.97505808"
       inkscape:connector-curvature="0" />
    <path
       id="path3701-1-7"
       d="m 3379.261,-188.2343 c -0.2533,-8.43474 9.8037,-13.50197 37.1727,-18.72888 18.2739,-3.49025 26.0215,-2.78561 27.4364,2.49485 1.415,5.28063 -5.7979,10.29113 -25.5495,17.73999 -26.6157,10.04047 -38.7273,9.57313 -39.0596,-1.50596 z"
       style="fill:none;stroke:#ff0000;stroke-width:4.97505808"
       inkscape:connector-curvature="0" />
    <path
       id="path3699-9-3"
       d="m 3208.7654,-577.00098 c -53.3422,-183.87566 -96.0196,-337.27547 -94.8381,-340.88885 3.1209,-9.54786 97.6221,14.72988 101.8554,26.16663 5.7035,15.4114 105.7857,641.88613 103.6506,648.81489 -1.1693,3.7944 -4.7259,5.3974 -7.9037,3.56261 -3.178,-1.83483 -49.422,-153.77971 -102.7642,-337.65528 z"
       style="fill:none;stroke:#ff0000;stroke-width:4.97505808"
       inkscape:connector-curvature="0" />
    <path
       id="path3665-9-8"
       d="m 3337.1992,-418.41698 c -25.703,-138.00603 -73.273,-453.69265 -68.8992,-457.23556 5.0954,-4.12713 36.7834,6.41264 60.5712,20.14662 10.1677,5.87031 12.1811,28.86825 20.2742,231.63661 4.9419,123.81589 8.3792,228.94358 7.6384,233.61743 -3.2218,20.32751 -13.235,5.92698 -19.5846,-28.1651 z"
       style="fill:none;stroke:#ff0000;stroke-width:4.97505808"
       inkscape:connector-curvature="0" />
    <path
       id="path3643-9-6"
       d="m 3390.0867,-656.85285 c -3.3771,-85.90562 -4.5078,-159.58794 -2.5125,-163.73847 2.9774,-6.19374 7.7562,-5.1615 26.6707,5.75874 l 23.0432,13.30407 -12.4757,149.98195 c -6.8619,82.49023 -13.4703,151.70453 -14.6854,153.80926 -9.5859,16.60332 -14.7418,-24.33263 -20.0403,-159.11555 z"
       style="fill:none;stroke:#ff0000;stroke-width:4.97505808"
       inkscape:connector-curvature="0" />
    <path
       id="path3625-7-8"
       d="m 3468.8657,-668.72253 c 3.5311,-45.08166 7.8534,-86.9956 9.6057,-93.1419 2.8583,-10.02744 4.7444,-10.27534 18.3585,-2.41531 l 15.1724,8.75987 -17.492,85.73412 c -9.6213,47.15393 -18.9749,86.13146 -20.786,86.61678 -1.8111,0.4852 -1.7373,-1.8814 0.1648,-5.25953 2.9623,-5.2603 2.3894,-5.58137 -3.9921,-2.23563 -5.4188,2.84149 -5.6999,-18.44757 -1.0306,-78.05951 z"
       style="fill:none;stroke:#ff0000;stroke-width:4.97505808"
       inkscape:connector-curvature="0" />
    <path
       id="path3621-1-3"
       d="m 3887.9732,-383.34706 c -9.8634,-11.86103 -13.1957,-18.57255 -7.9683,-16.04861 8.9847,4.33829 8.9847,4.33829 2.7278,-4.72471 -6.406,-9.27943 -5.5431,-8.67848 35.8494,24.97056 10.8842,8.84791 13.4617,13.99653 10.0044,19.98495 -5.9284,10.26804 -17.8854,3.14869 -40.6133,-24.18219 z"
       style="fill:none;stroke:#ff0000;stroke-width:4.97505808"
       inkscape:connector-curvature="0" />
    <path
       id="path3615-4-5"
       d="m 3917.8892,-437.17271 c -51.4148,-46.07859 -71.6889,-67.78709 -54.0131,-57.83466 5.069,2.85182 5.4537,2.04011 2.2055,-4.64609 -3.0354,-6.24767 -1.7397,-6.21134 5.6537,0.15796 5.2751,4.54439 39.7669,28.757 76.6484,53.80537 57.1006,38.78068 66.4397,46.56586 62.8966,52.43302 -5.747,9.51618 -23.1129,16.16335 -30.0756,11.51214 -3.1692,-2.1169 -31.6605,-27.05887 -63.3139,-55.42684 z"
       style="fill:none;stroke:#ff0000;stroke-width:4.97505808"
       inkscape:connector-curvature="0" />
    <path
       id="path3611-7-01"
       d="m 3540.7799,-677.18641 c 7.7342,-34.87661 10.0417,-38.68712 19.9585,-32.96151 6.4236,3.70859 6.0301,10.58019 -1.9424,33.90516 -5.499,16.08986 -11.7403,29.72073 -13.8685,30.29067 -2.1285,0.57027 -1.8605,-2.75751 0.5951,-7.39579 4.2241,-7.98318 4.0555,-8.107 -3.1996,-2.33567 -5.8502,4.65425 -6.2156,-0.43405 -1.5434,-21.50244 z"
       style="fill:none;stroke:#ff0000;stroke-width:4.97505808"
       inkscape:connector-curvature="0" />
    <path
       id="path3601-1-1"
       d="m 3938.9329,-506.43703 c -57.2874,-40.32583 -109.7549,-77.05955 -116.5949,-81.63014 l -12.4361,-8.31042 14.8244,4.17384 14.8247,4.17346 -12.2558,-8.62289 c -18.4578,-12.98669 73.8948,33.14943 183.9215,91.88107 93.8911,50.11895 97.5237,52.47195 93.0101,60.25474 -2.5746,4.4594 -12.1775,12.18184 -21.3194,17.17244 -19.5421,10.66725 -5.5191,18.3711 -143.9745,-79.0921 z"
       style="fill:none;stroke:#ff0000;stroke-width:4.97505808"
       inkscape:connector-curvature="0" />
    <path
       id="path3581-3-46"
       d="m 3743.1019,-704.55428 c 2.2524,-3.90102 6.0272,-5.97668 8.3892,-4.61306 2.3614,1.36349 102.5389,39.81252 222.616,85.44226 120.0777,45.62993 223.6925,86.06359 230.256,89.85311 10.4546,6.03596 10.8693,7.98833 3.3421,15.75824 -4.7249,4.87743 -17.41,15.46563 -28.1892,23.52882 -24.1867,18.09234 -13.8652,22.03846 -195.6314,-74.78575 -74.909,-39.90319 -160.6511,-85.04787 -190.5378,-100.32102 -48.6148,-24.84499 -53.9082,-28.51751 -50.2449,-34.8626 z"
       style="fill:none;stroke:#ff0000;stroke-width:4.97505808"
       inkscape:connector-curvature="0" />
    <path
       id="path3579-8-98"
       d="m 3766.4889,-692.82354 c -2.272,-2.90537 -7.1191,-5.70383 -10.7713,-6.21888 -3.6522,-0.51502 -1.7933,1.86229 4.131,5.28263 5.9242,3.42036 8.9124,3.84152 6.6403,0.93625 z"
       style="fill:none;stroke:#ff0000;stroke-width:4.97505808"
       inkscape:connector-curvature="0" />
    <path
       id="path3573-9-9"
       d="m 3310.0283,-980.67279 c 5.9931,-0.24636 6.9485,-1.54059 3.7779,-5.11581 -2.3343,-2.63219 270.2862,-4.70075 605.8234,-4.5972 335.5372,0.10429 612.1667,2.7815 614.7327,5.94971 3.7152,4.58697 -3.344,19.60275 -34.6568,73.71684 -21.6345,37.37162 -42.1448,69.42868 -45.5939,71.22881 -6.4698,3.37605 -1138.4631,-132.73108 -1147.2069,-137.93615 -2.9848,-1.78137 -1.7678,-3.04459 3.1236,-3.2462 z"
       style="fill:none;stroke:#ff0000;stroke-width:4.97505808"
       inkscape:connector-curvature="0" />
    <path
       id="path3569-4-4"
       d="m 3643.1031,-800.00442 c 7.696,-0.673 7.8256,-1.52831 0.8552,-5.62727 -4.517,-2.66482 -6.6272,-5.2607 -4.6803,-5.78187 4.6766,-1.25346 679.0528,165.25505 686.3394,169.46195 3.0995,1.7896 4.7568,4.68519 3.6834,6.43513 -3.2052,5.22293 -68.8541,71.65815 -71.1082,71.95836 -1.1427,0.15253 -137.6362,-51.49281 -303.3183,-114.76699 -165.6823,-63.27394 -305.6516,-116.35839 -311.0432,-117.96503 -8.0066,-2.38562 -8.1398,-3.06636 -0.728,-3.71428 z"
       style="fill:none;stroke:#ff0000;stroke-width:4.97505808"
       inkscape:connector-curvature="0" />
    <path
       id="path3565-0-8"
       d="m 3497.823,-901.2924 c -0.092,-3.05402 4.3478,-5.40715 9.8658,-5.22938 22.2461,0.71681 908.1643,109.85847 912.621,112.43156 3.2831,1.89549 -5.3742,20.39879 -27.3679,58.49318 -28.4854,49.3382 -33.1829,55.47925 -41.0083,53.61575 -91.9022,-21.88601 -846.8379,-209.6554 -849.797,-211.36379 -2.2809,-1.31693 -4.2218,-4.89336 -4.3136,-7.94732 z"
       style="fill:none;stroke:#ff0000;stroke-width:4.97505808"
       inkscape:connector-curvature="0" />
    <path
       id="path3801-6-8-6"
       d="m 632.36812,-1088.7468 c 50.46744,-0.249 66.04766,-2.3606 70.39266,-9.541 3.0711,-5.0707 88.08867,-202.647 188.93168,-439.0567 134.59884,-315.5429 181.90564,-430.6702 177.91334,-432.9752 -4.3429,-2.5075 -56.5337,85.3603 -259.16616,436.33 -201.34336,348.7368 -252.6082,440.0983 -248.30599,442.5161 2.98678,1.6675 34.58778,2.9023 70.23447,2.7268 z"
       style="fill:none;stroke:#ff0000;stroke-width:4.97505808"
       inkscape:connector-curvature="0" />
    <path
       id="path3797-3-8-6"
       d="m 1059.1796,-1951.8151 c 3.5129,-3.5615 3.1004,-0.617 -0.9161,6.5427 -4.0182,7.1589 -6.8906,10.0733 -6.3867,6.475 0.5035,-3.5984 3.7902,-9.4561 7.3033,-13.0176 z"
       style="fill:none;stroke:#ff0000;stroke-width:4.97505808"
       inkscape:connector-curvature="0" />
    <path
       id="path3775-0-0-2"
       d="m 826.16409,-1101.4055 c 40.047,-4.655 61.52438,-9.7586 64.99838,-15.4456 4.781,-7.8232 250.74983,-851.6809 250.01203,-857.7234 -0.1802,-1.473 -3.7412,-1.7637 -7.9149,-0.645 -5.5857,1.4967 -55.4841,114.2769 -189.15778,427.5362 -99.86378,234.0269 -183.12906,430.4201 -185.03418,436.4293 -1.90513,6.0091 -1.045,12.2476 1.91192,13.8634 2.95647,1.6154 32.28905,-0.1909 65.18453,-4.0149 z"
       style="fill:none;stroke:#ff0000;stroke-width:4.97505808"
       inkscape:connector-curvature="0" />
    <path
       id="path3753-2-3-3"
       d="m 997.65979,-1134.3609 c 23.42581,-6.389 44.79611,-15.4446 47.48961,-20.1239 7.2413,-12.5421 107.9761,-642.7026 103.9664,-650.2618 -1.981,-3.7348 -5.1837,-4.5079 -7.6135,-1.8377 -2.3066,2.5346 -47.7122,155.2579 -100.901,339.3846 -69.88162,241.9135 -95.15751,336.1187 -91.12035,339.6156 3.07279,2.6618 24.75295,-0.3876 48.17884,-6.7768 z"
       style="fill:none;stroke:#ff0000;stroke-width:4.97505808"
       inkscape:connector-curvature="0" />
    <path
       id="path3733-9-0-9"
       d="m 1770.4054,-1120.3417 c 341.2821,-0.081 622.6727,-2.5699 625.3123,-5.5308 5.6975,-6.391 -72.8348,-145.3095 -84.451,-149.3873 -12.3967,-4.352 -1165.347,137.0713 -1168.996,143.3914 -1.8485,3.2017 -0.8896,7.1379 2.1307,8.7472 3.0192,1.6111 284.722,2.8605 626.004,2.7795 z"
       style="fill:none;stroke:#ff0000;stroke-width:4.97505808"
       inkscape:connector-curvature="0" />
    <path
       id="path3729-1-3-8"
       d="m 1134.8278,-1177.9484 c 15.2507,-5.8928 29.9381,-14.5415 32.6388,-19.2191 7.0397,-12.1932 23.7756,-461.5698 17.3301,-465.3343 -2.9621,-1.7101 -6.7658,-0.7098 -8.4718,2.2548 -1.7101,2.9621 -20.4957,112.9584 -41.7557,244.4303 -24.4892,151.4439 -36.6051,240.7886 -33.0623,243.8113 3.0762,2.6241 18.0702,-0.05 33.3209,-5.943 z"
       style="fill:none;stroke:#ff0000;stroke-width:4.97505808"
       inkscape:connector-curvature="0" />
    <path
       id="path3721-4-1-2"
       d="m 1242.9374,-1228.2762 c 9.142,-4.9905 18.6867,-12.633 21.2103,-16.9833 4.3425,-7.5214 -16.1455,-290.3781 -21.8109,-300.9082 -1.4816,-2.7534 -5.3713,-2.8369 -8.6423,-0.1882 -7.6337,6.1832 -20.0285,319.7341 -12.8066,323.9697 2.9969,1.7303 12.9072,-0.8996 22.0495,-5.89 z"
       style="fill:none;stroke:#ff0000;stroke-width:4.97505808"
       inkscape:connector-curvature="0" />
    <path
       id="path3717-9-4-3"
       d="m 1801.7447,-1259.199 c 313.7283,-38.2032 467.9837,-59.3376 470.9801,-64.5277 3.2896,-5.6976 -4.4225,-19.5675 -29.4605,-52.9835 -18.6541,-24.8962 -38.6219,-47.2149 -44.3723,-49.5969 -11.7184,-4.8549 -866.1785,203.3849 -871.3593,212.3585 -1.7211,2.9809 -0.6956,6.8015 2.2793,8.4898 2.9866,1.6674 215.3443,-22.4945 471.9327,-53.7402 z"
       style="fill:none;stroke:#ff0000;stroke-width:4.97505808"
       inkscape:connector-curvature="0" />
    <path
       id="path3713-4-2-40"
       d="m 1329.321,-1282.7888 c 4.7522,-4.9056 9.6505,-12.1848 10.8852,-16.1762 3.7337,-12.0706 -28.0192,-155.98 -35.3505,-160.2128 -3.7522,-2.1664 -7.6761,-2.4595 -8.7199,-0.6519 -4.4741,7.7494 12.8116,179.1853 18.392,182.4071 3.3843,1.9541 10.0415,-0.4612 14.7932,-5.3662 z"
       style="fill:none;stroke:#ff0000;stroke-width:4.97505808"
       inkscape:connector-curvature="0" />
    <path
       id="path3701-1-2-22"
       d="m 1393.1615,-1334.9097 c 7.4314,-3.998 6.7912,-15.2413 -2.3667,-41.557 -6.1142,-17.5707 -10.5983,-23.9281 -15.8788,-22.5131 -5.2806,1.4148 -6.0134,10.1666 -2.5886,30.9964 4.6127,28.0701 11.0732,38.3254 20.8341,33.0737 z"
       style="fill:none;stroke:#ff0000;stroke-width:4.97505808"
       inkscape:connector-curvature="0" />
    <path
       id="path3699-9-1-4"
       d="m 1815.0911,-1381.6396 c 185.912,-45.7421 340.0989,-85.4823 342.6375,-88.3122 6.7082,-7.4767 -61.5676,-77.1783 -73.5887,-75.126 -16.1984,2.7663 -608.7825,229.33 -613.7155,234.6433 -2.7014,2.9098 -2.3113,6.7915 0.8666,8.6262 3.178,1.8348 157.8881,-34.0892 343.8001,-79.8313 z"
       style="fill:none;stroke:#ff0000;stroke-width:4.97505808"
       inkscape:connector-curvature="0" />
    <path
       id="path3665-9-9-3"
       d="m 1613.5365,-1413.5745 c 132.3682,-46.7436 429.5458,-163.39 430.4272,-168.9493 1.0265,-6.4763 -23.9452,-28.649 -47.7332,-42.3829 -10.1677,-5.8703 -31.0911,3.8851 -210.7403,98.2603 -109.6985,57.6282 -202.4605,107.2153 -206.1378,110.1937 -15.9932,12.9539 1.4847,14.4254 34.1841,2.8782 z"
       style="fill:none;stroke:#ff0000;stroke-width:4.97505808"
       inkscape:connector-curvature="0" />
    <path
       id="path3643-9-3-7"
       d="m 1793.5841,-1578.5944 c 76.0851,-40.0281 140.4612,-75.8901 143.058,-79.6933 3.8753,-5.6754 0.5919,-9.2978 -18.3225,-20.2181 l -23.0433,-13.3041 -123.6503,85.7953 c -68.0077,47.1877 -124.6448,87.5179 -125.8601,89.6227 -9.5859,16.6032 28.4436,0.6003 147.8182,-62.2025 z"
       style="fill:none;stroke:#ff0000;stroke-width:4.97505808"
       inkscape:connector-curvature="0" />
    <path
       id="path3625-7-4-06"
       d="m 1764.4742,-1652.7539 c 37.2762,-25.5987 71.4137,-50.2989 75.8604,-54.8896 7.2548,-7.4892 6.5265,-9.2465 -7.0876,-17.1067 l -15.1725,-8.7597 -65.5019,58.0155 c -36.0258,31.9094 -65.1045,59.4985 -64.6193,61.3097 0.4853,1.8111 2.4979,0.5638 4.4725,-2.7725 3.0744,-5.1956 3.6389,-4.86 3.9322,2.3394 0.2486,6.1136 18.826,-4.2875 68.1168,-38.1371 z"
       style="fill:none;stroke:#ff0000;stroke-width:4.97505808"
       inkscape:connector-curvature="0" />
    <path
       id="path3621-1-9-85"
       d="m 1307.778,-1873.0239 c 15.2036,2.6114 22.6822,2.1417 17.8826,-1.1235 -8.2494,-5.6118 -8.2494,-5.6118 2.7278,-4.7246 11.2392,0.9079 10.2874,0.4611 -39.5498,-18.5613 -13.1046,-5.002 -18.8522,-4.6599 -22.3096,1.3285 -5.9282,10.2681 6.2158,17.0634 41.249,23.0809 z"
       style="fill:none;stroke:#ff0000;stroke-width:4.97505808"
       inkscape:connector-curvature="0" />
    <path
       id="path3615-4-6-0"
       d="m 1339.4344,-1925.8447 c 65.6126,21.4872 94.5498,28.1909 77.0928,17.8594 -5.0043,-2.9639 -4.4936,-3.7029 2.9209,-4.2331 6.9283,-0.495 6.2491,-1.599 -2.9636,-4.8172 -6.5731,-2.2962 -44.7878,-20.0606 -84.9211,-39.4768 -62.1353,-30.0602 -73.5471,-34.2555 -76.8566,-28.2535 -5.3677,9.735 -2.4415,28.0979 5.068,31.8023 3.4179,1.6862 39.2639,13.8894 79.658,27.118 z"
       style="fill:none;stroke:#ff0000;stroke-width:4.97505808"
       inkscape:connector-curvature="0" />
    <path
       id="path3611-7-7-4"
       d="m 1735.847,-1719.2652 c 26.337,-24.1364 28.4831,-28.04 18.5662,-33.7654 -6.4235,-3.7087 -12.1777,0.068 -28.3915,18.6347 -11.1847,12.8072 -19.8688,25.0277 -19.2983,27.1559 0.5704,2.1284 3.3184,0.2324 6.1075,-4.2133 4.8015,-7.6498 4.993,-7.5657 3.6225,1.6031 -1.1056,7.3936 3.4837,5.1658 19.3934,-9.4146 z"
       style="fill:none;stroke:#ff0000;stroke-width:4.97505808"
       inkscape:connector-curvature="0" />
    <path
       id="path3601-1-3-3"
       d="m 1388.8972,-1978.7012 c 63.5668,29.4493 121.613,56.5208 128.9912,60.1591 l 13.4151,6.6147 -11.0269,-10.7513 -11.0266,-10.7518 13.5955,6.3024 c 20.4758,9.4915 -65.6556,-47.4202 -171.532,-113.3402 -90.3499,-56.2526 -94.2039,-58.222 -98.6873,-50.4218 -2.5746,4.4593 -4.461,16.637 -4.2121,27.0493 0.533,22.2577 -13.1502,13.9653 140.4831,85.1396 z"
       style="fill:none;stroke:#ff0000;stroke-width:4.97505808"
       inkscape:connector-curvature="0" />
    <path
       id="path3581-3-9-3"
       d="m 1658.3872,-1908.1653 c 2.2523,-3.901 2.1624,-8.208 -0.1994,-9.5716 -2.3617,-1.3635 -85.7482,-68.895 -185.3033,-150.0701 -99.5556,-81.1753 -186.3794,-150.6915 -192.9431,-154.481 -10.4546,-6.0359 -12.3527,-5.4188 -15.318,4.9848 -1.8615,6.5306 -4.6887,22.8103 -6.282,36.177 -3.575,29.9925 -12.1533,23.0268 162.582,132.0288 72.0118,44.9216 153.9792,96.604 182.1495,114.8502 45.8238,29.6791 51.651,32.4271 55.3143,26.0819 z"
       style="fill:none;stroke:#ff0000;stroke-width:4.97505808"
       inkscape:connector-curvature="0" />
    <path
       id="path3579-8-0-5"
       d="m 1636.5346,-1922.5536 c 3.6522,0.515 8.4992,3.3134 10.7714,6.2188 2.2721,2.9053 -0.7161,2.4842 -6.6405,-0.9363 -5.9241,-3.4202 -7.783,-5.7975 -4.1309,-5.2825 z"
       style="fill:none;stroke:#ff0000;stroke-width:4.97505808"
       inkscape:connector-curvature="0" />
    <path
       id="path3573-9-1-4"
       d="m 2114.0497,-1671.1717 c -2.7832,-5.3135 -2.14,-6.7879 2.5414,-5.8297 3.4468,0.7056 -131.0721,-236.4251 -298.9303,-526.957 -167.8589,-290.5315 -308.4922,-528.7612 -312.519,-529.3993 -5.83,-0.924 -15.3044,12.6973 -46.5123,66.872 -21.5475,37.4219 -39.0545,71.2129 -38.8889,75.1 0.3111,7.291 684.18,919.5723 693.0596,924.5423 3.0351,1.6941 3.5207,0.01 1.2495,-4.3283 z"
       style="fill:none;stroke:#ff0000;stroke-width:4.97505808"
       inkscape:connector-curvature="0" />
    <path
       id="path3569-4-0-3"
       d="m 1791.0489,-1869.2889 c -3.2652,-7.0013 -2.5892,-7.5411 4.4458,-3.5541 4.5663,2.5794 7.8694,3.1088 7.3473,1.1622 -1.2527,-4.6768 -482.6414,-505.4494 -489.928,-509.6562 -3.0996,-1.7895 -6.4358,-1.777 -7.4146,0.028 -2.9207,5.3872 -27.6308,95.4584 -26.7637,97.5606 0.4392,1.0658 113.4121,93.45 251.0503,205.2978 137.6379,111.8482 253.5951,206.523 257.6822,210.389 6.0694,5.741 6.7255,5.516 3.5807,-1.2269 z"
       style="fill:none;stroke:#ff0000;stroke-width:4.97505808"
       inkscape:connector-curvature="0" />
    <path
       id="path3565-0-2-2"
       d="m 1951.4069,-1794.1165 c 2.6908,-1.4476 2.5089,-6.4688 -0.4041,-11.1587 -11.7438,-18.9073 -549.2223,-731.5641 -553.6791,-734.1373 -3.2831,-1.8954 -14.9788,14.8536 -36.9726,52.948 -28.4854,49.3382 -31.455,56.4769 -25.9284,62.3221 64.9049,68.6466 604.9858,628.5554 607.9448,630.2639 2.281,1.3169 6.3487,1.2095 9.0394,-0.238 z"
       style="fill:none;stroke:#ff0000;stroke-width:4.97505808"
       inkscape:connector-curvature="0" />
    <path
       inkscape:connector-curvature="0"
       style="fill:none;stroke:#ff0000;stroke-width:5.14685726"
       d="m 930.71564,-1977.835 539.65366,-931.5812 264.2293,-1.1889 c 145.3262,-0.6542 632.1911,0.5044 1081.9214,2.5734 l 817.6916,3.7624 532.4121,923.8609 c 292.8263,508.1235 534.7152,928.5647 537.5306,934.3137 4.3331,8.848 -77.5766,153.44328 -533.5516,941.87494 -296.2691,512.2821 -540.294,933.1591 -542.2771,935.2827 -1.9836,2.1231 -489.5274,2.1231 -1083.4305,0 l -1079.8245,-3.8607 -535.29376,-929.0076 c -294.411,-510.9543 -536.0632,-932.48194 -537.004,-936.72804 -0.9409,-4.2462 241.1333,-426.9319 537.9428,-939.3016 z"
       id="path3927-0" />
  </g>
</svg>
