  0
SECTION
  2
HEADER
  9
$ACADVER
  1
AC1014
  9
$HANDSEED
  5
FFFF
  9
$MEASUREMENT
 70
     1
  0
ENDSEC
  0
SECTION
  2
TABLES
  0
TABLE
  2
VPORT
  5
8
330
0
100
AcDbSymbolTable
 70
     4
  0
VPORT
  5
2E
330
8
100
AcDbSymbolTableRecord
100
AcDbViewportTableRecord
  2
*ACTIVE
 70
     0
 10
0.0
 20
0.0
 11
1.0
 21
1.0
 12
210.0
 22
148.5
 13
0.0
 23
0.0
 14
10.0
 24
10.0
 15
10.0
 25
10.0
 16
0.0
 26
0.0
 36
1.0
 17
0.0
 27
0.0
 37
0.0
 40
341.0
 41
1.24
 42
50.0
 43
0.0
 44
0.0
 50
0.0
 51
0.0
 71
     0
 72
   100
 73
     1
 74
     3
 75
     0
 76
     0
 77
     0
 78
     0
  0
ENDTAB
  0
TABLE
  2
LTYPE
  5
5
330
0
100
AcDbSymbolTable
 70
     1
  0
LTYPE
  5
14
330
5
100
AcDbSymbolTableRecord
100
AcDbLinetypeTableRecord
  2
BYBLOCK
 70
     0
  3

 72
    65
 73
     0
 40
0.0
  0
LTYPE
  5
15
330
5
100
AcDbSymbolTableRecord
100
AcDbLinetypeTableRecord
  2
BYLAYER
 70
     0
  3

 72
    65
 73
     0
 40
0.0
  0
LTYPE
  5
16
330
5
100
AcDbSymbolTableRecord
100
AcDbLinetypeTableRecord
  2
CONTINUOUS
 70
     0
  3
Solid line
 72
    65
 73
     0
 40
0.0
  0
ENDTAB
  0
TABLE
  2
LAYER
  5
2
100
AcDbSymbolTable
 70
2
  0
LAYER
  5
50
100
AcDbSymbolTableRecord
100
AcDbLayerTableRecord
  2
0
 70
0
  6
CONTINUOUS
  0
LAYER
  5
51
100
AcDbSymbolTableRecord
100
AcDbLayerTableRecord
  2
Layer_1
 70
0
  6
CONTINUOUS
  0
ENDTAB
  0
TABLE
  2
STYLE
  5
3
330
0
100
AcDbSymbolTable
 70
     1
  0
STYLE
  5
11
330
3
100
AcDbSymbolTableRecord
100
AcDbTextStyleTableRecord
  2
STANDARD
 70
     0
 40
0.0
 41
1.0
 50
0.0
 71
     0
 42
2.5
  3
txt
  4

  0
ENDTAB
  0
TABLE
  2
VIEW
  5
6
330
0
100
AcDbSymbolTable
 70
     0
  0
ENDTAB
  0
TABLE
  2
UCS
  5
7
330
0
100
AcDbSymbolTable
 70
     0
  0
ENDTAB
  0
TABLE
  2
APPID
  5
9
330
0
100
AcDbSymbolTable
 70
     2
  0
APPID
  5
12
330
9
100
AcDbSymbolTableRecord
100
AcDbRegAppTableRecord
  2
ACAD
 70
     0
  0
ENDTAB
  0
TABLE
  2
DIMSTYLE
  5
A
330
0
100
AcDbSymbolTable
 70
     1
  0
DIMSTYLE
105
27
330
A
100
AcDbSymbolTableRecord
100
AcDbDimStyleTableRecord
  2
ISO-25
 70
     0
  3

  4

  5

  6

  7

 40
1.0
 41
2.5
 42
0.625
 43
3.75
 44
1.25
 45
0.0
 46
0.0
 47
0.0
 48
0.0
140
2.5
141
2.5
142
0.0
143
0.03937007874016
144
1.0
145
0.0
146
1.0
147
0.625
 71
     0
 72
     0
 73
     0
 74
     0
 75
     0
 76
     0
 77
     1
 78
     8
170
     0
171
     3
172
     1
173
     0
174
     0
175
     0
176
     0
177
     0
178
     0
270
     2
271
     2
272
     2
273
     2
274
     3
340
11
275
     0
280
     0
281
     0
282
     0
283
     0
284
     8
285
     0
286
     0
287
     3
288
     0
  0
ENDTAB
  0
TABLE
  2
BLOCK_RECORD
  5
1
330
0
100
AcDbSymbolTable
 70
     1
  0
BLOCK_RECORD
  5
1F
330
1
100
AcDbSymbolTableRecord
100
AcDbBlockTableRecord
  2
*MODEL_SPACE
  0
BLOCK_RECORD
  5
1B
330
1
100
AcDbSymbolTableRecord
100
AcDbBlockTableRecord
  2
*PAPER_SPACE
  0
ENDTAB
  0
ENDSEC
  0
SECTION
  2
BLOCKS
  0
BLOCK
  5
20
330
1F
100
AcDbEntity
  8
0
100
AcDbBlockBegin
  2
*MODEL_SPACE
 70
     0
 10
0.0
 20
0.0
 30
0.0
  3
*MODEL_SPACE
  1

  0
ENDBLK
  5
21
330
1F
100
AcDbEntity
  8
0
100
AcDbBlockEnd
  0
BLOCK
  5
1C
330
1B
100
AcDbEntity
 67
     1
  8
0
100
AcDbBlockBegin
  2
*PAPER_SPACE
  1

  0
ENDBLK
  5
1D
330
1B
100
AcDbEntity
 67
     1
  8
0
100
AcDbBlockEnd
  0
ENDSEC
  0
SECTION
  2
ENTITIES
  0
LINE
  5
100
100
AcDbEntity
  8
Layer_1
 62
1
100
AcDbLine
 10
1254.755411
 20
625.418099
 30
0.0
 11
1245.969512
 21
639.852076
 31
0.0
  0
LINE
  5
101
100
AcDbEntity
  8
Layer_1
 62
1
100
AcDbLine
 10
1245.969512
 20
639.852076
 30
0.0
 11
1223.377199
 21
679.388623
 31
0.0
  0
LINE
  5
102
100
AcDbEntity
  8
Layer_1
 62
1
100
AcDbLine
 10
1223.377199
 20
679.388623
 30
0.0
 11
1190.116295
 21
736.496969
 31
0.0
  0
LINE
  5
103
100
AcDbEntity
  8
Layer_1
 62
1
100
AcDbLine
 10
1190.116295
 20
736.496969
 30
0.0
 11
1149.952184
 21
806.784163
 31
0.0
  0
LINE
  5
104
100
AcDbEntity
  8
Layer_1
 62
1
100
AcDbLine
 10
1149.952184
 20
806.784163
 30
0.0
 11
1106.022687
 21
882.719435
 31
0.0
  0
LINE
  5
105
100
AcDbEntity
  8
Layer_1
 62
1
100
AcDbLine
 10
1106.022687
 20
882.719435
 30
0.0
 11
1062.093191
 21
958.654708
 31
0.0
  0
LINE
  5
106
100
AcDbEntity
  8
Layer_1
 62
1
100
AcDbLine
 10
1062.093191
 20
958.654708
 30
0.0
 11
1021.929080
 21
1028.314338
 31
0.0
  0
LINE
  5
107
100
AcDbEntity
  8
Layer_1
 62
1
100
AcDbLine
 10
1021.929080
 20
1028.314338
 30
0.0
 11
988.668176
 21
1086.050247
 31
0.0
  0
LINE
  5
108
100
AcDbEntity
  8
Layer_1
 62
1
100
AcDbLine
 10
988.668176
 20
1086.050247
 30
0.0
 11
966.075863
 21
1124.959230
 31
0.0
  0
LINE
  5
109
100
AcDbEntity
  8
Layer_1
 62
1
100
AcDbLine
 10
966.075863
 20
1124.959230
 30
0.0
 11
957.917528
 21
1139.393207
 31
0.0
  0
LINE
  5
10a
100
AcDbEntity
  8
Layer_1
 62
1
100
AcDbLine
 10
957.917528
 20
1139.393207
 30
0.0
 11
956.662400
 21
1140.648336
 31
0.0
  0
LINE
  5
10b
100
AcDbEntity
  8
Layer_1
 62
1
100
AcDbLine
 10
956.662400
 20
1140.648336
 30
0.0
 11
956.034835
 21
1141.903464
 31
0.0
  0
LINE
  5
10c
100
AcDbEntity
  8
Layer_1
 62
1
100
AcDbLine
 10
956.034835
 20
1141.903464
 30
0.0
 11
954.779707
 21
1143.158593
 31
0.0
  0
LINE
  5
10d
100
AcDbEntity
  8
Layer_1
 62
1
100
AcDbLine
 10
954.779707
 20
1143.158593
 30
0.0
 11
953.524578
 21
1143.786157
 31
0.0
  0
LINE
  5
10e
100
AcDbEntity
  8
Layer_1
 62
1
100
AcDbLine
 10
953.524578
 20
1143.786157
 30
0.0
 11
952.269450
 21
1144.413721
 31
0.0
  0
LINE
  5
10f
100
AcDbEntity
  8
Layer_1
 62
1
100
AcDbLine
 10
952.269450
 20
1144.413721
 30
0.0
 11
951.014321
 21
1145.668850
 31
0.0
  0
LINE
  5
110
100
AcDbEntity
  8
Layer_1
 62
1
100
AcDbLine
 10
951.014321
 20
1145.668850
 30
0.0
 11
949.759193
 21
1145.668850
 31
0.0
  0
LINE
  5
111
100
AcDbEntity
  8
Layer_1
 62
1
100
AcDbLine
 10
949.759193
 20
1145.668850
 30
0.0
 11
948.504065
 21
1146.296414
 31
0.0
  0
LINE
  5
112
100
AcDbEntity
  8
Layer_1
 62
1
100
AcDbLine
 10
948.504065
 20
1146.296414
 30
0.0
 11
946.621372
 21
1146.296414
 31
0.0
  0
LINE
  5
113
100
AcDbEntity
  8
Layer_1
 62
1
100
AcDbLine
 10
946.621372
 20
1146.296414
 30
0.0
 11
945.366243
 21
1146.923978
 31
0.0
  0
LINE
  5
114
100
AcDbEntity
  8
Layer_1
 62
1
100
AcDbLine
 10
945.366243
 20
1146.923978
 30
0.0
 11
929.049573
 21
1146.923978
 31
0.0
  0
LINE
  5
115
100
AcDbEntity
  8
Layer_1
 62
1
100
AcDbLine
 10
929.049573
 20
1146.923978
 30
0.0
 11
883.864948
 21
1146.923978
 31
0.0
  0
LINE
  5
116
100
AcDbEntity
  8
Layer_1
 62
1
100
AcDbLine
 10
883.864948
 20
1146.923978
 30
0.0
 11
817.343140
 21
1146.923978
 31
0.0
  0
LINE
  5
117
100
AcDbEntity
  8
Layer_1
 62
1
100
AcDbLine
 10
817.343140
 20
1146.923978
 30
0.0
 11
736.387353
 21
1146.923978
 31
0.0
  0
LINE
  5
118
100
AcDbEntity
  8
Layer_1
 62
1
100
AcDbLine
 10
736.387353
 20
1146.923978
 30
0.0
 11
648.528360
 21
1146.923978
 31
0.0
  0
LINE
  5
119
100
AcDbEntity
  8
Layer_1
 62
1
100
AcDbLine
 10
648.528360
 20
1146.923978
 30
0.0
 11
560.669368
 21
1146.923978
 31
0.0
  0
LINE
  5
11a
100
AcDbEntity
  8
Layer_1
 62
1
100
AcDbLine
 10
560.669368
 20
1146.923978
 30
0.0
 11
480.341145
 21
1146.923978
 31
0.0
  0
LINE
  5
11b
100
AcDbEntity
  8
Layer_1
 62
1
100
AcDbLine
 10
480.341145
 20
1146.923978
 30
0.0
 11
413.819337
 21
1146.923978
 31
0.0
  0
LINE
  5
11c
100
AcDbEntity
  8
Layer_1
 62
1
100
AcDbLine
 10
413.819337
 20
1146.923978
 30
0.0
 11
368.634712
 21
1146.923978
 31
0.0
  0
LINE
  5
11d
100
AcDbEntity
  8
Layer_1
 62
1
100
AcDbLine
 10
368.634712
 20
1146.923978
 30
0.0
 11
352.318042
 21
1146.923978
 31
0.0
  0
LINE
  5
11e
100
AcDbEntity
  8
Layer_1
 62
1
100
AcDbLine
 10
352.318042
 20
1146.923978
 30
0.0
 11
350.435349
 21
1146.296414
 31
0.0
  0
LINE
  5
11f
100
AcDbEntity
  8
Layer_1
 62
1
100
AcDbLine
 10
350.435349
 20
1146.296414
 30
0.0
 11
349.180220
 21
1146.296414
 31
0.0
  0
LINE
  5
120
100
AcDbEntity
  8
Layer_1
 62
1
100
AcDbLine
 10
349.180220
 20
1146.296414
 30
0.0
 11
347.925092
 21
1145.668850
 31
0.0
  0
LINE
  5
121
100
AcDbEntity
  8
Layer_1
 62
1
100
AcDbLine
 10
347.925092
 20
1145.668850
 30
0.0
 11
346.042399
 21
1145.668850
 31
0.0
  0
LINE
  5
122
100
AcDbEntity
  8
Layer_1
 62
1
100
AcDbLine
 10
346.042399
 20
1145.668850
 30
0.0
 11
344.787271
 21
1144.413721
 31
0.0
  0
LINE
  5
123
100
AcDbEntity
  8
Layer_1
 62
1
100
AcDbLine
 10
344.787271
 20
1144.413721
 30
0.0
 11
343.532142
 21
1143.786157
 31
0.0
  0
LINE
  5
124
100
AcDbEntity
  8
Layer_1
 62
1
100
AcDbLine
 10
343.532142
 20
1143.786157
 30
0.0
 11
342.277014
 21
1143.158593
 31
0.0
  0
LINE
  5
125
100
AcDbEntity
  8
Layer_1
 62
1
100
AcDbLine
 10
342.277014
 20
1143.158593
 30
0.0
 11
341.649450
 21
1141.903464
 31
0.0
  0
LINE
  5
126
100
AcDbEntity
  8
Layer_1
 62
1
100
AcDbLine
 10
341.649450
 20
1141.903464
 30
0.0
 11
340.394321
 21
1140.648336
 31
0.0
  0
LINE
  5
127
100
AcDbEntity
  8
Layer_1
 62
1
100
AcDbLine
 10
340.394321
 20
1140.648336
 30
0.0
 11
339.766757
 21
1139.393207
 31
0.0
  0
LINE
  5
128
100
AcDbEntity
  8
Layer_1
 62
1
100
AcDbLine
 10
339.766757
 20
1139.393207
 30
0.0
 11
331.608422
 21
1124.959230
 31
0.0
  0
LINE
  5
129
100
AcDbEntity
  8
Layer_1
 62
1
100
AcDbLine
 10
331.608422
 20
1124.959230
 30
0.0
 11
309.016109
 21
1086.050247
 31
0.0
  0
LINE
  5
12a
100
AcDbEntity
  8
Layer_1
 62
1
100
AcDbLine
 10
309.016109
 20
1086.050247
 30
0.0
 11
275.755205
 21
1028.314338
 31
0.0
  0
LINE
  5
12b
100
AcDbEntity
  8
Layer_1
 62
1
100
AcDbLine
 10
275.755205
 20
1028.314338
 30
0.0
 11
235.591094
 21
958.654708
 31
0.0
  0
LINE
  5
12c
100
AcDbEntity
  8
Layer_1
 62
1
100
AcDbLine
 10
235.591094
 20
958.654708
 30
0.0
 11
191.661598
 21
882.719435
 31
0.0
  0
LINE
  5
12d
100
AcDbEntity
  8
Layer_1
 62
1
100
AcDbLine
 10
191.661598
 20
882.719435
 30
0.0
 11
147.732101
 21
806.784163
 31
0.0
  0
LINE
  5
12e
100
AcDbEntity
  8
Layer_1
 62
1
100
AcDbLine
 10
147.732101
 20
806.784163
 30
0.0
 11
106.940426
 21
736.496969
 31
0.0
  0
LINE
  5
12f
100
AcDbEntity
  8
Layer_1
 62
1
100
AcDbLine
 10
106.940426
 20
736.496969
 30
0.0
 11
73.679521
 21
679.388623
 31
0.0
  0
LINE
  5
130
100
AcDbEntity
  8
Layer_1
 62
1
100
AcDbLine
 10
73.679521
 20
679.388623
 30
0.0
 11
51.087209
 21
639.852076
 31
0.0
  0
LINE
  5
131
100
AcDbEntity
  8
Layer_1
 62
1
100
AcDbLine
 10
51.087209
 20
639.852076
 30
0.0
 11
42.928874
 21
625.418099
 31
0.0
  0
LINE
  5
132
100
AcDbEntity
  8
Layer_1
 62
1
100
AcDbLine
 10
42.928874
 20
625.418099
 30
0.0
 11
42.301310
 21
624.162971
 31
0.0
  0
LINE
  5
133
100
AcDbEntity
  8
Layer_1
 62
1
100
AcDbLine
 10
42.301310
 20
624.162971
 30
0.0
 11
41.673745
 21
622.907842
 31
0.0
  0
LINE
  5
134
100
AcDbEntity
  8
Layer_1
 62
1
100
AcDbLine
 10
41.673745
 20
622.907842
 30
0.0
 11
41.673745
 21
621.652714
 31
0.0
  0
LINE
  5
135
100
AcDbEntity
  8
Layer_1
 62
1
100
AcDbLine
 10
41.673745
 20
621.652714
 30
0.0
 11
41.046181
 21
619.770021
 31
0.0
  0
LINE
  5
136
100
AcDbEntity
  8
Layer_1
 62
1
100
AcDbLine
 10
41.046181
 20
619.770021
 30
0.0
 11
41.046181
 21
618.514892
 31
0.0
  0
LINE
  5
137
100
AcDbEntity
  8
Layer_1
 62
1
100
AcDbLine
 10
41.046181
 20
618.514892
 30
0.0
 11
41.046181
 21
617.259764
 31
0.0
  0
LINE
  5
138
100
AcDbEntity
  8
Layer_1
 62
1
100
AcDbLine
 10
41.046181
 20
617.259764
 30
0.0
 11
41.673745
 21
615.377071
 31
0.0
  0
LINE
  5
139
100
AcDbEntity
  8
Layer_1
 62
1
100
AcDbLine
 10
41.673745
 20
615.377071
 30
0.0
 11
41.673745
 21
614.121943
 31
0.0
  0
LINE
  5
13a
100
AcDbEntity
  8
Layer_1
 62
1
100
AcDbLine
 10
41.673745
 20
614.121943
 30
0.0
 11
42.301310
 21
612.866814
 31
0.0
  0
LINE
  5
13b
100
AcDbEntity
  8
Layer_1
 62
1
100
AcDbLine
 10
42.301310
 20
612.866814
 30
0.0
 11
42.928874
 21
611.611686
 31
0.0
  0
LINE
  5
13c
100
AcDbEntity
  8
Layer_1
 62
1
100
AcDbLine
 10
42.928874
 20
611.611686
 30
0.0
 11
51.087209
 21
597.177708
 31
0.0
  0
LINE
  5
13d
100
AcDbEntity
  8
Layer_1
 62
1
100
AcDbLine
 10
51.087209
 20
597.177708
 30
0.0
 11
73.679521
 21
558.268726
 31
0.0
  0
LINE
  5
13e
100
AcDbEntity
  8
Layer_1
 62
1
100
AcDbLine
 10
73.679521
 20
558.268726
 30
0.0
 11
106.940426
 21
500.532816
 31
0.0
  0
LINE
  5
13f
100
AcDbEntity
  8
Layer_1
 62
1
100
AcDbLine
 10
106.940426
 20
500.532816
 30
0.0
 11
147.732101
 21
430.245622
 31
0.0
  0
LINE
  5
140
100
AcDbEntity
  8
Layer_1
 62
1
100
AcDbLine
 10
147.732101
 20
430.245622
 30
0.0
 11
191.661598
 21
354.310350
 31
0.0
  0
LINE
  5
141
100
AcDbEntity
  8
Layer_1
 62
1
100
AcDbLine
 10
191.661598
 20
354.310350
 30
0.0
 11
235.591094
 21
278.375077
 31
0.0
  0
LINE
  5
142
100
AcDbEntity
  8
Layer_1
 62
1
100
AcDbLine
 10
235.591094
 20
278.375077
 30
0.0
 11
275.755205
 21
208.715447
 31
0.0
  0
LINE
  5
143
100
AcDbEntity
  8
Layer_1
 62
1
100
AcDbLine
 10
275.755205
 20
208.715447
 30
0.0
 11
309.016109
 21
150.979538
 31
0.0
  0
LINE
  5
144
100
AcDbEntity
  8
Layer_1
 62
1
100
AcDbLine
 10
309.016109
 20
150.979538
 30
0.0
 11
331.608422
 21
112.070555
 31
0.0
  0
LINE
  5
145
100
AcDbEntity
  8
Layer_1
 62
1
100
AcDbLine
 10
331.608422
 20
112.070555
 30
0.0
 11
339.766757
 21
97.636578
 31
0.0
  0
LINE
  5
146
100
AcDbEntity
  8
Layer_1
 62
1
100
AcDbLine
 10
339.766757
 20
97.636578
 30
0.0
 11
340.394321
 21
96.381449
 31
0.0
  0
LINE
  5
147
100
AcDbEntity
  8
Layer_1
 62
1
100
AcDbLine
 10
340.394321
 20
96.381449
 30
0.0
 11
341.649450
 21
95.126321
 31
0.0
  0
LINE
  5
148
100
AcDbEntity
  8
Layer_1
 62
1
100
AcDbLine
 10
341.649450
 20
95.126321
 30
0.0
 11
342.277014
 21
93.871192
 31
0.0
  0
LINE
  5
149
100
AcDbEntity
  8
Layer_1
 62
1
100
AcDbLine
 10
342.277014
 20
93.871192
 30
0.0
 11
343.532142
 21
93.243628
 31
0.0
  0
LINE
  5
14a
100
AcDbEntity
  8
Layer_1
 62
1
100
AcDbLine
 10
343.532142
 20
93.243628
 30
0.0
 11
344.787271
 21
92.616064
 31
0.0
  0
LINE
  5
14b
100
AcDbEntity
  8
Layer_1
 62
1
100
AcDbLine
 10
344.787271
 20
92.616064
 30
0.0
 11
346.042399
 21
91.360935
 31
0.0
  0
LINE
  5
14c
100
AcDbEntity
  8
Layer_1
 62
1
100
AcDbLine
 10
346.042399
 20
91.360935
 30
0.0
 11
347.925092
 21
91.360935
 31
0.0
  0
LINE
  5
14d
100
AcDbEntity
  8
Layer_1
 62
1
100
AcDbLine
 10
347.925092
 20
91.360935
 30
0.0
 11
349.180220
 21
90.733371
 31
0.0
  0
LINE
  5
14e
100
AcDbEntity
  8
Layer_1
 62
1
100
AcDbLine
 10
349.180220
 20
90.733371
 30
0.0
 11
350.435349
 21
90.733371
 31
0.0
  0
LINE
  5
14f
100
AcDbEntity
  8
Layer_1
 62
1
100
AcDbLine
 10
350.435349
 20
90.733371
 30
0.0
 11
352.318042
 21
90.105807
 31
0.0
  0
LINE
  5
150
100
AcDbEntity
  8
Layer_1
 62
1
100
AcDbLine
 10
352.318042
 20
90.105807
 30
0.0
 11
368.634712
 21
90.105807
 31
0.0
  0
LINE
  5
151
100
AcDbEntity
  8
Layer_1
 62
1
100
AcDbLine
 10
368.634712
 20
90.105807
 30
0.0
 11
413.819337
 21
90.105807
 31
0.0
  0
LINE
  5
152
100
AcDbEntity
  8
Layer_1
 62
1
100
AcDbLine
 10
413.819337
 20
90.105807
 30
0.0
 11
480.341145
 21
90.105807
 31
0.0
  0
LINE
  5
153
100
AcDbEntity
  8
Layer_1
 62
1
100
AcDbLine
 10
480.341145
 20
90.105807
 30
0.0
 11
560.669368
 21
90.105807
 31
0.0
  0
LINE
  5
154
100
AcDbEntity
  8
Layer_1
 62
1
100
AcDbLine
 10
560.669368
 20
90.105807
 30
0.0
 11
648.528360
 21
90.105807
 31
0.0
  0
LINE
  5
155
100
AcDbEntity
  8
Layer_1
 62
1
100
AcDbLine
 10
648.528360
 20
90.105807
 30
0.0
 11
736.387353
 21
90.105807
 31
0.0
  0
LINE
  5
156
100
AcDbEntity
  8
Layer_1
 62
1
100
AcDbLine
 10
736.387353
 20
90.105807
 30
0.0
 11
817.343140
 21
90.105807
 31
0.0
  0
LINE
  5
157
100
AcDbEntity
  8
Layer_1
 62
1
100
AcDbLine
 10
817.343140
 20
90.105807
 30
0.0
 11
883.864948
 21
90.105807
 31
0.0
  0
LINE
  5
158
100
AcDbEntity
  8
Layer_1
 62
1
100
AcDbLine
 10
883.864948
 20
90.105807
 30
0.0
 11
929.049573
 21
90.105807
 31
0.0
  0
LINE
  5
159
100
AcDbEntity
  8
Layer_1
 62
1
100
AcDbLine
 10
929.049573
 20
90.105807
 30
0.0
 11
945.366243
 21
90.105807
 31
0.0
  0
LINE
  5
15a
100
AcDbEntity
  8
Layer_1
 62
1
100
AcDbLine
 10
945.366243
 20
90.105807
 30
0.0
 11
946.621372
 21
90.733371
 31
0.0
  0
LINE
  5
15b
100
AcDbEntity
  8
Layer_1
 62
1
100
AcDbLine
 10
946.621372
 20
90.733371
 30
0.0
 11
948.504065
 21
90.733371
 31
0.0
  0
LINE
  5
15c
100
AcDbEntity
  8
Layer_1
 62
1
100
AcDbLine
 10
948.504065
 20
90.733371
 30
0.0
 11
949.759193
 21
91.360935
 31
0.0
  0
LINE
  5
15d
100
AcDbEntity
  8
Layer_1
 62
1
100
AcDbLine
 10
949.759193
 20
91.360935
 30
0.0
 11
951.014321
 21
91.360935
 31
0.0
  0
LINE
  5
15e
100
AcDbEntity
  8
Layer_1
 62
1
100
AcDbLine
 10
951.014321
 20
91.360935
 30
0.0
 11
952.269450
 21
92.616064
 31
0.0
  0
LINE
  5
15f
100
AcDbEntity
  8
Layer_1
 62
1
100
AcDbLine
 10
952.269450
 20
92.616064
 30
0.0
 11
953.524578
 21
93.243628
 31
0.0
  0
LINE
  5
160
100
AcDbEntity
  8
Layer_1
 62
1
100
AcDbLine
 10
953.524578
 20
93.243628
 30
0.0
 11
954.779707
 21
93.871192
 31
0.0
  0
LINE
  5
161
100
AcDbEntity
  8
Layer_1
 62
1
100
AcDbLine
 10
954.779707
 20
93.871192
 30
0.0
 11
956.034835
 21
95.126321
 31
0.0
  0
LINE
  5
162
100
AcDbEntity
  8
Layer_1
 62
1
100
AcDbLine
 10
956.034835
 20
95.126321
 30
0.0
 11
956.662400
 21
96.381449
 31
0.0
  0
LINE
  5
163
100
AcDbEntity
  8
Layer_1
 62
1
100
AcDbLine
 10
956.662400
 20
96.381449
 30
0.0
 11
957.917528
 21
97.636578
 31
0.0
  0
LINE
  5
164
100
AcDbEntity
  8
Layer_1
 62
1
100
AcDbLine
 10
957.917528
 20
97.636578
 30
0.0
 11
966.075863
 21
112.070555
 31
0.0
  0
LINE
  5
165
100
AcDbEntity
  8
Layer_1
 62
1
100
AcDbLine
 10
966.075863
 20
112.070555
 30
0.0
 11
988.668176
 21
150.979538
 31
0.0
  0
LINE
  5
166
100
AcDbEntity
  8
Layer_1
 62
1
100
AcDbLine
 10
988.668176
 20
150.979538
 30
0.0
 11
1021.929080
 21
208.715447
 31
0.0
  0
LINE
  5
167
100
AcDbEntity
  8
Layer_1
 62
1
100
AcDbLine
 10
1021.929080
 20
208.715447
 30
0.0
 11
1062.093191
 21
278.375077
 31
0.0
  0
LINE
  5
168
100
AcDbEntity
  8
Layer_1
 62
1
100
AcDbLine
 10
1062.093191
 20
278.375077
 30
0.0
 11
1106.022687
 21
354.310350
 31
0.0
  0
LINE
  5
169
100
AcDbEntity
  8
Layer_1
 62
1
100
AcDbLine
 10
1106.022687
 20
354.310350
 30
0.0
 11
1149.952184
 21
430.245622
 31
0.0
  0
LINE
  5
16a
100
AcDbEntity
  8
Layer_1
 62
1
100
AcDbLine
 10
1149.952184
 20
430.245622
 30
0.0
 11
1190.116295
 21
500.532816
 31
0.0
  0
LINE
  5
16b
100
AcDbEntity
  8
Layer_1
 62
1
100
AcDbLine
 10
1190.116295
 20
500.532816
 30
0.0
 11
1223.377199
 21
558.268726
 31
0.0
  0
LINE
  5
16c
100
AcDbEntity
  8
Layer_1
 62
1
100
AcDbLine
 10
1223.377199
 20
558.268726
 30
0.0
 11
1245.969512
 21
597.177708
 31
0.0
  0
LINE
  5
16d
100
AcDbEntity
  8
Layer_1
 62
1
100
AcDbLine
 10
1245.969512
 20
597.177708
 30
0.0
 11
1254.755411
 21
611.611686
 31
0.0
  0
LINE
  5
16e
100
AcDbEntity
  8
Layer_1
 62
1
100
AcDbLine
 10
1254.755411
 20
611.611686
 30
0.0
 11
1255.382975
 21
612.866814
 31
0.0
  0
LINE
  5
16f
100
AcDbEntity
  8
Layer_1
 62
1
100
AcDbLine
 10
1255.382975
 20
612.866814
 30
0.0
 11
1255.382975
 21
614.121943
 31
0.0
  0
LINE
  5
170
100
AcDbEntity
  8
Layer_1
 62
1
100
AcDbLine
 10
1255.382975
 20
614.121943
 30
0.0
 11
1256.010540
 21
615.377071
 31
0.0
  0
LINE
  5
171
100
AcDbEntity
  8
Layer_1
 62
1
100
AcDbLine
 10
1256.010540
 20
615.377071
 30
0.0
 11
1256.010540
 21
617.259764
 31
0.0
  0
LINE
  5
172
100
AcDbEntity
  8
Layer_1
 62
1
100
AcDbLine
 10
1256.010540
 20
617.259764
 30
0.0
 11
1256.638104
 21
618.514892
 31
0.0
  0
LINE
  5
173
100
AcDbEntity
  8
Layer_1
 62
1
100
AcDbLine
 10
1256.638104
 20
618.514892
 30
0.0
 11
1256.010540
 21
619.770021
 31
0.0
  0
LINE
  5
174
100
AcDbEntity
  8
Layer_1
 62
1
100
AcDbLine
 10
1256.010540
 20
619.770021
 30
0.0
 11
1256.010540
 21
621.652714
 31
0.0
  0
LINE
  5
175
100
AcDbEntity
  8
Layer_1
 62
1
100
AcDbLine
 10
1256.010540
 20
621.652714
 30
0.0
 11
1255.382975
 21
622.907842
 31
0.0
  0
LINE
  5
176
100
AcDbEntity
  8
Layer_1
 62
1
100
AcDbLine
 10
1255.382975
 20
622.907842
 30
0.0
 11
1255.382975
 21
624.162971
 31
0.0
  0
LINE
  5
177
100
AcDbEntity
  8
Layer_1
 62
1
100
AcDbLine
 10
1255.382975
 20
624.162971
 30
0.0
 11
1254.755411
 21
625.418099
 31
0.0
  0
LINE
  5
178
100
AcDbEntity
  8
Layer_1
 62
5
100
AcDbLine
 10
1137.400899
 20
465.389219
 30
0.0
 11
1050.169471
 21
384.433433
 31
0.0
  0
LINE
  5
179
100
AcDbEntity
  8
Layer_1
 62
5
100
AcDbLine
 10
1050.169471
 20
384.433433
 30
0.0
 11
1076.527168
 21
742.145047
 31
0.0
  0
LINE
  5
17a
100
AcDbEntity
  8
Layer_1
 62
5
100
AcDbLine
 10
1076.527168
 20
742.145047
 30
0.0
 11
1139.283592
 21
468.527040
 31
0.0
  0
LINE
  5
17b
100
AcDbEntity
  8
Layer_1
 62
5
100
AcDbLine
 10
1139.283592
 20
468.527040
 30
0.0
 11
1137.400899
 21
465.389219
 31
0.0
  0
LINE
  5
17c
100
AcDbEntity
  8
Layer_1
 62
5
100
AcDbLine
 10
760.234794
 20
118.973762
 30
0.0
 11
646.645668
 21
154.117359
 31
0.0
  0
LINE
  5
17d
100
AcDbEntity
  8
Layer_1
 62
5
100
AcDbLine
 10
646.645668
 20
154.117359
 30
0.0
 11
969.841249
 21
309.753289
 31
0.0
  0
LINE
  5
17e
100
AcDbEntity
  8
Layer_1
 62
5
100
AcDbLine
 10
969.841249
 20
309.753289
 30
0.0
 11
764.000180
 21
118.973762
 31
0.0
  0
LINE
  5
17f
100
AcDbEntity
  8
Layer_1
 62
5
100
AcDbLine
 10
764.000180
 20
118.973762
 30
0.0
 11
760.234794
 21
118.973762
 31
0.0
  0
LINE
  5
180
100
AcDbEntity
  8
Layer_1
 62
5
100
AcDbLine
 10
271.989820
 20
272.099435
 30
0.0
 11
245.632122
 21
388.198818
 31
0.0
  0
LINE
  5
181
100
AcDbEntity
  8
Layer_1
 62
5
100
AcDbLine
 10
245.632122
 20
388.198818
 30
0.0
 11
541.842440
 21
186.123135
 31
0.0
  0
LINE
  5
182
100
AcDbEntity
  8
Layer_1
 62
5
100
AcDbLine
 10
541.842440
 20
186.123135
 30
0.0
 11
273.872512
 21
268.961614
 31
0.0
  0
LINE
  5
183
100
AcDbEntity
  8
Layer_1
 62
5
100
AcDbLine
 10
273.872512
 20
268.961614
 30
0.0
 11
271.989820
 21
272.099435
 31
0.0
  0
LINE
  5
184
100
AcDbEntity
  8
Layer_1
 62
5
100
AcDbLine
 10
160.283386
 20
771.640566
 30
0.0
 11
247.514814
 21
852.596352
 31
0.0
  0
LINE
  5
185
100
AcDbEntity
  8
Layer_1
 62
5
100
AcDbLine
 10
247.514814
 20
852.596352
 30
0.0
 11
221.157117
 21
494.884738
 31
0.0
  0
LINE
  5
186
100
AcDbEntity
  8
Layer_1
 62
5
100
AcDbLine
 10
221.157117
 20
494.884738
 30
0.0
 11
158.400693
 21
768.502745
 31
0.0
  0
LINE
  5
187
100
AcDbEntity
  8
Layer_1
 62
5
100
AcDbLine
 10
158.400693
 20
768.502745
 30
0.0
 11
160.283386
 21
771.640566
 31
0.0
  0
LINE
  5
188
100
AcDbEntity
  8
Layer_1
 62
5
100
AcDbLine
 10
537.449491
 20
1118.056023
 30
0.0
 11
651.038617
 21
1082.912426
 31
0.0
  0
LINE
  5
189
100
AcDbEntity
  8
Layer_1
 62
5
100
AcDbLine
 10
651.038617
 20
1082.912426
 30
0.0
 11
327.843036
 21
927.276496
 31
0.0
  0
LINE
  5
18a
100
AcDbEntity
  8
Layer_1
 62
5
100
AcDbLine
 10
327.843036
 20
927.276496
 30
0.0
 11
533.684105
 21
1118.056023
 31
0.0
  0
LINE
  5
18b
100
AcDbEntity
  8
Layer_1
 62
5
100
AcDbLine
 10
533.684105
 20
1118.056023
 30
0.0
 11
537.449491
 21
1118.056023
 31
0.0
  0
LINE
  5
18c
100
AcDbEntity
  8
Layer_1
 62
5
100
AcDbLine
 10
799.143777
 20
992.543176
 30
0.0
 11
857.507251
 21
919.745725
 31
0.0
  0
LINE
  5
18d
100
AcDbEntity
  8
Layer_1
 62
5
100
AcDbLine
 10
857.507251
 20
919.745725
 30
0.0
 11
573.220652
 21
961.792529
 31
0.0
  0
LINE
  5
18e
100
AcDbEntity
  8
Layer_1
 62
5
100
AcDbLine
 10
573.220652
 20
961.792529
 30
0.0
 11
794.750827
 21
995.680997
 31
0.0
  0
LINE
  5
18f
100
AcDbEntity
  8
Layer_1
 62
5
100
AcDbLine
 10
794.750827
 20
995.680997
 30
0.0
 11
799.143777
 21
992.543176
 31
0.0
  0
LINE
  5
190
100
AcDbEntity
  8
Layer_1
 62
5
100
AcDbLine
 10
1047.659214
 20
675.623238
 30
0.0
 11
1013.770745
 21
588.391809
 31
0.0
  0
LINE
  5
191
100
AcDbEntity
  8
Layer_1
 62
5
100
AcDbLine
 10
1013.770745
 20
588.391809
 30
0.0
 11
908.339954
 21
855.734173
 31
0.0
  0
LINE
  5
192
100
AcDbEntity
  8
Layer_1
 62
5
100
AcDbLine
 10
908.339954
 20
855.734173
 30
0.0
 11
1048.286778
 21
680.643752
 31
0.0
  0
LINE
  5
193
100
AcDbEntity
  8
Layer_1
 62
5
100
AcDbLine
 10
1048.286778
 20
680.643752
 30
0.0
 11
1047.659214
 21
675.623238
 31
0.0
  0
LINE
  5
194
100
AcDbEntity
  8
Layer_1
 62
5
100
AcDbLine
 10
897.671362
 20
301.594954
 30
0.0
 11
804.791855
 21
287.788541
 31
0.0
  0
LINE
  5
195
100
AcDbEntity
  8
Layer_1
 62
5
100
AcDbLine
 10
804.791855
 20
287.788541
 30
0.0
 11
983.647662
 21
512.456537
 31
0.0
  0
LINE
  5
196
100
AcDbEntity
  8
Layer_1
 62
5
100
AcDbLine
 10
983.647662
 20
512.456537
 30
0.0
 11
902.064311
 21
304.105211
 31
0.0
  0
LINE
  5
197
100
AcDbEntity
  8
Layer_1
 62
5
100
AcDbLine
 10
902.064311
 20
304.105211
 30
0.0
 11
897.671362
 21
301.594954
 31
0.0
  0
LINE
  5
198
100
AcDbEntity
  8
Layer_1
 62
5
100
AcDbLine
 10
498.540508
 20
244.486609
 30
0.0
 11
440.177034
 21
317.911624
 31
0.0
  0
LINE
  5
199
100
AcDbEntity
  8
Layer_1
 62
5
100
AcDbLine
 10
440.177034
 20
317.911624
 30
0.0
 11
724.463633
 21
275.237256
 31
0.0
  0
LINE
  5
19a
100
AcDbEntity
  8
Layer_1
 62
5
100
AcDbLine
 10
724.463633
 20
275.237256
 30
0.0
 11
502.933458
 21
241.348787
 31
0.0
  0
LINE
  5
19b
100
AcDbEntity
  8
Layer_1
 62
5
100
AcDbLine
 10
502.933458
 20
241.348787
 30
0.0
 11
498.540508
 21
244.486609
 31
0.0
  0
LINE
  5
19c
100
AcDbEntity
  8
Layer_1
 62
5
100
AcDbLine
 10
250.025071
 20
561.406547
 30
0.0
 11
283.913540
 21
648.637976
 31
0.0
  0
LINE
  5
19d
100
AcDbEntity
  8
Layer_1
 62
5
100
AcDbLine
 10
283.913540
 20
648.637976
 30
0.0
 11
389.344331
 21
381.295612
 31
0.0
  0
LINE
  5
19e
100
AcDbEntity
  8
Layer_1
 62
5
100
AcDbLine
 10
389.344331
 20
381.295612
 30
0.0
 11
249.397507
 21
556.386033
 31
0.0
  0
LINE
  5
19f
100
AcDbEntity
  8
Layer_1
 62
5
100
AcDbLine
 10
249.397507
 20
556.386033
 30
0.0
 11
250.025071
 21
561.406547
 31
0.0
  0
LINE
  5
1a0
100
AcDbEntity
  8
Layer_1
 62
5
100
AcDbLine
 10
517.367435
 20
953.634194
 30
0.0
 11
604.598864
 21
940.455345
 31
0.0
  0
LINE
  5
1a1
100
AcDbEntity
  8
Layer_1
 62
5
100
AcDbLine
 10
604.598864
 20
940.455345
 30
0.0
 11
389.344331
 21
792.977750
 31
0.0
  0
LINE
  5
1a2
100
AcDbEntity
  8
Layer_1
 62
5
100
AcDbLine
 10
389.344331
 20
792.977750
 30
0.0
 11
516.739871
 21
953.006630
 31
0.0
  0
LINE
  5
1a3
100
AcDbEntity
  8
Layer_1
 62
5
100
AcDbLine
 10
516.739871
 20
953.006630
 30
0.0
 11
517.367435
 21
953.634194
 31
0.0
  0
LINE
  5
1a4
100
AcDbEntity
  8
Layer_1
 62
5
100
AcDbLine
 10
873.196356
 20
899.663670
 30
0.0
 11
905.202132
 21
817.452755
 31
0.0
  0
LINE
  5
1a5
100
AcDbEntity
  8
Layer_1
 62
5
100
AcDbLine
 10
905.202132
 20
817.452755
 30
0.0
 11
669.865544
 21
930.414317
 31
0.0
  0
LINE
  5
1a6
100
AcDbEntity
  8
Layer_1
 62
5
100
AcDbLine
 10
669.865544
 20
930.414317
 30
0.0
 11
872.568792
 21
900.291234
 31
0.0
  0
LINE
  5
1a7
100
AcDbEntity
  8
Layer_1
 62
5
100
AcDbLine
 10
872.568792
 20
900.291234
 30
0.0
 11
873.196356
 21
899.663670
 31
0.0
  0
LINE
  5
1a8
100
AcDbEntity
  8
Layer_1
 62
5
100
AcDbLine
 10
1004.357281
 20
565.171933
 30
0.0
 11
949.759193
 21
496.139867
 31
0.0
  0
LINE
  5
1a9
100
AcDbEntity
  8
Layer_1
 62
5
100
AcDbLine
 10
949.759193
 20
496.139867
 30
0.0
 11
929.677138
 21
755.951460
 31
0.0
  0
LINE
  5
1aa
100
AcDbEntity
  8
Layer_1
 62
5
100
AcDbLine
 10
929.677138
 20
755.951460
 30
0.0
 11
1004.984846
 21
565.799497
 31
0.0
  0
LINE
  5
1ab
100
AcDbEntity
  8
Layer_1
 62
5
100
AcDbLine
 10
1004.984846
 20
565.799497
 30
0.0
 11
1004.357281
 21
565.171933
 31
0.0
  0
LINE
  5
1ac
100
AcDbEntity
  8
Layer_1
 62
5
100
AcDbLine
 10
780.316850
 20
284.023155
 30
0.0
 11
693.085421
 21
296.574440
 31
0.0
  0
LINE
  5
1ad
100
AcDbEntity
  8
Layer_1
 62
5
100
AcDbLine
 10
693.085421
 20
296.574440
 30
0.0
 11
908.339954
 21
444.052035
 31
0.0
  0
LINE
  5
1ae
100
AcDbEntity
  8
Layer_1
 62
5
100
AcDbLine
 10
908.339954
 20
444.052035
 30
0.0
 11
780.944414
 21
284.023155
 31
0.0
  0
LINE
  5
1af
100
AcDbEntity
  8
Layer_1
 62
5
100
AcDbLine
 10
780.944414
 20
284.023155
 30
0.0
 11
780.316850
 21
284.023155
 31
0.0
  0
LINE
  5
1b0
100
AcDbEntity
  8
Layer_1
 62
5
100
AcDbLine
 10
424.487929
 20
337.366115
 30
0.0
 11
392.482153
 21
419.577030
 31
0.0
  0
LINE
  5
1b1
100
AcDbEntity
  8
Layer_1
 62
5
100
AcDbLine
 10
392.482153
 20
419.577030
 30
0.0
 11
627.818741
 21
306.615468
 31
0.0
  0
LINE
  5
1b2
100
AcDbEntity
  8
Layer_1
 62
5
100
AcDbLine
 10
627.818741
 20
306.615468
 30
0.0
 11
425.115493
 21
336.738551
 31
0.0
  0
LINE
  5
1b3
100
AcDbEntity
  8
Layer_1
 62
5
100
AcDbLine
 10
425.115493
 20
336.738551
 30
0.0
 11
424.487929
 21
337.366115
 31
0.0
  0
LINE
  5
1b4
100
AcDbEntity
  8
Layer_1
 62
5
100
AcDbLine
 10
362.986634
 20
759.716845
 30
0.0
 11
425.115493
 21
802.391213
 31
0.0
  0
LINE
  5
1b5
100
AcDbEntity
  8
Layer_1
 62
5
100
AcDbLine
 10
425.115493
 20
802.391213
 30
0.0
 11
373.027661
 21
573.330268
 31
0.0
  0
LINE
  5
1b6
100
AcDbEntity
  8
Layer_1
 62
5
100
AcDbLine
 10
373.027661
 20
573.330268
 30
0.0
 11
359.221248
 21
755.323896
 31
0.0
  0
LINE
  5
1b7
100
AcDbEntity
  8
Layer_1
 62
5
100
AcDbLine
 10
359.221248
 20
755.323896
 30
0.0
 11
362.986634
 21
759.716845
 31
0.0
  0
LINE
  5
1b8
100
AcDbEntity
  8
Layer_1
 62
5
100
AcDbLine
 10
628.446305
 20
936.689959
 30
0.0
 11
696.223242
 21
904.056619
 31
0.0
  0
LINE
  5
1b9
100
AcDbEntity
  8
Layer_1
 62
5
100
AcDbLine
 10
696.223242
 20
904.056619
 30
0.0
 11
472.182810
 21
834.396989
 31
0.0
  0
LINE
  5
1ba
100
AcDbEntity
  8
Layer_1
 62
5
100
AcDbLine
 10
472.182810
 20
834.396989
 30
0.0
 11
622.798227
 21
937.317524
 31
0.0
  0
LINE
  5
1bb
100
AcDbEntity
  8
Layer_1
 62
5
100
AcDbLine
 10
622.798227
 20
937.317524
 30
0.0
 11
628.446305
 21
936.689959
 31
0.0
  0
LINE
  5
1bc
100
AcDbEntity
  8
Layer_1
 62
5
100
AcDbLine
 10
913.988032
 20
795.488007
 30
0.0
 11
919.636110
 21
720.180298
 31
0.0
  0
LINE
  5
1bd
100
AcDbEntity
  8
Layer_1
 62
5
100
AcDbLine
 10
919.636110
 20
720.180298
 30
0.0
 11
747.055945
 21
879.581614
 31
0.0
  0
LINE
  5
1be
100
AcDbEntity
  8
Layer_1
 62
5
100
AcDbLine
 10
747.055945
 20
879.581614
 30
0.0
 11
912.105339
 21
801.136085
 31
0.0
  0
LINE
  5
1bf
100
AcDbEntity
  8
Layer_1
 62
5
100
AcDbLine
 10
912.105339
 20
801.136085
 30
0.0
 11
913.988032
 21
795.488007
 31
0.0
  0
LINE
  5
1c0
100
AcDbEntity
  8
Layer_1
 62
5
100
AcDbLine
 10
934.697651
 20
477.312940
 30
0.0
 11
872.568792
 21
434.638572
 31
0.0
  0
LINE
  5
1c1
100
AcDbEntity
  8
Layer_1
 62
5
100
AcDbLine
 10
872.568792
 20
434.638572
 30
0.0
 11
924.029059
 21
663.699517
 31
0.0
  0
LINE
  5
1c2
100
AcDbEntity
  8
Layer_1
 62
5
100
AcDbLine
 10
924.029059
 20
663.699517
 30
0.0
 11
938.463037
 21
481.705889
 31
0.0
  0
LINE
  5
1c3
100
AcDbEntity
  8
Layer_1
 62
5
100
AcDbLine
 10
938.463037
 20
481.705889
 30
0.0
 11
934.697651
 21
477.312940
 31
0.0
  0
LINE
  5
1c4
100
AcDbEntity
  8
Layer_1
 62
5
100
AcDbLine
 10
669.237980
 20
300.339825
 30
0.0
 11
601.461043
 21
332.973166
 31
0.0
  0
LINE
  5
1c5
100
AcDbEntity
  8
Layer_1
 62
5
100
AcDbLine
 10
601.461043
 20
332.973166
 30
0.0
 11
825.501475
 21
402.632796
 31
0.0
  0
LINE
  5
1c6
100
AcDbEntity
  8
Layer_1
 62
5
100
AcDbLine
 10
825.501475
 20
402.632796
 30
0.0
 11
674.886058
 21
299.712261
 31
0.0
  0
LINE
  5
1c7
100
AcDbEntity
  8
Layer_1
 62
5
100
AcDbLine
 10
674.886058
 20
299.712261
 30
0.0
 11
669.237980
 21
300.339825
 31
0.0
  0
LINE
  5
1c8
100
AcDbEntity
  8
Layer_1
 62
5
100
AcDbLine
 10
871.313664
 20
568.309754
 30
0.0
 11
832.404681
 21
737.124533
 31
0.0
  0
LINE
  5
1c9
100
AcDbEntity
  8
Layer_1
 62
5
100
AcDbLine
 10
832.404681
 20
737.124533
 30
0.0
 11
900.809183
 21
619.142457
 31
0.0
  0
LINE
  5
1ca
100
AcDbEntity
  8
Layer_1
 62
5
100
AcDbLine
 10
900.809183
 20
619.142457
 30
0.0
 11
871.313664
 21
568.309754
 31
0.0
  0
LINE
  5
1cb
100
AcDbEntity
  8
Layer_1
 62
5
100
AcDbLine
 10
822.991218
 20
662.444389
 30
0.0
 11
745.173253
 21
759.716845
 31
0.0
  0
LINE
  5
1cc
100
AcDbEntity
  8
Layer_1
 62
5
100
AcDbLine
 10
745.173253
 20
759.716845
 30
0.0
 11
826.129039
 21
704.491193
 31
0.0
  0
LINE
  5
1cd
100
AcDbEntity
  8
Layer_1
 62
5
100
AcDbLine
 10
826.129039
 20
704.491193
 30
0.0
 11
822.991218
 21
662.444389
 31
0.0
  0
LINE
  5
1ce
100
AcDbEntity
  8
Layer_1
 62
5
100
AcDbLine
 10
771.530950
 20
560.151419
 30
0.0
 11
752.076459
 21
546.345005
 31
0.0
  0
LINE
  5
1cf
100
AcDbEntity
  8
Layer_1
 62
5
100
AcDbLine
 10
752.076459
 20
546.345005
 30
0.0
 11
767.138001
 21
615.377071
 31
0.0
  0
LINE
  5
1d0
100
AcDbEntity
  8
Layer_1
 62
5
100
AcDbLine
 10
767.138001
 20
615.377071
 30
0.0
 11
771.530950
 21
560.151419
 31
0.0
  0
LINE
  5
1d1
100
AcDbEntity
  8
Layer_1
 62
5
100
AcDbLine
 10
525.525770
 20
676.878366
 30
0.0
 11
545.607826
 21
690.684779
 31
0.0
  0
LINE
  5
1d2
100
AcDbEntity
  8
Layer_1
 62
5
100
AcDbLine
 10
545.607826
 20
690.684779
 30
0.0
 11
529.918720
 21
621.652714
 31
0.0
  0
LINE
  5
1d3
100
AcDbEntity
  8
Layer_1
 62
5
100
AcDbLine
 10
529.918720
 20
621.652714
 30
0.0
 11
525.525770
 21
676.878366
 31
0.0
  0
LINE
  5
1d4
100
AcDbEntity
  8
Layer_1
 62
5
100
AcDbLine
 10
630.328998
 20
627.300792
 30
0.0
 11
647.273232
 21
638.596948
 31
0.0
  0
LINE
  5
1d5
100
AcDbEntity
  8
Layer_1
 62
5
100
AcDbLine
 10
647.273232
 20
638.596948
 30
0.0
 11
665.472595
 21
629.811049
 31
0.0
  0
LINE
  5
1d6
100
AcDbEntity
  8
Layer_1
 62
5
100
AcDbLine
 10
665.472595
 20
629.811049
 30
0.0
 11
667.355287
 21
609.728993
 31
0.0
  0
LINE
  5
1d7
100
AcDbEntity
  8
Layer_1
 62
5
100
AcDbLine
 10
667.355287
 20
609.728993
 30
0.0
 11
650.411053
 21
598.432837
 31
0.0
  0
LINE
  5
1d8
100
AcDbEntity
  8
Layer_1
 62
5
100
AcDbLine
 10
650.411053
 20
598.432837
 30
0.0
 11
632.211690
 21
607.218736
 31
0.0
  0
LINE
  5
1d9
100
AcDbEntity
  8
Layer_1
 62
5
100
AcDbLine
 10
632.211690
 20
607.218736
 30
0.0
 11
630.328998
 21
627.300792
 31
0.0
  0
LINE
  5
1da
100
AcDbEntity
  8
Layer_1
 62
5
100
AcDbLine
 10
683.671958
 20
668.720031
 30
0.0
 11
688.064907
 21
668.092467
 31
0.0
  0
LINE
  5
1db
100
AcDbEntity
  8
Layer_1
 62
5
100
AcDbLine
 10
688.064907
 20
668.092467
 30
0.0
 11
688.692471
 21
666.209774
 31
0.0
  0
LINE
  5
1dc
100
AcDbEntity
  8
Layer_1
 62
5
100
AcDbLine
 10
688.692471
 20
666.209774
 30
0.0
 11
683.671958
 21
668.720031
 31
0.0
  0
LINE
  5
1dd
100
AcDbEntity
  8
Layer_1
 62
5
100
AcDbLine
 10
614.012327
 20
568.309754
 30
0.0
 11
609.619378
 21
568.937318
 31
0.0
  0
LINE
  5
1de
100
AcDbEntity
  8
Layer_1
 62
5
100
AcDbLine
 10
609.619378
 20
568.937318
 30
0.0
 11
608.991814
 21
570.820011
 31
0.0
  0
LINE
  5
1df
100
AcDbEntity
  8
Layer_1
 62
5
100
AcDbLine
 10
608.991814
 20
570.820011
 30
0.0
 11
614.012327
 21
568.309754
 31
0.0
  0
LINE
  5
1e0
100
AcDbEntity
  8
Layer_1
 62
5
100
AcDbLine
 10
670.493109
 20
560.151419
 30
0.0
 11
674.886058
 21
563.289240
 31
0.0
  0
LINE
  5
1e1
100
AcDbEntity
  8
Layer_1
 62
5
100
AcDbLine
 10
674.886058
 20
563.289240
 30
0.0
 11
672.375801
 21
559.523854
 31
0.0
  0
LINE
  5
1e2
100
AcDbEntity
  8
Layer_1
 62
5
100
AcDbLine
 10
672.375801
 20
559.523854
 30
0.0
 11
670.493109
 21
560.151419
 31
0.0
  0
LINE
  5
1e3
100
AcDbEntity
  8
Layer_1
 62
5
100
AcDbLine
 10
710.029655
 20
607.846300
 30
0.0
 11
710.029655
 21
613.494379
 31
0.0
  0
LINE
  5
1e4
100
AcDbEntity
  8
Layer_1
 62
5
100
AcDbLine
 10
710.029655
 20
613.494379
 30
0.0
 11
711.284784
 21
609.728993
 31
0.0
  0
LINE
  5
1e5
100
AcDbEntity
  8
Layer_1
 62
5
100
AcDbLine
 10
711.284784
 20
609.728993
 30
0.0
 11
710.029655
 21
607.846300
 31
0.0
  0
LINE
  5
1e6
100
AcDbEntity
  8
Layer_1
 62
5
100
AcDbLine
 10
664.217466
 20
684.409137
 30
0.0
 11
674.886058
 21
685.664266
 31
0.0
  0
LINE
  5
1e7
100
AcDbEntity
  8
Layer_1
 62
5
100
AcDbLine
 10
674.886058
 20
685.664266
 30
0.0
 11
677.396315
 21
682.526444
 31
0.0
  0
LINE
  5
1e8
100
AcDbEntity
  8
Layer_1
 62
5
100
AcDbLine
 10
677.396315
 20
682.526444
 30
0.0
 11
664.217466
 21
684.409137
 31
0.0
  0
LINE
  5
1e9
100
AcDbEntity
  8
Layer_1
 62
5
100
AcDbLine
 10
627.191176
 20
676.878366
 30
0.0
 11
622.170663
 21
673.740545
 31
0.0
  0
LINE
  5
1ea
100
AcDbEntity
  8
Layer_1
 62
5
100
AcDbLine
 10
622.170663
 20
673.740545
 30
0.0
 11
625.308484
 21
677.505931
 31
0.0
  0
LINE
  5
1eb
100
AcDbEntity
  8
Layer_1
 62
5
100
AcDbLine
 10
625.308484
 20
677.505931
 30
0.0
 11
627.191176
 21
676.878366
 31
0.0
  0
LINE
  5
1ec
100
AcDbEntity
  8
Layer_1
 62
5
100
AcDbLine
 10
587.027065
 20
629.183484
 30
0.0
 11
587.654630
 21
623.535406
 31
0.0
  0
LINE
  5
1ed
100
AcDbEntity
  8
Layer_1
 62
5
100
AcDbLine
 10
587.654630
 20
623.535406
 30
0.0
 11
586.399501
 21
627.300792
 31
0.0
  0
LINE
  5
1ee
100
AcDbEntity
  8
Layer_1
 62
5
100
AcDbLine
 10
586.399501
 20
627.300792
 30
0.0
 11
587.027065
 21
629.183484
 31
0.0
  0
LINE
  5
1ef
100
AcDbEntity
  8
Layer_1
 62
5
100
AcDbLine
 10
633.466819
 20
552.620648
 30
0.0
 11
622.798227
 21
551.365519
 31
0.0
  0
LINE
  5
1f0
100
AcDbEntity
  8
Layer_1
 62
5
100
AcDbLine
 10
622.798227
 20
551.365519
 30
0.0
 11
619.660406
 21
554.503341
 31
0.0
  0
LINE
  5
1f1
100
AcDbEntity
  8
Layer_1
 62
5
100
AcDbLine
 10
619.660406
 20
554.503341
 30
0.0
 11
633.466819
 21
552.620648
 31
0.0
  0
LINE
  5
1f2
100
AcDbEntity
  8
Layer_1
 62
5
100
AcDbLine
 10
689.320036
 20
561.406547
 30
0.0
 11
698.105935
 21
572.702703
 31
0.0
  0
LINE
  5
1f3
100
AcDbEntity
  8
Layer_1
 62
5
100
AcDbLine
 10
698.105935
 20
572.702703
 30
0.0
 11
694.340550
 21
562.661676
 31
0.0
  0
LINE
  5
1f4
100
AcDbEntity
  8
Layer_1
 62
5
100
AcDbLine
 10
694.340550
 20
562.661676
 30
0.0
 11
689.320036
 21
561.406547
 31
0.0
  0
LINE
  5
1f5
100
AcDbEntity
  8
Layer_1
 62
5
100
AcDbLine
 10
718.187990
 20
625.418099
 30
0.0
 11
713.167477
 21
637.969384
 31
0.0
  0
LINE
  5
1f6
100
AcDbEntity
  8
Layer_1
 62
5
100
AcDbLine
 10
713.167477
 20
637.969384
 30
0.0
 11
720.070683
 21
629.811049
 31
0.0
  0
LINE
  5
1f7
100
AcDbEntity
  8
Layer_1
 62
5
100
AcDbLine
 10
720.070683
 20
629.811049
 30
0.0
 11
718.187990
 21
625.418099
 31
0.0
  0
LINE
  5
1f8
100
AcDbEntity
  8
Layer_1
 62
5
100
AcDbLine
 10
638.487333
 20
692.567472
 30
0.0
 11
654.176438
 21
700.725807
 31
0.0
  0
LINE
  5
1f9
100
AcDbEntity
  8
Layer_1
 62
5
100
AcDbLine
 10
654.176438
 20
700.725807
 30
0.0
 11
660.452081
 21
696.332858
 31
0.0
  0
LINE
  5
1fa
100
AcDbEntity
  8
Layer_1
 62
5
100
AcDbLine
 10
660.452081
 20
696.332858
 30
0.0
 11
638.487333
 21
692.567472
 31
0.0
  0
LINE
  5
1fb
100
AcDbEntity
  8
Layer_1
 62
5
100
AcDbLine
 10
607.736685
 20
675.623238
 30
0.0
 11
599.578350
 21
664.954646
 31
0.0
  0
LINE
  5
1fc
100
AcDbEntity
  8
Layer_1
 62
5
100
AcDbLine
 10
599.578350
 20
664.954646
 30
0.0
 11
603.343735
 21
674.995674
 31
0.0
  0
LINE
  5
1fd
100
AcDbEntity
  8
Layer_1
 62
5
100
AcDbLine
 10
603.343735
 20
674.995674
 30
0.0
 11
607.736685
 21
675.623238
 31
0.0
  0
LINE
  5
1fe
100
AcDbEntity
  8
Layer_1
 62
5
100
AcDbLine
 10
578.868730
 20
611.611686
 30
0.0
 11
584.516808
 21
599.060401
 31
0.0
  0
LINE
  5
1ff
100
AcDbEntity
  8
Layer_1
 62
5
100
AcDbLine
 10
584.516808
 20
599.060401
 30
0.0
 11
577.613602
 21
607.218736
 31
0.0
  0
LINE
  5
200
100
AcDbEntity
  8
Layer_1
 62
5
100
AcDbLine
 10
577.613602
 20
607.218736
 30
0.0
 11
578.868730
 21
611.611686
 31
0.0
  0
LINE
  5
201
100
AcDbEntity
  8
Layer_1
 62
5
100
AcDbLine
 10
659.196952
 20
544.462313
 30
0.0
 11
642.880282
 21
536.303978
 31
0.0
  0
LINE
  5
202
100
AcDbEntity
  8
Layer_1
 62
5
100
AcDbLine
 10
642.880282
 20
536.303978
 30
0.0
 11
636.604640
 21
540.696927
 31
0.0
  0
LINE
  5
203
100
AcDbEntity
  8
Layer_1
 62
5
100
AcDbLine
 10
636.604640
 20
540.696927
 30
0.0
 11
659.196952
 21
544.462313
 31
0.0
  0
LINE
  5
204
100
AcDbEntity
  8
Layer_1
 62
5
100
AcDbLine
 10
710.029655
 20
569.564882
 30
0.0
 11
718.187990
 21
590.274502
 31
0.0
  0
LINE
  5
205
100
AcDbEntity
  8
Layer_1
 62
5
100
AcDbLine
 10
718.187990
 20
590.274502
 30
0.0
 11
716.932862
 21
572.702703
 31
0.0
  0
LINE
  5
206
100
AcDbEntity
  8
Layer_1
 62
5
100
AcDbLine
 10
716.932862
 20
572.702703
 30
0.0
 11
710.029655
 21
569.564882
 31
0.0
  0
LINE
  5
207
100
AcDbEntity
  8
Layer_1
 62
5
100
AcDbLine
 10
721.953376
 20
646.755283
 30
0.0
 11
708.146963
 21
664.327082
 31
0.0
  0
LINE
  5
208
100
AcDbEntity
  8
Layer_1
 62
5
100
AcDbLine
 10
708.146963
 20
664.327082
 30
0.0
 11
722.580940
 21
654.913618
 31
0.0
  0
LINE
  5
209
100
AcDbEntity
  8
Layer_1
 62
5
100
AcDbLine
 10
722.580940
 20
654.913618
 30
0.0
 11
721.953376
 21
646.755283
 31
0.0
  0
LINE
  5
20a
100
AcDbEntity
  8
Layer_1
 62
5
100
AcDbLine
 10
608.991814
 20
691.939908
 30
0.0
 11
627.191176
 21
709.511706
 31
0.0
  0
LINE
  5
20b
100
AcDbEntity
  8
Layer_1
 62
5
100
AcDbLine
 10
627.191176
 20
709.511706
 30
0.0
 11
637.859768
 21
706.373885
 31
0.0
  0
LINE
  5
20c
100
AcDbEntity
  8
Layer_1
 62
5
100
AcDbLine
 10
637.859768
 20
706.373885
 30
0.0
 11
608.991814
 21
691.939908
 31
0.0
  0
LINE
  5
20d
100
AcDbEntity
  8
Layer_1
 62
5
100
AcDbLine
 10
587.654630
 20
667.464903
 30
0.0
 11
579.496295
 21
646.755283
 31
0.0
  0
LINE
  5
20e
100
AcDbEntity
  8
Layer_1
 62
5
100
AcDbLine
 10
579.496295
 20
646.755283
 30
0.0
 11
580.751423
 21
664.327082
 31
0.0
  0
LINE
  5
20f
100
AcDbEntity
  8
Layer_1
 62
5
100
AcDbLine
 10
580.751423
 20
664.327082
 30
0.0
 11
587.654630
 21
667.464903
 31
0.0
  0
LINE
  5
210
100
AcDbEntity
  8
Layer_1
 62
5
100
AcDbLine
 10
575.730909
 20
590.274502
 30
0.0
 11
589.537322
 21
572.702703
 31
0.0
  0
LINE
  5
211
100
AcDbEntity
  8
Layer_1
 62
5
100
AcDbLine
 10
589.537322
 20
572.702703
 30
0.0
 11
575.103345
 21
582.743731
 31
0.0
  0
LINE
  5
212
100
AcDbEntity
  8
Layer_1
 62
5
100
AcDbLine
 10
575.103345
 20
582.743731
 30
0.0
 11
575.730909
 21
590.274502
 31
0.0
  0
LINE
  5
213
100
AcDbEntity
  8
Layer_1
 62
5
100
AcDbLine
 10
688.692471
 20
545.089877
 30
0.0
 11
669.865544
 21
527.518078
 31
0.0
  0
LINE
  5
214
100
AcDbEntity
  8
Layer_1
 62
5
100
AcDbLine
 10
669.865544
 20
527.518078
 30
0.0
 11
659.196952
 21
530.655900
 31
0.0
  0
LINE
  5
215
100
AcDbEntity
  8
Layer_1
 62
5
100
AcDbLine
 10
659.196952
 20
530.655900
 30
0.0
 11
688.692471
 21
545.089877
 31
0.0
  0
LINE
  5
216
100
AcDbEntity
  8
Layer_1
 62
5
100
AcDbLine
 10
730.111711
 20
583.998860
 30
0.0
 11
731.994404
 21
616.632200
 31
0.0
  0
LINE
  5
217
100
AcDbEntity
  8
Layer_1
 62
5
100
AcDbLine
 10
731.994404
 20
616.632200
 30
0.0
 11
738.270046
 21
591.529630
 31
0.0
  0
LINE
  5
218
100
AcDbEntity
  8
Layer_1
 62
5
100
AcDbLine
 10
738.270046
 20
591.529630
 30
0.0
 11
730.111711
 21
583.998860
 31
0.0
  0
LINE
  5
219
100
AcDbEntity
  8
Layer_1
 62
5
100
AcDbLine
 10
719.443119
 20
671.857852
 30
0.0
 11
692.457857
 21
690.057215
 31
0.0
  0
LINE
  5
21a
100
AcDbEntity
  8
Layer_1
 62
5
100
AcDbLine
 10
692.457857
 20
690.057215
 30
0.0
 11
716.932862
 21
682.526444
 31
0.0
  0
LINE
  5
21b
100
AcDbEntity
  8
Layer_1
 62
5
100
AcDbLine
 10
716.932862
 20
682.526444
 30
0.0
 11
719.443119
 21
671.857852
 31
0.0
  0
LINE
  5
21c
100
AcDbEntity
  8
Layer_1
 62
5
100
AcDbLine
 10
578.241166
 20
680.016187
 30
0.0
 11
595.185400
 21
710.139271
 31
0.0
  0
LINE
  5
21d
100
AcDbEntity
  8
Layer_1
 62
5
100
AcDbLine
 10
595.185400
 20
710.139271
 30
0.0
 11
610.246942
 21
710.139271
 31
0.0
  0
LINE
  5
21e
100
AcDbEntity
  8
Layer_1
 62
5
100
AcDbLine
 10
610.246942
 20
710.139271
 30
0.0
 11
578.241166
 21
680.016187
 31
0.0
  0
LINE
  5
21f
100
AcDbEntity
  8
Layer_1
 62
5
100
AcDbLine
 10
567.572574
 20
653.030925
 30
0.0
 11
565.062317
 21
620.397585
 31
0.0
  0
LINE
  5
220
100
AcDbEntity
  8
Layer_1
 62
5
100
AcDbLine
 10
565.062317
 20
620.397585
 30
0.0
 11
559.414239
 21
645.500155
 31
0.0
  0
LINE
  5
221
100
AcDbEntity
  8
Layer_1
 62
5
100
AcDbLine
 10
559.414239
 20
645.500155
 30
0.0
 11
567.572574
 21
653.030925
 31
0.0
  0
LINE
  5
222
100
AcDbEntity
  8
Layer_1
 62
5
100
AcDbLine
 10
578.241166
 20
565.171933
 30
0.0
 11
605.226428
 21
546.972570
 31
0.0
  0
LINE
  5
223
100
AcDbEntity
  8
Layer_1
 62
5
100
AcDbLine
 10
605.226428
 20
546.972570
 30
0.0
 11
580.751423
 21
554.503341
 31
0.0
  0
LINE
  5
224
100
AcDbEntity
  8
Layer_1
 62
5
100
AcDbLine
 10
580.751423
 20
554.503341
 30
0.0
 11
578.241166
 21
565.171933
 31
0.0
  0
LINE
  5
225
100
AcDbEntity
  8
Layer_1
 62
5
100
AcDbLine
 10
719.443119
 20
557.013597
 30
0.0
 11
702.498885
 21
526.890514
 31
0.0
  0
LINE
  5
226
100
AcDbEntity
  8
Layer_1
 62
5
100
AcDbLine
 10
702.498885
 20
526.890514
 30
0.0
 11
687.437343
 21
526.890514
 31
0.0
  0
LINE
  5
227
100
AcDbEntity
  8
Layer_1
 62
5
100
AcDbLine
 10
687.437343
 20
526.890514
 30
0.0
 11
719.443119
 21
557.013597
 31
0.0
  0
LINE
  5
228
100
AcDbEntity
  8
Layer_1
 62
5
100
AcDbLine
 10
747.683509
 20
605.963608
 30
0.0
 11
737.642482
 21
648.637976
 31
0.0
  0
LINE
  5
229
100
AcDbEntity
  8
Layer_1
 62
5
100
AcDbLine
 10
737.642482
 20
648.637976
 30
0.0
 11
754.586716
 21
619.142457
 31
0.0
  0
LINE
  5
22a
100
AcDbEntity
  8
Layer_1
 62
5
100
AcDbLine
 10
754.586716
 20
619.142457
 30
0.0
 11
747.683509
 21
605.963608
 31
0.0
  0
LINE
  5
22b
100
AcDbEntity
  8
Layer_1
 62
5
100
AcDbLine
 10
708.774527
 20
697.587986
 30
0.0
 11
666.727723
 21
710.139271
 31
0.0
  0
LINE
  5
22c
100
AcDbEntity
  8
Layer_1
 62
5
100
AcDbLine
 10
666.727723
 20
710.139271
 30
0.0
 11
701.243756
 21
710.766835
 31
0.0
  0
LINE
  5
22d
100
AcDbEntity
  8
Layer_1
 62
5
100
AcDbLine
 10
701.243756
 20
710.766835
 30
0.0
 11
708.774527
 21
697.587986
 31
0.0
  0
LINE
  5
22e
100
AcDbEntity
  8
Layer_1
 62
5
100
AcDbLine
 10
550.628340
 20
656.796311
 30
0.0
 11
560.041803
 21
700.098243
 31
0.0
  0
LINE
  5
22f
100
AcDbEntity
  8
Layer_1
 62
5
100
AcDbLine
 10
560.041803
 20
700.098243
 30
0.0
 11
578.241166
 21
705.746321
 31
0.0
  0
LINE
  5
230
100
AcDbEntity
  8
Layer_1
 62
5
100
AcDbLine
 10
578.241166
 20
705.746321
 30
0.0
 11
550.628340
 21
656.796311
 31
0.0
  0
LINE
  5
231
100
AcDbEntity
  8
Layer_1
 62
5
100
AcDbLine
 10
550.000776
 20
631.066177
 30
0.0
 11
560.041803
 21
588.391809
 31
0.0
  0
LINE
  5
232
100
AcDbEntity
  8
Layer_1
 62
5
100
AcDbLine
 10
560.041803
 20
588.391809
 30
0.0
 11
542.470005
 21
617.887328
 31
0.0
  0
LINE
  5
233
100
AcDbEntity
  8
Layer_1
 62
5
100
AcDbLine
 10
542.470005
 20
617.887328
 30
0.0
 11
550.000776
 21
631.066177
 31
0.0
  0
LINE
  5
234
100
AcDbEntity
  8
Layer_1
 62
5
100
AcDbLine
 10
588.909758
 20
539.441799
 30
0.0
 11
630.328998
 21
526.890514
 31
0.0
  0
LINE
  5
235
100
AcDbEntity
  8
Layer_1
 62
5
100
AcDbLine
 10
630.328998
 20
526.890514
 30
0.0
 11
596.440529
 21
526.262950
 31
0.0
  0
LINE
  5
236
100
AcDbEntity
  8
Layer_1
 62
5
100
AcDbLine
 10
596.440529
 20
526.262950
 30
0.0
 11
588.909758
 21
539.441799
 31
0.0
  0
LINE
  5
237
100
AcDbEntity
  8
Layer_1
 62
5
100
AcDbLine
 10
747.055945
 20
580.233474
 30
0.0
 11
737.014917
 21
536.931542
 31
0.0
  0
LINE
  5
238
100
AcDbEntity
  8
Layer_1
 62
5
100
AcDbLine
 10
737.014917
 20
536.931542
 30
0.0
 11
718.815555
 21
531.283464
 31
0.0
  0
LINE
  5
239
100
AcDbEntity
  8
Layer_1
 62
5
100
AcDbLine
 10
718.815555
 20
531.283464
 30
0.0
 11
747.055945
 21
580.233474
 31
0.0
  0
LINE
  5
23a
100
AcDbEntity
  8
Layer_1
 62
5
100
AcDbLine
 10
759.607230
 20
636.086691
 30
0.0
 11
730.739275
 21
684.409137
 31
0.0
  0
LINE
  5
23b
100
AcDbEntity
  8
Layer_1
 62
5
100
AcDbLine
 10
730.739275
 20
684.409137
 30
0.0
 11
763.372615
 21
654.286054
 31
0.0
  0
LINE
  5
23c
100
AcDbEntity
  8
Layer_1
 62
5
100
AcDbLine
 10
763.372615
 20
654.286054
 30
0.0
 11
759.607230
 21
636.086691
 31
0.0
  0
LINE
  5
23d
100
AcDbEntity
  8
Layer_1
 62
5
100
AcDbLine
 10
689.320036
 20
722.690555
 30
0.0
 11
632.839255
 21
722.690555
 31
0.0
  0
LINE
  5
23e
100
AcDbEntity
  8
Layer_1
 62
5
100
AcDbLine
 10
632.839255
 20
722.690555
 30
0.0
 11
674.886058
 21
735.869404
 31
0.0
  0
LINE
  5
23f
100
AcDbEntity
  8
Layer_1
 62
5
100
AcDbLine
 10
674.886058
 20
735.869404
 30
0.0
 11
689.320036
 21
722.690555
 31
0.0
  0
LINE
  5
240
100
AcDbEntity
  8
Layer_1
 62
5
100
AcDbLine
 10
538.077055
 20
601.570658
 30
0.0
 11
566.317446
 21
552.620648
 31
0.0
  0
LINE
  5
241
100
AcDbEntity
  8
Layer_1
 62
5
100
AcDbLine
 10
566.317446
 20
552.620648
 30
0.0
 11
534.311670
 21
582.743731
 31
0.0
  0
LINE
  5
242
100
AcDbEntity
  8
Layer_1
 62
5
100
AcDbLine
 10
534.311670
 20
582.743731
 30
0.0
 11
538.077055
 21
601.570658
 31
0.0
  0
LINE
  5
243
100
AcDbEntity
  8
Layer_1
 62
5
100
AcDbLine
 10
608.364249
 20
514.339229
 30
0.0
 11
664.845030
 21
514.339229
 31
0.0
  0
LINE
  5
244
100
AcDbEntity
  8
Layer_1
 62
5
100
AcDbLine
 10
664.845030
 20
514.339229
 30
0.0
 11
622.798227
 21
501.160381
 31
0.0
  0
LINE
  5
245
100
AcDbEntity
  8
Layer_1
 62
5
100
AcDbLine
 10
622.798227
 20
501.160381
 30
0.0
 11
608.364249
 21
514.339229
 31
0.0
  0
LINE
  5
246
100
AcDbEntity
  8
Layer_1
 62
5
100
AcDbLine
 10
710.657220
 20
719.552734
 30
0.0
 11
760.862358
 21
695.705293
 31
0.0
  0
LINE
  5
247
100
AcDbEntity
  8
Layer_1
 62
5
100
AcDbLine
 10
760.862358
 20
695.705293
 30
0.0
 11
762.745051
 21
671.857852
 31
0.0
  0
LINE
  5
248
100
AcDbEntity
  8
Layer_1
 62
5
100
AcDbLine
 10
762.745051
 20
671.857852
 30
0.0
 11
710.657220
 21
719.552734
 31
0.0
  0
LINE
  5
249
100
AcDbEntity
  8
Layer_1
 62
5
100
AcDbLine
 10
659.824517
 20
744.027739
 30
0.0
 11
592.047579
 21
722.690555
 31
0.0
  0
LINE
  5
24a
100
AcDbEntity
  8
Layer_1
 62
5
100
AcDbLine
 10
592.047579
 20
722.690555
 30
0.0
 11
637.859768
 21
754.068767
 31
0.0
  0
LINE
  5
24b
100
AcDbEntity
  8
Layer_1
 62
5
100
AcDbLine
 10
637.859768
 20
754.068767
 30
0.0
 11
659.824517
 21
744.027739
 31
0.0
  0
LINE
  5
24c
100
AcDbEntity
  8
Layer_1
 62
5
100
AcDbLine
 10
534.311670
 20
565.171933
 30
0.0
 11
586.399501
 21
517.477051
 31
0.0
  0
LINE
  5
24d
100
AcDbEntity
  8
Layer_1
 62
5
100
AcDbLine
 10
586.399501
 20
517.477051
 30
0.0
 11
536.821927
 21
541.324492
 31
0.0
  0
LINE
  5
24e
100
AcDbEntity
  8
Layer_1
 62
5
100
AcDbLine
 10
536.821927
 20
541.324492
 30
0.0
 11
534.311670
 21
565.171933
 31
0.0
  0
LINE
  5
24f
100
AcDbEntity
  8
Layer_1
 62
5
100
AcDbLine
 10
637.859768
 20
493.002046
 30
0.0
 11
705.009141
 21
514.339229
 31
0.0
  0
LINE
  5
250
100
AcDbEntity
  8
Layer_1
 62
5
100
AcDbLine
 10
705.009141
 20
514.339229
 30
0.0
 11
659.824517
 21
482.961018
 31
0.0
  0
LINE
  5
251
100
AcDbEntity
  8
Layer_1
 62
5
100
AcDbLine
 10
659.824517
 20
482.961018
 30
0.0
 11
637.859768
 21
493.002046
 31
0.0
  0
LINE
  5
252
100
AcDbEntity
  8
Layer_1
 62
5
100
AcDbLine
 10
677.396315
 20
749.048253
 30
0.0
 11
744.545688
 21
739.634790
 31
0.0
  0
LINE
  5
253
100
AcDbEntity
  8
Layer_1
 62
5
100
AcDbLine
 10
744.545688
 20
739.634790
 30
0.0
 11
755.214280
 21
712.021963
 31
0.0
  0
LINE
  5
254
100
AcDbEntity
  8
Layer_1
 62
5
100
AcDbLine
 10
755.214280
 20
712.021963
 30
0.0
 11
677.396315
 21
749.048253
 31
0.0
  0
LINE
  5
255
100
AcDbEntity
  8
Layer_1
 62
5
100
AcDbLine
 10
549.373211
 20
708.256578
 30
0.0
 11
592.047579
 21
761.599538
 31
0.0
  0
LINE
  5
256
100
AcDbEntity
  8
Layer_1
 62
5
100
AcDbLine
 10
592.047579
 20
761.599538
 30
0.0
 11
620.915534
 21
757.834153
 31
0.0
  0
LINE
  5
257
100
AcDbEntity
  8
Layer_1
 62
5
100
AcDbLine
 10
620.915534
 20
757.834153
 30
0.0
 11
549.373211
 21
708.256578
 31
0.0
  0
LINE
  5
258
100
AcDbEntity
  8
Layer_1
 62
5
100
AcDbLine
 10
514.229614
 20
663.699517
 30
0.0
 11
521.132821
 21
577.723217
 31
0.0
  0
LINE
  5
259
100
AcDbEntity
  8
Layer_1
 62
5
100
AcDbLine
 10
521.132821
 20
577.723217
 30
0.0
 11
496.030251
 21
641.107205
 31
0.0
  0
LINE
  5
25a
100
AcDbEntity
  8
Layer_1
 62
5
100
AcDbLine
 10
496.030251
 20
641.107205
 30
0.0
 11
514.229614
 21
663.699517
 31
0.0
  0
LINE
  5
25b
100
AcDbEntity
  8
Layer_1
 62
5
100
AcDbLine
 10
542.470005
 20
525.007821
 30
0.0
 11
620.287970
 21
487.981532
 31
0.0
  0
LINE
  5
25c
100
AcDbEntity
  8
Layer_1
 62
5
100
AcDbLine
 10
620.287970
 20
487.981532
 30
0.0
 11
553.138597
 21
497.394995
 31
0.0
  0
LINE
  5
25d
100
AcDbEntity
  8
Layer_1
 62
5
100
AcDbLine
 10
553.138597
 20
497.394995
 30
0.0
 11
542.470005
 21
525.007821
 31
0.0
  0
LINE
  5
25e
100
AcDbEntity
  8
Layer_1
 62
5
100
AcDbLine
 10
747.683509
 20
528.773207
 30
0.0
 11
705.636706
 21
475.430247
 31
0.0
  0
LINE
  5
25f
100
AcDbEntity
  8
Layer_1
 62
5
100
AcDbLine
 10
705.636706
 20
475.430247
 30
0.0
 11
676.768751
 21
479.195632
 31
0.0
  0
LINE
  5
260
100
AcDbEntity
  8
Layer_1
 62
5
100
AcDbLine
 10
676.768751
 20
479.195632
 30
0.0
 11
747.683509
 21
528.773207
 31
0.0
  0
LINE
  5
261
100
AcDbEntity
  8
Layer_1
 62
5
100
AcDbLine
 10
782.827107
 20
573.330268
 30
0.0
 11
776.551464
 21
659.306568
 31
0.0
  0
LINE
  5
262
100
AcDbEntity
  8
Layer_1
 62
5
100
AcDbLine
 10
776.551464
 20
659.306568
 30
0.0
 11
801.654034
 21
595.922580
 31
0.0
  0
LINE
  5
263
100
AcDbEntity
  8
Layer_1
 62
5
100
AcDbLine
 10
801.654034
 20
595.922580
 30
0.0
 11
782.827107
 21
573.330268
 31
0.0
  0
LINE
  5
264
100
AcDbEntity
  8
Layer_1
 62
5
100
AcDbLine
 10
630.956562
 20
768.502745
 30
0.0
 11
711.912348
 21
781.054029
 31
0.0
  0
LINE
  5
265
100
AcDbEntity
  8
Layer_1
 62
5
100
AcDbLine
 10
711.912348
 20
781.054029
 30
0.0
 11
733.877096
 21
753.441203
 31
0.0
  0
LINE
  5
266
100
AcDbEntity
  8
Layer_1
 62
5
100
AcDbLine
 10
733.877096
 20
753.441203
 30
0.0
 11
630.956562
 21
768.502745
 31
0.0
  0
LINE
  5
267
100
AcDbEntity
  8
Layer_1
 62
5
100
AcDbLine
 10
509.836665
 20
678.133495
 30
0.0
 11
539.332184
 21
754.696331
 31
0.0
  0
LINE
  5
268
100
AcDbEntity
  8
Layer_1
 62
5
100
AcDbLine
 10
539.332184
 20
754.696331
 30
0.0
 11
574.475781
 21
759.716845
 31
0.0
  0
LINE
  5
269
100
AcDbEntity
  8
Layer_1
 62
5
100
AcDbLine
 10
574.475781
 20
759.716845
 30
0.0
 11
509.836665
 21
678.133495
 31
0.0
  0
LINE
  5
26a
100
AcDbEntity
  8
Layer_1
 62
5
100
AcDbLine
 10
489.127045
 20
624.790535
 30
0.0
 11
528.036027
 21
528.145643
 31
0.0
  0
LINE
  5
26b
100
AcDbEntity
  8
Layer_1
 62
5
100
AcDbLine
 10
528.036027
 20
528.145643
 30
0.0
 11
476.575760
 21
592.157195
 31
0.0
  0
LINE
  5
26c
100
AcDbEntity
  8
Layer_1
 62
5
100
AcDbLine
 10
476.575760
 20
592.157195
 30
0.0
 11
489.127045
 21
624.790535
 31
0.0
  0
LINE
  5
26d
100
AcDbEntity
  8
Layer_1
 62
5
100
AcDbLine
 10
666.727723
 20
468.527040
 30
0.0
 11
585.771937
 21
455.975756
 31
0.0
  0
LINE
  5
26e
100
AcDbEntity
  8
Layer_1
 62
5
100
AcDbLine
 10
585.771937
 20
455.975756
 30
0.0
 11
563.179624
 21
483.588582
 31
0.0
  0
LINE
  5
26f
100
AcDbEntity
  8
Layer_1
 62
5
100
AcDbLine
 10
563.179624
 20
483.588582
 30
0.0
 11
666.727723
 21
468.527040
 31
0.0
  0
LINE
  5
270
100
AcDbEntity
  8
Layer_1
 62
5
100
AcDbLine
 10
787.847620
 20
558.896290
 30
0.0
 11
758.352101
 21
482.333454
 31
0.0
  0
LINE
  5
271
100
AcDbEntity
  8
Layer_1
 62
5
100
AcDbLine
 10
758.352101
 20
482.333454
 30
0.0
 11
723.208504
 21
477.312940
 31
0.0
  0
LINE
  5
272
100
AcDbEntity
  8
Layer_1
 62
5
100
AcDbLine
 10
723.208504
 20
477.312940
 30
0.0
 11
787.847620
 21
558.896290
 31
0.0
  0
LINE
  5
273
100
AcDbEntity
  8
Layer_1
 62
5
100
AcDbLine
 10
808.557240
 20
612.239250
 30
0.0
 11
769.648258
 21
709.511706
 31
0.0
  0
LINE
  5
274
100
AcDbEntity
  8
Layer_1
 62
5
100
AcDbLine
 10
769.648258
 20
709.511706
 30
0.0
 11
821.108525
 21
644.872590
 31
0.0
  0
LINE
  5
275
100
AcDbEntity
  8
Layer_1
 62
5
100
AcDbLine
 10
821.108525
 20
644.872590
 30
0.0
 11
808.557240
 21
612.239250
 31
0.0
  0
LINE
  5
276
100
AcDbEntity
  8
Layer_1
 62
5
100
AcDbLine
 10
574.475781
 20
772.268130
 30
0.0
 11
662.962338
 21
815.570062
 31
0.0
  0
LINE
  5
277
100
AcDbEntity
  8
Layer_1
 62
5
100
AcDbLine
 10
662.962338
 20
815.570062
 30
0.0
 11
698.105935
 21
791.722621
 31
0.0
  0
LINE
  5
278
100
AcDbEntity
  8
Layer_1
 62
5
100
AcDbLine
 10
698.105935
 20
791.722621
 30
0.0
 11
574.475781
 21
772.268130
 31
0.0
  0
LINE
  5
279
100
AcDbEntity
  8
Layer_1
 62
5
100
AcDbLine
 10
478.458453
 20
631.066177
 30
0.0
 11
485.361659
 21
728.966198
 31
0.0
  0
LINE
  5
27a
100
AcDbEntity
  8
Layer_1
 62
5
100
AcDbLine
 10
485.361659
 20
728.966198
 30
0.0
 11
523.643078
 21
747.793125
 31
0.0
  0
LINE
  5
27b
100
AcDbEntity
  8
Layer_1
 62
5
100
AcDbLine
 10
523.643078
 20
747.793125
 30
0.0
 11
478.458453
 21
631.066177
 31
0.0
  0
LINE
  5
27c
100
AcDbEntity
  8
Layer_1
 62
5
100
AcDbLine
 10
474.065503
 20
574.585396
 30
0.0
 11
552.511032
 21
477.312940
 31
0.0
  0
LINE
  5
27d
100
AcDbEntity
  8
Layer_1
 62
5
100
AcDbLine
 10
552.511032
 20
477.312940
 30
0.0
 11
471.555246
 21
532.538592
 31
0.0
  0
LINE
  5
27e
100
AcDbEntity
  8
Layer_1
 62
5
100
AcDbLine
 10
471.555246
 20
532.538592
 30
0.0
 11
474.065503
 21
574.585396
 31
0.0
  0
LINE
  5
27f
100
AcDbEntity
  8
Layer_1
 62
5
100
AcDbLine
 10
723.208504
 20
464.761655
 30
0.0
 11
634.721947
 21
421.459723
 31
0.0
  0
LINE
  5
280
100
AcDbEntity
  8
Layer_1
 62
5
100
AcDbLine
 10
634.721947
 20
421.459723
 30
0.0
 11
599.578350
 21
445.307164
 31
0.0
  0
LINE
  5
281
100
AcDbEntity
  8
Layer_1
 62
5
100
AcDbLine
 10
599.578350
 20
445.307164
 30
0.0
 11
723.208504
 21
464.761655
 31
0.0
  0
LINE
  5
282
100
AcDbEntity
  8
Layer_1
 62
5
100
AcDbLine
 10
819.225832
 20
605.963608
 30
0.0
 11
812.322626
 21
508.063587
 31
0.0
  0
LINE
  5
283
100
AcDbEntity
  8
Layer_1
 62
5
100
AcDbLine
 10
812.322626
 20
508.063587
 30
0.0
 11
774.041207
 21
489.236660
 31
0.0
  0
LINE
  5
284
100
AcDbEntity
  8
Layer_1
 62
5
100
AcDbLine
 10
774.041207
 20
489.236660
 30
0.0
 11
819.225832
 21
605.963608
 31
0.0
  0
LINE
  5
285
100
AcDbEntity
  8
Layer_1
 62
5
100
AcDbLine
 10
700.616192
 20
804.901470
 30
0.0
 11
811.695061
 21
771.013001
 31
0.0
  0
LINE
  5
286
100
AcDbEntity
  8
Layer_1
 62
5
100
AcDbLine
 10
811.695061
 20
771.013001
 30
0.0
 11
822.991218
 21
722.062991
 31
0.0
  0
LINE
  5
287
100
AcDbEntity
  8
Layer_1
 62
5
100
AcDbLine
 10
822.991218
 20
722.062991
 30
0.0
 11
700.616192
 21
804.901470
 31
0.0
  0
LINE
  5
288
100
AcDbEntity
  8
Layer_1
 62
5
100
AcDbLine
 10
513.602050
 20
756.579024
 30
0.0
 11
598.323222
 21
835.652118
 31
0.0
  0
LINE
  5
289
100
AcDbEntity
  8
Layer_1
 62
5
100
AcDbLine
 10
598.323222
 20
835.652118
 30
0.0
 11
646.645668
 21
821.218140
 31
0.0
  0
LINE
  5
28a
100
AcDbEntity
  8
Layer_1
 62
5
100
AcDbLine
 10
646.645668
 20
821.218140
 30
0.0
 11
513.602050
 21
756.579024
 31
0.0
  0
LINE
  5
28b
100
AcDbEntity
  8
Layer_1
 62
5
100
AcDbLine
 10
461.514218
 20
570.820011
 30
0.0
 11
435.156521
 21
683.781573
 31
0.0
  0
LINE
  5
28c
100
AcDbEntity
  8
Layer_1
 62
5
100
AcDbLine
 10
435.156521
 20
683.781573
 30
0.0
 11
472.182810
 21
717.670042
 31
0.0
  0
LINE
  5
28d
100
AcDbEntity
  8
Layer_1
 62
5
100
AcDbLine
 10
472.182810
 20
717.670042
 30
0.0
 11
461.514218
 21
570.820011
 31
0.0
  0
LINE
  5
28e
100
AcDbEntity
  8
Layer_1
 62
5
100
AcDbLine
 10
596.440529
 20
432.755879
 30
0.0
 11
485.989224
 21
466.644348
 31
0.0
  0
LINE
  5
28f
100
AcDbEntity
  8
Layer_1
 62
5
100
AcDbLine
 10
485.989224
 20
466.644348
 30
0.0
 11
474.065503
 21
514.966794
 31
0.0
  0
LINE
  5
290
100
AcDbEntity
  8
Layer_1
 62
5
100
AcDbLine
 10
474.065503
 20
514.966794
 30
0.0
 11
596.440529
 21
432.755879
 31
0.0
  0
LINE
  5
291
100
AcDbEntity
  8
Layer_1
 62
5
100
AcDbLine
 10
784.082235
 20
480.450761
 30
0.0
 11
699.361063
 21
401.377667
 31
0.0
  0
LINE
  5
292
100
AcDbEntity
  8
Layer_1
 62
5
100
AcDbLine
 10
699.361063
 20
401.377667
 30
0.0
 11
651.038617
 21
415.811645
 31
0.0
  0
LINE
  5
293
100
AcDbEntity
  8
Layer_1
 62
5
100
AcDbLine
 10
651.038617
 20
415.811645
 30
0.0
 11
784.082235
 21
480.450761
 31
0.0
  0
LINE
  5
294
100
AcDbEntity
  8
Layer_1
 62
5
100
AcDbLine
 10
836.170067
 20
666.209774
 30
0.0
 11
861.900200
 21
553.248212
 31
0.0
  0
LINE
  5
295
100
AcDbEntity
  8
Layer_1
 62
5
100
AcDbLine
 10
861.900200
 20
553.248212
 30
0.0
 11
825.501475
 21
519.359743
 31
0.0
  0
LINE
  5
296
100
AcDbEntity
  8
Layer_1
 62
5
100
AcDbLine
 10
825.501475
 20
519.359743
 30
0.0
 11
836.170067
 21
666.209774
 31
0.0
  0
LINE
  5
297
100
AcDbEntity
  8
Layer_1
 62
5
100
AcDbLine
 10
637.859768
 20
836.907246
 30
0.0
 11
774.041207
 21
836.907246
 31
0.0
  0
LINE
  5
298
100
AcDbEntity
  8
Layer_1
 62
5
100
AcDbLine
 10
774.041207
 20
836.907246
 30
0.0
 11
803.536726
 21
786.074543
 31
0.0
  0
LINE
  5
299
100
AcDbEntity
  8
Layer_1
 62
5
100
AcDbLine
 10
803.536726
 20
786.074543
 30
0.0
 11
637.859768
 21
836.907246
 31
0.0
  0
LINE
  5
29a
100
AcDbEntity
  8
Layer_1
 62
5
100
AcDbLine
 10
454.611012
 20
718.297606
 30
0.0
 11
522.387949
 21
836.279682
 31
0.0
  0
LINE
  5
29b
100
AcDbEntity
  8
Layer_1
 62
5
100
AcDbLine
 10
522.387949
 20
836.279682
 30
0.0
 11
581.378987
 21
836.279682
 31
0.0
  0
LINE
  5
29c
100
AcDbEntity
  8
Layer_1
 62
5
100
AcDbLine
 10
581.378987
 20
836.279682
 30
0.0
 11
454.611012
 21
718.297606
 31
0.0
  0
LINE
  5
29d
100
AcDbEntity
  8
Layer_1
 62
5
100
AcDbLine
 10
426.370621
 20
668.720031
 30
0.0
 11
465.279604
 21
499.905252
 31
0.0
  0
LINE
  5
29e
100
AcDbEntity
  8
Layer_1
 62
5
100
AcDbLine
 10
465.279604
 20
499.905252
 30
0.0
 11
396.875102
 21
617.887328
 31
0.0
  0
LINE
  5
29f
100
AcDbEntity
  8
Layer_1
 62
5
100
AcDbLine
 10
396.875102
 20
617.887328
 30
0.0
 11
426.370621
 21
668.720031
 31
0.0
  0
LINE
  5
2a0
100
AcDbEntity
  8
Layer_1
 62
5
100
AcDbLine
 10
632.211690
 20
408.908438
 30
0.0
 11
632.211690
 21
408.908438
 31
0.0
  0
LINE
  5
2a1
100
AcDbEntity
  8
Layer_1
 62
5
100
AcDbLine
 10
632.211690
 20
408.908438
 30
0.0
 11
632.839255
 21
408.280874
 31
0.0
  0
LINE
  5
2a2
100
AcDbEntity
  8
Layer_1
 62
5
100
AcDbLine
 10
632.839255
 20
408.280874
 30
0.0
 11
635.349511
 21
407.653310
 31
0.0
  0
LINE
  5
2a3
100
AcDbEntity
  8
Layer_1
 62
5
100
AcDbLine
 10
635.349511
 20
407.653310
 30
0.0
 11
638.487333
 21
407.025745
 31
0.0
  0
LINE
  5
2a4
100
AcDbEntity
  8
Layer_1
 62
5
100
AcDbLine
 10
638.487333
 20
407.025745
 30
0.0
 11
641.625154
 21
405.770617
 31
0.0
  0
LINE
  5
2a5
100
AcDbEntity
  8
Layer_1
 62
5
100
AcDbLine
 10
641.625154
 20
405.770617
 30
0.0
 11
646.018103
 21
404.515488
 31
0.0
  0
LINE
  5
2a6
100
AcDbEntity
  8
Layer_1
 62
5
100
AcDbLine
 10
646.018103
 20
404.515488
 30
0.0
 11
649.783489
 21
403.260360
 31
0.0
  0
LINE
  5
2a7
100
AcDbEntity
  8
Layer_1
 62
5
100
AcDbLine
 10
649.783489
 20
403.260360
 30
0.0
 11
653.548874
 21
402.005231
 31
0.0
  0
LINE
  5
2a8
100
AcDbEntity
  8
Layer_1
 62
5
100
AcDbLine
 10
653.548874
 20
402.005231
 30
0.0
 11
656.686695
 21
401.377667
 31
0.0
  0
LINE
  5
2a9
100
AcDbEntity
  8
Layer_1
 62
5
100
AcDbLine
 10
656.686695
 20
401.377667
 30
0.0
 11
658.569388
 21
400.750103
 31
0.0
  0
LINE
  5
2aa
100
AcDbEntity
  8
Layer_1
 62
5
100
AcDbLine
 10
658.569388
 20
400.750103
 30
0.0
 11
659.824517
 21
400.122539
 31
0.0
  0
LINE
  5
2ab
100
AcDbEntity
  8
Layer_1
 62
5
100
AcDbLine
 10
659.824517
 20
400.122539
 30
0.0
 11
656.059131
 21
400.122539
 31
0.0
  0
LINE
  5
2ac
100
AcDbEntity
  8
Layer_1
 62
5
100
AcDbLine
 10
656.059131
 20
400.122539
 30
0.0
 11
645.390539
 21
400.122539
 31
0.0
  0
LINE
  5
2ad
100
AcDbEntity
  8
Layer_1
 62
5
100
AcDbLine
 10
645.390539
 20
400.122539
 30
0.0
 11
630.328998
 21
400.122539
 31
0.0
  0
LINE
  5
2ae
100
AcDbEntity
  8
Layer_1
 62
5
100
AcDbLine
 10
630.328998
 20
400.122539
 30
0.0
 11
611.502071
 21
400.122539
 31
0.0
  0
LINE
  5
2af
100
AcDbEntity
  8
Layer_1
 62
5
100
AcDbLine
 10
611.502071
 20
400.122539
 30
0.0
 11
591.420015
 21
400.122539
 31
0.0
  0
LINE
  5
2b0
100
AcDbEntity
  8
Layer_1
 62
5
100
AcDbLine
 10
591.420015
 20
400.122539
 30
0.0
 11
571.337960
 21
400.122539
 31
0.0
  0
LINE
  5
2b1
100
AcDbEntity
  8
Layer_1
 62
5
100
AcDbLine
 10
571.337960
 20
400.122539
 30
0.0
 11
552.511032
 21
400.122539
 31
0.0
  0
LINE
  5
2b2
100
AcDbEntity
  8
Layer_1
 62
5
100
AcDbLine
 10
552.511032
 20
400.122539
 30
0.0
 11
537.449491
 21
400.122539
 31
0.0
  0
LINE
  5
2b3
100
AcDbEntity
  8
Layer_1
 62
5
100
AcDbLine
 10
537.449491
 20
400.122539
 30
0.0
 11
527.408463
 21
400.122539
 31
0.0
  0
LINE
  5
2b4
100
AcDbEntity
  8
Layer_1
 62
5
100
AcDbLine
 10
527.408463
 20
400.122539
 30
0.0
 11
523.015513
 21
400.122539
 31
0.0
  0
LINE
  5
2b5
100
AcDbEntity
  8
Layer_1
 62
5
100
AcDbLine
 10
523.015513
 20
400.122539
 30
0.0
 11
522.387949
 21
401.377667
 31
0.0
  0
LINE
  5
2b6
100
AcDbEntity
  8
Layer_1
 62
5
100
AcDbLine
 10
522.387949
 20
401.377667
 30
0.0
 11
520.505257
 21
405.143053
 31
0.0
  0
LINE
  5
2b7
100
AcDbEntity
  8
Layer_1
 62
5
100
AcDbLine
 10
520.505257
 20
405.143053
 30
0.0
 11
516.739871
 21
410.791131
 31
0.0
  0
LINE
  5
2b8
100
AcDbEntity
  8
Layer_1
 62
5
100
AcDbLine
 10
516.739871
 20
410.791131
 30
0.0
 11
512.974486
 21
417.694337
 31
0.0
  0
LINE
  5
2b9
100
AcDbEntity
  8
Layer_1
 62
5
100
AcDbLine
 10
512.974486
 20
417.694337
 30
0.0
 11
508.581536
 21
425.225108
 31
0.0
  0
LINE
  5
2ba
100
AcDbEntity
  8
Layer_1
 62
5
100
AcDbLine
 10
508.581536
 20
425.225108
 30
0.0
 11
504.188586
 21
432.755879
 31
0.0
  0
LINE
  5
2bb
100
AcDbEntity
  8
Layer_1
 62
5
100
AcDbLine
 10
504.188586
 20
432.755879
 30
0.0
 11
500.423201
 21
439.659086
 31
0.0
  0
LINE
  5
2bc
100
AcDbEntity
  8
Layer_1
 62
5
100
AcDbLine
 10
500.423201
 20
439.659086
 30
0.0
 11
496.657816
 21
445.934728
 31
0.0
  0
LINE
  5
2bd
100
AcDbEntity
  8
Layer_1
 62
5
100
AcDbLine
 10
496.657816
 20
445.934728
 30
0.0
 11
494.775123
 21
449.700113
 31
0.0
  0
LINE
  5
2be
100
AcDbEntity
  8
Layer_1
 62
5
100
AcDbLine
 10
494.775123
 20
449.700113
 30
0.0
 11
493.519994
 21
450.955242
 31
0.0
  0
LINE
  5
2bf
100
AcDbEntity
  8
Layer_1
 62
5
100
AcDbLine
 10
493.519994
 20
450.955242
 30
0.0
 11
497.912944
 21
449.700113
 31
0.0
  0
LINE
  5
2c0
100
AcDbEntity
  8
Layer_1
 62
5
100
AcDbLine
 10
497.912944
 20
449.700113
 30
0.0
 11
507.953972
 21
446.562292
 31
0.0
  0
LINE
  5
2c1
100
AcDbEntity
  8
Layer_1
 62
5
100
AcDbLine
 10
507.953972
 20
446.562292
 30
0.0
 11
523.643078
 21
441.541778
 31
0.0
  0
LINE
  5
2c2
100
AcDbEntity
  8
Layer_1
 62
5
100
AcDbLine
 10
523.643078
 20
441.541778
 30
0.0
 11
542.470005
 21
435.893700
 31
0.0
  0
LINE
  5
2c3
100
AcDbEntity
  8
Layer_1
 62
5
100
AcDbLine
 10
542.470005
 20
435.893700
 30
0.0
 11
563.179624
 21
429.618058
 31
0.0
  0
LINE
  5
2c4
100
AcDbEntity
  8
Layer_1
 62
5
100
AcDbLine
 10
563.179624
 20
429.618058
 30
0.0
 11
583.261680
 21
423.342415
 31
0.0
  0
LINE
  5
2c5
100
AcDbEntity
  8
Layer_1
 62
5
100
AcDbLine
 10
583.261680
 20
423.342415
 30
0.0
 11
602.088607
 21
417.694337
 31
0.0
  0
LINE
  5
2c6
100
AcDbEntity
  8
Layer_1
 62
5
100
AcDbLine
 10
602.088607
 20
417.694337
 30
0.0
 11
617.777713
 21
413.301388
 31
0.0
  0
LINE
  5
2c7
100
AcDbEntity
  8
Layer_1
 62
5
100
AcDbLine
 10
617.777713
 20
413.301388
 30
0.0
 11
628.446305
 21
410.163567
 31
0.0
  0
LINE
  5
2c8
100
AcDbEntity
  8
Layer_1
 62
5
100
AcDbLine
 10
628.446305
 20
410.163567
 30
0.0
 11
632.211690
 21
408.908438
 31
0.0
  0
LINE
  5
2c9
100
AcDbEntity
  8
Layer_1
 62
5
100
AcDbLine
 10
843.073273
 20
518.732179
 30
0.0
 11
775.296336
 21
400.750103
 31
0.0
  0
LINE
  5
2ca
100
AcDbEntity
  8
Layer_1
 62
5
100
AcDbLine
 10
775.296336
 20
400.750103
 30
0.0
 11
716.305298
 21
400.750103
 31
0.0
  0
LINE
  5
2cb
100
AcDbEntity
  8
Layer_1
 62
5
100
AcDbLine
 10
716.305298
 20
400.750103
 30
0.0
 11
843.073273
 21
518.732179
 31
0.0
  0
LINE
  5
2cc
100
AcDbEntity
  8
Layer_1
 62
5
100
AcDbLine
 10
892.650848
 20
580.233474
 30
0.0
 11
857.507251
 21
425.225108
 31
0.0
  0
LINE
  5
2cd
100
AcDbEntity
  8
Layer_1
 62
5
100
AcDbLine
 10
857.507251
 20
425.225108
 30
0.0
 11
792.240570
 21
405.143053
 31
0.0
  0
LINE
  5
2ce
100
AcDbEntity
  8
Layer_1
 62
5
100
AcDbLine
 10
792.240570
 20
405.143053
 30
0.0
 11
892.650848
 21
580.233474
 31
0.0
  0
LINE
  5
2cf
100
AcDbEntity
  8
Layer_1
 62
5
100
AcDbLine
 10
905.202132
 20
636.086691
 30
0.0
 11
803.536726
 21
810.549548
 31
0.0
  0
LINE
  5
2d0
100
AcDbEntity
  8
Layer_1
 62
5
100
AcDbLine
 10
803.536726
 20
810.549548
 30
0.0
 11
920.263674
 21
703.236064
 31
0.0
  0
LINE
  5
2d1
100
AcDbEntity
  8
Layer_1
 62
5
100
AcDbLine
 10
920.263674
 20
703.236064
 30
0.0
 11
905.202132
 21
636.086691
 31
0.0
  0
LINE
  5
2d2
100
AcDbEntity
  8
Layer_1
 62
5
100
AcDbLine
 10
559.414239
 20
848.830967
 30
0.0
 11
711.284784
 21
895.898284
 31
0.0
  0
LINE
  5
2d3
100
AcDbEntity
  8
Layer_1
 62
5
100
AcDbLine
 10
711.284784
 20
895.898284
 30
0.0
 11
762.117487
 21
849.458531
 31
0.0
  0
LINE
  5
2d4
100
AcDbEntity
  8
Layer_1
 62
5
100
AcDbLine
 10
762.117487
 20
849.458531
 30
0.0
 11
559.414239
 21
848.830967
 31
0.0
  0
LINE
  5
2d5
100
AcDbEntity
  8
Layer_1
 62
5
100
AcDbLine
 10
404.405873
 20
656.796311
 30
0.0
 11
439.549470
 21
811.804677
 31
0.0
  0
LINE
  5
2d6
100
AcDbEntity
  8
Layer_1
 62
5
100
AcDbLine
 10
439.549470
 20
811.804677
 30
0.0
 11
505.443715
 21
831.886732
 31
0.0
  0
LINE
  5
2d7
100
AcDbEntity
  8
Layer_1
 62
5
100
AcDbLine
 10
505.443715
 20
831.886732
 30
0.0
 11
404.405873
 21
656.796311
 31
0.0
  0
LINE
  5
2d8
100
AcDbEntity
  8
Layer_1
 62
5
100
AcDbLine
 10
392.482153
 20
600.943094
 30
0.0
 11
494.147559
 21
426.480237
 31
0.0
  0
LINE
  5
2d9
100
AcDbEntity
  8
Layer_1
 62
5
100
AcDbLine
 10
494.147559
 20
426.480237
 30
0.0
 11
376.793047
 21
533.793721
 31
0.0
  0
LINE
  5
2da
100
AcDbEntity
  8
Layer_1
 62
5
100
AcDbLine
 10
376.793047
 20
533.793721
 30
0.0
 11
392.482153
 21
600.943094
 31
0.0
  0
LINE
  5
2db
100
AcDbEntity
  8
Layer_1
 62
5
100
AcDbLine
 10
700.616192
 20
388.198818
 30
0.0
 11
700.616192
 21
388.198818
 31
0.0
  0
LINE
  5
2dc
100
AcDbEntity
  8
Layer_1
 62
5
100
AcDbLine
 10
700.616192
 20
388.198818
 30
0.0
 11
701.871320
 21
388.198818
 31
0.0
  0
LINE
  5
2dd
100
AcDbEntity
  8
Layer_1
 62
5
100
AcDbLine
 10
701.871320
 20
388.198818
 30
0.0
 11
704.381577
 21
388.198818
 31
0.0
  0
LINE
  5
2de
100
AcDbEntity
  8
Layer_1
 62
5
100
AcDbLine
 10
704.381577
 20
388.198818
 30
0.0
 11
708.774527
 21
388.198818
 31
0.0
  0
LINE
  5
2df
100
AcDbEntity
  8
Layer_1
 62
5
100
AcDbLine
 10
708.774527
 20
388.198818
 30
0.0
 11
713.795041
 21
388.198818
 31
0.0
  0
LINE
  5
2e0
100
AcDbEntity
  8
Layer_1
 62
5
100
AcDbLine
 10
713.795041
 20
388.198818
 30
0.0
 11
719.443119
 21
388.198818
 31
0.0
  0
LINE
  5
2e1
100
AcDbEntity
  8
Layer_1
 62
5
100
AcDbLine
 10
719.443119
 20
388.198818
 30
0.0
 11
724.463633
 21
388.198818
 31
0.0
  0
LINE
  5
2e2
100
AcDbEntity
  8
Layer_1
 62
5
100
AcDbLine
 10
724.463633
 20
388.198818
 30
0.0
 11
730.111711
 21
388.198818
 31
0.0
  0
LINE
  5
2e3
100
AcDbEntity
  8
Layer_1
 62
5
100
AcDbLine
 10
730.111711
 20
388.198818
 30
0.0
 11
733.877096
 21
388.198818
 31
0.0
  0
LINE
  5
2e4
100
AcDbEntity
  8
Layer_1
 62
5
100
AcDbLine
 10
733.877096
 20
388.198818
 30
0.0
 11
737.014917
 21
388.198818
 31
0.0
  0
LINE
  5
2e5
100
AcDbEntity
  8
Layer_1
 62
5
100
AcDbLine
 10
737.014917
 20
388.198818
 30
0.0
 11
737.642482
 21
388.198818
 31
0.0
  0
LINE
  5
2e6
100
AcDbEntity
  8
Layer_1
 62
5
100
AcDbLine
 10
737.642482
 20
388.198818
 30
0.0
 11
733.877096
 21
386.943690
 31
0.0
  0
LINE
  5
2e7
100
AcDbEntity
  8
Layer_1
 62
5
100
AcDbLine
 10
733.877096
 20
386.943690
 30
0.0
 11
721.953376
 21
383.178304
 31
0.0
  0
LINE
  5
2e8
100
AcDbEntity
  8
Layer_1
 62
5
100
AcDbLine
 10
721.953376
 20
383.178304
 30
0.0
 11
705.009141
 21
378.157791
 31
0.0
  0
LINE
  5
2e9
100
AcDbEntity
  8
Layer_1
 62
5
100
AcDbLine
 10
705.009141
 20
378.157791
 30
0.0
 11
684.299522
 21
371.882148
 31
0.0
  0
LINE
  5
2ea
100
AcDbEntity
  8
Layer_1
 62
5
100
AcDbLine
 10
684.299522
 20
371.882148
 30
0.0
 11
661.707209
 21
364.351377
 31
0.0
  0
LINE
  5
2eb
100
AcDbEntity
  8
Layer_1
 62
5
100
AcDbLine
 10
661.707209
 20
364.351377
 30
0.0
 11
639.742461
 21
357.448171
 31
0.0
  0
LINE
  5
2ec
100
AcDbEntity
  8
Layer_1
 62
5
100
AcDbLine
 10
639.742461
 20
357.448171
 30
0.0
 11
619.032841
 21
351.172528
 31
0.0
  0
LINE
  5
2ed
100
AcDbEntity
  8
Layer_1
 62
5
100
AcDbLine
 10
619.032841
 20
351.172528
 30
0.0
 11
602.088607
 21
346.152015
 31
0.0
  0
LINE
  5
2ee
100
AcDbEntity
  8
Layer_1
 62
5
100
AcDbLine
 10
602.088607
 20
346.152015
 30
0.0
 11
590.164887
 21
342.386629
 31
0.0
  0
LINE
  5
2ef
100
AcDbEntity
  8
Layer_1
 62
5
100
AcDbLine
 10
590.164887
 20
342.386629
 30
0.0
 11
585.771937
 21
341.131501
 31
0.0
  0
LINE
  5
2f0
100
AcDbEntity
  8
Layer_1
 62
5
100
AcDbLine
 10
585.771937
 20
341.131501
 30
0.0
 11
584.516808
 21
342.386629
 31
0.0
  0
LINE
  5
2f1
100
AcDbEntity
  8
Layer_1
 62
5
100
AcDbLine
 10
584.516808
 20
342.386629
 30
0.0
 11
580.751423
 21
346.152015
 31
0.0
  0
LINE
  5
2f2
100
AcDbEntity
  8
Layer_1
 62
5
100
AcDbLine
 10
580.751423
 20
346.152015
 30
0.0
 11
575.103345
 21
351.172528
 31
0.0
  0
LINE
  5
2f3
100
AcDbEntity
  8
Layer_1
 62
5
100
AcDbLine
 10
575.103345
 20
351.172528
 30
0.0
 11
568.200138
 21
357.448171
 31
0.0
  0
LINE
  5
2f4
100
AcDbEntity
  8
Layer_1
 62
5
100
AcDbLine
 10
568.200138
 20
357.448171
 30
0.0
 11
560.669368
 21
364.351377
 31
0.0
  0
LINE
  5
2f5
100
AcDbEntity
  8
Layer_1
 62
5
100
AcDbLine
 10
560.669368
 20
364.351377
 30
0.0
 11
553.138597
 21
371.254584
 31
0.0
  0
LINE
  5
2f6
100
AcDbEntity
  8
Layer_1
 62
5
100
AcDbLine
 10
553.138597
 20
371.254584
 30
0.0
 11
546.235390
 21
377.530226
 31
0.0
  0
LINE
  5
2f7
100
AcDbEntity
  8
Layer_1
 62
5
100
AcDbLine
 10
546.235390
 20
377.530226
 30
0.0
 11
540.587312
 21
382.550740
 31
0.0
  0
LINE
  5
2f8
100
AcDbEntity
  8
Layer_1
 62
5
100
AcDbLine
 10
540.587312
 20
382.550740
 30
0.0
 11
536.821927
 21
386.316126
 31
0.0
  0
LINE
  5
2f9
100
AcDbEntity
  8
Layer_1
 62
5
100
AcDbLine
 10
536.821927
 20
386.316126
 30
0.0
 11
535.566798
 21
387.571254
 31
0.0
  0
LINE
  5
2fa
100
AcDbEntity
  8
Layer_1
 62
5
100
AcDbLine
 10
535.566798
 20
387.571254
 30
0.0
 11
539.959748
 21
387.571254
 31
0.0
  0
LINE
  5
2fb
100
AcDbEntity
  8
Layer_1
 62
5
100
AcDbLine
 10
539.959748
 20
387.571254
 30
0.0
 11
552.511032
 21
387.571254
 31
0.0
  0
LINE
  5
2fc
100
AcDbEntity
  8
Layer_1
 62
5
100
AcDbLine
 10
552.511032
 20
387.571254
 30
0.0
 11
571.337960
 21
387.571254
 31
0.0
  0
LINE
  5
2fd
100
AcDbEntity
  8
Layer_1
 62
5
100
AcDbLine
 10
571.337960
 20
387.571254
 30
0.0
 11
593.930272
 21
387.571254
 31
0.0
  0
LINE
  5
2fe
100
AcDbEntity
  8
Layer_1
 62
5
100
AcDbLine
 10
593.930272
 20
387.571254
 30
0.0
 11
618.405277
 21
387.571254
 31
0.0
  0
LINE
  5
2ff
100
AcDbEntity
  8
Layer_1
 62
5
100
AcDbLine
 10
618.405277
 20
387.571254
 30
0.0
 11
642.252718
 21
388.198818
 31
0.0
  0
LINE
  5
300
100
AcDbEntity
  8
Layer_1
 62
5
100
AcDbLine
 10
642.252718
 20
388.198818
 30
0.0
 11
664.845030
 21
388.198818
 31
0.0
  0
LINE
  5
301
100
AcDbEntity
  8
Layer_1
 62
5
100
AcDbLine
 10
664.845030
 20
388.198818
 30
0.0
 11
683.671958
 21
388.198818
 31
0.0
  0
LINE
  5
302
100
AcDbEntity
  8
Layer_1
 62
5
100
AcDbLine
 10
683.671958
 20
388.198818
 30
0.0
 11
696.223242
 21
388.198818
 31
0.0
  0
LINE
  5
303
100
AcDbEntity
  8
Layer_1
 62
5
100
AcDbLine
 10
696.223242
 20
388.198818
 30
0.0
 11
700.616192
 21
388.198818
 31
0.0
  0
LINE
  5
304
100
AcDbEntity
  8
Layer_1
 62
5
100
AcDbLine
 10
550.000776
 20
357.448171
 30
0.0
 11
385.578946
 21
436.521264
 31
0.0
  0
LINE
  5
305
100
AcDbEntity
  8
Layer_1
 62
5
100
AcDbLine
 10
385.578946
 20
436.521264
 30
0.0
 11
383.068689
 21
441.541778
 31
0.0
  0
LINE
  5
306
100
AcDbEntity
  8
Layer_1
 62
5
100
AcDbLine
 10
383.068689
 20
441.541778
 30
0.0
 11
377.420611
 21
516.849486
 31
0.0
  0
LINE
  5
307
100
AcDbEntity
  8
Layer_1
 62
5
100
AcDbLine
 10
377.420611
 20
516.849486
 30
0.0
 11
550.000776
 21
357.448171
 31
0.0
  0
LINE
  5
308
100
AcDbEntity
  8
Layer_1
 62
5
100
AcDbLine
 10
347.925092
 20
740.889918
 30
0.0
 11
368.007147
 21
481.078325
 31
0.0
  0
LINE
  5
309
100
AcDbEntity
  8
Layer_1
 62
5
100
AcDbLine
 10
368.007147
 20
481.078325
 30
0.0
 11
292.699439
 21
671.230288
 31
0.0
  0
LINE
  5
30a
100
AcDbEntity
  8
Layer_1
 62
5
100
AcDbLine
 10
292.699439
 20
671.230288
 30
0.0
 11
293.327004
 21
671.857852
 31
0.0
  0
LINE
  5
30b
100
AcDbEntity
  8
Layer_1
 62
5
100
AcDbLine
 10
293.327004
 20
671.857852
 30
0.0
 11
347.925092
 21
740.889918
 31
0.0
  0
LINE
  5
30c
100
AcDbEntity
  8
Layer_1
 62
5
100
AcDbLine
 10
313.409059
 20
724.573248
 30
0.0
 11
394.992410
 21
933.552138
 31
0.0
  0
LINE
  5
30d
100
AcDbEntity
  8
Layer_1
 62
5
100
AcDbLine
 10
394.992410
 20
933.552138
 30
0.0
 11
400.012923
 21
935.434831
 31
0.0
  0
LINE
  5
30e
100
AcDbEntity
  8
Layer_1
 62
5
100
AcDbLine
 10
400.012923
 20
935.434831
 30
0.0
 11
492.264866
 21
949.868808
 31
0.0
  0
LINE
  5
30f
100
AcDbEntity
  8
Layer_1
 62
5
100
AcDbLine
 10
492.264866
 20
949.868808
 30
0.0
 11
313.409059
 21
724.573248
 31
0.0
  0
LINE
  5
310
100
AcDbEntity
  8
Layer_1
 62
5
100
AcDbLine
 10
254.418021
 20
626.045663
 30
0.0
 11
273.244948
 21
874.561100
 31
0.0
  0
LINE
  5
311
100
AcDbEntity
  8
Layer_1
 62
5
100
AcDbLine
 10
273.244948
 20
874.561100
 30
0.0
 11
369.889840
 21
921.000854
 31
0.0
  0
LINE
  5
312
100
AcDbEntity
  8
Layer_1
 62
5
100
AcDbLine
 10
369.889840
 20
921.000854
 30
0.0
 11
254.418021
 21
626.045663
 31
0.0
  0
LINE
  5
313
100
AcDbEntity
  8
Layer_1
 62
5
100
AcDbLine
 10
247.514814
 20
528.773207
 30
0.0
 11
445.197548
 21
280.885334
 31
0.0
  0
LINE
  5
314
100
AcDbEntity
  8
Layer_1
 62
5
100
AcDbLine
 10
445.197548
 20
280.885334
 30
0.0
 11
239.356479
 21
420.832159
 31
0.0
  0
LINE
  5
315
100
AcDbEntity
  8
Layer_1
 62
5
100
AcDbLine
 10
239.356479
 20
420.832159
 30
0.0
 11
247.514814
 21
528.773207
 31
0.0
  0
LINE
  5
316
100
AcDbEntity
  8
Layer_1
 62
5
100
AcDbLine
 10
839.307888
 20
273.354563
 30
0.0
 11
615.267456
 21
165.413515
 31
0.0
  0
LINE
  5
317
100
AcDbEntity
  8
Layer_1
 62
5
100
AcDbLine
 10
615.267456
 20
165.413515
 30
0.0
 11
526.153335
 21
225.659682
 31
0.0
  0
LINE
  5
318
100
AcDbEntity
  8
Layer_1
 62
5
100
AcDbLine
 10
526.153335
 20
225.659682
 30
0.0
 11
839.307888
 21
273.354563
 31
0.0
  0
LINE
  5
319
100
AcDbEntity
  8
Layer_1
 62
5
100
AcDbLine
 10
1042.638700
 20
610.984122
 30
0.0
 11
1024.439337
 21
362.468685
 31
0.0
  0
LINE
  5
31a
100
AcDbEntity
  8
Layer_1
 62
5
100
AcDbLine
 10
1024.439337
 20
362.468685
 30
0.0
 11
927.166881
 21
316.028931
 31
0.0
  0
LINE
  5
31b
100
AcDbEntity
  8
Layer_1
 62
5
100
AcDbLine
 10
927.166881
 20
316.028931
 30
0.0
 11
1042.638700
 21
610.984122
 31
0.0
  0
LINE
  5
31c
100
AcDbEntity
  8
Layer_1
 62
5
100
AcDbLine
 10
1050.169471
 20
708.884142
 30
0.0
 11
852.486737
 21
956.144451
 31
0.0
  0
LINE
  5
31d
100
AcDbEntity
  8
Layer_1
 62
5
100
AcDbLine
 10
852.486737
 20
956.144451
 30
0.0
 11
1058.327806
 21
816.197626
 31
0.0
  0
LINE
  5
31e
100
AcDbEntity
  8
Layer_1
 62
5
100
AcDbLine
 10
1058.327806
 20
816.197626
 30
0.0
 11
1050.169471
 21
708.884142
 31
0.0
  0
LINE
  5
31f
100
AcDbEntity
  8
Layer_1
 62
5
100
AcDbLine
 10
457.748833
 20
963.675222
 30
0.0
 11
682.416829
 21
1071.616270
 31
0.0
  0
LINE
  5
320
100
AcDbEntity
  8
Layer_1
 62
5
100
AcDbLine
 10
682.416829
 20
1071.616270
 30
0.0
 11
771.530950
 21
1011.370103
 31
0.0
  0
LINE
  5
321
100
AcDbEntity
  8
Layer_1
 62
5
100
AcDbLine
 10
771.530950
 20
1011.370103
 30
0.0
 11
457.748833
 21
963.675222
 31
0.0
  0
LINE
  5
322
100
AcDbEntity
  8
Layer_1
 62
5
100
AcDbLine
 10
755.214280
 20
1050.906650
 30
0.0
 11
1023.811773
 21
968.068171
 31
0.0
  0
LINE
  5
323
100
AcDbEntity
  8
Layer_1
 62
5
100
AcDbLine
 10
1023.811773
 20
968.068171
 30
0.0
 11
1025.694465
 21
964.930350
 31
0.0
  0
LINE
  5
324
100
AcDbEntity
  8
Layer_1
 62
5
100
AcDbLine
 10
1025.694465
 20
964.930350
 30
0.0
 11
1052.052163
 21
848.830967
 31
0.0
  0
LINE
  5
325
100
AcDbEntity
  8
Layer_1
 62
5
100
AcDbLine
 10
1052.052163
 20
848.830967
 30
0.0
 11
755.214280
 21
1050.906650
 31
0.0
  0
LINE
  5
326
100
AcDbEntity
  8
Layer_1
 62
5
100
AcDbLine
 10
1006.239974
 20
998.818819
 30
0.0
 11
617.777713
 21
1118.056023
 31
0.0
  0
LINE
  5
327
100
AcDbEntity
  8
Layer_1
 62
5
100
AcDbLine
 10
617.777713
 20
1118.056023
 30
0.0
 11
937.207908
 21
1118.056023
 31
0.0
  0
LINE
  5
328
100
AcDbEntity
  8
Layer_1
 62
5
100
AcDbLine
 10
937.207908
 20
1118.056023
 30
0.0
 11
1006.239974
 21
998.818819
 31
0.0
  0
LINE
  5
329
100
AcDbEntity
  8
Layer_1
 62
5
100
AcDbLine
 10
360.476377
 20
1118.056023
 30
0.0
 11
498.540508
 21
1118.056023
 31
0.0
  0
LINE
  5
32a
100
AcDbEntity
  8
Layer_1
 62
5
100
AcDbLine
 10
498.540508
 20
1118.056023
 30
0.0
 11
200.447497
 21
841.927760
 31
0.0
  0
LINE
  5
32b
100
AcDbEntity
  8
Layer_1
 62
5
100
AcDbLine
 10
200.447497
 20
841.927760
 30
0.0
 11
360.476377
 21
1118.056023
 31
0.0
  0
LINE
  5
32c
100
AcDbEntity
  8
Layer_1
 62
5
100
AcDbLine
 10
140.828895
 20
738.379661
 30
0.0
 11
231.198144
 21
341.759065
 31
0.0
  0
LINE
  5
32d
100
AcDbEntity
  8
Layer_1
 62
5
100
AcDbLine
 10
231.198144
 20
341.759065
 30
0.0
 11
71.796829
 21
618.514892
 31
0.0
  0
LINE
  5
32e
100
AcDbEntity
  8
Layer_1
 62
5
100
AcDbLine
 10
71.796829
 20
618.514892
 30
0.0
 11
140.828895
 21
738.379661
 31
0.0
  0
LINE
  5
32f
100
AcDbEntity
  8
Layer_1
 62
5
100
AcDbLine
 10
291.444311
 20
238.838530
 30
0.0
 11
679.279008
 21
118.973762
 31
0.0
  0
LINE
  5
330
100
AcDbEntity
  8
Layer_1
 62
5
100
AcDbLine
 10
679.279008
 20
118.973762
 30
0.0
 11
360.476377
 21
118.973762
 31
0.0
  0
LINE
  5
331
100
AcDbEntity
  8
Layer_1
 62
5
100
AcDbLine
 10
360.476377
 20
118.973762
 30
0.0
 11
291.444311
 21
238.838530
 31
0.0
  0
LINE
  5
332
100
AcDbEntity
  8
Layer_1
 62
5
100
AcDbLine
 10
937.207908
 20
118.973762
 30
0.0
 11
799.143777
 21
118.973762
 31
0.0
  0
LINE
  5
333
100
AcDbEntity
  8
Layer_1
 62
5
100
AcDbLine
 10
799.143777
 20
118.973762
 30
0.0
 11
1096.609224
 21
395.102025
 31
0.0
  0
LINE
  5
334
100
AcDbEntity
  8
Layer_1
 62
5
100
AcDbLine
 10
1096.609224
 20
395.102025
 30
0.0
 11
937.207908
 21
118.973762
 31
0.0
  0
LINE
  5
335
100
AcDbEntity
  8
Layer_1
 62
5
100
AcDbLine
 10
1156.855390
 20
498.650124
 30
0.0
 11
1065.858576
 21
895.270720
 31
0.0
  0
LINE
  5
336
100
AcDbEntity
  8
Layer_1
 62
5
100
AcDbLine
 10
1065.858576
 20
895.270720
 30
0.0
 11
1225.887456
 21
618.514892
 31
0.0
  0
LINE
  5
337
100
AcDbEntity
  8
Layer_1
 62
5
100
AcDbLine
 10
1225.887456
 20
618.514892
 30
0.0
 11
1156.855390
 21
498.650124
 31
0.0
  0
ENDSEC
  0
SECTION
  2
OBJECTS
  0
DICTIONARY
  5
C
330
0
100
AcDbDictionary
  3
ACAD_GROUP
350
D
  3
ACAD_MLINESTYLE
350
17
  0
DICTIONARY
  5
D
330
C
100
AcDbDictionary
  0
DICTIONARY
  5
1A
330
C
100
AcDbDictionary
  0
DICTIONARY
  5
17
330
C
100
AcDbDictionary
  3
STANDARD
350
18
  0
DICTIONARY
  5
19
330
C
100
AcDbDictionary
  0
ENDSEC
  0
EOF
