  0
SECTION
  2
HEADER
  9
$ACADVER
  1
AC1014
  9
$HANDSEED
  5
FFFF
  9
$MEASUREMENT
 70
     1
  0
ENDSEC
  0
SECTION
  2
TABLES
  0
TABLE
  2
VPORT
  5
8
330
0
100
AcDbSymbolTable
 70
     4
  0
VPORT
  5
2E
330
8
100
AcDbSymbolTableRecord
100
AcDbViewportTableRecord
  2
*ACTIVE
 70
     0
 10
0.0
 20
0.0
 11
1.0
 21
1.0
 12
210.0
 22
148.5
 13
0.0
 23
0.0
 14
10.0
 24
10.0
 15
10.0
 25
10.0
 16
0.0
 26
0.0
 36
1.0
 17
0.0
 27
0.0
 37
0.0
 40
341.0
 41
1.24
 42
50.0
 43
0.0
 44
0.0
 50
0.0
 51
0.0
 71
     0
 72
   100
 73
     1
 74
     3
 75
     0
 76
     0
 77
     0
 78
     0
  0
ENDTAB
  0
TABLE
  2
LTYPE
  5
5
330
0
100
AcDbSymbolTable
 70
     1
  0
LTYPE
  5
14
330
5
100
AcDbSymbolTableRecord
100
AcDbLinetypeTableRecord
  2
BYBLOCK
 70
     0
  3

 72
    65
 73
     0
 40
0.0
  0
LTYPE
  5
15
330
5
100
AcDbSymbolTableRecord
100
AcDbLinetypeTableRecord
  2
BYLAYER
 70
     0
  3

 72
    65
 73
     0
 40
0.0
  0
LTYPE
  5
16
330
5
100
AcDbSymbolTableRecord
100
AcDbLinetypeTableRecord
  2
CONTINUOUS
 70
     0
  3
Solid line
 72
    65
 73
     0
 40
0.0
  0
ENDTAB
  0
TABLE
  2
LAYER
  5
2
100
AcDbSymbolTable
 70
2
  0
LAYER
  5
50
100
AcDbSymbolTableRecord
100
AcDbLayerTableRecord
  2
0
 70
0
  6
CONTINUOUS
  0
LAYER
  5
51
100
AcDbSymbolTableRecord
100
AcDbLayerTableRecord
  2
Layer_1
 70
0
  6
CONTINUOUS
  0
ENDTAB
  0
TABLE
  2
STYLE
  5
3
330
0
100
AcDbSymbolTable
 70
     1
  0
STYLE
  5
11
330
3
100
AcDbSymbolTableRecord
100
AcDbTextStyleTableRecord
  2
STANDARD
 70
     0
 40
0.0
 41
1.0
 50
0.0
 71
     0
 42
2.5
  3
txt
  4

  0
ENDTAB
  0
TABLE
  2
VIEW
  5
6
330
0
100
AcDbSymbolTable
 70
     0
  0
ENDTAB
  0
TABLE
  2
UCS
  5
7
330
0
100
AcDbSymbolTable
 70
     0
  0
ENDTAB
  0
TABLE
  2
APPID
  5
9
330
0
100
AcDbSymbolTable
 70
     2
  0
APPID
  5
12
330
9
100
AcDbSymbolTableRecord
100
AcDbRegAppTableRecord
  2
ACAD
 70
     0
  0
ENDTAB
  0
TABLE
  2
DIMSTYLE
  5
A
330
0
100
AcDbSymbolTable
 70
     1
  0
DIMSTYLE
105
27
330
A
100
AcDbSymbolTableRecord
100
AcDbDimStyleTableRecord
  2
ISO-25
 70
     0
  3

  4

  5

  6

  7

 40
1.0
 41
2.5
 42
0.625
 43
3.75
 44
1.25
 45
0.0
 46
0.0
 47
0.0
 48
0.0
140
2.5
141
2.5
142
0.0
143
0.03937007874016
144
1.0
145
0.0
146
1.0
147
0.625
 71
     0
 72
     0
 73
     0
 74
     0
 75
     0
 76
     0
 77
     1
 78
     8
170
     0
171
     3
172
     1
173
     0
174
     0
175
     0
176
     0
177
     0
178
     0
270
     2
271
     2
272
     2
273
     2
274
     3
340
11
275
     0
280
     0
281
     0
282
     0
283
     0
284
     8
285
     0
286
     0
287
     3
288
     0
  0
ENDTAB
  0
TABLE
  2
BLOCK_RECORD
  5
1
330
0
100
AcDbSymbolTable
 70
     1
  0
BLOCK_RECORD
  5
1F
330
1
100
AcDbSymbolTableRecord
100
AcDbBlockTableRecord
  2
*MODEL_SPACE
  0
BLOCK_RECORD
  5
1B
330
1
100
AcDbSymbolTableRecord
100
AcDbBlockTableRecord
  2
*PAPER_SPACE
  0
ENDTAB
  0
ENDSEC
  0
SECTION
  2
BLOCKS
  0
BLOCK
  5
20
330
1F
100
AcDbEntity
  8
0
100
AcDbBlockBegin
  2
*MODEL_SPACE
 70
     0
 10
0.0
 20
0.0
 30
0.0
  3
*MODEL_SPACE
  1

  0
ENDBLK
  5
21
330
1F
100
AcDbEntity
  8
0
100
AcDbBlockEnd
  0
BLOCK
  5
1C
330
1B
100
AcDbEntity
 67
     1
  8
0
100
AcDbBlockBegin
  2
*PAPER_SPACE
  1

  0
ENDBLK
  5
1D
330
1B
100
AcDbEntity
 67
     1
  8
0
100
AcDbBlockEnd
  0
ENDSEC
  0
SECTION
  2
ENTITIES
  0
LWPOLYLINE
  5
100
100
AcDbEntity
  8
Layer_1
 62
5
100
AcDbPolyline
 90
4
 70
1
 10
11.757457
 20
16.999449
 30
0.0
 10
14.651520
 20
11.986786
 30
0.0
 10
13.873282
 20
14.885670
 30
0.0
 10
11.757457
 20
16.999449
 30
0.0
  0
LWPOLYLINE
  5
101
100
AcDbEntity
  8
Layer_1
 62
5
100
AcDbPolyline
 90
5
 70
1
 10
12.159450
 20
17.373739
 30
0.0
 10
12.476442
 20
17.056778
 30
0.0
 10
13.588799
 20
15.945302
 30
0.0
 10
13.396692
 20
16.660906
 30
0.0
 10
12.159450
 20
17.373739
 30
0.0
  0
LWPOLYLINE
  5
102
100
AcDbEntity
  8
Layer_1
 62
5
100
AcDbPolyline
 90
4
 70
1
 10
15.266943
 20
12.026919
 30
0.0
 10
15.267934
 20
13.492325
 30
0.0
 10
14.729243
 20
14.030515
 30
0.0
 10
15.266943
 20
12.026919
 30
0.0
  0
LWPOLYLINE
  5
103
100
AcDbEntity
  8
Layer_1
 62
5
100
AcDbPolyline
 90
4
 70
1
 10
12.401649
 20
17.870432
 30
0.0
 10
13.195151
 20
17.411566
 30
0.0
 10
13.123858
 20
17.677151
 30
0.0
 10
12.401649
 20
17.870432
 30
0.0
  0
LWPOLYLINE
  5
104
100
AcDbEntity
  8
Layer_1
 62
5
100
AcDbPolyline
 90
4
 70
1
 10
10.746213
 20
20.742709
 30
0.0
 10
11.522685
 20
23.641360
 30
0.0
 10
10.746207
 20
26.533652
 30
0.0
 10
10.746213
 20
20.742709
 30
0.0
  0
LWPOLYLINE
  5
105
100
AcDbEntity
  8
Layer_1
 62
5
100
AcDbPolyline
 90
4
 70
1
 10
17.512011
 20
9.055936
 30
0.0
 10
22.716045
 20
6.051366
 30
0.0
 10
20.511582
 20
8.253735
 30
0.0
 10
17.512011
 20
9.055936
 30
0.0
  0
LWPOLYLINE
  5
106
100
AcDbEntity
  8
Layer_1
 62
5
100
AcDbPolyline
 90
4
 70
1
 10
15.836457
 20
12.012110
 30
0.0
 10
16.029621
 20
12.731378
 30
0.0
 10
15.835638
 20
12.925185
 30
0.0
 10
15.836457
 20
12.012110
 30
0.0
  0
LWPOLYLINE
  5
107
100
AcDbEntity
  8
Layer_1
 62
5
100
AcDbPolyline
 90
4
 70
1
 10
12.496356
 20
18.417780
 30
0.0
 10
12.958245
 20
18.294033
 30
0.0
 10
12.925011
 20
18.417848
 30
0.0
 10
12.496356
 20
18.417780
 30
0.0
  0
LWPOLYLINE
  5
108
100
AcDbEntity
  8
Layer_1
 62
5
100
AcDbPolyline
 90
5
 70
1
 10
14.444959
 20
15.089803
 30
0.0
 10
15.268461
 20
14.266939
 30
0.0
 10
15.269372
 20
15.581982
 30
0.0
 10
14.137957
 20
16.233831
 30
0.0
 10
14.444959
 20
15.089803
 30
0.0
  0
LWPOLYLINE
  5
109
100
AcDbEntity
  8
Layer_1
 62
5
100
AcDbPolyline
 90
4
 70
1
 10
16.374135
 20
11.826170
 30
0.0
 10
16.579566
 20
12.181938
 30
0.0
 10
16.492542
 20
12.268883
 30
0.0
 10
16.374135
 20
11.826170
 30
0.0
  0
LWPOLYLINE
  5
10a
100
AcDbEntity
  8
Layer_1
 62
5
100
AcDbPolyline
 90
5
 70
1
 10
17.672358
 20
9.581208
 30
0.0
 10
18.090317
 20
9.469244
 30
0.0
 10
19.735417
 20
9.029125
 30
0.0
 10
19.181442
 20
9.582560
 30
0.0
 10
17.672358
 20
9.581208
 30
0.0
  0
LWPOLYLINE
  5
10b
100
AcDbEntity
  8
Layer_1
 62
5
100
AcDbPolyline
 90
4
 70
1
 10
11.708976
 20
20.321062
 30
0.0
 10
12.264968
 20
20.876422
 30
0.0
 10
12.190507
 20
21.153785
 30
0.0
 10
11.708976
 20
20.321062
 30
0.0
  0
LWPOLYLINE
  5
10c
100
AcDbEntity
  8
Layer_1
 62
5
100
AcDbPolyline
 90
4
 70
1
 10
17.598218
 20
10.122906
 30
0.0
 10
18.639667
 20
10.123821
 30
0.0
 10
18.419934
 20
10.343357
 30
0.0
 10
17.598218
 20
10.122906
 30
0.0
  0
LWPOLYLINE
  5
10d
100
AcDbEntity
  8
Layer_1
 62
5
100
AcDbPolyline
 90
4
 70
1
 10
16.869070
 20
11.562288
 30
0.0
 10
17.034297
 20
11.727656
 30
0.0
 10
16.990035
 20
11.771870
 30
0.0
 10
16.869070
 20
11.562288
 30
0.0
  0
LWPOLYLINE
  5
10e
100
AcDbEntity
  8
Layer_1
 62
5
100
AcDbPolyline
 90
4
 70
1
 10
11.394421
 20
21.050748
 30
0.0
 10
11.956335
 20
22.026059
 30
0.0
 10
11.805583
 20
22.587618
 30
0.0
 10
11.394421
 20
21.050748
 30
0.0
  0
LWPOLYLINE
  5
10f
100
AcDbEntity
  8
Layer_1
 62
5
100
AcDbPolyline
 90
4
 70
1
 10
17.423010
 20
10.642733
 30
0.0
 10
17.972594
 20
10.790250
 30
0.0
 10
17.864847
 20
10.897921
 30
0.0
 10
17.423010
 20
10.642733
 30
0.0
  0
LWPOLYLINE
  5
110
100
AcDbEntity
  8
Layer_1
 62
5
100
AcDbPolyline
 90
4
 70
1
 10
12.632347
 20
18.959515
 30
0.0
 10
12.779590
 20
18.959541
 30
0.0
 10
12.769699
 20
18.996381
 30
0.0
 10
12.632347
 20
18.959515
 30
0.0
  0
LWPOLYLINE
  5
111
100
AcDbEntity
  8
Layer_1
 62
5
100
AcDbPolyline
 90
4
 70
1
 10
12.157681
 20
19.967160
 30
0.0
 10
12.461892
 20
20.142796
 30
0.0
 10
12.434611
 20
20.244397
 30
0.0
 10
12.157681
 20
19.967160
 30
0.0
  0
LWPOLYLINE
  5
112
100
AcDbEntity
  8
Layer_1
 62
5
100
AcDbPolyline
 90
5
 70
1
 10
13.937000
 20
16.982599
 30
0.0
 10
15.269779
 20
16.211916
 30
0.0
 10
15.270394
 20
17.102717
 30
0.0
 10
13.799102
 20
17.496453
 30
0.0
 10
13.937000
 20
16.982599
 30
0.0
  0
LWPOLYLINE
  5
113
100
AcDbEntity
  8
Layer_1
 62
5
100
AcDbPolyline
 90
5
 70
1
 10
15.834957
 20
13.700896
 30
0.0
 10
16.193712
 20
13.342416
 30
0.0
 10
16.590721
 20
14.820701
 30
0.0
 10
15.833531
 20
15.256927
 30
0.0
 10
15.834957
 20
13.700896
 30
0.0
  0
LWPOLYLINE
  5
114
100
AcDbEntity
  8
Layer_1
 62
5
100
AcDbPolyline
 90
5
 70
1
 10
13.633628
 20
18.113093
 30
0.0
 10
15.270779
 20
17.674477
 30
0.0
 10
15.271272
 20
18.418177
 30
0.0
 10
13.551810
 20
18.417931
 30
0.0
 10
13.633628
 20
18.113093
 30
0.0
  0
LWPOLYLINE
  5
115
100
AcDbEntity
  8
Layer_1
 62
5
100
AcDbPolyline
 90
6
 70
1
 10
16.656115
 20
12.880380
 30
0.0
 10
16.863309
 20
12.673328
 30
0.0
 10
17.725383
 20
14.166176
 30
0.0
 10
17.359073
 20
14.378003
 30
0.0
 10
17.097077
 20
14.528956
 30
0.0
 10
16.656115
 20
12.880380
 30
0.0
  0
LWPOLYLINE
  5
116
100
AcDbEntity
  8
Layer_1
 62
5
100
AcDbPolyline
 90
5
 70
1
 10
13.406432
 20
18.959627
 30
0.0
 10
15.271639
 20
18.959907
 30
0.0
 10
15.272136
 20
19.668002
 30
0.0
 10
13.354456
 20
19.153333
 30
0.0
 10
13.406432
 20
18.959627
 30
0.0
  0
LWPOLYLINE
  5
117
100
AcDbEntity
  8
Layer_1
 62
5
100
AcDbPolyline
 90
5
 70
1
 10
17.273658
 20
12.263306
 30
0.0
 10
17.421711
 20
12.115368
 30
0.0
 10
18.831649
 20
13.526476
 30
0.0
 10
18.210130
 20
13.885862
 30
0.0
 10
17.273658
 20
12.263306
 30
0.0
  0
LWPOLYLINE
  5
118
100
AcDbEntity
  8
Layer_1
 62
5
100
AcDbPolyline
 90
5
 70
1
 10
17.804985
 20
11.732379
 30
0.0
 10
17.874181
 20
11.663253
 30
0.0
 10
19.516693
 20
12.611366
 30
0.0
 10
19.211758
 20
13.140362
 30
0.0
 10
17.804985
 20
11.732379
 30
0.0
  0
LWPOLYLINE
  5
119
100
AcDbEntity
  8
Layer_1
 62
5
100
AcDbPolyline
 90
5
 70
1
 10
13.179220
 20
19.806311
 30
0.0
 10
15.075772
 20
20.315334
 30
0.0
 10
14.777506
 20
20.832778
 30
0.0
 10
13.155197
 20
19.895817
 30
0.0
 10
13.179220
 20
19.806311
 30
0.0
  0
LWPOLYLINE
  5
11a
100
AcDbEntity
  8
Layer_1
 62
5
100
AcDbPolyline
 90
5
 70
1
 10
18.356121
 20
11.181673
 30
0.0
 10
18.583693
 20
10.954293
 30
0.0
 10
20.218895
 20
11.393206
 30
0.0
 10
19.845114
 20
12.041642
 30
0.0
 10
18.356121
 20
11.181673
 30
0.0
  0
LWPOLYLINE
  5
11b
100
AcDbEntity
  8
Layer_1
 62
5
100
AcDbPolyline
 90
6
 70
1
 10
13.004822
 20
20.456166
 30
0.0
 10
14.497825
 20
21.317959
 30
0.0
 10
14.281798
 20
21.692685
 30
0.0
 10
14.135091
 20
21.946289
 30
0.0
 10
12.928909
 20
20.739049
 30
0.0
 10
13.004822
 20
20.456166
 30
0.0
  0
LWPOLYLINE
  5
11c
100
AcDbEntity
  8
Layer_1
 62
5
100
AcDbPolyline
 90
5
 70
1
 10
15.832959
 20
15.886247
 30
0.0
 10
16.736552
 20
15.363749
 30
0.0
 10
17.073953
 20
16.620067
 30
0.0
 10
15.831995
 20
16.952425
 30
0.0
 10
15.832959
 20
15.886247
 30
0.0
  0
LWPOLYLINE
  5
11d
100
AcDbEntity
  8
Layer_1
 62
5
100
AcDbPolyline
 90
5
 70
1
 10
19.031030
 20
10.507285
 30
0.0
 10
19.414092
 20
10.124541
 30
0.0
 10
20.949398
 20
10.125908
 30
0.0
 10
20.502064
 20
10.901963
 30
0.0
 10
19.031030
 20
10.507285
 30
0.0
  0
LWPOLYLINE
  5
11e
100
AcDbEntity
  8
Layer_1
 62
5
100
AcDbPolyline
 90
5
 70
1
 10
12.759474
 20
21.370377
 30
0.0
 10
13.842417
 20
22.452122
 30
0.0
 10
13.391722
 20
23.231110
 30
0.0
 10
12.618816
 20
21.894498
 30
0.0
 10
12.759474
 20
21.370377
 30
0.0
  0
LWPOLYLINE
  5
11f
100
AcDbEntity
  8
Layer_1
 62
5
100
AcDbPolyline
 90
5
 70
1
 10
19.955778
 20
9.583274
 30
0.0
 10
20.793683
 20
8.746016
 30
0.0
 10
21.918276
 20
8.445134
 30
0.0
 10
21.261534
 20
9.584450
 30
0.0
 10
19.955778
 20
9.583274
 30
0.0
  0
LWPOLYLINE
  5
120
100
AcDbEntity
  8
Layer_1
 62
5
100
AcDbPolyline
 90
5
 70
1
 10
12.384218
 20
22.768711
 30
0.0
 10
13.020415
 20
23.872928
 30
0.0
 10
12.424853
 20
24.902332
 30
0.0
 10
12.118723
 20
23.758043
 30
0.0
 10
12.384218
 20
22.768711
 30
0.0
  0
LWPOLYLINE
  5
121
100
AcDbEntity
  8
Layer_1
 62
5
100
AcDbPolyline
 90
6
 70
1
 10
17.242158
 20
15.071390
 30
0.0
 10
17.621848
 20
14.851840
 30
0.0
 10
17.996646
 20
14.635904
 30
0.0
 10
18.173308
 20
14.941844
 30
0.0
 10
17.513608
 20
16.086256
 30
0.0
 10
17.242158
 20
15.071390
 30
0.0
  0
LWPOLYLINE
  5
122
100
AcDbEntity
  8
Layer_1
 62
5
100
AcDbPolyline
 90
5
 70
1
 10
15.831477
 20
17.524240
 30
0.0
 10
16.840538
 20
17.253892
 30
0.0
 10
16.169315
 20
18.418318
 30
0.0
 10
15.830671
 20
18.418263
 30
0.0
 10
15.831477
 20
17.524240
 30
0.0
  0
LWPOLYLINE
  5
123
100
AcDbEntity
  8
Layer_1
 62
5
100
AcDbPolyline
 90
5
 70
1
 10
11.836058
 20
24.811208
 30
0.0
 10
12.039088
 20
25.569091
 30
0.0
 10
11.281363
 20
26.878760
 30
0.0
 10
11.402519
 20
26.426755
 30
0.0
 10
11.836058
 20
24.811208
 30
0.0
  0
LWPOLYLINE
  5
124
100
AcDbEntity
  8
Layer_1
 62
5
100
AcDbPolyline
 90
4
 70
1
 10
21.569489
 20
7.970808
 30
0.0
 10
23.037014
 20
6.504437
 30
0.0
 10
22.305111
 20
7.774074
 30
0.0
 10
21.569489
 20
7.970808
 30
0.0
  0
LWPOLYLINE
  5
125
100
AcDbEntity
  8
Layer_1
 62
5
100
AcDbPolyline
 90
4
 70
1
 10
18.481707
 20
14.356437
 30
0.0
 10
18.525220
 20
14.331356
 30
0.0
 10
18.496215
 20
14.381594
 30
0.0
 10
18.481707
 20
14.356437
 30
0.0
  0
LWPOLYLINE
  5
126
100
AcDbEntity
  8
Layer_1
 62
5
100
AcDbPolyline
 90
4
 70
1
 10
15.830191
 20
18.959986
 30
0.0
 10
15.857054
 20
18.960002
 30
0.0
 10
15.830119
 20
19.006656
 30
0.0
 10
15.830191
 20
18.959986
 30
0.0
  0
LWPOLYLINE
  5
127
100
AcDbEntity
  8
Layer_1
 62
5
100
AcDbPolyline
 90
6
 70
1
 10
14.749236
 20
21.966522
 30
0.0
 10
14.967585
 20
21.589136
 30
0.0
 10
15.273537
 20
21.765778
 30
0.0
 10
15.274434
 20
23.086697
 30
0.0
 10
14.531927
 20
22.343520
 30
0.0
 10
14.749236
 20
21.966522
 30
0.0
  0
LWPOLYLINE
  5
128
100
AcDbEntity
  8
Layer_1
 62
5
100
AcDbPolyline
 90
5
 70
1
 10
14.240248
 20
22.849504
 30
0.0
 10
15.160599
 20
23.768806
 30
0.0
 10
14.236610
 20
24.692221
 30
0.0
 10
13.706485
 20
23.775444
 30
0.0
 10
14.240248
 20
22.849504
 30
0.0
  0
LWPOLYLINE
  5
129
100
AcDbEntity
  8
Layer_1
 62
5
100
AcDbPolyline
 90
4
 70
1
 10
15.247982
 20
21.104501
 30
0.0
 10
15.273037
 20
21.061106
 30
0.0
 10
15.273085
 20
21.118994
 30
0.0
 10
15.247982
 20
21.104501
 30
0.0
  0
LWPOLYLINE
  5
12a
100
AcDbEntity
  8
Layer_1
 62
5
100
AcDbPolyline
 90
5
 70
1
 10
13.335264
 20
24.419427
 30
0.0
 10
13.764368
 20
25.164182
 30
0.0
 10
12.762699
 20
26.165204
 30
0.0
 10
12.625212
 20
25.651223
 30
0.0
 10
13.335264
 20
24.419427
 30
0.0
  0
LWPOLYLINE
  5
12b
100
AcDbEntity
  8
Layer_1
 62
5
100
AcDbPolyline
 90
5
 70
1
 10
15.970599
 20
19.855476
 30
0.0
 10
16.488629
 20
18.960084
 30
0.0
 10
17.702418
 20
18.960275
 30
0.0
 10
18.096013
 20
20.425922
 30
0.0
 10
15.970599
 20
19.855476
 30
0.0
  0
LWPOLYLINE
  5
12c
100
AcDbEntity
  8
Layer_1
 62
5
100
AcDbPolyline
 90
4
 70
1
 10
12.240061
 20
26.319347
 30
0.0
 10
12.317865
 20
26.609774
 30
0.0
 10
11.739419
 20
27.187839
 30
0.0
 10
12.240061
 20
26.319347
 30
0.0
  0
LWPOLYLINE
  5
12d
100
AcDbEntity
  8
Layer_1
 62
5
100
AcDbPolyline
 90
4
 70
1
 10
16.802034
 20
18.418415
 30
0.0
 10
17.317583
 20
17.527292
 30
0.0
 10
17.556927
 20
18.418525
 30
0.0
 10
16.802034
 20
18.418415
 30
0.0
  0
LWPOLYLINE
  5
12e
100
AcDbEntity
  8
Layer_1
 62
5
100
AcDbPolyline
 90
4
 70
1
 10
17.983254
 20
16.376741
 30
0.0
 10
18.493060
 20
15.495564
 30
0.0
 10
18.865557
 20
16.140607
 30
0.0
 10
17.983254
 20
16.376741
 30
0.0
  0
LWPOLYLINE
  5
12f
100
AcDbEntity
  8
Layer_1
 62
5
100
AcDbPolyline
 90
5
 70
1
 10
18.816503
 20
14.936498
 30
0.0
 10
19.338674
 20
14.033932
 30
0.0
 10
20.899739
 20
15.596242
 30
0.0
 10
19.425048
 20
15.990890
 30
0.0
 10
18.816503
 20
14.936498
 30
0.0
  0
LWPOLYLINE
  5
130
100
AcDbEntity
  8
Layer_1
 62
5
100
AcDbPolyline
 90
5
 70
1
 10
20.329488
 20
12.321389
 30
0.0
 10
20.779447
 20
11.543676
 30
0.0
 10
21.791027
 20
11.815197
 30
0.0
 10
20.622753
 20
12.490750
 30
0.0
 10
20.329488
 20
12.321389
 30
0.0
  0
LWPOLYLINE
  5
131
100
AcDbEntity
  8
Layer_1
 62
5
100
AcDbPolyline
 90
5
 70
1
 10
21.063558
 20
11.052609
 30
0.0
 10
21.599362
 20
10.126514
 30
0.0
 10
22.599983
 20
10.127397
 30
0.0
 10
22.265627
 20
11.375099
 30
0.0
 10
21.063558
 20
11.052609
 30
0.0
  0
LWPOLYLINE
  5
132
100
AcDbEntity
  8
Layer_1
 62
5
100
AcDbPolyline
 90
5
 70
1
 10
21.912629
 20
9.585042
 30
0.0
 10
22.691868
 20
8.238186
 30
0.0
 10
23.138257
 20
8.118752
 30
0.0
 10
22.745123
 20
9.585795
 30
0.0
 10
21.912629
 20
9.585042
 30
0.0
  0
LWPOLYLINE
  5
133
100
AcDbEntity
  8
Layer_1
 62
5
100
AcDbPolyline
 90
4
 70
1
 10
23.080299
 20
7.566760
 30
0.0
 10
23.463855
 20
6.903809
 30
0.0
 10
23.302096
 20
7.507446
 30
0.0
 10
23.080299
 20
7.566760
 30
0.0
  0
LWPOLYLINE
  5
134
100
AcDbEntity
  8
Layer_1
 62
5
100
AcDbPolyline
 90
5
 70
1
 10
17.760037
 20
17.007556
 30
0.0
 10
19.150980
 20
16.634898
 30
0.0
 10
20.181183
 20
18.418923
 30
0.0
 10
18.137473
 20
18.418612
 30
0.0
 10
17.760037
 20
17.007556
 30
0.0
  0
LWPOLYLINE
  5
135
100
AcDbEntity
  8
Layer_1
 62
5
100
AcDbPolyline
 90
5
 70
1
 10
19.716198
 20
13.645186
 30
0.0
 10
20.512708
 20
13.186285
 30
0.0
 10
21.610455
 20
13.819909
 30
0.0
 10
21.246780
 20
15.177002
 30
0.0
 10
19.716198
 20
13.645186
 30
0.0
  0
LWPOLYLINE
  5
136
100
AcDbEntity
  8
Layer_1
 62
5
100
AcDbPolyline
 90
5
 70
1
 10
15.828780
 20
20.517427
 30
0.0
 10
17.866721
 20
21.064404
 30
0.0
 10
16.882186
 20
22.048330
 30
0.0
 10
15.827935
 20
21.439465
 30
0.0
 10
15.828780
 20
20.517427
 30
0.0
  0
LWPOLYLINE
  5
137
100
AcDbEntity
  8
Layer_1
 62
5
100
AcDbPolyline
 90
4
 70
1
 10
12.095220
 20
27.614423
 30
0.0
 10
12.483093
 20
27.226572
 30
0.0
 10
12.521134
 20
27.368598
 30
0.0
 10
12.095220
 20
27.614423
 30
0.0
  0
LWPOLYLINE
  5
138
100
AcDbEntity
  8
Layer_1
 62
5
100
AcDbPolyline
 90
4
 70
1
 10
24.064476
 20
7.002472
 30
0.0
 10
24.065017
 20
7.303416
 30
0.0
 10
23.977399
 20
7.326850
 30
0.0
 10
24.064476
 20
7.002472
 30
0.0
  0
LWPOLYLINE
  5
139
100
AcDbEntity
  8
Layer_1
 62
5
100
AcDbPolyline
 90
5
 70
1
 10
12.927708
 20
26.781967
 30
0.0
 10
14.049929
 20
25.659818
 30
0.0
 10
14.407244
 20
26.280029
 30
0.0
 10
13.009275
 20
27.086865
 30
0.0
 10
12.927708
 20
26.781967
 30
0.0
  0
LWPOLYLINE
  5
13a
100
AcDbEntity
  8
Layer_1
 62
5
100
AcDbPolyline
 90
5
 70
1
 10
23.813307
 20
7.938150
 30
0.0
 10
24.066054
 20
7.870543
 30
0.0
 10
24.069245
 20
9.586999
 30
0.0
 10
23.370903
 20
9.586369
 30
0.0
 10
23.813307
 20
7.938150
 30
0.0
  0
LWPOLYLINE
  5
13b
100
AcDbEntity
  8
Layer_1
 62
5
100
AcDbPolyline
 90
4
 70
1
 10
21.170658
 20
12.807199
 30
0.0
 10
22.011718
 20
12.322618
 30
0.0
 10
21.786548
 20
13.162899
 30
0.0
 10
21.170658
 20
12.807199
 30
0.0
  0
LWPOLYLINE
  5
13c
100
AcDbEntity
  8
Layer_1
 62
5
100
AcDbPolyline
 90
4
 70
1
 10
15.827369
 20
22.085418
 30
0.0
 10
16.472498
 20
22.457723
 30
0.0
 10
15.826484
 20
23.103324
 30
0.0
 10
15.827369
 20
22.085418
 30
0.0
  0
LWPOLYLINE
  5
13d
100
AcDbEntity
  8
Layer_1
 62
5
100
AcDbPolyline
 90
4
 70
1
 10
24.637942
 20
6.832665
 30
0.0
 10
24.717211
 20
7.128997
 30
0.0
 10
24.637970
 20
7.150186
 30
0.0
 10
24.637942
 20
6.832665
 30
0.0
  0
LWPOLYLINE
  5
13e
100
AcDbEntity
  8
Layer_1
 62
5
100
AcDbPolyline
 90
4
 70
1
 10
12.483761
 20
28.015636
 30
0.0
 10
12.666242
 20
27.910311
 30
0.0
 10
12.680362
 20
27.963059
 30
0.0
 10
12.483761
 20
28.015636
 30
0.0
  0
LWPOLYLINE
  5
13f
100
AcDbEntity
  8
Layer_1
 62
5
100
AcDbPolyline
 90
4
 70
1
 10
12.524904
 20
28.583850
 30
0.0
 10
12.825151
 20
28.503529
 30
0.0
 10
12.846669
 20
28.583834
 30
0.0
 10
12.524904
 20
28.583850
 30
0.0
  0
LWPOLYLINE
  5
140
100
AcDbEntity
  8
Layer_1
 62
5
100
AcDbPolyline
 90
4
 70
1
 10
25.171843
 20
6.732104
 30
0.0
 10
25.309491
 20
6.970603
 30
0.0
 10
25.240581
 20
6.989021
 30
0.0
 10
25.171843
 20
6.732104
 30
0.0
  0
LWPOLYLINE
  5
141
100
AcDbEntity
  8
Layer_1
 62
5
100
AcDbPolyline
 90
5
 70
1
 10
14.522744
 20
25.187038
 30
0.0
 10
15.275364
 20
24.434466
 30
0.0
 10
15.276277
 20
25.778451
 30
0.0
 10
14.967719
 20
25.956543
 30
0.0
 10
14.522744
 20
25.187038
 30
0.0
  0
LWPOLYLINE
  5
142
100
AcDbEntity
  8
Layer_1
 62
5
100
AcDbPolyline
 90
5
 70
1
 10
23.225522
 20
10.127994
 30
0.0
 10
24.070228
 20
10.128740
 30
0.0
 10
24.070923
 20
10.496827
 30
0.0
 10
22.952987
 20
11.143284
 30
0.0
 10
23.225522
 20
10.127994
 30
0.0
  0
LWPOLYLINE
  5
143
100
AcDbEntity
  8
Layer_1
 62
5
100
AcDbPolyline
 90
5
 70
1
 10
24.638014
 20
7.717520
 30
0.0
 10
24.858844
 20
7.658451
 30
0.0
 10
25.375067
 20
9.588167
 30
0.0
 10
24.638179
 20
9.587489
 30
0.0
 10
24.638014
 20
7.717520
 30
0.0
  0
LWPOLYLINE
  5
144
100
AcDbEntity
  8
Layer_1
 62
5
100
AcDbPolyline
 90
5
 70
1
 10
13.154224
 20
27.628692
 30
0.0
 10
14.677690
 20
26.749421
 30
0.0
 10
15.016806
 20
27.338045
 30
0.0
 10
13.206063
 20
27.822431
 30
0.0
 10
13.154224
 20
27.628692
 30
0.0
  0
LWPOLYLINE
  5
145
100
AcDbEntity
  8
Layer_1
 62
5
100
AcDbPolyline
 90
4
 70
1
 10
19.710252
 20
16.485057
 30
0.0
 10
20.987984
 20
16.142733
 30
0.0
 10
20.520183
 20
17.888377
 30
0.0
 10
19.710252
 20
16.485057
 30
0.0
  0
LWPOLYLINE
  5
146
100
AcDbEntity
  8
Layer_1
 62
5
100
AcDbPolyline
 90
5
 70
1
 10
18.282377
 20
18.960347
 30
0.0
 10
19.971444
 20
18.960606
 30
0.0
 10
19.745646
 20
19.186664
 30
0.0
 10
18.638790
 20
20.292831
 30
0.0
 10
18.282377
 20
18.960347
 30
0.0
  0
LWPOLYLINE
  5
147
100
AcDbEntity
  8
Layer_1
 62
5
100
AcDbPolyline
 90
5
 70
1
 10
11.743100
 20
30.504143
 30
0.0
 10
13.953174
 20
32.714527
 30
0.0
 10
14.640900
 20
35.281860
 30
0.0
 10
14.761275
 20
35.731755
 30
0.0
 10
11.743100
 20
30.504143
 30
0.0
  0
LWPOLYLINE
  5
148
100
AcDbEntity
  8
Layer_1
 62
5
100
AcDbPolyline
 90
5
 70
1
 10
26.480287
 20
5.054512
 30
0.0
 10
32.474193
 20
5.054509
 30
0.0
 10
29.452585
 20
5.862586
 30
0.0
 10
28.605507
 20
5.635262
 30
0.0
 10
26.480287
 20
5.054512
 30
0.0
  0
LWPOLYLINE
  5
149
100
AcDbEntity
  8
Layer_1
 62
5
100
AcDbPolyline
 90
4
 70
1
 10
26.007890
 20
6.021123
 30
0.0
 10
26.909408
 20
6.542721
 30
0.0
 10
26.609343
 20
6.622961
 30
0.0
 10
26.007890
 20
6.021123
 30
0.0
  0
LWPOLYLINE
  5
14a
100
AcDbEntity
  8
Layer_1
 62
5
100
AcDbPolyline
 90
4
 70
1
 10
26.342499
 20
5.588842
 30
0.0
 10
28.405721
 20
6.142555
 30
0.0
 10
27.649220
 20
6.344864
 30
0.0
 10
26.342499
 20
5.588842
 30
0.0
  0
LWPOLYLINE
  5
14b
100
AcDbEntity
  8
Layer_1
 62
5
100
AcDbPolyline
 90
4
 70
1
 10
12.180661
 20
30.175552
 30
0.0
 10
13.472527
 20
30.920241
 30
0.0
 10
13.672824
 20
31.667924
 30
0.0
 10
12.180661
 20
30.175552
 30
0.0
  0
LWPOLYLINE
  5
14c
100
AcDbEntity
  8
Layer_1
 62
5
100
AcDbPolyline
 90
4
 70
1
 10
12.468551
 20
29.684162
 30
0.0
 10
13.193313
 20
29.877923
 30
0.0
 10
13.264822
 20
30.144855
 30
0.0
 10
12.468551
 20
29.684162
 30
0.0
  0
LWPOLYLINE
  5
14d
100
AcDbEntity
  8
Layer_1
 62
5
100
AcDbPolyline
 90
5
 70
1
 10
15.948516
 20
23.761318
 30
0.0
 10
16.966762
 20
22.743131
 30
0.0
 10
18.750966
 20
23.773033
 30
0.0
 10
16.980909
 20
24.794612
 30
0.0
 10
15.948516
 20
23.761318
 30
0.0
  0
LWPOLYLINE
  5
14e
100
AcDbEntity
  8
Layer_1
 62
5
100
AcDbPolyline
 90
5
 70
1
 10
22.706656
 20
12.060974
 30
0.0
 10
24.074475
 20
12.428129
 30
0.0
 10
24.078279
 20
14.486489
 30
0.0
 10
22.327085
 20
13.475067
 30
0.0
 10
22.706656
 20
12.060974
 30
0.0
  0
LWPOLYLINE
  5
14f
100
AcDbEntity
  8
Layer_1
 62
5
100
AcDbPolyline
 90
4
 70
1
 10
12.845913
 20
29.204545
 30
0.0
 10
13.012948
 20
29.204572
 30
0.0
 10
13.025859
 20
29.252761
 30
0.0
 10
12.845913
 20
29.204545
 30
0.0
  0
LWPOLYLINE
  5
150
100
AcDbEntity
  8
Layer_1
 62
5
100
AcDbPolyline
 90
5
 70
1
 10
25.382196
 20
7.518418
 30
0.0
 10
25.593101
 20
7.462008
 30
0.0
 10
26.525466
 20
9.077460
 30
0.0
 10
25.896535
 20
9.441165
 30
0.0
 10
25.382196
 20
7.518418
 30
0.0
  0
LWPOLYLINE
  5
151
100
AcDbEntity
  8
Layer_1
 62
5
100
AcDbPolyline
 90
5
 70
1
 10
13.350657
 20
28.362950
 30
0.0
 10
15.277682
 20
27.847451
 30
0.0
 10
15.278180
 20
28.583613
 30
0.0
 10
13.409754
 20
28.583775
 30
0.0
 10
13.350657
 20
28.362950
 30
0.0
  0
LWPOLYLINE
  5
152
100
AcDbEntity
  8
Layer_1
 62
5
100
AcDbPolyline
 90
4
 70
1
 10
23.214459
 20
11.629679
 30
0.0
 10
24.072091
 20
11.135542
 30
0.0
 10
24.073419
 20
11.860117
 30
0.0
 10
23.214459
 20
11.629679
 30
0.0
  0
LWPOLYLINE
  5
153
100
AcDbEntity
  8
Layer_1
 62
5
100
AcDbPolyline
 90
4
 70
1
 10
15.825244
 20
24.432712
 30
0.0
 10
16.478106
 20
25.084823
 30
0.0
 10
15.824318
 20
25.462155
 30
0.0
 10
15.825244
 20
24.432712
 30
0.0
  0
LWPOLYLINE
  5
154
100
AcDbEntity
  8
Layer_1
 62
5
100
AcDbPolyline
 90
4
 70
1
 10
17.376258
 20
22.333675
 30
0.0
 10
18.347525
 20
21.362457
 30
0.0
 10
18.834532
 20
23.175907
 30
0.0
 10
17.376258
 20
22.333675
 30
0.0
  0
LWPOLYLINE
  5
155
100
AcDbEntity
  8
Layer_1
 62
5
100
AcDbPolyline
 90
4
 70
1
 10
22.150788
 20
14.131871
 30
0.0
 10
23.487801
 20
14.903636
 30
0.0
 10
21.824130
 20
15.348847
 30
0.0
 10
22.150788
 20
14.131871
 30
0.0
  0
LWPOLYLINE
  5
156
100
AcDbEntity
  8
Layer_1
 62
5
100
AcDbPolyline
 90
5
 70
1
 10
26.146106
 20
7.314065
 30
0.0
 10
26.297539
 20
7.273547
 30
0.0
 10
27.524921
 20
8.499534
 30
0.0
 10
27.004464
 20
8.800493
 30
0.0
 10
26.146106
 20
7.314065
 30
0.0
  0
LWPOLYLINE
  5
157
100
AcDbEntity
  8
Layer_1
 62
5
100
AcDbPolyline
 90
6
 70
1
 10
13.575843
 20
29.204654
 30
0.0
 10
15.278591
 20
29.204905
 30
0.0
 10
15.278837
 20
29.566043
 30
0.0
 10
15.278582
 20
29.856459
 30
0.0
 10
13.632198
 20
29.415254
 30
0.0
 10
13.575843
 20
29.204654
 30
0.0
  0
LWPOLYLINE
  5
158
100
AcDbEntity
  8
Layer_1
 62
5
100
AcDbPolyline
 90
4
 70
1
 10
24.638231
 20
10.129242
 30
0.0
 10
24.706483
 20
10.129315
 30
0.0
 10
24.638228
 20
10.168780
 30
0.0
 10
24.638231
 20
10.129242
 30
0.0
  0
LWPOLYLINE
  5
159
100
AcDbEntity
  8
Layer_1
 62
5
100
AcDbPolyline
 90
4
 70
1
 10
15.238906
 20
26.425514
 30
0.0
 10
15.276694
 20
26.403699
 30
0.0
 10
15.276763
 20
26.490977
 30
0.0
 10
15.238906
 20
26.425514
 30
0.0
  0
LWPOLYLINE
  5
15a
100
AcDbEntity
  8
Layer_1
 62
5
100
AcDbPolyline
 90
5
 70
1
 10
24.638293
 20
10.809340
 30
0.0
 10
25.559708
 20
10.278469
 30
0.0
 10
26.130447
 20
12.411977
 30
0.0
 10
24.638386
 20
12.011689
 30
0.0
 10
24.638293
 20
10.809340
 30
0.0
  0
LWPOLYLINE
  5
15b
100
AcDbEntity
  8
Layer_1
 62
5
100
AcDbPolyline
 90
5
 70
1
 10
15.823751
 20
26.087962
 30
0.0
 10
16.874968
 20
25.481257
 30
0.0
 10
17.948665
 20
26.553734
 30
0.0
 10
15.822826
 20
27.122418
 30
0.0
 10
15.823751
 20
26.087962
 30
0.0
  0
LWPOLYLINE
  5
15c
100
AcDbEntity
  8
Layer_1
 62
5
100
AcDbPolyline
 90
4
 70
1
 10
19.032685
 20
20.677320
 30
0.0
 10
20.043700
 20
19.666364
 30
0.0
 10
19.723136
 20
20.862629
 30
0.0
 10
19.032685
 20
20.677320
 30
0.0
  0
LWPOLYLINE
  5
15d
100
AcDbEntity
  8
Layer_1
 62
5
100
AcDbPolyline
 90
4
 70
1
 10
21.576027
 20
16.273122
 30
0.0
 10
22.116047
 20
16.813583
 30
0.0
 10
21.179210
 20
17.751486
 30
0.0
 10
21.576027
 20
16.273122
 30
0.0
  0
LWPOLYLINE
  5
15e
100
AcDbEntity
  8
Layer_1
 62
5
100
AcDbPolyline
 90
4
 70
1
 10
21.953258
 20
15.884115
 30
0.0
 10
23.443215
 20
15.484925
 30
0.0
 10
22.498938
 20
16.430258
 30
0.0
 10
21.953258
 20
15.884115
 30
0.0
  0
LWPOLYLINE
  5
15f
100
AcDbEntity
  8
Layer_1
 62
5
100
AcDbPolyline
 90
5
 70
1
 10
27.056594
 20
7.070482
 30
0.0
 10
27.579730
 20
6.930511
 30
0.0
 10
28.908666
 20
7.699381
 30
0.0
 10
28.133219
 20
8.147798
 30
0.0
 10
27.056594
 20
7.070482
 30
0.0
  0
LWPOLYLINE
  5
160
100
AcDbEntity
  8
Layer_1
 62
5
100
AcDbPolyline
 90
5
 70
1
 10
13.799316
 20
30.039922
 30
0.0
 10
15.278056
 20
30.435256
 30
0.0
 10
15.277269
 20
31.309178
 30
0.0
 10
13.930412
 20
30.529938
 30
0.0
 10
13.799316
 20
30.039922
 30
0.0
  0
LWPOLYLINE
  5
161
100
AcDbEntity
  8
Layer_1
 62
5
100
AcDbPolyline
 90
4
 70
1
 10
18.920826
 20
21.347305
 30
0.0
 10
19.548119
 20
21.515666
 30
0.0
 10
19.256718
 20
22.603048
 30
0.0
 10
18.920826
 20
21.347305
 30
0.0
  0
LWPOLYLINE
  5
162
100
AcDbEntity
  8
Layer_1
 62
5
100
AcDbPolyline
 90
4
 70
1
 10
24.638429
 20
12.579504
 30
0.0
 10
25.984480
 20
12.940803
 30
0.0
 10
24.638569
 20
14.288225
 30
0.0
 10
24.638429
 20
12.579504
 30
0.0
  0
LWPOLYLINE
  5
163
100
AcDbEntity
  8
Layer_1
 62
5
100
AcDbPolyline
 90
4
 70
1
 10
17.377281
 20
25.191338
 30
0.0
 10
18.780076
 20
24.381725
 30
0.0
 10
18.312318
 20
26.127210
 30
0.0
 10
17.377281
 20
25.191338
 30
0.0
  0
LWPOLYLINE
  5
164
100
AcDbEntity
  8
Layer_1
 62
5
100
AcDbPolyline
 90
5
 70
1
 10
21.291065
 20
18.419075
 30
0.0
 10
21.974553
 20
17.735641
 30
0.0
 10
22.506397
 20
17.204255
 30
0.0
 10
23.720583
 20
18.419451
 30
0.0
 10
21.291065
 20
18.419075
 30
0.0
  0
LWPOLYLINE
  5
165
100
AcDbEntity
  8
Layer_1
 62
5
100
AcDbPolyline
 90
5
 70
1
 10
15.956195
 20
27.665951
 30
0.0
 10
18.050064
 20
27.105819
 30
0.0
 10
17.654103
 20
28.583413
 30
0.0
 10
16.486764
 20
28.583513
 30
0.0
 10
15.956195
 20
27.665951
 30
0.0
  0
LWPOLYLINE
  5
166
100
AcDbEntity
  8
Layer_1
 62
5
100
AcDbPolyline
 90
5
 70
1
 10
26.080951
 20
10.130555
 30
0.0
 10
27.133805
 20
10.131505
 30
0.0
 10
27.740535
 20
11.182760
 30
0.0
 10
26.653531
 20
12.270987
 30
0.0
 10
26.080951
 20
10.130555
 30
0.0
  0
LWPOLYLINE
  5
167
100
AcDbEntity
  8
Layer_1
 62
5
100
AcDbPolyline
 90
4
 70
1
 10
20.740217
 20
19.386988
 30
0.0
 10
21.935200
 20
21.456323
 30
0.0
 10
20.302382
 20
21.018099
 30
0.0
 10
20.740217
 20
19.386988
 30
0.0
  0
LWPOLYLINE
  5
168
100
AcDbEntity
  8
Layer_1
 62
5
100
AcDbPolyline
 90
5
 70
1
 10
21.139123
 20
18.960796
 30
0.0
 10
24.086541
 20
18.961227
 30
0.0
 10
24.089733
 20
20.691776
 30
0.0
 10
22.625788
 20
21.536678
 30
0.0
 10
21.139123
 20
18.960796
 30
0.0
  0
LWPOLYLINE
  5
169
100
AcDbEntity
  8
Layer_1
 62
5
100
AcDbPolyline
 90
5
 70
1
 10
28.319430
 20
6.732615
 30
0.0
 10
29.454680
 20
6.428921
 30
0.0
 10
30.575896
 20
6.735304
 30
0.0
 10
29.449691
 20
7.386526
 30
0.0
 10
28.319430
 20
6.732615
 30
0.0
  0
LWPOLYLINE
  5
16a
100
AcDbEntity
  8
Layer_1
 62
5
100
AcDbPolyline
 90
5
 70
1
 10
14.137345
 20
31.303474
 30
0.0
 10
15.276672
 20
31.960239
 30
0.0
 10
15.275497
 20
33.270814
 30
0.0
 10
14.440166
 20
32.435379
 30
0.0
 10
14.137345
 20
31.303474
 30
0.0
  0
LWPOLYLINE
  5
16b
100
AcDbEntity
  8
Layer_1
 62
5
100
AcDbPolyline
 90
4
 70
1
 10
26.755683
 20
9.589416
 30
0.0
 10
26.804666
 20
9.561193
 30
0.0
 10
26.820974
 20
9.589483
 30
0.0
 10
26.755683
 20
9.589416
 30
0.0
  0
LWPOLYLINE
  5
16c
100
AcDbEntity
  8
Layer_1
 62
5
100
AcDbPolyline
 90
4
 70
1
 10
22.889667
 20
16.821309
 30
0.0
 10
24.080391
 20
15.631635
 30
0.0
 10
24.084797
 20
18.017434
 30
0.0
 10
22.889667
 20
16.821309
 30
0.0
  0
LWPOLYLINE
  5
16d
100
AcDbEntity
  8
Layer_1
 62
5
100
AcDbPolyline
 90
4
 70
1
 10
20.127111
 20
21.671058
 30
0.0
 10
21.673714
 20
22.086171
 30
0.0
 10
19.711760
 20
23.218511
 30
0.0
 10
20.127111
 20
21.671058
 30
0.0
  0
LWPOLYLINE
  5
16e
100
AcDbEntity
  8
Layer_1
 62
5
100
AcDbPolyline
 90
5
 70
1
 10
27.284212
 20
9.284910
 30
0.0
 10
27.935510
 20
8.909661
 30
0.0
 10
28.617693
 20
9.591092
 30
0.0
 10
27.460410
 20
9.590056
 30
0.0
 10
27.284212
 20
9.284910
 30
0.0
  0
LWPOLYLINE
  5
16f
100
AcDbEntity
  8
Layer_1
 62
5
100
AcDbPolyline
 90
6
 70
1
 10
15.820935
 20
29.204983
 30
0.0
 10
16.092420
 20
29.205019
 30
0.0
 10
16.684866
 20
30.233315
 30
0.0
 10
15.820888
 20
30.001773
 30
0.0
 10
15.820589
 20
29.585342
 30
0.0
 10
15.820935
 20
29.204983
 30
0.0
  0
LWPOLYLINE
  5
170
100
AcDbEntity
  8
Layer_1
 62
5
100
AcDbPolyline
 90
5
 70
1
 10
15.821275
 20
30.580500
 30
0.0
 10
17.032202
 20
30.904220
 30
0.0
 10
16.702693
 20
32.133849
 30
0.0
 10
15.821983
 20
31.624312
 30
0.0
 10
15.821275
 20
30.580500
 30
0.0
  0
LWPOLYLINE
  5
171
100
AcDbEntity
  8
Layer_1
 62
5
100
AcDbPolyline
 90
5
 70
1
 10
28.544154
 20
8.558999
 30
0.0
 10
29.471222
 20
8.024863
 30
0.0
 10
30.373477
 20
8.546854
 30
0.0
 10
29.452979
 20
9.468400
 30
0.0
 10
28.544154
 20
8.558999
 30
0.0
  0
LWPOLYLINE
  5
172
100
AcDbEntity
  8
Layer_1
 62
5
100
AcDbPolyline
 90
6
 70
1
 10
19.851573
 20
23.763304
 30
0.0
 10
22.413468
 20
22.284702
 30
0.0
 10
22.413588
 20
22.284772
 30
0.0
 10
23.268552
 20
23.765331
 30
0.0
 10
22.415100
 20
25.243885
 30
0.0
 10
19.851573
 20
23.763304
 30
0.0
  0
LWPOLYLINE
  5
173
100
AcDbEntity
  8
Layer_1
 62
5
100
AcDbPolyline
 90
4
 70
1
 10
19.278969
 20
24.830811
 30
0.0
 10
19.621493
 20
26.106245
 30
0.0
 10
18.883643
 20
26.303646
 30
0.0
 10
19.278969
 20
24.830811
 30
0.0
  0
LWPOLYLINE
  5
174
100
AcDbEntity
  8
Layer_1
 62
5
100
AcDbPolyline
 90
4
 70
1
 10
25.292356
 20
14.420733
 30
0.0
 10
26.377705
 20
13.336329
 30
0.0
 10
26.575911
 20
14.077243
 30
0.0
 10
25.292356
 20
14.420733
 30
0.0
  0
LWPOLYLINE
  5
175
100
AcDbEntity
  8
Layer_1
 62
5
100
AcDbPolyline
 90
4
 70
1
 10
27.773401
 20
10.132078
 30
0.0
 10
28.789128
 20
10.132993
 30
0.0
 10
28.145823
 20
10.777009
 30
0.0
 10
27.773401
 20
10.132078
 30
0.0
  0
LWPOLYLINE
  5
176
100
AcDbEntity
  8
Layer_1
 62
5
100
AcDbPolyline
 90
5
 70
1
 10
24.638691
 20
15.567964
 30
0.0
 10
27.160166
 20
17.023466
 30
0.0
 10
26.354143
 20
18.419844
 30
0.0
 10
24.638935
 20
18.419595
 30
0.0
 10
24.638691
 20
15.567964
 30
0.0
  0
LWPOLYLINE
  5
177
100
AcDbEntity
  8
Layer_1
 62
5
100
AcDbPolyline
 90
4
 70
1
 10
16.846174
 20
29.205070
 30
0.0
 10
17.487493
 20
29.205168
 30
0.0
 10
17.284418
 20
29.962941
 30
0.0
 10
16.846174
 20
29.205070
 30
0.0
  0
LWPOLYLINE
  5
178
100
AcDbEntity
  8
Layer_1
 62
5
100
AcDbPolyline
 90
5
 70
1
 10
25.057961
 20
15.052314
 30
0.0
 10
26.020065
 20
14.794534
 30
0.0
 10
26.717865
 20
14.607895
 30
0.0
 10
27.161777
 20
16.267368
 30
0.0
 10
25.057961
 20
15.052314
 30
0.0
  0
LWPOLYLINE
  5
179
100
AcDbEntity
  8
Layer_1
 62
5
100
AcDbPolyline
 90
4
 70
1
 10
19.719153
 20
24.331928
 30
0.0
 10
21.788675
 20
25.526511
 30
0.0
 10
20.155533
 20
25.963396
 30
0.0
 10
19.719153
 20
24.331928
 30
0.0
  0
LWPOLYLINE
  5
17a
100
AcDbEntity
  8
Layer_1
 62
5
100
AcDbPolyline
 90
5
 70
1
 10
14.720040
 20
33.481493
 30
0.0
 10
15.274797
 20
34.036323
 30
0.0
 10
15.273433
 20
35.549447
 30
0.0
 10
15.165830
 20
35.147706
 30
0.0
 10
14.720040
 20
33.481493
 30
0.0
  0
LWPOLYLINE
  5
17b
100
AcDbEntity
  8
Layer_1
 62
5
100
AcDbPolyline
 90
4
 70
1
 10
30.510410
 20
6.146463
 30
0.0
 10
32.527339
 20
5.606872
 30
0.0
 10
31.250648
 20
6.345113
 30
0.0
 10
30.510410
 20
6.146463
 30
0.0
  0
LWPOLYLINE
  5
17c
100
AcDbEntity
  8
Layer_1
 62
5
100
AcDbPolyline
 90
4
 70
1
 10
18.633023
 20
27.237294
 30
0.0
 10
19.980428
 20
28.583194
 30
0.0
 10
18.271725
 20
28.583346
 30
0.0
 10
18.633023
 20
27.237294
 30
0.0
  0
LWPOLYLINE
  5
17d
100
AcDbEntity
  8
Layer_1
 62
5
100
AcDbPolyline
 90
4
 70
1
 10
27.054687
 20
12.659945
 30
0.0
 10
28.030437
 20
11.685062
 30
0.0
 10
28.874961
 20
13.148307
 30
0.0
 10
27.054687
 20
12.659945
 30
0.0
  0
LWPOLYLINE
  5
17e
100
AcDbEntity
  8
Layer_1
 62
5
100
AcDbPolyline
 90
5
 70
1
 10
15.822429
 20
32.274841
 30
0.0
 10
16.552167
 20
32.695498
 30
0.0
 10
16.160736
 20
34.156168
 30
0.0
 10
15.823462
 20
33.818852
 30
0.0
 10
15.822429
 20
32.274841
 30
0.0
  0
LWPOLYLINE
  5
17f
100
AcDbEntity
  8
Layer_1
 62
5
100
AcDbPolyline
 90
5
 70
1
 10
30.013248
 20
7.712586
 30
0.0
 10
31.344798
 20
6.945422
 30
0.0
 10
31.838397
 20
7.080296
 30
0.0
 10
30.769677
 20
8.150233
 30
0.0
 10
30.013248
 20
7.712586
 30
0.0
  0
LWPOLYLINE
  5
180
100
AcDbEntity
  8
Layer_1
 62
5
100
AcDbPolyline
 90
4
 70
1
 10
26.898344
 20
13.186113
 30
0.0
 10
28.399854
 20
13.589146
 30
0.0
 10
27.099259
 20
13.937188
 30
0.0
 10
26.898344
 20
13.186113
 30
0.0
  0
LWPOLYLINE
  5
181
100
AcDbEntity
  8
Layer_1
 62
5
100
AcDbPolyline
 90
4
 70
1
 10
19.028550
 20
26.844071
 30
0.0
 10
19.766607
 20
26.646629
 30
0.0
 10
20.110429
 20
27.926904
 30
0.0
 10
19.028550
 20
26.844071
 30
0.0
  0
LWPOLYLINE
  5
182
100
AcDbEntity
  8
Layer_1
 62
5
100
AcDbPolyline
 90
5
 70
1
 10
28.436174
 20
11.279686
 30
0.0
 10
29.372067
 20
10.344616
 30
0.0
 10
30.414437
 20
11.385789
 30
0.0
 10
29.456110
 20
13.045967
 30
0.0
 10
28.436174
 20
11.279686
 30
0.0
  0
LWPOLYLINE
  5
183
100
AcDbEntity
  8
Layer_1
 62
5
100
AcDbPolyline
 90
5
 70
1
 10
18.104783
 20
29.205276
 30
0.0
 10
20.128214
 20
29.205555
 30
0.0
 10
19.153170
 20
30.894770
 30
0.0
 10
17.752083
 20
30.519304
 30
0.0
 10
18.104783
 20
29.205276
 30
0.0
  0
LWPOLYLINE
  5
184
100
AcDbEntity
  8
Layer_1
 62
5
100
AcDbPolyline
 90
4
 70
1
 10
27.241227
 20
14.467892
 30
0.0
 10
28.889875
 20
14.026925
 30
0.0
 10
27.682697
 20
16.118208
 30
0.0
 10
27.241227
 20
14.467892
 30
0.0
  0
LWPOLYLINE
  5
185
100
AcDbEntity
  8
Layer_1
 62
5
100
AcDbPolyline
 90
4
 70
1
 10
20.300114
 20
26.503910
 30
0.0
 10
21.941095
 20
26.064954
 30
0.0
 10
20.739491
 20
28.146582
 30
0.0
 10
20.300114
 20
26.503910
 30
0.0
  0
LWPOLYLINE
  5
186
100
AcDbEntity
  8
Layer_1
 62
5
100
AcDbPolyline
 90
5
 70
1
 10
30.124886
 20
9.592457
 30
0.0
 10
30.878797
 20
8.839206
 30
0.0
 10
31.632644
 20
9.275354
 30
0.0
 10
31.448885
 20
9.593634
 30
0.0
 10
30.124886
 20
9.592457
 30
0.0
  0
LWPOLYLINE
  5
187
100
AcDbEntity
  8
Layer_1
 62
5
100
AcDbPolyline
 90
6
 70
1
 10
17.465263
 20
31.587771
 30
0.0
 10
18.108591
 20
32.704358
 30
0.0
 10
18.003468
 20
32.886437
 30
0.0
 10
17.236582
 20
32.442730
 30
0.0
 10
17.438544
 20
31.687323
 30
0.0
 10
17.465263
 20
31.587771
 30
0.0
  0
LWPOLYLINE
  5
188
100
AcDbEntity
  8
Layer_1
 62
5
100
AcDbPolyline
 90
4
 70
1
 10
15.823993
 20
34.585576
 30
0.0
 10
15.998817
 20
34.760439
 30
0.0
 10
15.824543
 20
35.410754
 30
0.0
 10
15.823993
 20
34.585576
 30
0.0
  0
LWPOLYLINE
  5
189
100
AcDbEntity
  8
Layer_1
 62
5
100
AcDbPolyline
 90
4
 70
1
 10
24.639006
 20
19.338628
 30
0.0
 10
25.295623
 20
19.995783
 30
0.0
 10
24.639099
 20
20.374707
 30
0.0
 10
24.639006
 20
19.338628
 30
0.0
  0
LWPOLYLINE
  5
18a
100
AcDbEntity
  8
Layer_1
 62
5
100
AcDbPolyline
 90
4
 70
1
 10
32.025687
 20
6.553121
 30
0.0
 10
32.824923
 20
6.092645
 30
0.0
 10
32.293259
 20
6.624917
 30
0.0
 10
32.025687
 20
6.553121
 30
0.0
  0
LWPOLYLINE
  5
18b
100
AcDbEntity
  8
Layer_1
 62
5
100
AcDbPolyline
 90
4
 70
1
 10
23.241373
 20
21.806897
 30
0.0
 10
24.090883
 20
21.316600
 30
0.0
 10
24.092210
 20
22.035241
 30
0.0
 10
23.241373
 20
21.806897
 30
0.0
  0
LWPOLYLINE
  5
18c
100
AcDbEntity
  8
Layer_1
 62
5
100
AcDbPolyline
 90
4
 70
1
 10
17.974381
 20
31.156109
 30
0.0
 10
18.864858
 20
31.394191
 30
0.0
 10
18.488851
 20
32.045732
 30
0.0
 10
17.974381
 20
31.156109
 30
0.0
  0
LWPOLYLINE
  5
18d
100
AcDbEntity
  8
Layer_1
 62
5
100
AcDbPolyline
 90
4
 70
1
 10
30.118349
 20
10.134201
 30
0.0
 10
31.136352
 20
10.135119
 30
0.0
 10
30.764037
 20
10.780265
 30
0.0
 10
30.118349
 20
10.134201
 30
0.0
  0
LWPOLYLINE
  5
18e
100
AcDbEntity
  8
Layer_1
 62
5
100
AcDbPolyline
 90
4
 70
1
 10
25.027956
 20
18.961375
 30
0.0
 10
26.041463
 20
18.961514
 30
0.0
 10
25.670462
 20
19.604383
 30
0.0
 10
25.027956
 20
18.961375
 30
0.0
  0
LWPOLYLINE
  5
18f
100
AcDbEntity
  8
Layer_1
 62
5
100
AcDbPolyline
 90
5
 70
1
 10
17.086648
 20
33.003588
 30
0.0
 10
17.723837
 20
33.370892
 30
0.0
 10
16.864363
 20
34.859877
 30
0.0
 10
16.648192
 20
34.643671
 30
0.0
 10
17.086648
 20
33.003588
 30
0.0
  0
LWPOLYLINE
  5
190
100
AcDbEntity
  8
Layer_1
 62
5
100
AcDbPolyline
 90
5
 70
1
 10
31.275483
 20
8.442855
 30
0.0
 10
32.467242
 20
7.252147
 30
0.0
 10
32.755100
 20
7.330806
 30
0.0
 10
31.903468
 20
8.806182
 30
0.0
 10
31.275483
 20
8.442855
 30
0.0
  0
LWPOLYLINE
  5
191
100
AcDbEntity
  8
Layer_1
 62
5
100
AcDbPolyline
 90
4
 70
1
 10
23.175570
 20
22.489241
 30
0.0
 10
23.893845
 20
22.682017
 30
0.0
 10
23.590271
 20
23.207822
 30
0.0
 10
23.175570
 20
22.489241
 30
0.0
  0
LWPOLYLINE
  5
192
100
AcDbEntity
  8
Layer_1
 62
5
100
AcDbPolyline
 90
4
 70
1
 10
24.639140
 20
21.000174
 30
0.0
 10
24.977311
 20
20.804998
 30
0.0
 10
24.639238
 20
21.390835
 30
0.0
 10
24.639140
 20
21.000174
 30
0.0
  0
LWPOLYLINE
  5
193
100
AcDbEntity
  8
Layer_1
 62
5
100
AcDbPolyline
 90
4
 70
1
 10
16.486559
 20
35.248234
 30
0.0
 10
16.583939
 20
35.345650
 30
0.0
 10
16.353984
 20
35.743943
 30
0.0
 10
16.486559
 20
35.248234
 30
0.0
  0
LWPOLYLINE
  5
194
100
AcDbEntity
  8
Layer_1
 62
5
100
AcDbPolyline
 90
4
 70
1
 10
32.925258
 20
6.794523
 30
0.0
 10
33.254617
 20
6.465460
 30
0.0
 10
33.045934
 20
6.826908
 30
0.0
 10
32.925258
 20
6.794523
 30
0.0
  0
LWPOLYLINE
  5
195
100
AcDbEntity
  8
Layer_1
 62
5
100
AcDbPolyline
 90
4
 70
1
 10
16.883153
 20
35.932797
 30
0.0
 10
16.988524
 20
35.750288
 30
0.0
 10
17.027129
 20
35.788897
 30
0.0
 10
16.883153
 20
35.932797
 30
0.0
  0
LWPOLYLINE
  5
196
100
AcDbEntity
  8
Layer_1
 62
5
100
AcDbPolyline
 90
5
 70
1
 10
17.269075
 20
35.264637
 30
0.0
 10
18.203209
 20
33.647225
 30
0.0
 10
18.816696
 20
34.000876
 30
0.0
 10
17.410409
 20
35.406010
 30
0.0
 10
17.269075
 20
35.264637
 30
0.0
  0
LWPOLYLINE
  5
197
100
AcDbEntity
  8
Layer_1
 62
5
100
AcDbPolyline
 90
5
 70
1
 10
18.808682
 20
32.598877
 30
0.0
 10
19.418914
 20
31.542313
 30
0.0
 10
20.885001
 20
31.934273
 30
0.0
 10
19.325455
 20
33.492544
 30
0.0
 10
18.808682
 20
32.598877
 30
0.0
  0
LWPOLYLINE
  5
198
100
AcDbEntity
  8
Layer_1
 62
5
100
AcDbPolyline
 90
4
 70
1
 10
19.707137
 20
31.043207
 30
0.0
 10
20.553683
 20
29.577447
 30
0.0
 10
21.043496
 20
31.401323
 30
0.0
 10
19.707137
 20
31.043207
 30
0.0
  0
LWPOLYLINE
  5
199
100
AcDbEntity
  8
Layer_1
 62
5
100
AcDbPolyline
 90
5
 70
1
 10
21.127982
 20
28.583121
 30
0.0
 10
22.617142
 20
26.004736
 30
0.0
 10
24.097920
 20
26.859472
 30
0.0
 10
24.098073
 20
28.582864
 30
0.0
 10
21.127982
 20
28.583121
 30
0.0
  0
LWPOLYLINE
  5
19a
100
AcDbEntity
  8
Layer_1
 62
5
100
AcDbPolyline
 90
4
 70
1
 10
23.095154
 20
25.177017
 30
0.0
 10
23.589497
 20
24.321096
 30
0.0
 10
23.951478
 20
24.947954
 30
0.0
 10
23.095154
 20
25.177017
 30
0.0
  0
LWPOLYLINE
  5
19b
100
AcDbEntity
  8
Layer_1
 62
5
100
AcDbPolyline
 90
4
 70
1
 10
23.911258
 20
23.763956
 30
0.0
 10
24.094899
 20
23.446158
 30
0.0
 10
24.096076
 20
24.084075
 30
0.0
 10
23.911258
 20
23.763956
 30
0.0
  0
LWPOLYLINE
  5
19c
100
AcDbEntity
  8
Layer_1
 62
5
100
AcDbPolyline
 90
4
 70
1
 10
24.799973
 20
22.225212
 30
0.0
 10
25.797476
 20
20.498070
 30
0.0
 10
28.521099
 20
23.223930
 30
0.0
 10
24.799973
 20
22.225212
 30
0.0
  0
LWPOLYLINE
  5
19d
100
AcDbEntity
  8
Layer_1
 62
5
100
AcDbPolyline
 90
4
 70
1
 10
26.483538
 20
19.310192
 30
0.0
 10
26.684927
 20
18.961655
 30
0.0
 10
27.087475
 20
18.961710
 30
0.0
 10
26.483538
 20
19.310192
 30
0.0
  0
LWPOLYLINE
  5
19e
100
AcDbEntity
  8
Layer_1
 62
5
100
AcDbPolyline
 90
4
 70
1
 10
26.997721
 20
18.419935
 30
0.0
 10
27.503412
 20
17.544357
 30
0.0
 10
27.737678
 20
18.420061
 30
0.0
 10
26.997721
 20
18.419935
 30
0.0
  0
LWPOLYLINE
  5
19f
100
AcDbEntity
  8
Layer_1
 62
5
100
AcDbPolyline
 90
5
 70
1
 10
27.971004
 20
16.734714
 30
0.0
 10
29.458462
 20
14.159278
 30
0.0
 10
30.945132
 20
16.735188
 30
0.0
 10
29.457939
 20
17.593518
 30
0.0
 10
27.971004
 20
16.734714
 30
0.0
  0
LWPOLYLINE
  5
1a0
100
AcDbEntity
  8
Layer_1
 62
5
100
AcDbPolyline
 90
4
 70
1
 10
30.041466
 20
13.149818
 30
0.0
 10
30.823997
 20
11.794909
 30
0.0
 10
31.728486
 20
12.698362
 30
0.0
 10
30.041466
 20
13.149818
 30
0.0
  0
LWPOLYLINE
  5
1a1
100
AcDbEntity
  8
Layer_1
 62
5
100
AcDbPolyline
 90
5
 70
1
 10
31.173402
 20
11.189915
 30
0.0
 10
31.782247
 20
10.135699
 30
0.0
 10
32.783937
 20
10.136601
 30
0.0
 10
32.220142
 20
12.237310
 30
0.0
 10
31.173402
 20
11.189915
 30
0.0
  0
LWPOLYLINE
  5
1a2
100
AcDbEntity
  8
Layer_1
 62
5
100
AcDbPolyline
 90
4
 70
1
 10
32.094985
 20
9.594243
 30
0.0
 10
32.117222
 20
9.555727
 30
0.0
 10
32.183891
 20
9.594378
 30
0.0
 10
32.094985
 20
9.594243
 30
0.0
  0
LWPOLYLINE
  5
1a3
100
AcDbEntity
  8
Layer_1
 62
5
100
AcDbPolyline
 90
5
 70
1
 10
32.388217
 20
9.086627
 30
0.0
 10
33.314070
 20
7.483558
 30
0.0
 10
33.483614
 20
7.529885
 30
0.0
 10
32.974729
 20
9.425961
 30
0.0
 10
32.388217
 20
9.086627
 30
0.0
  0
LWPOLYLINE
  5
1a4
100
AcDbEntity
  8
Layer_1
 62
5
100
AcDbPolyline
 90
4
 70
1
 10
33.606427
 20
6.977348
 30
0.0
 10
33.654027
 20
6.894902
 30
0.0
 10
33.630198
 20
6.983714
 30
0.0
 10
33.606427
 20
6.977348
 30
0.0
  0
LWPOLYLINE
  5
1a5
100
AcDbEntity
  8
Layer_1
 62
5
100
AcDbPolyline
 90
4
 70
1
 10
26.177811
 20
20.112166
 30
0.0
 10
27.921158
 20
19.105992
 30
0.0
 10
28.926113
 20
22.862733
 30
0.0
 10
26.177811
 20
20.112166
 30
0.0
  0
LWPOLYLINE
  5
1a6
100
AcDbEntity
  8
Layer_1
 62
5
100
AcDbPolyline
 90
4
 70
1
 10
24.639336
 20
22.882115
 30
0.0
 10
28.150939
 20
23.824576
 30
0.0
 10
24.639496
 20
24.763919
 30
0.0
 10
24.639336
 20
22.882115
 30
0.0
  0
LWPOLYLINE
  5
1a7
100
AcDbEntity
  8
Layer_1
 62
5
100
AcDbPolyline
 90
4
 70
1
 10
23.236722
 20
25.718388
 30
0.0
 10
24.097824
 20
25.488036
 30
0.0
 10
24.097874
 20
26.215735
 30
0.0
 10
23.236722
 20
25.718388
 30
0.0
  0
LWPOLYLINE
  5
1a8
100
AcDbEntity
  8
Layer_1
 62
5
100
AcDbPolyline
 90
4
 70
1
 10
30.021117
 20
14.024331
 30
0.0
 10
31.624982
 20
14.454849
 30
0.0
 10
31.194962
 20
16.057095
 30
0.0
 10
30.021117
 20
14.024331
 30
0.0
  0
LWPOLYLINE
  5
1a9
100
AcDbEntity
  8
Layer_1
 62
5
100
AcDbPolyline
 90
4
 70
1
 10
28.064547
 20
17.545516
 30
0.0
 10
28.802826
 20
17.971601
 30
0.0
 10
28.262062
 20
18.283685
 30
0.0
 10
28.064547
 20
17.545516
 30
0.0
  0
LWPOLYLINE
  5
1aa
100
AcDbEntity
  8
Layer_1
 62
5
100
AcDbPolyline
 90
4
 70
1
 10
17.202936
 20
36.404285
 30
0.0
 10
17.422803
 20
36.184597
 30
0.0
 10
17.481575
 20
36.243379
 30
0.0
 10
17.202936
 20
36.404285
 30
0.0
  0
LWPOLYLINE
  5
1ab
100
AcDbEntity
  8
Layer_1
 62
5
100
AcDbPolyline
 90
4
 70
1
 10
34.262301
 20
6.871530
 30
0.0
 10
34.262268
 20
7.153360
 30
0.0
 10
34.191759
 20
7.134421
 30
0.0
 10
34.262301
 20
6.871530
 30
0.0
  0
LWPOLYLINE
  5
1ac
100
AcDbEntity
  8
Layer_1
 62
5
100
AcDbPolyline
 90
4
 70
1
 10
21.388178
 20
29.205762
 30
0.0
 10
23.615458
 20
29.206082
 30
0.0
 10
22.501036
 20
30.319584
 30
0.0
 10
21.388178
 20
29.205762
 30
0.0
  0
LWPOLYLINE
  5
1ad
100
AcDbEntity
  8
Layer_1
 62
5
100
AcDbPolyline
 90
4
 70
1
 10
21.175638
 20
29.777069
 30
0.0
 10
22.109964
 20
30.710346
 30
0.0
 10
21.569657
 20
31.250181
 30
0.0
 10
21.175638
 20
29.777069
 30
0.0
  0
LWPOLYLINE
  5
1ae
100
AcDbEntity
  8
Layer_1
 62
5
100
AcDbPolyline
 90
4
 70
1
 10
30.522365
 20
13.590286
 30
0.0
 10
31.960244
 20
13.205693
 30
0.0
 10
31.767369
 20
13.924301
 30
0.0
 10
30.522365
 20
13.590286
 30
0.0
  0
LWPOLYLINE
  5
1af
100
AcDbEntity
  8
Layer_1
 62
5
100
AcDbPolyline
 90
5
 70
1
 10
17.806034
 20
35.801674
 30
0.0
 10
19.130598
 20
34.478203
 30
0.0
 10
19.482037
 20
35.088169
 30
0.0
 10
17.967255
 20
35.962913
 30
0.0
 10
17.806034
 20
35.801674
 30
0.0
  0
LWPOLYLINE
  5
1b0
100
AcDbEntity
  8
Layer_1
 62
5
100
AcDbPolyline
 90
5
 70
1
 10
34.044477
 20
7.683155
 30
0.0
 10
34.262171
 20
7.742636
 30
0.0
 10
34.261893
 20
9.596211
 30
0.0
 10
33.531203
 20
9.595548
 30
0.0
 10
34.044477
 20
7.683155
 30
0.0
  0
LWPOLYLINE
  5
1b1
100
AcDbEntity
  8
Layer_1
 62
5
100
AcDbPolyline
 90
4
 70
1
 10
34.814956
 20
6.844944
 30
0.0
 10
34.946801
 20
7.337044
 30
0.0
 10
34.814997
 20
7.301680
 30
0.0
 10
34.814956
 20
6.844944
 30
0.0
  0
LWPOLYLINE
  5
1b2
100
AcDbEntity
  8
Layer_1
 62
5
100
AcDbPolyline
 90
4
 70
1
 10
17.518519
 20
36.847648
 30
0.0
 10
17.878129
 20
36.639978
 30
0.0
 10
17.966055
 20
36.727934
 30
0.0
 10
17.518519
 20
36.847648
 30
0.0
  0
LWPOLYLINE
  5
1b3
100
AcDbEntity
  8
Layer_1
 62
5
100
AcDbPolyline
 90
5
 70
1
 10
33.350402
 20
10.269198
 30
0.0
 10
34.261725
 20
10.796425
 30
0.0
 10
34.261538
 20
12.020518
 30
0.0
 10
32.773477
 20
12.418732
 30
0.0
 10
33.350402
 20
10.269198
 30
0.0
  0
LWPOLYLINE
  5
1b4
100
AcDbEntity
  8
Layer_1
 62
5
100
AcDbPolyline
 90
5
 70
1
 10
19.726168
 20
33.883108
 30
0.0
 10
21.290306
 20
32.320269
 30
0.0
 10
21.691052
 20
33.812551
 30
0.0
 10
20.646650
 20
34.415652
 30
0.0
 10
19.726168
 20
33.883108
 30
0.0
  0
LWPOLYLINE
  5
1b5
100
AcDbEntity
  8
Layer_1
 62
5
100
AcDbPolyline
 90
5
 70
1
 10
18.363813
 20
36.359514
 30
0.0
 10
19.752489
 20
35.557588
 30
0.0
 10
20.098191
 20
36.157623
 30
0.0
 10
18.570516
 20
36.566254
 30
0.0
 10
18.363813
 20
36.359514
 30
0.0
  0
LWPOLYLINE
  5
1b6
100
AcDbEntity
  8
Layer_1
 62
5
100
AcDbPolyline
 90
5
 70
1
 10
34.815056
 20
7.893714
 30
0.0
 10
35.118122
 20
7.976532
 30
0.0
 10
35.552383
 20
9.597378
 30
0.0
 10
34.815209
 20
9.596717
 30
0.0
 10
34.815056
 20
7.893714
 30
0.0
  0
LWPOLYLINE
  5
1b7
100
AcDbEntity
  8
Layer_1
 62
5
100
AcDbPolyline
 90
4
 70
1
 10
28.443436
 20
18.961894
 30
0.0
 10
30.415250
 20
18.962186
 30
0.0
 10
29.427753
 20
22.641503
 30
0.0
 10
28.443436
 20
18.961894
 30
0.0
  0
LWPOLYLINE
  5
1b8
100
AcDbEntity
  8
Layer_1
 62
5
100
AcDbPolyline
 90
4
 70
1
 10
24.798198
 20
25.300676
 30
0.0
 10
28.520682
 20
24.304885
 30
0.0
 10
25.795201
 20
27.028131
 30
0.0
 10
24.798198
 20
25.300676
 30
0.0
  0
LWPOLYLINE
  5
1b9
100
AcDbEntity
  8
Layer_1
 62
5
100
AcDbPolyline
 90
4
 70
1
 10
17.920253
 20
37.385508
 30
0.0
 10
18.475083
 20
37.237031
 30
0.0
 10
18.624178
 20
37.386143
 30
0.0
 10
17.920253
 20
37.385508
 30
0.0
  0
LWPOLYLINE
  5
1ba
100
AcDbEntity
  8
Layer_1
 62
5
100
AcDbPolyline
 90
4
 70
1
 10
35.847776
 20
6.466754
 30
0.0
 10
37.366178
 20
7.986341
 30
0.0
 10
36.605681
 20
7.782248
 30
0.0
 10
35.847776
 20
6.466754
 30
0.0
  0
LWPOLYLINE
  5
1bb
100
AcDbEntity
  8
Layer_1
 62
5
100
AcDbPolyline
 90
4
 70
1
 10
35.473868
 20
7.167138
 30
0.0
 10
35.686995
 20
7.535694
 30
0.0
 10
35.563635
 20
7.502584
 30
0.0
 10
35.473868
 20
7.167138
 30
0.0
  0
LWPOLYLINE
  5
1bc
100
AcDbEntity
  8
Layer_1
 62
5
100
AcDbPolyline
 90
4
 70
1
 10
17.719195
 20
37.954846
 30
0.0
 10
19.191816
 20
37.953859
 30
0.0
 10
19.733255
 20
38.495369
 30
0.0
 10
17.719195
 20
37.954846
 30
0.0
  0
LWPOLYLINE
  5
1bd
100
AcDbEntity
  8
Layer_1
 62
5
100
AcDbPolyline
 90
4
 70
1
 10
17.490784
 20
38.460278
 30
0.0
 10
20.508103
 20
39.270323
 30
0.0
 10
22.712576
 20
41.475081
 30
0.0
 10
17.490784
 20
38.460278
 30
0.0
  0
LWPOLYLINE
  5
1be
100
AcDbEntity
  8
Layer_1
 62
5
100
AcDbPolyline
 90
4
 70
1
 10
36.225672
 20
6.068591
 30
0.0
 10
41.441707
 20
9.080070
 30
0.0
 10
38.425632
 20
8.270654
 30
0.0
 10
36.225672
 20
6.068591
 30
0.0
  0
LWPOLYLINE
  5
1bf
100
AcDbEntity
  8
Layer_1
 62
5
100
AcDbPolyline
 90
4
 70
1
 10
24.641573
 20
26.142990
 30
0.0
 10
24.976686
 20
26.723302
 30
0.0
 10
24.642339
 20
26.530106
 30
0.0
 10
24.641573
 20
26.142990
 30
0.0
  0
LWPOLYLINE
  5
1c0
100
AcDbEntity
  8
Layer_1
 62
5
100
AcDbPolyline
 90
4
 70
1
 10
29.109279
 20
18.420267
 30
0.0
 10
29.344617
 20
18.284427
 30
0.0
 10
29.580057
 20
18.420358
 30
0.0
 10
29.109279
 20
18.420267
 30
0.0
  0
LWPOLYLINE
  5
1c1
100
AcDbEntity
  8
Layer_1
 62
5
100
AcDbPolyline
 90
4
 70
1
 10
20.020751
 20
34.694950
 30
0.0
 10
20.091903
 20
34.736030
 30
0.0
 10
20.056323
 20
34.756566
 30
0.0
 10
20.020751
 20
34.694950
 30
0.0
  0
LWPOLYLINE
  5
1c2
100
AcDbEntity
  8
Layer_1
 62
5
100
AcDbPolyline
 90
4
 70
1
 10
34.205298
 20
10.137903
 30
0.0
 10
34.261814
 20
10.137959
 30
0.0
 10
34.261818
 20
10.170602
 30
0.0
 10
34.205298
 20
10.137903
 30
0.0
  0
LWPOLYLINE
  5
1c3
100
AcDbEntity
  8
Layer_1
 62
5
100
AcDbPolyline
 90
4
 70
1
 10
21.963304
 20
31.647836
 30
0.0
 10
22.505834
 20
31.105746
 30
0.0
 10
23.446429
 20
32.045288
 30
0.0
 10
21.963304
 20
31.647836
 30
0.0
  0
LWPOLYLINE
  5
1c4
100
AcDbEntity
  8
Layer_1
 62
5
100
AcDbPolyline
 90
4
 70
1
 10
32.493376
 20
13.462372
 30
0.0
 10
33.392261
 20
14.360247
 30
0.0
 10
32.328965
 20
14.074983
 30
0.0
 10
32.493376
 20
13.462372
 30
0.0
  0
LWPOLYLINE
  5
1c5
100
AcDbEntity
  8
Layer_1
 62
5
100
AcDbPolyline
 90
4
 70
1
 10
24.643479
 20
27.174414
 30
0.0
 10
25.280713
 20
27.542160
 30
0.0
 10
24.645370
 20
28.177001
 30
0.0
 10
24.643479
 20
27.174414
 30
0.0
  0
LWPOLYLINE
  5
1c6
100
AcDbEntity
  8
Layer_1
 62
5
100
AcDbPolyline
 90
4
 70
1
 10
29.999643
 20
17.906385
 30
0.0
 10
30.826738
 20
17.429030
 30
0.0
 10
30.604809
 20
18.255893
 30
0.0
 10
29.999643
 20
17.906385
 30
0.0
  0
LWPOLYLINE
  5
1c7
100
AcDbEntity
  8
Layer_1
 62
5
100
AcDbPolyline
 90
4
 70
1
 10
21.819467
 20
32.184121
 30
0.0
 10
23.659298
 20
32.675958
 30
0.0
 10
22.179587
 20
33.530448
 30
0.0
 10
21.819467
 20
32.184121
 30
0.0
  0
LWPOLYLINE
  5
1c8
100
AcDbEntity
  8
Layer_1
 62
5
100
AcDbPolyline
 90
4
 70
1
 10
32.928984
 20
12.946571
 30
0.0
 10
34.261459
 20
12.590177
 30
0.0
 10
34.261202
 20
14.279635
 30
0.0
 10
32.928984
 20
12.946571
 30
0.0
  0
LWPOLYLINE
  5
1c9
100
AcDbEntity
  8
Layer_1
 62
5
100
AcDbPolyline
 90
5
 70
1
 10
35.735626
 20
8.145286
 30
0.0
 10
36.096512
 20
8.243901
 30
0.0
 10
36.879867
 20
9.598570
 30
0.0
 10
36.124359
 20
9.597896
 30
0.0
 10
35.735626
 20
8.145286
 30
0.0
  0
LWPOLYLINE
  5
1ca
100
AcDbEntity
  8
Layer_1
 62
5
100
AcDbPolyline
 90
5
 70
1
 10
19.079477
 20
37.075287
 30
0.0
 10
20.420158
 20
36.716506
 30
0.0
 10
20.807104
 20
37.388119
 30
0.0
 10
19.390987
 20
37.386833
 30
0.0
 10
19.079477
 20
37.075287
 30
0.0
  0
LWPOLYLINE
  5
1cb
100
AcDbEntity
  8
Layer_1
 62
5
100
AcDbPolyline
 90
4
 70
1
 10
32.186547
 20
14.605583
 30
0.0
 10
33.857756
 20
15.054156
 30
0.0
 10
31.737758
 20
16.277724
 30
0.0
 10
32.186547
 20
14.605583
 30
0.0
  0
LWPOLYLINE
  5
1cc
100
AcDbEntity
  8
Layer_1
 62
5
100
AcDbPolyline
 90
4
 70
1
 10
22.896497
 20
30.715412
 30
0.0
 10
24.098155
 20
29.514721
 30
0.0
 10
24.098353
 20
31.918319
 30
0.0
 10
22.896497
 20
30.715412
 30
0.0
  0
LWPOLYLINE
  5
1cd
100
AcDbEntity
  8
Layer_1
 62
5
100
AcDbPolyline
 90
5
 70
1
 10
20.327551
 20
35.225515
 30
0.0
 10
20.634084
 20
35.048507
 30
0.0
 10
21.778461
 20
35.708187
 30
0.0
 10
20.763637
 20
35.979643
 30
0.0
 10
20.327551
 20
35.225515
 30
0.0
  0
LWPOLYLINE
  5
1ce
100
AcDbEntity
  8
Layer_1
 62
5
100
AcDbPolyline
 90
5
 70
1
 10
34.815247
 20
10.138462
 30
0.0
 10
35.697562
 20
10.139246
 30
0.0
 10
35.970883
 20
11.159402
 30
0.0
 10
34.815284
 20
10.490805
 30
0.0
 10
34.815247
 20
10.138462
 30
0.0
  0
LWPOLYLINE
  5
1cf
100
AcDbEntity
  8
Layer_1
 62
5
100
AcDbPolyline
 90
4
 70
1
 10
34.815341
 20
11.116728
 30
0.0
 10
35.708268
 20
11.633333
 30
0.0
 10
34.815399
 20
11.872286
 30
0.0
 10
34.815341
 20
11.116728
 30
0.0
  0
LWPOLYLINE
  5
1d0
100
AcDbEntity
  8
Layer_1
 62
5
100
AcDbPolyline
 90
4
 70
1
 10
21.187804
 20
34.728753
 30
0.0
 10
21.836495
 20
34.354158
 30
0.0
 10
22.074929
 20
35.241993
 30
0.0
 10
21.187804
 20
34.728753
 30
0.0
  0
LWPOLYLINE
  5
1d1
100
AcDbEntity
  8
Layer_1
 62
5
100
AcDbPolyline
 90
5
 70
1
 10
31.697110
 20
16.926686
 30
0.0
 10
34.261029
 20
15.446932
 30
0.0
 10
34.260590
 20
18.421034
 30
0.0
 10
32.559896
 20
18.420774
 30
0.0
 10
31.697110
 20
16.926686
 30
0.0
  0
LWPOLYLINE
  5
1d2
100
AcDbEntity
  8
Layer_1
 62
5
100
AcDbPolyline
 90
5
 70
1
 10
24.647239
 20
29.206221
 30
0.0
 10
26.410652
 20
29.206509
 30
0.0
 10
27.225084
 20
30.616843
 30
0.0
 10
24.652586
 20
32.102379
 30
0.0
 10
24.647239
 20
29.206221
 30
0.0
  0
LWPOLYLINE
  5
1d3
100
AcDbEntity
  8
Layer_1
 62
5
100
AcDbPolyline
 90
4
 70
1
 10
31.402366
 20
17.527379
 30
0.0
 10
31.917942
 20
18.420700
 30
0.0
 10
31.162649
 20
18.420567
 30
0.0
 10
31.402366
 20
17.527379
 30
0.0
  0
LWPOLYLINE
  5
1d4
100
AcDbEntity
  8
Layer_1
 62
5
100
AcDbPolyline
 90
4
 70
1
 10
25.030879
 20
28.582787
 30
0.0
 10
25.677435
 20
27.936763
 30
0.0
 10
26.050447
 20
28.582702
 30
0.0
 10
25.030879
 20
28.582787
 30
0.0
  0
LWPOLYLINE
  5
1d5
100
AcDbEntity
  8
Layer_1
 62
5
100
AcDbPolyline
 90
5
 70
1
 10
19.957397
 20
37.953335
 30
0.0
 10
21.132289
 20
37.952538
 30
0.0
 10
21.758111
 20
39.038768
 30
0.0
 10
20.780325
 20
38.776368
 30
0.0
 10
19.957397
 20
37.953335
 30
0.0
  0
LWPOLYLINE
  5
1d6
100
AcDbEntity
  8
Layer_1
 62
5
100
AcDbPolyline
 90
5
 70
1
 10
37.016513
 20
8.495306
 30
0.0
 10
38.197120
 20
8.817910
 30
0.0
 10
38.979065
 20
9.600479
 30
0.0
 10
37.652571
 20
9.599284
 30
0.0
 10
37.016513
 20
8.495306
 30
0.0
  0
LWPOLYLINE
  5
1d7
100
AcDbEntity
  8
Layer_1
 62
5
100
AcDbPolyline
 90
5
 70
1
 10
22.324524
 20
34.072337
 30
0.0
 10
24.098476
 20
33.047950
 30
0.0
 10
24.098634
 20
35.087585
 30
0.0
 10
22.696416
 20
35.462654
 30
0.0
 10
22.324524
 20
34.072337
 30
0.0
  0
LWPOLYLINE
  5
1d8
100
AcDbEntity
  8
Layer_1
 62
5
100
AcDbPolyline
 90
5
 70
1
 10
34.815433
 20
12.441988
 30
0.0
 10
36.214252
 20
12.067832
 30
0.0
 10
36.591609
 20
13.476316
 30
0.0
 10
34.815612
 20
14.501337
 30
0.0
 10
34.815433
 20
12.441988
 30
0.0
  0
LWPOLYLINE
  5
1d9
100
AcDbEntity
  8
Layer_1
 62
5
100
AcDbPolyline
 90
4
 70
1
 10
26.190370
 20
27.424274
 30
0.0
 10
28.860033
 20
24.756776
 30
0.0
 10
27.881889
 20
28.401218
 30
0.0
 10
26.190370
 20
27.424274
 30
0.0
  0
LWPOLYLINE
  5
1da
100
AcDbEntity
  8
Layer_1
 62
5
100
AcDbPolyline
 90
4
 70
1
 10
30.950404
 20
19.211345
 30
0.0
 10
32.641498
 20
20.187475
 30
0.0
 10
29.972755
 20
22.854013
 30
0.0
 10
30.950404
 20
19.211345
 30
0.0
  0
LWPOLYLINE
  5
1db
100
AcDbEntity
  8
Layer_1
 62
5
100
AcDbPolyline
 90
5
 70
1
 10
36.269375
 20
10.139765
 30
0.0
 10
37.193294
 20
10.140592
 30
0.0
 10
37.741802
 20
11.089154
 30
0.0
 10
36.604868
 20
11.393414
 30
0.0
 10
36.269375
 20
10.139765
 30
0.0
  0
LWPOLYLINE
  5
1dc
100
AcDbEntity
  8
Layer_1
 62
5
100
AcDbPolyline
 90
6
 70
1
 10
21.086576
 20
36.538114
 30
0.0
 10
22.333401
 20
36.204450
 30
0.0
 10
22.493591
 20
36.800984
 30
0.0
 10
22.651081
 20
37.389774
 30
0.0
 10
21.578488
 20
37.388808
 30
0.0
 10
21.086576
 20
36.538114
 30
0.0
  0
LWPOLYLINE
  5
1dd
100
AcDbEntity
  8
Layer_1
 62
5
100
AcDbPolyline
 90
4
 70
1
 10
31.828122
 20
18.962403
 30
0.0
 10
32.230628
 20
18.962454
 30
0.0
 10
32.431823
 20
19.311065
 30
0.0
 10
31.828122
 20
18.962403
 30
0.0
  0
LWPOLYLINE
  5
1de
100
AcDbEntity
  8
Layer_1
 62
5
100
AcDbPolyline
 90
4
 70
1
 10
26.497196
 20
28.244451
 30
0.0
 10
27.083086
 20
28.582554
 30
0.0
 10
26.692422
 20
28.582580
 30
0.0
 10
26.497196
 20
28.244451
 30
0.0
  0
LWPOLYLINE
  5
1df
100
AcDbEntity
  8
Layer_1
 62
5
100
AcDbPolyline
 90
4
 70
1
 10
29.447410
 20
24.811404
 30
0.0
 10
30.456150
 20
28.582330
 30
0.0
 10
28.435273
 20
28.582490
 30
0.0
 10
29.447410
 20
24.811404
 30
0.0
  0
LWPOLYLINE
  5
1e0
100
AcDbEntity
  8
Layer_1
 62
5
100
AcDbPolyline
 90
4
 70
1
 10
30.393364
 20
23.224723
 30
0.0
 10
33.118863
 20
20.501486
 30
0.0
 10
34.115851
 20
22.228932
 30
0.0
 10
30.393364
 20
23.224723
 30
0.0
  0
LWPOLYLINE
  5
1e1
100
AcDbEntity
  8
Layer_1
 62
5
100
AcDbPolyline
 90
5
 70
1
 10
21.904165
 20
37.952017
 30
0.0
 10
22.801307
 20
37.951407
 30
0.0
 10
23.195329
 20
39.424474
 30
0.0
 10
22.674832
 20
39.284786
 30
0.0
 10
21.904165
 20
37.952017
 30
0.0
  0
LWPOLYLINE
  5
1e2
100
AcDbEntity
  8
Layer_1
 62
5
100
AcDbPolyline
 90
5
 70
1
 10
37.964847
 20
10.141309
 30
0.0
 10
39.520871
 20
10.142705
 30
0.0
 10
39.891701
 20
10.513834
 30
0.0
 10
38.408207
 20
10.910823
 30
0.0
 10
37.964847
 20
10.141309
 30
0.0
  0
LWPOLYLINE
  5
1e3
100
AcDbEntity
  8
Layer_1
 62
5
100
AcDbPolyline
 90
4
 70
1
 10
32.872747
 20
18.962557
 30
0.0
 10
33.867256
 20
18.962714
 30
0.0
 10
33.236679
 20
19.592767
 30
0.0
 10
32.872747
 20
18.962557
 30
0.0
  0
LWPOLYLINE
  5
1e4
100
AcDbEntity
  8
Layer_1
 62
5
100
AcDbPolyline
 90
4
 70
1
 10
25.077740
 20
32.482458
 30
0.0
 10
27.099963
 20
31.314687
 30
0.0
 10
26.671895
 20
32.909647
 30
0.0
 10
25.077740
 20
32.482458
 30
0.0
  0
LWPOLYLINE
  5
1e5
100
AcDbEntity
  8
Layer_1
 62
5
100
AcDbPolyline
 90
4
 70
1
 10
35.270678
 20
14.864203
 30
0.0
 10
36.736766
 20
14.018057
 30
0.0
 10
37.094561
 20
15.353523
 30
0.0
 10
35.270678
 20
14.864203
 30
0.0
  0
LWPOLYLINE
  5
1e6
100
AcDbEntity
  8
Layer_1
 62
5
100
AcDbPolyline
 90
5
 70
1
 10
24.654701
 20
33.252196
 30
0.0
 10
24.890653
 20
33.487888
 30
0.0
 10
25.985075
 20
34.582999
 30
0.0
 10
24.657803
 20
34.938029
 30
0.0
 10
24.654701
 20
33.252196
 30
0.0
  0
LWPOLYLINE
  5
1e7
100
AcDbEntity
  8
Layer_1
 62
5
100
AcDbPolyline
 90
4
 70
1
 10
27.052498
 20
29.206590
 30
0.0
 10
27.665732
 20
29.206680
 30
0.0
 10
27.471106
 20
29.931862
 30
0.0
 10
27.052498
 20
29.206590
 30
0.0
  0
LWPOLYLINE
  5
1e8
100
AcDbEntity
  8
Layer_1
 62
5
100
AcDbPolyline
 90
4
 70
1
 10
34.815709
 20
15.782095
 30
0.0
 10
35.933270
 20
16.898403
 30
0.0
 10
34.815906
 20
18.014849
 30
0.0
 10
34.815709
 20
15.782095
 30
0.0
  0
LWPOLYLINE
  5
1e9
100
AcDbEntity
  8
Layer_1
 62
5
100
AcDbPolyline
 90
4
 70
1
 10
36.845078
 20
12.291057
 30
0.0
 10
37.744056
 20
12.811156
 30
0.0
 10
37.085914
 20
13.191010
 30
0.0
 10
36.845078
 20
12.291057
 30
0.0
  0
LWPOLYLINE
  5
1ea
100
AcDbEntity
  8
Layer_1
 62
5
100
AcDbPolyline
 90
6
 70
1
 10
22.941375
 20
36.378506
 30
0.0
 10
24.098812
 20
37.045711
 30
0.0
 10
24.098837
 20
37.391067
 30
0.0
 10
23.212803
 20
37.390275
 30
0.0
 10
23.010399
 20
36.636525
 30
0.0
 10
22.941375
 20
36.378506
 30
0.0
  0
LWPOLYLINE
  5
1eb
100
AcDbEntity
  8
Layer_1
 62
5
100
AcDbPolyline
 90
5
 70
1
 10
37.121572
 20
11.825132
 30
0.0
 10
38.027313
 20
11.582875
 30
0.0
 10
38.488958
 20
12.381245
 30
0.0
 10
38.285611
 20
12.498616
 30
0.0
 10
37.121572
 20
11.825132
 30
0.0
  0
LWPOLYLINE
  5
1ec
100
AcDbEntity
  8
Layer_1
 62
5
100
AcDbPolyline
 90
4
 70
1
 10
23.294093
 20
35.947349
 30
0.0
 10
24.098682
 20
35.732022
 30
0.0
 10
24.098743
 20
36.412879
 30
0.0
 10
23.294093
 20
35.947349
 30
0.0
  0
LWPOLYLINE
  5
1ed
100
AcDbEntity
  8
Layer_1
 62
5
100
AcDbPolyline
 90
4
 70
1
 10
29.971972
 20
24.675957
 30
0.0
 10
32.731068
 20
27.437332
 30
0.0
 10
30.981007
 20
28.447927
 30
0.0
 10
29.971972
 20
24.675957
 30
0.0
  0
LWPOLYLINE
  5
1ee
100
AcDbEntity
  8
Layer_1
 62
5
100
AcDbPolyline
 90
4
 70
1
 10
30.537940
 20
23.765231
 30
0.0
 10
34.259924
 20
22.769590
 30
0.0
 10
34.259636
 20
24.764095
 30
0.0
 10
30.537940
 20
23.765231
 30
0.0
  0
LWPOLYLINE
  5
1ef
100
AcDbEntity
  8
Layer_1
 62
5
100
AcDbPolyline
 90
4
 70
1
 10
21.555299
 20
39.551442
 30
0.0
 10
22.144638
 20
39.709658
 30
0.0
 10
22.730890
 20
40.727181
 30
0.0
 10
21.555299
 20
39.551442
 30
0.0
  0
LWPOLYLINE
  5
1f0
100
AcDbEntity
  8
Layer_1
 62
5
100
AcDbPolyline
 90
4
 70
1
 10
35.466872
 20
15.486073
 30
0.0
 10
36.948676
 20
15.883821
 30
0.0
 10
36.406137
 20
16.425927
 30
0.0
 10
35.466872
 20
15.486073
 30
0.0
  0
LWPOLYLINE
  5
1f1
100
AcDbEntity
  8
Layer_1
 62
5
100
AcDbPolyline
 90
4
 70
1
 10
25.291254
 20
33.112260
 30
0.0
 10
26.528697
 20
33.443081
 30
0.0
 10
26.336667
 20
34.158592
 30
0.0
 10
25.291254
 20
33.112260
 30
0.0
  0
LWPOLYLINE
  5
1f2
100
AcDbEntity
  8
Layer_1
 62
5
100
AcDbPolyline
 90
4
 70
1
 10
39.263492
 20
9.109318
 30
0.0
 10
41.067735
 20
9.602355
 30
0.0
 10
39.754852
 20
9.601158
 30
0.0
 10
39.263492
 20
9.109318
 30
0.0
  0
LWPOLYLINE
  5
1f3
100
AcDbEntity
  8
Layer_1
 62
5
100
AcDbPolyline
 90
4
 70
1
 10
30.523398
 20
24.461334
 30
0.0
 10
34.030814
 20
25.402687
 30
0.0
 10
33.094249
 20
27.034304
 30
0.0
 10
30.523398
 20
24.461334
 30
0.0
  0
LWPOLYLINE
  5
1f4
100
AcDbEntity
  8
Layer_1
 62
5
100
AcDbPolyline
 90
4
 70
1
 10
28.253834
 20
29.258440
 30
0.0
 10
28.915790
 20
29.640460
 30
0.0
 10
28.011123
 20
30.162864
 30
0.0
 10
28.253834
 20
29.258440
 30
0.0
  0
LWPOLYLINE
  5
1f5
100
AcDbEntity
  8
Layer_1
 62
5
100
AcDbPolyline
 90
5
 70
1
 10
37.230901
 20
13.732841
 30
0.0
 10
38.285296
 20
13.124291
 30
0.0
 10
39.187848
 20
13.646487
 30
0.0
 10
37.625540
 20
15.207507
 30
0.0
 10
37.230901
 20
13.732841
 30
0.0
  0
LWPOLYLINE
  5
1f6
100
AcDbEntity
  8
Layer_1
 62
5
100
AcDbPolyline
 90
4
 70
1
 10
33.622165
 20
19.998563
 30
0.0
 10
34.260421
 20
19.360827
 30
0.0
 10
34.260278
 20
20.367091
 30
0.0
 10
33.622165
 20
19.998563
 30
0.0
  0
LWPOLYLINE
  5
1f7
100
AcDbEntity
  8
Layer_1
 62
5
100
AcDbPolyline
 90
5
 70
1
 10
24.658988
 20
35.582087
 30
0.0
 10
26.054863
 20
35.208530
 30
0.0
 10
25.512163
 20
37.230619
 30
0.0
 10
24.661128
 20
36.738247
 30
0.0
 10
24.658988
 20
35.582087
 30
0.0
  0
LWPOLYLINE
  5
1f8
100
AcDbEntity
  8
Layer_1
 62
5
100
AcDbPolyline
 90
5
 70
1
 10
23.363394
 20
37.951022
 30
0.0
 10
24.098873
 20
37.950519
 30
0.0
 10
24.099019
 20
39.666991
 30
0.0
 10
23.802870
 20
39.587522
 30
0.0
 10
23.363394
 20
37.951022
 30
0.0
  0
LWPOLYLINE
  5
1f9
100
AcDbEntity
  8
Layer_1
 62
5
100
AcDbPolyline
 90
5
 70
1
 10
38.692847
 20
11.404848
 30
0.0
 10
40.341441
 20
10.963895
 30
0.0
 10
40.562088
 20
11.184730
 30
0.0
 10
39.064131
 20
12.049282
 30
0.0
 10
38.692847
 20
11.404848
 30
0.0
  0
LWPOLYLINE
  5
1fa
100
AcDbEntity
  8
Layer_1
 62
5
100
AcDbPolyline
 90
5
 70
1
 10
27.976898
 20
30.808271
 30
0.0
 10
29.457533
 20
29.953258
 30
0.0
 10
30.930632
 20
30.803575
 30
0.0
 10
29.456469
 20
33.371790
 30
0.0
 10
27.976898
 20
30.808271
 30
0.0
  0
LWPOLYLINE
  5
1fb
100
AcDbEntity
  8
Layer_1
 62
5
100
AcDbPolyline
 90
5
 70
1
 10
34.816006
 20
18.962867
 30
0.0
 10
37.727131
 20
18.963287
 30
0.0
 10
36.258788
 20
21.521345
 30
0.0
 10
34.816146
 20
20.688147
 30
0.0
 10
34.816006
 20
18.962867
 30
0.0
  0
LWPOLYLINE
  5
1fc
100
AcDbEntity
  8
Layer_1
 62
5
100
AcDbPolyline
 90
4
 70
1
 10
27.678534
 20
31.402091
 30
0.0
 10
28.892776
 20
33.504798
 30
0.0
 10
27.233525
 20
33.060162
 30
0.0
 10
27.678534
 20
31.402091
 30
0.0
  0
LWPOLYLINE
  5
1fd
100
AcDbEntity
  8
Layer_1
 62
5
100
AcDbPolyline
 90
4
 70
1
 10
35.200885
 20
18.421178
 30
0.0
 10
36.329159
 20
17.293837
 30
0.0
 10
37.458122
 20
18.421532
 30
0.0
 10
35.200885
 20
18.421178
 30
0.0
  0
LWPOLYLINE
  5
1fe
100
AcDbEntity
  8
Layer_1
 62
5
100
AcDbPolyline
 90
4
 70
1
 10
23.063136
 20
39.956242
 30
0.0
 10
23.358827
 20
40.035629
 30
0.0
 10
23.573812
 20
40.839376
 30
0.0
 10
23.063136
 20
39.956242
 30
0.0
  0
LWPOLYLINE
  5
1ff
100
AcDbEntity
  8
Layer_1
 62
5
100
AcDbPolyline
 90
4
 70
1
 10
29.276952
 20
29.206934
 30
0.0
 10
29.666578
 20
29.206999
 30
0.0
 10
29.471803
 20
29.319478
 30
0.0
 10
29.276952
 20
29.206934
 30
0.0
  0
LWPOLYLINE
  5
200
100
AcDbEntity
  8
Layer_1
 62
5
100
AcDbPolyline
 90
4
 70
1
 10
40.296590
 20
10.143414
 30
0.0
 10
41.272611
 20
10.144302
 30
0.0
 10
40.503186
 20
10.350207
 30
0.0
 10
40.296590
 20
10.143414
 30
0.0
  0
LWPOLYLINE
  5
201
100
AcDbEntity
  8
Layer_1
 62
5
100
AcDbPolyline
 90
4
 70
1
 10
34.049433
 20
21.000202
 30
0.0
 10
34.260183
 20
21.121879
 30
0.0
 10
34.260146
 20
21.365134
 30
0.0
 10
34.049433
 20
21.000202
 30
0.0
  0
LWPOLYLINE
  5
202
100
AcDbEntity
  8
Layer_1
 62
5
100
AcDbPolyline
 90
4
 70
1
 10
24.662322
 20
37.370556
 30
0.0
 10
24.698872
 20
37.391658
 30
0.0
 10
24.662353
 20
37.391607
 30
0.0
 10
24.662322
 20
37.370556
 30
0.0
  0
LWPOLYLINE
  5
203
100
AcDbEntity
  8
Layer_1
 62
5
100
AcDbPolyline
 90
4
 70
1
 10
27.090437
 20
33.593272
 30
0.0
 10
28.388241
 20
33.940231
 30
0.0
 10
26.889756
 20
34.341051
 30
0.0
 10
27.090437
 20
33.593272
 30
0.0
  0
LWPOLYLINE
  5
204
100
AcDbEntity
  8
Layer_1
 62
5
100
AcDbPolyline
 90
4
 70
1
 10
36.801684
 20
16.821716
 30
0.0
 10
37.343008
 20
16.280837
 30
0.0
 10
37.739283
 20
17.759917
 30
0.0
 10
36.801684
 20
16.821716
 30
0.0
  0
LWPOLYLINE
  5
205
100
AcDbEntity
  8
Layer_1
 62
5
100
AcDbPolyline
 90
5
 70
1
 10
39.334616
 20
12.518720
 30
0.0
 10
40.958538
 20
11.581475
 30
0.0
 10
41.106468
 20
11.729501
 30
0.0
 10
39.693387
 20
13.141426
 30
0.0
 10
39.334616
 20
12.518720
 30
0.0
  0
LWPOLYLINE
  5
206
100
AcDbEntity
  8
Layer_1
 62
5
100
AcDbPolyline
 90
5
 70
1
 10
24.663389
 20
37.950136
 30
0.0
 10
25.319197
 20
37.949703
 30
0.0
 10
24.807287
 20
39.857068
 30
0.0
 10
24.666845
 20
39.819384
 30
0.0
 10
24.663389
 20
37.950136
 30
0.0
  0
LWPOLYLINE
  5
207
100
AcDbEntity
  8
Layer_1
 62
5
100
AcDbPolyline
 90
5
 70
1
 10
26.647035
 20
35.245376
 30
0.0
 10
27.748440
 20
36.347460
 30
0.0
 10
27.147805
 20
37.393841
 30
0.0
 10
26.070666
 20
37.392870
 30
0.0
 10
26.647035
 20
35.245376
 30
0.0
  0
LWPOLYLINE
  5
208
100
AcDbEntity
  8
Layer_1
 62
5
100
AcDbPolyline
 90
5
 70
1
 10
38.022042
 20
15.602372
 30
0.0
 10
39.498520
 20
14.127101
 30
0.0
 10
40.002682
 20
14.998981
 30
0.0
 10
39.438243
 20
15.982311
 30
0.0
 10
38.022042
 20
15.602372
 30
0.0
  0
LWPOLYLINE
  5
209
100
AcDbEntity
  8
Layer_1
 62
5
100
AcDbPolyline
 90
4
 70
1
 10
30.013431
 20
29.632278
 30
0.0
 10
30.640214
 20
29.270344
 30
0.0
 10
30.869262
 20
30.126577
 30
0.0
 10
30.013431
 20
29.632278
 30
0.0
  0
LWPOLYLINE
  5
20a
100
AcDbEntity
  8
Layer_1
 62
5
100
AcDbPolyline
 90
4
 70
1
 10
23.967088
 20
40.198932
 30
0.0
 10
24.099087
 20
40.234362
 30
0.0
 10
24.099119
 20
40.690591
 30
0.0
 10
23.967088
 20
40.198932
 30
0.0
  0
LWPOLYLINE
  5
20b
100
AcDbEntity
  8
Layer_1
 62
5
100
AcDbPolyline
 90
5
 70
1
 10
37.872960
 20
16.131928
 30
0.0
 10
39.154855
 20
16.476025
 30
0.0
 10
38.343554
 20
17.889402
 30
0.0
 10
38.266646
 20
17.603033
 30
0.0
 10
37.872960
 20
16.131928
 30
0.0
  0
LWPOLYLINE
  5
20c
100
AcDbEntity
  8
Layer_1
 62
5
100
AcDbPolyline
 90
4
 70
1
 10
40.952917
 20
10.800356
 30
0.0
 10
41.465854
 20
10.663162
 30
0.0
 10
41.053568
 20
10.901109
 30
0.0
 10
40.952917
 20
10.800356
 30
0.0
  0
LWPOLYLINE
  5
20d
100
AcDbEntity
  8
Layer_1
 62
5
100
AcDbPolyline
 90
4
 70
1
 10
34.816216
 20
21.442812
 30
0.0
 10
35.525083
 20
21.851916
 30
0.0
 10
34.816313
 20
22.041508
 30
0.0
 10
34.816216
 20
21.442812
 30
0.0
  0
LWPOLYLINE
  5
20e
100
AcDbEntity
  8
Layer_1
 62
5
100
AcDbPolyline
 90
4
 70
1
 10
27.104937
 20
34.927541
 30
0.0
 10
28.828200
 20
34.466392
 30
0.0
 10
28.031283
 20
35.854696
 30
0.0
 10
27.104937
 20
34.927541
 30
0.0
  0
LWPOLYLINE
  5
20f
100
AcDbEntity
  8
Layer_1
 62
5
100
AcDbPolyline
 90
5
 70
1
 10
25.887162
 20
38.076614
 30
0.0
 10
26.539907
 20
38.452884
 30
0.0
 10
25.610195
 20
40.072549
 30
0.0
 10
25.368845
 20
40.007779
 30
0.0
 10
25.887162
 20
38.076614
 30
0.0
  0
LWPOLYLINE
  5
210
100
AcDbEntity
  8
Layer_1
 62
5
100
AcDbPolyline
 90
5
 70
1
 10
40.085935
 20
13.540194
 30
0.0
 10
41.501958
 20
12.125325
 30
0.0
 10
41.597384
 20
12.220831
 30
0.0
 10
40.652045
 20
13.867727
 30
0.0
 10
40.085935
 20
13.540194
 30
0.0
  0
LWPOLYLINE
  5
211
100
AcDbEntity
  8
Layer_1
 62
5
100
AcDbPolyline
 90
4
 70
1
 10
41.449947
 20
11.297861
 30
0.0
 10
41.659528
 20
11.176895
 30
0.0
 10
41.494160
 20
11.342122
 30
0.0
 10
41.449947
 20
11.297861
 30
0.0
  0
LWPOLYLINE
  5
212
100
AcDbEntity
  8
Layer_1
 62
5
100
AcDbPolyline
 90
4
 70
1
 10
34.962640
 20
22.581626
 30
0.0
 10
35.774892
 20
22.364334
 30
0.0
 10
35.307439
 20
23.178725
 30
0.0
 10
34.962640
 20
22.581626
 30
0.0
  0
LWPOLYLINE
  5
213
100
AcDbEntity
  8
Layer_1
 62
5
100
AcDbPolyline
 90
4
 70
1
 10
31.184148
 20
29.207229
 30
0.0
 10
31.846962
 20
29.207323
 30
0.0
 10
31.394861
 20
29.994925
 30
0.0
 10
31.184148
 20
29.207229
 30
0.0
  0
LWPOLYLINE
  5
214
100
AcDbEntity
  8
Layer_1
 62
5
100
AcDbPolyline
 90
4
 70
1
 10
31.831834
 20
28.582224
 30
0.0
 10
32.391171
 20
28.259232
 30
0.0
 10
32.205790
 20
28.582183
 30
0.0
 10
31.831834
 20
28.582224
 30
0.0
  0
LWPOLYLINE
  5
215
100
AcDbEntity
  8
Layer_1
 62
5
100
AcDbPolyline
 90
4
 70
1
 10
34.816394
 20
23.442714
 30
0.0
 10
34.986618
 20
23.737628
 30
0.0
 10
34.816446
 20
24.034097
 30
0.0
 10
34.816394
 20
23.442714
 30
0.0
  0
LWPOLYLINE
  5
216
100
AcDbEntity
  8
Layer_1
 62
5
100
AcDbPolyline
 90
4
 70
1
 10
25.226790
 20
40.537111
 30
0.0
 10
25.327952
 20
40.564278
 30
0.0
 10
25.124268
 20
40.919096
 30
0.0
 10
25.226790
 20
40.537111
 30
0.0
  0
LWPOLYLINE
  5
217
100
AcDbEntity
  8
Layer_1
 62
5
100
AcDbPolyline
 90
4
 70
1
 10
26.753395
 20
37.948738
 30
0.0
 10
26.829323
 20
37.948693
 30
0.0
 10
26.810412
 20
37.981725
 30
0.0
 10
26.753395
 20
37.948738
 30
0.0
  0
LWPOLYLINE
  5
218
100
AcDbEntity
  8
Layer_1
 62
5
100
AcDbPolyline
 90
4
 70
1
 10
42.533996
 20
11.677378
 30
0.0
 10
42.384710
 20
12.233528
 30
0.0
 10
42.276773
 20
12.125489
 30
0.0
 10
42.533996
 20
11.677378
 30
0.0
  0
LWPOLYLINE
  5
219
100
AcDbEntity
  8
Layer_1
 62
5
100
AcDbPolyline
 90
5
 70
1
 10
41.994122
 20
12.617880
 30
0.0
 10
42.220693
 20
12.844620
 30
0.0
 10
41.772126
 20
14.515739
 30
0.0
 10
41.120970
 20
14.139024
 30
0.0
 10
41.994122
 20
12.617880
 30
0.0
  0
LWPOLYLINE
  5
21a
100
AcDbEntity
  8
Layer_1
 62
5
100
AcDbPolyline
 90
5
 70
1
 10
40.851290
 20
14.608872
 30
0.0
 10
41.626691
 20
15.057496
 30
0.0
 10
41.363108
 20
16.039521
 30
0.0
 10
40.695356
 20
14.880510
 30
0.0
 10
40.851290
 20
14.608872
 30
0.0
  0
LWPOLYLINE
  5
21b
100
AcDbEntity
  8
Layer_1
 62
5
100
AcDbPolyline
 90
4
 70
1
 10
40.316177
 20
15.541089
 30
0.0
 10
40.779381
 20
16.342130
 30
0.0
 10
39.979540
 20
16.127548
 30
0.0
 10
40.316177
 20
15.541089
 30
0.0
  0
LWPOLYLINE
  5
21c
100
AcDbEntity
  8
Layer_1
 62
5
100
AcDbPolyline
 90
5
 70
1
 10
39.696119
 20
16.621313
 30
0.0
 10
41.105376
 20
16.999586
 30
0.0
 10
40.723562
 20
18.422018
 30
0.0
 10
38.662685
 20
18.421704
 30
0.0
 10
39.696119
 20
16.621313
 30
0.0
  0
LWPOLYLINE
  5
21d
100
AcDbEntity
  8
Layer_1
 62
5
100
AcDbPolyline
 90
4
 70
1
 10
38.154007
 20
19.307854
 30
0.0
 10
38.614214
 20
21.025583
 30
0.0
 10
36.905663
 20
21.482631
 30
0.0
 10
38.154007
 20
19.307854
 30
0.0
  0
LWPOLYLINE
  5
21e
100
AcDbEntity
  8
Layer_1
 62
5
100
AcDbPolyline
 90
5
 70
1
 10
36.402831
 20
22.358661
 30
0.0
 10
38.964861
 20
23.837561
 30
0.0
 10
36.507366
 20
25.256695
 30
0.0
 10
35.620693
 20
23.721208
 30
0.0
 10
36.402831
 20
22.358661
 30
0.0
  0
LWPOLYLINE
  5
21f
100
AcDbEntity
  8
Layer_1
 62
5
100
AcDbPolyline
 90
4
 70
1
 10
35.299802
 20
24.280268
 30
0.0
 10
35.820896
 20
25.183143
 30
0.0
 10
34.920294
 20
24.941420
 30
0.0
 10
35.299802
 20
24.280268
 30
0.0
  0
LWPOLYLINE
  5
220
100
AcDbEntity
  8
Layer_1
 62
5
100
AcDbPolyline
 90
4
 70
1
 10
34.259448
 20
26.092687
 30
0.0
 10
34.259384
 20
26.554816
 30
0.0
 10
33.862688
 20
26.783879
 30
0.0
 10
34.259448
 20
26.092687
 30
0.0
  0
LWPOLYLINE
  5
221
100
AcDbEntity
  8
Layer_1
 62
5
100
AcDbPolyline
 90
4
 70
1
 10
33.211572
 20
27.918214
 30
0.0
 10
33.874842
 20
28.582038
 30
0.0
 10
32.830488
 20
28.582132
 30
0.0
 10
33.211572
 20
27.918214
 30
0.0
  0
LWPOLYLINE
  5
222
100
AcDbEntity
  8
Layer_1
 62
5
100
AcDbPolyline
 90
5
 70
1
 10
32.471549
 20
29.207415
 30
0.0
 10
34.258974
 20
29.207683
 30
0.0
 10
34.258552
 20
32.084052
 30
0.0
 10
31.676391
 20
30.592711
 30
0.0
 10
32.471549
 20
29.207415
 30
0.0
  0
LWPOLYLINE
  5
223
100
AcDbEntity
  8
Layer_1
 62
5
100
AcDbPolyline
 90
4
 70
1
 10
31.210903
 20
31.403661
 30
0.0
 10
31.655668
 20
33.066273
 30
0.0
 10
30.002752
 20
33.508383
 30
0.0
 10
31.210903
 20
31.403661
 30
0.0
  0
LWPOLYLINE
  5
224
100
AcDbEntity
  8
Layer_1
 62
5
100
AcDbPolyline
 90
5
 70
1
 10
29.450464
 20
34.470546
 30
0.0
 10
30.477927
 20
36.249839
 30
0.0
 10
29.451104
 20
37.275760
 30
0.0
 10
28.428017
 20
36.251788
 30
0.0
 10
29.450464
 20
34.470546
 30
0.0
  0
LWPOLYLINE
  5
225
100
AcDbEntity
  8
Layer_1
 62
5
100
AcDbPolyline
 90
4
 70
1
 10
28.145198
 20
36.744475
 30
0.0
 10
28.795635
 20
37.395326
 30
0.0
 10
27.772141
 20
37.394409
 30
0.0
 10
28.145198
 20
36.744475
 30
0.0
  0
LWPOLYLINE
  5
226
100
AcDbEntity
  8
Layer_1
 62
5
100
AcDbPolyline
 90
6
 70
1
 10
27.454220
 20
37.948250
 30
0.0
 10
28.778930
 20
37.947358
 30
0.0
 10
28.035751
 20
38.689865
 30
0.0
 10
27.665812
 20
38.476617
 30
0.0
 10
27.279306
 20
38.253003
 30
0.0
 10
27.454220
 20
37.948250
 30
0.0
  0
LWPOLYLINE
  5
227
100
AcDbEntity
  8
Layer_1
 62
5
100
AcDbPolyline
 90
6
 70
1
 10
27.009258
 20
38.723445
 30
0.0
 10
27.387481
 20
38.941459
 30
0.0
 10
27.638562
 20
39.086725
 30
0.0
 10
26.431321
 20
40.292907
 30
0.0
 10
26.151482
 20
40.217798
 30
0.0
 10
27.009258
 20
38.723445
 30
0.0
  0
LWPOLYLINE
  5
228
100
AcDbEntity
  8
Layer_1
 62
5
100
AcDbPolyline
 90
4
 70
1
 10
25.869188
 20
40.709571
 30
0.0
 10
25.983569
 20
40.740279
 30
0.0
 10
25.674078
 20
41.049503
 30
0.0
 10
25.869188
 20
40.709571
 30
0.0
  0
LWPOLYLINE
  5
229
100
AcDbEntity
  8
Layer_1
 62
5
100
AcDbPolyline
 90
4
 70
1
 10
33.613132
 20
27.553597
 30
0.0
 10
34.259284
 20
27.180455
 30
0.0
 10
34.259138
 20
28.200143
 30
0.0
 10
33.613132
 20
27.553597
 30
0.0
  0
LWPOLYLINE
  5
22a
100
AcDbEntity
  8
Layer_1
 62
5
100
AcDbPolyline
 90
4
 70
1
 10
34.816585
 20
25.613606
 30
0.0
 10
35.548913
 20
25.810149
 30
0.0
 10
34.816634
 20
26.233010
 30
0.0
 10
34.816585
 20
25.613606
 30
0.0
  0
LWPOLYLINE
  5
22b
100
AcDbEntity
  8
Layer_1
 62
5
100
AcDbPolyline
 90
5
 70
1
 10
31.735457
 20
31.268164
 30
0.0
 10
33.838374
 20
32.482027
 30
0.0
 10
32.901351
 20
32.733073
 30
0.0
 10
32.179023
 20
32.926286
 30
0.0
 10
31.735457
 20
31.268164
 30
0.0
  0
LWPOLYLINE
  5
22c
100
AcDbEntity
  8
Layer_1
 62
5
100
AcDbPolyline
 90
4
 70
1
 10
37.103180
 20
22.009018
 30
0.0
 10
38.759021
 20
21.566064
 30
0.0
 10
39.202533
 20
23.221493
 30
0.0
 10
37.103180
 20
22.009018
 30
0.0
  0
LWPOLYLINE
  5
22d
100
AcDbEntity
  8
Layer_1
 62
5
100
AcDbPolyline
 90
5
 70
1
 10
30.039313
 20
34.381638
 30
0.0
 10
30.355767
 20
34.466233
 30
0.0
 10
31.859342
 20
34.869631
 30
0.0
 10
30.883609
 20
35.844524
 30
0.0
 10
30.039313
 20
34.381638
 30
0.0
  0
LWPOLYLINE
  5
22e
100
AcDbEntity
  8
Layer_1
 62
5
100
AcDbPolyline
 90
4
 70
1
 10
38.942093
 20
18.963488
 30
0.0
 10
40.578164
 20
18.963725
 30
0.0
 10
40.231815
 20
20.254018
 30
0.0
 10
38.942093
 20
18.963488
 30
0.0
  0
LWPOLYLINE
  5
22f
100
AcDbEntity
  8
Layer_1
 62
5
100
AcDbPolyline
 90
4
 70
1
 10
25.911099
 20
41.587825
 30
0.0
 10
26.594625
 20
40.904320
 30
0.0
 10
26.937629
 20
40.996405
 30
0.0
 10
25.911099
 20
41.587825
 30
0.0
  0
LWPOLYLINE
  5
230
100
AcDbEntity
  8
Layer_1
 62
5
100
AcDbPolyline
 90
4
 70
1
 10
43.089370
 20
11.903224
 30
0.0
 10
43.090074
 20
12.939562
 30
0.0
 10
42.870951
 20
12.720226
 30
0.0
 10
43.089370
 20
11.903224
 30
0.0
  0
LWPOLYLINE
  5
231
100
AcDbEntity
  8
Layer_1
 62
5
100
AcDbPolyline
 90
4
 70
1
 10
30.655884
 20
33.977282
 30
0.0
 10
31.816293
 20
33.666758
 30
0.0
 10
31.995374
 20
34.336241
 30
0.0
 10
30.655884
 20
33.977282
 30
0.0
  0
LWPOLYLINE
  5
232
100
AcDbEntity
  8
Layer_1
 62
5
100
AcDbPolyline
 90
4
 70
1
 10
38.863433
 20
19.825253
 30
0.0
 10
39.758639
 20
20.719464
 30
0.0
 10
39.147495
 20
20.882943
 30
0.0
 10
38.863433
 20
19.825253
 30
0.0
  0
LWPOLYLINE
  5
233
100
AcDbEntity
  8
Layer_1
 62
5
100
AcDbPolyline
 90
6
 70
1
 10
34.816694
 20
26.858578
 30
0.0
 10
36.288531
 20
26.008647
 30
0.0
 10
36.298959
 20
26.011450
 30
0.0
 10
37.782382
 20
28.581717
 30
0.0
 10
34.816826
 20
28.581962
 30
0.0
 10
34.816694
 20
26.858578
 30
0.0
  0
LWPOLYLINE
  5
234
100
AcDbEntity
  8
Layer_1
 62
5
100
AcDbPolyline
 90
5
 70
1
 10
27.042153
 20
40.456824
 30
0.0
 10
28.128742
 20
39.370308
 30
0.0
 10
28.942640
 20
39.841207
 30
0.0
 10
27.609741
 20
40.609154
 30
0.0
 10
27.042153
 20
40.456824
 30
0.0
  0
LWPOLYLINE
  5
235
100
AcDbEntity
  8
Layer_1
 62
5
100
AcDbPolyline
 90
5
 70
1
 10
42.707460
 20
13.331759
 30
0.0
 10
43.090611
 20
13.715194
 30
0.0
 10
43.091651
 20
15.279177
 30
0.0
 10
42.308026
 20
14.825805
 30
0.0
 10
42.707460
 20
13.331759
 30
0.0
  0
LWPOLYLINE
  5
236
100
AcDbEntity
  8
Layer_1
 62
5
100
AcDbPolyline
 90
4
 70
1
 10
26.541916
 20
41.881156
 30
0.0
 10
27.712279
 20
41.204371
 30
0.0
 10
28.390779
 20
41.386527
 30
0.0
 10
26.541916
 20
41.881156
 30
0.0
  0
LWPOLYLINE
  5
237
100
AcDbEntity
  8
Layer_1
 62
5
100
AcDbPolyline
 90
4
 70
1
 10
43.631407
 20
12.363427
 30
0.0
 10
44.040621
 20
13.891009
 30
0.0
 10
43.632158
 20
13.482180
 30
0.0
 10
43.631407
 20
12.363427
 30
0.0
  0
LWPOLYLINE
  5
238
100
AcDbEntity
  8
Layer_1
 62
5
100
AcDbPolyline
 90
4
 70
1
 10
26.443979
 20
42.473987
 30
0.0
 10
29.448490
 20
41.670476
 30
0.0
 10
32.441504
 20
42.474003
 30
0.0
 10
26.443979
 20
42.473987
 30
0.0
  0
LWPOLYLINE
  5
239
100
AcDbEntity
  8
Layer_1
 62
5
100
AcDbPolyline
 90
4
 70
1
 10
44.167576
 20
11.825984
 30
0.0
 10
47.165946
 20
17.019337
 30
0.0
 10
44.968133
 20
14.819412
 30
0.0
 10
44.167576
 20
11.825984
 30
0.0
  0
LWPOLYLINE
  5
23a
100
AcDbEntity
  8
Layer_1
 62
5
100
AcDbPolyline
 90
5
 70
1
 10
28.526371
 20
38.972688
 30
0.0
 10
29.449520
 20
38.049617
 30
0.0
 10
30.400538
 20
39.001245
 30
0.0
 10
29.488001
 20
39.527011
 30
0.0
 10
28.526371
 20
38.972688
 30
0.0
  0
LWPOLYLINE
  5
23b
100
AcDbEntity
  8
Layer_1
 62
5
100
AcDbPolyline
 90
5
 70
1
 10
42.163118
 20
15.367842
 30
0.0
 10
43.092083
 20
15.905287
 30
0.0
 10
43.092807
 20
16.962808
 30
0.0
 10
41.827483
 20
16.623338
 30
0.0
 10
42.163118
 20
15.367842
 30
0.0
  0
LWPOLYLINE
  5
23c
100
AcDbEntity
  8
Layer_1
 62
5
100
AcDbPolyline
 90
4
 70
1
 10
39.292595
 20
21.423315
 30
0.0
 10
39.966320
 20
21.243099
 30
0.0
 10
39.605346
 20
22.587911
 30
0.0
 10
39.292595
 20
21.423315
 30
0.0
  0
LWPOLYLINE
  5
23d
100
AcDbEntity
  8
Layer_1
 62
5
100
AcDbPolyline
 90
4
 70
1
 10
30.102646
 20
37.396514
 30
0.0
 10
30.760328
 20
36.738868
 30
0.0
 10
31.140652
 20
37.397464
 30
0.0
 10
30.102646
 20
37.396514
 30
0.0
  0
LWPOLYLINE
  5
23e
100
AcDbEntity
  8
Layer_1
 62
5
100
AcDbPolyline
 90
4
 70
1
 10
32.339642
 20
33.526702
 30
0.0
 10
33.519479
 20
33.210959
 30
0.0
 10
32.521830
 20
34.207726
 30
0.0
 10
32.339642
 20
33.526702
 30
0.0
  0
LWPOLYLINE
  5
23f
100
AcDbEntity
  8
Layer_1
 62
5
100
AcDbPolyline
 90
4
 70
1
 10
41.547512
 20
17.670538
 30
0.0
 10
41.982168
 20
18.422200
 30
0.0
 10
41.346576
 20
18.422099
 30
0.0
 10
41.547512
 20
17.670538
 30
0.0
  0
LWPOLYLINE
  5
240
100
AcDbEntity
  8
Layer_1
 62
5
100
AcDbPolyline
 90
4
 70
1
 10
37.116095
 20
25.530759
 30
0.0
 10
39.127148
 20
24.369435
 30
0.0
 10
38.701241
 20
25.956194
 30
0.0
 10
37.116095
 20
25.530759
 30
0.0
  0
LWPOLYLINE
  5
241
100
AcDbEntity
  8
Layer_1
 62
5
100
AcDbPolyline
 90
4
 70
1
 10
34.816929
 20
29.524898
 30
0.0
 10
36.011821
 20
30.720795
 30
0.0
 10
34.817123
 20
31.914448
 30
0.0
 10
34.816929
 20
29.524898
 30
0.0
  0
LWPOLYLINE
  5
242
100
AcDbEntity
  8
Layer_1
 62
5
100
AcDbPolyline
 90
5
 70
1
 10
43.632703
 20
14.257725
 30
0.0
 10
44.324238
 20
14.949799
 30
0.0
 10
44.654720
 20
16.183500
 30
0.0
 10
43.633599
 20
15.592704
 30
0.0
 10
43.632703
 20
14.257725
 30
0.0
  0
LWPOLYLINE
  5
243
100
AcDbEntity
  8
Layer_1
 62
5
100
AcDbPolyline
 90
5
 70
1
 10
28.382838
 20
40.816633
 30
0.0
 10
29.506013
 20
40.167154
 30
0.0
 10
30.594569
 20
40.796947
 30
0.0
 10
29.450252
 20
41.103085
 30
0.0
 10
28.382838
 20
40.816633
 30
0.0
  0
LWPOLYLINE
  5
244
100
AcDbEntity
  8
Layer_1
 62
5
100
AcDbPolyline
 90
5
 70
1
 10
42.064620
 20
17.257052
 30
0.0
 10
43.093193
 20
17.533142
 30
0.0
 10
43.093796
 20
18.422372
 30
0.0
 10
42.735958
 20
18.422318
 30
0.0
 10
42.064620
 20
17.257052
 30
0.0
  0
LWPOLYLINE
  5
245
100
AcDbEntity
  8
Layer_1
 62
5
100
AcDbPolyline
 90
6
 70
1
 10
30.121201
 20
37.946445
 30
0.0
 10
31.457151
 20
37.945559
 30
0.0
 10
31.650812
 20
38.280901
 30
0.0
 10
30.892836
 20
38.717612
 30
0.0
 10
30.316820
 20
38.142232
 30
0.0
 10
30.121201
 20
37.946445
 30
0.0
  0
LWPOLYLINE
  5
246
100
AcDbEntity
  8
Layer_1
 62
5
100
AcDbPolyline
 90
5
 70
1
 10
35.266003
 20
29.207828
 30
0.0
 10
37.525322
 20
29.208165
 30
0.0
 10
36.939718
 20
29.793729
 30
0.0
 10
36.395111
 20
30.337862
 30
0.0
 10
35.266003
 20
29.207828
 30
0.0
  0
LWPOLYLINE
  5
247
100
AcDbEntity
  8
Layer_1
 62
5
100
AcDbPolyline
 90
5
 70
1
 10
31.165804
 20
36.333434
 30
0.0
 10
32.241825
 20
35.257461
 30
0.0
 10
32.814696
 20
37.398981
 30
0.0
 10
31.780223
 20
37.398047
 30
0.0
 10
31.165804
 20
36.333434
 30
0.0
  0
LWPOLYLINE
  5
248
100
AcDbEntity
  8
Layer_1
 62
5
100
AcDbPolyline
 90
5
 70
1
 10
41.201763
 20
18.963822
 30
0.0
 10
42.295462
 20
18.963983
 30
0.0
 10
42.834733
 20
19.896571
 30
0.0
 10
40.807390
 20
20.438907
 30
0.0
 10
41.201763
 20
18.963822
 30
0.0
  0
LWPOLYLINE
  5
249
100
AcDbEntity
  8
Layer_1
 62
5
100
AcDbPolyline
 90
4
 70
1
 10
37.061425
 20
26.216084
 30
0.0
 10
38.525975
 20
26.609157
 30
0.0
 10
38.133251
 20
28.072184
 30
0.0
 10
37.061425
 20
26.216084
 30
0.0
  0
LWPOLYLINE
  5
24a
100
AcDbEntity
  8
Layer_1
 62
5
100
AcDbPolyline
 90
4
 70
1
 10
32.916301
 20
34.583030
 30
0.0
 10
34.258377
 20
33.241050
 30
0.0
 10
34.258128
 20
34.942603
 30
0.0
 10
32.916301
 20
34.583030
 30
0.0
  0
LWPOLYLINE
  5
24b
100
AcDbEntity
  8
Layer_1
 62
5
100
AcDbPolyline
 90
4
 70
1
 10
40.527162
 20
21.487110
 30
0.0
 10
41.445939
 20
22.404838
 30
0.0
 10
40.069302
 20
23.199807
 30
0.0
 10
40.527162
 20
21.487110
 30
0.0
  0
LWPOLYLINE
  5
24c
100
AcDbEntity
  8
Layer_1
 62
5
100
AcDbPolyline
 90
5
 70
1
 10
43.634016
 20
16.218836
 30
0.0
 10
44.853124
 20
16.924148
 30
0.0
 10
45.000597
 20
17.474626
 30
0.0
 10
43.634638
 20
17.108154
 30
0.0
 10
43.634016
 20
16.218836
 30
0.0
  0
LWPOLYLINE
  5
24d
100
AcDbEntity
  8
Layer_1
 62
5
100
AcDbPolyline
 90
5
 70
1
 10
32.763820
 20
35.112303
 30
0.0
 10
34.258048
 20
35.513177
 30
0.0
 10
34.257864
 20
36.778877
 30
0.0
 10
33.349614
 20
37.302155
 30
0.0
 10
32.763820
 20
35.112303
 30
0.0
  0
LWPOLYLINE
  5
24e
100
AcDbEntity
  8
Layer_1
 62
5
100
AcDbPolyline
 90
5
 70
1
 10
30.051406
 20
39.851789
 30
0.0
 10
30.811376
 20
39.412342
 30
0.0
 10
31.857451
 20
40.459080
 30
0.0
 10
31.343462
 20
40.596585
 30
0.0
 10
30.051406
 20
39.851789
 30
0.0
  0
LWPOLYLINE
  5
24f
100
AcDbEntity
  8
Layer_1
 62
5
100
AcDbPolyline
 90
5
 70
1
 10
40.955770
 20
20.978416
 30
0.0
 10
43.095141
 20
20.406120
 30
0.0
 10
43.095854
 20
21.452075
 30
0.0
 10
42.039026
 20
22.062367
 30
0.0
 10
40.955770
 20
20.978416
 30
0.0
  0
LWPOLYLINE
  5
250
100
AcDbEntity
  8
Layer_1
 62
5
100
AcDbPolyline
 90
5
 70
1
 10
43.635010
 20
17.678587
 30
0.0
 10
45.165239
 20
18.089330
 30
0.0
 10
45.254551
 20
18.422697
 30
0.0
 10
43.635516
 20
18.422457
 30
0.0
 10
43.635010
 20
17.678587
 30
0.0
  0
LWPOLYLINE
  5
251
100
AcDbEntity
  8
Layer_1
 62
5
100
AcDbPolyline
 90
5
 70
1
 10
40.158746
 20
23.773746
 30
0.0
 10
41.842802
 20
22.801269
 30
0.0
 10
42.888261
 20
23.845536
 30
0.0
 10
41.934425
 20
24.799302
 30
0.0
 10
40.158746
 20
23.773746
 30
0.0
  0
LWPOLYLINE
  5
252
100
AcDbEntity
  8
Layer_1
 62
5
100
AcDbPolyline
 90
5
 70
1
 10
31.303466
 20
39.127786
 30
0.0
 10
31.930486
 20
38.765205
 30
0.0
 10
32.767965
 20
40.215488
 30
0.0
 10
32.471761
 20
40.294739
 30
0.0
 10
31.303466
 20
39.127786
 30
0.0
  0
LWPOLYLINE
  5
253
100
AcDbEntity
  8
Layer_1
 62
5
100
AcDbPolyline
 90
5
 70
1
 10
34.817233
 20
33.047061
 30
0.0
 10
36.532206
 20
34.037009
 30
0.0
 10
36.152841
 20
35.450350
 30
0.0
 10
34.817403
 20
35.092488
 30
0.0
 10
34.817233
 20
33.047061
 30
0.0
  0
LWPOLYLINE
  5
254
100
AcDbEntity
  8
Layer_1
 62
5
100
AcDbPolyline
 90
4
 70
1
 10
35.448973
 20
32.050521
 30
0.0
 10
36.395125
 20
31.104411
 30
0.0
 10
36.941042
 20
31.650782
 30
0.0
 10
35.448973
 20
32.050521
 30
0.0
  0
LWPOLYLINE
  5
255
100
AcDbEntity
  8
Layer_1
 62
5
100
AcDbPolyline
 90
4
 70
1
 10
39.633460
 20
24.829931
 30
0.0
 10
40.030813
 20
26.313036
 30
0.0
 10
39.290128
 20
26.114243
 30
0.0
 10
39.633460
 20
24.829931
 30
0.0
  0
LWPOLYLINE
  5
256
100
AcDbEntity
  8
Layer_1
 62
5
100
AcDbPolyline
 90
4
 70
1
 10
43.048098
 20
18.964101
 30
0.0
 10
43.094165
 20
18.964102
 30
0.0
 10
43.094221
 20
19.044154
 30
0.0
 10
43.048098
 20
18.964101
 30
0.0
  0
LWPOLYLINE
  5
257
100
AcDbEntity
  8
Layer_1
 62
5
100
AcDbPolyline
 90
4
 70
1
 10
32.095960
 20
37.945104
 30
0.0
 10
32.233820
 20
37.945022
 30
0.0
 10
32.130320
 20
38.004641
 30
0.0
 10
32.095960
 20
37.945104
 30
0.0
  0
LWPOLYLINE
  5
258
100
AcDbEntity
  8
Layer_1
 62
5
100
AcDbPolyline
 90
4
 70
1
 10
35.357878
 20
32.718977
 30
0.0
 10
37.004235
 20
32.278391
 30
0.0
 10
36.680873
 20
33.483085
 30
0.0
 10
35.357878
 20
32.718977
 30
0.0
  0
LWPOLYLINE
  5
259
100
AcDbEntity
  8
Layer_1
 62
5
100
AcDbPolyline
 90
4
 70
1
 10
40.120028
 20
24.504372
 30
0.0
 10
41.457375
 20
25.276314
 30
0.0
 10
40.566552
 20
26.167086
 30
0.0
 10
40.120028
 20
24.504372
 30
0.0
  0
LWPOLYLINE
  5
25a
100
AcDbEntity
  8
Layer_1
 62
5
100
AcDbPolyline
 90
5
 70
1
 10
30.508349
 20
41.387044
 30
0.0
 10
31.264832
 20
41.184724
 30
0.0
 10
32.571054
 20
41.940459
 30
0.0
 10
32.142273
 20
41.825541
 30
0.0
 10
30.508349
 20
41.387044
 30
0.0
  0
LWPOLYLINE
  5
25b
100
AcDbEntity
  8
Layer_1
 62
5
100
AcDbPolyline
 90
4
 70
1
 10
45.251051
 20
15.877336
 30
0.0
 10
46.793323
 20
17.420797
 30
0.0
 10
45.457078
 20
16.647707
 30
0.0
 10
45.251051
 20
15.877336
 30
0.0
  0
LWPOLYLINE
  5
25c
100
AcDbEntity
  8
Layer_1
 62
5
100
AcDbPolyline
 90
5
 70
1
 10
36.778252
 20
30.721313
 30
0.0
 10
37.275054
 20
30.224543
 30
0.0
 10
37.658305
 20
29.841632
 30
0.0
 10
37.285829
 20
31.229296
 30
0.0
 10
36.778252
 20
30.721313
 30
0.0
  0
LWPOLYLINE
  5
25d
100
AcDbEntity
  8
Layer_1
 62
5
100
AcDbPolyline
 90
4
 70
1
 10
39.115507
 20
26.767392
 30
0.0
 10
39.786217
 20
26.947395
 30
0.0
 10
38.805109
 20
27.928448
 30
0.0
 10
39.115507
 20
26.767392
 30
0.0
  0
LWPOLYLINE
  5
25e
100
AcDbEntity
  8
Layer_1
 62
5
100
AcDbPolyline
 90
5
 70
1
 10
43.635885
 20
18.964188
 30
0.0
 10
45.399682
 20
18.964446
 30
0.0
 10
45.461174
 20
19.193984
 30
0.0
 10
43.636369
 20
19.682138
 30
0.0
 10
43.635885
 20
18.964188
 30
0.0
  0
LWPOLYLINE
  5
25f
100
AcDbEntity
  8
Layer_1
 62
5
100
AcDbPolyline
 90
5
 70
1
 10
32.409427
 20
38.488253
 30
0.0
 10
33.012765
 20
38.139379
 30
0.0
 10
33.514698
 20
40.015722
 30
0.0
 10
33.320943
 20
40.067551
 30
0.0
 10
32.409427
 20
38.488253
 30
0.0
  0
LWPOLYLINE
  5
260
100
AcDbEntity
  8
Layer_1
 62
5
100
AcDbPolyline
 90
4
 70
1
 10
42.435439
 20
22.459022
 30
0.0
 10
43.096271
 20
22.077413
 30
0.0
 10
43.096974
 20
23.120994
 30
0.0
 10
42.435439
 20
22.459022
 30
0.0
  0
LWPOLYLINE
  5
261
100
AcDbEntity
  8
Layer_1
 62
5
100
AcDbPolyline
 90
4
 70
1
 10
34.817460
 20
35.663264
 30
0.0
 10
35.756786
 20
35.915275
 30
0.0
 10
34.817506
 20
36.456429
 30
0.0
 10
34.817460
 20
35.663264
 30
0.0
  0
LWPOLYLINE
  5
262
100
AcDbEntity
  8
Layer_1
 62
5
100
AcDbPolyline
 90
4
 70
1
 10
38.919410
 20
28.581609
 30
0.0
 10
40.275594
 20
27.226627
 30
0.0
 10
40.638583
 20
28.581481
 30
0.0
 10
38.919410
 20
28.581609
 30
0.0
  0
LWPOLYLINE
  5
263
100
AcDbEntity
  8
Layer_1
 62
5
100
AcDbPolyline
 90
5
 70
1
 10
33.521354
 20
37.944137
 30
0.0
 10
34.257687
 20
37.943667
 30
0.0
 10
34.257408
 20
39.817035
 30
0.0
 10
34.038045
 20
39.875712
 30
0.0
 10
33.521354
 20
37.944137
 30
0.0
  0
LWPOLYLINE
  5
264
100
AcDbEntity
  8
Layer_1
 62
5
100
AcDbPolyline
 90
4
 70
1
 10
38.361969
 20
29.585944
 30
0.0
 10
39.203805
 20
31.044534
 30
0.0
 10
37.876987
 20
31.400010
 30
0.0
 10
38.361969
 20
29.585944
 30
0.0
  0
LWPOLYLINE
  5
265
100
AcDbEntity
  8
Layer_1
 62
5
100
AcDbPolyline
 90
5
 70
1
 10
43.774253
 20
20.224459
 30
0.0
 10
45.605962
 20
19.734456
 30
0.0
 10
45.668167
 20
19.966659
 30
0.0
 10
44.135598
 20
20.851662
 30
0.0
 10
43.774253
 20
20.224459
 30
0.0
  0
LWPOLYLINE
  5
266
100
AcDbEntity
  8
Layer_1
 62
5
100
AcDbPolyline
 90
5
 70
1
 10
38.789363
 20
29.208360
 30
0.0
 10
40.806620
 20
29.208660
 30
0.0
 10
41.158180
 20
30.520920
 30
0.0
 10
39.763158
 20
30.894669
 30
0.0
 10
38.789363
 20
29.208360
 30
0.0
  0
LWPOLYLINE
  5
267
100
AcDbEntity
  8
Layer_1
 62
5
100
AcDbPolyline
 90
4
 70
1
 10
32.015485
 20
40.983980
 30
0.0
 10
32.304725
 20
40.906639
 30
0.0
 10
32.880062
 20
41.482363
 30
0.0
 10
32.015485
 20
40.983980
 30
0.0
  0
LWPOLYLINE
  5
268
100
AcDbEntity
  8
Layer_1
 62
5
100
AcDbPolyline
 90
4
 70
1
 10
45.655099
 20
17.388145
 30
0.0
 10
46.499848
 20
17.876872
 30
0.0
 10
45.730623
 20
17.670498
 30
0.0
 10
45.655099
 20
17.388145
 30
0.0
  0
LWPOLYLINE
  5
269
100
AcDbEntity
  8
Layer_1
 62
5
100
AcDbPolyline
 90
5
 70
1
 10
43.637785
 20
21.764705
 30
0.0
 10
43.845604
 20
21.644722
 30
0.0
 10
44.301229
 20
22.432651
 30
0.0
 10
43.638683
 20
23.095142
 30
0.0
 10
43.637785
 20
21.764705
 30
0.0
  0
LWPOLYLINE
  5
26a
100
AcDbEntity
  8
Layer_1
 62
5
100
AcDbPolyline
 90
6
 70
1
 10
34.817574
 20
37.095750
 30
0.0
 10
35.875369
 20
36.484061
 30
0.0
 10
35.629272
 20
37.400920
 30
0.0
 10
35.257583
 20
37.401166
 30
0.0
 10
34.817593
 20
37.400783
 30
0.0
 10
34.817574
 20
37.095750
 30
0.0
  0
LWPOLYLINE
  5
26b
100
AcDbEntity
  8
Layer_1
 62
5
100
AcDbPolyline
 90
6
 70
1
 10
40.944529
 20
26.558286
 30
0.0
 10
41.945541
 20
25.558124
 30
0.0
 10
41.945541
 20
25.558124
 30
0.0
 10
43.099060
 20
26.223949
 30
0.0
 10
43.099681
 20
27.136681
 30
0.0
 10
40.944529
 20
26.558286
 30
0.0
  0
LWPOLYLINE
  5
26c
100
AcDbEntity
  8
Layer_1
 62
5
100
AcDbPolyline
 90
5
 70
1
 10
37.626534
 20
32.336836
 30
0.0
 10
39.212603
 20
33.924203
 30
0.0
 10
38.327560
 20
34.434123
 30
0.0
 10
37.234600
 20
33.802877
 30
0.0
 10
37.626534
 20
32.336836
 30
0.0
  0
LWPOLYLINE
  5
26d
100
AcDbEntity
  8
Layer_1
 62
5
100
AcDbPolyline
 90
4
 70
1
 10
32.919702
 20
40.742177
 30
0.0
 10
33.051717
 20
40.706862
 30
0.0
 10
33.279894
 20
41.101990
 30
0.0
 10
32.919702
 20
40.742177
 30
0.0
  0
LWPOLYLINE
  5
26e
100
AcDbEntity
  8
Layer_1
 62
5
100
AcDbPolyline
 90
4
 70
1
 10
45.895030
 20
18.285212
 30
0.0
 10
46.407827
 20
18.422868
 30
0.0
 10
45.931804
 20
18.422784
 30
0.0
 10
45.895030
 20
18.285212
 30
0.0
  0
LWPOLYLINE
  5
26f
100
AcDbEntity
  8
Layer_1
 62
5
100
AcDbPolyline
 90
5
 70
1
 10
38.053487
 20
31.997595
 30
0.0
 10
39.526377
 20
31.603445
 30
0.0
 10
40.104977
 20
32.605953
 30
0.0
 10
39.576809
 20
33.522183
 30
0.0
 10
38.053487
 20
31.997595
 30
0.0
  0
LWPOLYLINE
  5
270
100
AcDbEntity
  8
Layer_1
 62
5
100
AcDbPolyline
 90
5
 70
1
 10
40.852999
 20
27.233707
 30
0.0
 10
42.887087
 20
27.779633
 30
0.0
 10
42.424952
 20
28.581324
 30
0.0
 10
41.214924
 20
28.581420
 30
0.0
 10
40.852999
 20
27.233707
 30
0.0
  0
LWPOLYLINE
  5
271
100
AcDbEntity
  8
Layer_1
 62
5
100
AcDbPolyline
 90
5
 70
1
 10
44.406061
 20
21.321065
 30
0.0
 10
45.813278
 20
20.508443
 30
0.0
 10
45.900383
 20
20.833571
 30
0.0
 10
44.774062
 20
21.959835
 30
0.0
 10
44.406061
 20
21.321065
 30
0.0
  0
LWPOLYLINE
  5
272
100
AcDbEntity
  8
Layer_1
 62
5
100
AcDbPolyline
 90
6
 70
1
 10
34.817640
 20
37.943269
 30
0.0
 10
35.251676
 20
37.942974
 30
0.0
 10
35.483727
 20
37.943185
 30
0.0
 10
35.036702
 20
39.608529
 30
0.0
 10
34.817792
 20
39.667099
 30
0.0
 10
34.817640
 20
37.943269
 30
0.0
  0
LWPOLYLINE
  5
273
100
AcDbEntity
  8
Layer_1
 62
5
100
AcDbPolyline
 90
4
 70
1
 10
42.422778
 20
25.081346
 30
0.0
 10
43.097844
 20
24.406843
 30
0.0
 10
43.098550
 20
25.471641
 30
0.0
 10
42.422778
 20
25.081346
 30
0.0
  0
LWPOLYLINE
  5
274
100
AcDbEntity
  8
Layer_1
 62
5
100
AcDbPolyline
 90
4
 70
1
 10
37.086468
 20
34.356951
 30
0.0
 10
37.773369
 20
34.753373
 30
0.0
 10
36.836148
 20
35.293349
 30
0.0
 10
37.086468
 20
34.356951
 30
0.0
  0
LWPOLYLINE
  5
275
100
AcDbEntity
  8
Layer_1
 62
5
100
AcDbPolyline
 90
4
 70
1
 10
33.604556
 20
40.559006
 30
0.0
 10
33.656316
 20
40.545166
 30
0.0
 10
33.707943
 20
40.738117
 30
0.0
 10
33.604556
 20
40.559006
 30
0.0
  0
LWPOLYLINE
  5
276
100
AcDbEntity
  8
Layer_1
 62
5
100
AcDbPolyline
 90
4
 70
1
 10
46.076677
 20
18.964544
 30
0.0
 10
46.318756
 20
18.964588
 30
0.0
 10
46.092865
 20
19.025015
 30
0.0
 10
46.076677
 20
18.964544
 30
0.0
  0
LWPOLYLINE
  5
277
100
AcDbEntity
  8
Layer_1
 62
5
100
AcDbPolyline
 90
5
 70
1
 10
43.740422
 20
23.764843
 30
0.0
 10
44.584128
 20
22.921878
 30
0.0
 10
45.136596
 20
23.877277
 30
0.0
 10
44.666956
 20
24.691968
 30
0.0
 10
43.740422
 20
23.764843
 30
0.0
  0
LWPOLYLINE
  5
278
100
AcDbEntity
  8
Layer_1
 62
5
100
AcDbPolyline
 90
5
 70
1
 10
36.608761
 20
36.143840
 30
0.0
 10
37.870440
 20
36.482333
 30
0.0
 10
37.341586
 20
37.399753
 30
0.0
 10
36.272772
 20
37.400484
 30
0.0
 10
36.608761
 20
36.143840
 30
0.0
  0
LWPOLYLINE
  5
279
100
AcDbEntity
  8
Layer_1
 62
5
100
AcDbPolyline
 90
4
 70
1
 10
34.179703
 20
40.405203
 30
0.0
 10
34.257322
 20
40.384432
 30
0.0
 10
34.257265
 20
40.695214
 30
0.0
 10
34.179703
 20
40.405203
 30
0.0
  0
LWPOLYLINE
  5
27a
100
AcDbEntity
  8
Layer_1
 62
5
100
AcDbPolyline
 90
4
 70
1
 10
46.237411
 20
19.565552
 30
0.0
 10
46.470970
 20
19.503071
 30
0.0
 10
46.254170
 20
19.628260
 30
0.0
 10
46.237411
 20
19.565552
 30
0.0
  0
LWPOLYLINE
  5
27b
100
AcDbEntity
  8
Layer_1
 62
5
100
AcDbPolyline
 90
5
 70
1
 10
37.184655
 20
35.726871
 30
0.0
 10
38.321181
 20
35.069677
 30
0.0
 10
38.593962
 20
35.227167
 30
0.0
 10
38.155874
 20
35.987180
 30
0.0
 10
37.184655
 20
35.726871
 30
0.0
  0
LWPOLYLINE
  5
27c
100
AcDbEntity
  8
Layer_1
 62
5
100
AcDbPolyline
 90
5
 70
1
 10
43.639747
 20
24.596174
 30
0.0
 10
44.326659
 20
25.282315
 30
0.0
 10
43.938026
 20
25.956475
 30
0.0
 10
43.640609
 20
25.784600
 30
0.0
 10
43.639747
 20
24.596174
 30
0.0
  0
LWPOLYLINE
  5
27d
100
AcDbEntity
  8
Layer_1
 62
5
100
AcDbPolyline
 90
5
 70
1
 10
45.056454
 20
22.449940
 30
0.0
 10
46.063772
 20
21.443515
 30
0.0
 10
46.214710
 20
22.006984
 30
0.0
 10
45.507790
 20
23.233323
 30
0.0
 10
45.056454
 20
22.449940
 30
0.0
  0
LWPOLYLINE
  5
27e
100
AcDbEntity
  8
Layer_1
 62
5
100
AcDbPolyline
 90
5
 70
1
 10
36.127551
 20
37.943764
 30
0.0
 10
37.027550
 20
37.944573
 30
0.0
 10
36.256466
 20
39.282184
 30
0.0
 10
35.732215
 20
39.422454
 30
0.0
 10
36.127551
 20
37.943764
 30
0.0
  0
LWPOLYLINE
  5
27f
100
AcDbEntity
  8
Layer_1
 62
5
100
AcDbPolyline
 90
4
 70
1
 10
46.399106
 20
20.170148
 30
0.0
 10
46.789023
 20
19.944988
 30
0.0
 10
46.433874
 20
20.300125
 30
0.0
 10
46.399106
 20
20.170148
 30
0.0
  0
LWPOLYLINE
  5
280
100
AcDbEntity
  8
Layer_1
 62
5
100
AcDbPolyline
 90
4
 70
1
 10
34.817830
 20
40.234523
 30
0.0
 10
34.872597
 20
40.219891
 30
0.0
 10
34.817856
 20
40.423840
 30
0.0
 10
34.817830
 20
40.234523
 30
0.0
  0
LWPOLYLINE
  5
281
100
AcDbEntity
  8
Layer_1
 62
5
100
AcDbPolyline
 90
4
 70
1
 10
40.085965
 20
31.453694
 30
0.0
 10
40.893815
 20
31.237492
 30
0.0
 10
40.427867
 20
32.045787
 30
0.0
 10
40.085965
 20
31.453694
 30
0.0
  0
LWPOLYLINE
  5
282
100
AcDbEntity
  8
Layer_1
 62
5
100
AcDbPolyline
 90
4
 70
1
 10
41.383405
 20
29.208739
 30
0.0
 10
42.063228
 20
29.208837
 30
0.0
 10
41.599470
 20
30.013340
 30
0.0
 10
41.383405
 20
29.208739
 30
0.0
  0
LWPOLYLINE
  5
283
100
AcDbEntity
  8
Layer_1
 62
5
100
AcDbPolyline
 90
4
 70
1
 10
46.597146
 20
20.910644
 30
0.0
 10
47.185672
 20
20.322607
 30
0.0
 10
46.676236
 20
21.206365
 30
0.0
 10
46.597146
 20
20.910644
 30
0.0
  0
LWPOLYLINE
  5
284
100
AcDbEntity
  8
Layer_1
 62
5
100
AcDbPolyline
 90
4
 70
1
 10
35.568813
 20
40.033693
 30
0.0
 10
35.869648
 20
39.953231
 30
0.0
 10
35.348718
 20
40.856926
 30
0.0
 10
35.568813
 20
40.033693
 30
0.0
  0
LWPOLYLINE
  5
285
100
AcDbEntity
  8
Layer_1
 62
5
100
AcDbPolyline
 90
4
 70
1
 10
47.642222
 20
20.615300
 30
0.0
 10
47.079585
 20
22.714564
 30
0.0
 10
46.874398
 20
21.947322
 30
0.0
 10
47.642222
 20
20.615300
 30
0.0
  0
LWPOLYLINE
  5
286
100
AcDbEntity
  8
Layer_1
 62
5
100
AcDbPolyline
 90
5
 70
1
 10
46.413091
 20
22.747561
 30
0.0
 10
46.741827
 20
23.974692
 30
0.0
 10
46.485648
 20
24.930555
 30
0.0
 10
45.820357
 20
23.775838
 30
0.0
 10
46.413091
 20
22.747561
 30
0.0
  0
LWPOLYLINE
  5
287
100
AcDbEntity
  8
Layer_1
 62
5
100
AcDbPolyline
 90
5
 70
1
 10
45.449710
 20
24.418797
 30
0.0
 10
46.251279
 20
25.804945
 30
0.0
 10
46.151445
 20
26.177379
 30
0.0
 10
45.063517
 20
25.088778
 30
0.0
 10
45.449710
 20
24.418797
 30
0.0
  0
LWPOLYLINE
  5
288
100
AcDbEntity
  8
Layer_1
 62
5
100
AcDbPolyline
 90
5
 70
1
 10
44.723475
 20
25.678674
 30
0.0
 10
45.955341
 20
26.909156
 30
0.0
 10
45.906036
 20
27.093096
 30
0.0
 10
44.407140
 20
26.227419
 30
0.0
 10
44.723475
 20
25.678674
 30
0.0
  0
LWPOLYLINE
  5
289
100
AcDbEntity
  8
Layer_1
 62
5
100
AcDbPolyline
 90
6
 70
1
 10
44.082046
 20
26.791383
 30
0.0
 10
45.731672
 20
27.743619
 30
0.0
 10
45.731672
 20
27.743619
 30
0.0
 10
45.706784
 20
27.836418
 30
0.0
 10
43.778027
 20
27.318754
 30
0.0
 10
44.082046
 20
26.791383
 30
0.0
  0
LWPOLYLINE
  5
28a
100
AcDbEntity
  8
Layer_1
 62
5
100
AcDbPolyline
 90
4
 70
1
 10
43.100622
 20
28.493927
 30
0.0
 10
43.100677
 20
28.581264
 30
0.0
 10
43.050284
 20
28.581270
 30
0.0
 10
43.100622
 20
28.493927
 30
0.0
  0
LWPOLYLINE
  5
28b
100
AcDbEntity
  8
Layer_1
 62
5
100
AcDbPolyline
 90
5
 70
1
 10
42.688467
 20
29.208938
 30
0.0
 10
43.101085
 20
29.208991
 30
0.0
 10
43.101640
 20
30.000241
 30
0.0
 10
42.073542
 20
30.275689
 30
0.0
 10
42.688467
 20
29.208938
 30
0.0
  0
LWPOLYLINE
  5
28c
100
AcDbEntity
  8
Layer_1
 62
5
100
AcDbPolyline
 90
6
 70
1
 10
41.403766
 20
31.437570
 30
0.0
 10
41.687659
 20
32.497184
 30
0.0
 10
41.212948
 20
32.771707
 30
0.0
 10
40.938414
 20
32.929880
 30
0.0
 10
40.740804
 20
32.587687
 30
0.0
 10
41.403766
 20
31.437570
 30
0.0
  0
LWPOLYLINE
  5
28d
100
AcDbEntity
  8
Layer_1
 62
5
100
AcDbPolyline
 90
4
 70
1
 10
40.417815
 20
33.147981
 30
0.0
 10
40.453265
 20
33.209411
 30
0.0
 10
40.347152
 20
33.270534
 30
0.0
 10
40.417815
 20
33.147981
 30
0.0
  0
LWPOLYLINE
  5
28e
100
AcDbEntity
  8
Layer_1
 62
5
100
AcDbPolyline
 90
5
 70
1
 10
39.693128
 20
34.405120
 30
0.0
 10
41.098252
 20
35.811424
 30
0.0
 10
40.956942
 20
35.952702
 30
0.0
 10
39.339513
 20
35.018558
 30
0.0
 10
39.693128
 20
34.405120
 30
0.0
  0
LWPOLYLINE
  5
28f
100
AcDbEntity
  8
Layer_1
 62
5
100
AcDbPolyline
 90
5
 70
1
 10
39.063166
 20
35.497969
 30
0.0
 10
40.552144
 20
36.357455
 30
0.0
 10
40.337740
 20
36.571816
 30
0.0
 10
38.697530
 20
36.132266
 30
0.0
 10
39.063166
 20
35.497969
 30
0.0
  0
LWPOLYLINE
  5
290
100
AcDbEntity
  8
Layer_1
 62
5
100
AcDbPolyline
 90
5
 70
1
 10
38.411986
 20
36.627623
 30
0.0
 10
39.886333
 20
37.023157
 30
0.0
 10
39.511168
 20
37.398277
 30
0.0
 10
37.967136
 20
37.399321
 30
0.0
 10
38.411986
 20
36.627623
 30
0.0
  0
LWPOLYLINE
  5
291
100
AcDbEntity
  8
Layer_1
 62
5
100
AcDbPolyline
 90
5
 70
1
 10
37.652487
 20
37.945143
 30
0.0
 10
38.963044
 20
37.946310
 30
0.0
 10
38.127678
 20
38.781562
 30
0.0
 10
36.995779
 20
39.084388
 30
0.0
 10
37.652487
 20
37.945143
 30
0.0
  0
LWPOLYLINE
  5
292
100
AcDbEntity
  8
Layer_1
 62
5
100
AcDbPolyline
 90
4
 70
1
 10
36.608901
 20
39.755514
 30
0.0
 10
37.352512
 20
39.556657
 30
0.0
 10
35.867845
 20
41.041130
 30
0.0
 10
36.608901
 20
39.755514
 30
0.0
  0
LWPOLYLINE
  5
293
100
AcDbEntity
  8
Layer_1
 62
5
100
AcDbPolyline
 90
5
 70
1
 10
41.858855
 20
30.979221
 30
0.0
 10
43.102062
 20
30.646526
 30
0.0
 10
43.102752
 20
31.678903
 30
0.0
 10
42.188701
 20
32.207452
 30
0.0
 10
41.858855
 20
30.979221
 30
0.0
  0
LWPOLYLINE
  5
294
100
AcDbEntity
  8
Layer_1
 62
5
100
AcDbPolyline
 90
5
 70
1
 10
40.096993
 20
34.042799
 30
0.0
 10
40.724733
 20
33.679808
 30
0.0
 10
41.641506
 20
35.268236
 30
0.0
 10
41.481406
 20
35.428319
 30
0.0
 10
40.096993
 20
34.042799
 30
0.0
  0
LWPOLYLINE
  5
295
100
AcDbEntity
  8
Layer_1
 62
5
100
AcDbPolyline
 90
5
 70
1
 10
43.642038
 20
27.982272
 30
0.0
 10
45.531770
 20
28.489449
 30
0.0
 10
45.507228
 20
28.581046
 30
0.0
 10
43.642449
 20
28.581220
 30
0.0
 10
43.642038
 20
27.982272
 30
0.0
  0
LWPOLYLINE
  5
296
100
AcDbEntity
  8
Layer_1
 62
5
100
AcDbPolyline
 90
4
 70
1
 10
36.213349
 20
41.467034
 30
0.0
 10
38.407627
 20
39.274465
 30
0.0
 10
41.394635
 20
38.475629
 30
0.0
 10
36.213349
 20
41.467034
 30
0.0
  0
LWPOLYLINE
  5
297
100
AcDbEntity
  8
Layer_1
 62
5
100
AcDbPolyline
 90
4
 70
1
 10
48.165728
 20
20.782309
 30
0.0
 10
48.165742
 20
26.776037
 30
0.0
 10
47.362725
 20
23.773375
 30
0.0
 10
48.165728
 20
20.782309
 30
0.0
  0
LWPOLYLINE
  5
298
100
AcDbEntity
  8
Layer_1
 62
5
100
AcDbPolyline
 90
6
 70
1
 10
41.209569
 20
33.399454
 30
0.0
 10
41.478705
 20
33.243819
 30
0.0
 10
41.832996
 20
33.039672
 30
0.0
 10
42.263466
 20
34.646376
 30
0.0
 10
42.051815
 20
34.858005
 30
0.0
 10
41.209569
 20
33.399454
 30
0.0
  0
LWPOLYLINE
  5
299
100
AcDbEntity
  8
Layer_1
 62
5
100
AcDbPolyline
 90
5
 70
1
 10
43.642868
 20
29.209065
 30
0.0
 10
45.338826
 20
29.209327
 30
0.0
 10
45.283515
 20
29.415659
 30
0.0
 10
43.643316
 20
29.855091
 30
0.0
 10
43.642868
 20
29.209065
 30
0.0
  0
LWPOLYLINE
  5
29a
100
AcDbEntity
  8
Layer_1
 62
5
100
AcDbPolyline
 90
5
 70
1
 10
42.334599
 20
32.750702
 30
0.0
 10
43.103181
 20
32.307883
 30
0.0
 10
43.104186
 20
33.805756
 30
0.0
 10
42.720859
 20
34.189037
 30
0.0
 10
42.334599
 20
32.750702
 30
0.0
  0
LWPOLYLINE
  5
29b
100
AcDbEntity
  8
Layer_1
 62
5
100
AcDbPolyline
 90
5
 70
1
 10
43.643740
 20
30.501560
 30
0.0
 10
45.096677
 20
30.112741
 30
0.0
 10
44.965652
 20
30.601669
 30
0.0
 10
43.644330
 20
31.365727
 30
0.0
 10
43.643740
 20
30.501560
 30
0.0
  0
LWPOLYLINE
  5
29c
100
AcDbEntity
  8
Layer_1
 62
5
100
AcDbPolyline
 90
4
 70
1
 10
39.183604
 20
38.499078
 30
0.0
 10
39.736097
 20
37.947018
 30
0.0
 10
41.242051
 20
37.948381
 30
0.0
 10
39.183604
 20
38.499078
 30
0.0
  0
LWPOLYLINE
  5
29d
100
AcDbEntity
  8
Layer_1
 62
5
100
AcDbPolyline
 90
4
 70
1
 10
47.024939
 20
25.031601
 30
0.0
 10
47.442980
 20
26.592189
 30
0.0
 10
46.872028
 20
25.601199
 30
0.0
 10
47.024939
 20
25.031601
 30
0.0
  0
LWPOLYLINE
  5
29e
100
AcDbEntity
  8
Layer_1
 62
5
100
AcDbPolyline
 90
4
 70
1
 10
40.285799
 20
37.397759
 30
0.0
 10
40.496777
 20
37.186937
 30
0.0
 10
41.280011
 20
37.397080
 30
0.0
 10
40.285799
 20
37.397759
 30
0.0
  0
LWPOLYLINE
  5
29f
100
AcDbEntity
  8
Layer_1
 62
5
100
AcDbPolyline
 90
4
 70
1
 10
46.637846
 20
26.473491
 30
0.0
 10
46.899407
 20
26.925822
 30
0.0
 10
46.597513
 20
26.623737
 30
0.0
 10
46.637846
 20
26.473491
 30
0.0
  0
LWPOLYLINE
  5
2a0
100
AcDbEntity
  8
Layer_1
 62
5
100
AcDbPolyline
 90
5
 70
1
 10
43.644763
 20
31.995857
 30
0.0
 10
44.764964
 20
31.350454
 30
0.0
 10
44.473983
 20
32.436150
 30
0.0
 10
43.645628
 20
33.264394
 30
0.0
 10
43.644763
 20
31.995857
 30
0.0
  0
LWPOLYLINE
  5
2a1
100
AcDbEntity
  8
Layer_1
 62
5
100
AcDbPolyline
 90
4
 70
1
 10
40.948545
 20
36.735522
 30
0.0
 10
41.043208
 20
36.640918
 30
0.0
 10
41.431088
 20
36.864860
 30
0.0
 10
40.948545
 20
36.735522
 30
0.0
  0
LWPOLYLINE
  5
2a2
100
AcDbEntity
  8
Layer_1
 62
5
100
AcDbPolyline
 90
4
 70
1
 10
46.401299
 20
27.354622
 30
0.0
 10
46.459450
 20
27.412725
 30
0.0
 10
46.395590
 20
27.375855
 30
0.0
 10
46.401299
 20
27.354622
 30
0.0
  0
LWPOLYLINE
  5
2a3
100
AcDbEntity
  8
Layer_1
 62
5
100
AcDbPolyline
 90
4
 70
1
 10
41.448084
 20
36.236356
 30
0.0
 10
41.485506
 20
36.198974
 30
0.0
 10
41.624884
 20
36.338478
 30
0.0
 10
41.448084
 20
36.236356
 30
0.0
  0
LWPOLYLINE
  5
2a4
100
AcDbEntity
  8
Layer_1
 62
5
100
AcDbPolyline
 90
4
 70
1
 10
41.868760
 20
35.816018
 30
0.0
 10
41.925146
 20
35.759682
 30
0.0
 10
42.079184
 20
36.026608
 30
0.0
 10
41.868760
 20
35.816018
 30
0.0
  0
LWPOLYLINE
  5
2a5
100
AcDbEntity
  8
Layer_1
 62
5
100
AcDbPolyline
 90
4
 70
1
 10
42.335641
 20
35.349489
 30
0.0
 10
42.427296
 20
35.257908
 30
0.0
 10
42.552418
 20
35.724866
 30
0.0
 10
42.335641
 20
35.349489
 30
0.0
  0
LWPOLYLINE
  5
2a6
100
AcDbEntity
  8
Layer_1
 62
5
100
AcDbPolyline
 90
4
 70
1
 10
45.903353
 20
29.209410
 30
0.0
 10
46.053263
 20
29.209435
 30
0.0
 10
45.891737
 20
29.252701
 30
0.0
 10
45.903353
 20
29.209410
 30
0.0
  0
LWPOLYLINE
  5
2a7
100
AcDbEntity
  8
Layer_1
 62
5
100
AcDbPolyline
 90
4
 70
1
 10
42.885068
 20
34.800509
 30
0.0
 10
43.104727
 20
34.581021
 30
0.0
 10
43.105429
 20
35.621060
 30
0.0
 10
42.885068
 20
34.800509
 30
0.0
  0
LWPOLYLINE
  5
2a8
100
AcDbEntity
  8
Layer_1
 62
5
100
AcDbPolyline
 90
4
 70
1
 10
45.704498
 20
29.950080
 30
0.0
 10
46.426670
 20
29.756823
 30
0.0
 10
45.633206
 20
30.215666
 30
0.0
 10
45.704498
 20
29.950080
 30
0.0
  0
LWPOLYLINE
  5
2a9
100
AcDbEntity
  8
Layer_1
 62
5
100
AcDbPolyline
 90
4
 70
1
 10
43.646148
 20
34.040016
 30
0.0
 10
44.189654
 20
33.496950
 30
0.0
 10
43.647166
 20
35.521023
 30
0.0
 10
43.646148
 20
34.040016
 30
0.0
  0
LWPOLYLINE
  5
2aa
100
AcDbEntity
  8
Layer_1
 62
5
100
AcDbPolyline
 90
4
 70
1
 10
45.431681
 20
30.966336
 30
0.0
 10
46.640618
 20
30.269801
 30
0.0
 10
45.243694
 20
31.666524
 30
0.0
 10
45.431681
 20
30.966336
 30
0.0
  0
LWPOLYLINE
  5
2ab
100
AcDbEntity
  8
Layer_1
 62
5
100
AcDbPolyline
 90
4
 70
1
 10
44.958571
 20
32.728616
 30
0.0
 10
47.147215
 20
30.541666
 30
0.0
 10
44.153743
 20
35.726511
 30
0.0
 10
44.958571
 20
32.728616
 30
0.0
  0
ENDSEC
  0
SECTION
  2
OBJECTS
  0
DICTIONARY
  5
C
330
0
100
AcDbDictionary
  3
ACAD_GROUP
350
D
  3
ACAD_MLINESTYLE
350
17
  0
DICTIONARY
  5
D
330
C
100
AcDbDictionary
  0
DICTIONARY
  5
1A
330
C
100
AcDbDictionary
  0
DICTIONARY
  5
17
330
C
100
AcDbDictionary
  3
STANDARD
350
18
  0
DICTIONARY
  5
19
330
C
100
AcDbDictionary
  0
ENDSEC
  0
EOF
